M48
;DRILL file {KiCad (5.0.2)-1} date 31.7.2020 9:38:25
;FORMAT={-:-/ absolute / metric / decimal}
FMAT,2
METRIC,TZ
T1C0.400
T2C0.500
T3C1.000
T4C1.500
%
G90
G05
T1
X111.5Y-74.
X112.Y-80.4
X112.75Y-75.5
X113.6Y-79.8
X114.25Y-75.5
X114.531Y-79.069
X117.5Y-70.5
X119.Y-87.8
X120.034Y-71.78
X122.2Y-90.2
X123.Y-70.5
X123.4Y-74.4
X123.4Y-89.
X126.638Y-87.362
X127.146Y-84.353
X127.527Y-82.067
X127.527Y-83.337
X130.3Y-79.
X130.5Y-54.
X132.25Y-54.
X134.222Y-71.229
X134.5Y-74.75
X138.Y-53.5
X139.Y-88.5
X139.Y-91.5
X139.75Y-61.5
X141.Y-66.4
X141.Y-86.5
X142.2Y-68.2
X143.5Y-54.5
X143.8Y-53.
X144.5Y-88.
X145.8Y-50.8
X146.Y-63.
X148.941Y-61.184
X148.971Y-59.436
X149.Y-53.5
T2
X143.5Y-60.5
X144.75Y-60.5
T3
X102.Y-54.
X102.Y-56.54
X102.Y-59.08
X102.Y-61.62
X102.Y-64.16
X102.Y-66.7
X102.Y-69.24
X102.Y-71.78
X102.Y-74.32
X102.Y-76.86
X102.Y-79.4
X102.Y-81.94
X102.Y-84.48
X102.Y-87.02
X102.Y-89.56
X102.Y-92.1
X153.Y-54.
X153.Y-56.54
X153.Y-59.08
X153.Y-61.62
X153.Y-64.16
X153.Y-66.7
X153.Y-69.24
X153.Y-71.78
X153.Y-74.32
X153.Y-76.86
X153.Y-79.4
X153.Y-81.94
X153.Y-84.48
X153.Y-87.02
X153.Y-89.56
X153.Y-92.1
T4
X121.Y-51.325
X121.Y-58.325
X108.5Y-51.325
X108.5Y-58.325
X131.Y-51.325
X131.Y-58.325
T0
M30
