%TF.GenerationSoftware,KiCad,Pcbnew,(5.0.2)-1*%
%TF.CreationDate,2020-07-31T09:38:14+02:00*%
%TF.ProjectId,Multimeter_Watch_Board_V1,4d756c74-696d-4657-9465-725f57617463,rev?*%
%TF.SameCoordinates,Original*%
%TF.FileFunction,Copper,L3,Inr*%
%TF.FilePolarity,Positive*%
%FSLAX46Y46*%
G04 Gerber Fmt 4.6, Leading zero omitted, Abs format (unit mm)*
G04 Created by KiCad (PCBNEW (5.0.2)-1) date 31.7.2020 9:38:14*
%MOMM*%
%LPD*%
G01*
G04 APERTURE LIST*
%TA.AperFunction,ViaPad*%
%ADD10O,1.700000X1.700000*%
%TD*%
%TA.AperFunction,ViaPad*%
%ADD11R,1.700000X1.700000*%
%TD*%
%TA.AperFunction,ViaPad*%
%ADD12O,0.800000X1.300000*%
%TD*%
%TA.AperFunction,Conductor*%
%ADD13C,0.100000*%
%TD*%
%TA.AperFunction,ViaPad*%
%ADD14C,0.800000*%
%TD*%
%TA.AperFunction,Conductor*%
%ADD15C,0.254000*%
%TD*%
G04 APERTURE END LIST*
D10*
%TO.N,/SDA*%
%TO.C,J4*%
X153000000Y-92100000D03*
%TO.N,/SCL*%
X153000000Y-89560000D03*
%TO.N,/PE5*%
X153000000Y-87020000D03*
%TO.N,/SWC*%
X153000000Y-84480000D03*
%TO.N,/SWD*%
X153000000Y-81940000D03*
%TO.N,/SDA*%
X153000000Y-79400000D03*
%TO.N,/SCL*%
X153000000Y-76860000D03*
%TO.N,/ADC6*%
X153000000Y-74320000D03*
%TO.N,/ADC11*%
X153000000Y-71780000D03*
%TO.N,/ADC3*%
X153000000Y-69240000D03*
%TO.N,/VCC_HALF*%
X153000000Y-66700000D03*
%TO.N,/RESET*%
X153000000Y-64160000D03*
%TO.N,/GND*%
X153000000Y-61620000D03*
%TO.N,/PB6*%
X153000000Y-59080000D03*
%TO.N,/PB7*%
X153000000Y-56540000D03*
D11*
%TO.N,/VCC*%
X153000000Y-54000000D03*
%TD*%
D12*
%TO.N,/GND*%
%TO.C,BT1*%
X144750000Y-60500000D03*
D13*
%TO.N,/VCC*%
G36*
X143719603Y-59850963D02*
X143739018Y-59853843D01*
X143758057Y-59858612D01*
X143776537Y-59865224D01*
X143794279Y-59873616D01*
X143811114Y-59883706D01*
X143826879Y-59895398D01*
X143841421Y-59908579D01*
X143854602Y-59923121D01*
X143866294Y-59938886D01*
X143876384Y-59955721D01*
X143884776Y-59973463D01*
X143891388Y-59991943D01*
X143896157Y-60010982D01*
X143899037Y-60030397D01*
X143900000Y-60050000D01*
X143900000Y-60950000D01*
X143899037Y-60969603D01*
X143896157Y-60989018D01*
X143891388Y-61008057D01*
X143884776Y-61026537D01*
X143876384Y-61044279D01*
X143866294Y-61061114D01*
X143854602Y-61076879D01*
X143841421Y-61091421D01*
X143826879Y-61104602D01*
X143811114Y-61116294D01*
X143794279Y-61126384D01*
X143776537Y-61134776D01*
X143758057Y-61141388D01*
X143739018Y-61146157D01*
X143719603Y-61149037D01*
X143700000Y-61150000D01*
X143300000Y-61150000D01*
X143280397Y-61149037D01*
X143260982Y-61146157D01*
X143241943Y-61141388D01*
X143223463Y-61134776D01*
X143205721Y-61126384D01*
X143188886Y-61116294D01*
X143173121Y-61104602D01*
X143158579Y-61091421D01*
X143145398Y-61076879D01*
X143133706Y-61061114D01*
X143123616Y-61044279D01*
X143115224Y-61026537D01*
X143108612Y-61008057D01*
X143103843Y-60989018D01*
X143100963Y-60969603D01*
X143100000Y-60950000D01*
X143100000Y-60050000D01*
X143100963Y-60030397D01*
X143103843Y-60010982D01*
X143108612Y-59991943D01*
X143115224Y-59973463D01*
X143123616Y-59955721D01*
X143133706Y-59938886D01*
X143145398Y-59923121D01*
X143158579Y-59908579D01*
X143173121Y-59895398D01*
X143188886Y-59883706D01*
X143205721Y-59873616D01*
X143223463Y-59865224D01*
X143241943Y-59858612D01*
X143260982Y-59853843D01*
X143280397Y-59850963D01*
X143300000Y-59850000D01*
X143700000Y-59850000D01*
X143719603Y-59850963D01*
X143719603Y-59850963D01*
G37*
D14*
X143500000Y-60500000D03*
%TD*%
D10*
%TO.N,/PD3*%
%TO.C,J5*%
X102000000Y-92100000D03*
%TO.N,/PD2*%
X102000000Y-89560000D03*
%TO.N,/PE4*%
X102000000Y-87020000D03*
%TO.N,/GND*%
X102000000Y-84480000D03*
X102000000Y-81940000D03*
X102000000Y-79400000D03*
X102000000Y-76860000D03*
%TO.N,/D1*%
X102000000Y-74320000D03*
%TO.N,/D0*%
X102000000Y-71780000D03*
%TO.N,/VCC*%
X102000000Y-69240000D03*
X102000000Y-66700000D03*
X102000000Y-64160000D03*
X102000000Y-61620000D03*
%TO.N,/PD5*%
X102000000Y-59080000D03*
%TO.N,/PD6*%
X102000000Y-56540000D03*
D11*
%TO.N,/GND*%
X102000000Y-54000000D03*
%TD*%
D14*
%TO.N,/ADC11*%
X134222266Y-71229425D03*
%TO.N,/ADC2*%
X138000000Y-53500000D03*
X130500000Y-54000000D03*
X114250000Y-75500000D03*
%TO.N,/ADC3*%
X132250000Y-54000000D03*
X112750000Y-75500000D03*
X139750000Y-61500000D03*
X146000000Y-63000000D03*
%TO.N,/RESET*%
X112000000Y-80400000D03*
%TO.N,/SDA*%
X113600000Y-79800000D03*
%TO.N,/SCL*%
X114531458Y-79068542D03*
%TO.N,/SWD*%
X120034000Y-71780000D03*
%TO.N,/ADC6*%
X134500000Y-74750000D03*
%TO.N,/SWC*%
X123400000Y-74400000D03*
%TO.N,/PB0*%
X123000000Y-70500000D03*
X130299998Y-79000000D03*
%TO.N,/VCC*%
X144500000Y-88000000D03*
X148971000Y-59436000D03*
X145800000Y-50800000D03*
X122200000Y-90200000D03*
X111500000Y-74000000D03*
%TO.N,/PE4*%
X119000000Y-87800000D03*
%TO.N,Net-(R16-Pad2)*%
X149000000Y-53500000D03*
%TO.N,/GND*%
X139000000Y-91500000D03*
X148941452Y-61184452D03*
X143500000Y-54500000D03*
X123400000Y-89000000D03*
X139000000Y-88500000D03*
X141000000Y-86500000D03*
%TO.N,Net-(R13-Pad2)*%
X143800000Y-53000000D03*
%TO.N,/PD7*%
X117500000Y-70500000D03*
X127527000Y-82067000D03*
%TO.N,/PD6*%
X127527004Y-83337000D03*
%TO.N,/PD5*%
X127145996Y-84353000D03*
%TO.N,/PB7*%
X141000000Y-66400000D03*
%TO.N,/PB6*%
X142200000Y-68200000D03*
%TO.N,/PE5*%
X126638000Y-87362010D03*
%TD*%
D15*
%TO.N,/VCC*%
G36*
X107272629Y-50668957D02*
X107168225Y-50921011D01*
X107115000Y-51188589D01*
X107115000Y-51461411D01*
X107168225Y-51728989D01*
X107272629Y-51981043D01*
X107424201Y-52207886D01*
X107617114Y-52400799D01*
X107843957Y-52552371D01*
X108096011Y-52656775D01*
X108363589Y-52710000D01*
X108636411Y-52710000D01*
X108903989Y-52656775D01*
X109156043Y-52552371D01*
X109382886Y-52400799D01*
X109575799Y-52207886D01*
X109727371Y-51981043D01*
X109831775Y-51728989D01*
X109885000Y-51461411D01*
X109885000Y-51188589D01*
X109831775Y-50921011D01*
X109727371Y-50668957D01*
X109721386Y-50660000D01*
X119778614Y-50660000D01*
X119772629Y-50668957D01*
X119668225Y-50921011D01*
X119615000Y-51188589D01*
X119615000Y-51461411D01*
X119668225Y-51728989D01*
X119772629Y-51981043D01*
X119924201Y-52207886D01*
X120117114Y-52400799D01*
X120343957Y-52552371D01*
X120596011Y-52656775D01*
X120863589Y-52710000D01*
X121136411Y-52710000D01*
X121403989Y-52656775D01*
X121656043Y-52552371D01*
X121882886Y-52400799D01*
X122075799Y-52207886D01*
X122227371Y-51981043D01*
X122331775Y-51728989D01*
X122385000Y-51461411D01*
X122385000Y-51188589D01*
X122331775Y-50921011D01*
X122227371Y-50668957D01*
X122221386Y-50660000D01*
X129778614Y-50660000D01*
X129772629Y-50668957D01*
X129668225Y-50921011D01*
X129615000Y-51188589D01*
X129615000Y-51461411D01*
X129668225Y-51728989D01*
X129772629Y-51981043D01*
X129924201Y-52207886D01*
X130117114Y-52400799D01*
X130343957Y-52552371D01*
X130596011Y-52656775D01*
X130863589Y-52710000D01*
X131136411Y-52710000D01*
X131403989Y-52656775D01*
X131656043Y-52552371D01*
X131882886Y-52400799D01*
X132075799Y-52207886D01*
X132227371Y-51981043D01*
X132331775Y-51728989D01*
X132385000Y-51461411D01*
X132385000Y-51188589D01*
X132331775Y-50921011D01*
X132227371Y-50668957D01*
X132221386Y-50660000D01*
X154340000Y-50660000D01*
X154340000Y-52741974D01*
X154254789Y-52656763D01*
X154150785Y-52587270D01*
X154035223Y-52539403D01*
X153912542Y-52515000D01*
X153285750Y-52515000D01*
X153127000Y-52673750D01*
X153127000Y-53873000D01*
X153147000Y-53873000D01*
X153147000Y-54127000D01*
X153127000Y-54127000D01*
X153127000Y-54147000D01*
X152873000Y-54147000D01*
X152873000Y-54127000D01*
X151673750Y-54127000D01*
X151515000Y-54285750D01*
X151515000Y-54912542D01*
X151539403Y-55035223D01*
X151587270Y-55150785D01*
X151656763Y-55254789D01*
X151745211Y-55343237D01*
X151849215Y-55412730D01*
X151964777Y-55460597D01*
X151972553Y-55462144D01*
X151944866Y-55484866D01*
X151759294Y-55710986D01*
X151621401Y-55968966D01*
X151536487Y-56248889D01*
X151507815Y-56540000D01*
X151536487Y-56831111D01*
X151621401Y-57111034D01*
X151759294Y-57369014D01*
X151944866Y-57595134D01*
X152170986Y-57780706D01*
X152225791Y-57810000D01*
X152170986Y-57839294D01*
X151944866Y-58024866D01*
X151759294Y-58250986D01*
X151621401Y-58508966D01*
X151536487Y-58788889D01*
X151507815Y-59080000D01*
X151536487Y-59371111D01*
X151621401Y-59651034D01*
X151759294Y-59909014D01*
X151944866Y-60135134D01*
X152170986Y-60320706D01*
X152225791Y-60350000D01*
X152170986Y-60379294D01*
X151944866Y-60564866D01*
X151759294Y-60790986D01*
X151621401Y-61048966D01*
X151536487Y-61328889D01*
X151507815Y-61620000D01*
X151536487Y-61911111D01*
X151621401Y-62191034D01*
X151759294Y-62449014D01*
X151944866Y-62675134D01*
X152170986Y-62860706D01*
X152225791Y-62890000D01*
X152170986Y-62919294D01*
X151944866Y-63104866D01*
X151759294Y-63330986D01*
X151621401Y-63588966D01*
X151536487Y-63868889D01*
X151507815Y-64160000D01*
X151536487Y-64451111D01*
X151621401Y-64731034D01*
X151759294Y-64989014D01*
X151944866Y-65215134D01*
X152170986Y-65400706D01*
X152225791Y-65430000D01*
X152170986Y-65459294D01*
X151944866Y-65644866D01*
X151759294Y-65870986D01*
X151621401Y-66128966D01*
X151536487Y-66408889D01*
X151507815Y-66700000D01*
X151536487Y-66991111D01*
X151621401Y-67271034D01*
X151759294Y-67529014D01*
X151944866Y-67755134D01*
X152170986Y-67940706D01*
X152225791Y-67970000D01*
X152170986Y-67999294D01*
X151944866Y-68184866D01*
X151759294Y-68410986D01*
X151621401Y-68668966D01*
X151536487Y-68948889D01*
X151507815Y-69240000D01*
X151536487Y-69531111D01*
X151621401Y-69811034D01*
X151759294Y-70069014D01*
X151944866Y-70295134D01*
X152170986Y-70480706D01*
X152225791Y-70510000D01*
X152170986Y-70539294D01*
X151944866Y-70724866D01*
X151759294Y-70950986D01*
X151621401Y-71208966D01*
X151536487Y-71488889D01*
X151507815Y-71780000D01*
X151536487Y-72071111D01*
X151621401Y-72351034D01*
X151759294Y-72609014D01*
X151944866Y-72835134D01*
X152170986Y-73020706D01*
X152225791Y-73050000D01*
X152170986Y-73079294D01*
X151944866Y-73264866D01*
X151759294Y-73490986D01*
X151621401Y-73748966D01*
X151536487Y-74028889D01*
X151507815Y-74320000D01*
X151536487Y-74611111D01*
X151621401Y-74891034D01*
X151759294Y-75149014D01*
X151944866Y-75375134D01*
X152170986Y-75560706D01*
X152225791Y-75590000D01*
X152170986Y-75619294D01*
X151944866Y-75804866D01*
X151759294Y-76030986D01*
X151621401Y-76288966D01*
X151536487Y-76568889D01*
X151507815Y-76860000D01*
X151536487Y-77151111D01*
X151621401Y-77431034D01*
X151759294Y-77689014D01*
X151944866Y-77915134D01*
X152170986Y-78100706D01*
X152225791Y-78130000D01*
X152170986Y-78159294D01*
X151944866Y-78344866D01*
X151759294Y-78570986D01*
X151621401Y-78828966D01*
X151536487Y-79108889D01*
X151507815Y-79400000D01*
X151536487Y-79691111D01*
X151621401Y-79971034D01*
X151759294Y-80229014D01*
X151944866Y-80455134D01*
X152170986Y-80640706D01*
X152225791Y-80670000D01*
X152170986Y-80699294D01*
X151944866Y-80884866D01*
X151759294Y-81110986D01*
X151621401Y-81368966D01*
X151536487Y-81648889D01*
X151507815Y-81940000D01*
X151536487Y-82231111D01*
X151621401Y-82511034D01*
X151759294Y-82769014D01*
X151944866Y-82995134D01*
X152170986Y-83180706D01*
X152225791Y-83210000D01*
X152170986Y-83239294D01*
X151944866Y-83424866D01*
X151759294Y-83650986D01*
X151621401Y-83908966D01*
X151536487Y-84188889D01*
X151507815Y-84480000D01*
X151536487Y-84771111D01*
X151621401Y-85051034D01*
X151759294Y-85309014D01*
X151944866Y-85535134D01*
X152170986Y-85720706D01*
X152225791Y-85750000D01*
X152170986Y-85779294D01*
X151944866Y-85964866D01*
X151759294Y-86190986D01*
X151621401Y-86448966D01*
X151536487Y-86728889D01*
X151507815Y-87020000D01*
X151536487Y-87311111D01*
X151621401Y-87591034D01*
X151759294Y-87849014D01*
X151944866Y-88075134D01*
X152170986Y-88260706D01*
X152225791Y-88290000D01*
X152170986Y-88319294D01*
X151944866Y-88504866D01*
X151759294Y-88730986D01*
X151621401Y-88988966D01*
X151536487Y-89268889D01*
X151507815Y-89560000D01*
X151536487Y-89851111D01*
X151621401Y-90131034D01*
X151759294Y-90389014D01*
X151944866Y-90615134D01*
X152170986Y-90800706D01*
X152225791Y-90830000D01*
X152170986Y-90859294D01*
X151944866Y-91044866D01*
X151759294Y-91270986D01*
X151621401Y-91528966D01*
X151536487Y-91808889D01*
X151507815Y-92100000D01*
X151536487Y-92391111D01*
X151621401Y-92671034D01*
X151759294Y-92929014D01*
X151944866Y-93155134D01*
X152170986Y-93340706D01*
X152428966Y-93478599D01*
X152708889Y-93563513D01*
X152927050Y-93585000D01*
X153072950Y-93585000D01*
X153291111Y-93563513D01*
X153571034Y-93478599D01*
X153829014Y-93340706D01*
X154055134Y-93155134D01*
X154240706Y-92929014D01*
X154340001Y-92743246D01*
X154340001Y-95340000D01*
X100660000Y-95340000D01*
X100660000Y-92743248D01*
X100759294Y-92929014D01*
X100944866Y-93155134D01*
X101170986Y-93340706D01*
X101428966Y-93478599D01*
X101708889Y-93563513D01*
X101927050Y-93585000D01*
X102072950Y-93585000D01*
X102291111Y-93563513D01*
X102571034Y-93478599D01*
X102829014Y-93340706D01*
X103055134Y-93155134D01*
X103240706Y-92929014D01*
X103378599Y-92671034D01*
X103463513Y-92391111D01*
X103492185Y-92100000D01*
X103463513Y-91808889D01*
X103378599Y-91528966D01*
X103308629Y-91398061D01*
X137965000Y-91398061D01*
X137965000Y-91601939D01*
X138004774Y-91801898D01*
X138082795Y-91990256D01*
X138196063Y-92159774D01*
X138340226Y-92303937D01*
X138509744Y-92417205D01*
X138698102Y-92495226D01*
X138898061Y-92535000D01*
X139101939Y-92535000D01*
X139301898Y-92495226D01*
X139490256Y-92417205D01*
X139659774Y-92303937D01*
X139803937Y-92159774D01*
X139917205Y-91990256D01*
X139995226Y-91801898D01*
X140035000Y-91601939D01*
X140035000Y-91398061D01*
X139995226Y-91198102D01*
X139917205Y-91009744D01*
X139803937Y-90840226D01*
X139659774Y-90696063D01*
X139490256Y-90582795D01*
X139301898Y-90504774D01*
X139101939Y-90465000D01*
X138898061Y-90465000D01*
X138698102Y-90504774D01*
X138509744Y-90582795D01*
X138340226Y-90696063D01*
X138196063Y-90840226D01*
X138082795Y-91009744D01*
X138004774Y-91198102D01*
X137965000Y-91398061D01*
X103308629Y-91398061D01*
X103240706Y-91270986D01*
X103055134Y-91044866D01*
X102829014Y-90859294D01*
X102774209Y-90830000D01*
X102829014Y-90800706D01*
X103055134Y-90615134D01*
X103240706Y-90389014D01*
X103378599Y-90131034D01*
X103463513Y-89851111D01*
X103492185Y-89560000D01*
X103463513Y-89268889D01*
X103378599Y-88988966D01*
X103330010Y-88898061D01*
X122365000Y-88898061D01*
X122365000Y-89101939D01*
X122404774Y-89301898D01*
X122482795Y-89490256D01*
X122596063Y-89659774D01*
X122740226Y-89803937D01*
X122909744Y-89917205D01*
X123098102Y-89995226D01*
X123298061Y-90035000D01*
X123501939Y-90035000D01*
X123701898Y-89995226D01*
X123890256Y-89917205D01*
X124059774Y-89803937D01*
X124203937Y-89659774D01*
X124317205Y-89490256D01*
X124395226Y-89301898D01*
X124435000Y-89101939D01*
X124435000Y-88898061D01*
X124395226Y-88698102D01*
X124317205Y-88509744D01*
X124242582Y-88398061D01*
X137965000Y-88398061D01*
X137965000Y-88601939D01*
X138004774Y-88801898D01*
X138082795Y-88990256D01*
X138196063Y-89159774D01*
X138340226Y-89303937D01*
X138509744Y-89417205D01*
X138698102Y-89495226D01*
X138898061Y-89535000D01*
X139101939Y-89535000D01*
X139301898Y-89495226D01*
X139490256Y-89417205D01*
X139659774Y-89303937D01*
X139803937Y-89159774D01*
X139917205Y-88990256D01*
X139995226Y-88801898D01*
X140035000Y-88601939D01*
X140035000Y-88398061D01*
X139995226Y-88198102D01*
X139917205Y-88009744D01*
X139803937Y-87840226D01*
X139659774Y-87696063D01*
X139490256Y-87582795D01*
X139301898Y-87504774D01*
X139101939Y-87465000D01*
X138898061Y-87465000D01*
X138698102Y-87504774D01*
X138509744Y-87582795D01*
X138340226Y-87696063D01*
X138196063Y-87840226D01*
X138082795Y-88009744D01*
X138004774Y-88198102D01*
X137965000Y-88398061D01*
X124242582Y-88398061D01*
X124203937Y-88340226D01*
X124059774Y-88196063D01*
X123890256Y-88082795D01*
X123701898Y-88004774D01*
X123501939Y-87965000D01*
X123298061Y-87965000D01*
X123098102Y-88004774D01*
X122909744Y-88082795D01*
X122740226Y-88196063D01*
X122596063Y-88340226D01*
X122482795Y-88509744D01*
X122404774Y-88698102D01*
X122365000Y-88898061D01*
X103330010Y-88898061D01*
X103240706Y-88730986D01*
X103055134Y-88504866D01*
X102829014Y-88319294D01*
X102774209Y-88290000D01*
X102829014Y-88260706D01*
X103055134Y-88075134D01*
X103240706Y-87849014D01*
X103321391Y-87698061D01*
X117965000Y-87698061D01*
X117965000Y-87901939D01*
X118004774Y-88101898D01*
X118082795Y-88290256D01*
X118196063Y-88459774D01*
X118340226Y-88603937D01*
X118509744Y-88717205D01*
X118698102Y-88795226D01*
X118898061Y-88835000D01*
X119101939Y-88835000D01*
X119301898Y-88795226D01*
X119490256Y-88717205D01*
X119659774Y-88603937D01*
X119803937Y-88459774D01*
X119917205Y-88290256D01*
X119995226Y-88101898D01*
X120035000Y-87901939D01*
X120035000Y-87698061D01*
X119995226Y-87498102D01*
X119917205Y-87309744D01*
X119884015Y-87260071D01*
X125603000Y-87260071D01*
X125603000Y-87463949D01*
X125642774Y-87663908D01*
X125720795Y-87852266D01*
X125834063Y-88021784D01*
X125978226Y-88165947D01*
X126147744Y-88279215D01*
X126336102Y-88357236D01*
X126536061Y-88397010D01*
X126739939Y-88397010D01*
X126939898Y-88357236D01*
X127128256Y-88279215D01*
X127297774Y-88165947D01*
X127441937Y-88021784D01*
X127555205Y-87852266D01*
X127633226Y-87663908D01*
X127673000Y-87463949D01*
X127673000Y-87260071D01*
X127633226Y-87060112D01*
X127555205Y-86871754D01*
X127441937Y-86702236D01*
X127297774Y-86558073D01*
X127128256Y-86444805D01*
X127015407Y-86398061D01*
X139965000Y-86398061D01*
X139965000Y-86601939D01*
X140004774Y-86801898D01*
X140082795Y-86990256D01*
X140196063Y-87159774D01*
X140340226Y-87303937D01*
X140509744Y-87417205D01*
X140698102Y-87495226D01*
X140898061Y-87535000D01*
X141101939Y-87535000D01*
X141301898Y-87495226D01*
X141490256Y-87417205D01*
X141659774Y-87303937D01*
X141803937Y-87159774D01*
X141917205Y-86990256D01*
X141995226Y-86801898D01*
X142035000Y-86601939D01*
X142035000Y-86398061D01*
X141995226Y-86198102D01*
X141917205Y-86009744D01*
X141803937Y-85840226D01*
X141659774Y-85696063D01*
X141490256Y-85582795D01*
X141301898Y-85504774D01*
X141101939Y-85465000D01*
X140898061Y-85465000D01*
X140698102Y-85504774D01*
X140509744Y-85582795D01*
X140340226Y-85696063D01*
X140196063Y-85840226D01*
X140082795Y-86009744D01*
X140004774Y-86198102D01*
X139965000Y-86398061D01*
X127015407Y-86398061D01*
X126939898Y-86366784D01*
X126739939Y-86327010D01*
X126536061Y-86327010D01*
X126336102Y-86366784D01*
X126147744Y-86444805D01*
X125978226Y-86558073D01*
X125834063Y-86702236D01*
X125720795Y-86871754D01*
X125642774Y-87060112D01*
X125603000Y-87260071D01*
X119884015Y-87260071D01*
X119803937Y-87140226D01*
X119659774Y-86996063D01*
X119490256Y-86882795D01*
X119301898Y-86804774D01*
X119101939Y-86765000D01*
X118898061Y-86765000D01*
X118698102Y-86804774D01*
X118509744Y-86882795D01*
X118340226Y-86996063D01*
X118196063Y-87140226D01*
X118082795Y-87309744D01*
X118004774Y-87498102D01*
X117965000Y-87698061D01*
X103321391Y-87698061D01*
X103378599Y-87591034D01*
X103463513Y-87311111D01*
X103492185Y-87020000D01*
X103463513Y-86728889D01*
X103378599Y-86448966D01*
X103240706Y-86190986D01*
X103055134Y-85964866D01*
X102829014Y-85779294D01*
X102774209Y-85750000D01*
X102829014Y-85720706D01*
X103055134Y-85535134D01*
X103240706Y-85309014D01*
X103378599Y-85051034D01*
X103463513Y-84771111D01*
X103492185Y-84480000D01*
X103469637Y-84251061D01*
X126110996Y-84251061D01*
X126110996Y-84454939D01*
X126150770Y-84654898D01*
X126228791Y-84843256D01*
X126342059Y-85012774D01*
X126486222Y-85156937D01*
X126655740Y-85270205D01*
X126844098Y-85348226D01*
X127044057Y-85388000D01*
X127247935Y-85388000D01*
X127447894Y-85348226D01*
X127636252Y-85270205D01*
X127805770Y-85156937D01*
X127949933Y-85012774D01*
X128063201Y-84843256D01*
X128141222Y-84654898D01*
X128180996Y-84454939D01*
X128180996Y-84251061D01*
X128162339Y-84157266D01*
X128186778Y-84140937D01*
X128330941Y-83996774D01*
X128444209Y-83827256D01*
X128522230Y-83638898D01*
X128562004Y-83438939D01*
X128562004Y-83235061D01*
X128522230Y-83035102D01*
X128444209Y-82846744D01*
X128347492Y-82701997D01*
X128444205Y-82557256D01*
X128522226Y-82368898D01*
X128562000Y-82168939D01*
X128562000Y-81965061D01*
X128522226Y-81765102D01*
X128444205Y-81576744D01*
X128330937Y-81407226D01*
X128186774Y-81263063D01*
X128017256Y-81149795D01*
X127828898Y-81071774D01*
X127628939Y-81032000D01*
X127425061Y-81032000D01*
X127225102Y-81071774D01*
X127036744Y-81149795D01*
X126867226Y-81263063D01*
X126723063Y-81407226D01*
X126609795Y-81576744D01*
X126531774Y-81765102D01*
X126492000Y-81965061D01*
X126492000Y-82168939D01*
X126531774Y-82368898D01*
X126609795Y-82557256D01*
X126706512Y-82702003D01*
X126609799Y-82846744D01*
X126531778Y-83035102D01*
X126492004Y-83235061D01*
X126492004Y-83438939D01*
X126510661Y-83532734D01*
X126486222Y-83549063D01*
X126342059Y-83693226D01*
X126228791Y-83862744D01*
X126150770Y-84051102D01*
X126110996Y-84251061D01*
X103469637Y-84251061D01*
X103463513Y-84188889D01*
X103378599Y-83908966D01*
X103240706Y-83650986D01*
X103055134Y-83424866D01*
X102829014Y-83239294D01*
X102774209Y-83210000D01*
X102829014Y-83180706D01*
X103055134Y-82995134D01*
X103240706Y-82769014D01*
X103378599Y-82511034D01*
X103463513Y-82231111D01*
X103492185Y-81940000D01*
X103463513Y-81648889D01*
X103378599Y-81368966D01*
X103240706Y-81110986D01*
X103055134Y-80884866D01*
X102829014Y-80699294D01*
X102774209Y-80670000D01*
X102829014Y-80640706D01*
X103055134Y-80455134D01*
X103184040Y-80298061D01*
X110965000Y-80298061D01*
X110965000Y-80501939D01*
X111004774Y-80701898D01*
X111082795Y-80890256D01*
X111196063Y-81059774D01*
X111340226Y-81203937D01*
X111509744Y-81317205D01*
X111698102Y-81395226D01*
X111898061Y-81435000D01*
X112101939Y-81435000D01*
X112301898Y-81395226D01*
X112490256Y-81317205D01*
X112659774Y-81203937D01*
X112803937Y-81059774D01*
X112917205Y-80890256D01*
X112995226Y-80701898D01*
X113005973Y-80647868D01*
X113109744Y-80717205D01*
X113298102Y-80795226D01*
X113498061Y-80835000D01*
X113701939Y-80835000D01*
X113901898Y-80795226D01*
X114090256Y-80717205D01*
X114259774Y-80603937D01*
X114403937Y-80459774D01*
X114517205Y-80290256D01*
X114594545Y-80103542D01*
X114633397Y-80103542D01*
X114833356Y-80063768D01*
X115021714Y-79985747D01*
X115191232Y-79872479D01*
X115335395Y-79728316D01*
X115448663Y-79558798D01*
X115526684Y-79370440D01*
X115566458Y-79170481D01*
X115566458Y-78966603D01*
X115552825Y-78898061D01*
X129264998Y-78898061D01*
X129264998Y-79101939D01*
X129304772Y-79301898D01*
X129382793Y-79490256D01*
X129496061Y-79659774D01*
X129640224Y-79803937D01*
X129809742Y-79917205D01*
X129998100Y-79995226D01*
X130198059Y-80035000D01*
X130401937Y-80035000D01*
X130601896Y-79995226D01*
X130790254Y-79917205D01*
X130959772Y-79803937D01*
X131103935Y-79659774D01*
X131217203Y-79490256D01*
X131295224Y-79301898D01*
X131334998Y-79101939D01*
X131334998Y-78898061D01*
X131295224Y-78698102D01*
X131217203Y-78509744D01*
X131103935Y-78340226D01*
X130959772Y-78196063D01*
X130790254Y-78082795D01*
X130601896Y-78004774D01*
X130401937Y-77965000D01*
X130198059Y-77965000D01*
X129998100Y-78004774D01*
X129809742Y-78082795D01*
X129640224Y-78196063D01*
X129496061Y-78340226D01*
X129382793Y-78509744D01*
X129304772Y-78698102D01*
X129264998Y-78898061D01*
X115552825Y-78898061D01*
X115526684Y-78766644D01*
X115448663Y-78578286D01*
X115335395Y-78408768D01*
X115191232Y-78264605D01*
X115021714Y-78151337D01*
X114833356Y-78073316D01*
X114633397Y-78033542D01*
X114429519Y-78033542D01*
X114229560Y-78073316D01*
X114041202Y-78151337D01*
X113871684Y-78264605D01*
X113727521Y-78408768D01*
X113614253Y-78578286D01*
X113536913Y-78765000D01*
X113498061Y-78765000D01*
X113298102Y-78804774D01*
X113109744Y-78882795D01*
X112940226Y-78996063D01*
X112796063Y-79140226D01*
X112682795Y-79309744D01*
X112604774Y-79498102D01*
X112594027Y-79552132D01*
X112490256Y-79482795D01*
X112301898Y-79404774D01*
X112101939Y-79365000D01*
X111898061Y-79365000D01*
X111698102Y-79404774D01*
X111509744Y-79482795D01*
X111340226Y-79596063D01*
X111196063Y-79740226D01*
X111082795Y-79909744D01*
X111004774Y-80098102D01*
X110965000Y-80298061D01*
X103184040Y-80298061D01*
X103240706Y-80229014D01*
X103378599Y-79971034D01*
X103463513Y-79691111D01*
X103492185Y-79400000D01*
X103463513Y-79108889D01*
X103378599Y-78828966D01*
X103240706Y-78570986D01*
X103055134Y-78344866D01*
X102829014Y-78159294D01*
X102774209Y-78130000D01*
X102829014Y-78100706D01*
X103055134Y-77915134D01*
X103240706Y-77689014D01*
X103378599Y-77431034D01*
X103463513Y-77151111D01*
X103492185Y-76860000D01*
X103463513Y-76568889D01*
X103378599Y-76288966D01*
X103240706Y-76030986D01*
X103055134Y-75804866D01*
X102829014Y-75619294D01*
X102774209Y-75590000D01*
X102829014Y-75560706D01*
X103027197Y-75398061D01*
X111715000Y-75398061D01*
X111715000Y-75601939D01*
X111754774Y-75801898D01*
X111832795Y-75990256D01*
X111946063Y-76159774D01*
X112090226Y-76303937D01*
X112259744Y-76417205D01*
X112448102Y-76495226D01*
X112648061Y-76535000D01*
X112851939Y-76535000D01*
X113051898Y-76495226D01*
X113240256Y-76417205D01*
X113409774Y-76303937D01*
X113500000Y-76213711D01*
X113590226Y-76303937D01*
X113759744Y-76417205D01*
X113948102Y-76495226D01*
X114148061Y-76535000D01*
X114351939Y-76535000D01*
X114551898Y-76495226D01*
X114740256Y-76417205D01*
X114909774Y-76303937D01*
X115053937Y-76159774D01*
X115167205Y-75990256D01*
X115245226Y-75801898D01*
X115285000Y-75601939D01*
X115285000Y-75398061D01*
X115245226Y-75198102D01*
X115167205Y-75009744D01*
X115053937Y-74840226D01*
X114909774Y-74696063D01*
X114740256Y-74582795D01*
X114551898Y-74504774D01*
X114351939Y-74465000D01*
X114148061Y-74465000D01*
X113948102Y-74504774D01*
X113759744Y-74582795D01*
X113590226Y-74696063D01*
X113500000Y-74786289D01*
X113409774Y-74696063D01*
X113240256Y-74582795D01*
X113051898Y-74504774D01*
X112851939Y-74465000D01*
X112648061Y-74465000D01*
X112448102Y-74504774D01*
X112259744Y-74582795D01*
X112090226Y-74696063D01*
X111946063Y-74840226D01*
X111832795Y-75009744D01*
X111754774Y-75198102D01*
X111715000Y-75398061D01*
X103027197Y-75398061D01*
X103055134Y-75375134D01*
X103240706Y-75149014D01*
X103378599Y-74891034D01*
X103463513Y-74611111D01*
X103492185Y-74320000D01*
X103490025Y-74298061D01*
X122365000Y-74298061D01*
X122365000Y-74501939D01*
X122404774Y-74701898D01*
X122482795Y-74890256D01*
X122596063Y-75059774D01*
X122740226Y-75203937D01*
X122909744Y-75317205D01*
X123098102Y-75395226D01*
X123298061Y-75435000D01*
X123501939Y-75435000D01*
X123701898Y-75395226D01*
X123890256Y-75317205D01*
X124059774Y-75203937D01*
X124203937Y-75059774D01*
X124317205Y-74890256D01*
X124395226Y-74701898D01*
X124405934Y-74648061D01*
X133465000Y-74648061D01*
X133465000Y-74851939D01*
X133504774Y-75051898D01*
X133582795Y-75240256D01*
X133696063Y-75409774D01*
X133840226Y-75553937D01*
X134009744Y-75667205D01*
X134198102Y-75745226D01*
X134398061Y-75785000D01*
X134601939Y-75785000D01*
X134801898Y-75745226D01*
X134990256Y-75667205D01*
X135159774Y-75553937D01*
X135303937Y-75409774D01*
X135417205Y-75240256D01*
X135495226Y-75051898D01*
X135535000Y-74851939D01*
X135535000Y-74648061D01*
X135495226Y-74448102D01*
X135417205Y-74259744D01*
X135303937Y-74090226D01*
X135159774Y-73946063D01*
X134990256Y-73832795D01*
X134801898Y-73754774D01*
X134601939Y-73715000D01*
X134398061Y-73715000D01*
X134198102Y-73754774D01*
X134009744Y-73832795D01*
X133840226Y-73946063D01*
X133696063Y-74090226D01*
X133582795Y-74259744D01*
X133504774Y-74448102D01*
X133465000Y-74648061D01*
X124405934Y-74648061D01*
X124435000Y-74501939D01*
X124435000Y-74298061D01*
X124395226Y-74098102D01*
X124317205Y-73909744D01*
X124203937Y-73740226D01*
X124059774Y-73596063D01*
X123890256Y-73482795D01*
X123701898Y-73404774D01*
X123501939Y-73365000D01*
X123298061Y-73365000D01*
X123098102Y-73404774D01*
X122909744Y-73482795D01*
X122740226Y-73596063D01*
X122596063Y-73740226D01*
X122482795Y-73909744D01*
X122404774Y-74098102D01*
X122365000Y-74298061D01*
X103490025Y-74298061D01*
X103463513Y-74028889D01*
X103378599Y-73748966D01*
X103240706Y-73490986D01*
X103055134Y-73264866D01*
X102829014Y-73079294D01*
X102774209Y-73050000D01*
X102829014Y-73020706D01*
X103055134Y-72835134D01*
X103240706Y-72609014D01*
X103378599Y-72351034D01*
X103463513Y-72071111D01*
X103492185Y-71780000D01*
X103463513Y-71488889D01*
X103378599Y-71208966D01*
X103240706Y-70950986D01*
X103055134Y-70724866D01*
X102829014Y-70539294D01*
X102764477Y-70504799D01*
X102881355Y-70435178D01*
X103097588Y-70240269D01*
X103271641Y-70006920D01*
X103396825Y-69744099D01*
X103441476Y-69596890D01*
X103320155Y-69367000D01*
X102127000Y-69367000D01*
X102127000Y-69387000D01*
X101873000Y-69387000D01*
X101873000Y-69367000D01*
X101853000Y-69367000D01*
X101853000Y-69113000D01*
X101873000Y-69113000D01*
X101873000Y-66827000D01*
X102127000Y-66827000D01*
X102127000Y-69113000D01*
X103320155Y-69113000D01*
X103441476Y-68883110D01*
X103396825Y-68735901D01*
X103271641Y-68473080D01*
X103097588Y-68239731D01*
X102881355Y-68044822D01*
X102755745Y-67970000D01*
X102881355Y-67895178D01*
X103097588Y-67700269D01*
X103271641Y-67466920D01*
X103396825Y-67204099D01*
X103441476Y-67056890D01*
X103320155Y-66827000D01*
X102127000Y-66827000D01*
X101873000Y-66827000D01*
X101853000Y-66827000D01*
X101853000Y-66573000D01*
X101873000Y-66573000D01*
X101873000Y-64287000D01*
X102127000Y-64287000D01*
X102127000Y-66573000D01*
X103320155Y-66573000D01*
X103441476Y-66343110D01*
X103396825Y-66195901D01*
X103271641Y-65933080D01*
X103097588Y-65699731D01*
X102881355Y-65504822D01*
X102755745Y-65430000D01*
X102881355Y-65355178D01*
X103097588Y-65160269D01*
X103271641Y-64926920D01*
X103396825Y-64664099D01*
X103441476Y-64516890D01*
X103320155Y-64287000D01*
X102127000Y-64287000D01*
X101873000Y-64287000D01*
X101853000Y-64287000D01*
X101853000Y-64033000D01*
X101873000Y-64033000D01*
X101873000Y-61747000D01*
X102127000Y-61747000D01*
X102127000Y-64033000D01*
X103320155Y-64033000D01*
X103441476Y-63803110D01*
X103396825Y-63655901D01*
X103271641Y-63393080D01*
X103097588Y-63159731D01*
X102881355Y-62964822D01*
X102755745Y-62890000D01*
X102881355Y-62815178D01*
X103097588Y-62620269D01*
X103271641Y-62386920D01*
X103396825Y-62124099D01*
X103441476Y-61976890D01*
X103321739Y-61750000D01*
X115873000Y-61750000D01*
X115873000Y-70000000D01*
X115882667Y-70048601D01*
X115910197Y-70089803D01*
X115951399Y-70117333D01*
X116000000Y-70127000D01*
X116534226Y-70127000D01*
X116504774Y-70198102D01*
X116465000Y-70398061D01*
X116465000Y-70601939D01*
X116504774Y-70801898D01*
X116582795Y-70990256D01*
X116696063Y-71159774D01*
X116840226Y-71303937D01*
X117009744Y-71417205D01*
X117198102Y-71495226D01*
X117398061Y-71535000D01*
X117601939Y-71535000D01*
X117801898Y-71495226D01*
X117990256Y-71417205D01*
X118159774Y-71303937D01*
X118303937Y-71159774D01*
X118417205Y-70990256D01*
X118495226Y-70801898D01*
X118535000Y-70601939D01*
X118535000Y-70464606D01*
X118910197Y-70839803D01*
X118951399Y-70867333D01*
X119000000Y-70877000D01*
X119522485Y-70877000D01*
X119374226Y-70976063D01*
X119230063Y-71120226D01*
X119116795Y-71289744D01*
X119038774Y-71478102D01*
X118999000Y-71678061D01*
X118999000Y-71881939D01*
X119038774Y-72081898D01*
X119116795Y-72270256D01*
X119230063Y-72439774D01*
X119374226Y-72583937D01*
X119543744Y-72697205D01*
X119732102Y-72775226D01*
X119932061Y-72815000D01*
X120135939Y-72815000D01*
X120335898Y-72775226D01*
X120524256Y-72697205D01*
X120693774Y-72583937D01*
X120837937Y-72439774D01*
X120951205Y-72270256D01*
X121029226Y-72081898D01*
X121069000Y-71881939D01*
X121069000Y-71678061D01*
X121029226Y-71478102D01*
X120951205Y-71289744D01*
X120837937Y-71120226D01*
X120693774Y-70976063D01*
X120545515Y-70877000D01*
X121750000Y-70877000D01*
X121798601Y-70867333D01*
X121839803Y-70839803D01*
X121983693Y-70695913D01*
X122004774Y-70801898D01*
X122082795Y-70990256D01*
X122196063Y-71159774D01*
X122340226Y-71303937D01*
X122509744Y-71417205D01*
X122698102Y-71495226D01*
X122898061Y-71535000D01*
X123101939Y-71535000D01*
X123301898Y-71495226D01*
X123490256Y-71417205D01*
X123659774Y-71303937D01*
X123803937Y-71159774D01*
X123825511Y-71127486D01*
X133187266Y-71127486D01*
X133187266Y-71331364D01*
X133227040Y-71531323D01*
X133305061Y-71719681D01*
X133418329Y-71889199D01*
X133562492Y-72033362D01*
X133732010Y-72146630D01*
X133920368Y-72224651D01*
X134120327Y-72264425D01*
X134324205Y-72264425D01*
X134524164Y-72224651D01*
X134712522Y-72146630D01*
X134882040Y-72033362D01*
X135026203Y-71889199D01*
X135139471Y-71719681D01*
X135217492Y-71531323D01*
X135257266Y-71331364D01*
X135257266Y-71127486D01*
X135217492Y-70927527D01*
X135139471Y-70739169D01*
X135026203Y-70569651D01*
X134882040Y-70425488D01*
X134712522Y-70312220D01*
X134524164Y-70234199D01*
X134324205Y-70194425D01*
X134120327Y-70194425D01*
X133920368Y-70234199D01*
X133732010Y-70312220D01*
X133562492Y-70425488D01*
X133418329Y-70569651D01*
X133305061Y-70739169D01*
X133227040Y-70927527D01*
X133187266Y-71127486D01*
X123825511Y-71127486D01*
X123917205Y-70990256D01*
X123995226Y-70801898D01*
X124035000Y-70601939D01*
X124035000Y-70398061D01*
X123995226Y-70198102D01*
X123965774Y-70127000D01*
X125000000Y-70127000D01*
X125048601Y-70117333D01*
X125089803Y-70089803D01*
X125117333Y-70048601D01*
X125127000Y-70000000D01*
X125127000Y-68098061D01*
X141165000Y-68098061D01*
X141165000Y-68301939D01*
X141204774Y-68501898D01*
X141282795Y-68690256D01*
X141396063Y-68859774D01*
X141540226Y-69003937D01*
X141709744Y-69117205D01*
X141898102Y-69195226D01*
X142098061Y-69235000D01*
X142301939Y-69235000D01*
X142501898Y-69195226D01*
X142690256Y-69117205D01*
X142859774Y-69003937D01*
X143003937Y-68859774D01*
X143117205Y-68690256D01*
X143195226Y-68501898D01*
X143235000Y-68301939D01*
X143235000Y-68098061D01*
X143195226Y-67898102D01*
X143117205Y-67709744D01*
X143003937Y-67540226D01*
X142859774Y-67396063D01*
X142690256Y-67282795D01*
X142501898Y-67204774D01*
X142301939Y-67165000D01*
X142098061Y-67165000D01*
X141898102Y-67204774D01*
X141709744Y-67282795D01*
X141540226Y-67396063D01*
X141396063Y-67540226D01*
X141282795Y-67709744D01*
X141204774Y-67898102D01*
X141165000Y-68098061D01*
X125127000Y-68098061D01*
X125127000Y-66298061D01*
X139965000Y-66298061D01*
X139965000Y-66501939D01*
X140004774Y-66701898D01*
X140082795Y-66890256D01*
X140196063Y-67059774D01*
X140340226Y-67203937D01*
X140509744Y-67317205D01*
X140698102Y-67395226D01*
X140898061Y-67435000D01*
X141101939Y-67435000D01*
X141301898Y-67395226D01*
X141490256Y-67317205D01*
X141659774Y-67203937D01*
X141803937Y-67059774D01*
X141917205Y-66890256D01*
X141995226Y-66701898D01*
X142035000Y-66501939D01*
X142035000Y-66298061D01*
X141995226Y-66098102D01*
X141917205Y-65909744D01*
X141803937Y-65740226D01*
X141659774Y-65596063D01*
X141490256Y-65482795D01*
X141301898Y-65404774D01*
X141101939Y-65365000D01*
X140898061Y-65365000D01*
X140698102Y-65404774D01*
X140509744Y-65482795D01*
X140340226Y-65596063D01*
X140196063Y-65740226D01*
X140082795Y-65909744D01*
X140004774Y-66098102D01*
X139965000Y-66298061D01*
X125127000Y-66298061D01*
X125127000Y-62898061D01*
X144965000Y-62898061D01*
X144965000Y-63101939D01*
X145004774Y-63301898D01*
X145082795Y-63490256D01*
X145196063Y-63659774D01*
X145340226Y-63803937D01*
X145509744Y-63917205D01*
X145698102Y-63995226D01*
X145898061Y-64035000D01*
X146101939Y-64035000D01*
X146301898Y-63995226D01*
X146490256Y-63917205D01*
X146659774Y-63803937D01*
X146803937Y-63659774D01*
X146917205Y-63490256D01*
X146995226Y-63301898D01*
X147035000Y-63101939D01*
X147035000Y-62898061D01*
X146995226Y-62698102D01*
X146917205Y-62509744D01*
X146803937Y-62340226D01*
X146659774Y-62196063D01*
X146490256Y-62082795D01*
X146301898Y-62004774D01*
X146101939Y-61965000D01*
X145898061Y-61965000D01*
X145698102Y-62004774D01*
X145509744Y-62082795D01*
X145340226Y-62196063D01*
X145196063Y-62340226D01*
X145082795Y-62509744D01*
X145004774Y-62698102D01*
X144965000Y-62898061D01*
X125127000Y-62898061D01*
X125127000Y-61877000D01*
X126000000Y-61877000D01*
X126048601Y-61867333D01*
X126089803Y-61839803D01*
X126117333Y-61798601D01*
X126127000Y-61750000D01*
X126127000Y-61398061D01*
X138715000Y-61398061D01*
X138715000Y-61601939D01*
X138754774Y-61801898D01*
X138832795Y-61990256D01*
X138946063Y-62159774D01*
X139090226Y-62303937D01*
X139259744Y-62417205D01*
X139448102Y-62495226D01*
X139648061Y-62535000D01*
X139851939Y-62535000D01*
X140051898Y-62495226D01*
X140240256Y-62417205D01*
X140409774Y-62303937D01*
X140553937Y-62159774D01*
X140667205Y-61990256D01*
X140745226Y-61801898D01*
X140785000Y-61601939D01*
X140785000Y-61398061D01*
X140745226Y-61198102D01*
X140667205Y-61009744D01*
X140553937Y-60840226D01*
X140499461Y-60785750D01*
X142465000Y-60785750D01*
X142465000Y-61212542D01*
X142489403Y-61335223D01*
X142537270Y-61450785D01*
X142606763Y-61554789D01*
X142695211Y-61643237D01*
X142799215Y-61712730D01*
X142914777Y-61760597D01*
X143037458Y-61785000D01*
X143214250Y-61785000D01*
X143373000Y-61626250D01*
X143373000Y-60627000D01*
X142623750Y-60627000D01*
X142465000Y-60785750D01*
X140499461Y-60785750D01*
X140409774Y-60696063D01*
X140240256Y-60582795D01*
X140051898Y-60504774D01*
X139851939Y-60465000D01*
X139648061Y-60465000D01*
X139448102Y-60504774D01*
X139259744Y-60582795D01*
X139090226Y-60696063D01*
X138946063Y-60840226D01*
X138832795Y-61009744D01*
X138754774Y-61198102D01*
X138715000Y-61398061D01*
X126127000Y-61398061D01*
X126127000Y-59787458D01*
X142465000Y-59787458D01*
X142465000Y-60214250D01*
X142623750Y-60373000D01*
X143373000Y-60373000D01*
X143373000Y-59373750D01*
X143627000Y-59373750D01*
X143627000Y-60373000D01*
X143647000Y-60373000D01*
X143647000Y-60627000D01*
X143627000Y-60627000D01*
X143627000Y-61626250D01*
X143785750Y-61785000D01*
X143962542Y-61785000D01*
X144085223Y-61760597D01*
X144200785Y-61712730D01*
X144269564Y-61666774D01*
X144352008Y-61710841D01*
X144547106Y-61770024D01*
X144750000Y-61790007D01*
X144952895Y-61770024D01*
X145147993Y-61710841D01*
X145327797Y-61614734D01*
X145485396Y-61485396D01*
X145614734Y-61327797D01*
X145710841Y-61147992D01*
X145730704Y-61082513D01*
X147906452Y-61082513D01*
X147906452Y-61286391D01*
X147946226Y-61486350D01*
X148024247Y-61674708D01*
X148137515Y-61844226D01*
X148281678Y-61988389D01*
X148451196Y-62101657D01*
X148639554Y-62179678D01*
X148839513Y-62219452D01*
X149043391Y-62219452D01*
X149243350Y-62179678D01*
X149431708Y-62101657D01*
X149601226Y-61988389D01*
X149745389Y-61844226D01*
X149858657Y-61674708D01*
X149936678Y-61486350D01*
X149976452Y-61286391D01*
X149976452Y-61082513D01*
X149936678Y-60882554D01*
X149858657Y-60694196D01*
X149745389Y-60524678D01*
X149601226Y-60380515D01*
X149431708Y-60267247D01*
X149243350Y-60189226D01*
X149043391Y-60149452D01*
X148839513Y-60149452D01*
X148639554Y-60189226D01*
X148451196Y-60267247D01*
X148281678Y-60380515D01*
X148137515Y-60524678D01*
X148024247Y-60694196D01*
X147946226Y-60882554D01*
X147906452Y-61082513D01*
X145730704Y-61082513D01*
X145770024Y-60952894D01*
X145785000Y-60800837D01*
X145785000Y-60199162D01*
X145770024Y-60047105D01*
X145710841Y-59852007D01*
X145614734Y-59672203D01*
X145485396Y-59514604D01*
X145327797Y-59385266D01*
X145147992Y-59289159D01*
X144952894Y-59229976D01*
X144750000Y-59209993D01*
X144547105Y-59229976D01*
X144352007Y-59289159D01*
X144269563Y-59333226D01*
X144200785Y-59287270D01*
X144085223Y-59239403D01*
X143962542Y-59215000D01*
X143785750Y-59215000D01*
X143627000Y-59373750D01*
X143373000Y-59373750D01*
X143214250Y-59215000D01*
X143037458Y-59215000D01*
X142914777Y-59239403D01*
X142799215Y-59287270D01*
X142695211Y-59356763D01*
X142606763Y-59445211D01*
X142537270Y-59549215D01*
X142489403Y-59664777D01*
X142465000Y-59787458D01*
X126127000Y-59787458D01*
X126127000Y-58188589D01*
X129615000Y-58188589D01*
X129615000Y-58461411D01*
X129668225Y-58728989D01*
X129772629Y-58981043D01*
X129924201Y-59207886D01*
X130117114Y-59400799D01*
X130343957Y-59552371D01*
X130596011Y-59656775D01*
X130863589Y-59710000D01*
X131136411Y-59710000D01*
X131403989Y-59656775D01*
X131656043Y-59552371D01*
X131882886Y-59400799D01*
X132075799Y-59207886D01*
X132227371Y-58981043D01*
X132331775Y-58728989D01*
X132385000Y-58461411D01*
X132385000Y-58188589D01*
X132331775Y-57921011D01*
X132227371Y-57668957D01*
X132075799Y-57442114D01*
X131882886Y-57249201D01*
X131656043Y-57097629D01*
X131403989Y-56993225D01*
X131136411Y-56940000D01*
X130863589Y-56940000D01*
X130596011Y-56993225D01*
X130343957Y-57097629D01*
X130117114Y-57249201D01*
X129924201Y-57442114D01*
X129772629Y-57668957D01*
X129668225Y-57921011D01*
X129615000Y-58188589D01*
X126127000Y-58188589D01*
X126127000Y-54750000D01*
X126117333Y-54701399D01*
X126089803Y-54660197D01*
X126048601Y-54632667D01*
X126000000Y-54623000D01*
X121750000Y-54623000D01*
X121701399Y-54632667D01*
X121660197Y-54660197D01*
X118910197Y-57410197D01*
X118882667Y-57451399D01*
X118873000Y-57500000D01*
X118873000Y-61197394D01*
X118447394Y-61623000D01*
X116000000Y-61623000D01*
X115951399Y-61632667D01*
X115910197Y-61660197D01*
X115882667Y-61701399D01*
X115873000Y-61750000D01*
X103321739Y-61750000D01*
X103320155Y-61747000D01*
X102127000Y-61747000D01*
X101873000Y-61747000D01*
X101853000Y-61747000D01*
X101853000Y-61493000D01*
X101873000Y-61493000D01*
X101873000Y-61473000D01*
X102127000Y-61473000D01*
X102127000Y-61493000D01*
X103320155Y-61493000D01*
X103441476Y-61263110D01*
X103396825Y-61115901D01*
X103271641Y-60853080D01*
X103097588Y-60619731D01*
X102881355Y-60424822D01*
X102764477Y-60355201D01*
X102829014Y-60320706D01*
X103055134Y-60135134D01*
X103240706Y-59909014D01*
X103378599Y-59651034D01*
X103463513Y-59371111D01*
X103492185Y-59080000D01*
X103463513Y-58788889D01*
X103378599Y-58508966D01*
X103240706Y-58250986D01*
X103189499Y-58188589D01*
X107115000Y-58188589D01*
X107115000Y-58461411D01*
X107168225Y-58728989D01*
X107272629Y-58981043D01*
X107424201Y-59207886D01*
X107617114Y-59400799D01*
X107843957Y-59552371D01*
X108096011Y-59656775D01*
X108363589Y-59710000D01*
X108636411Y-59710000D01*
X108903989Y-59656775D01*
X109156043Y-59552371D01*
X109382886Y-59400799D01*
X109575799Y-59207886D01*
X109727371Y-58981043D01*
X109831775Y-58728989D01*
X109885000Y-58461411D01*
X109885000Y-58188589D01*
X109831775Y-57921011D01*
X109727371Y-57668957D01*
X109575799Y-57442114D01*
X109382886Y-57249201D01*
X109156043Y-57097629D01*
X108903989Y-56993225D01*
X108636411Y-56940000D01*
X108363589Y-56940000D01*
X108096011Y-56993225D01*
X107843957Y-57097629D01*
X107617114Y-57249201D01*
X107424201Y-57442114D01*
X107272629Y-57668957D01*
X107168225Y-57921011D01*
X107115000Y-58188589D01*
X103189499Y-58188589D01*
X103055134Y-58024866D01*
X102829014Y-57839294D01*
X102774209Y-57810000D01*
X102829014Y-57780706D01*
X103055134Y-57595134D01*
X103240706Y-57369014D01*
X103378599Y-57111034D01*
X103463513Y-56831111D01*
X103492185Y-56540000D01*
X103463513Y-56248889D01*
X103378599Y-55968966D01*
X103240706Y-55710986D01*
X103055134Y-55484866D01*
X103025313Y-55460393D01*
X103094180Y-55439502D01*
X103204494Y-55380537D01*
X103301185Y-55301185D01*
X103380537Y-55204494D01*
X103439502Y-55094180D01*
X103475812Y-54974482D01*
X103488072Y-54850000D01*
X103488072Y-53898061D01*
X129465000Y-53898061D01*
X129465000Y-54101939D01*
X129504774Y-54301898D01*
X129582795Y-54490256D01*
X129696063Y-54659774D01*
X129840226Y-54803937D01*
X130009744Y-54917205D01*
X130198102Y-54995226D01*
X130398061Y-55035000D01*
X130601939Y-55035000D01*
X130801898Y-54995226D01*
X130990256Y-54917205D01*
X131159774Y-54803937D01*
X131303937Y-54659774D01*
X131375000Y-54553420D01*
X131446063Y-54659774D01*
X131590226Y-54803937D01*
X131759744Y-54917205D01*
X131948102Y-54995226D01*
X132148061Y-55035000D01*
X132351939Y-55035000D01*
X132551898Y-54995226D01*
X132740256Y-54917205D01*
X132909774Y-54803937D01*
X133053937Y-54659774D01*
X133167205Y-54490256D01*
X133245226Y-54301898D01*
X133285000Y-54101939D01*
X133285000Y-53898061D01*
X133245226Y-53698102D01*
X133167205Y-53509744D01*
X133092582Y-53398061D01*
X136965000Y-53398061D01*
X136965000Y-53601939D01*
X137004774Y-53801898D01*
X137082795Y-53990256D01*
X137196063Y-54159774D01*
X137340226Y-54303937D01*
X137509744Y-54417205D01*
X137698102Y-54495226D01*
X137898061Y-54535000D01*
X138101939Y-54535000D01*
X138301898Y-54495226D01*
X138490256Y-54417205D01*
X138518907Y-54398061D01*
X142465000Y-54398061D01*
X142465000Y-54601939D01*
X142504774Y-54801898D01*
X142582795Y-54990256D01*
X142696063Y-55159774D01*
X142840226Y-55303937D01*
X143009744Y-55417205D01*
X143198102Y-55495226D01*
X143398061Y-55535000D01*
X143601939Y-55535000D01*
X143801898Y-55495226D01*
X143990256Y-55417205D01*
X144159774Y-55303937D01*
X144303937Y-55159774D01*
X144417205Y-54990256D01*
X144495226Y-54801898D01*
X144535000Y-54601939D01*
X144535000Y-54398061D01*
X144495226Y-54198102D01*
X144417205Y-54009744D01*
X144335274Y-53887125D01*
X144459774Y-53803937D01*
X144603937Y-53659774D01*
X144717205Y-53490256D01*
X144755393Y-53398061D01*
X147965000Y-53398061D01*
X147965000Y-53601939D01*
X148004774Y-53801898D01*
X148082795Y-53990256D01*
X148196063Y-54159774D01*
X148340226Y-54303937D01*
X148509744Y-54417205D01*
X148698102Y-54495226D01*
X148898061Y-54535000D01*
X149101939Y-54535000D01*
X149301898Y-54495226D01*
X149490256Y-54417205D01*
X149659774Y-54303937D01*
X149803937Y-54159774D01*
X149917205Y-53990256D01*
X149995226Y-53801898D01*
X150035000Y-53601939D01*
X150035000Y-53398061D01*
X149995226Y-53198102D01*
X149949396Y-53087458D01*
X151515000Y-53087458D01*
X151515000Y-53714250D01*
X151673750Y-53873000D01*
X152873000Y-53873000D01*
X152873000Y-52673750D01*
X152714250Y-52515000D01*
X152087458Y-52515000D01*
X151964777Y-52539403D01*
X151849215Y-52587270D01*
X151745211Y-52656763D01*
X151656763Y-52745211D01*
X151587270Y-52849215D01*
X151539403Y-52964777D01*
X151515000Y-53087458D01*
X149949396Y-53087458D01*
X149917205Y-53009744D01*
X149803937Y-52840226D01*
X149659774Y-52696063D01*
X149490256Y-52582795D01*
X149301898Y-52504774D01*
X149101939Y-52465000D01*
X148898061Y-52465000D01*
X148698102Y-52504774D01*
X148509744Y-52582795D01*
X148340226Y-52696063D01*
X148196063Y-52840226D01*
X148082795Y-53009744D01*
X148004774Y-53198102D01*
X147965000Y-53398061D01*
X144755393Y-53398061D01*
X144795226Y-53301898D01*
X144835000Y-53101939D01*
X144835000Y-52898061D01*
X144795226Y-52698102D01*
X144717205Y-52509744D01*
X144603937Y-52340226D01*
X144459774Y-52196063D01*
X144290256Y-52082795D01*
X144101898Y-52004774D01*
X143901939Y-51965000D01*
X143698061Y-51965000D01*
X143498102Y-52004774D01*
X143309744Y-52082795D01*
X143140226Y-52196063D01*
X142996063Y-52340226D01*
X142882795Y-52509744D01*
X142804774Y-52698102D01*
X142765000Y-52898061D01*
X142765000Y-53101939D01*
X142804774Y-53301898D01*
X142882795Y-53490256D01*
X142964726Y-53612875D01*
X142840226Y-53696063D01*
X142696063Y-53840226D01*
X142582795Y-54009744D01*
X142504774Y-54198102D01*
X142465000Y-54398061D01*
X138518907Y-54398061D01*
X138659774Y-54303937D01*
X138803937Y-54159774D01*
X138917205Y-53990256D01*
X138995226Y-53801898D01*
X139035000Y-53601939D01*
X139035000Y-53398061D01*
X138995226Y-53198102D01*
X138917205Y-53009744D01*
X138803937Y-52840226D01*
X138659774Y-52696063D01*
X138490256Y-52582795D01*
X138301898Y-52504774D01*
X138101939Y-52465000D01*
X137898061Y-52465000D01*
X137698102Y-52504774D01*
X137509744Y-52582795D01*
X137340226Y-52696063D01*
X137196063Y-52840226D01*
X137082795Y-53009744D01*
X137004774Y-53198102D01*
X136965000Y-53398061D01*
X133092582Y-53398061D01*
X133053937Y-53340226D01*
X132909774Y-53196063D01*
X132740256Y-53082795D01*
X132551898Y-53004774D01*
X132351939Y-52965000D01*
X132148061Y-52965000D01*
X131948102Y-53004774D01*
X131759744Y-53082795D01*
X131590226Y-53196063D01*
X131446063Y-53340226D01*
X131375000Y-53446580D01*
X131303937Y-53340226D01*
X131159774Y-53196063D01*
X130990256Y-53082795D01*
X130801898Y-53004774D01*
X130601939Y-52965000D01*
X130398061Y-52965000D01*
X130198102Y-53004774D01*
X130009744Y-53082795D01*
X129840226Y-53196063D01*
X129696063Y-53340226D01*
X129582795Y-53509744D01*
X129504774Y-53698102D01*
X129465000Y-53898061D01*
X103488072Y-53898061D01*
X103488072Y-53150000D01*
X103475812Y-53025518D01*
X103439502Y-52905820D01*
X103380537Y-52795506D01*
X103301185Y-52698815D01*
X103204494Y-52619463D01*
X103094180Y-52560498D01*
X102974482Y-52524188D01*
X102850000Y-52511928D01*
X101150000Y-52511928D01*
X101025518Y-52524188D01*
X100905820Y-52560498D01*
X100795506Y-52619463D01*
X100698815Y-52698815D01*
X100660000Y-52746111D01*
X100660000Y-50660000D01*
X107278614Y-50660000D01*
X107272629Y-50668957D01*
X107272629Y-50668957D01*
G37*
X107272629Y-50668957D02*
X107168225Y-50921011D01*
X107115000Y-51188589D01*
X107115000Y-51461411D01*
X107168225Y-51728989D01*
X107272629Y-51981043D01*
X107424201Y-52207886D01*
X107617114Y-52400799D01*
X107843957Y-52552371D01*
X108096011Y-52656775D01*
X108363589Y-52710000D01*
X108636411Y-52710000D01*
X108903989Y-52656775D01*
X109156043Y-52552371D01*
X109382886Y-52400799D01*
X109575799Y-52207886D01*
X109727371Y-51981043D01*
X109831775Y-51728989D01*
X109885000Y-51461411D01*
X109885000Y-51188589D01*
X109831775Y-50921011D01*
X109727371Y-50668957D01*
X109721386Y-50660000D01*
X119778614Y-50660000D01*
X119772629Y-50668957D01*
X119668225Y-50921011D01*
X119615000Y-51188589D01*
X119615000Y-51461411D01*
X119668225Y-51728989D01*
X119772629Y-51981043D01*
X119924201Y-52207886D01*
X120117114Y-52400799D01*
X120343957Y-52552371D01*
X120596011Y-52656775D01*
X120863589Y-52710000D01*
X121136411Y-52710000D01*
X121403989Y-52656775D01*
X121656043Y-52552371D01*
X121882886Y-52400799D01*
X122075799Y-52207886D01*
X122227371Y-51981043D01*
X122331775Y-51728989D01*
X122385000Y-51461411D01*
X122385000Y-51188589D01*
X122331775Y-50921011D01*
X122227371Y-50668957D01*
X122221386Y-50660000D01*
X129778614Y-50660000D01*
X129772629Y-50668957D01*
X129668225Y-50921011D01*
X129615000Y-51188589D01*
X129615000Y-51461411D01*
X129668225Y-51728989D01*
X129772629Y-51981043D01*
X129924201Y-52207886D01*
X130117114Y-52400799D01*
X130343957Y-52552371D01*
X130596011Y-52656775D01*
X130863589Y-52710000D01*
X131136411Y-52710000D01*
X131403989Y-52656775D01*
X131656043Y-52552371D01*
X131882886Y-52400799D01*
X132075799Y-52207886D01*
X132227371Y-51981043D01*
X132331775Y-51728989D01*
X132385000Y-51461411D01*
X132385000Y-51188589D01*
X132331775Y-50921011D01*
X132227371Y-50668957D01*
X132221386Y-50660000D01*
X154340000Y-50660000D01*
X154340000Y-52741974D01*
X154254789Y-52656763D01*
X154150785Y-52587270D01*
X154035223Y-52539403D01*
X153912542Y-52515000D01*
X153285750Y-52515000D01*
X153127000Y-52673750D01*
X153127000Y-53873000D01*
X153147000Y-53873000D01*
X153147000Y-54127000D01*
X153127000Y-54127000D01*
X153127000Y-54147000D01*
X152873000Y-54147000D01*
X152873000Y-54127000D01*
X151673750Y-54127000D01*
X151515000Y-54285750D01*
X151515000Y-54912542D01*
X151539403Y-55035223D01*
X151587270Y-55150785D01*
X151656763Y-55254789D01*
X151745211Y-55343237D01*
X151849215Y-55412730D01*
X151964777Y-55460597D01*
X151972553Y-55462144D01*
X151944866Y-55484866D01*
X151759294Y-55710986D01*
X151621401Y-55968966D01*
X151536487Y-56248889D01*
X151507815Y-56540000D01*
X151536487Y-56831111D01*
X151621401Y-57111034D01*
X151759294Y-57369014D01*
X151944866Y-57595134D01*
X152170986Y-57780706D01*
X152225791Y-57810000D01*
X152170986Y-57839294D01*
X151944866Y-58024866D01*
X151759294Y-58250986D01*
X151621401Y-58508966D01*
X151536487Y-58788889D01*
X151507815Y-59080000D01*
X151536487Y-59371111D01*
X151621401Y-59651034D01*
X151759294Y-59909014D01*
X151944866Y-60135134D01*
X152170986Y-60320706D01*
X152225791Y-60350000D01*
X152170986Y-60379294D01*
X151944866Y-60564866D01*
X151759294Y-60790986D01*
X151621401Y-61048966D01*
X151536487Y-61328889D01*
X151507815Y-61620000D01*
X151536487Y-61911111D01*
X151621401Y-62191034D01*
X151759294Y-62449014D01*
X151944866Y-62675134D01*
X152170986Y-62860706D01*
X152225791Y-62890000D01*
X152170986Y-62919294D01*
X151944866Y-63104866D01*
X151759294Y-63330986D01*
X151621401Y-63588966D01*
X151536487Y-63868889D01*
X151507815Y-64160000D01*
X151536487Y-64451111D01*
X151621401Y-64731034D01*
X151759294Y-64989014D01*
X151944866Y-65215134D01*
X152170986Y-65400706D01*
X152225791Y-65430000D01*
X152170986Y-65459294D01*
X151944866Y-65644866D01*
X151759294Y-65870986D01*
X151621401Y-66128966D01*
X151536487Y-66408889D01*
X151507815Y-66700000D01*
X151536487Y-66991111D01*
X151621401Y-67271034D01*
X151759294Y-67529014D01*
X151944866Y-67755134D01*
X152170986Y-67940706D01*
X152225791Y-67970000D01*
X152170986Y-67999294D01*
X151944866Y-68184866D01*
X151759294Y-68410986D01*
X151621401Y-68668966D01*
X151536487Y-68948889D01*
X151507815Y-69240000D01*
X151536487Y-69531111D01*
X151621401Y-69811034D01*
X151759294Y-70069014D01*
X151944866Y-70295134D01*
X152170986Y-70480706D01*
X152225791Y-70510000D01*
X152170986Y-70539294D01*
X151944866Y-70724866D01*
X151759294Y-70950986D01*
X151621401Y-71208966D01*
X151536487Y-71488889D01*
X151507815Y-71780000D01*
X151536487Y-72071111D01*
X151621401Y-72351034D01*
X151759294Y-72609014D01*
X151944866Y-72835134D01*
X152170986Y-73020706D01*
X152225791Y-73050000D01*
X152170986Y-73079294D01*
X151944866Y-73264866D01*
X151759294Y-73490986D01*
X151621401Y-73748966D01*
X151536487Y-74028889D01*
X151507815Y-74320000D01*
X151536487Y-74611111D01*
X151621401Y-74891034D01*
X151759294Y-75149014D01*
X151944866Y-75375134D01*
X152170986Y-75560706D01*
X152225791Y-75590000D01*
X152170986Y-75619294D01*
X151944866Y-75804866D01*
X151759294Y-76030986D01*
X151621401Y-76288966D01*
X151536487Y-76568889D01*
X151507815Y-76860000D01*
X151536487Y-77151111D01*
X151621401Y-77431034D01*
X151759294Y-77689014D01*
X151944866Y-77915134D01*
X152170986Y-78100706D01*
X152225791Y-78130000D01*
X152170986Y-78159294D01*
X151944866Y-78344866D01*
X151759294Y-78570986D01*
X151621401Y-78828966D01*
X151536487Y-79108889D01*
X151507815Y-79400000D01*
X151536487Y-79691111D01*
X151621401Y-79971034D01*
X151759294Y-80229014D01*
X151944866Y-80455134D01*
X152170986Y-80640706D01*
X152225791Y-80670000D01*
X152170986Y-80699294D01*
X151944866Y-80884866D01*
X151759294Y-81110986D01*
X151621401Y-81368966D01*
X151536487Y-81648889D01*
X151507815Y-81940000D01*
X151536487Y-82231111D01*
X151621401Y-82511034D01*
X151759294Y-82769014D01*
X151944866Y-82995134D01*
X152170986Y-83180706D01*
X152225791Y-83210000D01*
X152170986Y-83239294D01*
X151944866Y-83424866D01*
X151759294Y-83650986D01*
X151621401Y-83908966D01*
X151536487Y-84188889D01*
X151507815Y-84480000D01*
X151536487Y-84771111D01*
X151621401Y-85051034D01*
X151759294Y-85309014D01*
X151944866Y-85535134D01*
X152170986Y-85720706D01*
X152225791Y-85750000D01*
X152170986Y-85779294D01*
X151944866Y-85964866D01*
X151759294Y-86190986D01*
X151621401Y-86448966D01*
X151536487Y-86728889D01*
X151507815Y-87020000D01*
X151536487Y-87311111D01*
X151621401Y-87591034D01*
X151759294Y-87849014D01*
X151944866Y-88075134D01*
X152170986Y-88260706D01*
X152225791Y-88290000D01*
X152170986Y-88319294D01*
X151944866Y-88504866D01*
X151759294Y-88730986D01*
X151621401Y-88988966D01*
X151536487Y-89268889D01*
X151507815Y-89560000D01*
X151536487Y-89851111D01*
X151621401Y-90131034D01*
X151759294Y-90389014D01*
X151944866Y-90615134D01*
X152170986Y-90800706D01*
X152225791Y-90830000D01*
X152170986Y-90859294D01*
X151944866Y-91044866D01*
X151759294Y-91270986D01*
X151621401Y-91528966D01*
X151536487Y-91808889D01*
X151507815Y-92100000D01*
X151536487Y-92391111D01*
X151621401Y-92671034D01*
X151759294Y-92929014D01*
X151944866Y-93155134D01*
X152170986Y-93340706D01*
X152428966Y-93478599D01*
X152708889Y-93563513D01*
X152927050Y-93585000D01*
X153072950Y-93585000D01*
X153291111Y-93563513D01*
X153571034Y-93478599D01*
X153829014Y-93340706D01*
X154055134Y-93155134D01*
X154240706Y-92929014D01*
X154340001Y-92743246D01*
X154340001Y-95340000D01*
X100660000Y-95340000D01*
X100660000Y-92743248D01*
X100759294Y-92929014D01*
X100944866Y-93155134D01*
X101170986Y-93340706D01*
X101428966Y-93478599D01*
X101708889Y-93563513D01*
X101927050Y-93585000D01*
X102072950Y-93585000D01*
X102291111Y-93563513D01*
X102571034Y-93478599D01*
X102829014Y-93340706D01*
X103055134Y-93155134D01*
X103240706Y-92929014D01*
X103378599Y-92671034D01*
X103463513Y-92391111D01*
X103492185Y-92100000D01*
X103463513Y-91808889D01*
X103378599Y-91528966D01*
X103308629Y-91398061D01*
X137965000Y-91398061D01*
X137965000Y-91601939D01*
X138004774Y-91801898D01*
X138082795Y-91990256D01*
X138196063Y-92159774D01*
X138340226Y-92303937D01*
X138509744Y-92417205D01*
X138698102Y-92495226D01*
X138898061Y-92535000D01*
X139101939Y-92535000D01*
X139301898Y-92495226D01*
X139490256Y-92417205D01*
X139659774Y-92303937D01*
X139803937Y-92159774D01*
X139917205Y-91990256D01*
X139995226Y-91801898D01*
X140035000Y-91601939D01*
X140035000Y-91398061D01*
X139995226Y-91198102D01*
X139917205Y-91009744D01*
X139803937Y-90840226D01*
X139659774Y-90696063D01*
X139490256Y-90582795D01*
X139301898Y-90504774D01*
X139101939Y-90465000D01*
X138898061Y-90465000D01*
X138698102Y-90504774D01*
X138509744Y-90582795D01*
X138340226Y-90696063D01*
X138196063Y-90840226D01*
X138082795Y-91009744D01*
X138004774Y-91198102D01*
X137965000Y-91398061D01*
X103308629Y-91398061D01*
X103240706Y-91270986D01*
X103055134Y-91044866D01*
X102829014Y-90859294D01*
X102774209Y-90830000D01*
X102829014Y-90800706D01*
X103055134Y-90615134D01*
X103240706Y-90389014D01*
X103378599Y-90131034D01*
X103463513Y-89851111D01*
X103492185Y-89560000D01*
X103463513Y-89268889D01*
X103378599Y-88988966D01*
X103330010Y-88898061D01*
X122365000Y-88898061D01*
X122365000Y-89101939D01*
X122404774Y-89301898D01*
X122482795Y-89490256D01*
X122596063Y-89659774D01*
X122740226Y-89803937D01*
X122909744Y-89917205D01*
X123098102Y-89995226D01*
X123298061Y-90035000D01*
X123501939Y-90035000D01*
X123701898Y-89995226D01*
X123890256Y-89917205D01*
X124059774Y-89803937D01*
X124203937Y-89659774D01*
X124317205Y-89490256D01*
X124395226Y-89301898D01*
X124435000Y-89101939D01*
X124435000Y-88898061D01*
X124395226Y-88698102D01*
X124317205Y-88509744D01*
X124242582Y-88398061D01*
X137965000Y-88398061D01*
X137965000Y-88601939D01*
X138004774Y-88801898D01*
X138082795Y-88990256D01*
X138196063Y-89159774D01*
X138340226Y-89303937D01*
X138509744Y-89417205D01*
X138698102Y-89495226D01*
X138898061Y-89535000D01*
X139101939Y-89535000D01*
X139301898Y-89495226D01*
X139490256Y-89417205D01*
X139659774Y-89303937D01*
X139803937Y-89159774D01*
X139917205Y-88990256D01*
X139995226Y-88801898D01*
X140035000Y-88601939D01*
X140035000Y-88398061D01*
X139995226Y-88198102D01*
X139917205Y-88009744D01*
X139803937Y-87840226D01*
X139659774Y-87696063D01*
X139490256Y-87582795D01*
X139301898Y-87504774D01*
X139101939Y-87465000D01*
X138898061Y-87465000D01*
X138698102Y-87504774D01*
X138509744Y-87582795D01*
X138340226Y-87696063D01*
X138196063Y-87840226D01*
X138082795Y-88009744D01*
X138004774Y-88198102D01*
X137965000Y-88398061D01*
X124242582Y-88398061D01*
X124203937Y-88340226D01*
X124059774Y-88196063D01*
X123890256Y-88082795D01*
X123701898Y-88004774D01*
X123501939Y-87965000D01*
X123298061Y-87965000D01*
X123098102Y-88004774D01*
X122909744Y-88082795D01*
X122740226Y-88196063D01*
X122596063Y-88340226D01*
X122482795Y-88509744D01*
X122404774Y-88698102D01*
X122365000Y-88898061D01*
X103330010Y-88898061D01*
X103240706Y-88730986D01*
X103055134Y-88504866D01*
X102829014Y-88319294D01*
X102774209Y-88290000D01*
X102829014Y-88260706D01*
X103055134Y-88075134D01*
X103240706Y-87849014D01*
X103321391Y-87698061D01*
X117965000Y-87698061D01*
X117965000Y-87901939D01*
X118004774Y-88101898D01*
X118082795Y-88290256D01*
X118196063Y-88459774D01*
X118340226Y-88603937D01*
X118509744Y-88717205D01*
X118698102Y-88795226D01*
X118898061Y-88835000D01*
X119101939Y-88835000D01*
X119301898Y-88795226D01*
X119490256Y-88717205D01*
X119659774Y-88603937D01*
X119803937Y-88459774D01*
X119917205Y-88290256D01*
X119995226Y-88101898D01*
X120035000Y-87901939D01*
X120035000Y-87698061D01*
X119995226Y-87498102D01*
X119917205Y-87309744D01*
X119884015Y-87260071D01*
X125603000Y-87260071D01*
X125603000Y-87463949D01*
X125642774Y-87663908D01*
X125720795Y-87852266D01*
X125834063Y-88021784D01*
X125978226Y-88165947D01*
X126147744Y-88279215D01*
X126336102Y-88357236D01*
X126536061Y-88397010D01*
X126739939Y-88397010D01*
X126939898Y-88357236D01*
X127128256Y-88279215D01*
X127297774Y-88165947D01*
X127441937Y-88021784D01*
X127555205Y-87852266D01*
X127633226Y-87663908D01*
X127673000Y-87463949D01*
X127673000Y-87260071D01*
X127633226Y-87060112D01*
X127555205Y-86871754D01*
X127441937Y-86702236D01*
X127297774Y-86558073D01*
X127128256Y-86444805D01*
X127015407Y-86398061D01*
X139965000Y-86398061D01*
X139965000Y-86601939D01*
X140004774Y-86801898D01*
X140082795Y-86990256D01*
X140196063Y-87159774D01*
X140340226Y-87303937D01*
X140509744Y-87417205D01*
X140698102Y-87495226D01*
X140898061Y-87535000D01*
X141101939Y-87535000D01*
X141301898Y-87495226D01*
X141490256Y-87417205D01*
X141659774Y-87303937D01*
X141803937Y-87159774D01*
X141917205Y-86990256D01*
X141995226Y-86801898D01*
X142035000Y-86601939D01*
X142035000Y-86398061D01*
X141995226Y-86198102D01*
X141917205Y-86009744D01*
X141803937Y-85840226D01*
X141659774Y-85696063D01*
X141490256Y-85582795D01*
X141301898Y-85504774D01*
X141101939Y-85465000D01*
X140898061Y-85465000D01*
X140698102Y-85504774D01*
X140509744Y-85582795D01*
X140340226Y-85696063D01*
X140196063Y-85840226D01*
X140082795Y-86009744D01*
X140004774Y-86198102D01*
X139965000Y-86398061D01*
X127015407Y-86398061D01*
X126939898Y-86366784D01*
X126739939Y-86327010D01*
X126536061Y-86327010D01*
X126336102Y-86366784D01*
X126147744Y-86444805D01*
X125978226Y-86558073D01*
X125834063Y-86702236D01*
X125720795Y-86871754D01*
X125642774Y-87060112D01*
X125603000Y-87260071D01*
X119884015Y-87260071D01*
X119803937Y-87140226D01*
X119659774Y-86996063D01*
X119490256Y-86882795D01*
X119301898Y-86804774D01*
X119101939Y-86765000D01*
X118898061Y-86765000D01*
X118698102Y-86804774D01*
X118509744Y-86882795D01*
X118340226Y-86996063D01*
X118196063Y-87140226D01*
X118082795Y-87309744D01*
X118004774Y-87498102D01*
X117965000Y-87698061D01*
X103321391Y-87698061D01*
X103378599Y-87591034D01*
X103463513Y-87311111D01*
X103492185Y-87020000D01*
X103463513Y-86728889D01*
X103378599Y-86448966D01*
X103240706Y-86190986D01*
X103055134Y-85964866D01*
X102829014Y-85779294D01*
X102774209Y-85750000D01*
X102829014Y-85720706D01*
X103055134Y-85535134D01*
X103240706Y-85309014D01*
X103378599Y-85051034D01*
X103463513Y-84771111D01*
X103492185Y-84480000D01*
X103469637Y-84251061D01*
X126110996Y-84251061D01*
X126110996Y-84454939D01*
X126150770Y-84654898D01*
X126228791Y-84843256D01*
X126342059Y-85012774D01*
X126486222Y-85156937D01*
X126655740Y-85270205D01*
X126844098Y-85348226D01*
X127044057Y-85388000D01*
X127247935Y-85388000D01*
X127447894Y-85348226D01*
X127636252Y-85270205D01*
X127805770Y-85156937D01*
X127949933Y-85012774D01*
X128063201Y-84843256D01*
X128141222Y-84654898D01*
X128180996Y-84454939D01*
X128180996Y-84251061D01*
X128162339Y-84157266D01*
X128186778Y-84140937D01*
X128330941Y-83996774D01*
X128444209Y-83827256D01*
X128522230Y-83638898D01*
X128562004Y-83438939D01*
X128562004Y-83235061D01*
X128522230Y-83035102D01*
X128444209Y-82846744D01*
X128347492Y-82701997D01*
X128444205Y-82557256D01*
X128522226Y-82368898D01*
X128562000Y-82168939D01*
X128562000Y-81965061D01*
X128522226Y-81765102D01*
X128444205Y-81576744D01*
X128330937Y-81407226D01*
X128186774Y-81263063D01*
X128017256Y-81149795D01*
X127828898Y-81071774D01*
X127628939Y-81032000D01*
X127425061Y-81032000D01*
X127225102Y-81071774D01*
X127036744Y-81149795D01*
X126867226Y-81263063D01*
X126723063Y-81407226D01*
X126609795Y-81576744D01*
X126531774Y-81765102D01*
X126492000Y-81965061D01*
X126492000Y-82168939D01*
X126531774Y-82368898D01*
X126609795Y-82557256D01*
X126706512Y-82702003D01*
X126609799Y-82846744D01*
X126531778Y-83035102D01*
X126492004Y-83235061D01*
X126492004Y-83438939D01*
X126510661Y-83532734D01*
X126486222Y-83549063D01*
X126342059Y-83693226D01*
X126228791Y-83862744D01*
X126150770Y-84051102D01*
X126110996Y-84251061D01*
X103469637Y-84251061D01*
X103463513Y-84188889D01*
X103378599Y-83908966D01*
X103240706Y-83650986D01*
X103055134Y-83424866D01*
X102829014Y-83239294D01*
X102774209Y-83210000D01*
X102829014Y-83180706D01*
X103055134Y-82995134D01*
X103240706Y-82769014D01*
X103378599Y-82511034D01*
X103463513Y-82231111D01*
X103492185Y-81940000D01*
X103463513Y-81648889D01*
X103378599Y-81368966D01*
X103240706Y-81110986D01*
X103055134Y-80884866D01*
X102829014Y-80699294D01*
X102774209Y-80670000D01*
X102829014Y-80640706D01*
X103055134Y-80455134D01*
X103184040Y-80298061D01*
X110965000Y-80298061D01*
X110965000Y-80501939D01*
X111004774Y-80701898D01*
X111082795Y-80890256D01*
X111196063Y-81059774D01*
X111340226Y-81203937D01*
X111509744Y-81317205D01*
X111698102Y-81395226D01*
X111898061Y-81435000D01*
X112101939Y-81435000D01*
X112301898Y-81395226D01*
X112490256Y-81317205D01*
X112659774Y-81203937D01*
X112803937Y-81059774D01*
X112917205Y-80890256D01*
X112995226Y-80701898D01*
X113005973Y-80647868D01*
X113109744Y-80717205D01*
X113298102Y-80795226D01*
X113498061Y-80835000D01*
X113701939Y-80835000D01*
X113901898Y-80795226D01*
X114090256Y-80717205D01*
X114259774Y-80603937D01*
X114403937Y-80459774D01*
X114517205Y-80290256D01*
X114594545Y-80103542D01*
X114633397Y-80103542D01*
X114833356Y-80063768D01*
X115021714Y-79985747D01*
X115191232Y-79872479D01*
X115335395Y-79728316D01*
X115448663Y-79558798D01*
X115526684Y-79370440D01*
X115566458Y-79170481D01*
X115566458Y-78966603D01*
X115552825Y-78898061D01*
X129264998Y-78898061D01*
X129264998Y-79101939D01*
X129304772Y-79301898D01*
X129382793Y-79490256D01*
X129496061Y-79659774D01*
X129640224Y-79803937D01*
X129809742Y-79917205D01*
X129998100Y-79995226D01*
X130198059Y-80035000D01*
X130401937Y-80035000D01*
X130601896Y-79995226D01*
X130790254Y-79917205D01*
X130959772Y-79803937D01*
X131103935Y-79659774D01*
X131217203Y-79490256D01*
X131295224Y-79301898D01*
X131334998Y-79101939D01*
X131334998Y-78898061D01*
X131295224Y-78698102D01*
X131217203Y-78509744D01*
X131103935Y-78340226D01*
X130959772Y-78196063D01*
X130790254Y-78082795D01*
X130601896Y-78004774D01*
X130401937Y-77965000D01*
X130198059Y-77965000D01*
X129998100Y-78004774D01*
X129809742Y-78082795D01*
X129640224Y-78196063D01*
X129496061Y-78340226D01*
X129382793Y-78509744D01*
X129304772Y-78698102D01*
X129264998Y-78898061D01*
X115552825Y-78898061D01*
X115526684Y-78766644D01*
X115448663Y-78578286D01*
X115335395Y-78408768D01*
X115191232Y-78264605D01*
X115021714Y-78151337D01*
X114833356Y-78073316D01*
X114633397Y-78033542D01*
X114429519Y-78033542D01*
X114229560Y-78073316D01*
X114041202Y-78151337D01*
X113871684Y-78264605D01*
X113727521Y-78408768D01*
X113614253Y-78578286D01*
X113536913Y-78765000D01*
X113498061Y-78765000D01*
X113298102Y-78804774D01*
X113109744Y-78882795D01*
X112940226Y-78996063D01*
X112796063Y-79140226D01*
X112682795Y-79309744D01*
X112604774Y-79498102D01*
X112594027Y-79552132D01*
X112490256Y-79482795D01*
X112301898Y-79404774D01*
X112101939Y-79365000D01*
X111898061Y-79365000D01*
X111698102Y-79404774D01*
X111509744Y-79482795D01*
X111340226Y-79596063D01*
X111196063Y-79740226D01*
X111082795Y-79909744D01*
X111004774Y-80098102D01*
X110965000Y-80298061D01*
X103184040Y-80298061D01*
X103240706Y-80229014D01*
X103378599Y-79971034D01*
X103463513Y-79691111D01*
X103492185Y-79400000D01*
X103463513Y-79108889D01*
X103378599Y-78828966D01*
X103240706Y-78570986D01*
X103055134Y-78344866D01*
X102829014Y-78159294D01*
X102774209Y-78130000D01*
X102829014Y-78100706D01*
X103055134Y-77915134D01*
X103240706Y-77689014D01*
X103378599Y-77431034D01*
X103463513Y-77151111D01*
X103492185Y-76860000D01*
X103463513Y-76568889D01*
X103378599Y-76288966D01*
X103240706Y-76030986D01*
X103055134Y-75804866D01*
X102829014Y-75619294D01*
X102774209Y-75590000D01*
X102829014Y-75560706D01*
X103027197Y-75398061D01*
X111715000Y-75398061D01*
X111715000Y-75601939D01*
X111754774Y-75801898D01*
X111832795Y-75990256D01*
X111946063Y-76159774D01*
X112090226Y-76303937D01*
X112259744Y-76417205D01*
X112448102Y-76495226D01*
X112648061Y-76535000D01*
X112851939Y-76535000D01*
X113051898Y-76495226D01*
X113240256Y-76417205D01*
X113409774Y-76303937D01*
X113500000Y-76213711D01*
X113590226Y-76303937D01*
X113759744Y-76417205D01*
X113948102Y-76495226D01*
X114148061Y-76535000D01*
X114351939Y-76535000D01*
X114551898Y-76495226D01*
X114740256Y-76417205D01*
X114909774Y-76303937D01*
X115053937Y-76159774D01*
X115167205Y-75990256D01*
X115245226Y-75801898D01*
X115285000Y-75601939D01*
X115285000Y-75398061D01*
X115245226Y-75198102D01*
X115167205Y-75009744D01*
X115053937Y-74840226D01*
X114909774Y-74696063D01*
X114740256Y-74582795D01*
X114551898Y-74504774D01*
X114351939Y-74465000D01*
X114148061Y-74465000D01*
X113948102Y-74504774D01*
X113759744Y-74582795D01*
X113590226Y-74696063D01*
X113500000Y-74786289D01*
X113409774Y-74696063D01*
X113240256Y-74582795D01*
X113051898Y-74504774D01*
X112851939Y-74465000D01*
X112648061Y-74465000D01*
X112448102Y-74504774D01*
X112259744Y-74582795D01*
X112090226Y-74696063D01*
X111946063Y-74840226D01*
X111832795Y-75009744D01*
X111754774Y-75198102D01*
X111715000Y-75398061D01*
X103027197Y-75398061D01*
X103055134Y-75375134D01*
X103240706Y-75149014D01*
X103378599Y-74891034D01*
X103463513Y-74611111D01*
X103492185Y-74320000D01*
X103490025Y-74298061D01*
X122365000Y-74298061D01*
X122365000Y-74501939D01*
X122404774Y-74701898D01*
X122482795Y-74890256D01*
X122596063Y-75059774D01*
X122740226Y-75203937D01*
X122909744Y-75317205D01*
X123098102Y-75395226D01*
X123298061Y-75435000D01*
X123501939Y-75435000D01*
X123701898Y-75395226D01*
X123890256Y-75317205D01*
X124059774Y-75203937D01*
X124203937Y-75059774D01*
X124317205Y-74890256D01*
X124395226Y-74701898D01*
X124405934Y-74648061D01*
X133465000Y-74648061D01*
X133465000Y-74851939D01*
X133504774Y-75051898D01*
X133582795Y-75240256D01*
X133696063Y-75409774D01*
X133840226Y-75553937D01*
X134009744Y-75667205D01*
X134198102Y-75745226D01*
X134398061Y-75785000D01*
X134601939Y-75785000D01*
X134801898Y-75745226D01*
X134990256Y-75667205D01*
X135159774Y-75553937D01*
X135303937Y-75409774D01*
X135417205Y-75240256D01*
X135495226Y-75051898D01*
X135535000Y-74851939D01*
X135535000Y-74648061D01*
X135495226Y-74448102D01*
X135417205Y-74259744D01*
X135303937Y-74090226D01*
X135159774Y-73946063D01*
X134990256Y-73832795D01*
X134801898Y-73754774D01*
X134601939Y-73715000D01*
X134398061Y-73715000D01*
X134198102Y-73754774D01*
X134009744Y-73832795D01*
X133840226Y-73946063D01*
X133696063Y-74090226D01*
X133582795Y-74259744D01*
X133504774Y-74448102D01*
X133465000Y-74648061D01*
X124405934Y-74648061D01*
X124435000Y-74501939D01*
X124435000Y-74298061D01*
X124395226Y-74098102D01*
X124317205Y-73909744D01*
X124203937Y-73740226D01*
X124059774Y-73596063D01*
X123890256Y-73482795D01*
X123701898Y-73404774D01*
X123501939Y-73365000D01*
X123298061Y-73365000D01*
X123098102Y-73404774D01*
X122909744Y-73482795D01*
X122740226Y-73596063D01*
X122596063Y-73740226D01*
X122482795Y-73909744D01*
X122404774Y-74098102D01*
X122365000Y-74298061D01*
X103490025Y-74298061D01*
X103463513Y-74028889D01*
X103378599Y-73748966D01*
X103240706Y-73490986D01*
X103055134Y-73264866D01*
X102829014Y-73079294D01*
X102774209Y-73050000D01*
X102829014Y-73020706D01*
X103055134Y-72835134D01*
X103240706Y-72609014D01*
X103378599Y-72351034D01*
X103463513Y-72071111D01*
X103492185Y-71780000D01*
X103463513Y-71488889D01*
X103378599Y-71208966D01*
X103240706Y-70950986D01*
X103055134Y-70724866D01*
X102829014Y-70539294D01*
X102764477Y-70504799D01*
X102881355Y-70435178D01*
X103097588Y-70240269D01*
X103271641Y-70006920D01*
X103396825Y-69744099D01*
X103441476Y-69596890D01*
X103320155Y-69367000D01*
X102127000Y-69367000D01*
X102127000Y-69387000D01*
X101873000Y-69387000D01*
X101873000Y-69367000D01*
X101853000Y-69367000D01*
X101853000Y-69113000D01*
X101873000Y-69113000D01*
X101873000Y-66827000D01*
X102127000Y-66827000D01*
X102127000Y-69113000D01*
X103320155Y-69113000D01*
X103441476Y-68883110D01*
X103396825Y-68735901D01*
X103271641Y-68473080D01*
X103097588Y-68239731D01*
X102881355Y-68044822D01*
X102755745Y-67970000D01*
X102881355Y-67895178D01*
X103097588Y-67700269D01*
X103271641Y-67466920D01*
X103396825Y-67204099D01*
X103441476Y-67056890D01*
X103320155Y-66827000D01*
X102127000Y-66827000D01*
X101873000Y-66827000D01*
X101853000Y-66827000D01*
X101853000Y-66573000D01*
X101873000Y-66573000D01*
X101873000Y-64287000D01*
X102127000Y-64287000D01*
X102127000Y-66573000D01*
X103320155Y-66573000D01*
X103441476Y-66343110D01*
X103396825Y-66195901D01*
X103271641Y-65933080D01*
X103097588Y-65699731D01*
X102881355Y-65504822D01*
X102755745Y-65430000D01*
X102881355Y-65355178D01*
X103097588Y-65160269D01*
X103271641Y-64926920D01*
X103396825Y-64664099D01*
X103441476Y-64516890D01*
X103320155Y-64287000D01*
X102127000Y-64287000D01*
X101873000Y-64287000D01*
X101853000Y-64287000D01*
X101853000Y-64033000D01*
X101873000Y-64033000D01*
X101873000Y-61747000D01*
X102127000Y-61747000D01*
X102127000Y-64033000D01*
X103320155Y-64033000D01*
X103441476Y-63803110D01*
X103396825Y-63655901D01*
X103271641Y-63393080D01*
X103097588Y-63159731D01*
X102881355Y-62964822D01*
X102755745Y-62890000D01*
X102881355Y-62815178D01*
X103097588Y-62620269D01*
X103271641Y-62386920D01*
X103396825Y-62124099D01*
X103441476Y-61976890D01*
X103321739Y-61750000D01*
X115873000Y-61750000D01*
X115873000Y-70000000D01*
X115882667Y-70048601D01*
X115910197Y-70089803D01*
X115951399Y-70117333D01*
X116000000Y-70127000D01*
X116534226Y-70127000D01*
X116504774Y-70198102D01*
X116465000Y-70398061D01*
X116465000Y-70601939D01*
X116504774Y-70801898D01*
X116582795Y-70990256D01*
X116696063Y-71159774D01*
X116840226Y-71303937D01*
X117009744Y-71417205D01*
X117198102Y-71495226D01*
X117398061Y-71535000D01*
X117601939Y-71535000D01*
X117801898Y-71495226D01*
X117990256Y-71417205D01*
X118159774Y-71303937D01*
X118303937Y-71159774D01*
X118417205Y-70990256D01*
X118495226Y-70801898D01*
X118535000Y-70601939D01*
X118535000Y-70464606D01*
X118910197Y-70839803D01*
X118951399Y-70867333D01*
X119000000Y-70877000D01*
X119522485Y-70877000D01*
X119374226Y-70976063D01*
X119230063Y-71120226D01*
X119116795Y-71289744D01*
X119038774Y-71478102D01*
X118999000Y-71678061D01*
X118999000Y-71881939D01*
X119038774Y-72081898D01*
X119116795Y-72270256D01*
X119230063Y-72439774D01*
X119374226Y-72583937D01*
X119543744Y-72697205D01*
X119732102Y-72775226D01*
X119932061Y-72815000D01*
X120135939Y-72815000D01*
X120335898Y-72775226D01*
X120524256Y-72697205D01*
X120693774Y-72583937D01*
X120837937Y-72439774D01*
X120951205Y-72270256D01*
X121029226Y-72081898D01*
X121069000Y-71881939D01*
X121069000Y-71678061D01*
X121029226Y-71478102D01*
X120951205Y-71289744D01*
X120837937Y-71120226D01*
X120693774Y-70976063D01*
X120545515Y-70877000D01*
X121750000Y-70877000D01*
X121798601Y-70867333D01*
X121839803Y-70839803D01*
X121983693Y-70695913D01*
X122004774Y-70801898D01*
X122082795Y-70990256D01*
X122196063Y-71159774D01*
X122340226Y-71303937D01*
X122509744Y-71417205D01*
X122698102Y-71495226D01*
X122898061Y-71535000D01*
X123101939Y-71535000D01*
X123301898Y-71495226D01*
X123490256Y-71417205D01*
X123659774Y-71303937D01*
X123803937Y-71159774D01*
X123825511Y-71127486D01*
X133187266Y-71127486D01*
X133187266Y-71331364D01*
X133227040Y-71531323D01*
X133305061Y-71719681D01*
X133418329Y-71889199D01*
X133562492Y-72033362D01*
X133732010Y-72146630D01*
X133920368Y-72224651D01*
X134120327Y-72264425D01*
X134324205Y-72264425D01*
X134524164Y-72224651D01*
X134712522Y-72146630D01*
X134882040Y-72033362D01*
X135026203Y-71889199D01*
X135139471Y-71719681D01*
X135217492Y-71531323D01*
X135257266Y-71331364D01*
X135257266Y-71127486D01*
X135217492Y-70927527D01*
X135139471Y-70739169D01*
X135026203Y-70569651D01*
X134882040Y-70425488D01*
X134712522Y-70312220D01*
X134524164Y-70234199D01*
X134324205Y-70194425D01*
X134120327Y-70194425D01*
X133920368Y-70234199D01*
X133732010Y-70312220D01*
X133562492Y-70425488D01*
X133418329Y-70569651D01*
X133305061Y-70739169D01*
X133227040Y-70927527D01*
X133187266Y-71127486D01*
X123825511Y-71127486D01*
X123917205Y-70990256D01*
X123995226Y-70801898D01*
X124035000Y-70601939D01*
X124035000Y-70398061D01*
X123995226Y-70198102D01*
X123965774Y-70127000D01*
X125000000Y-70127000D01*
X125048601Y-70117333D01*
X125089803Y-70089803D01*
X125117333Y-70048601D01*
X125127000Y-70000000D01*
X125127000Y-68098061D01*
X141165000Y-68098061D01*
X141165000Y-68301939D01*
X141204774Y-68501898D01*
X141282795Y-68690256D01*
X141396063Y-68859774D01*
X141540226Y-69003937D01*
X141709744Y-69117205D01*
X141898102Y-69195226D01*
X142098061Y-69235000D01*
X142301939Y-69235000D01*
X142501898Y-69195226D01*
X142690256Y-69117205D01*
X142859774Y-69003937D01*
X143003937Y-68859774D01*
X143117205Y-68690256D01*
X143195226Y-68501898D01*
X143235000Y-68301939D01*
X143235000Y-68098061D01*
X143195226Y-67898102D01*
X143117205Y-67709744D01*
X143003937Y-67540226D01*
X142859774Y-67396063D01*
X142690256Y-67282795D01*
X142501898Y-67204774D01*
X142301939Y-67165000D01*
X142098061Y-67165000D01*
X141898102Y-67204774D01*
X141709744Y-67282795D01*
X141540226Y-67396063D01*
X141396063Y-67540226D01*
X141282795Y-67709744D01*
X141204774Y-67898102D01*
X141165000Y-68098061D01*
X125127000Y-68098061D01*
X125127000Y-66298061D01*
X139965000Y-66298061D01*
X139965000Y-66501939D01*
X140004774Y-66701898D01*
X140082795Y-66890256D01*
X140196063Y-67059774D01*
X140340226Y-67203937D01*
X140509744Y-67317205D01*
X140698102Y-67395226D01*
X140898061Y-67435000D01*
X141101939Y-67435000D01*
X141301898Y-67395226D01*
X141490256Y-67317205D01*
X141659774Y-67203937D01*
X141803937Y-67059774D01*
X141917205Y-66890256D01*
X141995226Y-66701898D01*
X142035000Y-66501939D01*
X142035000Y-66298061D01*
X141995226Y-66098102D01*
X141917205Y-65909744D01*
X141803937Y-65740226D01*
X141659774Y-65596063D01*
X141490256Y-65482795D01*
X141301898Y-65404774D01*
X141101939Y-65365000D01*
X140898061Y-65365000D01*
X140698102Y-65404774D01*
X140509744Y-65482795D01*
X140340226Y-65596063D01*
X140196063Y-65740226D01*
X140082795Y-65909744D01*
X140004774Y-66098102D01*
X139965000Y-66298061D01*
X125127000Y-66298061D01*
X125127000Y-62898061D01*
X144965000Y-62898061D01*
X144965000Y-63101939D01*
X145004774Y-63301898D01*
X145082795Y-63490256D01*
X145196063Y-63659774D01*
X145340226Y-63803937D01*
X145509744Y-63917205D01*
X145698102Y-63995226D01*
X145898061Y-64035000D01*
X146101939Y-64035000D01*
X146301898Y-63995226D01*
X146490256Y-63917205D01*
X146659774Y-63803937D01*
X146803937Y-63659774D01*
X146917205Y-63490256D01*
X146995226Y-63301898D01*
X147035000Y-63101939D01*
X147035000Y-62898061D01*
X146995226Y-62698102D01*
X146917205Y-62509744D01*
X146803937Y-62340226D01*
X146659774Y-62196063D01*
X146490256Y-62082795D01*
X146301898Y-62004774D01*
X146101939Y-61965000D01*
X145898061Y-61965000D01*
X145698102Y-62004774D01*
X145509744Y-62082795D01*
X145340226Y-62196063D01*
X145196063Y-62340226D01*
X145082795Y-62509744D01*
X145004774Y-62698102D01*
X144965000Y-62898061D01*
X125127000Y-62898061D01*
X125127000Y-61877000D01*
X126000000Y-61877000D01*
X126048601Y-61867333D01*
X126089803Y-61839803D01*
X126117333Y-61798601D01*
X126127000Y-61750000D01*
X126127000Y-61398061D01*
X138715000Y-61398061D01*
X138715000Y-61601939D01*
X138754774Y-61801898D01*
X138832795Y-61990256D01*
X138946063Y-62159774D01*
X139090226Y-62303937D01*
X139259744Y-62417205D01*
X139448102Y-62495226D01*
X139648061Y-62535000D01*
X139851939Y-62535000D01*
X140051898Y-62495226D01*
X140240256Y-62417205D01*
X140409774Y-62303937D01*
X140553937Y-62159774D01*
X140667205Y-61990256D01*
X140745226Y-61801898D01*
X140785000Y-61601939D01*
X140785000Y-61398061D01*
X140745226Y-61198102D01*
X140667205Y-61009744D01*
X140553937Y-60840226D01*
X140499461Y-60785750D01*
X142465000Y-60785750D01*
X142465000Y-61212542D01*
X142489403Y-61335223D01*
X142537270Y-61450785D01*
X142606763Y-61554789D01*
X142695211Y-61643237D01*
X142799215Y-61712730D01*
X142914777Y-61760597D01*
X143037458Y-61785000D01*
X143214250Y-61785000D01*
X143373000Y-61626250D01*
X143373000Y-60627000D01*
X142623750Y-60627000D01*
X142465000Y-60785750D01*
X140499461Y-60785750D01*
X140409774Y-60696063D01*
X140240256Y-60582795D01*
X140051898Y-60504774D01*
X139851939Y-60465000D01*
X139648061Y-60465000D01*
X139448102Y-60504774D01*
X139259744Y-60582795D01*
X139090226Y-60696063D01*
X138946063Y-60840226D01*
X138832795Y-61009744D01*
X138754774Y-61198102D01*
X138715000Y-61398061D01*
X126127000Y-61398061D01*
X126127000Y-59787458D01*
X142465000Y-59787458D01*
X142465000Y-60214250D01*
X142623750Y-60373000D01*
X143373000Y-60373000D01*
X143373000Y-59373750D01*
X143627000Y-59373750D01*
X143627000Y-60373000D01*
X143647000Y-60373000D01*
X143647000Y-60627000D01*
X143627000Y-60627000D01*
X143627000Y-61626250D01*
X143785750Y-61785000D01*
X143962542Y-61785000D01*
X144085223Y-61760597D01*
X144200785Y-61712730D01*
X144269564Y-61666774D01*
X144352008Y-61710841D01*
X144547106Y-61770024D01*
X144750000Y-61790007D01*
X144952895Y-61770024D01*
X145147993Y-61710841D01*
X145327797Y-61614734D01*
X145485396Y-61485396D01*
X145614734Y-61327797D01*
X145710841Y-61147992D01*
X145730704Y-61082513D01*
X147906452Y-61082513D01*
X147906452Y-61286391D01*
X147946226Y-61486350D01*
X148024247Y-61674708D01*
X148137515Y-61844226D01*
X148281678Y-61988389D01*
X148451196Y-62101657D01*
X148639554Y-62179678D01*
X148839513Y-62219452D01*
X149043391Y-62219452D01*
X149243350Y-62179678D01*
X149431708Y-62101657D01*
X149601226Y-61988389D01*
X149745389Y-61844226D01*
X149858657Y-61674708D01*
X149936678Y-61486350D01*
X149976452Y-61286391D01*
X149976452Y-61082513D01*
X149936678Y-60882554D01*
X149858657Y-60694196D01*
X149745389Y-60524678D01*
X149601226Y-60380515D01*
X149431708Y-60267247D01*
X149243350Y-60189226D01*
X149043391Y-60149452D01*
X148839513Y-60149452D01*
X148639554Y-60189226D01*
X148451196Y-60267247D01*
X148281678Y-60380515D01*
X148137515Y-60524678D01*
X148024247Y-60694196D01*
X147946226Y-60882554D01*
X147906452Y-61082513D01*
X145730704Y-61082513D01*
X145770024Y-60952894D01*
X145785000Y-60800837D01*
X145785000Y-60199162D01*
X145770024Y-60047105D01*
X145710841Y-59852007D01*
X145614734Y-59672203D01*
X145485396Y-59514604D01*
X145327797Y-59385266D01*
X145147992Y-59289159D01*
X144952894Y-59229976D01*
X144750000Y-59209993D01*
X144547105Y-59229976D01*
X144352007Y-59289159D01*
X144269563Y-59333226D01*
X144200785Y-59287270D01*
X144085223Y-59239403D01*
X143962542Y-59215000D01*
X143785750Y-59215000D01*
X143627000Y-59373750D01*
X143373000Y-59373750D01*
X143214250Y-59215000D01*
X143037458Y-59215000D01*
X142914777Y-59239403D01*
X142799215Y-59287270D01*
X142695211Y-59356763D01*
X142606763Y-59445211D01*
X142537270Y-59549215D01*
X142489403Y-59664777D01*
X142465000Y-59787458D01*
X126127000Y-59787458D01*
X126127000Y-58188589D01*
X129615000Y-58188589D01*
X129615000Y-58461411D01*
X129668225Y-58728989D01*
X129772629Y-58981043D01*
X129924201Y-59207886D01*
X130117114Y-59400799D01*
X130343957Y-59552371D01*
X130596011Y-59656775D01*
X130863589Y-59710000D01*
X131136411Y-59710000D01*
X131403989Y-59656775D01*
X131656043Y-59552371D01*
X131882886Y-59400799D01*
X132075799Y-59207886D01*
X132227371Y-58981043D01*
X132331775Y-58728989D01*
X132385000Y-58461411D01*
X132385000Y-58188589D01*
X132331775Y-57921011D01*
X132227371Y-57668957D01*
X132075799Y-57442114D01*
X131882886Y-57249201D01*
X131656043Y-57097629D01*
X131403989Y-56993225D01*
X131136411Y-56940000D01*
X130863589Y-56940000D01*
X130596011Y-56993225D01*
X130343957Y-57097629D01*
X130117114Y-57249201D01*
X129924201Y-57442114D01*
X129772629Y-57668957D01*
X129668225Y-57921011D01*
X129615000Y-58188589D01*
X126127000Y-58188589D01*
X126127000Y-54750000D01*
X126117333Y-54701399D01*
X126089803Y-54660197D01*
X126048601Y-54632667D01*
X126000000Y-54623000D01*
X121750000Y-54623000D01*
X121701399Y-54632667D01*
X121660197Y-54660197D01*
X118910197Y-57410197D01*
X118882667Y-57451399D01*
X118873000Y-57500000D01*
X118873000Y-61197394D01*
X118447394Y-61623000D01*
X116000000Y-61623000D01*
X115951399Y-61632667D01*
X115910197Y-61660197D01*
X115882667Y-61701399D01*
X115873000Y-61750000D01*
X103321739Y-61750000D01*
X103320155Y-61747000D01*
X102127000Y-61747000D01*
X101873000Y-61747000D01*
X101853000Y-61747000D01*
X101853000Y-61493000D01*
X101873000Y-61493000D01*
X101873000Y-61473000D01*
X102127000Y-61473000D01*
X102127000Y-61493000D01*
X103320155Y-61493000D01*
X103441476Y-61263110D01*
X103396825Y-61115901D01*
X103271641Y-60853080D01*
X103097588Y-60619731D01*
X102881355Y-60424822D01*
X102764477Y-60355201D01*
X102829014Y-60320706D01*
X103055134Y-60135134D01*
X103240706Y-59909014D01*
X103378599Y-59651034D01*
X103463513Y-59371111D01*
X103492185Y-59080000D01*
X103463513Y-58788889D01*
X103378599Y-58508966D01*
X103240706Y-58250986D01*
X103189499Y-58188589D01*
X107115000Y-58188589D01*
X107115000Y-58461411D01*
X107168225Y-58728989D01*
X107272629Y-58981043D01*
X107424201Y-59207886D01*
X107617114Y-59400799D01*
X107843957Y-59552371D01*
X108096011Y-59656775D01*
X108363589Y-59710000D01*
X108636411Y-59710000D01*
X108903989Y-59656775D01*
X109156043Y-59552371D01*
X109382886Y-59400799D01*
X109575799Y-59207886D01*
X109727371Y-58981043D01*
X109831775Y-58728989D01*
X109885000Y-58461411D01*
X109885000Y-58188589D01*
X109831775Y-57921011D01*
X109727371Y-57668957D01*
X109575799Y-57442114D01*
X109382886Y-57249201D01*
X109156043Y-57097629D01*
X108903989Y-56993225D01*
X108636411Y-56940000D01*
X108363589Y-56940000D01*
X108096011Y-56993225D01*
X107843957Y-57097629D01*
X107617114Y-57249201D01*
X107424201Y-57442114D01*
X107272629Y-57668957D01*
X107168225Y-57921011D01*
X107115000Y-58188589D01*
X103189499Y-58188589D01*
X103055134Y-58024866D01*
X102829014Y-57839294D01*
X102774209Y-57810000D01*
X102829014Y-57780706D01*
X103055134Y-57595134D01*
X103240706Y-57369014D01*
X103378599Y-57111034D01*
X103463513Y-56831111D01*
X103492185Y-56540000D01*
X103463513Y-56248889D01*
X103378599Y-55968966D01*
X103240706Y-55710986D01*
X103055134Y-55484866D01*
X103025313Y-55460393D01*
X103094180Y-55439502D01*
X103204494Y-55380537D01*
X103301185Y-55301185D01*
X103380537Y-55204494D01*
X103439502Y-55094180D01*
X103475812Y-54974482D01*
X103488072Y-54850000D01*
X103488072Y-53898061D01*
X129465000Y-53898061D01*
X129465000Y-54101939D01*
X129504774Y-54301898D01*
X129582795Y-54490256D01*
X129696063Y-54659774D01*
X129840226Y-54803937D01*
X130009744Y-54917205D01*
X130198102Y-54995226D01*
X130398061Y-55035000D01*
X130601939Y-55035000D01*
X130801898Y-54995226D01*
X130990256Y-54917205D01*
X131159774Y-54803937D01*
X131303937Y-54659774D01*
X131375000Y-54553420D01*
X131446063Y-54659774D01*
X131590226Y-54803937D01*
X131759744Y-54917205D01*
X131948102Y-54995226D01*
X132148061Y-55035000D01*
X132351939Y-55035000D01*
X132551898Y-54995226D01*
X132740256Y-54917205D01*
X132909774Y-54803937D01*
X133053937Y-54659774D01*
X133167205Y-54490256D01*
X133245226Y-54301898D01*
X133285000Y-54101939D01*
X133285000Y-53898061D01*
X133245226Y-53698102D01*
X133167205Y-53509744D01*
X133092582Y-53398061D01*
X136965000Y-53398061D01*
X136965000Y-53601939D01*
X137004774Y-53801898D01*
X137082795Y-53990256D01*
X137196063Y-54159774D01*
X137340226Y-54303937D01*
X137509744Y-54417205D01*
X137698102Y-54495226D01*
X137898061Y-54535000D01*
X138101939Y-54535000D01*
X138301898Y-54495226D01*
X138490256Y-54417205D01*
X138518907Y-54398061D01*
X142465000Y-54398061D01*
X142465000Y-54601939D01*
X142504774Y-54801898D01*
X142582795Y-54990256D01*
X142696063Y-55159774D01*
X142840226Y-55303937D01*
X143009744Y-55417205D01*
X143198102Y-55495226D01*
X143398061Y-55535000D01*
X143601939Y-55535000D01*
X143801898Y-55495226D01*
X143990256Y-55417205D01*
X144159774Y-55303937D01*
X144303937Y-55159774D01*
X144417205Y-54990256D01*
X144495226Y-54801898D01*
X144535000Y-54601939D01*
X144535000Y-54398061D01*
X144495226Y-54198102D01*
X144417205Y-54009744D01*
X144335274Y-53887125D01*
X144459774Y-53803937D01*
X144603937Y-53659774D01*
X144717205Y-53490256D01*
X144755393Y-53398061D01*
X147965000Y-53398061D01*
X147965000Y-53601939D01*
X148004774Y-53801898D01*
X148082795Y-53990256D01*
X148196063Y-54159774D01*
X148340226Y-54303937D01*
X148509744Y-54417205D01*
X148698102Y-54495226D01*
X148898061Y-54535000D01*
X149101939Y-54535000D01*
X149301898Y-54495226D01*
X149490256Y-54417205D01*
X149659774Y-54303937D01*
X149803937Y-54159774D01*
X149917205Y-53990256D01*
X149995226Y-53801898D01*
X150035000Y-53601939D01*
X150035000Y-53398061D01*
X149995226Y-53198102D01*
X149949396Y-53087458D01*
X151515000Y-53087458D01*
X151515000Y-53714250D01*
X151673750Y-53873000D01*
X152873000Y-53873000D01*
X152873000Y-52673750D01*
X152714250Y-52515000D01*
X152087458Y-52515000D01*
X151964777Y-52539403D01*
X151849215Y-52587270D01*
X151745211Y-52656763D01*
X151656763Y-52745211D01*
X151587270Y-52849215D01*
X151539403Y-52964777D01*
X151515000Y-53087458D01*
X149949396Y-53087458D01*
X149917205Y-53009744D01*
X149803937Y-52840226D01*
X149659774Y-52696063D01*
X149490256Y-52582795D01*
X149301898Y-52504774D01*
X149101939Y-52465000D01*
X148898061Y-52465000D01*
X148698102Y-52504774D01*
X148509744Y-52582795D01*
X148340226Y-52696063D01*
X148196063Y-52840226D01*
X148082795Y-53009744D01*
X148004774Y-53198102D01*
X147965000Y-53398061D01*
X144755393Y-53398061D01*
X144795226Y-53301898D01*
X144835000Y-53101939D01*
X144835000Y-52898061D01*
X144795226Y-52698102D01*
X144717205Y-52509744D01*
X144603937Y-52340226D01*
X144459774Y-52196063D01*
X144290256Y-52082795D01*
X144101898Y-52004774D01*
X143901939Y-51965000D01*
X143698061Y-51965000D01*
X143498102Y-52004774D01*
X143309744Y-52082795D01*
X143140226Y-52196063D01*
X142996063Y-52340226D01*
X142882795Y-52509744D01*
X142804774Y-52698102D01*
X142765000Y-52898061D01*
X142765000Y-53101939D01*
X142804774Y-53301898D01*
X142882795Y-53490256D01*
X142964726Y-53612875D01*
X142840226Y-53696063D01*
X142696063Y-53840226D01*
X142582795Y-54009744D01*
X142504774Y-54198102D01*
X142465000Y-54398061D01*
X138518907Y-54398061D01*
X138659774Y-54303937D01*
X138803937Y-54159774D01*
X138917205Y-53990256D01*
X138995226Y-53801898D01*
X139035000Y-53601939D01*
X139035000Y-53398061D01*
X138995226Y-53198102D01*
X138917205Y-53009744D01*
X138803937Y-52840226D01*
X138659774Y-52696063D01*
X138490256Y-52582795D01*
X138301898Y-52504774D01*
X138101939Y-52465000D01*
X137898061Y-52465000D01*
X137698102Y-52504774D01*
X137509744Y-52582795D01*
X137340226Y-52696063D01*
X137196063Y-52840226D01*
X137082795Y-53009744D01*
X137004774Y-53198102D01*
X136965000Y-53398061D01*
X133092582Y-53398061D01*
X133053937Y-53340226D01*
X132909774Y-53196063D01*
X132740256Y-53082795D01*
X132551898Y-53004774D01*
X132351939Y-52965000D01*
X132148061Y-52965000D01*
X131948102Y-53004774D01*
X131759744Y-53082795D01*
X131590226Y-53196063D01*
X131446063Y-53340226D01*
X131375000Y-53446580D01*
X131303937Y-53340226D01*
X131159774Y-53196063D01*
X130990256Y-53082795D01*
X130801898Y-53004774D01*
X130601939Y-52965000D01*
X130398061Y-52965000D01*
X130198102Y-53004774D01*
X130009744Y-53082795D01*
X129840226Y-53196063D01*
X129696063Y-53340226D01*
X129582795Y-53509744D01*
X129504774Y-53698102D01*
X129465000Y-53898061D01*
X103488072Y-53898061D01*
X103488072Y-53150000D01*
X103475812Y-53025518D01*
X103439502Y-52905820D01*
X103380537Y-52795506D01*
X103301185Y-52698815D01*
X103204494Y-52619463D01*
X103094180Y-52560498D01*
X102974482Y-52524188D01*
X102850000Y-52511928D01*
X101150000Y-52511928D01*
X101025518Y-52524188D01*
X100905820Y-52560498D01*
X100795506Y-52619463D01*
X100698815Y-52698815D01*
X100660000Y-52746111D01*
X100660000Y-50660000D01*
X107278614Y-50660000D01*
X107272629Y-50668957D01*
%TD*%
M02*
