%TF.GenerationSoftware,KiCad,Pcbnew,(5.0.2)-1*%
%TF.CreationDate,2020-07-31T09:38:14+02:00*%
%TF.ProjectId,Multimeter_Watch_Board_V1,4d756c74-696d-4657-9465-725f57617463,rev?*%
%TF.SameCoordinates,Original*%
%TF.FileFunction,Legend,Bot*%
%TF.FilePolarity,Positive*%
%FSLAX46Y46*%
G04 Gerber Fmt 4.6, Leading zero omitted, Abs format (unit mm)*
G04 Created by KiCad (PCBNEW (5.0.2)-1) date 31.7.2020 9:38:14*
%MOMM*%
%LPD*%
G01*
G04 APERTURE LIST*
%ADD10C,0.150000*%
%ADD11C,0.120000*%
G04 APERTURE END LIST*
D10*
X151958333Y-66152380D02*
X151625000Y-67152380D01*
X151291666Y-66152380D01*
X150386904Y-67057142D02*
X150434523Y-67104761D01*
X150577380Y-67152380D01*
X150672619Y-67152380D01*
X150815476Y-67104761D01*
X150910714Y-67009523D01*
X150958333Y-66914285D01*
X151005952Y-66723809D01*
X151005952Y-66580952D01*
X150958333Y-66390476D01*
X150910714Y-66295238D01*
X150815476Y-66200000D01*
X150672619Y-66152380D01*
X150577380Y-66152380D01*
X150434523Y-66200000D01*
X150386904Y-66247619D01*
X149386904Y-67057142D02*
X149434523Y-67104761D01*
X149577380Y-67152380D01*
X149672619Y-67152380D01*
X149815476Y-67104761D01*
X149910714Y-67009523D01*
X149958333Y-66914285D01*
X150005952Y-66723809D01*
X150005952Y-66580952D01*
X149958333Y-66390476D01*
X149910714Y-66295238D01*
X149815476Y-66200000D01*
X149672619Y-66152380D01*
X149577380Y-66152380D01*
X149434523Y-66200000D01*
X149386904Y-66247619D01*
X148244047Y-66104761D02*
X149101190Y-67390476D01*
X147958333Y-66247619D02*
X147910714Y-66200000D01*
X147815476Y-66152380D01*
X147577380Y-66152380D01*
X147482142Y-66200000D01*
X147434523Y-66247619D01*
X147386904Y-66342857D01*
X147386904Y-66438095D01*
X147434523Y-66580952D01*
X148005952Y-67152380D01*
X147386904Y-67152380D01*
X150386904Y-61120000D02*
X150482142Y-61072380D01*
X150625000Y-61072380D01*
X150767857Y-61120000D01*
X150863095Y-61215238D01*
X150910714Y-61310476D01*
X150958333Y-61500952D01*
X150958333Y-61643809D01*
X150910714Y-61834285D01*
X150863095Y-61929523D01*
X150767857Y-62024761D01*
X150625000Y-62072380D01*
X150529761Y-62072380D01*
X150386904Y-62024761D01*
X150339285Y-61977142D01*
X150339285Y-61643809D01*
X150529761Y-61643809D01*
X149910714Y-62072380D02*
X149910714Y-61072380D01*
X149339285Y-62072380D01*
X149339285Y-61072380D01*
X148863095Y-62072380D02*
X148863095Y-61072380D01*
X148625000Y-61072380D01*
X148482142Y-61120000D01*
X148386904Y-61215238D01*
X148339285Y-61310476D01*
X148291666Y-61500952D01*
X148291666Y-61643809D01*
X148339285Y-61834285D01*
X148386904Y-61929523D01*
X148482142Y-62024761D01*
X148625000Y-62072380D01*
X148863095Y-62072380D01*
X150863095Y-59532380D02*
X150863095Y-58532380D01*
X150482142Y-58532380D01*
X150386904Y-58580000D01*
X150339285Y-58627619D01*
X150291666Y-58722857D01*
X150291666Y-58865714D01*
X150339285Y-58960952D01*
X150386904Y-59008571D01*
X150482142Y-59056190D01*
X150863095Y-59056190D01*
X149529761Y-59008571D02*
X149386904Y-59056190D01*
X149339285Y-59103809D01*
X149291666Y-59199047D01*
X149291666Y-59341904D01*
X149339285Y-59437142D01*
X149386904Y-59484761D01*
X149482142Y-59532380D01*
X149863095Y-59532380D01*
X149863095Y-58532380D01*
X149529761Y-58532380D01*
X149434523Y-58580000D01*
X149386904Y-58627619D01*
X149339285Y-58722857D01*
X149339285Y-58818095D01*
X149386904Y-58913333D01*
X149434523Y-58960952D01*
X149529761Y-59008571D01*
X149863095Y-59008571D01*
X148434523Y-58532380D02*
X148625000Y-58532380D01*
X148720238Y-58580000D01*
X148767857Y-58627619D01*
X148863095Y-58770476D01*
X148910714Y-58960952D01*
X148910714Y-59341904D01*
X148863095Y-59437142D01*
X148815476Y-59484761D01*
X148720238Y-59532380D01*
X148529761Y-59532380D01*
X148434523Y-59484761D01*
X148386904Y-59437142D01*
X148339285Y-59341904D01*
X148339285Y-59103809D01*
X148386904Y-59008571D01*
X148434523Y-58960952D01*
X148529761Y-58913333D01*
X148720238Y-58913333D01*
X148815476Y-58960952D01*
X148863095Y-59008571D01*
X148910714Y-59103809D01*
X150863095Y-56992380D02*
X150863095Y-55992380D01*
X150482142Y-55992380D01*
X150386904Y-56040000D01*
X150339285Y-56087619D01*
X150291666Y-56182857D01*
X150291666Y-56325714D01*
X150339285Y-56420952D01*
X150386904Y-56468571D01*
X150482142Y-56516190D01*
X150863095Y-56516190D01*
X149529761Y-56468571D02*
X149386904Y-56516190D01*
X149339285Y-56563809D01*
X149291666Y-56659047D01*
X149291666Y-56801904D01*
X149339285Y-56897142D01*
X149386904Y-56944761D01*
X149482142Y-56992380D01*
X149863095Y-56992380D01*
X149863095Y-55992380D01*
X149529761Y-55992380D01*
X149434523Y-56040000D01*
X149386904Y-56087619D01*
X149339285Y-56182857D01*
X149339285Y-56278095D01*
X149386904Y-56373333D01*
X149434523Y-56420952D01*
X149529761Y-56468571D01*
X149863095Y-56468571D01*
X148958333Y-55992380D02*
X148291666Y-55992380D01*
X148720238Y-56992380D01*
X154133333Y-51547380D02*
X153800000Y-52547380D01*
X153466666Y-51547380D01*
X152561904Y-52452142D02*
X152609523Y-52499761D01*
X152752380Y-52547380D01*
X152847619Y-52547380D01*
X152990476Y-52499761D01*
X153085714Y-52404523D01*
X153133333Y-52309285D01*
X153180952Y-52118809D01*
X153180952Y-51975952D01*
X153133333Y-51785476D01*
X153085714Y-51690238D01*
X152990476Y-51595000D01*
X152847619Y-51547380D01*
X152752380Y-51547380D01*
X152609523Y-51595000D01*
X152561904Y-51642619D01*
X151561904Y-52452142D02*
X151609523Y-52499761D01*
X151752380Y-52547380D01*
X151847619Y-52547380D01*
X151990476Y-52499761D01*
X152085714Y-52404523D01*
X152133333Y-52309285D01*
X152180952Y-52118809D01*
X152180952Y-51975952D01*
X152133333Y-51785476D01*
X152085714Y-51690238D01*
X151990476Y-51595000D01*
X151847619Y-51547380D01*
X151752380Y-51547380D01*
X151609523Y-51595000D01*
X151561904Y-51642619D01*
X151745580Y-69685761D02*
X151745580Y-68685761D01*
X151507484Y-68685761D01*
X151364627Y-68733381D01*
X151269389Y-68828619D01*
X151221770Y-68923857D01*
X151174151Y-69114333D01*
X151174151Y-69257190D01*
X151221770Y-69447666D01*
X151269389Y-69542904D01*
X151364627Y-69638142D01*
X151507484Y-69685761D01*
X151745580Y-69685761D01*
X150793199Y-69400047D02*
X150317008Y-69400047D01*
X150888437Y-69685761D02*
X150555103Y-68685761D01*
X150221770Y-69685761D01*
X149317008Y-69590523D02*
X149364627Y-69638142D01*
X149507484Y-69685761D01*
X149602722Y-69685761D01*
X149745580Y-69638142D01*
X149840818Y-69542904D01*
X149888437Y-69447666D01*
X149936056Y-69257190D01*
X149936056Y-69114333D01*
X149888437Y-68923857D01*
X149840818Y-68828619D01*
X149745580Y-68733381D01*
X149602722Y-68685761D01*
X149507484Y-68685761D01*
X149364627Y-68733381D01*
X149317008Y-68781000D01*
X147936056Y-68685761D02*
X147745580Y-68685761D01*
X147650341Y-68733381D01*
X147555103Y-68828619D01*
X147507484Y-69019095D01*
X147507484Y-69352428D01*
X147555103Y-69542904D01*
X147650341Y-69638142D01*
X147745580Y-69685761D01*
X147936056Y-69685761D01*
X148031294Y-69638142D01*
X148126532Y-69542904D01*
X148174151Y-69352428D01*
X148174151Y-69019095D01*
X148126532Y-68828619D01*
X148031294Y-68733381D01*
X147936056Y-68685761D01*
X147078913Y-68685761D02*
X147078913Y-69495285D01*
X147031294Y-69590523D01*
X146983675Y-69638142D01*
X146888437Y-69685761D01*
X146697960Y-69685761D01*
X146602722Y-69638142D01*
X146555103Y-69590523D01*
X146507484Y-69495285D01*
X146507484Y-68685761D01*
X146174151Y-68685761D02*
X145602722Y-68685761D01*
X145888437Y-69685761D02*
X145888437Y-68685761D01*
X150983351Y-64608771D02*
X151316685Y-64132581D01*
X151554780Y-64608771D02*
X151554780Y-63608771D01*
X151173828Y-63608771D01*
X151078590Y-63656391D01*
X151030971Y-63704010D01*
X150983351Y-63799248D01*
X150983351Y-63942105D01*
X151030971Y-64037343D01*
X151078590Y-64084962D01*
X151173828Y-64132581D01*
X151554780Y-64132581D01*
X150554780Y-64084962D02*
X150221447Y-64084962D01*
X150078590Y-64608771D02*
X150554780Y-64608771D01*
X150554780Y-63608771D01*
X150078590Y-63608771D01*
X149697637Y-64561152D02*
X149554780Y-64608771D01*
X149316685Y-64608771D01*
X149221447Y-64561152D01*
X149173828Y-64513533D01*
X149126209Y-64418295D01*
X149126209Y-64323057D01*
X149173828Y-64227819D01*
X149221447Y-64180200D01*
X149316685Y-64132581D01*
X149507161Y-64084962D01*
X149602399Y-64037343D01*
X149650018Y-63989724D01*
X149697637Y-63894486D01*
X149697637Y-63799248D01*
X149650018Y-63704010D01*
X149602399Y-63656391D01*
X149507161Y-63608771D01*
X149269066Y-63608771D01*
X149126209Y-63656391D01*
X148697637Y-64084962D02*
X148364304Y-64084962D01*
X148221447Y-64608771D02*
X148697637Y-64608771D01*
X148697637Y-63608771D01*
X148221447Y-63608771D01*
X147935732Y-63608771D02*
X147364304Y-63608771D01*
X147650018Y-64608771D02*
X147650018Y-63608771D01*
X151815476Y-71946666D02*
X151339285Y-71946666D01*
X151910714Y-72232380D02*
X151577380Y-71232380D01*
X151244047Y-72232380D01*
X150910714Y-72232380D02*
X150910714Y-71232380D01*
X150672619Y-71232380D01*
X150529761Y-71280000D01*
X150434523Y-71375238D01*
X150386904Y-71470476D01*
X150339285Y-71660952D01*
X150339285Y-71803809D01*
X150386904Y-71994285D01*
X150434523Y-72089523D01*
X150529761Y-72184761D01*
X150672619Y-72232380D01*
X150910714Y-72232380D01*
X149339285Y-72137142D02*
X149386904Y-72184761D01*
X149529761Y-72232380D01*
X149625000Y-72232380D01*
X149767857Y-72184761D01*
X149863095Y-72089523D01*
X149910714Y-71994285D01*
X149958333Y-71803809D01*
X149958333Y-71660952D01*
X149910714Y-71470476D01*
X149863095Y-71375238D01*
X149767857Y-71280000D01*
X149625000Y-71232380D01*
X149529761Y-71232380D01*
X149386904Y-71280000D01*
X149339285Y-71327619D01*
X148386904Y-72232380D02*
X148958333Y-72232380D01*
X148672619Y-72232380D02*
X148672619Y-71232380D01*
X148767857Y-71375238D01*
X148863095Y-71470476D01*
X148958333Y-71518095D01*
X147434523Y-72232380D02*
X148005952Y-72232380D01*
X147720238Y-72232380D02*
X147720238Y-71232380D01*
X147815476Y-71375238D01*
X147910714Y-71470476D01*
X148005952Y-71518095D01*
X151339285Y-74486666D02*
X150863095Y-74486666D01*
X151434523Y-74772380D02*
X151101190Y-73772380D01*
X150767857Y-74772380D01*
X150434523Y-74772380D02*
X150434523Y-73772380D01*
X150196428Y-73772380D01*
X150053571Y-73820000D01*
X149958333Y-73915238D01*
X149910714Y-74010476D01*
X149863095Y-74200952D01*
X149863095Y-74343809D01*
X149910714Y-74534285D01*
X149958333Y-74629523D01*
X150053571Y-74724761D01*
X150196428Y-74772380D01*
X150434523Y-74772380D01*
X148863095Y-74677142D02*
X148910714Y-74724761D01*
X149053571Y-74772380D01*
X149148809Y-74772380D01*
X149291666Y-74724761D01*
X149386904Y-74629523D01*
X149434523Y-74534285D01*
X149482142Y-74343809D01*
X149482142Y-74200952D01*
X149434523Y-74010476D01*
X149386904Y-73915238D01*
X149291666Y-73820000D01*
X149148809Y-73772380D01*
X149053571Y-73772380D01*
X148910714Y-73820000D01*
X148863095Y-73867619D01*
X148005952Y-73772380D02*
X148196428Y-73772380D01*
X148291666Y-73820000D01*
X148339285Y-73867619D01*
X148434523Y-74010476D01*
X148482142Y-74200952D01*
X148482142Y-74581904D01*
X148434523Y-74677142D01*
X148386904Y-74724761D01*
X148291666Y-74772380D01*
X148101190Y-74772380D01*
X148005952Y-74724761D01*
X147958333Y-74677142D01*
X147910714Y-74581904D01*
X147910714Y-74343809D01*
X147958333Y-74248571D01*
X148005952Y-74200952D01*
X148101190Y-74153333D01*
X148291666Y-74153333D01*
X148386904Y-74200952D01*
X148434523Y-74248571D01*
X148482142Y-74343809D01*
X150815476Y-77264761D02*
X150672619Y-77312380D01*
X150434523Y-77312380D01*
X150339285Y-77264761D01*
X150291666Y-77217142D01*
X150244047Y-77121904D01*
X150244047Y-77026666D01*
X150291666Y-76931428D01*
X150339285Y-76883809D01*
X150434523Y-76836190D01*
X150625000Y-76788571D01*
X150720238Y-76740952D01*
X150767857Y-76693333D01*
X150815476Y-76598095D01*
X150815476Y-76502857D01*
X150767857Y-76407619D01*
X150720238Y-76360000D01*
X150625000Y-76312380D01*
X150386904Y-76312380D01*
X150244047Y-76360000D01*
X149244047Y-77217142D02*
X149291666Y-77264761D01*
X149434523Y-77312380D01*
X149529761Y-77312380D01*
X149672619Y-77264761D01*
X149767857Y-77169523D01*
X149815476Y-77074285D01*
X149863095Y-76883809D01*
X149863095Y-76740952D01*
X149815476Y-76550476D01*
X149767857Y-76455238D01*
X149672619Y-76360000D01*
X149529761Y-76312380D01*
X149434523Y-76312380D01*
X149291666Y-76360000D01*
X149244047Y-76407619D01*
X148339285Y-77312380D02*
X148815476Y-77312380D01*
X148815476Y-76312380D01*
X150839285Y-79804761D02*
X150696428Y-79852380D01*
X150458333Y-79852380D01*
X150363095Y-79804761D01*
X150315476Y-79757142D01*
X150267857Y-79661904D01*
X150267857Y-79566666D01*
X150315476Y-79471428D01*
X150363095Y-79423809D01*
X150458333Y-79376190D01*
X150648809Y-79328571D01*
X150744047Y-79280952D01*
X150791666Y-79233333D01*
X150839285Y-79138095D01*
X150839285Y-79042857D01*
X150791666Y-78947619D01*
X150744047Y-78900000D01*
X150648809Y-78852380D01*
X150410714Y-78852380D01*
X150267857Y-78900000D01*
X149839285Y-79852380D02*
X149839285Y-78852380D01*
X149601190Y-78852380D01*
X149458333Y-78900000D01*
X149363095Y-78995238D01*
X149315476Y-79090476D01*
X149267857Y-79280952D01*
X149267857Y-79423809D01*
X149315476Y-79614285D01*
X149363095Y-79709523D01*
X149458333Y-79804761D01*
X149601190Y-79852380D01*
X149839285Y-79852380D01*
X148886904Y-79566666D02*
X148410714Y-79566666D01*
X148982142Y-79852380D02*
X148648809Y-78852380D01*
X148315476Y-79852380D01*
X150982142Y-82344761D02*
X150839285Y-82392380D01*
X150601190Y-82392380D01*
X150505952Y-82344761D01*
X150458333Y-82297142D01*
X150410714Y-82201904D01*
X150410714Y-82106666D01*
X150458333Y-82011428D01*
X150505952Y-81963809D01*
X150601190Y-81916190D01*
X150791666Y-81868571D01*
X150886904Y-81820952D01*
X150934523Y-81773333D01*
X150982142Y-81678095D01*
X150982142Y-81582857D01*
X150934523Y-81487619D01*
X150886904Y-81440000D01*
X150791666Y-81392380D01*
X150553571Y-81392380D01*
X150410714Y-81440000D01*
X150077380Y-81392380D02*
X149839285Y-82392380D01*
X149648809Y-81678095D01*
X149458333Y-82392380D01*
X149220238Y-81392380D01*
X148839285Y-82392380D02*
X148839285Y-81392380D01*
X148601190Y-81392380D01*
X148458333Y-81440000D01*
X148363095Y-81535238D01*
X148315476Y-81630476D01*
X148267857Y-81820952D01*
X148267857Y-81963809D01*
X148315476Y-82154285D01*
X148363095Y-82249523D01*
X148458333Y-82344761D01*
X148601190Y-82392380D01*
X148839285Y-82392380D01*
X150982142Y-84884761D02*
X150839285Y-84932380D01*
X150601190Y-84932380D01*
X150505952Y-84884761D01*
X150458333Y-84837142D01*
X150410714Y-84741904D01*
X150410714Y-84646666D01*
X150458333Y-84551428D01*
X150505952Y-84503809D01*
X150601190Y-84456190D01*
X150791666Y-84408571D01*
X150886904Y-84360952D01*
X150934523Y-84313333D01*
X150982142Y-84218095D01*
X150982142Y-84122857D01*
X150934523Y-84027619D01*
X150886904Y-83980000D01*
X150791666Y-83932380D01*
X150553571Y-83932380D01*
X150410714Y-83980000D01*
X150077380Y-83932380D02*
X149839285Y-84932380D01*
X149648809Y-84218095D01*
X149458333Y-84932380D01*
X149220238Y-83932380D01*
X148267857Y-84837142D02*
X148315476Y-84884761D01*
X148458333Y-84932380D01*
X148553571Y-84932380D01*
X148696428Y-84884761D01*
X148791666Y-84789523D01*
X148839285Y-84694285D01*
X148886904Y-84503809D01*
X148886904Y-84360952D01*
X148839285Y-84170476D01*
X148791666Y-84075238D01*
X148696428Y-83980000D01*
X148553571Y-83932380D01*
X148458333Y-83932380D01*
X148315476Y-83980000D01*
X148267857Y-84027619D01*
X150815476Y-87472380D02*
X150815476Y-86472380D01*
X150434523Y-86472380D01*
X150339285Y-86520000D01*
X150291666Y-86567619D01*
X150244047Y-86662857D01*
X150244047Y-86805714D01*
X150291666Y-86900952D01*
X150339285Y-86948571D01*
X150434523Y-86996190D01*
X150815476Y-86996190D01*
X149815476Y-86948571D02*
X149482142Y-86948571D01*
X149339285Y-87472380D02*
X149815476Y-87472380D01*
X149815476Y-86472380D01*
X149339285Y-86472380D01*
X148434523Y-86472380D02*
X148910714Y-86472380D01*
X148958333Y-86948571D01*
X148910714Y-86900952D01*
X148815476Y-86853333D01*
X148577380Y-86853333D01*
X148482142Y-86900952D01*
X148434523Y-86948571D01*
X148386904Y-87043809D01*
X148386904Y-87281904D01*
X148434523Y-87377142D01*
X148482142Y-87424761D01*
X148577380Y-87472380D01*
X148815476Y-87472380D01*
X148910714Y-87424761D01*
X148958333Y-87377142D01*
X150815476Y-89964761D02*
X150672619Y-90012380D01*
X150434523Y-90012380D01*
X150339285Y-89964761D01*
X150291666Y-89917142D01*
X150244047Y-89821904D01*
X150244047Y-89726666D01*
X150291666Y-89631428D01*
X150339285Y-89583809D01*
X150434523Y-89536190D01*
X150625000Y-89488571D01*
X150720238Y-89440952D01*
X150767857Y-89393333D01*
X150815476Y-89298095D01*
X150815476Y-89202857D01*
X150767857Y-89107619D01*
X150720238Y-89060000D01*
X150625000Y-89012380D01*
X150386904Y-89012380D01*
X150244047Y-89060000D01*
X149244047Y-89917142D02*
X149291666Y-89964761D01*
X149434523Y-90012380D01*
X149529761Y-90012380D01*
X149672619Y-89964761D01*
X149767857Y-89869523D01*
X149815476Y-89774285D01*
X149863095Y-89583809D01*
X149863095Y-89440952D01*
X149815476Y-89250476D01*
X149767857Y-89155238D01*
X149672619Y-89060000D01*
X149529761Y-89012380D01*
X149434523Y-89012380D01*
X149291666Y-89060000D01*
X149244047Y-89107619D01*
X148339285Y-90012380D02*
X148815476Y-90012380D01*
X148815476Y-89012380D01*
X150839285Y-92504761D02*
X150696428Y-92552380D01*
X150458333Y-92552380D01*
X150363095Y-92504761D01*
X150315476Y-92457142D01*
X150267857Y-92361904D01*
X150267857Y-92266666D01*
X150315476Y-92171428D01*
X150363095Y-92123809D01*
X150458333Y-92076190D01*
X150648809Y-92028571D01*
X150744047Y-91980952D01*
X150791666Y-91933333D01*
X150839285Y-91838095D01*
X150839285Y-91742857D01*
X150791666Y-91647619D01*
X150744047Y-91600000D01*
X150648809Y-91552380D01*
X150410714Y-91552380D01*
X150267857Y-91600000D01*
X149839285Y-92552380D02*
X149839285Y-91552380D01*
X149601190Y-91552380D01*
X149458333Y-91600000D01*
X149363095Y-91695238D01*
X149315476Y-91790476D01*
X149267857Y-91980952D01*
X149267857Y-92123809D01*
X149315476Y-92314285D01*
X149363095Y-92409523D01*
X149458333Y-92504761D01*
X149601190Y-92552380D01*
X149839285Y-92552380D01*
X148886904Y-92266666D02*
X148410714Y-92266666D01*
X148982142Y-92552380D02*
X148648809Y-91552380D01*
X148315476Y-92552380D01*
X106413095Y-92552380D02*
X106413095Y-91552380D01*
X106032142Y-91552380D01*
X105936904Y-91600000D01*
X105889285Y-91647619D01*
X105841666Y-91742857D01*
X105841666Y-91885714D01*
X105889285Y-91980952D01*
X105936904Y-92028571D01*
X106032142Y-92076190D01*
X106413095Y-92076190D01*
X105413095Y-92552380D02*
X105413095Y-91552380D01*
X105175000Y-91552380D01*
X105032142Y-91600000D01*
X104936904Y-91695238D01*
X104889285Y-91790476D01*
X104841666Y-91980952D01*
X104841666Y-92123809D01*
X104889285Y-92314285D01*
X104936904Y-92409523D01*
X105032142Y-92504761D01*
X105175000Y-92552380D01*
X105413095Y-92552380D01*
X104508333Y-91552380D02*
X103889285Y-91552380D01*
X104222619Y-91933333D01*
X104079761Y-91933333D01*
X103984523Y-91980952D01*
X103936904Y-92028571D01*
X103889285Y-92123809D01*
X103889285Y-92361904D01*
X103936904Y-92457142D01*
X103984523Y-92504761D01*
X104079761Y-92552380D01*
X104365476Y-92552380D01*
X104460714Y-92504761D01*
X104508333Y-92457142D01*
X106413095Y-90012380D02*
X106413095Y-89012380D01*
X106032142Y-89012380D01*
X105936904Y-89060000D01*
X105889285Y-89107619D01*
X105841666Y-89202857D01*
X105841666Y-89345714D01*
X105889285Y-89440952D01*
X105936904Y-89488571D01*
X106032142Y-89536190D01*
X106413095Y-89536190D01*
X105413095Y-90012380D02*
X105413095Y-89012380D01*
X105175000Y-89012380D01*
X105032142Y-89060000D01*
X104936904Y-89155238D01*
X104889285Y-89250476D01*
X104841666Y-89440952D01*
X104841666Y-89583809D01*
X104889285Y-89774285D01*
X104936904Y-89869523D01*
X105032142Y-89964761D01*
X105175000Y-90012380D01*
X105413095Y-90012380D01*
X104460714Y-89107619D02*
X104413095Y-89060000D01*
X104317857Y-89012380D01*
X104079761Y-89012380D01*
X103984523Y-89060000D01*
X103936904Y-89107619D01*
X103889285Y-89202857D01*
X103889285Y-89298095D01*
X103936904Y-89440952D01*
X104508333Y-90012380D01*
X103889285Y-90012380D01*
X106365476Y-87472380D02*
X106365476Y-86472380D01*
X105984523Y-86472380D01*
X105889285Y-86520000D01*
X105841666Y-86567619D01*
X105794047Y-86662857D01*
X105794047Y-86805714D01*
X105841666Y-86900952D01*
X105889285Y-86948571D01*
X105984523Y-86996190D01*
X106365476Y-86996190D01*
X105365476Y-86948571D02*
X105032142Y-86948571D01*
X104889285Y-87472380D02*
X105365476Y-87472380D01*
X105365476Y-86472380D01*
X104889285Y-86472380D01*
X104032142Y-86805714D02*
X104032142Y-87472380D01*
X104270238Y-86424761D02*
X104508333Y-87139047D01*
X103889285Y-87139047D01*
X105936904Y-83980000D02*
X106032142Y-83932380D01*
X106175000Y-83932380D01*
X106317857Y-83980000D01*
X106413095Y-84075238D01*
X106460714Y-84170476D01*
X106508333Y-84360952D01*
X106508333Y-84503809D01*
X106460714Y-84694285D01*
X106413095Y-84789523D01*
X106317857Y-84884761D01*
X106175000Y-84932380D01*
X106079761Y-84932380D01*
X105936904Y-84884761D01*
X105889285Y-84837142D01*
X105889285Y-84503809D01*
X106079761Y-84503809D01*
X105460714Y-84932380D02*
X105460714Y-83932380D01*
X104889285Y-84932380D01*
X104889285Y-83932380D01*
X104413095Y-84932380D02*
X104413095Y-83932380D01*
X104175000Y-83932380D01*
X104032142Y-83980000D01*
X103936904Y-84075238D01*
X103889285Y-84170476D01*
X103841666Y-84360952D01*
X103841666Y-84503809D01*
X103889285Y-84694285D01*
X103936904Y-84789523D01*
X104032142Y-84884761D01*
X104175000Y-84932380D01*
X104413095Y-84932380D01*
X105936904Y-81440000D02*
X106032142Y-81392380D01*
X106175000Y-81392380D01*
X106317857Y-81440000D01*
X106413095Y-81535238D01*
X106460714Y-81630476D01*
X106508333Y-81820952D01*
X106508333Y-81963809D01*
X106460714Y-82154285D01*
X106413095Y-82249523D01*
X106317857Y-82344761D01*
X106175000Y-82392380D01*
X106079761Y-82392380D01*
X105936904Y-82344761D01*
X105889285Y-82297142D01*
X105889285Y-81963809D01*
X106079761Y-81963809D01*
X105460714Y-82392380D02*
X105460714Y-81392380D01*
X104889285Y-82392380D01*
X104889285Y-81392380D01*
X104413095Y-82392380D02*
X104413095Y-81392380D01*
X104175000Y-81392380D01*
X104032142Y-81440000D01*
X103936904Y-81535238D01*
X103889285Y-81630476D01*
X103841666Y-81820952D01*
X103841666Y-81963809D01*
X103889285Y-82154285D01*
X103936904Y-82249523D01*
X104032142Y-82344761D01*
X104175000Y-82392380D01*
X104413095Y-82392380D01*
X105936904Y-78900000D02*
X106032142Y-78852380D01*
X106175000Y-78852380D01*
X106317857Y-78900000D01*
X106413095Y-78995238D01*
X106460714Y-79090476D01*
X106508333Y-79280952D01*
X106508333Y-79423809D01*
X106460714Y-79614285D01*
X106413095Y-79709523D01*
X106317857Y-79804761D01*
X106175000Y-79852380D01*
X106079761Y-79852380D01*
X105936904Y-79804761D01*
X105889285Y-79757142D01*
X105889285Y-79423809D01*
X106079761Y-79423809D01*
X105460714Y-79852380D02*
X105460714Y-78852380D01*
X104889285Y-79852380D01*
X104889285Y-78852380D01*
X104413095Y-79852380D02*
X104413095Y-78852380D01*
X104175000Y-78852380D01*
X104032142Y-78900000D01*
X103936904Y-78995238D01*
X103889285Y-79090476D01*
X103841666Y-79280952D01*
X103841666Y-79423809D01*
X103889285Y-79614285D01*
X103936904Y-79709523D01*
X104032142Y-79804761D01*
X104175000Y-79852380D01*
X104413095Y-79852380D01*
X105936904Y-76360000D02*
X106032142Y-76312380D01*
X106175000Y-76312380D01*
X106317857Y-76360000D01*
X106413095Y-76455238D01*
X106460714Y-76550476D01*
X106508333Y-76740952D01*
X106508333Y-76883809D01*
X106460714Y-77074285D01*
X106413095Y-77169523D01*
X106317857Y-77264761D01*
X106175000Y-77312380D01*
X106079761Y-77312380D01*
X105936904Y-77264761D01*
X105889285Y-77217142D01*
X105889285Y-76883809D01*
X106079761Y-76883809D01*
X105460714Y-77312380D02*
X105460714Y-76312380D01*
X104889285Y-77312380D01*
X104889285Y-76312380D01*
X104413095Y-77312380D02*
X104413095Y-76312380D01*
X104175000Y-76312380D01*
X104032142Y-76360000D01*
X103936904Y-76455238D01*
X103889285Y-76550476D01*
X103841666Y-76740952D01*
X103841666Y-76883809D01*
X103889285Y-77074285D01*
X103936904Y-77169523D01*
X104032142Y-77264761D01*
X104175000Y-77312380D01*
X104413095Y-77312380D01*
X105913095Y-74772380D02*
X105913095Y-73772380D01*
X105675000Y-73772380D01*
X105532142Y-73820000D01*
X105436904Y-73915238D01*
X105389285Y-74010476D01*
X105341666Y-74200952D01*
X105341666Y-74343809D01*
X105389285Y-74534285D01*
X105436904Y-74629523D01*
X105532142Y-74724761D01*
X105675000Y-74772380D01*
X105913095Y-74772380D01*
X104389285Y-74772380D02*
X104960714Y-74772380D01*
X104675000Y-74772380D02*
X104675000Y-73772380D01*
X104770238Y-73915238D01*
X104865476Y-74010476D01*
X104960714Y-74058095D01*
X105913095Y-72232380D02*
X105913095Y-71232380D01*
X105675000Y-71232380D01*
X105532142Y-71280000D01*
X105436904Y-71375238D01*
X105389285Y-71470476D01*
X105341666Y-71660952D01*
X105341666Y-71803809D01*
X105389285Y-71994285D01*
X105436904Y-72089523D01*
X105532142Y-72184761D01*
X105675000Y-72232380D01*
X105913095Y-72232380D01*
X104722619Y-71232380D02*
X104627380Y-71232380D01*
X104532142Y-71280000D01*
X104484523Y-71327619D01*
X104436904Y-71422857D01*
X104389285Y-71613333D01*
X104389285Y-71851428D01*
X104436904Y-72041904D01*
X104484523Y-72137142D01*
X104532142Y-72184761D01*
X104627380Y-72232380D01*
X104722619Y-72232380D01*
X104817857Y-72184761D01*
X104865476Y-72137142D01*
X104913095Y-72041904D01*
X104960714Y-71851428D01*
X104960714Y-71613333D01*
X104913095Y-71422857D01*
X104865476Y-71327619D01*
X104817857Y-71280000D01*
X104722619Y-71232380D01*
X106508333Y-68692380D02*
X106175000Y-69692380D01*
X105841666Y-68692380D01*
X104936904Y-69597142D02*
X104984523Y-69644761D01*
X105127380Y-69692380D01*
X105222619Y-69692380D01*
X105365476Y-69644761D01*
X105460714Y-69549523D01*
X105508333Y-69454285D01*
X105555952Y-69263809D01*
X105555952Y-69120952D01*
X105508333Y-68930476D01*
X105460714Y-68835238D01*
X105365476Y-68740000D01*
X105222619Y-68692380D01*
X105127380Y-68692380D01*
X104984523Y-68740000D01*
X104936904Y-68787619D01*
X103936904Y-69597142D02*
X103984523Y-69644761D01*
X104127380Y-69692380D01*
X104222619Y-69692380D01*
X104365476Y-69644761D01*
X104460714Y-69549523D01*
X104508333Y-69454285D01*
X104555952Y-69263809D01*
X104555952Y-69120952D01*
X104508333Y-68930476D01*
X104460714Y-68835238D01*
X104365476Y-68740000D01*
X104222619Y-68692380D01*
X104127380Y-68692380D01*
X103984523Y-68740000D01*
X103936904Y-68787619D01*
X106508333Y-66152380D02*
X106175000Y-67152380D01*
X105841666Y-66152380D01*
X104936904Y-67057142D02*
X104984523Y-67104761D01*
X105127380Y-67152380D01*
X105222619Y-67152380D01*
X105365476Y-67104761D01*
X105460714Y-67009523D01*
X105508333Y-66914285D01*
X105555952Y-66723809D01*
X105555952Y-66580952D01*
X105508333Y-66390476D01*
X105460714Y-66295238D01*
X105365476Y-66200000D01*
X105222619Y-66152380D01*
X105127380Y-66152380D01*
X104984523Y-66200000D01*
X104936904Y-66247619D01*
X103936904Y-67057142D02*
X103984523Y-67104761D01*
X104127380Y-67152380D01*
X104222619Y-67152380D01*
X104365476Y-67104761D01*
X104460714Y-67009523D01*
X104508333Y-66914285D01*
X104555952Y-66723809D01*
X104555952Y-66580952D01*
X104508333Y-66390476D01*
X104460714Y-66295238D01*
X104365476Y-66200000D01*
X104222619Y-66152380D01*
X104127380Y-66152380D01*
X103984523Y-66200000D01*
X103936904Y-66247619D01*
X106508333Y-63612380D02*
X106175000Y-64612380D01*
X105841666Y-63612380D01*
X104936904Y-64517142D02*
X104984523Y-64564761D01*
X105127380Y-64612380D01*
X105222619Y-64612380D01*
X105365476Y-64564761D01*
X105460714Y-64469523D01*
X105508333Y-64374285D01*
X105555952Y-64183809D01*
X105555952Y-64040952D01*
X105508333Y-63850476D01*
X105460714Y-63755238D01*
X105365476Y-63660000D01*
X105222619Y-63612380D01*
X105127380Y-63612380D01*
X104984523Y-63660000D01*
X104936904Y-63707619D01*
X103936904Y-64517142D02*
X103984523Y-64564761D01*
X104127380Y-64612380D01*
X104222619Y-64612380D01*
X104365476Y-64564761D01*
X104460714Y-64469523D01*
X104508333Y-64374285D01*
X104555952Y-64183809D01*
X104555952Y-64040952D01*
X104508333Y-63850476D01*
X104460714Y-63755238D01*
X104365476Y-63660000D01*
X104222619Y-63612380D01*
X104127380Y-63612380D01*
X103984523Y-63660000D01*
X103936904Y-63707619D01*
X106508333Y-61072380D02*
X106175000Y-62072380D01*
X105841666Y-61072380D01*
X104936904Y-61977142D02*
X104984523Y-62024761D01*
X105127380Y-62072380D01*
X105222619Y-62072380D01*
X105365476Y-62024761D01*
X105460714Y-61929523D01*
X105508333Y-61834285D01*
X105555952Y-61643809D01*
X105555952Y-61500952D01*
X105508333Y-61310476D01*
X105460714Y-61215238D01*
X105365476Y-61120000D01*
X105222619Y-61072380D01*
X105127380Y-61072380D01*
X104984523Y-61120000D01*
X104936904Y-61167619D01*
X103936904Y-61977142D02*
X103984523Y-62024761D01*
X104127380Y-62072380D01*
X104222619Y-62072380D01*
X104365476Y-62024761D01*
X104460714Y-61929523D01*
X104508333Y-61834285D01*
X104555952Y-61643809D01*
X104555952Y-61500952D01*
X104508333Y-61310476D01*
X104460714Y-61215238D01*
X104365476Y-61120000D01*
X104222619Y-61072380D01*
X104127380Y-61072380D01*
X103984523Y-61120000D01*
X103936904Y-61167619D01*
X106413095Y-59532380D02*
X106413095Y-58532380D01*
X106032142Y-58532380D01*
X105936904Y-58580000D01*
X105889285Y-58627619D01*
X105841666Y-58722857D01*
X105841666Y-58865714D01*
X105889285Y-58960952D01*
X105936904Y-59008571D01*
X106032142Y-59056190D01*
X106413095Y-59056190D01*
X105413095Y-59532380D02*
X105413095Y-58532380D01*
X105175000Y-58532380D01*
X105032142Y-58580000D01*
X104936904Y-58675238D01*
X104889285Y-58770476D01*
X104841666Y-58960952D01*
X104841666Y-59103809D01*
X104889285Y-59294285D01*
X104936904Y-59389523D01*
X105032142Y-59484761D01*
X105175000Y-59532380D01*
X105413095Y-59532380D01*
X103936904Y-58532380D02*
X104413095Y-58532380D01*
X104460714Y-59008571D01*
X104413095Y-58960952D01*
X104317857Y-58913333D01*
X104079761Y-58913333D01*
X103984523Y-58960952D01*
X103936904Y-59008571D01*
X103889285Y-59103809D01*
X103889285Y-59341904D01*
X103936904Y-59437142D01*
X103984523Y-59484761D01*
X104079761Y-59532380D01*
X104317857Y-59532380D01*
X104413095Y-59484761D01*
X104460714Y-59437142D01*
X106413095Y-56992380D02*
X106413095Y-55992380D01*
X106032142Y-55992380D01*
X105936904Y-56040000D01*
X105889285Y-56087619D01*
X105841666Y-56182857D01*
X105841666Y-56325714D01*
X105889285Y-56420952D01*
X105936904Y-56468571D01*
X106032142Y-56516190D01*
X106413095Y-56516190D01*
X105413095Y-56992380D02*
X105413095Y-55992380D01*
X105175000Y-55992380D01*
X105032142Y-56040000D01*
X104936904Y-56135238D01*
X104889285Y-56230476D01*
X104841666Y-56420952D01*
X104841666Y-56563809D01*
X104889285Y-56754285D01*
X104936904Y-56849523D01*
X105032142Y-56944761D01*
X105175000Y-56992380D01*
X105413095Y-56992380D01*
X103984523Y-55992380D02*
X104175000Y-55992380D01*
X104270238Y-56040000D01*
X104317857Y-56087619D01*
X104413095Y-56230476D01*
X104460714Y-56420952D01*
X104460714Y-56801904D01*
X104413095Y-56897142D01*
X104365476Y-56944761D01*
X104270238Y-56992380D01*
X104079761Y-56992380D01*
X103984523Y-56944761D01*
X103936904Y-56897142D01*
X103889285Y-56801904D01*
X103889285Y-56563809D01*
X103936904Y-56468571D01*
X103984523Y-56420952D01*
X104079761Y-56373333D01*
X104270238Y-56373333D01*
X104365476Y-56420952D01*
X104413095Y-56468571D01*
X104460714Y-56563809D01*
X105936904Y-53500000D02*
X106032142Y-53452380D01*
X106175000Y-53452380D01*
X106317857Y-53500000D01*
X106413095Y-53595238D01*
X106460714Y-53690476D01*
X106508333Y-53880952D01*
X106508333Y-54023809D01*
X106460714Y-54214285D01*
X106413095Y-54309523D01*
X106317857Y-54404761D01*
X106175000Y-54452380D01*
X106079761Y-54452380D01*
X105936904Y-54404761D01*
X105889285Y-54357142D01*
X105889285Y-54023809D01*
X106079761Y-54023809D01*
X105460714Y-54452380D02*
X105460714Y-53452380D01*
X104889285Y-54452380D01*
X104889285Y-53452380D01*
X104413095Y-54452380D02*
X104413095Y-53452380D01*
X104175000Y-53452380D01*
X104032142Y-53500000D01*
X103936904Y-53595238D01*
X103889285Y-53690476D01*
X103841666Y-53880952D01*
X103841666Y-54023809D01*
X103889285Y-54214285D01*
X103936904Y-54309523D01*
X104032142Y-54404761D01*
X104175000Y-54452380D01*
X104413095Y-54452380D01*
D11*
%TO.C,R18*%
X147713749Y-55710000D02*
X148236253Y-55710000D01*
X147713749Y-54290000D02*
X148236253Y-54290000D01*
%TO.C,R17*%
X139286251Y-54290000D02*
X138763747Y-54290000D01*
X139286251Y-55710000D02*
X138763747Y-55710000D01*
%TO.C,C5*%
X145713748Y-57710000D02*
X146236252Y-57710000D01*
X145713748Y-56290000D02*
X146236252Y-56290000D01*
%TO.C,C4*%
X141236252Y-56290000D02*
X140713748Y-56290000D01*
X141236252Y-57710000D02*
X140713748Y-57710000D01*
%TO.C,R14*%
X142246267Y-51690000D02*
X141903733Y-51690000D01*
X142246267Y-52710000D02*
X141903733Y-52710000D01*
%TO.C,R13*%
X145646266Y-51690000D02*
X145303732Y-51690000D01*
X145646266Y-52710000D02*
X145303732Y-52710000D01*
%TO.C,R18*%
D10*
X148642857Y-53952380D02*
X148976190Y-53476190D01*
X149214285Y-53952380D02*
X149214285Y-52952380D01*
X148833333Y-52952380D01*
X148738095Y-53000000D01*
X148690476Y-53047619D01*
X148642857Y-53142857D01*
X148642857Y-53285714D01*
X148690476Y-53380952D01*
X148738095Y-53428571D01*
X148833333Y-53476190D01*
X149214285Y-53476190D01*
X147690476Y-53952380D02*
X148261904Y-53952380D01*
X147976190Y-53952380D02*
X147976190Y-52952380D01*
X148071428Y-53095238D01*
X148166666Y-53190476D01*
X148261904Y-53238095D01*
X147119047Y-53380952D02*
X147214285Y-53333333D01*
X147261904Y-53285714D01*
X147309523Y-53190476D01*
X147309523Y-53142857D01*
X147261904Y-53047619D01*
X147214285Y-53000000D01*
X147119047Y-52952380D01*
X146928571Y-52952380D01*
X146833333Y-53000000D01*
X146785714Y-53047619D01*
X146738095Y-53142857D01*
X146738095Y-53190476D01*
X146785714Y-53285714D01*
X146833333Y-53333333D01*
X146928571Y-53380952D01*
X147119047Y-53380952D01*
X147214285Y-53428571D01*
X147261904Y-53476190D01*
X147309523Y-53571428D01*
X147309523Y-53761904D01*
X147261904Y-53857142D01*
X147214285Y-53904761D01*
X147119047Y-53952380D01*
X146928571Y-53952380D01*
X146833333Y-53904761D01*
X146785714Y-53857142D01*
X146738095Y-53761904D01*
X146738095Y-53571428D01*
X146785714Y-53476190D01*
X146833333Y-53428571D01*
X146928571Y-53380952D01*
%TO.C,R17*%
X139667856Y-53802380D02*
X140001189Y-53326190D01*
X140239284Y-53802380D02*
X140239284Y-52802380D01*
X139858332Y-52802380D01*
X139763094Y-52850000D01*
X139715475Y-52897619D01*
X139667856Y-52992857D01*
X139667856Y-53135714D01*
X139715475Y-53230952D01*
X139763094Y-53278571D01*
X139858332Y-53326190D01*
X140239284Y-53326190D01*
X138715475Y-53802380D02*
X139286903Y-53802380D01*
X139001189Y-53802380D02*
X139001189Y-52802380D01*
X139096427Y-52945238D01*
X139191665Y-53040476D01*
X139286903Y-53088095D01*
X138382141Y-52802380D02*
X137715475Y-52802380D01*
X138144046Y-53802380D01*
%TO.C,C5*%
X145366666Y-55857142D02*
X145414285Y-55904761D01*
X145557142Y-55952380D01*
X145652380Y-55952380D01*
X145795238Y-55904761D01*
X145890476Y-55809523D01*
X145938095Y-55714285D01*
X145985714Y-55523809D01*
X145985714Y-55380952D01*
X145938095Y-55190476D01*
X145890476Y-55095238D01*
X145795238Y-55000000D01*
X145652380Y-54952380D01*
X145557142Y-54952380D01*
X145414285Y-55000000D01*
X145366666Y-55047619D01*
X144461904Y-54952380D02*
X144938095Y-54952380D01*
X144985714Y-55428571D01*
X144938095Y-55380952D01*
X144842857Y-55333333D01*
X144604761Y-55333333D01*
X144509523Y-55380952D01*
X144461904Y-55428571D01*
X144414285Y-55523809D01*
X144414285Y-55761904D01*
X144461904Y-55857142D01*
X144509523Y-55904761D01*
X144604761Y-55952380D01*
X144842857Y-55952380D01*
X144938095Y-55904761D01*
X144985714Y-55857142D01*
%TO.C,C4*%
X142166666Y-55757142D02*
X142214285Y-55804761D01*
X142357142Y-55852380D01*
X142452380Y-55852380D01*
X142595238Y-55804761D01*
X142690476Y-55709523D01*
X142738095Y-55614285D01*
X142785714Y-55423809D01*
X142785714Y-55280952D01*
X142738095Y-55090476D01*
X142690476Y-54995238D01*
X142595238Y-54900000D01*
X142452380Y-54852380D01*
X142357142Y-54852380D01*
X142214285Y-54900000D01*
X142166666Y-54947619D01*
X141309523Y-55185714D02*
X141309523Y-55852380D01*
X141547619Y-54804761D02*
X141785714Y-55519047D01*
X141166666Y-55519047D01*
%TO.C,R14*%
X140142857Y-51452380D02*
X140476190Y-50976190D01*
X140714285Y-51452380D02*
X140714285Y-50452380D01*
X140333333Y-50452380D01*
X140238095Y-50500000D01*
X140190476Y-50547619D01*
X140142857Y-50642857D01*
X140142857Y-50785714D01*
X140190476Y-50880952D01*
X140238095Y-50928571D01*
X140333333Y-50976190D01*
X140714285Y-50976190D01*
X139190476Y-51452380D02*
X139761904Y-51452380D01*
X139476190Y-51452380D02*
X139476190Y-50452380D01*
X139571428Y-50595238D01*
X139666666Y-50690476D01*
X139761904Y-50738095D01*
X138333333Y-50785714D02*
X138333333Y-51452380D01*
X138571428Y-50404761D02*
X138809523Y-51119047D01*
X138190476Y-51119047D01*
%TO.C,R13*%
X148642857Y-51452380D02*
X148976190Y-50976190D01*
X149214285Y-51452380D02*
X149214285Y-50452380D01*
X148833333Y-50452380D01*
X148738095Y-50500000D01*
X148690476Y-50547619D01*
X148642857Y-50642857D01*
X148642857Y-50785714D01*
X148690476Y-50880952D01*
X148738095Y-50928571D01*
X148833333Y-50976190D01*
X149214285Y-50976190D01*
X147690476Y-51452380D02*
X148261904Y-51452380D01*
X147976190Y-51452380D02*
X147976190Y-50452380D01*
X148071428Y-50595238D01*
X148166666Y-50690476D01*
X148261904Y-50738095D01*
X147357142Y-50452380D02*
X146738095Y-50452380D01*
X147071428Y-50833333D01*
X146928571Y-50833333D01*
X146833333Y-50880952D01*
X146785714Y-50928571D01*
X146738095Y-51023809D01*
X146738095Y-51261904D01*
X146785714Y-51357142D01*
X146833333Y-51404761D01*
X146928571Y-51452380D01*
X147214285Y-51452380D01*
X147309523Y-51404761D01*
X147357142Y-51357142D01*
%TD*%
M02*
