%TF.GenerationSoftware,KiCad,Pcbnew,(5.0.2)-1*%
%TF.CreationDate,2020-07-31T09:38:14+02:00*%
%TF.ProjectId,Multimeter_Watch_Board_V1,4d756c74-696d-4657-9465-725f57617463,rev?*%
%TF.SameCoordinates,Original*%
%TF.FileFunction,Copper,L2,Inr*%
%TF.FilePolarity,Positive*%
%FSLAX46Y46*%
G04 Gerber Fmt 4.6, Leading zero omitted, Abs format (unit mm)*
G04 Created by KiCad (PCBNEW (5.0.2)-1) date 31.7.2020 9:38:14*
%MOMM*%
%LPD*%
G01*
G04 APERTURE LIST*
%TA.AperFunction,ViaPad*%
%ADD10O,1.700000X1.700000*%
%TD*%
%TA.AperFunction,ViaPad*%
%ADD11R,1.700000X1.700000*%
%TD*%
%TA.AperFunction,ViaPad*%
%ADD12O,0.800000X1.300000*%
%TD*%
%TA.AperFunction,Conductor*%
%ADD13C,0.100000*%
%TD*%
%TA.AperFunction,ViaPad*%
%ADD14C,0.800000*%
%TD*%
%TA.AperFunction,Conductor*%
%ADD15C,0.254000*%
%TD*%
G04 APERTURE END LIST*
D10*
%TO.N,/SDA*%
%TO.C,J4*%
X153000000Y-92100000D03*
%TO.N,/SCL*%
X153000000Y-89560000D03*
%TO.N,/PE5*%
X153000000Y-87020000D03*
%TO.N,/SWC*%
X153000000Y-84480000D03*
%TO.N,/SWD*%
X153000000Y-81940000D03*
%TO.N,/SDA*%
X153000000Y-79400000D03*
%TO.N,/SCL*%
X153000000Y-76860000D03*
%TO.N,/ADC6*%
X153000000Y-74320000D03*
%TO.N,/ADC11*%
X153000000Y-71780000D03*
%TO.N,/ADC3*%
X153000000Y-69240000D03*
%TO.N,/VCC_HALF*%
X153000000Y-66700000D03*
%TO.N,/RESET*%
X153000000Y-64160000D03*
%TO.N,/GND*%
X153000000Y-61620000D03*
%TO.N,/PB6*%
X153000000Y-59080000D03*
%TO.N,/PB7*%
X153000000Y-56540000D03*
D11*
%TO.N,/VCC*%
X153000000Y-54000000D03*
%TD*%
D12*
%TO.N,/GND*%
%TO.C,BT1*%
X144750000Y-60500000D03*
D13*
%TO.N,/VCC*%
G36*
X143719603Y-59850963D02*
X143739018Y-59853843D01*
X143758057Y-59858612D01*
X143776537Y-59865224D01*
X143794279Y-59873616D01*
X143811114Y-59883706D01*
X143826879Y-59895398D01*
X143841421Y-59908579D01*
X143854602Y-59923121D01*
X143866294Y-59938886D01*
X143876384Y-59955721D01*
X143884776Y-59973463D01*
X143891388Y-59991943D01*
X143896157Y-60010982D01*
X143899037Y-60030397D01*
X143900000Y-60050000D01*
X143900000Y-60950000D01*
X143899037Y-60969603D01*
X143896157Y-60989018D01*
X143891388Y-61008057D01*
X143884776Y-61026537D01*
X143876384Y-61044279D01*
X143866294Y-61061114D01*
X143854602Y-61076879D01*
X143841421Y-61091421D01*
X143826879Y-61104602D01*
X143811114Y-61116294D01*
X143794279Y-61126384D01*
X143776537Y-61134776D01*
X143758057Y-61141388D01*
X143739018Y-61146157D01*
X143719603Y-61149037D01*
X143700000Y-61150000D01*
X143300000Y-61150000D01*
X143280397Y-61149037D01*
X143260982Y-61146157D01*
X143241943Y-61141388D01*
X143223463Y-61134776D01*
X143205721Y-61126384D01*
X143188886Y-61116294D01*
X143173121Y-61104602D01*
X143158579Y-61091421D01*
X143145398Y-61076879D01*
X143133706Y-61061114D01*
X143123616Y-61044279D01*
X143115224Y-61026537D01*
X143108612Y-61008057D01*
X143103843Y-60989018D01*
X143100963Y-60969603D01*
X143100000Y-60950000D01*
X143100000Y-60050000D01*
X143100963Y-60030397D01*
X143103843Y-60010982D01*
X143108612Y-59991943D01*
X143115224Y-59973463D01*
X143123616Y-59955721D01*
X143133706Y-59938886D01*
X143145398Y-59923121D01*
X143158579Y-59908579D01*
X143173121Y-59895398D01*
X143188886Y-59883706D01*
X143205721Y-59873616D01*
X143223463Y-59865224D01*
X143241943Y-59858612D01*
X143260982Y-59853843D01*
X143280397Y-59850963D01*
X143300000Y-59850000D01*
X143700000Y-59850000D01*
X143719603Y-59850963D01*
X143719603Y-59850963D01*
G37*
D14*
X143500000Y-60500000D03*
%TD*%
D10*
%TO.N,/PD3*%
%TO.C,J5*%
X102000000Y-92100000D03*
%TO.N,/PD2*%
X102000000Y-89560000D03*
%TO.N,/PE4*%
X102000000Y-87020000D03*
%TO.N,/GND*%
X102000000Y-84480000D03*
X102000000Y-81940000D03*
X102000000Y-79400000D03*
X102000000Y-76860000D03*
%TO.N,/D1*%
X102000000Y-74320000D03*
%TO.N,/D0*%
X102000000Y-71780000D03*
%TO.N,/VCC*%
X102000000Y-69240000D03*
X102000000Y-66700000D03*
X102000000Y-64160000D03*
X102000000Y-61620000D03*
%TO.N,/PD5*%
X102000000Y-59080000D03*
%TO.N,/PD6*%
X102000000Y-56540000D03*
D11*
%TO.N,/GND*%
X102000000Y-54000000D03*
%TD*%
D14*
%TO.N,/ADC11*%
X134222266Y-71229425D03*
%TO.N,/ADC2*%
X138000000Y-53500000D03*
X130500000Y-54000000D03*
X114250000Y-75500000D03*
%TO.N,/ADC3*%
X132250000Y-54000000D03*
X112750000Y-75500000D03*
X139750000Y-61500000D03*
X146000000Y-63000000D03*
%TO.N,/RESET*%
X112000000Y-80400000D03*
%TO.N,/SDA*%
X113600000Y-79800000D03*
%TO.N,/SCL*%
X114531458Y-79068542D03*
%TO.N,/SWD*%
X120034000Y-71780000D03*
%TO.N,/ADC6*%
X134500000Y-74750000D03*
%TO.N,/SWC*%
X123400000Y-74400000D03*
%TO.N,/PB0*%
X123000000Y-70500000D03*
X130299998Y-79000000D03*
%TO.N,/VCC*%
X144500000Y-88000000D03*
X148971000Y-59436000D03*
X145800000Y-50800000D03*
X122200000Y-90200000D03*
X111500000Y-74000000D03*
%TO.N,/PE4*%
X119000000Y-87800000D03*
%TO.N,Net-(R16-Pad2)*%
X149000000Y-53500000D03*
%TO.N,/GND*%
X139000000Y-91500000D03*
X148941452Y-61184452D03*
X143500000Y-54500000D03*
X123400000Y-89000000D03*
X139000000Y-88500000D03*
X141000000Y-86500000D03*
%TO.N,Net-(R13-Pad2)*%
X143800000Y-53000000D03*
%TO.N,/PD7*%
X117500000Y-70500000D03*
X127527000Y-82067000D03*
%TO.N,/PD6*%
X127527004Y-83337000D03*
%TO.N,/PD5*%
X127145996Y-84353000D03*
%TO.N,/PB7*%
X141000000Y-66400000D03*
%TO.N,/PB6*%
X142200000Y-68200000D03*
%TO.N,/PE5*%
X126638000Y-87362010D03*
%TD*%
D15*
%TO.N,/GND*%
G36*
X107272629Y-50668957D02*
X107168225Y-50921011D01*
X107115000Y-51188589D01*
X107115000Y-51461411D01*
X107168225Y-51728989D01*
X107272629Y-51981043D01*
X107424201Y-52207886D01*
X107617114Y-52400799D01*
X107843957Y-52552371D01*
X108096011Y-52656775D01*
X108363589Y-52710000D01*
X108636411Y-52710000D01*
X108903989Y-52656775D01*
X109156043Y-52552371D01*
X109382886Y-52400799D01*
X109575799Y-52207886D01*
X109727371Y-51981043D01*
X109831775Y-51728989D01*
X109885000Y-51461411D01*
X109885000Y-51188589D01*
X109831775Y-50921011D01*
X109727371Y-50668957D01*
X109721386Y-50660000D01*
X119778614Y-50660000D01*
X119772629Y-50668957D01*
X119668225Y-50921011D01*
X119615000Y-51188589D01*
X119615000Y-51461411D01*
X119668225Y-51728989D01*
X119772629Y-51981043D01*
X119924201Y-52207886D01*
X120117114Y-52400799D01*
X120343957Y-52552371D01*
X120596011Y-52656775D01*
X120863589Y-52710000D01*
X121136411Y-52710000D01*
X121403989Y-52656775D01*
X121656043Y-52552371D01*
X121882886Y-52400799D01*
X122075799Y-52207886D01*
X122227371Y-51981043D01*
X122331775Y-51728989D01*
X122385000Y-51461411D01*
X122385000Y-51188589D01*
X122331775Y-50921011D01*
X122227371Y-50668957D01*
X122221386Y-50660000D01*
X129778614Y-50660000D01*
X129772629Y-50668957D01*
X129668225Y-50921011D01*
X129615000Y-51188589D01*
X129615000Y-51461411D01*
X129668225Y-51728989D01*
X129772629Y-51981043D01*
X129924201Y-52207886D01*
X130117114Y-52400799D01*
X130343957Y-52552371D01*
X130596011Y-52656775D01*
X130863589Y-52710000D01*
X131136411Y-52710000D01*
X131403989Y-52656775D01*
X131656043Y-52552371D01*
X131882886Y-52400799D01*
X132075799Y-52207886D01*
X132227371Y-51981043D01*
X132331775Y-51728989D01*
X132385000Y-51461411D01*
X132385000Y-51188589D01*
X132331775Y-50921011D01*
X132227371Y-50668957D01*
X132221386Y-50660000D01*
X135873000Y-50660000D01*
X135873000Y-58500000D01*
X135882667Y-58548601D01*
X135910197Y-58589803D01*
X137410197Y-60089803D01*
X137451399Y-60117333D01*
X137500000Y-60127000D01*
X142461928Y-60127000D01*
X142461928Y-60950000D01*
X142478031Y-61113500D01*
X142525722Y-61270716D01*
X142603169Y-61415608D01*
X142707394Y-61542606D01*
X142834392Y-61646831D01*
X142979284Y-61724278D01*
X143136500Y-61771969D01*
X143300000Y-61788072D01*
X143700000Y-61788072D01*
X143863500Y-61771969D01*
X144020716Y-61724278D01*
X144165608Y-61646831D01*
X144183985Y-61631749D01*
X144201840Y-61645255D01*
X144387028Y-61734994D01*
X144463877Y-61744666D01*
X144623000Y-61616998D01*
X144623000Y-60627000D01*
X144877000Y-60627000D01*
X144877000Y-61616998D01*
X145036123Y-61744666D01*
X145112972Y-61734994D01*
X145298160Y-61645255D01*
X145462283Y-61521112D01*
X145599033Y-61367336D01*
X145703155Y-61189836D01*
X145770648Y-60995433D01*
X145798918Y-60791599D01*
X145633762Y-60627000D01*
X144877000Y-60627000D01*
X144623000Y-60627000D01*
X144603000Y-60627000D01*
X144603000Y-60373000D01*
X144623000Y-60373000D01*
X144623000Y-60020110D01*
X144627000Y-60000000D01*
X144627000Y-59500000D01*
X144623000Y-59479890D01*
X144623000Y-59383002D01*
X144463877Y-59255334D01*
X144387028Y-59265006D01*
X144201840Y-59354745D01*
X144183985Y-59368251D01*
X144165608Y-59353169D01*
X144020716Y-59275722D01*
X143863500Y-59228031D01*
X143700000Y-59211928D01*
X143300000Y-59211928D01*
X143136500Y-59228031D01*
X142979284Y-59275722D01*
X142834392Y-59353169D01*
X142810228Y-59373000D01*
X138052606Y-59373000D01*
X136627000Y-57947394D01*
X136627000Y-53398061D01*
X136965000Y-53398061D01*
X136965000Y-53601939D01*
X137004774Y-53801898D01*
X137082795Y-53990256D01*
X137196063Y-54159774D01*
X137340226Y-54303937D01*
X137509744Y-54417205D01*
X137698102Y-54495226D01*
X137898061Y-54535000D01*
X138101939Y-54535000D01*
X138301898Y-54495226D01*
X138490256Y-54417205D01*
X138659774Y-54303937D01*
X138803937Y-54159774D01*
X138917205Y-53990256D01*
X138995226Y-53801898D01*
X139035000Y-53601939D01*
X139035000Y-53398061D01*
X138995226Y-53198102D01*
X138917205Y-53009744D01*
X138842582Y-52898061D01*
X142765000Y-52898061D01*
X142765000Y-53101939D01*
X142804774Y-53301898D01*
X142882795Y-53490256D01*
X142996063Y-53659774D01*
X143140226Y-53803937D01*
X143309744Y-53917205D01*
X143498102Y-53995226D01*
X143698061Y-54035000D01*
X143901939Y-54035000D01*
X144101898Y-53995226D01*
X144290256Y-53917205D01*
X144459774Y-53803937D01*
X144603937Y-53659774D01*
X144717205Y-53490256D01*
X144755393Y-53398061D01*
X147965000Y-53398061D01*
X147965000Y-53601939D01*
X148004774Y-53801898D01*
X148082795Y-53990256D01*
X148196063Y-54159774D01*
X148340226Y-54303937D01*
X148509744Y-54417205D01*
X148698102Y-54495226D01*
X148898061Y-54535000D01*
X149101939Y-54535000D01*
X149301898Y-54495226D01*
X149490256Y-54417205D01*
X149659774Y-54303937D01*
X149803937Y-54159774D01*
X149917205Y-53990256D01*
X149995226Y-53801898D01*
X150035000Y-53601939D01*
X150035000Y-53398061D01*
X149995226Y-53198102D01*
X149917205Y-53009744D01*
X149803937Y-52840226D01*
X149659774Y-52696063D01*
X149490256Y-52582795D01*
X149301898Y-52504774D01*
X149101939Y-52465000D01*
X148898061Y-52465000D01*
X148698102Y-52504774D01*
X148509744Y-52582795D01*
X148340226Y-52696063D01*
X148196063Y-52840226D01*
X148082795Y-53009744D01*
X148004774Y-53198102D01*
X147965000Y-53398061D01*
X144755393Y-53398061D01*
X144795226Y-53301898D01*
X144835000Y-53101939D01*
X144835000Y-52898061D01*
X144795226Y-52698102D01*
X144717205Y-52509744D01*
X144603937Y-52340226D01*
X144459774Y-52196063D01*
X144290256Y-52082795D01*
X144101898Y-52004774D01*
X143901939Y-51965000D01*
X143698061Y-51965000D01*
X143498102Y-52004774D01*
X143309744Y-52082795D01*
X143140226Y-52196063D01*
X142996063Y-52340226D01*
X142882795Y-52509744D01*
X142804774Y-52698102D01*
X142765000Y-52898061D01*
X138842582Y-52898061D01*
X138803937Y-52840226D01*
X138659774Y-52696063D01*
X138490256Y-52582795D01*
X138301898Y-52504774D01*
X138101939Y-52465000D01*
X137898061Y-52465000D01*
X137698102Y-52504774D01*
X137509744Y-52582795D01*
X137340226Y-52696063D01*
X137196063Y-52840226D01*
X137082795Y-53009744D01*
X137004774Y-53198102D01*
X136965000Y-53398061D01*
X136627000Y-53398061D01*
X136627000Y-50660000D01*
X144772571Y-50660000D01*
X144765000Y-50698061D01*
X144765000Y-50901939D01*
X144804774Y-51101898D01*
X144882795Y-51290256D01*
X144996063Y-51459774D01*
X145140226Y-51603937D01*
X145309744Y-51717205D01*
X145498102Y-51795226D01*
X145698061Y-51835000D01*
X145901939Y-51835000D01*
X146101898Y-51795226D01*
X146290256Y-51717205D01*
X146459774Y-51603937D01*
X146603937Y-51459774D01*
X146717205Y-51290256D01*
X146795226Y-51101898D01*
X146835000Y-50901939D01*
X146835000Y-50698061D01*
X146827429Y-50660000D01*
X151373000Y-50660000D01*
X151373000Y-57447394D01*
X149882776Y-58937618D01*
X149774937Y-58776226D01*
X149630774Y-58632063D01*
X149461256Y-58518795D01*
X149272898Y-58440774D01*
X149072939Y-58401000D01*
X148869061Y-58401000D01*
X148669102Y-58440774D01*
X148480744Y-58518795D01*
X148311226Y-58632063D01*
X148167063Y-58776226D01*
X148053795Y-58945744D01*
X147975774Y-59134102D01*
X147936000Y-59334061D01*
X147936000Y-59373000D01*
X145500000Y-59373000D01*
X145451399Y-59382667D01*
X145410197Y-59410197D01*
X145397195Y-59429656D01*
X145298160Y-59354745D01*
X145112972Y-59265006D01*
X145036123Y-59255334D01*
X144877000Y-59383002D01*
X144877000Y-60373000D01*
X145633762Y-60373000D01*
X145798918Y-60208401D01*
X145787628Y-60127000D01*
X148198289Y-60127000D01*
X148311226Y-60239937D01*
X148480744Y-60353205D01*
X148669102Y-60431226D01*
X148869061Y-60471000D01*
X149072939Y-60471000D01*
X149272898Y-60431226D01*
X149461256Y-60353205D01*
X149630774Y-60239937D01*
X149774937Y-60095774D01*
X149888205Y-59926256D01*
X149966226Y-59737898D01*
X149972314Y-59707292D01*
X152021544Y-57658062D01*
X152170986Y-57780706D01*
X152225791Y-57810000D01*
X152170986Y-57839294D01*
X151944866Y-58024866D01*
X151759294Y-58250986D01*
X151621401Y-58508966D01*
X151536487Y-58788889D01*
X151507815Y-59080000D01*
X151536487Y-59371111D01*
X151621401Y-59651034D01*
X151759294Y-59909014D01*
X151944866Y-60135134D01*
X152170986Y-60320706D01*
X152235523Y-60355201D01*
X152118645Y-60424822D01*
X151902412Y-60619731D01*
X151728359Y-60853080D01*
X151603175Y-61115901D01*
X151558524Y-61263110D01*
X151679845Y-61493000D01*
X152873000Y-61493000D01*
X152873000Y-61473000D01*
X153127000Y-61473000D01*
X153127000Y-61493000D01*
X153147000Y-61493000D01*
X153147000Y-61747000D01*
X153127000Y-61747000D01*
X153127000Y-61767000D01*
X152873000Y-61767000D01*
X152873000Y-61747000D01*
X151679845Y-61747000D01*
X151558524Y-61976890D01*
X151603175Y-62124099D01*
X151728359Y-62386920D01*
X151902412Y-62620269D01*
X152118645Y-62815178D01*
X152235523Y-62884799D01*
X152170986Y-62919294D01*
X151944866Y-63104866D01*
X151759294Y-63330986D01*
X151621401Y-63588966D01*
X151536487Y-63868889D01*
X151507815Y-64160000D01*
X151536487Y-64451111D01*
X151621401Y-64731034D01*
X151759294Y-64989014D01*
X151944866Y-65215134D01*
X152170986Y-65400706D01*
X152225791Y-65430000D01*
X152170986Y-65459294D01*
X151944866Y-65644866D01*
X151759294Y-65870986D01*
X151621401Y-66128966D01*
X151536487Y-66408889D01*
X151507815Y-66700000D01*
X151536487Y-66991111D01*
X151621401Y-67271034D01*
X151759294Y-67529014D01*
X151944866Y-67755134D01*
X152170986Y-67940706D01*
X152225791Y-67970000D01*
X152170986Y-67999294D01*
X151944866Y-68184866D01*
X151759294Y-68410986D01*
X151621401Y-68668966D01*
X151536487Y-68948889D01*
X151507815Y-69240000D01*
X151536487Y-69531111D01*
X151621401Y-69811034D01*
X151759294Y-70069014D01*
X151944866Y-70295134D01*
X152170986Y-70480706D01*
X152225791Y-70510000D01*
X152170986Y-70539294D01*
X151944866Y-70724866D01*
X151759294Y-70950986D01*
X151621401Y-71208966D01*
X151536487Y-71488889D01*
X151507815Y-71780000D01*
X151536487Y-72071111D01*
X151621401Y-72351034D01*
X151759294Y-72609014D01*
X151944866Y-72835134D01*
X152170986Y-73020706D01*
X152225791Y-73050000D01*
X152170986Y-73079294D01*
X151944866Y-73264866D01*
X151759294Y-73490986D01*
X151621401Y-73748966D01*
X151536487Y-74028889D01*
X151507815Y-74320000D01*
X151536487Y-74611111D01*
X151621401Y-74891034D01*
X151759294Y-75149014D01*
X151944866Y-75375134D01*
X152170986Y-75560706D01*
X152225791Y-75590000D01*
X152170986Y-75619294D01*
X151944866Y-75804866D01*
X151759294Y-76030986D01*
X151621401Y-76288966D01*
X151536487Y-76568889D01*
X151507815Y-76860000D01*
X151536487Y-77151111D01*
X151621401Y-77431034D01*
X151759294Y-77689014D01*
X151944866Y-77915134D01*
X152170986Y-78100706D01*
X152225791Y-78130000D01*
X152170986Y-78159294D01*
X151944866Y-78344866D01*
X151759294Y-78570986D01*
X151621401Y-78828966D01*
X151536487Y-79108889D01*
X151507815Y-79400000D01*
X151536487Y-79691111D01*
X151621401Y-79971034D01*
X151759294Y-80229014D01*
X151944866Y-80455134D01*
X152170986Y-80640706D01*
X152225791Y-80670000D01*
X152170986Y-80699294D01*
X151944866Y-80884866D01*
X151759294Y-81110986D01*
X151621401Y-81368966D01*
X151536487Y-81648889D01*
X151507815Y-81940000D01*
X151536487Y-82231111D01*
X151621401Y-82511034D01*
X151759294Y-82769014D01*
X151944866Y-82995134D01*
X152170986Y-83180706D01*
X152225791Y-83210000D01*
X152170986Y-83239294D01*
X151944866Y-83424866D01*
X151759294Y-83650986D01*
X151621401Y-83908966D01*
X151536487Y-84188889D01*
X151507815Y-84480000D01*
X151536487Y-84771111D01*
X151621401Y-85051034D01*
X151759294Y-85309014D01*
X151944866Y-85535134D01*
X152170986Y-85720706D01*
X152225791Y-85750000D01*
X152170986Y-85779294D01*
X151944866Y-85964866D01*
X151759294Y-86190986D01*
X151621401Y-86448966D01*
X151536487Y-86728889D01*
X151507815Y-87020000D01*
X151536487Y-87311111D01*
X151621401Y-87591034D01*
X151759294Y-87849014D01*
X151944866Y-88075134D01*
X152170986Y-88260706D01*
X152225791Y-88290000D01*
X152170986Y-88319294D01*
X151944866Y-88504866D01*
X151759294Y-88730986D01*
X151621401Y-88988966D01*
X151536487Y-89268889D01*
X151507815Y-89560000D01*
X151536487Y-89851111D01*
X151621401Y-90131034D01*
X151759294Y-90389014D01*
X151944866Y-90615134D01*
X152170986Y-90800706D01*
X152225791Y-90830000D01*
X152170986Y-90859294D01*
X151944866Y-91044866D01*
X151759294Y-91270986D01*
X151621401Y-91528966D01*
X151536487Y-91808889D01*
X151507815Y-92100000D01*
X151536487Y-92391111D01*
X151621401Y-92671034D01*
X151759294Y-92929014D01*
X151944866Y-93155134D01*
X152170986Y-93340706D01*
X152428966Y-93478599D01*
X152708889Y-93563513D01*
X152927050Y-93585000D01*
X153072950Y-93585000D01*
X153291111Y-93563513D01*
X153571034Y-93478599D01*
X153829014Y-93340706D01*
X154055134Y-93155134D01*
X154240706Y-92929014D01*
X154340001Y-92743246D01*
X154340001Y-95340000D01*
X100660000Y-95340000D01*
X100660000Y-92743248D01*
X100759294Y-92929014D01*
X100944866Y-93155134D01*
X101170986Y-93340706D01*
X101428966Y-93478599D01*
X101708889Y-93563513D01*
X101927050Y-93585000D01*
X102072950Y-93585000D01*
X102291111Y-93563513D01*
X102571034Y-93478599D01*
X102829014Y-93340706D01*
X103055134Y-93155134D01*
X103240706Y-92929014D01*
X103378599Y-92671034D01*
X103463513Y-92391111D01*
X103492185Y-92100000D01*
X103463513Y-91808889D01*
X103378599Y-91528966D01*
X103240706Y-91270986D01*
X103055134Y-91044866D01*
X102829014Y-90859294D01*
X102774209Y-90830000D01*
X102829014Y-90800706D01*
X103055134Y-90615134D01*
X103240706Y-90389014D01*
X103378599Y-90131034D01*
X103388601Y-90098061D01*
X121165000Y-90098061D01*
X121165000Y-90301939D01*
X121204774Y-90501898D01*
X121282795Y-90690256D01*
X121396063Y-90859774D01*
X121540226Y-91003937D01*
X121709744Y-91117205D01*
X121898102Y-91195226D01*
X122098061Y-91235000D01*
X122301939Y-91235000D01*
X122501898Y-91195226D01*
X122690256Y-91117205D01*
X122859774Y-91003937D01*
X123003937Y-90859774D01*
X123117205Y-90690256D01*
X123195226Y-90501898D01*
X123235000Y-90301939D01*
X123235000Y-90098061D01*
X123195226Y-89898102D01*
X123117205Y-89709744D01*
X123003937Y-89540226D01*
X122859774Y-89396063D01*
X122690256Y-89282795D01*
X122501898Y-89204774D01*
X122301939Y-89165000D01*
X122098061Y-89165000D01*
X121898102Y-89204774D01*
X121709744Y-89282795D01*
X121540226Y-89396063D01*
X121396063Y-89540226D01*
X121282795Y-89709744D01*
X121204774Y-89898102D01*
X121165000Y-90098061D01*
X103388601Y-90098061D01*
X103463513Y-89851111D01*
X103492185Y-89560000D01*
X103463513Y-89268889D01*
X103378599Y-88988966D01*
X103240706Y-88730986D01*
X103055134Y-88504866D01*
X102829014Y-88319294D01*
X102774209Y-88290000D01*
X102829014Y-88260706D01*
X103055134Y-88075134D01*
X103240706Y-87849014D01*
X103321391Y-87698061D01*
X117965000Y-87698061D01*
X117965000Y-87901939D01*
X118004774Y-88101898D01*
X118082795Y-88290256D01*
X118196063Y-88459774D01*
X118340226Y-88603937D01*
X118509744Y-88717205D01*
X118698102Y-88795226D01*
X118898061Y-88835000D01*
X119101939Y-88835000D01*
X119301898Y-88795226D01*
X119490256Y-88717205D01*
X119659774Y-88603937D01*
X119803937Y-88459774D01*
X119917205Y-88290256D01*
X119995226Y-88101898D01*
X120035000Y-87901939D01*
X120035000Y-87698061D01*
X119995226Y-87498102D01*
X119917205Y-87309744D01*
X119884015Y-87260071D01*
X125603000Y-87260071D01*
X125603000Y-87463949D01*
X125642774Y-87663908D01*
X125720795Y-87852266D01*
X125834063Y-88021784D01*
X125978226Y-88165947D01*
X126147744Y-88279215D01*
X126336102Y-88357236D01*
X126536061Y-88397010D01*
X126739939Y-88397010D01*
X126939898Y-88357236D01*
X127128256Y-88279215D01*
X127297774Y-88165947D01*
X127441937Y-88021784D01*
X127524605Y-87898061D01*
X143465000Y-87898061D01*
X143465000Y-88101939D01*
X143504774Y-88301898D01*
X143582795Y-88490256D01*
X143696063Y-88659774D01*
X143840226Y-88803937D01*
X144009744Y-88917205D01*
X144198102Y-88995226D01*
X144398061Y-89035000D01*
X144601939Y-89035000D01*
X144801898Y-88995226D01*
X144990256Y-88917205D01*
X145159774Y-88803937D01*
X145303937Y-88659774D01*
X145417205Y-88490256D01*
X145495226Y-88301898D01*
X145535000Y-88101939D01*
X145535000Y-87898061D01*
X145495226Y-87698102D01*
X145417205Y-87509744D01*
X145303937Y-87340226D01*
X145159774Y-87196063D01*
X144990256Y-87082795D01*
X144801898Y-87004774D01*
X144601939Y-86965000D01*
X144398061Y-86965000D01*
X144198102Y-87004774D01*
X144009744Y-87082795D01*
X143840226Y-87196063D01*
X143696063Y-87340226D01*
X143582795Y-87509744D01*
X143504774Y-87698102D01*
X143465000Y-87898061D01*
X127524605Y-87898061D01*
X127555205Y-87852266D01*
X127633226Y-87663908D01*
X127673000Y-87463949D01*
X127673000Y-87260071D01*
X127633226Y-87060112D01*
X127555205Y-86871754D01*
X127441937Y-86702236D01*
X127297774Y-86558073D01*
X127128256Y-86444805D01*
X126939898Y-86366784D01*
X126739939Y-86327010D01*
X126536061Y-86327010D01*
X126336102Y-86366784D01*
X126147744Y-86444805D01*
X125978226Y-86558073D01*
X125834063Y-86702236D01*
X125720795Y-86871754D01*
X125642774Y-87060112D01*
X125603000Y-87260071D01*
X119884015Y-87260071D01*
X119803937Y-87140226D01*
X119659774Y-86996063D01*
X119490256Y-86882795D01*
X119301898Y-86804774D01*
X119101939Y-86765000D01*
X118898061Y-86765000D01*
X118698102Y-86804774D01*
X118509744Y-86882795D01*
X118340226Y-86996063D01*
X118196063Y-87140226D01*
X118082795Y-87309744D01*
X118004774Y-87498102D01*
X117965000Y-87698061D01*
X103321391Y-87698061D01*
X103378599Y-87591034D01*
X103463513Y-87311111D01*
X103492185Y-87020000D01*
X103463513Y-86728889D01*
X103378599Y-86448966D01*
X103240706Y-86190986D01*
X103055134Y-85964866D01*
X102829014Y-85779294D01*
X102764477Y-85744799D01*
X102881355Y-85675178D01*
X103097588Y-85480269D01*
X103271641Y-85246920D01*
X103396825Y-84984099D01*
X103441476Y-84836890D01*
X103320155Y-84607000D01*
X102127000Y-84607000D01*
X102127000Y-84627000D01*
X101873000Y-84627000D01*
X101873000Y-84607000D01*
X101853000Y-84607000D01*
X101853000Y-84353000D01*
X101873000Y-84353000D01*
X101873000Y-82067000D01*
X102127000Y-82067000D01*
X102127000Y-84353000D01*
X103320155Y-84353000D01*
X103373951Y-84251061D01*
X126110996Y-84251061D01*
X126110996Y-84454939D01*
X126150770Y-84654898D01*
X126228791Y-84843256D01*
X126342059Y-85012774D01*
X126486222Y-85156937D01*
X126655740Y-85270205D01*
X126844098Y-85348226D01*
X127044057Y-85388000D01*
X127247935Y-85388000D01*
X127447894Y-85348226D01*
X127636252Y-85270205D01*
X127805770Y-85156937D01*
X127949933Y-85012774D01*
X128063201Y-84843256D01*
X128141222Y-84654898D01*
X128180996Y-84454939D01*
X128180996Y-84251061D01*
X128162339Y-84157266D01*
X128186778Y-84140937D01*
X128330941Y-83996774D01*
X128444209Y-83827256D01*
X128522230Y-83638898D01*
X128562004Y-83438939D01*
X128562004Y-83235061D01*
X128522230Y-83035102D01*
X128444209Y-82846744D01*
X128347492Y-82701997D01*
X128444205Y-82557256D01*
X128522226Y-82368898D01*
X128562000Y-82168939D01*
X128562000Y-81965061D01*
X128522226Y-81765102D01*
X128444205Y-81576744D01*
X128330937Y-81407226D01*
X128186774Y-81263063D01*
X128017256Y-81149795D01*
X127828898Y-81071774D01*
X127628939Y-81032000D01*
X127425061Y-81032000D01*
X127225102Y-81071774D01*
X127036744Y-81149795D01*
X126867226Y-81263063D01*
X126723063Y-81407226D01*
X126609795Y-81576744D01*
X126531774Y-81765102D01*
X126492000Y-81965061D01*
X126492000Y-82168939D01*
X126531774Y-82368898D01*
X126609795Y-82557256D01*
X126706512Y-82702003D01*
X126609799Y-82846744D01*
X126531778Y-83035102D01*
X126492004Y-83235061D01*
X126492004Y-83438939D01*
X126510661Y-83532734D01*
X126486222Y-83549063D01*
X126342059Y-83693226D01*
X126228791Y-83862744D01*
X126150770Y-84051102D01*
X126110996Y-84251061D01*
X103373951Y-84251061D01*
X103441476Y-84123110D01*
X103396825Y-83975901D01*
X103271641Y-83713080D01*
X103097588Y-83479731D01*
X102881355Y-83284822D01*
X102755745Y-83210000D01*
X102881355Y-83135178D01*
X103097588Y-82940269D01*
X103271641Y-82706920D01*
X103396825Y-82444099D01*
X103441476Y-82296890D01*
X103320155Y-82067000D01*
X102127000Y-82067000D01*
X101873000Y-82067000D01*
X101853000Y-82067000D01*
X101853000Y-81813000D01*
X101873000Y-81813000D01*
X101873000Y-79527000D01*
X102127000Y-79527000D01*
X102127000Y-81813000D01*
X103320155Y-81813000D01*
X103441476Y-81583110D01*
X103396825Y-81435901D01*
X103271641Y-81173080D01*
X103097588Y-80939731D01*
X102881355Y-80744822D01*
X102755745Y-80670000D01*
X102881355Y-80595178D01*
X103097588Y-80400269D01*
X103173824Y-80298061D01*
X110965000Y-80298061D01*
X110965000Y-80501939D01*
X111004774Y-80701898D01*
X111082795Y-80890256D01*
X111196063Y-81059774D01*
X111340226Y-81203937D01*
X111509744Y-81317205D01*
X111698102Y-81395226D01*
X111898061Y-81435000D01*
X112101939Y-81435000D01*
X112301898Y-81395226D01*
X112490256Y-81317205D01*
X112659774Y-81203937D01*
X112803937Y-81059774D01*
X112917205Y-80890256D01*
X112995226Y-80701898D01*
X113005973Y-80647868D01*
X113109744Y-80717205D01*
X113298102Y-80795226D01*
X113498061Y-80835000D01*
X113701939Y-80835000D01*
X113901898Y-80795226D01*
X114090256Y-80717205D01*
X114259774Y-80603937D01*
X114403937Y-80459774D01*
X114517205Y-80290256D01*
X114594545Y-80103542D01*
X114633397Y-80103542D01*
X114833356Y-80063768D01*
X115021714Y-79985747D01*
X115191232Y-79872479D01*
X115335395Y-79728316D01*
X115448663Y-79558798D01*
X115526684Y-79370440D01*
X115566458Y-79170481D01*
X115566458Y-78966603D01*
X115552825Y-78898061D01*
X129264998Y-78898061D01*
X129264998Y-79101939D01*
X129304772Y-79301898D01*
X129382793Y-79490256D01*
X129496061Y-79659774D01*
X129640224Y-79803937D01*
X129809742Y-79917205D01*
X129998100Y-79995226D01*
X130198059Y-80035000D01*
X130401937Y-80035000D01*
X130601896Y-79995226D01*
X130790254Y-79917205D01*
X130959772Y-79803937D01*
X131103935Y-79659774D01*
X131217203Y-79490256D01*
X131295224Y-79301898D01*
X131334998Y-79101939D01*
X131334998Y-78898061D01*
X131295224Y-78698102D01*
X131217203Y-78509744D01*
X131103935Y-78340226D01*
X130959772Y-78196063D01*
X130790254Y-78082795D01*
X130601896Y-78004774D01*
X130401937Y-77965000D01*
X130198059Y-77965000D01*
X129998100Y-78004774D01*
X129809742Y-78082795D01*
X129640224Y-78196063D01*
X129496061Y-78340226D01*
X129382793Y-78509744D01*
X129304772Y-78698102D01*
X129264998Y-78898061D01*
X115552825Y-78898061D01*
X115526684Y-78766644D01*
X115448663Y-78578286D01*
X115335395Y-78408768D01*
X115191232Y-78264605D01*
X115021714Y-78151337D01*
X114833356Y-78073316D01*
X114633397Y-78033542D01*
X114429519Y-78033542D01*
X114229560Y-78073316D01*
X114041202Y-78151337D01*
X113871684Y-78264605D01*
X113727521Y-78408768D01*
X113614253Y-78578286D01*
X113536913Y-78765000D01*
X113498061Y-78765000D01*
X113298102Y-78804774D01*
X113109744Y-78882795D01*
X112940226Y-78996063D01*
X112796063Y-79140226D01*
X112682795Y-79309744D01*
X112604774Y-79498102D01*
X112594027Y-79552132D01*
X112490256Y-79482795D01*
X112301898Y-79404774D01*
X112101939Y-79365000D01*
X111898061Y-79365000D01*
X111698102Y-79404774D01*
X111509744Y-79482795D01*
X111340226Y-79596063D01*
X111196063Y-79740226D01*
X111082795Y-79909744D01*
X111004774Y-80098102D01*
X110965000Y-80298061D01*
X103173824Y-80298061D01*
X103271641Y-80166920D01*
X103396825Y-79904099D01*
X103441476Y-79756890D01*
X103320155Y-79527000D01*
X102127000Y-79527000D01*
X101873000Y-79527000D01*
X101853000Y-79527000D01*
X101853000Y-79273000D01*
X101873000Y-79273000D01*
X101873000Y-76987000D01*
X102127000Y-76987000D01*
X102127000Y-79273000D01*
X103320155Y-79273000D01*
X103441476Y-79043110D01*
X103396825Y-78895901D01*
X103271641Y-78633080D01*
X103097588Y-78399731D01*
X102881355Y-78204822D01*
X102755745Y-78130000D01*
X102881355Y-78055178D01*
X103097588Y-77860269D01*
X103271641Y-77626920D01*
X103396825Y-77364099D01*
X103441476Y-77216890D01*
X103320155Y-76987000D01*
X102127000Y-76987000D01*
X101873000Y-76987000D01*
X101853000Y-76987000D01*
X101853000Y-76733000D01*
X101873000Y-76733000D01*
X101873000Y-76713000D01*
X102127000Y-76713000D01*
X102127000Y-76733000D01*
X103320155Y-76733000D01*
X103441476Y-76503110D01*
X103396825Y-76355901D01*
X103271641Y-76093080D01*
X103097588Y-75859731D01*
X102881355Y-75664822D01*
X102764477Y-75595201D01*
X102829014Y-75560706D01*
X103055134Y-75375134D01*
X103240706Y-75149014D01*
X103378599Y-74891034D01*
X103463513Y-74611111D01*
X103492185Y-74320000D01*
X103463513Y-74028889D01*
X103423827Y-73898061D01*
X110465000Y-73898061D01*
X110465000Y-74101939D01*
X110504774Y-74301898D01*
X110582795Y-74490256D01*
X110696063Y-74659774D01*
X110840226Y-74803937D01*
X111009744Y-74917205D01*
X111198102Y-74995226D01*
X111398061Y-75035000D01*
X111601939Y-75035000D01*
X111801898Y-74995226D01*
X111858032Y-74971974D01*
X111832795Y-75009744D01*
X111754774Y-75198102D01*
X111715000Y-75398061D01*
X111715000Y-75601939D01*
X111754774Y-75801898D01*
X111832795Y-75990256D01*
X111946063Y-76159774D01*
X112090226Y-76303937D01*
X112259744Y-76417205D01*
X112448102Y-76495226D01*
X112648061Y-76535000D01*
X112851939Y-76535000D01*
X113051898Y-76495226D01*
X113240256Y-76417205D01*
X113409774Y-76303937D01*
X113500000Y-76213711D01*
X113590226Y-76303937D01*
X113759744Y-76417205D01*
X113948102Y-76495226D01*
X114148061Y-76535000D01*
X114351939Y-76535000D01*
X114551898Y-76495226D01*
X114740256Y-76417205D01*
X114909774Y-76303937D01*
X115053937Y-76159774D01*
X115167205Y-75990256D01*
X115245226Y-75801898D01*
X115285000Y-75601939D01*
X115285000Y-75398061D01*
X115245226Y-75198102D01*
X115167205Y-75009744D01*
X115053937Y-74840226D01*
X114909774Y-74696063D01*
X114740256Y-74582795D01*
X114551898Y-74504774D01*
X114351939Y-74465000D01*
X114148061Y-74465000D01*
X113948102Y-74504774D01*
X113759744Y-74582795D01*
X113590226Y-74696063D01*
X113500000Y-74786289D01*
X113409774Y-74696063D01*
X113240256Y-74582795D01*
X113051898Y-74504774D01*
X112851939Y-74465000D01*
X112648061Y-74465000D01*
X112448102Y-74504774D01*
X112391968Y-74528026D01*
X112417205Y-74490256D01*
X112495226Y-74301898D01*
X112495989Y-74298061D01*
X122365000Y-74298061D01*
X122365000Y-74501939D01*
X122404774Y-74701898D01*
X122482795Y-74890256D01*
X122596063Y-75059774D01*
X122740226Y-75203937D01*
X122909744Y-75317205D01*
X123098102Y-75395226D01*
X123298061Y-75435000D01*
X123501939Y-75435000D01*
X123701898Y-75395226D01*
X123890256Y-75317205D01*
X124059774Y-75203937D01*
X124203937Y-75059774D01*
X124317205Y-74890256D01*
X124395226Y-74701898D01*
X124405934Y-74648061D01*
X133465000Y-74648061D01*
X133465000Y-74851939D01*
X133504774Y-75051898D01*
X133582795Y-75240256D01*
X133696063Y-75409774D01*
X133840226Y-75553937D01*
X134009744Y-75667205D01*
X134198102Y-75745226D01*
X134398061Y-75785000D01*
X134601939Y-75785000D01*
X134801898Y-75745226D01*
X134990256Y-75667205D01*
X135159774Y-75553937D01*
X135303937Y-75409774D01*
X135417205Y-75240256D01*
X135495226Y-75051898D01*
X135535000Y-74851939D01*
X135535000Y-74648061D01*
X135495226Y-74448102D01*
X135417205Y-74259744D01*
X135303937Y-74090226D01*
X135159774Y-73946063D01*
X134990256Y-73832795D01*
X134801898Y-73754774D01*
X134601939Y-73715000D01*
X134398061Y-73715000D01*
X134198102Y-73754774D01*
X134009744Y-73832795D01*
X133840226Y-73946063D01*
X133696063Y-74090226D01*
X133582795Y-74259744D01*
X133504774Y-74448102D01*
X133465000Y-74648061D01*
X124405934Y-74648061D01*
X124435000Y-74501939D01*
X124435000Y-74298061D01*
X124395226Y-74098102D01*
X124317205Y-73909744D01*
X124203937Y-73740226D01*
X124059774Y-73596063D01*
X123890256Y-73482795D01*
X123701898Y-73404774D01*
X123501939Y-73365000D01*
X123298061Y-73365000D01*
X123098102Y-73404774D01*
X122909744Y-73482795D01*
X122740226Y-73596063D01*
X122596063Y-73740226D01*
X122482795Y-73909744D01*
X122404774Y-74098102D01*
X122365000Y-74298061D01*
X112495989Y-74298061D01*
X112535000Y-74101939D01*
X112535000Y-73898061D01*
X112495226Y-73698102D01*
X112417205Y-73509744D01*
X112303937Y-73340226D01*
X112159774Y-73196063D01*
X111990256Y-73082795D01*
X111801898Y-73004774D01*
X111601939Y-72965000D01*
X111398061Y-72965000D01*
X111198102Y-73004774D01*
X111009744Y-73082795D01*
X110840226Y-73196063D01*
X110696063Y-73340226D01*
X110582795Y-73509744D01*
X110504774Y-73698102D01*
X110465000Y-73898061D01*
X103423827Y-73898061D01*
X103378599Y-73748966D01*
X103240706Y-73490986D01*
X103055134Y-73264866D01*
X102829014Y-73079294D01*
X102774209Y-73050000D01*
X102829014Y-73020706D01*
X103055134Y-72835134D01*
X103240706Y-72609014D01*
X103378599Y-72351034D01*
X103463513Y-72071111D01*
X103492185Y-71780000D01*
X103463513Y-71488889D01*
X103378599Y-71208966D01*
X103240706Y-70950986D01*
X103055134Y-70724866D01*
X102829014Y-70539294D01*
X102774209Y-70510000D01*
X102829014Y-70480706D01*
X103055134Y-70295134D01*
X103240706Y-70069014D01*
X103378599Y-69811034D01*
X103463513Y-69531111D01*
X103492185Y-69240000D01*
X103463513Y-68948889D01*
X103378599Y-68668966D01*
X103240706Y-68410986D01*
X103055134Y-68184866D01*
X102829014Y-67999294D01*
X102774209Y-67970000D01*
X102829014Y-67940706D01*
X103055134Y-67755134D01*
X103240706Y-67529014D01*
X103378599Y-67271034D01*
X103463513Y-66991111D01*
X103492185Y-66700000D01*
X103463513Y-66408889D01*
X103378599Y-66128966D01*
X103240706Y-65870986D01*
X103055134Y-65644866D01*
X102829014Y-65459294D01*
X102774209Y-65430000D01*
X102829014Y-65400706D01*
X103055134Y-65215134D01*
X103240706Y-64989014D01*
X103378599Y-64731034D01*
X103463513Y-64451111D01*
X103492185Y-64160000D01*
X103463513Y-63868889D01*
X103378599Y-63588966D01*
X103240706Y-63330986D01*
X103055134Y-63104866D01*
X102829014Y-62919294D01*
X102774209Y-62890000D01*
X102829014Y-62860706D01*
X103055134Y-62675134D01*
X103240706Y-62449014D01*
X103378599Y-62191034D01*
X103463513Y-61911111D01*
X103479381Y-61750000D01*
X115873000Y-61750000D01*
X115873000Y-70000000D01*
X115882667Y-70048601D01*
X115910197Y-70089803D01*
X115951399Y-70117333D01*
X116000000Y-70127000D01*
X116534226Y-70127000D01*
X116504774Y-70198102D01*
X116465000Y-70398061D01*
X116465000Y-70601939D01*
X116504774Y-70801898D01*
X116582795Y-70990256D01*
X116696063Y-71159774D01*
X116840226Y-71303937D01*
X117009744Y-71417205D01*
X117198102Y-71495226D01*
X117398061Y-71535000D01*
X117601939Y-71535000D01*
X117801898Y-71495226D01*
X117990256Y-71417205D01*
X118159774Y-71303937D01*
X118303937Y-71159774D01*
X118417205Y-70990256D01*
X118495226Y-70801898D01*
X118535000Y-70601939D01*
X118535000Y-70464606D01*
X118910197Y-70839803D01*
X118951399Y-70867333D01*
X119000000Y-70877000D01*
X119522485Y-70877000D01*
X119374226Y-70976063D01*
X119230063Y-71120226D01*
X119116795Y-71289744D01*
X119038774Y-71478102D01*
X118999000Y-71678061D01*
X118999000Y-71881939D01*
X119038774Y-72081898D01*
X119116795Y-72270256D01*
X119230063Y-72439774D01*
X119374226Y-72583937D01*
X119543744Y-72697205D01*
X119732102Y-72775226D01*
X119932061Y-72815000D01*
X120135939Y-72815000D01*
X120335898Y-72775226D01*
X120524256Y-72697205D01*
X120693774Y-72583937D01*
X120837937Y-72439774D01*
X120951205Y-72270256D01*
X121029226Y-72081898D01*
X121069000Y-71881939D01*
X121069000Y-71678061D01*
X121029226Y-71478102D01*
X120951205Y-71289744D01*
X120837937Y-71120226D01*
X120693774Y-70976063D01*
X120545515Y-70877000D01*
X121750000Y-70877000D01*
X121798601Y-70867333D01*
X121839803Y-70839803D01*
X121983693Y-70695913D01*
X122004774Y-70801898D01*
X122082795Y-70990256D01*
X122196063Y-71159774D01*
X122340226Y-71303937D01*
X122509744Y-71417205D01*
X122698102Y-71495226D01*
X122898061Y-71535000D01*
X123101939Y-71535000D01*
X123301898Y-71495226D01*
X123490256Y-71417205D01*
X123659774Y-71303937D01*
X123803937Y-71159774D01*
X123825511Y-71127486D01*
X133187266Y-71127486D01*
X133187266Y-71331364D01*
X133227040Y-71531323D01*
X133305061Y-71719681D01*
X133418329Y-71889199D01*
X133562492Y-72033362D01*
X133732010Y-72146630D01*
X133920368Y-72224651D01*
X134120327Y-72264425D01*
X134324205Y-72264425D01*
X134524164Y-72224651D01*
X134712522Y-72146630D01*
X134882040Y-72033362D01*
X135026203Y-71889199D01*
X135139471Y-71719681D01*
X135217492Y-71531323D01*
X135257266Y-71331364D01*
X135257266Y-71127486D01*
X135217492Y-70927527D01*
X135139471Y-70739169D01*
X135026203Y-70569651D01*
X134882040Y-70425488D01*
X134712522Y-70312220D01*
X134524164Y-70234199D01*
X134324205Y-70194425D01*
X134120327Y-70194425D01*
X133920368Y-70234199D01*
X133732010Y-70312220D01*
X133562492Y-70425488D01*
X133418329Y-70569651D01*
X133305061Y-70739169D01*
X133227040Y-70927527D01*
X133187266Y-71127486D01*
X123825511Y-71127486D01*
X123917205Y-70990256D01*
X123995226Y-70801898D01*
X124035000Y-70601939D01*
X124035000Y-70398061D01*
X123995226Y-70198102D01*
X123965774Y-70127000D01*
X125000000Y-70127000D01*
X125048601Y-70117333D01*
X125089803Y-70089803D01*
X125117333Y-70048601D01*
X125127000Y-70000000D01*
X125127000Y-68098061D01*
X141165000Y-68098061D01*
X141165000Y-68301939D01*
X141204774Y-68501898D01*
X141282795Y-68690256D01*
X141396063Y-68859774D01*
X141540226Y-69003937D01*
X141709744Y-69117205D01*
X141898102Y-69195226D01*
X142098061Y-69235000D01*
X142301939Y-69235000D01*
X142501898Y-69195226D01*
X142690256Y-69117205D01*
X142859774Y-69003937D01*
X143003937Y-68859774D01*
X143117205Y-68690256D01*
X143195226Y-68501898D01*
X143235000Y-68301939D01*
X143235000Y-68098061D01*
X143195226Y-67898102D01*
X143117205Y-67709744D01*
X143003937Y-67540226D01*
X142859774Y-67396063D01*
X142690256Y-67282795D01*
X142501898Y-67204774D01*
X142301939Y-67165000D01*
X142098061Y-67165000D01*
X141898102Y-67204774D01*
X141709744Y-67282795D01*
X141540226Y-67396063D01*
X141396063Y-67540226D01*
X141282795Y-67709744D01*
X141204774Y-67898102D01*
X141165000Y-68098061D01*
X125127000Y-68098061D01*
X125127000Y-66298061D01*
X139965000Y-66298061D01*
X139965000Y-66501939D01*
X140004774Y-66701898D01*
X140082795Y-66890256D01*
X140196063Y-67059774D01*
X140340226Y-67203937D01*
X140509744Y-67317205D01*
X140698102Y-67395226D01*
X140898061Y-67435000D01*
X141101939Y-67435000D01*
X141301898Y-67395226D01*
X141490256Y-67317205D01*
X141659774Y-67203937D01*
X141803937Y-67059774D01*
X141917205Y-66890256D01*
X141995226Y-66701898D01*
X142035000Y-66501939D01*
X142035000Y-66298061D01*
X141995226Y-66098102D01*
X141917205Y-65909744D01*
X141803937Y-65740226D01*
X141659774Y-65596063D01*
X141490256Y-65482795D01*
X141301898Y-65404774D01*
X141101939Y-65365000D01*
X140898061Y-65365000D01*
X140698102Y-65404774D01*
X140509744Y-65482795D01*
X140340226Y-65596063D01*
X140196063Y-65740226D01*
X140082795Y-65909744D01*
X140004774Y-66098102D01*
X139965000Y-66298061D01*
X125127000Y-66298061D01*
X125127000Y-62898061D01*
X144965000Y-62898061D01*
X144965000Y-63101939D01*
X145004774Y-63301898D01*
X145082795Y-63490256D01*
X145196063Y-63659774D01*
X145340226Y-63803937D01*
X145509744Y-63917205D01*
X145698102Y-63995226D01*
X145898061Y-64035000D01*
X146101939Y-64035000D01*
X146301898Y-63995226D01*
X146490256Y-63917205D01*
X146659774Y-63803937D01*
X146803937Y-63659774D01*
X146917205Y-63490256D01*
X146995226Y-63301898D01*
X147035000Y-63101939D01*
X147035000Y-62898061D01*
X146995226Y-62698102D01*
X146917205Y-62509744D01*
X146803937Y-62340226D01*
X146659774Y-62196063D01*
X146490256Y-62082795D01*
X146301898Y-62004774D01*
X146101939Y-61965000D01*
X145898061Y-61965000D01*
X145698102Y-62004774D01*
X145509744Y-62082795D01*
X145340226Y-62196063D01*
X145196063Y-62340226D01*
X145082795Y-62509744D01*
X145004774Y-62698102D01*
X144965000Y-62898061D01*
X125127000Y-62898061D01*
X125127000Y-61877000D01*
X126000000Y-61877000D01*
X126048601Y-61867333D01*
X126089803Y-61839803D01*
X126117333Y-61798601D01*
X126127000Y-61750000D01*
X126127000Y-61398061D01*
X138715000Y-61398061D01*
X138715000Y-61601939D01*
X138754774Y-61801898D01*
X138832795Y-61990256D01*
X138946063Y-62159774D01*
X139090226Y-62303937D01*
X139259744Y-62417205D01*
X139448102Y-62495226D01*
X139648061Y-62535000D01*
X139851939Y-62535000D01*
X140051898Y-62495226D01*
X140240256Y-62417205D01*
X140409774Y-62303937D01*
X140553937Y-62159774D01*
X140667205Y-61990256D01*
X140745226Y-61801898D01*
X140785000Y-61601939D01*
X140785000Y-61398061D01*
X140745226Y-61198102D01*
X140667205Y-61009744D01*
X140553937Y-60840226D01*
X140409774Y-60696063D01*
X140240256Y-60582795D01*
X140051898Y-60504774D01*
X139851939Y-60465000D01*
X139648061Y-60465000D01*
X139448102Y-60504774D01*
X139259744Y-60582795D01*
X139090226Y-60696063D01*
X138946063Y-60840226D01*
X138832795Y-61009744D01*
X138754774Y-61198102D01*
X138715000Y-61398061D01*
X126127000Y-61398061D01*
X126127000Y-58188589D01*
X129615000Y-58188589D01*
X129615000Y-58461411D01*
X129668225Y-58728989D01*
X129772629Y-58981043D01*
X129924201Y-59207886D01*
X130117114Y-59400799D01*
X130343957Y-59552371D01*
X130596011Y-59656775D01*
X130863589Y-59710000D01*
X131136411Y-59710000D01*
X131403989Y-59656775D01*
X131656043Y-59552371D01*
X131882886Y-59400799D01*
X132075799Y-59207886D01*
X132227371Y-58981043D01*
X132331775Y-58728989D01*
X132385000Y-58461411D01*
X132385000Y-58188589D01*
X132331775Y-57921011D01*
X132227371Y-57668957D01*
X132075799Y-57442114D01*
X131882886Y-57249201D01*
X131656043Y-57097629D01*
X131403989Y-56993225D01*
X131136411Y-56940000D01*
X130863589Y-56940000D01*
X130596011Y-56993225D01*
X130343957Y-57097629D01*
X130117114Y-57249201D01*
X129924201Y-57442114D01*
X129772629Y-57668957D01*
X129668225Y-57921011D01*
X129615000Y-58188589D01*
X126127000Y-58188589D01*
X126127000Y-54750000D01*
X126117333Y-54701399D01*
X126089803Y-54660197D01*
X126048601Y-54632667D01*
X126000000Y-54623000D01*
X121750000Y-54623000D01*
X121701399Y-54632667D01*
X121660197Y-54660197D01*
X118910197Y-57410197D01*
X118882667Y-57451399D01*
X118873000Y-57500000D01*
X118873000Y-61197394D01*
X118447394Y-61623000D01*
X116000000Y-61623000D01*
X115951399Y-61632667D01*
X115910197Y-61660197D01*
X115882667Y-61701399D01*
X115873000Y-61750000D01*
X103479381Y-61750000D01*
X103492185Y-61620000D01*
X103463513Y-61328889D01*
X103378599Y-61048966D01*
X103240706Y-60790986D01*
X103055134Y-60564866D01*
X102829014Y-60379294D01*
X102774209Y-60350000D01*
X102829014Y-60320706D01*
X103055134Y-60135134D01*
X103240706Y-59909014D01*
X103378599Y-59651034D01*
X103463513Y-59371111D01*
X103492185Y-59080000D01*
X103463513Y-58788889D01*
X103378599Y-58508966D01*
X103240706Y-58250986D01*
X103189499Y-58188589D01*
X107115000Y-58188589D01*
X107115000Y-58461411D01*
X107168225Y-58728989D01*
X107272629Y-58981043D01*
X107424201Y-59207886D01*
X107617114Y-59400799D01*
X107843957Y-59552371D01*
X108096011Y-59656775D01*
X108363589Y-59710000D01*
X108636411Y-59710000D01*
X108903989Y-59656775D01*
X109156043Y-59552371D01*
X109382886Y-59400799D01*
X109575799Y-59207886D01*
X109727371Y-58981043D01*
X109831775Y-58728989D01*
X109885000Y-58461411D01*
X109885000Y-58188589D01*
X109831775Y-57921011D01*
X109727371Y-57668957D01*
X109575799Y-57442114D01*
X109382886Y-57249201D01*
X109156043Y-57097629D01*
X108903989Y-56993225D01*
X108636411Y-56940000D01*
X108363589Y-56940000D01*
X108096011Y-56993225D01*
X107843957Y-57097629D01*
X107617114Y-57249201D01*
X107424201Y-57442114D01*
X107272629Y-57668957D01*
X107168225Y-57921011D01*
X107115000Y-58188589D01*
X103189499Y-58188589D01*
X103055134Y-58024866D01*
X102829014Y-57839294D01*
X102774209Y-57810000D01*
X102829014Y-57780706D01*
X103055134Y-57595134D01*
X103240706Y-57369014D01*
X103378599Y-57111034D01*
X103463513Y-56831111D01*
X103492185Y-56540000D01*
X103463513Y-56248889D01*
X103378599Y-55968966D01*
X103240706Y-55710986D01*
X103055134Y-55484866D01*
X103027447Y-55462144D01*
X103035223Y-55460597D01*
X103150785Y-55412730D01*
X103254789Y-55343237D01*
X103343237Y-55254789D01*
X103412730Y-55150785D01*
X103460597Y-55035223D01*
X103485000Y-54912542D01*
X103485000Y-54285750D01*
X103326250Y-54127000D01*
X102127000Y-54127000D01*
X102127000Y-54147000D01*
X101873000Y-54147000D01*
X101873000Y-54127000D01*
X101853000Y-54127000D01*
X101853000Y-53898061D01*
X129465000Y-53898061D01*
X129465000Y-54101939D01*
X129504774Y-54301898D01*
X129582795Y-54490256D01*
X129696063Y-54659774D01*
X129840226Y-54803937D01*
X130009744Y-54917205D01*
X130198102Y-54995226D01*
X130398061Y-55035000D01*
X130601939Y-55035000D01*
X130801898Y-54995226D01*
X130990256Y-54917205D01*
X131159774Y-54803937D01*
X131303937Y-54659774D01*
X131375000Y-54553420D01*
X131446063Y-54659774D01*
X131590226Y-54803937D01*
X131759744Y-54917205D01*
X131948102Y-54995226D01*
X132148061Y-55035000D01*
X132351939Y-55035000D01*
X132551898Y-54995226D01*
X132740256Y-54917205D01*
X132909774Y-54803937D01*
X133053937Y-54659774D01*
X133167205Y-54490256D01*
X133245226Y-54301898D01*
X133285000Y-54101939D01*
X133285000Y-53898061D01*
X133245226Y-53698102D01*
X133167205Y-53509744D01*
X133053937Y-53340226D01*
X132909774Y-53196063D01*
X132740256Y-53082795D01*
X132551898Y-53004774D01*
X132351939Y-52965000D01*
X132148061Y-52965000D01*
X131948102Y-53004774D01*
X131759744Y-53082795D01*
X131590226Y-53196063D01*
X131446063Y-53340226D01*
X131375000Y-53446580D01*
X131303937Y-53340226D01*
X131159774Y-53196063D01*
X130990256Y-53082795D01*
X130801898Y-53004774D01*
X130601939Y-52965000D01*
X130398061Y-52965000D01*
X130198102Y-53004774D01*
X130009744Y-53082795D01*
X129840226Y-53196063D01*
X129696063Y-53340226D01*
X129582795Y-53509744D01*
X129504774Y-53698102D01*
X129465000Y-53898061D01*
X101853000Y-53898061D01*
X101853000Y-53873000D01*
X101873000Y-53873000D01*
X101873000Y-52673750D01*
X102127000Y-52673750D01*
X102127000Y-53873000D01*
X103326250Y-53873000D01*
X103485000Y-53714250D01*
X103485000Y-53087458D01*
X103460597Y-52964777D01*
X103412730Y-52849215D01*
X103343237Y-52745211D01*
X103254789Y-52656763D01*
X103150785Y-52587270D01*
X103035223Y-52539403D01*
X102912542Y-52515000D01*
X102285750Y-52515000D01*
X102127000Y-52673750D01*
X101873000Y-52673750D01*
X101714250Y-52515000D01*
X101087458Y-52515000D01*
X100964777Y-52539403D01*
X100849215Y-52587270D01*
X100745211Y-52656763D01*
X100660000Y-52741974D01*
X100660000Y-50660000D01*
X107278614Y-50660000D01*
X107272629Y-50668957D01*
X107272629Y-50668957D01*
G37*
X107272629Y-50668957D02*
X107168225Y-50921011D01*
X107115000Y-51188589D01*
X107115000Y-51461411D01*
X107168225Y-51728989D01*
X107272629Y-51981043D01*
X107424201Y-52207886D01*
X107617114Y-52400799D01*
X107843957Y-52552371D01*
X108096011Y-52656775D01*
X108363589Y-52710000D01*
X108636411Y-52710000D01*
X108903989Y-52656775D01*
X109156043Y-52552371D01*
X109382886Y-52400799D01*
X109575799Y-52207886D01*
X109727371Y-51981043D01*
X109831775Y-51728989D01*
X109885000Y-51461411D01*
X109885000Y-51188589D01*
X109831775Y-50921011D01*
X109727371Y-50668957D01*
X109721386Y-50660000D01*
X119778614Y-50660000D01*
X119772629Y-50668957D01*
X119668225Y-50921011D01*
X119615000Y-51188589D01*
X119615000Y-51461411D01*
X119668225Y-51728989D01*
X119772629Y-51981043D01*
X119924201Y-52207886D01*
X120117114Y-52400799D01*
X120343957Y-52552371D01*
X120596011Y-52656775D01*
X120863589Y-52710000D01*
X121136411Y-52710000D01*
X121403989Y-52656775D01*
X121656043Y-52552371D01*
X121882886Y-52400799D01*
X122075799Y-52207886D01*
X122227371Y-51981043D01*
X122331775Y-51728989D01*
X122385000Y-51461411D01*
X122385000Y-51188589D01*
X122331775Y-50921011D01*
X122227371Y-50668957D01*
X122221386Y-50660000D01*
X129778614Y-50660000D01*
X129772629Y-50668957D01*
X129668225Y-50921011D01*
X129615000Y-51188589D01*
X129615000Y-51461411D01*
X129668225Y-51728989D01*
X129772629Y-51981043D01*
X129924201Y-52207886D01*
X130117114Y-52400799D01*
X130343957Y-52552371D01*
X130596011Y-52656775D01*
X130863589Y-52710000D01*
X131136411Y-52710000D01*
X131403989Y-52656775D01*
X131656043Y-52552371D01*
X131882886Y-52400799D01*
X132075799Y-52207886D01*
X132227371Y-51981043D01*
X132331775Y-51728989D01*
X132385000Y-51461411D01*
X132385000Y-51188589D01*
X132331775Y-50921011D01*
X132227371Y-50668957D01*
X132221386Y-50660000D01*
X135873000Y-50660000D01*
X135873000Y-58500000D01*
X135882667Y-58548601D01*
X135910197Y-58589803D01*
X137410197Y-60089803D01*
X137451399Y-60117333D01*
X137500000Y-60127000D01*
X142461928Y-60127000D01*
X142461928Y-60950000D01*
X142478031Y-61113500D01*
X142525722Y-61270716D01*
X142603169Y-61415608D01*
X142707394Y-61542606D01*
X142834392Y-61646831D01*
X142979284Y-61724278D01*
X143136500Y-61771969D01*
X143300000Y-61788072D01*
X143700000Y-61788072D01*
X143863500Y-61771969D01*
X144020716Y-61724278D01*
X144165608Y-61646831D01*
X144183985Y-61631749D01*
X144201840Y-61645255D01*
X144387028Y-61734994D01*
X144463877Y-61744666D01*
X144623000Y-61616998D01*
X144623000Y-60627000D01*
X144877000Y-60627000D01*
X144877000Y-61616998D01*
X145036123Y-61744666D01*
X145112972Y-61734994D01*
X145298160Y-61645255D01*
X145462283Y-61521112D01*
X145599033Y-61367336D01*
X145703155Y-61189836D01*
X145770648Y-60995433D01*
X145798918Y-60791599D01*
X145633762Y-60627000D01*
X144877000Y-60627000D01*
X144623000Y-60627000D01*
X144603000Y-60627000D01*
X144603000Y-60373000D01*
X144623000Y-60373000D01*
X144623000Y-60020110D01*
X144627000Y-60000000D01*
X144627000Y-59500000D01*
X144623000Y-59479890D01*
X144623000Y-59383002D01*
X144463877Y-59255334D01*
X144387028Y-59265006D01*
X144201840Y-59354745D01*
X144183985Y-59368251D01*
X144165608Y-59353169D01*
X144020716Y-59275722D01*
X143863500Y-59228031D01*
X143700000Y-59211928D01*
X143300000Y-59211928D01*
X143136500Y-59228031D01*
X142979284Y-59275722D01*
X142834392Y-59353169D01*
X142810228Y-59373000D01*
X138052606Y-59373000D01*
X136627000Y-57947394D01*
X136627000Y-53398061D01*
X136965000Y-53398061D01*
X136965000Y-53601939D01*
X137004774Y-53801898D01*
X137082795Y-53990256D01*
X137196063Y-54159774D01*
X137340226Y-54303937D01*
X137509744Y-54417205D01*
X137698102Y-54495226D01*
X137898061Y-54535000D01*
X138101939Y-54535000D01*
X138301898Y-54495226D01*
X138490256Y-54417205D01*
X138659774Y-54303937D01*
X138803937Y-54159774D01*
X138917205Y-53990256D01*
X138995226Y-53801898D01*
X139035000Y-53601939D01*
X139035000Y-53398061D01*
X138995226Y-53198102D01*
X138917205Y-53009744D01*
X138842582Y-52898061D01*
X142765000Y-52898061D01*
X142765000Y-53101939D01*
X142804774Y-53301898D01*
X142882795Y-53490256D01*
X142996063Y-53659774D01*
X143140226Y-53803937D01*
X143309744Y-53917205D01*
X143498102Y-53995226D01*
X143698061Y-54035000D01*
X143901939Y-54035000D01*
X144101898Y-53995226D01*
X144290256Y-53917205D01*
X144459774Y-53803937D01*
X144603937Y-53659774D01*
X144717205Y-53490256D01*
X144755393Y-53398061D01*
X147965000Y-53398061D01*
X147965000Y-53601939D01*
X148004774Y-53801898D01*
X148082795Y-53990256D01*
X148196063Y-54159774D01*
X148340226Y-54303937D01*
X148509744Y-54417205D01*
X148698102Y-54495226D01*
X148898061Y-54535000D01*
X149101939Y-54535000D01*
X149301898Y-54495226D01*
X149490256Y-54417205D01*
X149659774Y-54303937D01*
X149803937Y-54159774D01*
X149917205Y-53990256D01*
X149995226Y-53801898D01*
X150035000Y-53601939D01*
X150035000Y-53398061D01*
X149995226Y-53198102D01*
X149917205Y-53009744D01*
X149803937Y-52840226D01*
X149659774Y-52696063D01*
X149490256Y-52582795D01*
X149301898Y-52504774D01*
X149101939Y-52465000D01*
X148898061Y-52465000D01*
X148698102Y-52504774D01*
X148509744Y-52582795D01*
X148340226Y-52696063D01*
X148196063Y-52840226D01*
X148082795Y-53009744D01*
X148004774Y-53198102D01*
X147965000Y-53398061D01*
X144755393Y-53398061D01*
X144795226Y-53301898D01*
X144835000Y-53101939D01*
X144835000Y-52898061D01*
X144795226Y-52698102D01*
X144717205Y-52509744D01*
X144603937Y-52340226D01*
X144459774Y-52196063D01*
X144290256Y-52082795D01*
X144101898Y-52004774D01*
X143901939Y-51965000D01*
X143698061Y-51965000D01*
X143498102Y-52004774D01*
X143309744Y-52082795D01*
X143140226Y-52196063D01*
X142996063Y-52340226D01*
X142882795Y-52509744D01*
X142804774Y-52698102D01*
X142765000Y-52898061D01*
X138842582Y-52898061D01*
X138803937Y-52840226D01*
X138659774Y-52696063D01*
X138490256Y-52582795D01*
X138301898Y-52504774D01*
X138101939Y-52465000D01*
X137898061Y-52465000D01*
X137698102Y-52504774D01*
X137509744Y-52582795D01*
X137340226Y-52696063D01*
X137196063Y-52840226D01*
X137082795Y-53009744D01*
X137004774Y-53198102D01*
X136965000Y-53398061D01*
X136627000Y-53398061D01*
X136627000Y-50660000D01*
X144772571Y-50660000D01*
X144765000Y-50698061D01*
X144765000Y-50901939D01*
X144804774Y-51101898D01*
X144882795Y-51290256D01*
X144996063Y-51459774D01*
X145140226Y-51603937D01*
X145309744Y-51717205D01*
X145498102Y-51795226D01*
X145698061Y-51835000D01*
X145901939Y-51835000D01*
X146101898Y-51795226D01*
X146290256Y-51717205D01*
X146459774Y-51603937D01*
X146603937Y-51459774D01*
X146717205Y-51290256D01*
X146795226Y-51101898D01*
X146835000Y-50901939D01*
X146835000Y-50698061D01*
X146827429Y-50660000D01*
X151373000Y-50660000D01*
X151373000Y-57447394D01*
X149882776Y-58937618D01*
X149774937Y-58776226D01*
X149630774Y-58632063D01*
X149461256Y-58518795D01*
X149272898Y-58440774D01*
X149072939Y-58401000D01*
X148869061Y-58401000D01*
X148669102Y-58440774D01*
X148480744Y-58518795D01*
X148311226Y-58632063D01*
X148167063Y-58776226D01*
X148053795Y-58945744D01*
X147975774Y-59134102D01*
X147936000Y-59334061D01*
X147936000Y-59373000D01*
X145500000Y-59373000D01*
X145451399Y-59382667D01*
X145410197Y-59410197D01*
X145397195Y-59429656D01*
X145298160Y-59354745D01*
X145112972Y-59265006D01*
X145036123Y-59255334D01*
X144877000Y-59383002D01*
X144877000Y-60373000D01*
X145633762Y-60373000D01*
X145798918Y-60208401D01*
X145787628Y-60127000D01*
X148198289Y-60127000D01*
X148311226Y-60239937D01*
X148480744Y-60353205D01*
X148669102Y-60431226D01*
X148869061Y-60471000D01*
X149072939Y-60471000D01*
X149272898Y-60431226D01*
X149461256Y-60353205D01*
X149630774Y-60239937D01*
X149774937Y-60095774D01*
X149888205Y-59926256D01*
X149966226Y-59737898D01*
X149972314Y-59707292D01*
X152021544Y-57658062D01*
X152170986Y-57780706D01*
X152225791Y-57810000D01*
X152170986Y-57839294D01*
X151944866Y-58024866D01*
X151759294Y-58250986D01*
X151621401Y-58508966D01*
X151536487Y-58788889D01*
X151507815Y-59080000D01*
X151536487Y-59371111D01*
X151621401Y-59651034D01*
X151759294Y-59909014D01*
X151944866Y-60135134D01*
X152170986Y-60320706D01*
X152235523Y-60355201D01*
X152118645Y-60424822D01*
X151902412Y-60619731D01*
X151728359Y-60853080D01*
X151603175Y-61115901D01*
X151558524Y-61263110D01*
X151679845Y-61493000D01*
X152873000Y-61493000D01*
X152873000Y-61473000D01*
X153127000Y-61473000D01*
X153127000Y-61493000D01*
X153147000Y-61493000D01*
X153147000Y-61747000D01*
X153127000Y-61747000D01*
X153127000Y-61767000D01*
X152873000Y-61767000D01*
X152873000Y-61747000D01*
X151679845Y-61747000D01*
X151558524Y-61976890D01*
X151603175Y-62124099D01*
X151728359Y-62386920D01*
X151902412Y-62620269D01*
X152118645Y-62815178D01*
X152235523Y-62884799D01*
X152170986Y-62919294D01*
X151944866Y-63104866D01*
X151759294Y-63330986D01*
X151621401Y-63588966D01*
X151536487Y-63868889D01*
X151507815Y-64160000D01*
X151536487Y-64451111D01*
X151621401Y-64731034D01*
X151759294Y-64989014D01*
X151944866Y-65215134D01*
X152170986Y-65400706D01*
X152225791Y-65430000D01*
X152170986Y-65459294D01*
X151944866Y-65644866D01*
X151759294Y-65870986D01*
X151621401Y-66128966D01*
X151536487Y-66408889D01*
X151507815Y-66700000D01*
X151536487Y-66991111D01*
X151621401Y-67271034D01*
X151759294Y-67529014D01*
X151944866Y-67755134D01*
X152170986Y-67940706D01*
X152225791Y-67970000D01*
X152170986Y-67999294D01*
X151944866Y-68184866D01*
X151759294Y-68410986D01*
X151621401Y-68668966D01*
X151536487Y-68948889D01*
X151507815Y-69240000D01*
X151536487Y-69531111D01*
X151621401Y-69811034D01*
X151759294Y-70069014D01*
X151944866Y-70295134D01*
X152170986Y-70480706D01*
X152225791Y-70510000D01*
X152170986Y-70539294D01*
X151944866Y-70724866D01*
X151759294Y-70950986D01*
X151621401Y-71208966D01*
X151536487Y-71488889D01*
X151507815Y-71780000D01*
X151536487Y-72071111D01*
X151621401Y-72351034D01*
X151759294Y-72609014D01*
X151944866Y-72835134D01*
X152170986Y-73020706D01*
X152225791Y-73050000D01*
X152170986Y-73079294D01*
X151944866Y-73264866D01*
X151759294Y-73490986D01*
X151621401Y-73748966D01*
X151536487Y-74028889D01*
X151507815Y-74320000D01*
X151536487Y-74611111D01*
X151621401Y-74891034D01*
X151759294Y-75149014D01*
X151944866Y-75375134D01*
X152170986Y-75560706D01*
X152225791Y-75590000D01*
X152170986Y-75619294D01*
X151944866Y-75804866D01*
X151759294Y-76030986D01*
X151621401Y-76288966D01*
X151536487Y-76568889D01*
X151507815Y-76860000D01*
X151536487Y-77151111D01*
X151621401Y-77431034D01*
X151759294Y-77689014D01*
X151944866Y-77915134D01*
X152170986Y-78100706D01*
X152225791Y-78130000D01*
X152170986Y-78159294D01*
X151944866Y-78344866D01*
X151759294Y-78570986D01*
X151621401Y-78828966D01*
X151536487Y-79108889D01*
X151507815Y-79400000D01*
X151536487Y-79691111D01*
X151621401Y-79971034D01*
X151759294Y-80229014D01*
X151944866Y-80455134D01*
X152170986Y-80640706D01*
X152225791Y-80670000D01*
X152170986Y-80699294D01*
X151944866Y-80884866D01*
X151759294Y-81110986D01*
X151621401Y-81368966D01*
X151536487Y-81648889D01*
X151507815Y-81940000D01*
X151536487Y-82231111D01*
X151621401Y-82511034D01*
X151759294Y-82769014D01*
X151944866Y-82995134D01*
X152170986Y-83180706D01*
X152225791Y-83210000D01*
X152170986Y-83239294D01*
X151944866Y-83424866D01*
X151759294Y-83650986D01*
X151621401Y-83908966D01*
X151536487Y-84188889D01*
X151507815Y-84480000D01*
X151536487Y-84771111D01*
X151621401Y-85051034D01*
X151759294Y-85309014D01*
X151944866Y-85535134D01*
X152170986Y-85720706D01*
X152225791Y-85750000D01*
X152170986Y-85779294D01*
X151944866Y-85964866D01*
X151759294Y-86190986D01*
X151621401Y-86448966D01*
X151536487Y-86728889D01*
X151507815Y-87020000D01*
X151536487Y-87311111D01*
X151621401Y-87591034D01*
X151759294Y-87849014D01*
X151944866Y-88075134D01*
X152170986Y-88260706D01*
X152225791Y-88290000D01*
X152170986Y-88319294D01*
X151944866Y-88504866D01*
X151759294Y-88730986D01*
X151621401Y-88988966D01*
X151536487Y-89268889D01*
X151507815Y-89560000D01*
X151536487Y-89851111D01*
X151621401Y-90131034D01*
X151759294Y-90389014D01*
X151944866Y-90615134D01*
X152170986Y-90800706D01*
X152225791Y-90830000D01*
X152170986Y-90859294D01*
X151944866Y-91044866D01*
X151759294Y-91270986D01*
X151621401Y-91528966D01*
X151536487Y-91808889D01*
X151507815Y-92100000D01*
X151536487Y-92391111D01*
X151621401Y-92671034D01*
X151759294Y-92929014D01*
X151944866Y-93155134D01*
X152170986Y-93340706D01*
X152428966Y-93478599D01*
X152708889Y-93563513D01*
X152927050Y-93585000D01*
X153072950Y-93585000D01*
X153291111Y-93563513D01*
X153571034Y-93478599D01*
X153829014Y-93340706D01*
X154055134Y-93155134D01*
X154240706Y-92929014D01*
X154340001Y-92743246D01*
X154340001Y-95340000D01*
X100660000Y-95340000D01*
X100660000Y-92743248D01*
X100759294Y-92929014D01*
X100944866Y-93155134D01*
X101170986Y-93340706D01*
X101428966Y-93478599D01*
X101708889Y-93563513D01*
X101927050Y-93585000D01*
X102072950Y-93585000D01*
X102291111Y-93563513D01*
X102571034Y-93478599D01*
X102829014Y-93340706D01*
X103055134Y-93155134D01*
X103240706Y-92929014D01*
X103378599Y-92671034D01*
X103463513Y-92391111D01*
X103492185Y-92100000D01*
X103463513Y-91808889D01*
X103378599Y-91528966D01*
X103240706Y-91270986D01*
X103055134Y-91044866D01*
X102829014Y-90859294D01*
X102774209Y-90830000D01*
X102829014Y-90800706D01*
X103055134Y-90615134D01*
X103240706Y-90389014D01*
X103378599Y-90131034D01*
X103388601Y-90098061D01*
X121165000Y-90098061D01*
X121165000Y-90301939D01*
X121204774Y-90501898D01*
X121282795Y-90690256D01*
X121396063Y-90859774D01*
X121540226Y-91003937D01*
X121709744Y-91117205D01*
X121898102Y-91195226D01*
X122098061Y-91235000D01*
X122301939Y-91235000D01*
X122501898Y-91195226D01*
X122690256Y-91117205D01*
X122859774Y-91003937D01*
X123003937Y-90859774D01*
X123117205Y-90690256D01*
X123195226Y-90501898D01*
X123235000Y-90301939D01*
X123235000Y-90098061D01*
X123195226Y-89898102D01*
X123117205Y-89709744D01*
X123003937Y-89540226D01*
X122859774Y-89396063D01*
X122690256Y-89282795D01*
X122501898Y-89204774D01*
X122301939Y-89165000D01*
X122098061Y-89165000D01*
X121898102Y-89204774D01*
X121709744Y-89282795D01*
X121540226Y-89396063D01*
X121396063Y-89540226D01*
X121282795Y-89709744D01*
X121204774Y-89898102D01*
X121165000Y-90098061D01*
X103388601Y-90098061D01*
X103463513Y-89851111D01*
X103492185Y-89560000D01*
X103463513Y-89268889D01*
X103378599Y-88988966D01*
X103240706Y-88730986D01*
X103055134Y-88504866D01*
X102829014Y-88319294D01*
X102774209Y-88290000D01*
X102829014Y-88260706D01*
X103055134Y-88075134D01*
X103240706Y-87849014D01*
X103321391Y-87698061D01*
X117965000Y-87698061D01*
X117965000Y-87901939D01*
X118004774Y-88101898D01*
X118082795Y-88290256D01*
X118196063Y-88459774D01*
X118340226Y-88603937D01*
X118509744Y-88717205D01*
X118698102Y-88795226D01*
X118898061Y-88835000D01*
X119101939Y-88835000D01*
X119301898Y-88795226D01*
X119490256Y-88717205D01*
X119659774Y-88603937D01*
X119803937Y-88459774D01*
X119917205Y-88290256D01*
X119995226Y-88101898D01*
X120035000Y-87901939D01*
X120035000Y-87698061D01*
X119995226Y-87498102D01*
X119917205Y-87309744D01*
X119884015Y-87260071D01*
X125603000Y-87260071D01*
X125603000Y-87463949D01*
X125642774Y-87663908D01*
X125720795Y-87852266D01*
X125834063Y-88021784D01*
X125978226Y-88165947D01*
X126147744Y-88279215D01*
X126336102Y-88357236D01*
X126536061Y-88397010D01*
X126739939Y-88397010D01*
X126939898Y-88357236D01*
X127128256Y-88279215D01*
X127297774Y-88165947D01*
X127441937Y-88021784D01*
X127524605Y-87898061D01*
X143465000Y-87898061D01*
X143465000Y-88101939D01*
X143504774Y-88301898D01*
X143582795Y-88490256D01*
X143696063Y-88659774D01*
X143840226Y-88803937D01*
X144009744Y-88917205D01*
X144198102Y-88995226D01*
X144398061Y-89035000D01*
X144601939Y-89035000D01*
X144801898Y-88995226D01*
X144990256Y-88917205D01*
X145159774Y-88803937D01*
X145303937Y-88659774D01*
X145417205Y-88490256D01*
X145495226Y-88301898D01*
X145535000Y-88101939D01*
X145535000Y-87898061D01*
X145495226Y-87698102D01*
X145417205Y-87509744D01*
X145303937Y-87340226D01*
X145159774Y-87196063D01*
X144990256Y-87082795D01*
X144801898Y-87004774D01*
X144601939Y-86965000D01*
X144398061Y-86965000D01*
X144198102Y-87004774D01*
X144009744Y-87082795D01*
X143840226Y-87196063D01*
X143696063Y-87340226D01*
X143582795Y-87509744D01*
X143504774Y-87698102D01*
X143465000Y-87898061D01*
X127524605Y-87898061D01*
X127555205Y-87852266D01*
X127633226Y-87663908D01*
X127673000Y-87463949D01*
X127673000Y-87260071D01*
X127633226Y-87060112D01*
X127555205Y-86871754D01*
X127441937Y-86702236D01*
X127297774Y-86558073D01*
X127128256Y-86444805D01*
X126939898Y-86366784D01*
X126739939Y-86327010D01*
X126536061Y-86327010D01*
X126336102Y-86366784D01*
X126147744Y-86444805D01*
X125978226Y-86558073D01*
X125834063Y-86702236D01*
X125720795Y-86871754D01*
X125642774Y-87060112D01*
X125603000Y-87260071D01*
X119884015Y-87260071D01*
X119803937Y-87140226D01*
X119659774Y-86996063D01*
X119490256Y-86882795D01*
X119301898Y-86804774D01*
X119101939Y-86765000D01*
X118898061Y-86765000D01*
X118698102Y-86804774D01*
X118509744Y-86882795D01*
X118340226Y-86996063D01*
X118196063Y-87140226D01*
X118082795Y-87309744D01*
X118004774Y-87498102D01*
X117965000Y-87698061D01*
X103321391Y-87698061D01*
X103378599Y-87591034D01*
X103463513Y-87311111D01*
X103492185Y-87020000D01*
X103463513Y-86728889D01*
X103378599Y-86448966D01*
X103240706Y-86190986D01*
X103055134Y-85964866D01*
X102829014Y-85779294D01*
X102764477Y-85744799D01*
X102881355Y-85675178D01*
X103097588Y-85480269D01*
X103271641Y-85246920D01*
X103396825Y-84984099D01*
X103441476Y-84836890D01*
X103320155Y-84607000D01*
X102127000Y-84607000D01*
X102127000Y-84627000D01*
X101873000Y-84627000D01*
X101873000Y-84607000D01*
X101853000Y-84607000D01*
X101853000Y-84353000D01*
X101873000Y-84353000D01*
X101873000Y-82067000D01*
X102127000Y-82067000D01*
X102127000Y-84353000D01*
X103320155Y-84353000D01*
X103373951Y-84251061D01*
X126110996Y-84251061D01*
X126110996Y-84454939D01*
X126150770Y-84654898D01*
X126228791Y-84843256D01*
X126342059Y-85012774D01*
X126486222Y-85156937D01*
X126655740Y-85270205D01*
X126844098Y-85348226D01*
X127044057Y-85388000D01*
X127247935Y-85388000D01*
X127447894Y-85348226D01*
X127636252Y-85270205D01*
X127805770Y-85156937D01*
X127949933Y-85012774D01*
X128063201Y-84843256D01*
X128141222Y-84654898D01*
X128180996Y-84454939D01*
X128180996Y-84251061D01*
X128162339Y-84157266D01*
X128186778Y-84140937D01*
X128330941Y-83996774D01*
X128444209Y-83827256D01*
X128522230Y-83638898D01*
X128562004Y-83438939D01*
X128562004Y-83235061D01*
X128522230Y-83035102D01*
X128444209Y-82846744D01*
X128347492Y-82701997D01*
X128444205Y-82557256D01*
X128522226Y-82368898D01*
X128562000Y-82168939D01*
X128562000Y-81965061D01*
X128522226Y-81765102D01*
X128444205Y-81576744D01*
X128330937Y-81407226D01*
X128186774Y-81263063D01*
X128017256Y-81149795D01*
X127828898Y-81071774D01*
X127628939Y-81032000D01*
X127425061Y-81032000D01*
X127225102Y-81071774D01*
X127036744Y-81149795D01*
X126867226Y-81263063D01*
X126723063Y-81407226D01*
X126609795Y-81576744D01*
X126531774Y-81765102D01*
X126492000Y-81965061D01*
X126492000Y-82168939D01*
X126531774Y-82368898D01*
X126609795Y-82557256D01*
X126706512Y-82702003D01*
X126609799Y-82846744D01*
X126531778Y-83035102D01*
X126492004Y-83235061D01*
X126492004Y-83438939D01*
X126510661Y-83532734D01*
X126486222Y-83549063D01*
X126342059Y-83693226D01*
X126228791Y-83862744D01*
X126150770Y-84051102D01*
X126110996Y-84251061D01*
X103373951Y-84251061D01*
X103441476Y-84123110D01*
X103396825Y-83975901D01*
X103271641Y-83713080D01*
X103097588Y-83479731D01*
X102881355Y-83284822D01*
X102755745Y-83210000D01*
X102881355Y-83135178D01*
X103097588Y-82940269D01*
X103271641Y-82706920D01*
X103396825Y-82444099D01*
X103441476Y-82296890D01*
X103320155Y-82067000D01*
X102127000Y-82067000D01*
X101873000Y-82067000D01*
X101853000Y-82067000D01*
X101853000Y-81813000D01*
X101873000Y-81813000D01*
X101873000Y-79527000D01*
X102127000Y-79527000D01*
X102127000Y-81813000D01*
X103320155Y-81813000D01*
X103441476Y-81583110D01*
X103396825Y-81435901D01*
X103271641Y-81173080D01*
X103097588Y-80939731D01*
X102881355Y-80744822D01*
X102755745Y-80670000D01*
X102881355Y-80595178D01*
X103097588Y-80400269D01*
X103173824Y-80298061D01*
X110965000Y-80298061D01*
X110965000Y-80501939D01*
X111004774Y-80701898D01*
X111082795Y-80890256D01*
X111196063Y-81059774D01*
X111340226Y-81203937D01*
X111509744Y-81317205D01*
X111698102Y-81395226D01*
X111898061Y-81435000D01*
X112101939Y-81435000D01*
X112301898Y-81395226D01*
X112490256Y-81317205D01*
X112659774Y-81203937D01*
X112803937Y-81059774D01*
X112917205Y-80890256D01*
X112995226Y-80701898D01*
X113005973Y-80647868D01*
X113109744Y-80717205D01*
X113298102Y-80795226D01*
X113498061Y-80835000D01*
X113701939Y-80835000D01*
X113901898Y-80795226D01*
X114090256Y-80717205D01*
X114259774Y-80603937D01*
X114403937Y-80459774D01*
X114517205Y-80290256D01*
X114594545Y-80103542D01*
X114633397Y-80103542D01*
X114833356Y-80063768D01*
X115021714Y-79985747D01*
X115191232Y-79872479D01*
X115335395Y-79728316D01*
X115448663Y-79558798D01*
X115526684Y-79370440D01*
X115566458Y-79170481D01*
X115566458Y-78966603D01*
X115552825Y-78898061D01*
X129264998Y-78898061D01*
X129264998Y-79101939D01*
X129304772Y-79301898D01*
X129382793Y-79490256D01*
X129496061Y-79659774D01*
X129640224Y-79803937D01*
X129809742Y-79917205D01*
X129998100Y-79995226D01*
X130198059Y-80035000D01*
X130401937Y-80035000D01*
X130601896Y-79995226D01*
X130790254Y-79917205D01*
X130959772Y-79803937D01*
X131103935Y-79659774D01*
X131217203Y-79490256D01*
X131295224Y-79301898D01*
X131334998Y-79101939D01*
X131334998Y-78898061D01*
X131295224Y-78698102D01*
X131217203Y-78509744D01*
X131103935Y-78340226D01*
X130959772Y-78196063D01*
X130790254Y-78082795D01*
X130601896Y-78004774D01*
X130401937Y-77965000D01*
X130198059Y-77965000D01*
X129998100Y-78004774D01*
X129809742Y-78082795D01*
X129640224Y-78196063D01*
X129496061Y-78340226D01*
X129382793Y-78509744D01*
X129304772Y-78698102D01*
X129264998Y-78898061D01*
X115552825Y-78898061D01*
X115526684Y-78766644D01*
X115448663Y-78578286D01*
X115335395Y-78408768D01*
X115191232Y-78264605D01*
X115021714Y-78151337D01*
X114833356Y-78073316D01*
X114633397Y-78033542D01*
X114429519Y-78033542D01*
X114229560Y-78073316D01*
X114041202Y-78151337D01*
X113871684Y-78264605D01*
X113727521Y-78408768D01*
X113614253Y-78578286D01*
X113536913Y-78765000D01*
X113498061Y-78765000D01*
X113298102Y-78804774D01*
X113109744Y-78882795D01*
X112940226Y-78996063D01*
X112796063Y-79140226D01*
X112682795Y-79309744D01*
X112604774Y-79498102D01*
X112594027Y-79552132D01*
X112490256Y-79482795D01*
X112301898Y-79404774D01*
X112101939Y-79365000D01*
X111898061Y-79365000D01*
X111698102Y-79404774D01*
X111509744Y-79482795D01*
X111340226Y-79596063D01*
X111196063Y-79740226D01*
X111082795Y-79909744D01*
X111004774Y-80098102D01*
X110965000Y-80298061D01*
X103173824Y-80298061D01*
X103271641Y-80166920D01*
X103396825Y-79904099D01*
X103441476Y-79756890D01*
X103320155Y-79527000D01*
X102127000Y-79527000D01*
X101873000Y-79527000D01*
X101853000Y-79527000D01*
X101853000Y-79273000D01*
X101873000Y-79273000D01*
X101873000Y-76987000D01*
X102127000Y-76987000D01*
X102127000Y-79273000D01*
X103320155Y-79273000D01*
X103441476Y-79043110D01*
X103396825Y-78895901D01*
X103271641Y-78633080D01*
X103097588Y-78399731D01*
X102881355Y-78204822D01*
X102755745Y-78130000D01*
X102881355Y-78055178D01*
X103097588Y-77860269D01*
X103271641Y-77626920D01*
X103396825Y-77364099D01*
X103441476Y-77216890D01*
X103320155Y-76987000D01*
X102127000Y-76987000D01*
X101873000Y-76987000D01*
X101853000Y-76987000D01*
X101853000Y-76733000D01*
X101873000Y-76733000D01*
X101873000Y-76713000D01*
X102127000Y-76713000D01*
X102127000Y-76733000D01*
X103320155Y-76733000D01*
X103441476Y-76503110D01*
X103396825Y-76355901D01*
X103271641Y-76093080D01*
X103097588Y-75859731D01*
X102881355Y-75664822D01*
X102764477Y-75595201D01*
X102829014Y-75560706D01*
X103055134Y-75375134D01*
X103240706Y-75149014D01*
X103378599Y-74891034D01*
X103463513Y-74611111D01*
X103492185Y-74320000D01*
X103463513Y-74028889D01*
X103423827Y-73898061D01*
X110465000Y-73898061D01*
X110465000Y-74101939D01*
X110504774Y-74301898D01*
X110582795Y-74490256D01*
X110696063Y-74659774D01*
X110840226Y-74803937D01*
X111009744Y-74917205D01*
X111198102Y-74995226D01*
X111398061Y-75035000D01*
X111601939Y-75035000D01*
X111801898Y-74995226D01*
X111858032Y-74971974D01*
X111832795Y-75009744D01*
X111754774Y-75198102D01*
X111715000Y-75398061D01*
X111715000Y-75601939D01*
X111754774Y-75801898D01*
X111832795Y-75990256D01*
X111946063Y-76159774D01*
X112090226Y-76303937D01*
X112259744Y-76417205D01*
X112448102Y-76495226D01*
X112648061Y-76535000D01*
X112851939Y-76535000D01*
X113051898Y-76495226D01*
X113240256Y-76417205D01*
X113409774Y-76303937D01*
X113500000Y-76213711D01*
X113590226Y-76303937D01*
X113759744Y-76417205D01*
X113948102Y-76495226D01*
X114148061Y-76535000D01*
X114351939Y-76535000D01*
X114551898Y-76495226D01*
X114740256Y-76417205D01*
X114909774Y-76303937D01*
X115053937Y-76159774D01*
X115167205Y-75990256D01*
X115245226Y-75801898D01*
X115285000Y-75601939D01*
X115285000Y-75398061D01*
X115245226Y-75198102D01*
X115167205Y-75009744D01*
X115053937Y-74840226D01*
X114909774Y-74696063D01*
X114740256Y-74582795D01*
X114551898Y-74504774D01*
X114351939Y-74465000D01*
X114148061Y-74465000D01*
X113948102Y-74504774D01*
X113759744Y-74582795D01*
X113590226Y-74696063D01*
X113500000Y-74786289D01*
X113409774Y-74696063D01*
X113240256Y-74582795D01*
X113051898Y-74504774D01*
X112851939Y-74465000D01*
X112648061Y-74465000D01*
X112448102Y-74504774D01*
X112391968Y-74528026D01*
X112417205Y-74490256D01*
X112495226Y-74301898D01*
X112495989Y-74298061D01*
X122365000Y-74298061D01*
X122365000Y-74501939D01*
X122404774Y-74701898D01*
X122482795Y-74890256D01*
X122596063Y-75059774D01*
X122740226Y-75203937D01*
X122909744Y-75317205D01*
X123098102Y-75395226D01*
X123298061Y-75435000D01*
X123501939Y-75435000D01*
X123701898Y-75395226D01*
X123890256Y-75317205D01*
X124059774Y-75203937D01*
X124203937Y-75059774D01*
X124317205Y-74890256D01*
X124395226Y-74701898D01*
X124405934Y-74648061D01*
X133465000Y-74648061D01*
X133465000Y-74851939D01*
X133504774Y-75051898D01*
X133582795Y-75240256D01*
X133696063Y-75409774D01*
X133840226Y-75553937D01*
X134009744Y-75667205D01*
X134198102Y-75745226D01*
X134398061Y-75785000D01*
X134601939Y-75785000D01*
X134801898Y-75745226D01*
X134990256Y-75667205D01*
X135159774Y-75553937D01*
X135303937Y-75409774D01*
X135417205Y-75240256D01*
X135495226Y-75051898D01*
X135535000Y-74851939D01*
X135535000Y-74648061D01*
X135495226Y-74448102D01*
X135417205Y-74259744D01*
X135303937Y-74090226D01*
X135159774Y-73946063D01*
X134990256Y-73832795D01*
X134801898Y-73754774D01*
X134601939Y-73715000D01*
X134398061Y-73715000D01*
X134198102Y-73754774D01*
X134009744Y-73832795D01*
X133840226Y-73946063D01*
X133696063Y-74090226D01*
X133582795Y-74259744D01*
X133504774Y-74448102D01*
X133465000Y-74648061D01*
X124405934Y-74648061D01*
X124435000Y-74501939D01*
X124435000Y-74298061D01*
X124395226Y-74098102D01*
X124317205Y-73909744D01*
X124203937Y-73740226D01*
X124059774Y-73596063D01*
X123890256Y-73482795D01*
X123701898Y-73404774D01*
X123501939Y-73365000D01*
X123298061Y-73365000D01*
X123098102Y-73404774D01*
X122909744Y-73482795D01*
X122740226Y-73596063D01*
X122596063Y-73740226D01*
X122482795Y-73909744D01*
X122404774Y-74098102D01*
X122365000Y-74298061D01*
X112495989Y-74298061D01*
X112535000Y-74101939D01*
X112535000Y-73898061D01*
X112495226Y-73698102D01*
X112417205Y-73509744D01*
X112303937Y-73340226D01*
X112159774Y-73196063D01*
X111990256Y-73082795D01*
X111801898Y-73004774D01*
X111601939Y-72965000D01*
X111398061Y-72965000D01*
X111198102Y-73004774D01*
X111009744Y-73082795D01*
X110840226Y-73196063D01*
X110696063Y-73340226D01*
X110582795Y-73509744D01*
X110504774Y-73698102D01*
X110465000Y-73898061D01*
X103423827Y-73898061D01*
X103378599Y-73748966D01*
X103240706Y-73490986D01*
X103055134Y-73264866D01*
X102829014Y-73079294D01*
X102774209Y-73050000D01*
X102829014Y-73020706D01*
X103055134Y-72835134D01*
X103240706Y-72609014D01*
X103378599Y-72351034D01*
X103463513Y-72071111D01*
X103492185Y-71780000D01*
X103463513Y-71488889D01*
X103378599Y-71208966D01*
X103240706Y-70950986D01*
X103055134Y-70724866D01*
X102829014Y-70539294D01*
X102774209Y-70510000D01*
X102829014Y-70480706D01*
X103055134Y-70295134D01*
X103240706Y-70069014D01*
X103378599Y-69811034D01*
X103463513Y-69531111D01*
X103492185Y-69240000D01*
X103463513Y-68948889D01*
X103378599Y-68668966D01*
X103240706Y-68410986D01*
X103055134Y-68184866D01*
X102829014Y-67999294D01*
X102774209Y-67970000D01*
X102829014Y-67940706D01*
X103055134Y-67755134D01*
X103240706Y-67529014D01*
X103378599Y-67271034D01*
X103463513Y-66991111D01*
X103492185Y-66700000D01*
X103463513Y-66408889D01*
X103378599Y-66128966D01*
X103240706Y-65870986D01*
X103055134Y-65644866D01*
X102829014Y-65459294D01*
X102774209Y-65430000D01*
X102829014Y-65400706D01*
X103055134Y-65215134D01*
X103240706Y-64989014D01*
X103378599Y-64731034D01*
X103463513Y-64451111D01*
X103492185Y-64160000D01*
X103463513Y-63868889D01*
X103378599Y-63588966D01*
X103240706Y-63330986D01*
X103055134Y-63104866D01*
X102829014Y-62919294D01*
X102774209Y-62890000D01*
X102829014Y-62860706D01*
X103055134Y-62675134D01*
X103240706Y-62449014D01*
X103378599Y-62191034D01*
X103463513Y-61911111D01*
X103479381Y-61750000D01*
X115873000Y-61750000D01*
X115873000Y-70000000D01*
X115882667Y-70048601D01*
X115910197Y-70089803D01*
X115951399Y-70117333D01*
X116000000Y-70127000D01*
X116534226Y-70127000D01*
X116504774Y-70198102D01*
X116465000Y-70398061D01*
X116465000Y-70601939D01*
X116504774Y-70801898D01*
X116582795Y-70990256D01*
X116696063Y-71159774D01*
X116840226Y-71303937D01*
X117009744Y-71417205D01*
X117198102Y-71495226D01*
X117398061Y-71535000D01*
X117601939Y-71535000D01*
X117801898Y-71495226D01*
X117990256Y-71417205D01*
X118159774Y-71303937D01*
X118303937Y-71159774D01*
X118417205Y-70990256D01*
X118495226Y-70801898D01*
X118535000Y-70601939D01*
X118535000Y-70464606D01*
X118910197Y-70839803D01*
X118951399Y-70867333D01*
X119000000Y-70877000D01*
X119522485Y-70877000D01*
X119374226Y-70976063D01*
X119230063Y-71120226D01*
X119116795Y-71289744D01*
X119038774Y-71478102D01*
X118999000Y-71678061D01*
X118999000Y-71881939D01*
X119038774Y-72081898D01*
X119116795Y-72270256D01*
X119230063Y-72439774D01*
X119374226Y-72583937D01*
X119543744Y-72697205D01*
X119732102Y-72775226D01*
X119932061Y-72815000D01*
X120135939Y-72815000D01*
X120335898Y-72775226D01*
X120524256Y-72697205D01*
X120693774Y-72583937D01*
X120837937Y-72439774D01*
X120951205Y-72270256D01*
X121029226Y-72081898D01*
X121069000Y-71881939D01*
X121069000Y-71678061D01*
X121029226Y-71478102D01*
X120951205Y-71289744D01*
X120837937Y-71120226D01*
X120693774Y-70976063D01*
X120545515Y-70877000D01*
X121750000Y-70877000D01*
X121798601Y-70867333D01*
X121839803Y-70839803D01*
X121983693Y-70695913D01*
X122004774Y-70801898D01*
X122082795Y-70990256D01*
X122196063Y-71159774D01*
X122340226Y-71303937D01*
X122509744Y-71417205D01*
X122698102Y-71495226D01*
X122898061Y-71535000D01*
X123101939Y-71535000D01*
X123301898Y-71495226D01*
X123490256Y-71417205D01*
X123659774Y-71303937D01*
X123803937Y-71159774D01*
X123825511Y-71127486D01*
X133187266Y-71127486D01*
X133187266Y-71331364D01*
X133227040Y-71531323D01*
X133305061Y-71719681D01*
X133418329Y-71889199D01*
X133562492Y-72033362D01*
X133732010Y-72146630D01*
X133920368Y-72224651D01*
X134120327Y-72264425D01*
X134324205Y-72264425D01*
X134524164Y-72224651D01*
X134712522Y-72146630D01*
X134882040Y-72033362D01*
X135026203Y-71889199D01*
X135139471Y-71719681D01*
X135217492Y-71531323D01*
X135257266Y-71331364D01*
X135257266Y-71127486D01*
X135217492Y-70927527D01*
X135139471Y-70739169D01*
X135026203Y-70569651D01*
X134882040Y-70425488D01*
X134712522Y-70312220D01*
X134524164Y-70234199D01*
X134324205Y-70194425D01*
X134120327Y-70194425D01*
X133920368Y-70234199D01*
X133732010Y-70312220D01*
X133562492Y-70425488D01*
X133418329Y-70569651D01*
X133305061Y-70739169D01*
X133227040Y-70927527D01*
X133187266Y-71127486D01*
X123825511Y-71127486D01*
X123917205Y-70990256D01*
X123995226Y-70801898D01*
X124035000Y-70601939D01*
X124035000Y-70398061D01*
X123995226Y-70198102D01*
X123965774Y-70127000D01*
X125000000Y-70127000D01*
X125048601Y-70117333D01*
X125089803Y-70089803D01*
X125117333Y-70048601D01*
X125127000Y-70000000D01*
X125127000Y-68098061D01*
X141165000Y-68098061D01*
X141165000Y-68301939D01*
X141204774Y-68501898D01*
X141282795Y-68690256D01*
X141396063Y-68859774D01*
X141540226Y-69003937D01*
X141709744Y-69117205D01*
X141898102Y-69195226D01*
X142098061Y-69235000D01*
X142301939Y-69235000D01*
X142501898Y-69195226D01*
X142690256Y-69117205D01*
X142859774Y-69003937D01*
X143003937Y-68859774D01*
X143117205Y-68690256D01*
X143195226Y-68501898D01*
X143235000Y-68301939D01*
X143235000Y-68098061D01*
X143195226Y-67898102D01*
X143117205Y-67709744D01*
X143003937Y-67540226D01*
X142859774Y-67396063D01*
X142690256Y-67282795D01*
X142501898Y-67204774D01*
X142301939Y-67165000D01*
X142098061Y-67165000D01*
X141898102Y-67204774D01*
X141709744Y-67282795D01*
X141540226Y-67396063D01*
X141396063Y-67540226D01*
X141282795Y-67709744D01*
X141204774Y-67898102D01*
X141165000Y-68098061D01*
X125127000Y-68098061D01*
X125127000Y-66298061D01*
X139965000Y-66298061D01*
X139965000Y-66501939D01*
X140004774Y-66701898D01*
X140082795Y-66890256D01*
X140196063Y-67059774D01*
X140340226Y-67203937D01*
X140509744Y-67317205D01*
X140698102Y-67395226D01*
X140898061Y-67435000D01*
X141101939Y-67435000D01*
X141301898Y-67395226D01*
X141490256Y-67317205D01*
X141659774Y-67203937D01*
X141803937Y-67059774D01*
X141917205Y-66890256D01*
X141995226Y-66701898D01*
X142035000Y-66501939D01*
X142035000Y-66298061D01*
X141995226Y-66098102D01*
X141917205Y-65909744D01*
X141803937Y-65740226D01*
X141659774Y-65596063D01*
X141490256Y-65482795D01*
X141301898Y-65404774D01*
X141101939Y-65365000D01*
X140898061Y-65365000D01*
X140698102Y-65404774D01*
X140509744Y-65482795D01*
X140340226Y-65596063D01*
X140196063Y-65740226D01*
X140082795Y-65909744D01*
X140004774Y-66098102D01*
X139965000Y-66298061D01*
X125127000Y-66298061D01*
X125127000Y-62898061D01*
X144965000Y-62898061D01*
X144965000Y-63101939D01*
X145004774Y-63301898D01*
X145082795Y-63490256D01*
X145196063Y-63659774D01*
X145340226Y-63803937D01*
X145509744Y-63917205D01*
X145698102Y-63995226D01*
X145898061Y-64035000D01*
X146101939Y-64035000D01*
X146301898Y-63995226D01*
X146490256Y-63917205D01*
X146659774Y-63803937D01*
X146803937Y-63659774D01*
X146917205Y-63490256D01*
X146995226Y-63301898D01*
X147035000Y-63101939D01*
X147035000Y-62898061D01*
X146995226Y-62698102D01*
X146917205Y-62509744D01*
X146803937Y-62340226D01*
X146659774Y-62196063D01*
X146490256Y-62082795D01*
X146301898Y-62004774D01*
X146101939Y-61965000D01*
X145898061Y-61965000D01*
X145698102Y-62004774D01*
X145509744Y-62082795D01*
X145340226Y-62196063D01*
X145196063Y-62340226D01*
X145082795Y-62509744D01*
X145004774Y-62698102D01*
X144965000Y-62898061D01*
X125127000Y-62898061D01*
X125127000Y-61877000D01*
X126000000Y-61877000D01*
X126048601Y-61867333D01*
X126089803Y-61839803D01*
X126117333Y-61798601D01*
X126127000Y-61750000D01*
X126127000Y-61398061D01*
X138715000Y-61398061D01*
X138715000Y-61601939D01*
X138754774Y-61801898D01*
X138832795Y-61990256D01*
X138946063Y-62159774D01*
X139090226Y-62303937D01*
X139259744Y-62417205D01*
X139448102Y-62495226D01*
X139648061Y-62535000D01*
X139851939Y-62535000D01*
X140051898Y-62495226D01*
X140240256Y-62417205D01*
X140409774Y-62303937D01*
X140553937Y-62159774D01*
X140667205Y-61990256D01*
X140745226Y-61801898D01*
X140785000Y-61601939D01*
X140785000Y-61398061D01*
X140745226Y-61198102D01*
X140667205Y-61009744D01*
X140553937Y-60840226D01*
X140409774Y-60696063D01*
X140240256Y-60582795D01*
X140051898Y-60504774D01*
X139851939Y-60465000D01*
X139648061Y-60465000D01*
X139448102Y-60504774D01*
X139259744Y-60582795D01*
X139090226Y-60696063D01*
X138946063Y-60840226D01*
X138832795Y-61009744D01*
X138754774Y-61198102D01*
X138715000Y-61398061D01*
X126127000Y-61398061D01*
X126127000Y-58188589D01*
X129615000Y-58188589D01*
X129615000Y-58461411D01*
X129668225Y-58728989D01*
X129772629Y-58981043D01*
X129924201Y-59207886D01*
X130117114Y-59400799D01*
X130343957Y-59552371D01*
X130596011Y-59656775D01*
X130863589Y-59710000D01*
X131136411Y-59710000D01*
X131403989Y-59656775D01*
X131656043Y-59552371D01*
X131882886Y-59400799D01*
X132075799Y-59207886D01*
X132227371Y-58981043D01*
X132331775Y-58728989D01*
X132385000Y-58461411D01*
X132385000Y-58188589D01*
X132331775Y-57921011D01*
X132227371Y-57668957D01*
X132075799Y-57442114D01*
X131882886Y-57249201D01*
X131656043Y-57097629D01*
X131403989Y-56993225D01*
X131136411Y-56940000D01*
X130863589Y-56940000D01*
X130596011Y-56993225D01*
X130343957Y-57097629D01*
X130117114Y-57249201D01*
X129924201Y-57442114D01*
X129772629Y-57668957D01*
X129668225Y-57921011D01*
X129615000Y-58188589D01*
X126127000Y-58188589D01*
X126127000Y-54750000D01*
X126117333Y-54701399D01*
X126089803Y-54660197D01*
X126048601Y-54632667D01*
X126000000Y-54623000D01*
X121750000Y-54623000D01*
X121701399Y-54632667D01*
X121660197Y-54660197D01*
X118910197Y-57410197D01*
X118882667Y-57451399D01*
X118873000Y-57500000D01*
X118873000Y-61197394D01*
X118447394Y-61623000D01*
X116000000Y-61623000D01*
X115951399Y-61632667D01*
X115910197Y-61660197D01*
X115882667Y-61701399D01*
X115873000Y-61750000D01*
X103479381Y-61750000D01*
X103492185Y-61620000D01*
X103463513Y-61328889D01*
X103378599Y-61048966D01*
X103240706Y-60790986D01*
X103055134Y-60564866D01*
X102829014Y-60379294D01*
X102774209Y-60350000D01*
X102829014Y-60320706D01*
X103055134Y-60135134D01*
X103240706Y-59909014D01*
X103378599Y-59651034D01*
X103463513Y-59371111D01*
X103492185Y-59080000D01*
X103463513Y-58788889D01*
X103378599Y-58508966D01*
X103240706Y-58250986D01*
X103189499Y-58188589D01*
X107115000Y-58188589D01*
X107115000Y-58461411D01*
X107168225Y-58728989D01*
X107272629Y-58981043D01*
X107424201Y-59207886D01*
X107617114Y-59400799D01*
X107843957Y-59552371D01*
X108096011Y-59656775D01*
X108363589Y-59710000D01*
X108636411Y-59710000D01*
X108903989Y-59656775D01*
X109156043Y-59552371D01*
X109382886Y-59400799D01*
X109575799Y-59207886D01*
X109727371Y-58981043D01*
X109831775Y-58728989D01*
X109885000Y-58461411D01*
X109885000Y-58188589D01*
X109831775Y-57921011D01*
X109727371Y-57668957D01*
X109575799Y-57442114D01*
X109382886Y-57249201D01*
X109156043Y-57097629D01*
X108903989Y-56993225D01*
X108636411Y-56940000D01*
X108363589Y-56940000D01*
X108096011Y-56993225D01*
X107843957Y-57097629D01*
X107617114Y-57249201D01*
X107424201Y-57442114D01*
X107272629Y-57668957D01*
X107168225Y-57921011D01*
X107115000Y-58188589D01*
X103189499Y-58188589D01*
X103055134Y-58024866D01*
X102829014Y-57839294D01*
X102774209Y-57810000D01*
X102829014Y-57780706D01*
X103055134Y-57595134D01*
X103240706Y-57369014D01*
X103378599Y-57111034D01*
X103463513Y-56831111D01*
X103492185Y-56540000D01*
X103463513Y-56248889D01*
X103378599Y-55968966D01*
X103240706Y-55710986D01*
X103055134Y-55484866D01*
X103027447Y-55462144D01*
X103035223Y-55460597D01*
X103150785Y-55412730D01*
X103254789Y-55343237D01*
X103343237Y-55254789D01*
X103412730Y-55150785D01*
X103460597Y-55035223D01*
X103485000Y-54912542D01*
X103485000Y-54285750D01*
X103326250Y-54127000D01*
X102127000Y-54127000D01*
X102127000Y-54147000D01*
X101873000Y-54147000D01*
X101873000Y-54127000D01*
X101853000Y-54127000D01*
X101853000Y-53898061D01*
X129465000Y-53898061D01*
X129465000Y-54101939D01*
X129504774Y-54301898D01*
X129582795Y-54490256D01*
X129696063Y-54659774D01*
X129840226Y-54803937D01*
X130009744Y-54917205D01*
X130198102Y-54995226D01*
X130398061Y-55035000D01*
X130601939Y-55035000D01*
X130801898Y-54995226D01*
X130990256Y-54917205D01*
X131159774Y-54803937D01*
X131303937Y-54659774D01*
X131375000Y-54553420D01*
X131446063Y-54659774D01*
X131590226Y-54803937D01*
X131759744Y-54917205D01*
X131948102Y-54995226D01*
X132148061Y-55035000D01*
X132351939Y-55035000D01*
X132551898Y-54995226D01*
X132740256Y-54917205D01*
X132909774Y-54803937D01*
X133053937Y-54659774D01*
X133167205Y-54490256D01*
X133245226Y-54301898D01*
X133285000Y-54101939D01*
X133285000Y-53898061D01*
X133245226Y-53698102D01*
X133167205Y-53509744D01*
X133053937Y-53340226D01*
X132909774Y-53196063D01*
X132740256Y-53082795D01*
X132551898Y-53004774D01*
X132351939Y-52965000D01*
X132148061Y-52965000D01*
X131948102Y-53004774D01*
X131759744Y-53082795D01*
X131590226Y-53196063D01*
X131446063Y-53340226D01*
X131375000Y-53446580D01*
X131303937Y-53340226D01*
X131159774Y-53196063D01*
X130990256Y-53082795D01*
X130801898Y-53004774D01*
X130601939Y-52965000D01*
X130398061Y-52965000D01*
X130198102Y-53004774D01*
X130009744Y-53082795D01*
X129840226Y-53196063D01*
X129696063Y-53340226D01*
X129582795Y-53509744D01*
X129504774Y-53698102D01*
X129465000Y-53898061D01*
X101853000Y-53898061D01*
X101853000Y-53873000D01*
X101873000Y-53873000D01*
X101873000Y-52673750D01*
X102127000Y-52673750D01*
X102127000Y-53873000D01*
X103326250Y-53873000D01*
X103485000Y-53714250D01*
X103485000Y-53087458D01*
X103460597Y-52964777D01*
X103412730Y-52849215D01*
X103343237Y-52745211D01*
X103254789Y-52656763D01*
X103150785Y-52587270D01*
X103035223Y-52539403D01*
X102912542Y-52515000D01*
X102285750Y-52515000D01*
X102127000Y-52673750D01*
X101873000Y-52673750D01*
X101714250Y-52515000D01*
X101087458Y-52515000D01*
X100964777Y-52539403D01*
X100849215Y-52587270D01*
X100745211Y-52656763D01*
X100660000Y-52741974D01*
X100660000Y-50660000D01*
X107278614Y-50660000D01*
X107272629Y-50668957D01*
%TD*%
M02*
