%TF.GenerationSoftware,KiCad,Pcbnew,(5.0.2)-1*%
%TF.CreationDate,2020-07-31T09:38:14+02:00*%
%TF.ProjectId,Multimeter_Watch_Board_V1,4d756c74-696d-4657-9465-725f57617463,rev?*%
%TF.SameCoordinates,Original*%
%TF.FileFunction,Soldermask,Top*%
%TF.FilePolarity,Negative*%
%FSLAX46Y46*%
G04 Gerber Fmt 4.6, Leading zero omitted, Abs format (unit mm)*
G04 Created by KiCad (PCBNEW (5.0.2)-1) date 31.7.2020 9:38:14*
%MOMM*%
%LPD*%
G01*
G04 APERTURE LIST*
%ADD10C,0.100000*%
G04 APERTURE END LIST*
D10*
G36*
X153176432Y-91213022D02*
X153346081Y-91264485D01*
X153502433Y-91348056D01*
X153639475Y-91460525D01*
X153751944Y-91597567D01*
X153835515Y-91753919D01*
X153886978Y-91923568D01*
X153904354Y-92100000D01*
X153886978Y-92276432D01*
X153835515Y-92446081D01*
X153751944Y-92602433D01*
X153639475Y-92739475D01*
X153502433Y-92851944D01*
X153346081Y-92935515D01*
X153176432Y-92986978D01*
X153044211Y-93000000D01*
X152955789Y-93000000D01*
X152823568Y-92986978D01*
X152653919Y-92935515D01*
X152497567Y-92851944D01*
X152360525Y-92739475D01*
X152248056Y-92602433D01*
X152164485Y-92446081D01*
X152113022Y-92276432D01*
X152095646Y-92100000D01*
X152113022Y-91923568D01*
X152164485Y-91753919D01*
X152248056Y-91597567D01*
X152360525Y-91460525D01*
X152497567Y-91348056D01*
X152653919Y-91264485D01*
X152823568Y-91213022D01*
X152955789Y-91200000D01*
X153044211Y-91200000D01*
X153176432Y-91213022D01*
X153176432Y-91213022D01*
G37*
G36*
X102176432Y-91213022D02*
X102346081Y-91264485D01*
X102502433Y-91348056D01*
X102639475Y-91460525D01*
X102751944Y-91597567D01*
X102835515Y-91753919D01*
X102886978Y-91923568D01*
X102904354Y-92100000D01*
X102886978Y-92276432D01*
X102835515Y-92446081D01*
X102751944Y-92602433D01*
X102639475Y-92739475D01*
X102502433Y-92851944D01*
X102346081Y-92935515D01*
X102176432Y-92986978D01*
X102044211Y-93000000D01*
X101955789Y-93000000D01*
X101823568Y-92986978D01*
X101653919Y-92935515D01*
X101497567Y-92851944D01*
X101360525Y-92739475D01*
X101248056Y-92602433D01*
X101164485Y-92446081D01*
X101113022Y-92276432D01*
X101095646Y-92100000D01*
X101113022Y-91923568D01*
X101164485Y-91753919D01*
X101248056Y-91597567D01*
X101360525Y-91460525D01*
X101497567Y-91348056D01*
X101653919Y-91264485D01*
X101823568Y-91213022D01*
X101955789Y-91200000D01*
X102044211Y-91200000D01*
X102176432Y-91213022D01*
X102176432Y-91213022D01*
G37*
G36*
X147125000Y-92055000D02*
X145475000Y-92055000D01*
X145475000Y-91355000D01*
X147125000Y-91355000D01*
X147125000Y-92055000D01*
X147125000Y-92055000D01*
G37*
G36*
X141725000Y-92055000D02*
X140075000Y-92055000D01*
X140075000Y-91355000D01*
X141725000Y-91355000D01*
X141725000Y-92055000D01*
X141725000Y-92055000D01*
G37*
G36*
X141725000Y-90785000D02*
X140075000Y-90785000D01*
X140075000Y-90085000D01*
X141725000Y-90085000D01*
X141725000Y-90785000D01*
X141725000Y-90785000D01*
G37*
G36*
X147125000Y-90785000D02*
X145475000Y-90785000D01*
X145475000Y-90085000D01*
X147125000Y-90085000D01*
X147125000Y-90785000D01*
X147125000Y-90785000D01*
G37*
G36*
X153176432Y-88673022D02*
X153346081Y-88724485D01*
X153502433Y-88808056D01*
X153639475Y-88920525D01*
X153751944Y-89057567D01*
X153835515Y-89213919D01*
X153886978Y-89383568D01*
X153904354Y-89560000D01*
X153886978Y-89736432D01*
X153835515Y-89906081D01*
X153751944Y-90062433D01*
X153639475Y-90199475D01*
X153502433Y-90311944D01*
X153346081Y-90395515D01*
X153176432Y-90446978D01*
X153044211Y-90460000D01*
X152955789Y-90460000D01*
X152823568Y-90446978D01*
X152653919Y-90395515D01*
X152497567Y-90311944D01*
X152360525Y-90199475D01*
X152248056Y-90062433D01*
X152164485Y-89906081D01*
X152113022Y-89736432D01*
X152095646Y-89560000D01*
X152113022Y-89383568D01*
X152164485Y-89213919D01*
X152248056Y-89057567D01*
X152360525Y-88920525D01*
X152497567Y-88808056D01*
X152653919Y-88724485D01*
X152823568Y-88673022D01*
X152955789Y-88660000D01*
X153044211Y-88660000D01*
X153176432Y-88673022D01*
X153176432Y-88673022D01*
G37*
G36*
X102176432Y-88673022D02*
X102346081Y-88724485D01*
X102502433Y-88808056D01*
X102639475Y-88920525D01*
X102751944Y-89057567D01*
X102835515Y-89213919D01*
X102886978Y-89383568D01*
X102904354Y-89560000D01*
X102886978Y-89736432D01*
X102835515Y-89906081D01*
X102751944Y-90062433D01*
X102639475Y-90199475D01*
X102502433Y-90311944D01*
X102346081Y-90395515D01*
X102176432Y-90446978D01*
X102044211Y-90460000D01*
X101955789Y-90460000D01*
X101823568Y-90446978D01*
X101653919Y-90395515D01*
X101497567Y-90311944D01*
X101360525Y-90199475D01*
X101248056Y-90062433D01*
X101164485Y-89906081D01*
X101113022Y-89736432D01*
X101095646Y-89560000D01*
X101113022Y-89383568D01*
X101164485Y-89213919D01*
X101248056Y-89057567D01*
X101360525Y-88920525D01*
X101497567Y-88808056D01*
X101653919Y-88724485D01*
X101823568Y-88673022D01*
X101955789Y-88660000D01*
X102044211Y-88660000D01*
X102176432Y-88673022D01*
X102176432Y-88673022D01*
G37*
G36*
X138450000Y-90300000D02*
X136550000Y-90300000D01*
X136550000Y-89200000D01*
X138450000Y-89200000D01*
X138450000Y-90300000D01*
X138450000Y-90300000D01*
G37*
G36*
X121268103Y-88829825D02*
X121305514Y-88841173D01*
X121339979Y-88859595D01*
X121374976Y-88888316D01*
X121825898Y-89339238D01*
X121854619Y-89374235D01*
X121873041Y-89408700D01*
X121884389Y-89446111D01*
X121888220Y-89485009D01*
X121884389Y-89523907D01*
X121873041Y-89561318D01*
X121854619Y-89595783D01*
X121825898Y-89630780D01*
X121304266Y-90152412D01*
X121269269Y-90181133D01*
X121234804Y-90199555D01*
X121197393Y-90210903D01*
X121158495Y-90214734D01*
X121119597Y-90210903D01*
X121082186Y-90199555D01*
X121047721Y-90181133D01*
X121012724Y-90152412D01*
X120561802Y-89701490D01*
X120533081Y-89666493D01*
X120514659Y-89632028D01*
X120503311Y-89594617D01*
X120499480Y-89555719D01*
X120503311Y-89516821D01*
X120514659Y-89479410D01*
X120533081Y-89444945D01*
X120561802Y-89409948D01*
X121083434Y-88888316D01*
X121118431Y-88859595D01*
X121152896Y-88841173D01*
X121190307Y-88829825D01*
X121229205Y-88825994D01*
X121268103Y-88829825D01*
X121268103Y-88829825D01*
G37*
G36*
X141725000Y-89515000D02*
X140075000Y-89515000D01*
X140075000Y-88815000D01*
X141725000Y-88815000D01*
X141725000Y-89515000D01*
X141725000Y-89515000D01*
G37*
G36*
X120278238Y-87839791D02*
X120315649Y-87851139D01*
X120350114Y-87869561D01*
X120385111Y-87898282D01*
X120836033Y-88349204D01*
X120864754Y-88384201D01*
X120883176Y-88418666D01*
X120894524Y-88456077D01*
X120898355Y-88494975D01*
X120894524Y-88533873D01*
X120883176Y-88571284D01*
X120864754Y-88605749D01*
X120836033Y-88640746D01*
X120314401Y-89162378D01*
X120279404Y-89191099D01*
X120244939Y-89209521D01*
X120207528Y-89220869D01*
X120168630Y-89224700D01*
X120129732Y-89220869D01*
X120092321Y-89209521D01*
X120057856Y-89191099D01*
X120022859Y-89162378D01*
X119571937Y-88711456D01*
X119543216Y-88676459D01*
X119524794Y-88641994D01*
X119513446Y-88604583D01*
X119509615Y-88565685D01*
X119513446Y-88526787D01*
X119524794Y-88489376D01*
X119543216Y-88454911D01*
X119571937Y-88419914D01*
X120093569Y-87898282D01*
X120128566Y-87869561D01*
X120163031Y-87851139D01*
X120200442Y-87839791D01*
X120239340Y-87835960D01*
X120278238Y-87839791D01*
X120278238Y-87839791D01*
G37*
G36*
X122505539Y-87592389D02*
X122542950Y-87603737D01*
X122577415Y-87622159D01*
X122612412Y-87650880D01*
X123063334Y-88101802D01*
X123092055Y-88136799D01*
X123110477Y-88171264D01*
X123121825Y-88208675D01*
X123125656Y-88247573D01*
X123121825Y-88286471D01*
X123110477Y-88323882D01*
X123092055Y-88358347D01*
X123063334Y-88393344D01*
X122541702Y-88914976D01*
X122506705Y-88943697D01*
X122472240Y-88962119D01*
X122434829Y-88973467D01*
X122395931Y-88977298D01*
X122357033Y-88973467D01*
X122319622Y-88962119D01*
X122285157Y-88943697D01*
X122250160Y-88914976D01*
X121799238Y-88464054D01*
X121770517Y-88429057D01*
X121752095Y-88394592D01*
X121740747Y-88357181D01*
X121736916Y-88318283D01*
X121740747Y-88279385D01*
X121752095Y-88241974D01*
X121770517Y-88207509D01*
X121799238Y-88172512D01*
X122320870Y-87650880D01*
X122355867Y-87622159D01*
X122390332Y-87603737D01*
X122427743Y-87592389D01*
X122466641Y-87588558D01*
X122505539Y-87592389D01*
X122505539Y-87592389D01*
G37*
G36*
X141725000Y-88245000D02*
X140075000Y-88245000D01*
X140075000Y-87545000D01*
X141725000Y-87545000D01*
X141725000Y-88245000D01*
X141725000Y-88245000D01*
G37*
G36*
X147125000Y-88245000D02*
X145475000Y-88245000D01*
X145475000Y-87545000D01*
X147125000Y-87545000D01*
X147125000Y-88245000D01*
X147125000Y-88245000D01*
G37*
G36*
X121515674Y-86602355D02*
X121553085Y-86613703D01*
X121587550Y-86632125D01*
X121622547Y-86660846D01*
X122073469Y-87111768D01*
X122102190Y-87146765D01*
X122120612Y-87181230D01*
X122131960Y-87218641D01*
X122135791Y-87257539D01*
X122131960Y-87296437D01*
X122120612Y-87333848D01*
X122102190Y-87368313D01*
X122073469Y-87403310D01*
X121551837Y-87924942D01*
X121516840Y-87953663D01*
X121482375Y-87972085D01*
X121444964Y-87983433D01*
X121406066Y-87987264D01*
X121367168Y-87983433D01*
X121329757Y-87972085D01*
X121295292Y-87953663D01*
X121260295Y-87924942D01*
X120809373Y-87474020D01*
X120780652Y-87439023D01*
X120762230Y-87404558D01*
X120750882Y-87367147D01*
X120747051Y-87328249D01*
X120750882Y-87289351D01*
X120762230Y-87251940D01*
X120780652Y-87217475D01*
X120809373Y-87182478D01*
X121331005Y-86660846D01*
X121366002Y-86632125D01*
X121400467Y-86613703D01*
X121437878Y-86602355D01*
X121476776Y-86598524D01*
X121515674Y-86602355D01*
X121515674Y-86602355D01*
G37*
G36*
X153176432Y-86133022D02*
X153346081Y-86184485D01*
X153502433Y-86268056D01*
X153639475Y-86380525D01*
X153751944Y-86517567D01*
X153835515Y-86673919D01*
X153886978Y-86843568D01*
X153904354Y-87020000D01*
X153886978Y-87196432D01*
X153835515Y-87366081D01*
X153751944Y-87522433D01*
X153639475Y-87659475D01*
X153502433Y-87771944D01*
X153346081Y-87855515D01*
X153176432Y-87906978D01*
X153044211Y-87920000D01*
X152955789Y-87920000D01*
X152823568Y-87906978D01*
X152653919Y-87855515D01*
X152497567Y-87771944D01*
X152360525Y-87659475D01*
X152248056Y-87522433D01*
X152164485Y-87366081D01*
X152113022Y-87196432D01*
X152095646Y-87020000D01*
X152113022Y-86843568D01*
X152164485Y-86673919D01*
X152248056Y-86517567D01*
X152360525Y-86380525D01*
X152497567Y-86268056D01*
X152653919Y-86184485D01*
X152823568Y-86133022D01*
X152955789Y-86120000D01*
X153044211Y-86120000D01*
X153176432Y-86133022D01*
X153176432Y-86133022D01*
G37*
G36*
X102176432Y-86133022D02*
X102346081Y-86184485D01*
X102502433Y-86268056D01*
X102639475Y-86380525D01*
X102751944Y-86517567D01*
X102835515Y-86673919D01*
X102886978Y-86843568D01*
X102904354Y-87020000D01*
X102886978Y-87196432D01*
X102835515Y-87366081D01*
X102751944Y-87522433D01*
X102639475Y-87659475D01*
X102502433Y-87771944D01*
X102346081Y-87855515D01*
X102176432Y-87906978D01*
X102044211Y-87920000D01*
X101955789Y-87920000D01*
X101823568Y-87906978D01*
X101653919Y-87855515D01*
X101497567Y-87771944D01*
X101360525Y-87659475D01*
X101248056Y-87522433D01*
X101164485Y-87366081D01*
X101113022Y-87196432D01*
X101095646Y-87020000D01*
X101113022Y-86843568D01*
X101164485Y-86673919D01*
X101248056Y-86517567D01*
X101360525Y-86380525D01*
X101497567Y-86268056D01*
X101653919Y-86184485D01*
X101823568Y-86133022D01*
X101955789Y-86120000D01*
X102044211Y-86120000D01*
X102176432Y-86133022D01*
X102176432Y-86133022D01*
G37*
G36*
X138450000Y-87800000D02*
X136550000Y-87800000D01*
X136550000Y-86700000D01*
X138450000Y-86700000D01*
X138450000Y-87800000D01*
X138450000Y-87800000D01*
G37*
G36*
X143163898Y-85679436D02*
X143201309Y-85690784D01*
X143235774Y-85709206D01*
X143265994Y-85734006D01*
X143290794Y-85764226D01*
X143309216Y-85798691D01*
X143320564Y-85836102D01*
X143325000Y-85881141D01*
X143325000Y-86518859D01*
X143320564Y-86563898D01*
X143309216Y-86601309D01*
X143290794Y-86635774D01*
X143265994Y-86665994D01*
X143235774Y-86690794D01*
X143201309Y-86709216D01*
X143163898Y-86720564D01*
X143118859Y-86725000D01*
X142381141Y-86725000D01*
X142336102Y-86720564D01*
X142298691Y-86709216D01*
X142264226Y-86690794D01*
X142234006Y-86665994D01*
X142209206Y-86635774D01*
X142190784Y-86601309D01*
X142179436Y-86563898D01*
X142175000Y-86518859D01*
X142175000Y-85881141D01*
X142179436Y-85836102D01*
X142190784Y-85798691D01*
X142209206Y-85764226D01*
X142234006Y-85734006D01*
X142264226Y-85709206D01*
X142298691Y-85690784D01*
X142336102Y-85679436D01*
X142381141Y-85675000D01*
X143118859Y-85675000D01*
X143163898Y-85679436D01*
X143163898Y-85679436D01*
G37*
G36*
X144913898Y-85679436D02*
X144951309Y-85690784D01*
X144985774Y-85709206D01*
X145015994Y-85734006D01*
X145040794Y-85764226D01*
X145059216Y-85798691D01*
X145070564Y-85836102D01*
X145075000Y-85881141D01*
X145075000Y-86518859D01*
X145070564Y-86563898D01*
X145059216Y-86601309D01*
X145040794Y-86635774D01*
X145015994Y-86665994D01*
X144985774Y-86690794D01*
X144951309Y-86709216D01*
X144913898Y-86720564D01*
X144868859Y-86725000D01*
X144131141Y-86725000D01*
X144086102Y-86720564D01*
X144048691Y-86709216D01*
X144014226Y-86690794D01*
X143984006Y-86665994D01*
X143959206Y-86635774D01*
X143940784Y-86601309D01*
X143929436Y-86563898D01*
X143925000Y-86518859D01*
X143925000Y-85881141D01*
X143929436Y-85836102D01*
X143940784Y-85798691D01*
X143959206Y-85764226D01*
X143984006Y-85734006D01*
X144014226Y-85709206D01*
X144048691Y-85690784D01*
X144086102Y-85679436D01*
X144131141Y-85675000D01*
X144868859Y-85675000D01*
X144913898Y-85679436D01*
X144913898Y-85679436D01*
G37*
G36*
X123625000Y-85600000D02*
X117375000Y-85600000D01*
X117375000Y-83900000D01*
X123625000Y-83900000D01*
X123625000Y-85600000D01*
X123625000Y-85600000D01*
G37*
G36*
X153176432Y-83593022D02*
X153346081Y-83644485D01*
X153502433Y-83728056D01*
X153639475Y-83840525D01*
X153751944Y-83977567D01*
X153835515Y-84133919D01*
X153886978Y-84303568D01*
X153904354Y-84480000D01*
X153886978Y-84656432D01*
X153835515Y-84826081D01*
X153751944Y-84982433D01*
X153639475Y-85119475D01*
X153502433Y-85231944D01*
X153346081Y-85315515D01*
X153176432Y-85366978D01*
X153044211Y-85380000D01*
X152955789Y-85380000D01*
X152823568Y-85366978D01*
X152653919Y-85315515D01*
X152497567Y-85231944D01*
X152360525Y-85119475D01*
X152248056Y-84982433D01*
X152164485Y-84826081D01*
X152113022Y-84656432D01*
X152095646Y-84480000D01*
X152113022Y-84303568D01*
X152164485Y-84133919D01*
X152248056Y-83977567D01*
X152360525Y-83840525D01*
X152497567Y-83728056D01*
X152653919Y-83644485D01*
X152823568Y-83593022D01*
X152955789Y-83580000D01*
X153044211Y-83580000D01*
X153176432Y-83593022D01*
X153176432Y-83593022D01*
G37*
G36*
X102176432Y-83593022D02*
X102346081Y-83644485D01*
X102502433Y-83728056D01*
X102639475Y-83840525D01*
X102751944Y-83977567D01*
X102835515Y-84133919D01*
X102886978Y-84303568D01*
X102904354Y-84480000D01*
X102886978Y-84656432D01*
X102835515Y-84826081D01*
X102751944Y-84982433D01*
X102639475Y-85119475D01*
X102502433Y-85231944D01*
X102346081Y-85315515D01*
X102176432Y-85366978D01*
X102044211Y-85380000D01*
X101955789Y-85380000D01*
X101823568Y-85366978D01*
X101653919Y-85315515D01*
X101497567Y-85231944D01*
X101360525Y-85119475D01*
X101248056Y-84982433D01*
X101164485Y-84826081D01*
X101113022Y-84656432D01*
X101095646Y-84480000D01*
X101113022Y-84303568D01*
X101164485Y-84133919D01*
X101248056Y-83977567D01*
X101360525Y-83840525D01*
X101497567Y-83728056D01*
X101653919Y-83644485D01*
X101823568Y-83593022D01*
X101955789Y-83580000D01*
X102044211Y-83580000D01*
X102176432Y-83593022D01*
X102176432Y-83593022D01*
G37*
G36*
X125600000Y-83625000D02*
X123900000Y-83625000D01*
X123900000Y-77375000D01*
X125600000Y-77375000D01*
X125600000Y-83625000D01*
X125600000Y-83625000D01*
G37*
G36*
X117100000Y-83625000D02*
X115400000Y-83625000D01*
X115400000Y-77375000D01*
X117100000Y-77375000D01*
X117100000Y-83625000D01*
X117100000Y-83625000D01*
G37*
G36*
X102176432Y-81053022D02*
X102346081Y-81104485D01*
X102502433Y-81188056D01*
X102639475Y-81300525D01*
X102751944Y-81437567D01*
X102835515Y-81593919D01*
X102886978Y-81763568D01*
X102904354Y-81940000D01*
X102886978Y-82116432D01*
X102835515Y-82286081D01*
X102751944Y-82442433D01*
X102639475Y-82579475D01*
X102502433Y-82691944D01*
X102346081Y-82775515D01*
X102176432Y-82826978D01*
X102044211Y-82840000D01*
X101955789Y-82840000D01*
X101823568Y-82826978D01*
X101653919Y-82775515D01*
X101497567Y-82691944D01*
X101360525Y-82579475D01*
X101248056Y-82442433D01*
X101164485Y-82286081D01*
X101113022Y-82116432D01*
X101095646Y-81940000D01*
X101113022Y-81763568D01*
X101164485Y-81593919D01*
X101248056Y-81437567D01*
X101360525Y-81300525D01*
X101497567Y-81188056D01*
X101653919Y-81104485D01*
X101823568Y-81053022D01*
X101955789Y-81040000D01*
X102044211Y-81040000D01*
X102176432Y-81053022D01*
X102176432Y-81053022D01*
G37*
G36*
X153176432Y-81053022D02*
X153346081Y-81104485D01*
X153502433Y-81188056D01*
X153639475Y-81300525D01*
X153751944Y-81437567D01*
X153835515Y-81593919D01*
X153886978Y-81763568D01*
X153904354Y-81940000D01*
X153886978Y-82116432D01*
X153835515Y-82286081D01*
X153751944Y-82442433D01*
X153639475Y-82579475D01*
X153502433Y-82691944D01*
X153346081Y-82775515D01*
X153176432Y-82826978D01*
X153044211Y-82840000D01*
X152955789Y-82840000D01*
X152823568Y-82826978D01*
X152653919Y-82775515D01*
X152497567Y-82691944D01*
X152360525Y-82579475D01*
X152248056Y-82442433D01*
X152164485Y-82286081D01*
X152113022Y-82116432D01*
X152095646Y-81940000D01*
X152113022Y-81763568D01*
X152164485Y-81593919D01*
X152248056Y-81437567D01*
X152360525Y-81300525D01*
X152497567Y-81188056D01*
X152653919Y-81104485D01*
X152823568Y-81053022D01*
X152955789Y-81040000D01*
X153044211Y-81040000D01*
X153176432Y-81053022D01*
X153176432Y-81053022D01*
G37*
G36*
X102176432Y-78513022D02*
X102346081Y-78564485D01*
X102502433Y-78648056D01*
X102639475Y-78760525D01*
X102751944Y-78897567D01*
X102835515Y-79053919D01*
X102886978Y-79223568D01*
X102904354Y-79400000D01*
X102886978Y-79576432D01*
X102835515Y-79746081D01*
X102751944Y-79902433D01*
X102639475Y-80039475D01*
X102502433Y-80151944D01*
X102346081Y-80235515D01*
X102176432Y-80286978D01*
X102044211Y-80300000D01*
X101955789Y-80300000D01*
X101823568Y-80286978D01*
X101653919Y-80235515D01*
X101497567Y-80151944D01*
X101360525Y-80039475D01*
X101248056Y-79902433D01*
X101164485Y-79746081D01*
X101113022Y-79576432D01*
X101095646Y-79400000D01*
X101113022Y-79223568D01*
X101164485Y-79053919D01*
X101248056Y-78897567D01*
X101360525Y-78760525D01*
X101497567Y-78648056D01*
X101653919Y-78564485D01*
X101823568Y-78513022D01*
X101955789Y-78500000D01*
X102044211Y-78500000D01*
X102176432Y-78513022D01*
X102176432Y-78513022D01*
G37*
G36*
X153176432Y-78513022D02*
X153346081Y-78564485D01*
X153502433Y-78648056D01*
X153639475Y-78760525D01*
X153751944Y-78897567D01*
X153835515Y-79053919D01*
X153886978Y-79223568D01*
X153904354Y-79400000D01*
X153886978Y-79576432D01*
X153835515Y-79746081D01*
X153751944Y-79902433D01*
X153639475Y-80039475D01*
X153502433Y-80151944D01*
X153346081Y-80235515D01*
X153176432Y-80286978D01*
X153044211Y-80300000D01*
X152955789Y-80300000D01*
X152823568Y-80286978D01*
X152653919Y-80235515D01*
X152497567Y-80151944D01*
X152360525Y-80039475D01*
X152248056Y-79902433D01*
X152164485Y-79746081D01*
X152113022Y-79576432D01*
X152095646Y-79400000D01*
X152113022Y-79223568D01*
X152164485Y-79053919D01*
X152248056Y-78897567D01*
X152360525Y-78760525D01*
X152497567Y-78648056D01*
X152653919Y-78564485D01*
X152823568Y-78513022D01*
X152955789Y-78500000D01*
X153044211Y-78500000D01*
X153176432Y-78513022D01*
X153176432Y-78513022D01*
G37*
G36*
X112363898Y-78179435D02*
X112401309Y-78190783D01*
X112435774Y-78209205D01*
X112465994Y-78234005D01*
X112490794Y-78264225D01*
X112509216Y-78298690D01*
X112520564Y-78336101D01*
X112525000Y-78381140D01*
X112525000Y-79118858D01*
X112520564Y-79163897D01*
X112509216Y-79201308D01*
X112490794Y-79235773D01*
X112465994Y-79265993D01*
X112435774Y-79290793D01*
X112401309Y-79309215D01*
X112363898Y-79320563D01*
X112318859Y-79324999D01*
X111681141Y-79324999D01*
X111636102Y-79320563D01*
X111598691Y-79309215D01*
X111564226Y-79290793D01*
X111534006Y-79265993D01*
X111509206Y-79235773D01*
X111490784Y-79201308D01*
X111479436Y-79163897D01*
X111475000Y-79118858D01*
X111475000Y-78381140D01*
X111479436Y-78336101D01*
X111490784Y-78298690D01*
X111509206Y-78264225D01*
X111534006Y-78234005D01*
X111564226Y-78209205D01*
X111598691Y-78190783D01*
X111636102Y-78179435D01*
X111681141Y-78174999D01*
X112318859Y-78174999D01*
X112363898Y-78179435D01*
X112363898Y-78179435D01*
G37*
G36*
X102176432Y-75973022D02*
X102346081Y-76024485D01*
X102502433Y-76108056D01*
X102639475Y-76220525D01*
X102751944Y-76357567D01*
X102835515Y-76513919D01*
X102886978Y-76683568D01*
X102904354Y-76860000D01*
X102886978Y-77036432D01*
X102835515Y-77206081D01*
X102751944Y-77362433D01*
X102639475Y-77499475D01*
X102502433Y-77611944D01*
X102346081Y-77695515D01*
X102176432Y-77746978D01*
X102044211Y-77760000D01*
X101955789Y-77760000D01*
X101823568Y-77746978D01*
X101653919Y-77695515D01*
X101497567Y-77611944D01*
X101360525Y-77499475D01*
X101248056Y-77362433D01*
X101164485Y-77206081D01*
X101113022Y-77036432D01*
X101095646Y-76860000D01*
X101113022Y-76683568D01*
X101164485Y-76513919D01*
X101248056Y-76357567D01*
X101360525Y-76220525D01*
X101497567Y-76108056D01*
X101653919Y-76024485D01*
X101823568Y-75973022D01*
X101955789Y-75960000D01*
X102044211Y-75960000D01*
X102176432Y-75973022D01*
X102176432Y-75973022D01*
G37*
G36*
X153176432Y-75973022D02*
X153346081Y-76024485D01*
X153502433Y-76108056D01*
X153639475Y-76220525D01*
X153751944Y-76357567D01*
X153835515Y-76513919D01*
X153886978Y-76683568D01*
X153904354Y-76860000D01*
X153886978Y-77036432D01*
X153835515Y-77206081D01*
X153751944Y-77362433D01*
X153639475Y-77499475D01*
X153502433Y-77611944D01*
X153346081Y-77695515D01*
X153176432Y-77746978D01*
X153044211Y-77760000D01*
X152955789Y-77760000D01*
X152823568Y-77746978D01*
X152653919Y-77695515D01*
X152497567Y-77611944D01*
X152360525Y-77499475D01*
X152248056Y-77362433D01*
X152164485Y-77206081D01*
X152113022Y-77036432D01*
X152095646Y-76860000D01*
X152113022Y-76683568D01*
X152164485Y-76513919D01*
X152248056Y-76357567D01*
X152360525Y-76220525D01*
X152497567Y-76108056D01*
X152653919Y-76024485D01*
X152823568Y-75973022D01*
X152955789Y-75960000D01*
X153044211Y-75960000D01*
X153176432Y-75973022D01*
X153176432Y-75973022D01*
G37*
G36*
X112363898Y-76429435D02*
X112401309Y-76440783D01*
X112435774Y-76459205D01*
X112465994Y-76484005D01*
X112490794Y-76514225D01*
X112509216Y-76548690D01*
X112520564Y-76586101D01*
X112525000Y-76631140D01*
X112525000Y-77368858D01*
X112520564Y-77413897D01*
X112509216Y-77451308D01*
X112490794Y-77485773D01*
X112465994Y-77515993D01*
X112435774Y-77540793D01*
X112401309Y-77559215D01*
X112363898Y-77570563D01*
X112318859Y-77574999D01*
X111681141Y-77574999D01*
X111636102Y-77570563D01*
X111598691Y-77559215D01*
X111564226Y-77540793D01*
X111534006Y-77515993D01*
X111509206Y-77485773D01*
X111490784Y-77451308D01*
X111479436Y-77413897D01*
X111475000Y-77368858D01*
X111475000Y-76631140D01*
X111479436Y-76586101D01*
X111490784Y-76548690D01*
X111509206Y-76514225D01*
X111534006Y-76484005D01*
X111564226Y-76459205D01*
X111598691Y-76440783D01*
X111636102Y-76429435D01*
X111681141Y-76424999D01*
X112318859Y-76424999D01*
X112363898Y-76429435D01*
X112363898Y-76429435D01*
G37*
G36*
X148538898Y-76479436D02*
X148576309Y-76490784D01*
X148610774Y-76509206D01*
X148640994Y-76534006D01*
X148665794Y-76564226D01*
X148684216Y-76598691D01*
X148695564Y-76636102D01*
X148700000Y-76681141D01*
X148700000Y-77318859D01*
X148695564Y-77363898D01*
X148684216Y-77401309D01*
X148665794Y-77435774D01*
X148640994Y-77465994D01*
X148610774Y-77490794D01*
X148576309Y-77509216D01*
X148538898Y-77520564D01*
X148493859Y-77525000D01*
X147756141Y-77525000D01*
X147711102Y-77520564D01*
X147673691Y-77509216D01*
X147639226Y-77490794D01*
X147609006Y-77465994D01*
X147584206Y-77435774D01*
X147565784Y-77401309D01*
X147554436Y-77363898D01*
X147550000Y-77318859D01*
X147550000Y-76681141D01*
X147554436Y-76636102D01*
X147565784Y-76598691D01*
X147584206Y-76564226D01*
X147609006Y-76534006D01*
X147639226Y-76509206D01*
X147673691Y-76490784D01*
X147711102Y-76479436D01*
X147756141Y-76475000D01*
X148493859Y-76475000D01*
X148538898Y-76479436D01*
X148538898Y-76479436D01*
G37*
G36*
X150288898Y-76479436D02*
X150326309Y-76490784D01*
X150360774Y-76509206D01*
X150390994Y-76534006D01*
X150415794Y-76564226D01*
X150434216Y-76598691D01*
X150445564Y-76636102D01*
X150450000Y-76681141D01*
X150450000Y-77318859D01*
X150445564Y-77363898D01*
X150434216Y-77401309D01*
X150415794Y-77435774D01*
X150390994Y-77465994D01*
X150360774Y-77490794D01*
X150326309Y-77509216D01*
X150288898Y-77520564D01*
X150243859Y-77525000D01*
X149506141Y-77525000D01*
X149461102Y-77520564D01*
X149423691Y-77509216D01*
X149389226Y-77490794D01*
X149359006Y-77465994D01*
X149334206Y-77435774D01*
X149315784Y-77401309D01*
X149304436Y-77363898D01*
X149300000Y-77318859D01*
X149300000Y-76681141D01*
X149304436Y-76636102D01*
X149315784Y-76598691D01*
X149334206Y-76564226D01*
X149359006Y-76534006D01*
X149389226Y-76509206D01*
X149423691Y-76490784D01*
X149461102Y-76479436D01*
X149506141Y-76475000D01*
X150243859Y-76475000D01*
X150288898Y-76479436D01*
X150288898Y-76479436D01*
G37*
G36*
X123625000Y-77100000D02*
X117375000Y-77100000D01*
X117375000Y-75400000D01*
X123625000Y-75400000D01*
X123625000Y-77100000D01*
X123625000Y-77100000D01*
G37*
G36*
X133424937Y-75393649D02*
X133462348Y-75404997D01*
X133496813Y-75423419D01*
X133527033Y-75448219D01*
X133551833Y-75478439D01*
X133570255Y-75512904D01*
X133581603Y-75550315D01*
X133586039Y-75595354D01*
X133586039Y-76233072D01*
X133581603Y-76278111D01*
X133570255Y-76315522D01*
X133551833Y-76349987D01*
X133527033Y-76380207D01*
X133496813Y-76405007D01*
X133462348Y-76423429D01*
X133424937Y-76434777D01*
X133379898Y-76439213D01*
X132642180Y-76439213D01*
X132597141Y-76434777D01*
X132559730Y-76423429D01*
X132525265Y-76405007D01*
X132495045Y-76380207D01*
X132470245Y-76349987D01*
X132451823Y-76315522D01*
X132440475Y-76278111D01*
X132436039Y-76233072D01*
X132436039Y-75595354D01*
X132440475Y-75550315D01*
X132451823Y-75512904D01*
X132470245Y-75478439D01*
X132495045Y-75448219D01*
X132525265Y-75423419D01*
X132559730Y-75404997D01*
X132597141Y-75393649D01*
X132642180Y-75389213D01*
X133379898Y-75389213D01*
X133424937Y-75393649D01*
X133424937Y-75393649D01*
G37*
G36*
X131674937Y-75393649D02*
X131712348Y-75404997D01*
X131746813Y-75423419D01*
X131777033Y-75448219D01*
X131801833Y-75478439D01*
X131820255Y-75512904D01*
X131831603Y-75550315D01*
X131836039Y-75595354D01*
X131836039Y-76233072D01*
X131831603Y-76278111D01*
X131820255Y-76315522D01*
X131801833Y-76349987D01*
X131777033Y-76380207D01*
X131746813Y-76405007D01*
X131712348Y-76423429D01*
X131674937Y-76434777D01*
X131629898Y-76439213D01*
X130892180Y-76439213D01*
X130847141Y-76434777D01*
X130809730Y-76423429D01*
X130775265Y-76405007D01*
X130745045Y-76380207D01*
X130720245Y-76349987D01*
X130701823Y-76315522D01*
X130690475Y-76278111D01*
X130686039Y-76233072D01*
X130686039Y-75595354D01*
X130690475Y-75550315D01*
X130701823Y-75512904D01*
X130720245Y-75478439D01*
X130745045Y-75448219D01*
X130775265Y-75423419D01*
X130809730Y-75404997D01*
X130847141Y-75393649D01*
X130892180Y-75389213D01*
X131629898Y-75389213D01*
X131674937Y-75393649D01*
X131674937Y-75393649D01*
G37*
G36*
X150288898Y-74479436D02*
X150326309Y-74490784D01*
X150360774Y-74509206D01*
X150390994Y-74534006D01*
X150415794Y-74564226D01*
X150434216Y-74598691D01*
X150445564Y-74636102D01*
X150450000Y-74681141D01*
X150450000Y-75318859D01*
X150445564Y-75363898D01*
X150434216Y-75401309D01*
X150415794Y-75435774D01*
X150390994Y-75465994D01*
X150360774Y-75490794D01*
X150326309Y-75509216D01*
X150288898Y-75520564D01*
X150243859Y-75525000D01*
X149506141Y-75525000D01*
X149461102Y-75520564D01*
X149423691Y-75509216D01*
X149389226Y-75490794D01*
X149359006Y-75465994D01*
X149334206Y-75435774D01*
X149315784Y-75401309D01*
X149304436Y-75363898D01*
X149300000Y-75318859D01*
X149300000Y-74681141D01*
X149304436Y-74636102D01*
X149315784Y-74598691D01*
X149334206Y-74564226D01*
X149359006Y-74534006D01*
X149389226Y-74509206D01*
X149423691Y-74490784D01*
X149461102Y-74479436D01*
X149506141Y-74475000D01*
X150243859Y-74475000D01*
X150288898Y-74479436D01*
X150288898Y-74479436D01*
G37*
G36*
X148538898Y-74479436D02*
X148576309Y-74490784D01*
X148610774Y-74509206D01*
X148640994Y-74534006D01*
X148665794Y-74564226D01*
X148684216Y-74598691D01*
X148695564Y-74636102D01*
X148700000Y-74681141D01*
X148700000Y-75318859D01*
X148695564Y-75363898D01*
X148684216Y-75401309D01*
X148665794Y-75435774D01*
X148640994Y-75465994D01*
X148610774Y-75490794D01*
X148576309Y-75509216D01*
X148538898Y-75520564D01*
X148493859Y-75525000D01*
X147756141Y-75525000D01*
X147711102Y-75520564D01*
X147673691Y-75509216D01*
X147639226Y-75490794D01*
X147609006Y-75465994D01*
X147584206Y-75435774D01*
X147565784Y-75401309D01*
X147554436Y-75363898D01*
X147550000Y-75318859D01*
X147550000Y-74681141D01*
X147554436Y-74636102D01*
X147565784Y-74598691D01*
X147584206Y-74564226D01*
X147609006Y-74534006D01*
X147639226Y-74509206D01*
X147673691Y-74490784D01*
X147711102Y-74479436D01*
X147756141Y-74475000D01*
X148493859Y-74475000D01*
X148538898Y-74479436D01*
X148538898Y-74479436D01*
G37*
G36*
X153176432Y-73433022D02*
X153346081Y-73484485D01*
X153502433Y-73568056D01*
X153639475Y-73680525D01*
X153751944Y-73817567D01*
X153835515Y-73973919D01*
X153886978Y-74143568D01*
X153904354Y-74320000D01*
X153886978Y-74496432D01*
X153835515Y-74666081D01*
X153751944Y-74822433D01*
X153639475Y-74959475D01*
X153502433Y-75071944D01*
X153346081Y-75155515D01*
X153176432Y-75206978D01*
X153044211Y-75220000D01*
X152955789Y-75220000D01*
X152823568Y-75206978D01*
X152653919Y-75155515D01*
X152497567Y-75071944D01*
X152360525Y-74959475D01*
X152248056Y-74822433D01*
X152164485Y-74666081D01*
X152113022Y-74496432D01*
X152095646Y-74320000D01*
X152113022Y-74143568D01*
X152164485Y-73973919D01*
X152248056Y-73817567D01*
X152360525Y-73680525D01*
X152497567Y-73568056D01*
X152653919Y-73484485D01*
X152823568Y-73433022D01*
X152955789Y-73420000D01*
X153044211Y-73420000D01*
X153176432Y-73433022D01*
X153176432Y-73433022D01*
G37*
G36*
X102176432Y-73433022D02*
X102346081Y-73484485D01*
X102502433Y-73568056D01*
X102639475Y-73680525D01*
X102751944Y-73817567D01*
X102835515Y-73973919D01*
X102886978Y-74143568D01*
X102904354Y-74320000D01*
X102886978Y-74496432D01*
X102835515Y-74666081D01*
X102751944Y-74822433D01*
X102639475Y-74959475D01*
X102502433Y-75071944D01*
X102346081Y-75155515D01*
X102176432Y-75206978D01*
X102044211Y-75220000D01*
X101955789Y-75220000D01*
X101823568Y-75206978D01*
X101653919Y-75155515D01*
X101497567Y-75071944D01*
X101360525Y-74959475D01*
X101248056Y-74822433D01*
X101164485Y-74666081D01*
X101113022Y-74496432D01*
X101095646Y-74320000D01*
X101113022Y-74143568D01*
X101164485Y-73973919D01*
X101248056Y-73817567D01*
X101360525Y-73680525D01*
X101497567Y-73568056D01*
X101653919Y-73484485D01*
X101823568Y-73433022D01*
X101955789Y-73420000D01*
X102044211Y-73420000D01*
X102176432Y-73433022D01*
X102176432Y-73433022D01*
G37*
G36*
X106898024Y-73549457D02*
X106935635Y-73560866D01*
X106970299Y-73579394D01*
X107000676Y-73604324D01*
X107025606Y-73634701D01*
X107044134Y-73669365D01*
X107055543Y-73706976D01*
X107060000Y-73752227D01*
X107060000Y-74837773D01*
X107055543Y-74883024D01*
X107044134Y-74920635D01*
X107025606Y-74955299D01*
X107000676Y-74985676D01*
X106970299Y-75010606D01*
X106935635Y-75029134D01*
X106898024Y-75040543D01*
X106852773Y-75045000D01*
X106017227Y-75045000D01*
X105971976Y-75040543D01*
X105934365Y-75029134D01*
X105899701Y-75010606D01*
X105869324Y-74985676D01*
X105844394Y-74955299D01*
X105825866Y-74920635D01*
X105814457Y-74883024D01*
X105810000Y-74837773D01*
X105810000Y-73752227D01*
X105814457Y-73706976D01*
X105825866Y-73669365D01*
X105844394Y-73634701D01*
X105869324Y-73604324D01*
X105899701Y-73579394D01*
X105934365Y-73560866D01*
X105971976Y-73549457D01*
X106017227Y-73545000D01*
X106852773Y-73545000D01*
X106898024Y-73549457D01*
X106898024Y-73549457D01*
G37*
G36*
X104848024Y-73549457D02*
X104885635Y-73560866D01*
X104920299Y-73579394D01*
X104950676Y-73604324D01*
X104975606Y-73634701D01*
X104994134Y-73669365D01*
X105005543Y-73706976D01*
X105010000Y-73752227D01*
X105010000Y-74837773D01*
X105005543Y-74883024D01*
X104994134Y-74920635D01*
X104975606Y-74955299D01*
X104950676Y-74985676D01*
X104920299Y-75010606D01*
X104885635Y-75029134D01*
X104848024Y-75040543D01*
X104802773Y-75045000D01*
X103967227Y-75045000D01*
X103921976Y-75040543D01*
X103884365Y-75029134D01*
X103849701Y-75010606D01*
X103819324Y-74985676D01*
X103794394Y-74955299D01*
X103775866Y-74920635D01*
X103764457Y-74883024D01*
X103760000Y-74837773D01*
X103760000Y-73752227D01*
X103764457Y-73706976D01*
X103775866Y-73669365D01*
X103794394Y-73634701D01*
X103819324Y-73604324D01*
X103849701Y-73579394D01*
X103884365Y-73560866D01*
X103921976Y-73549457D01*
X103967227Y-73545000D01*
X104802773Y-73545000D01*
X104848024Y-73549457D01*
X104848024Y-73549457D01*
G37*
G36*
X133424938Y-73469029D02*
X133462349Y-73480377D01*
X133496814Y-73498799D01*
X133527034Y-73523599D01*
X133551834Y-73553819D01*
X133570256Y-73588284D01*
X133581604Y-73625695D01*
X133586040Y-73670734D01*
X133586040Y-74308452D01*
X133581604Y-74353491D01*
X133570256Y-74390902D01*
X133551834Y-74425367D01*
X133527034Y-74455587D01*
X133496814Y-74480387D01*
X133462349Y-74498809D01*
X133424938Y-74510157D01*
X133379899Y-74514593D01*
X132642181Y-74514593D01*
X132597142Y-74510157D01*
X132559731Y-74498809D01*
X132525266Y-74480387D01*
X132495046Y-74455587D01*
X132470246Y-74425367D01*
X132451824Y-74390902D01*
X132440476Y-74353491D01*
X132436040Y-74308452D01*
X132436040Y-73670734D01*
X132440476Y-73625695D01*
X132451824Y-73588284D01*
X132470246Y-73553819D01*
X132495046Y-73523599D01*
X132525266Y-73498799D01*
X132559731Y-73480377D01*
X132597142Y-73469029D01*
X132642181Y-73464593D01*
X133379899Y-73464593D01*
X133424938Y-73469029D01*
X133424938Y-73469029D01*
G37*
G36*
X131674938Y-73469029D02*
X131712349Y-73480377D01*
X131746814Y-73498799D01*
X131777034Y-73523599D01*
X131801834Y-73553819D01*
X131820256Y-73588284D01*
X131831604Y-73625695D01*
X131836040Y-73670734D01*
X131836040Y-74308452D01*
X131831604Y-74353491D01*
X131820256Y-74390902D01*
X131801834Y-74425367D01*
X131777034Y-74455587D01*
X131746814Y-74480387D01*
X131712349Y-74498809D01*
X131674938Y-74510157D01*
X131629899Y-74514593D01*
X130892181Y-74514593D01*
X130847142Y-74510157D01*
X130809731Y-74498809D01*
X130775266Y-74480387D01*
X130745046Y-74455587D01*
X130720246Y-74425367D01*
X130701824Y-74390902D01*
X130690476Y-74353491D01*
X130686040Y-74308452D01*
X130686040Y-73670734D01*
X130690476Y-73625695D01*
X130701824Y-73588284D01*
X130720246Y-73553819D01*
X130745046Y-73523599D01*
X130775266Y-73498799D01*
X130809731Y-73480377D01*
X130847142Y-73469029D01*
X130892181Y-73464593D01*
X131629899Y-73464593D01*
X131674938Y-73469029D01*
X131674938Y-73469029D01*
G37*
G36*
X153176432Y-70893022D02*
X153346081Y-70944485D01*
X153502433Y-71028056D01*
X153639475Y-71140525D01*
X153751944Y-71277567D01*
X153835515Y-71433919D01*
X153886978Y-71603568D01*
X153904354Y-71780000D01*
X153886978Y-71956432D01*
X153835515Y-72126081D01*
X153751944Y-72282433D01*
X153639475Y-72419475D01*
X153502433Y-72531944D01*
X153346081Y-72615515D01*
X153176432Y-72666978D01*
X153044211Y-72680000D01*
X152955789Y-72680000D01*
X152823568Y-72666978D01*
X152653919Y-72615515D01*
X152497567Y-72531944D01*
X152360525Y-72419475D01*
X152248056Y-72282433D01*
X152164485Y-72126081D01*
X152113022Y-71956432D01*
X152095646Y-71780000D01*
X152113022Y-71603568D01*
X152164485Y-71433919D01*
X152248056Y-71277567D01*
X152360525Y-71140525D01*
X152497567Y-71028056D01*
X152653919Y-70944485D01*
X152823568Y-70893022D01*
X152955789Y-70880000D01*
X153044211Y-70880000D01*
X153176432Y-70893022D01*
X153176432Y-70893022D01*
G37*
G36*
X102176432Y-70893022D02*
X102346081Y-70944485D01*
X102502433Y-71028056D01*
X102639475Y-71140525D01*
X102751944Y-71277567D01*
X102835515Y-71433919D01*
X102886978Y-71603568D01*
X102904354Y-71780000D01*
X102886978Y-71956432D01*
X102835515Y-72126081D01*
X102751944Y-72282433D01*
X102639475Y-72419475D01*
X102502433Y-72531944D01*
X102346081Y-72615515D01*
X102176432Y-72666978D01*
X102044211Y-72680000D01*
X101955789Y-72680000D01*
X101823568Y-72666978D01*
X101653919Y-72615515D01*
X101497567Y-72531944D01*
X101360525Y-72419475D01*
X101248056Y-72282433D01*
X101164485Y-72126081D01*
X101113022Y-71956432D01*
X101095646Y-71780000D01*
X101113022Y-71603568D01*
X101164485Y-71433919D01*
X101248056Y-71277567D01*
X101360525Y-71140525D01*
X101497567Y-71028056D01*
X101653919Y-70944485D01*
X101823568Y-70893022D01*
X101955789Y-70880000D01*
X102044211Y-70880000D01*
X102176432Y-70893022D01*
X102176432Y-70893022D01*
G37*
G36*
X104848024Y-71009457D02*
X104885635Y-71020866D01*
X104920299Y-71039394D01*
X104950676Y-71064324D01*
X104975606Y-71094701D01*
X104994134Y-71129365D01*
X105005543Y-71166976D01*
X105010000Y-71212227D01*
X105010000Y-72297773D01*
X105005543Y-72343024D01*
X104994134Y-72380635D01*
X104975606Y-72415299D01*
X104950676Y-72445676D01*
X104920299Y-72470606D01*
X104885635Y-72489134D01*
X104848024Y-72500543D01*
X104802773Y-72505000D01*
X103967227Y-72505000D01*
X103921976Y-72500543D01*
X103884365Y-72489134D01*
X103849701Y-72470606D01*
X103819324Y-72445676D01*
X103794394Y-72415299D01*
X103775866Y-72380635D01*
X103764457Y-72343024D01*
X103760000Y-72297773D01*
X103760000Y-71212227D01*
X103764457Y-71166976D01*
X103775866Y-71129365D01*
X103794394Y-71094701D01*
X103819324Y-71064324D01*
X103849701Y-71039394D01*
X103884365Y-71020866D01*
X103921976Y-71009457D01*
X103967227Y-71005000D01*
X104802773Y-71005000D01*
X104848024Y-71009457D01*
X104848024Y-71009457D01*
G37*
G36*
X106898024Y-71009457D02*
X106935635Y-71020866D01*
X106970299Y-71039394D01*
X107000676Y-71064324D01*
X107025606Y-71094701D01*
X107044134Y-71129365D01*
X107055543Y-71166976D01*
X107060000Y-71212227D01*
X107060000Y-72297773D01*
X107055543Y-72343024D01*
X107044134Y-72380635D01*
X107025606Y-72415299D01*
X107000676Y-72445676D01*
X106970299Y-72470606D01*
X106935635Y-72489134D01*
X106898024Y-72500543D01*
X106852773Y-72505000D01*
X106017227Y-72505000D01*
X105971976Y-72500543D01*
X105934365Y-72489134D01*
X105899701Y-72470606D01*
X105869324Y-72445676D01*
X105844394Y-72415299D01*
X105825866Y-72380635D01*
X105814457Y-72343024D01*
X105810000Y-72297773D01*
X105810000Y-71212227D01*
X105814457Y-71166976D01*
X105825866Y-71129365D01*
X105844394Y-71094701D01*
X105869324Y-71064324D01*
X105899701Y-71039394D01*
X105934365Y-71020866D01*
X105971976Y-71009457D01*
X106017227Y-71005000D01*
X106852773Y-71005000D01*
X106898024Y-71009457D01*
X106898024Y-71009457D01*
G37*
G36*
X131674938Y-70893650D02*
X131712349Y-70904998D01*
X131746814Y-70923420D01*
X131777034Y-70948220D01*
X131801834Y-70978440D01*
X131820256Y-71012905D01*
X131831604Y-71050316D01*
X131836040Y-71095355D01*
X131836040Y-71733073D01*
X131831604Y-71778112D01*
X131820256Y-71815523D01*
X131801834Y-71849988D01*
X131777034Y-71880208D01*
X131746814Y-71905008D01*
X131712349Y-71923430D01*
X131674938Y-71934778D01*
X131629899Y-71939214D01*
X130892181Y-71939214D01*
X130847142Y-71934778D01*
X130809731Y-71923430D01*
X130775266Y-71905008D01*
X130745046Y-71880208D01*
X130720246Y-71849988D01*
X130701824Y-71815523D01*
X130690476Y-71778112D01*
X130686040Y-71733073D01*
X130686040Y-71095355D01*
X130690476Y-71050316D01*
X130701824Y-71012905D01*
X130720246Y-70978440D01*
X130745046Y-70948220D01*
X130775266Y-70923420D01*
X130809731Y-70904998D01*
X130847142Y-70893650D01*
X130892181Y-70889214D01*
X131629899Y-70889214D01*
X131674938Y-70893650D01*
X131674938Y-70893650D01*
G37*
G36*
X133424938Y-70893650D02*
X133462349Y-70904998D01*
X133496814Y-70923420D01*
X133527034Y-70948220D01*
X133551834Y-70978440D01*
X133570256Y-71012905D01*
X133581604Y-71050316D01*
X133586040Y-71095355D01*
X133586040Y-71733073D01*
X133581604Y-71778112D01*
X133570256Y-71815523D01*
X133551834Y-71849988D01*
X133527034Y-71880208D01*
X133496814Y-71905008D01*
X133462349Y-71923430D01*
X133424938Y-71934778D01*
X133379899Y-71939214D01*
X132642181Y-71939214D01*
X132597142Y-71934778D01*
X132559731Y-71923430D01*
X132525266Y-71905008D01*
X132495046Y-71880208D01*
X132470246Y-71849988D01*
X132451824Y-71815523D01*
X132440476Y-71778112D01*
X132436040Y-71733073D01*
X132436040Y-71095355D01*
X132440476Y-71050316D01*
X132451824Y-71012905D01*
X132470246Y-70978440D01*
X132495046Y-70948220D01*
X132525266Y-70923420D01*
X132559731Y-70904998D01*
X132597142Y-70893650D01*
X132642181Y-70889214D01*
X133379899Y-70889214D01*
X133424938Y-70893650D01*
X133424938Y-70893650D01*
G37*
G36*
X119938024Y-68754457D02*
X119975635Y-68765866D01*
X120010299Y-68784394D01*
X120040676Y-68809324D01*
X120065606Y-68839701D01*
X120084134Y-68874365D01*
X120095543Y-68911976D01*
X120100000Y-68957227D01*
X120100000Y-70042773D01*
X120095543Y-70088024D01*
X120084134Y-70125635D01*
X120065606Y-70160299D01*
X120040676Y-70190676D01*
X120010299Y-70215606D01*
X119975635Y-70234134D01*
X119938024Y-70245543D01*
X119892773Y-70250000D01*
X119057227Y-70250000D01*
X119011976Y-70245543D01*
X118974365Y-70234134D01*
X118939701Y-70215606D01*
X118909324Y-70190676D01*
X118884394Y-70160299D01*
X118865866Y-70125635D01*
X118854457Y-70088024D01*
X118850000Y-70042773D01*
X118850000Y-68957227D01*
X118854457Y-68911976D01*
X118865866Y-68874365D01*
X118884394Y-68839701D01*
X118909324Y-68809324D01*
X118939701Y-68784394D01*
X118974365Y-68765866D01*
X119011976Y-68754457D01*
X119057227Y-68750000D01*
X119892773Y-68750000D01*
X119938024Y-68754457D01*
X119938024Y-68754457D01*
G37*
G36*
X121988024Y-68754457D02*
X122025635Y-68765866D01*
X122060299Y-68784394D01*
X122090676Y-68809324D01*
X122115606Y-68839701D01*
X122134134Y-68874365D01*
X122145543Y-68911976D01*
X122150000Y-68957227D01*
X122150000Y-70042773D01*
X122145543Y-70088024D01*
X122134134Y-70125635D01*
X122115606Y-70160299D01*
X122090676Y-70190676D01*
X122060299Y-70215606D01*
X122025635Y-70234134D01*
X121988024Y-70245543D01*
X121942773Y-70250000D01*
X121107227Y-70250000D01*
X121061976Y-70245543D01*
X121024365Y-70234134D01*
X120989701Y-70215606D01*
X120959324Y-70190676D01*
X120934394Y-70160299D01*
X120915866Y-70125635D01*
X120904457Y-70088024D01*
X120900000Y-70042773D01*
X120900000Y-68957227D01*
X120904457Y-68911976D01*
X120915866Y-68874365D01*
X120934394Y-68839701D01*
X120959324Y-68809324D01*
X120989701Y-68784394D01*
X121024365Y-68765866D01*
X121061976Y-68754457D01*
X121107227Y-68750000D01*
X121942773Y-68750000D01*
X121988024Y-68754457D01*
X121988024Y-68754457D01*
G37*
G36*
X102176432Y-68353022D02*
X102346081Y-68404485D01*
X102502433Y-68488056D01*
X102639475Y-68600525D01*
X102751944Y-68737567D01*
X102835515Y-68893919D01*
X102886978Y-69063568D01*
X102904354Y-69240000D01*
X102886978Y-69416432D01*
X102835515Y-69586081D01*
X102751944Y-69742433D01*
X102639475Y-69879475D01*
X102502433Y-69991944D01*
X102346081Y-70075515D01*
X102176432Y-70126978D01*
X102044211Y-70140000D01*
X101955789Y-70140000D01*
X101823568Y-70126978D01*
X101653919Y-70075515D01*
X101497567Y-69991944D01*
X101360525Y-69879475D01*
X101248056Y-69742433D01*
X101164485Y-69586081D01*
X101113022Y-69416432D01*
X101095646Y-69240000D01*
X101113022Y-69063568D01*
X101164485Y-68893919D01*
X101248056Y-68737567D01*
X101360525Y-68600525D01*
X101497567Y-68488056D01*
X101653919Y-68404485D01*
X101823568Y-68353022D01*
X101955789Y-68340000D01*
X102044211Y-68340000D01*
X102176432Y-68353022D01*
X102176432Y-68353022D01*
G37*
G36*
X153176432Y-68353022D02*
X153346081Y-68404485D01*
X153502433Y-68488056D01*
X153639475Y-68600525D01*
X153751944Y-68737567D01*
X153835515Y-68893919D01*
X153886978Y-69063568D01*
X153904354Y-69240000D01*
X153886978Y-69416432D01*
X153835515Y-69586081D01*
X153751944Y-69742433D01*
X153639475Y-69879475D01*
X153502433Y-69991944D01*
X153346081Y-70075515D01*
X153176432Y-70126978D01*
X153044211Y-70140000D01*
X152955789Y-70140000D01*
X152823568Y-70126978D01*
X152653919Y-70075515D01*
X152497567Y-69991944D01*
X152360525Y-69879475D01*
X152248056Y-69742433D01*
X152164485Y-69586081D01*
X152113022Y-69416432D01*
X152095646Y-69240000D01*
X152113022Y-69063568D01*
X152164485Y-68893919D01*
X152248056Y-68737567D01*
X152360525Y-68600525D01*
X152497567Y-68488056D01*
X152653919Y-68404485D01*
X152823568Y-68353022D01*
X152955789Y-68340000D01*
X153044211Y-68340000D01*
X153176432Y-68353022D01*
X153176432Y-68353022D01*
G37*
G36*
X131674937Y-68893650D02*
X131712348Y-68904998D01*
X131746813Y-68923420D01*
X131777033Y-68948220D01*
X131801833Y-68978440D01*
X131820255Y-69012905D01*
X131831603Y-69050316D01*
X131836039Y-69095355D01*
X131836039Y-69733073D01*
X131831603Y-69778112D01*
X131820255Y-69815523D01*
X131801833Y-69849988D01*
X131777033Y-69880208D01*
X131746813Y-69905008D01*
X131712348Y-69923430D01*
X131674937Y-69934778D01*
X131629898Y-69939214D01*
X130892180Y-69939214D01*
X130847141Y-69934778D01*
X130809730Y-69923430D01*
X130775265Y-69905008D01*
X130745045Y-69880208D01*
X130720245Y-69849988D01*
X130701823Y-69815523D01*
X130690475Y-69778112D01*
X130686039Y-69733073D01*
X130686039Y-69095355D01*
X130690475Y-69050316D01*
X130701823Y-69012905D01*
X130720245Y-68978440D01*
X130745045Y-68948220D01*
X130775265Y-68923420D01*
X130809730Y-68904998D01*
X130847141Y-68893650D01*
X130892180Y-68889214D01*
X131629898Y-68889214D01*
X131674937Y-68893650D01*
X131674937Y-68893650D01*
G37*
G36*
X133424937Y-68893650D02*
X133462348Y-68904998D01*
X133496813Y-68923420D01*
X133527033Y-68948220D01*
X133551833Y-68978440D01*
X133570255Y-69012905D01*
X133581603Y-69050316D01*
X133586039Y-69095355D01*
X133586039Y-69733073D01*
X133581603Y-69778112D01*
X133570255Y-69815523D01*
X133551833Y-69849988D01*
X133527033Y-69880208D01*
X133496813Y-69905008D01*
X133462348Y-69923430D01*
X133424937Y-69934778D01*
X133379898Y-69939214D01*
X132642180Y-69939214D01*
X132597141Y-69934778D01*
X132559730Y-69923430D01*
X132525265Y-69905008D01*
X132495045Y-69880208D01*
X132470245Y-69849988D01*
X132451823Y-69815523D01*
X132440475Y-69778112D01*
X132436039Y-69733073D01*
X132436039Y-69095355D01*
X132440475Y-69050316D01*
X132451823Y-69012905D01*
X132470245Y-68978440D01*
X132495045Y-68948220D01*
X132525265Y-68923420D01*
X132559730Y-68904998D01*
X132597141Y-68893650D01*
X132642180Y-68889214D01*
X133379898Y-68889214D01*
X133424937Y-68893650D01*
X133424937Y-68893650D01*
G37*
G36*
X118088024Y-68379457D02*
X118125635Y-68390866D01*
X118160299Y-68409394D01*
X118190676Y-68434324D01*
X118215606Y-68464701D01*
X118234134Y-68499365D01*
X118245543Y-68536976D01*
X118250000Y-68582227D01*
X118250000Y-69417773D01*
X118245543Y-69463024D01*
X118234134Y-69500635D01*
X118215606Y-69535299D01*
X118190676Y-69565676D01*
X118160299Y-69590606D01*
X118125635Y-69609134D01*
X118088024Y-69620543D01*
X118042773Y-69625000D01*
X116957227Y-69625000D01*
X116911976Y-69620543D01*
X116874365Y-69609134D01*
X116839701Y-69590606D01*
X116809324Y-69565676D01*
X116784394Y-69535299D01*
X116765866Y-69500635D01*
X116754457Y-69463024D01*
X116750000Y-69417773D01*
X116750000Y-68582227D01*
X116754457Y-68536976D01*
X116765866Y-68499365D01*
X116784394Y-68464701D01*
X116809324Y-68434324D01*
X116839701Y-68409394D01*
X116874365Y-68390866D01*
X116911976Y-68379457D01*
X116957227Y-68375000D01*
X118042773Y-68375000D01*
X118088024Y-68379457D01*
X118088024Y-68379457D01*
G37*
G36*
X124088024Y-68379457D02*
X124125635Y-68390866D01*
X124160299Y-68409394D01*
X124190676Y-68434324D01*
X124215606Y-68464701D01*
X124234134Y-68499365D01*
X124245543Y-68536976D01*
X124250000Y-68582227D01*
X124250000Y-69417773D01*
X124245543Y-69463024D01*
X124234134Y-69500635D01*
X124215606Y-69535299D01*
X124190676Y-69565676D01*
X124160299Y-69590606D01*
X124125635Y-69609134D01*
X124088024Y-69620543D01*
X124042773Y-69625000D01*
X122957227Y-69625000D01*
X122911976Y-69620543D01*
X122874365Y-69609134D01*
X122839701Y-69590606D01*
X122809324Y-69565676D01*
X122784394Y-69535299D01*
X122765866Y-69500635D01*
X122754457Y-69463024D01*
X122750000Y-69417773D01*
X122750000Y-68582227D01*
X122754457Y-68536976D01*
X122765866Y-68499365D01*
X122784394Y-68464701D01*
X122809324Y-68434324D01*
X122839701Y-68409394D01*
X122874365Y-68390866D01*
X122911976Y-68379457D01*
X122957227Y-68375000D01*
X124042773Y-68375000D01*
X124088024Y-68379457D01*
X124088024Y-68379457D01*
G37*
G36*
X153176432Y-65813022D02*
X153346081Y-65864485D01*
X153502433Y-65948056D01*
X153639475Y-66060525D01*
X153751944Y-66197567D01*
X153835515Y-66353919D01*
X153886978Y-66523568D01*
X153904354Y-66700000D01*
X153886978Y-66876432D01*
X153835515Y-67046081D01*
X153751944Y-67202433D01*
X153639475Y-67339475D01*
X153502433Y-67451944D01*
X153346081Y-67535515D01*
X153176432Y-67586978D01*
X153044211Y-67600000D01*
X152955789Y-67600000D01*
X152823568Y-67586978D01*
X152653919Y-67535515D01*
X152497567Y-67451944D01*
X152360525Y-67339475D01*
X152248056Y-67202433D01*
X152164485Y-67046081D01*
X152113022Y-66876432D01*
X152095646Y-66700000D01*
X152113022Y-66523568D01*
X152164485Y-66353919D01*
X152248056Y-66197567D01*
X152360525Y-66060525D01*
X152497567Y-65948056D01*
X152653919Y-65864485D01*
X152823568Y-65813022D01*
X152955789Y-65800000D01*
X153044211Y-65800000D01*
X153176432Y-65813022D01*
X153176432Y-65813022D01*
G37*
G36*
X102176432Y-65813022D02*
X102346081Y-65864485D01*
X102502433Y-65948056D01*
X102639475Y-66060525D01*
X102751944Y-66197567D01*
X102835515Y-66353919D01*
X102886978Y-66523568D01*
X102904354Y-66700000D01*
X102886978Y-66876432D01*
X102835515Y-67046081D01*
X102751944Y-67202433D01*
X102639475Y-67339475D01*
X102502433Y-67451944D01*
X102346081Y-67535515D01*
X102176432Y-67586978D01*
X102044211Y-67600000D01*
X101955789Y-67600000D01*
X101823568Y-67586978D01*
X101653919Y-67535515D01*
X101497567Y-67451944D01*
X101360525Y-67339475D01*
X101248056Y-67202433D01*
X101164485Y-67046081D01*
X101113022Y-66876432D01*
X101095646Y-66700000D01*
X101113022Y-66523568D01*
X101164485Y-66353919D01*
X101248056Y-66197567D01*
X101360525Y-66060525D01*
X101497567Y-65948056D01*
X101653919Y-65864485D01*
X101823568Y-65813022D01*
X101955789Y-65800000D01*
X102044211Y-65800000D01*
X102176432Y-65813022D01*
X102176432Y-65813022D01*
G37*
G36*
X118088024Y-66329457D02*
X118125635Y-66340866D01*
X118160299Y-66359394D01*
X118190676Y-66384324D01*
X118215606Y-66414701D01*
X118234134Y-66449365D01*
X118245543Y-66486976D01*
X118250000Y-66532227D01*
X118250000Y-67367773D01*
X118245543Y-67413024D01*
X118234134Y-67450635D01*
X118215606Y-67485299D01*
X118190676Y-67515676D01*
X118160299Y-67540606D01*
X118125635Y-67559134D01*
X118088024Y-67570543D01*
X118042773Y-67575000D01*
X116957227Y-67575000D01*
X116911976Y-67570543D01*
X116874365Y-67559134D01*
X116839701Y-67540606D01*
X116809324Y-67515676D01*
X116784394Y-67485299D01*
X116765866Y-67450635D01*
X116754457Y-67413024D01*
X116750000Y-67367773D01*
X116750000Y-66532227D01*
X116754457Y-66486976D01*
X116765866Y-66449365D01*
X116784394Y-66414701D01*
X116809324Y-66384324D01*
X116839701Y-66359394D01*
X116874365Y-66340866D01*
X116911976Y-66329457D01*
X116957227Y-66325000D01*
X118042773Y-66325000D01*
X118088024Y-66329457D01*
X118088024Y-66329457D01*
G37*
G36*
X124088024Y-66329457D02*
X124125635Y-66340866D01*
X124160299Y-66359394D01*
X124190676Y-66384324D01*
X124215606Y-66414701D01*
X124234134Y-66449365D01*
X124245543Y-66486976D01*
X124250000Y-66532227D01*
X124250000Y-67367773D01*
X124245543Y-67413024D01*
X124234134Y-67450635D01*
X124215606Y-67485299D01*
X124190676Y-67515676D01*
X124160299Y-67540606D01*
X124125635Y-67559134D01*
X124088024Y-67570543D01*
X124042773Y-67575000D01*
X122957227Y-67575000D01*
X122911976Y-67570543D01*
X122874365Y-67559134D01*
X122839701Y-67540606D01*
X122809324Y-67515676D01*
X122784394Y-67485299D01*
X122765866Y-67450635D01*
X122754457Y-67413024D01*
X122750000Y-67367773D01*
X122750000Y-66532227D01*
X122754457Y-66486976D01*
X122765866Y-66449365D01*
X122784394Y-66414701D01*
X122809324Y-66384324D01*
X122839701Y-66359394D01*
X122874365Y-66340866D01*
X122911976Y-66329457D01*
X122957227Y-66325000D01*
X124042773Y-66325000D01*
X124088024Y-66329457D01*
X124088024Y-66329457D01*
G37*
G36*
X124088024Y-64379458D02*
X124125635Y-64390867D01*
X124160299Y-64409395D01*
X124190676Y-64434325D01*
X124215606Y-64464702D01*
X124234134Y-64499366D01*
X124245543Y-64536977D01*
X124250000Y-64582228D01*
X124250000Y-65417774D01*
X124245543Y-65463025D01*
X124234134Y-65500636D01*
X124215606Y-65535300D01*
X124190676Y-65565677D01*
X124160299Y-65590607D01*
X124125635Y-65609135D01*
X124088024Y-65620544D01*
X124042773Y-65625001D01*
X122957227Y-65625001D01*
X122911976Y-65620544D01*
X122874365Y-65609135D01*
X122839701Y-65590607D01*
X122809324Y-65565677D01*
X122784394Y-65535300D01*
X122765866Y-65500636D01*
X122754457Y-65463025D01*
X122750000Y-65417774D01*
X122750000Y-64582228D01*
X122754457Y-64536977D01*
X122765866Y-64499366D01*
X122784394Y-64464702D01*
X122809324Y-64434325D01*
X122839701Y-64409395D01*
X122874365Y-64390867D01*
X122911976Y-64379458D01*
X122957227Y-64375001D01*
X124042773Y-64375001D01*
X124088024Y-64379458D01*
X124088024Y-64379458D01*
G37*
G36*
X118088024Y-64379458D02*
X118125635Y-64390867D01*
X118160299Y-64409395D01*
X118190676Y-64434325D01*
X118215606Y-64464702D01*
X118234134Y-64499366D01*
X118245543Y-64536977D01*
X118250000Y-64582228D01*
X118250000Y-65417774D01*
X118245543Y-65463025D01*
X118234134Y-65500636D01*
X118215606Y-65535300D01*
X118190676Y-65565677D01*
X118160299Y-65590607D01*
X118125635Y-65609135D01*
X118088024Y-65620544D01*
X118042773Y-65625001D01*
X116957227Y-65625001D01*
X116911976Y-65620544D01*
X116874365Y-65609135D01*
X116839701Y-65590607D01*
X116809324Y-65565677D01*
X116784394Y-65535300D01*
X116765866Y-65500636D01*
X116754457Y-65463025D01*
X116750000Y-65417774D01*
X116750000Y-64582228D01*
X116754457Y-64536977D01*
X116765866Y-64499366D01*
X116784394Y-64464702D01*
X116809324Y-64434325D01*
X116839701Y-64409395D01*
X116874365Y-64390867D01*
X116911976Y-64379458D01*
X116957227Y-64375001D01*
X118042773Y-64375001D01*
X118088024Y-64379458D01*
X118088024Y-64379458D01*
G37*
G36*
X102176432Y-63273022D02*
X102346081Y-63324485D01*
X102502433Y-63408056D01*
X102639475Y-63520525D01*
X102751944Y-63657567D01*
X102835515Y-63813919D01*
X102886978Y-63983568D01*
X102904354Y-64160000D01*
X102886978Y-64336432D01*
X102835515Y-64506081D01*
X102751944Y-64662433D01*
X102639475Y-64799475D01*
X102502433Y-64911944D01*
X102346081Y-64995515D01*
X102176432Y-65046978D01*
X102044211Y-65060000D01*
X101955789Y-65060000D01*
X101823568Y-65046978D01*
X101653919Y-64995515D01*
X101497567Y-64911944D01*
X101360525Y-64799475D01*
X101248056Y-64662433D01*
X101164485Y-64506081D01*
X101113022Y-64336432D01*
X101095646Y-64160000D01*
X101113022Y-63983568D01*
X101164485Y-63813919D01*
X101248056Y-63657567D01*
X101360525Y-63520525D01*
X101497567Y-63408056D01*
X101653919Y-63324485D01*
X101823568Y-63273022D01*
X101955789Y-63260000D01*
X102044211Y-63260000D01*
X102176432Y-63273022D01*
X102176432Y-63273022D01*
G37*
G36*
X153176432Y-63273022D02*
X153346081Y-63324485D01*
X153502433Y-63408056D01*
X153639475Y-63520525D01*
X153751944Y-63657567D01*
X153835515Y-63813919D01*
X153886978Y-63983568D01*
X153904354Y-64160000D01*
X153886978Y-64336432D01*
X153835515Y-64506081D01*
X153751944Y-64662433D01*
X153639475Y-64799475D01*
X153502433Y-64911944D01*
X153346081Y-64995515D01*
X153176432Y-65046978D01*
X153044211Y-65060000D01*
X152955789Y-65060000D01*
X152823568Y-65046978D01*
X152653919Y-64995515D01*
X152497567Y-64911944D01*
X152360525Y-64799475D01*
X152248056Y-64662433D01*
X152164485Y-64506081D01*
X152113022Y-64336432D01*
X152095646Y-64160000D01*
X152113022Y-63983568D01*
X152164485Y-63813919D01*
X152248056Y-63657567D01*
X152360525Y-63520525D01*
X152497567Y-63408056D01*
X152653919Y-63324485D01*
X152823568Y-63273022D01*
X152955789Y-63260000D01*
X153044211Y-63260000D01*
X153176432Y-63273022D01*
X153176432Y-63273022D01*
G37*
G36*
X111963024Y-62754457D02*
X112000635Y-62765866D01*
X112035299Y-62784394D01*
X112065676Y-62809324D01*
X112090606Y-62839701D01*
X112109134Y-62874365D01*
X112120543Y-62911976D01*
X112125000Y-62957227D01*
X112125000Y-64042773D01*
X112120543Y-64088024D01*
X112109134Y-64125635D01*
X112090606Y-64160299D01*
X112065676Y-64190676D01*
X112035299Y-64215606D01*
X112000635Y-64234134D01*
X111963024Y-64245543D01*
X111917773Y-64250000D01*
X111082227Y-64250000D01*
X111036976Y-64245543D01*
X110999365Y-64234134D01*
X110964701Y-64215606D01*
X110934324Y-64190676D01*
X110909394Y-64160299D01*
X110890866Y-64125635D01*
X110879457Y-64088024D01*
X110875000Y-64042773D01*
X110875000Y-62957227D01*
X110879457Y-62911976D01*
X110890866Y-62874365D01*
X110909394Y-62839701D01*
X110934324Y-62809324D01*
X110964701Y-62784394D01*
X110999365Y-62765866D01*
X111036976Y-62754457D01*
X111082227Y-62750000D01*
X111917773Y-62750000D01*
X111963024Y-62754457D01*
X111963024Y-62754457D01*
G37*
G36*
X114013024Y-62754457D02*
X114050635Y-62765866D01*
X114085299Y-62784394D01*
X114115676Y-62809324D01*
X114140606Y-62839701D01*
X114159134Y-62874365D01*
X114170543Y-62911976D01*
X114175000Y-62957227D01*
X114175000Y-64042773D01*
X114170543Y-64088024D01*
X114159134Y-64125635D01*
X114140606Y-64160299D01*
X114115676Y-64190676D01*
X114085299Y-64215606D01*
X114050635Y-64234134D01*
X114013024Y-64245543D01*
X113967773Y-64250000D01*
X113132227Y-64250000D01*
X113086976Y-64245543D01*
X113049365Y-64234134D01*
X113014701Y-64215606D01*
X112984324Y-64190676D01*
X112959394Y-64160299D01*
X112940866Y-64125635D01*
X112929457Y-64088024D01*
X112925000Y-64042773D01*
X112925000Y-62957227D01*
X112929457Y-62911976D01*
X112940866Y-62874365D01*
X112959394Y-62839701D01*
X112984324Y-62809324D01*
X113014701Y-62784394D01*
X113049365Y-62765866D01*
X113086976Y-62754457D01*
X113132227Y-62750000D01*
X113967773Y-62750000D01*
X114013024Y-62754457D01*
X114013024Y-62754457D01*
G37*
G36*
X124088024Y-62329458D02*
X124125635Y-62340867D01*
X124160299Y-62359395D01*
X124190676Y-62384325D01*
X124215606Y-62414702D01*
X124234134Y-62449366D01*
X124245543Y-62486977D01*
X124250000Y-62532228D01*
X124250000Y-63367774D01*
X124245543Y-63413025D01*
X124234134Y-63450636D01*
X124215606Y-63485300D01*
X124190676Y-63515677D01*
X124160299Y-63540607D01*
X124125635Y-63559135D01*
X124088024Y-63570544D01*
X124042773Y-63575001D01*
X122957227Y-63575001D01*
X122911976Y-63570544D01*
X122874365Y-63559135D01*
X122839701Y-63540607D01*
X122809324Y-63515677D01*
X122784394Y-63485300D01*
X122765866Y-63450636D01*
X122754457Y-63413025D01*
X122750000Y-63367774D01*
X122750000Y-62532228D01*
X122754457Y-62486977D01*
X122765866Y-62449366D01*
X122784394Y-62414702D01*
X122809324Y-62384325D01*
X122839701Y-62359395D01*
X122874365Y-62340867D01*
X122911976Y-62329458D01*
X122957227Y-62325001D01*
X124042773Y-62325001D01*
X124088024Y-62329458D01*
X124088024Y-62329458D01*
G37*
G36*
X118088024Y-62329458D02*
X118125635Y-62340867D01*
X118160299Y-62359395D01*
X118190676Y-62384325D01*
X118215606Y-62414702D01*
X118234134Y-62449366D01*
X118245543Y-62486977D01*
X118250000Y-62532228D01*
X118250000Y-63367774D01*
X118245543Y-63413025D01*
X118234134Y-63450636D01*
X118215606Y-63485300D01*
X118190676Y-63515677D01*
X118160299Y-63540607D01*
X118125635Y-63559135D01*
X118088024Y-63570544D01*
X118042773Y-63575001D01*
X116957227Y-63575001D01*
X116911976Y-63570544D01*
X116874365Y-63559135D01*
X116839701Y-63540607D01*
X116809324Y-63515677D01*
X116784394Y-63485300D01*
X116765866Y-63450636D01*
X116754457Y-63413025D01*
X116750000Y-63367774D01*
X116750000Y-62532228D01*
X116754457Y-62486977D01*
X116765866Y-62449366D01*
X116784394Y-62414702D01*
X116809324Y-62384325D01*
X116839701Y-62359395D01*
X116874365Y-62340867D01*
X116911976Y-62329458D01*
X116957227Y-62325001D01*
X118042773Y-62325001D01*
X118088024Y-62329458D01*
X118088024Y-62329458D01*
G37*
G36*
X153176432Y-60733022D02*
X153346081Y-60784485D01*
X153502433Y-60868056D01*
X153639475Y-60980525D01*
X153751944Y-61117567D01*
X153835515Y-61273919D01*
X153886978Y-61443568D01*
X153904354Y-61620000D01*
X153886978Y-61796432D01*
X153835515Y-61966081D01*
X153751944Y-62122433D01*
X153639475Y-62259475D01*
X153502433Y-62371944D01*
X153346081Y-62455515D01*
X153176432Y-62506978D01*
X153044211Y-62520000D01*
X152955789Y-62520000D01*
X152823568Y-62506978D01*
X152653919Y-62455515D01*
X152497567Y-62371944D01*
X152360525Y-62259475D01*
X152248056Y-62122433D01*
X152164485Y-61966081D01*
X152113022Y-61796432D01*
X152095646Y-61620000D01*
X152113022Y-61443568D01*
X152164485Y-61273919D01*
X152248056Y-61117567D01*
X152360525Y-60980525D01*
X152497567Y-60868056D01*
X152653919Y-60784485D01*
X152823568Y-60733022D01*
X152955789Y-60720000D01*
X153044211Y-60720000D01*
X153176432Y-60733022D01*
X153176432Y-60733022D01*
G37*
G36*
X102176432Y-60733022D02*
X102346081Y-60784485D01*
X102502433Y-60868056D01*
X102639475Y-60980525D01*
X102751944Y-61117567D01*
X102835515Y-61273919D01*
X102886978Y-61443568D01*
X102904354Y-61620000D01*
X102886978Y-61796432D01*
X102835515Y-61966081D01*
X102751944Y-62122433D01*
X102639475Y-62259475D01*
X102502433Y-62371944D01*
X102346081Y-62455515D01*
X102176432Y-62506978D01*
X102044211Y-62520000D01*
X101955789Y-62520000D01*
X101823568Y-62506978D01*
X101653919Y-62455515D01*
X101497567Y-62371944D01*
X101360525Y-62259475D01*
X101248056Y-62122433D01*
X101164485Y-61966081D01*
X101113022Y-61796432D01*
X101095646Y-61620000D01*
X101113022Y-61443568D01*
X101164485Y-61273919D01*
X101248056Y-61117567D01*
X101360525Y-60980525D01*
X101497567Y-60868056D01*
X101653919Y-60784485D01*
X101823568Y-60733022D01*
X101955789Y-60720000D01*
X102044211Y-60720000D01*
X102176432Y-60733022D01*
X102176432Y-60733022D01*
G37*
G36*
X148191898Y-60629436D02*
X148229309Y-60640784D01*
X148263774Y-60659206D01*
X148293994Y-60684006D01*
X148318794Y-60714226D01*
X148337216Y-60748691D01*
X148348564Y-60786102D01*
X148353000Y-60831141D01*
X148353000Y-61568859D01*
X148348564Y-61613898D01*
X148337216Y-61651309D01*
X148318794Y-61685774D01*
X148293994Y-61715994D01*
X148263774Y-61740794D01*
X148229309Y-61759216D01*
X148191898Y-61770564D01*
X148146859Y-61775000D01*
X147509141Y-61775000D01*
X147464102Y-61770564D01*
X147426691Y-61759216D01*
X147392226Y-61740794D01*
X147362006Y-61715994D01*
X147337206Y-61685774D01*
X147318784Y-61651309D01*
X147307436Y-61613898D01*
X147303000Y-61568859D01*
X147303000Y-60831141D01*
X147307436Y-60786102D01*
X147318784Y-60748691D01*
X147337206Y-60714226D01*
X147362006Y-60684006D01*
X147392226Y-60659206D01*
X147426691Y-60640784D01*
X147464102Y-60629436D01*
X147509141Y-60625000D01*
X148146859Y-60625000D01*
X148191898Y-60629436D01*
X148191898Y-60629436D01*
G37*
G36*
X129050000Y-61675000D02*
X126450000Y-61675000D01*
X126450000Y-60375000D01*
X129050000Y-60375000D01*
X129050000Y-61675000D01*
X129050000Y-61675000D01*
G37*
G36*
X119050000Y-61675000D02*
X116450000Y-61675000D01*
X116450000Y-60375000D01*
X119050000Y-60375000D01*
X119050000Y-61675000D01*
X119050000Y-61675000D01*
G37*
G36*
X106550000Y-61675000D02*
X103950000Y-61675000D01*
X103950000Y-60375000D01*
X106550000Y-60375000D01*
X106550000Y-61675000D01*
X106550000Y-61675000D01*
G37*
G36*
X144838214Y-59806511D02*
X144873210Y-59817127D01*
X144923041Y-59832243D01*
X145001216Y-59874029D01*
X145069738Y-59930262D01*
X145125971Y-59998783D01*
X145167757Y-60076958D01*
X145193489Y-60161786D01*
X145200000Y-60227894D01*
X145200000Y-60772106D01*
X145193489Y-60838214D01*
X145167757Y-60923042D01*
X145125971Y-61001217D01*
X145069738Y-61069738D01*
X145001217Y-61125971D01*
X144923042Y-61167757D01*
X144908685Y-61172112D01*
X144838215Y-61193489D01*
X144750000Y-61202177D01*
X144661786Y-61193489D01*
X144591316Y-61172112D01*
X144576959Y-61167757D01*
X144498784Y-61125971D01*
X144430263Y-61069738D01*
X144374029Y-61001215D01*
X144332244Y-60923043D01*
X144306511Y-60838214D01*
X144300000Y-60772106D01*
X144300000Y-60227895D01*
X144306511Y-60161787D01*
X144306512Y-60161785D01*
X144332243Y-60076960D01*
X144332243Y-60076959D01*
X144374029Y-59998784D01*
X144430262Y-59930262D01*
X144498783Y-59874029D01*
X144576958Y-59832243D01*
X144626789Y-59817127D01*
X144661785Y-59806511D01*
X144750000Y-59797823D01*
X144838214Y-59806511D01*
X144838214Y-59806511D01*
G37*
G36*
X143819083Y-59803715D02*
X143849454Y-59812928D01*
X143877443Y-59827888D01*
X143901977Y-59848023D01*
X143922112Y-59872557D01*
X143937072Y-59900546D01*
X143946285Y-59930917D01*
X143950000Y-59968640D01*
X143950000Y-61031360D01*
X143946285Y-61069083D01*
X143937072Y-61099454D01*
X143922112Y-61127443D01*
X143901977Y-61151977D01*
X143877443Y-61172112D01*
X143849454Y-61187072D01*
X143819083Y-61196285D01*
X143781360Y-61200000D01*
X143218640Y-61200000D01*
X143180917Y-61196285D01*
X143150546Y-61187072D01*
X143122557Y-61172112D01*
X143098023Y-61151977D01*
X143077888Y-61127443D01*
X143062928Y-61099454D01*
X143053715Y-61069083D01*
X143050000Y-61031360D01*
X143050000Y-59968640D01*
X143053715Y-59930917D01*
X143062928Y-59900546D01*
X143077888Y-59872557D01*
X143098023Y-59848023D01*
X143122557Y-59827888D01*
X143150546Y-59812928D01*
X143180917Y-59803715D01*
X143218640Y-59800000D01*
X143781360Y-59800000D01*
X143819083Y-59803715D01*
X143819083Y-59803715D01*
G37*
G36*
X113050000Y-60575000D02*
X110450000Y-60575000D01*
X110450000Y-59275000D01*
X113050000Y-59275000D01*
X113050000Y-60575000D01*
X113050000Y-60575000D01*
G37*
G36*
X125550000Y-60575000D02*
X122950000Y-60575000D01*
X122950000Y-59275000D01*
X125550000Y-59275000D01*
X125550000Y-60575000D01*
X125550000Y-60575000D01*
G37*
G36*
X135550000Y-60575000D02*
X132950000Y-60575000D01*
X132950000Y-59275000D01*
X135550000Y-59275000D01*
X135550000Y-60575000D01*
X135550000Y-60575000D01*
G37*
G36*
X148191898Y-58879436D02*
X148229309Y-58890784D01*
X148263774Y-58909206D01*
X148293994Y-58934006D01*
X148318794Y-58964226D01*
X148337216Y-58998691D01*
X148348564Y-59036102D01*
X148353000Y-59081141D01*
X148353000Y-59818859D01*
X148348564Y-59863898D01*
X148337216Y-59901309D01*
X148318794Y-59935774D01*
X148293994Y-59965994D01*
X148263774Y-59990794D01*
X148229309Y-60009216D01*
X148191898Y-60020564D01*
X148146859Y-60025000D01*
X147509141Y-60025000D01*
X147464102Y-60020564D01*
X147426691Y-60009216D01*
X147392226Y-59990794D01*
X147362006Y-59965994D01*
X147337206Y-59935774D01*
X147318784Y-59901309D01*
X147307436Y-59863898D01*
X147303000Y-59818859D01*
X147303000Y-59081141D01*
X147307436Y-59036102D01*
X147318784Y-58998691D01*
X147337206Y-58964226D01*
X147362006Y-58934006D01*
X147392226Y-58909206D01*
X147426691Y-58890784D01*
X147464102Y-58879436D01*
X147509141Y-58875000D01*
X148146859Y-58875000D01*
X148191898Y-58879436D01*
X148191898Y-58879436D01*
G37*
G36*
X153176432Y-58193022D02*
X153346081Y-58244485D01*
X153502433Y-58328056D01*
X153639475Y-58440525D01*
X153751944Y-58577567D01*
X153835515Y-58733919D01*
X153886978Y-58903568D01*
X153904354Y-59080000D01*
X153886978Y-59256432D01*
X153835515Y-59426081D01*
X153751944Y-59582433D01*
X153639475Y-59719475D01*
X153502433Y-59831944D01*
X153346081Y-59915515D01*
X153176432Y-59966978D01*
X153044211Y-59980000D01*
X152955789Y-59980000D01*
X152823568Y-59966978D01*
X152653919Y-59915515D01*
X152497567Y-59831944D01*
X152360525Y-59719475D01*
X152248056Y-59582433D01*
X152164485Y-59426081D01*
X152113022Y-59256432D01*
X152095646Y-59080000D01*
X152113022Y-58903568D01*
X152164485Y-58733919D01*
X152248056Y-58577567D01*
X152360525Y-58440525D01*
X152497567Y-58328056D01*
X152653919Y-58244485D01*
X152823568Y-58193022D01*
X152955789Y-58180000D01*
X153044211Y-58180000D01*
X153176432Y-58193022D01*
X153176432Y-58193022D01*
G37*
G36*
X102176432Y-58193022D02*
X102346081Y-58244485D01*
X102502433Y-58328056D01*
X102639475Y-58440525D01*
X102751944Y-58577567D01*
X102835515Y-58733919D01*
X102886978Y-58903568D01*
X102904354Y-59080000D01*
X102886978Y-59256432D01*
X102835515Y-59426081D01*
X102751944Y-59582433D01*
X102639475Y-59719475D01*
X102502433Y-59831944D01*
X102346081Y-59915515D01*
X102176432Y-59966978D01*
X102044211Y-59980000D01*
X101955789Y-59980000D01*
X101823568Y-59966978D01*
X101653919Y-59915515D01*
X101497567Y-59831944D01*
X101360525Y-59719475D01*
X101248056Y-59582433D01*
X101164485Y-59426081D01*
X101113022Y-59256432D01*
X101095646Y-59080000D01*
X101113022Y-58903568D01*
X101164485Y-58733919D01*
X101248056Y-58577567D01*
X101360525Y-58440525D01*
X101497567Y-58328056D01*
X101653919Y-58244485D01*
X101823568Y-58193022D01*
X101955789Y-58180000D01*
X102044211Y-58180000D01*
X102176432Y-58193022D01*
X102176432Y-58193022D01*
G37*
G36*
X108733352Y-57555743D02*
X108878941Y-57616048D01*
X109009973Y-57703601D01*
X109121399Y-57815027D01*
X109208952Y-57946059D01*
X109269257Y-58091648D01*
X109300000Y-58246205D01*
X109300000Y-58403795D01*
X109269257Y-58558352D01*
X109208952Y-58703941D01*
X109121400Y-58834972D01*
X109009973Y-58946399D01*
X108878941Y-59033952D01*
X108733352Y-59094257D01*
X108578795Y-59125000D01*
X108421205Y-59125000D01*
X108266648Y-59094257D01*
X108121059Y-59033952D01*
X107990027Y-58946399D01*
X107878600Y-58834972D01*
X107791048Y-58703941D01*
X107730743Y-58558352D01*
X107700000Y-58403795D01*
X107700000Y-58246205D01*
X107730743Y-58091648D01*
X107791048Y-57946059D01*
X107878601Y-57815027D01*
X107990027Y-57703601D01*
X108121059Y-57616048D01*
X108266648Y-57555743D01*
X108421205Y-57525000D01*
X108578795Y-57525000D01*
X108733352Y-57555743D01*
X108733352Y-57555743D01*
G37*
G36*
X121233352Y-57555743D02*
X121378941Y-57616048D01*
X121509973Y-57703601D01*
X121621399Y-57815027D01*
X121708952Y-57946059D01*
X121769257Y-58091648D01*
X121800000Y-58246205D01*
X121800000Y-58403795D01*
X121769257Y-58558352D01*
X121708952Y-58703941D01*
X121621400Y-58834972D01*
X121509973Y-58946399D01*
X121378941Y-59033952D01*
X121233352Y-59094257D01*
X121078795Y-59125000D01*
X120921205Y-59125000D01*
X120766648Y-59094257D01*
X120621059Y-59033952D01*
X120490027Y-58946399D01*
X120378600Y-58834972D01*
X120291048Y-58703941D01*
X120230743Y-58558352D01*
X120200000Y-58403795D01*
X120200000Y-58246205D01*
X120230743Y-58091648D01*
X120291048Y-57946059D01*
X120378601Y-57815027D01*
X120490027Y-57703601D01*
X120621059Y-57616048D01*
X120766648Y-57555743D01*
X120921205Y-57525000D01*
X121078795Y-57525000D01*
X121233352Y-57555743D01*
X121233352Y-57555743D01*
G37*
G36*
X131233352Y-57555743D02*
X131378941Y-57616048D01*
X131509973Y-57703601D01*
X131621399Y-57815027D01*
X131708952Y-57946059D01*
X131769257Y-58091648D01*
X131800000Y-58246205D01*
X131800000Y-58403795D01*
X131769257Y-58558352D01*
X131708952Y-58703941D01*
X131621400Y-58834972D01*
X131509973Y-58946399D01*
X131378941Y-59033952D01*
X131233352Y-59094257D01*
X131078795Y-59125000D01*
X130921205Y-59125000D01*
X130766648Y-59094257D01*
X130621059Y-59033952D01*
X130490027Y-58946399D01*
X130378600Y-58834972D01*
X130291048Y-58703941D01*
X130230743Y-58558352D01*
X130200000Y-58403795D01*
X130200000Y-58246205D01*
X130230743Y-58091648D01*
X130291048Y-57946059D01*
X130378601Y-57815027D01*
X130490027Y-57703601D01*
X130621059Y-57616048D01*
X130766648Y-57555743D01*
X130921205Y-57525000D01*
X131078795Y-57525000D01*
X131233352Y-57555743D01*
X131233352Y-57555743D01*
G37*
G36*
X117078087Y-57179097D02*
X117112181Y-57189440D01*
X117143611Y-57206239D01*
X117171156Y-57228844D01*
X117193761Y-57256389D01*
X117210560Y-57287819D01*
X117220903Y-57321913D01*
X117225000Y-57363516D01*
X117225000Y-58611484D01*
X117220903Y-58653087D01*
X117210560Y-58687181D01*
X117193761Y-58718611D01*
X117171156Y-58746156D01*
X117143611Y-58768761D01*
X117112181Y-58785560D01*
X117078087Y-58795903D01*
X117036484Y-58800000D01*
X113963516Y-58800000D01*
X113921913Y-58795903D01*
X113887819Y-58785560D01*
X113856389Y-58768761D01*
X113828844Y-58746156D01*
X113806239Y-58718611D01*
X113789440Y-58687181D01*
X113779097Y-58653087D01*
X113775000Y-58611484D01*
X113775000Y-57363516D01*
X113779097Y-57321913D01*
X113789440Y-57287819D01*
X113806239Y-57256389D01*
X113828844Y-57228844D01*
X113856389Y-57206239D01*
X113887819Y-57189440D01*
X113921913Y-57179097D01*
X113963516Y-57175000D01*
X117036484Y-57175000D01*
X117078087Y-57179097D01*
X117078087Y-57179097D01*
G37*
G36*
X139578087Y-56691597D02*
X139612181Y-56701940D01*
X139643611Y-56718739D01*
X139671156Y-56741344D01*
X139693761Y-56768889D01*
X139710560Y-56800319D01*
X139720903Y-56834413D01*
X139725000Y-56876016D01*
X139725000Y-58123984D01*
X139720903Y-58165587D01*
X139710560Y-58199681D01*
X139693761Y-58231111D01*
X139671156Y-58258656D01*
X139643611Y-58281261D01*
X139612181Y-58298060D01*
X139578087Y-58308403D01*
X139536484Y-58312500D01*
X136463516Y-58312500D01*
X136421913Y-58308403D01*
X136387819Y-58298060D01*
X136356389Y-58281261D01*
X136328844Y-58258656D01*
X136306239Y-58231111D01*
X136289440Y-58199681D01*
X136279097Y-58165587D01*
X136275000Y-58123984D01*
X136275000Y-56876016D01*
X136279097Y-56834413D01*
X136289440Y-56800319D01*
X136306239Y-56768889D01*
X136328844Y-56741344D01*
X136356389Y-56718739D01*
X136387819Y-56701940D01*
X136421913Y-56691597D01*
X136463516Y-56687500D01*
X139536484Y-56687500D01*
X139578087Y-56691597D01*
X139578087Y-56691597D01*
G37*
G36*
X150578087Y-56679097D02*
X150612181Y-56689440D01*
X150643611Y-56706239D01*
X150671156Y-56728844D01*
X150693761Y-56756389D01*
X150710560Y-56787819D01*
X150720903Y-56821913D01*
X150725000Y-56863516D01*
X150725000Y-58111484D01*
X150720903Y-58153087D01*
X150710560Y-58187181D01*
X150693761Y-58218611D01*
X150671156Y-58246156D01*
X150643611Y-58268761D01*
X150612181Y-58285560D01*
X150578087Y-58295903D01*
X150536484Y-58300000D01*
X147463516Y-58300000D01*
X147421913Y-58295903D01*
X147387819Y-58285560D01*
X147356389Y-58268761D01*
X147328844Y-58246156D01*
X147306239Y-58218611D01*
X147289440Y-58187181D01*
X147279097Y-58153087D01*
X147275000Y-58111484D01*
X147275000Y-56863516D01*
X147279097Y-56821913D01*
X147289440Y-56787819D01*
X147306239Y-56756389D01*
X147328844Y-56728844D01*
X147356389Y-56706239D01*
X147387819Y-56689440D01*
X147421913Y-56679097D01*
X147463516Y-56675000D01*
X150536484Y-56675000D01*
X150578087Y-56679097D01*
X150578087Y-56679097D01*
G37*
G36*
X102176432Y-55653022D02*
X102346081Y-55704485D01*
X102502433Y-55788056D01*
X102639475Y-55900525D01*
X102751944Y-56037567D01*
X102835515Y-56193919D01*
X102886978Y-56363568D01*
X102904354Y-56540000D01*
X102886978Y-56716432D01*
X102835515Y-56886081D01*
X102751944Y-57042433D01*
X102639475Y-57179475D01*
X102502433Y-57291944D01*
X102346081Y-57375515D01*
X102176432Y-57426978D01*
X102044211Y-57440000D01*
X101955789Y-57440000D01*
X101823568Y-57426978D01*
X101653919Y-57375515D01*
X101497567Y-57291944D01*
X101360525Y-57179475D01*
X101248056Y-57042433D01*
X101164485Y-56886081D01*
X101113022Y-56716432D01*
X101095646Y-56540000D01*
X101113022Y-56363568D01*
X101164485Y-56193919D01*
X101248056Y-56037567D01*
X101360525Y-55900525D01*
X101497567Y-55788056D01*
X101653919Y-55704485D01*
X101823568Y-55653022D01*
X101955789Y-55640000D01*
X102044211Y-55640000D01*
X102176432Y-55653022D01*
X102176432Y-55653022D01*
G37*
G36*
X153176432Y-55653022D02*
X153346081Y-55704485D01*
X153502433Y-55788056D01*
X153639475Y-55900525D01*
X153751944Y-56037567D01*
X153835515Y-56193919D01*
X153886978Y-56363568D01*
X153904354Y-56540000D01*
X153886978Y-56716432D01*
X153835515Y-56886081D01*
X153751944Y-57042433D01*
X153639475Y-57179475D01*
X153502433Y-57291944D01*
X153346081Y-57375515D01*
X153176432Y-57426978D01*
X153044211Y-57440000D01*
X152955789Y-57440000D01*
X152823568Y-57426978D01*
X152653919Y-57375515D01*
X152497567Y-57291944D01*
X152360525Y-57179475D01*
X152248056Y-57042433D01*
X152164485Y-56886081D01*
X152113022Y-56716432D01*
X152095646Y-56540000D01*
X152113022Y-56363568D01*
X152164485Y-56193919D01*
X152248056Y-56037567D01*
X152360525Y-55900525D01*
X152497567Y-55788056D01*
X152653919Y-55704485D01*
X152823568Y-55653022D01*
X152955789Y-55640000D01*
X153044211Y-55640000D01*
X153176432Y-55653022D01*
X153176432Y-55653022D01*
G37*
G36*
X125550000Y-56575000D02*
X122950000Y-56575000D01*
X122950000Y-55275000D01*
X125550000Y-55275000D01*
X125550000Y-56575000D01*
X125550000Y-56575000D01*
G37*
G36*
X135550000Y-56575000D02*
X132950000Y-56575000D01*
X132950000Y-55275000D01*
X135550000Y-55275000D01*
X135550000Y-56575000D01*
X135550000Y-56575000D01*
G37*
G36*
X113050000Y-56575000D02*
X110450000Y-56575000D01*
X110450000Y-55275000D01*
X113050000Y-55275000D01*
X113050000Y-56575000D01*
X113050000Y-56575000D01*
G37*
G36*
X146450000Y-55700000D02*
X144950000Y-55700000D01*
X144950000Y-53300000D01*
X146450000Y-53300000D01*
X146450000Y-55700000D01*
X146450000Y-55700000D01*
G37*
G36*
X142050000Y-55700000D02*
X140550000Y-55700000D01*
X140550000Y-53300000D01*
X142050000Y-53300000D01*
X142050000Y-55700000D01*
X142050000Y-55700000D01*
G37*
G36*
X153900000Y-54900000D02*
X152100000Y-54900000D01*
X152100000Y-53100000D01*
X153900000Y-53100000D01*
X153900000Y-54900000D01*
X153900000Y-54900000D01*
G37*
G36*
X102900000Y-54900000D02*
X101100000Y-54900000D01*
X101100000Y-53100000D01*
X102900000Y-53100000D01*
X102900000Y-54900000D01*
X102900000Y-54900000D01*
G37*
G36*
X125550000Y-53575000D02*
X122950000Y-53575000D01*
X122950000Y-52275000D01*
X125550000Y-52275000D01*
X125550000Y-53575000D01*
X125550000Y-53575000D01*
G37*
G36*
X113050000Y-53575000D02*
X110450000Y-53575000D01*
X110450000Y-52275000D01*
X113050000Y-52275000D01*
X113050000Y-53575000D01*
X113050000Y-53575000D01*
G37*
G36*
X135550000Y-53575000D02*
X132950000Y-53575000D01*
X132950000Y-52275000D01*
X135550000Y-52275000D01*
X135550000Y-53575000D01*
X135550000Y-53575000D01*
G37*
G36*
X117078087Y-51204097D02*
X117112181Y-51214440D01*
X117143611Y-51231239D01*
X117171156Y-51253844D01*
X117193761Y-51281389D01*
X117210560Y-51312819D01*
X117220903Y-51346913D01*
X117225000Y-51388516D01*
X117225000Y-52636484D01*
X117220903Y-52678087D01*
X117210560Y-52712181D01*
X117193761Y-52743611D01*
X117171156Y-52771156D01*
X117143611Y-52793761D01*
X117112181Y-52810560D01*
X117078087Y-52820903D01*
X117036484Y-52825000D01*
X113963516Y-52825000D01*
X113921913Y-52820903D01*
X113887819Y-52810560D01*
X113856389Y-52793761D01*
X113828844Y-52771156D01*
X113806239Y-52743611D01*
X113789440Y-52712181D01*
X113779097Y-52678087D01*
X113775000Y-52636484D01*
X113775000Y-51388516D01*
X113779097Y-51346913D01*
X113789440Y-51312819D01*
X113806239Y-51281389D01*
X113828844Y-51253844D01*
X113856389Y-51231239D01*
X113887819Y-51214440D01*
X113921913Y-51204097D01*
X113963516Y-51200000D01*
X117036484Y-51200000D01*
X117078087Y-51204097D01*
X117078087Y-51204097D01*
G37*
G36*
X139578087Y-50716597D02*
X139612181Y-50726940D01*
X139643611Y-50743739D01*
X139671156Y-50766344D01*
X139693761Y-50793889D01*
X139710560Y-50825319D01*
X139720903Y-50859413D01*
X139725000Y-50901016D01*
X139725000Y-52148984D01*
X139720903Y-52190587D01*
X139710560Y-52224681D01*
X139693761Y-52256111D01*
X139671156Y-52283656D01*
X139643611Y-52306261D01*
X139612181Y-52323060D01*
X139578087Y-52333403D01*
X139536484Y-52337500D01*
X136463516Y-52337500D01*
X136421913Y-52333403D01*
X136387819Y-52323060D01*
X136356389Y-52306261D01*
X136328844Y-52283656D01*
X136306239Y-52256111D01*
X136289440Y-52224681D01*
X136279097Y-52190587D01*
X136275000Y-52148984D01*
X136275000Y-50901016D01*
X136279097Y-50859413D01*
X136289440Y-50825319D01*
X136306239Y-50793889D01*
X136328844Y-50766344D01*
X136356389Y-50743739D01*
X136387819Y-50726940D01*
X136421913Y-50716597D01*
X136463516Y-50712500D01*
X139536484Y-50712500D01*
X139578087Y-50716597D01*
X139578087Y-50716597D01*
G37*
G36*
X150578087Y-50704097D02*
X150612181Y-50714440D01*
X150643611Y-50731239D01*
X150671156Y-50753844D01*
X150693761Y-50781389D01*
X150710560Y-50812819D01*
X150720903Y-50846913D01*
X150725000Y-50888516D01*
X150725000Y-52136484D01*
X150720903Y-52178087D01*
X150710560Y-52212181D01*
X150693761Y-52243611D01*
X150671156Y-52271156D01*
X150643611Y-52293761D01*
X150612181Y-52310560D01*
X150578087Y-52320903D01*
X150536484Y-52325000D01*
X147463516Y-52325000D01*
X147421913Y-52320903D01*
X147387819Y-52310560D01*
X147356389Y-52293761D01*
X147328844Y-52271156D01*
X147306239Y-52243611D01*
X147289440Y-52212181D01*
X147279097Y-52178087D01*
X147275000Y-52136484D01*
X147275000Y-50888516D01*
X147279097Y-50846913D01*
X147289440Y-50812819D01*
X147306239Y-50781389D01*
X147328844Y-50753844D01*
X147356389Y-50731239D01*
X147387819Y-50714440D01*
X147421913Y-50704097D01*
X147463516Y-50700000D01*
X150536484Y-50700000D01*
X150578087Y-50704097D01*
X150578087Y-50704097D01*
G37*
G36*
X121233352Y-50555743D02*
X121378941Y-50616048D01*
X121509973Y-50703601D01*
X121621399Y-50815027D01*
X121708952Y-50946059D01*
X121769257Y-51091648D01*
X121800000Y-51246205D01*
X121800000Y-51403795D01*
X121769257Y-51558352D01*
X121708952Y-51703941D01*
X121621399Y-51834973D01*
X121509973Y-51946399D01*
X121378941Y-52033952D01*
X121233352Y-52094257D01*
X121078795Y-52125000D01*
X120921205Y-52125000D01*
X120766648Y-52094257D01*
X120621059Y-52033952D01*
X120490027Y-51946399D01*
X120378601Y-51834973D01*
X120291048Y-51703941D01*
X120230743Y-51558352D01*
X120200000Y-51403795D01*
X120200000Y-51246205D01*
X120230743Y-51091648D01*
X120291048Y-50946059D01*
X120378601Y-50815027D01*
X120490027Y-50703601D01*
X120621059Y-50616048D01*
X120766648Y-50555743D01*
X120921205Y-50525000D01*
X121078795Y-50525000D01*
X121233352Y-50555743D01*
X121233352Y-50555743D01*
G37*
G36*
X108733352Y-50555743D02*
X108878941Y-50616048D01*
X109009973Y-50703601D01*
X109121399Y-50815027D01*
X109208952Y-50946059D01*
X109269257Y-51091648D01*
X109300000Y-51246205D01*
X109300000Y-51403795D01*
X109269257Y-51558352D01*
X109208952Y-51703941D01*
X109121399Y-51834973D01*
X109009973Y-51946399D01*
X108878941Y-52033952D01*
X108733352Y-52094257D01*
X108578795Y-52125000D01*
X108421205Y-52125000D01*
X108266648Y-52094257D01*
X108121059Y-52033952D01*
X107990027Y-51946399D01*
X107878601Y-51834973D01*
X107791048Y-51703941D01*
X107730743Y-51558352D01*
X107700000Y-51403795D01*
X107700000Y-51246205D01*
X107730743Y-51091648D01*
X107791048Y-50946059D01*
X107878601Y-50815027D01*
X107990027Y-50703601D01*
X108121059Y-50616048D01*
X108266648Y-50555743D01*
X108421205Y-50525000D01*
X108578795Y-50525000D01*
X108733352Y-50555743D01*
X108733352Y-50555743D01*
G37*
G36*
X131233352Y-50555743D02*
X131378941Y-50616048D01*
X131509973Y-50703601D01*
X131621399Y-50815027D01*
X131708952Y-50946059D01*
X131769257Y-51091648D01*
X131800000Y-51246205D01*
X131800000Y-51403795D01*
X131769257Y-51558352D01*
X131708952Y-51703941D01*
X131621399Y-51834973D01*
X131509973Y-51946399D01*
X131378941Y-52033952D01*
X131233352Y-52094257D01*
X131078795Y-52125000D01*
X130921205Y-52125000D01*
X130766648Y-52094257D01*
X130621059Y-52033952D01*
X130490027Y-51946399D01*
X130378601Y-51834973D01*
X130291048Y-51703941D01*
X130230743Y-51558352D01*
X130200000Y-51403795D01*
X130200000Y-51246205D01*
X130230743Y-51091648D01*
X130291048Y-50946059D01*
X130378601Y-50815027D01*
X130490027Y-50703601D01*
X130621059Y-50616048D01*
X130766648Y-50555743D01*
X130921205Y-50525000D01*
X131078795Y-50525000D01*
X131233352Y-50555743D01*
X131233352Y-50555743D01*
G37*
G36*
X143163899Y-50979436D02*
X143201310Y-50990784D01*
X143235775Y-51009206D01*
X143265995Y-51034006D01*
X143290795Y-51064226D01*
X143309217Y-51098691D01*
X143320565Y-51136102D01*
X143325001Y-51181141D01*
X143325001Y-51818859D01*
X143320565Y-51863898D01*
X143309217Y-51901309D01*
X143290795Y-51935774D01*
X143265995Y-51965994D01*
X143235775Y-51990794D01*
X143201310Y-52009216D01*
X143163899Y-52020564D01*
X143118860Y-52025000D01*
X142381142Y-52025000D01*
X142336103Y-52020564D01*
X142298692Y-52009216D01*
X142264227Y-51990794D01*
X142234007Y-51965994D01*
X142209207Y-51935774D01*
X142190785Y-51901309D01*
X142179437Y-51863898D01*
X142175001Y-51818859D01*
X142175001Y-51181141D01*
X142179437Y-51136102D01*
X142190785Y-51098691D01*
X142209207Y-51064226D01*
X142234007Y-51034006D01*
X142264227Y-51009206D01*
X142298692Y-50990784D01*
X142336103Y-50979436D01*
X142381142Y-50975000D01*
X143118860Y-50975000D01*
X143163899Y-50979436D01*
X143163899Y-50979436D01*
G37*
G36*
X144913899Y-50979436D02*
X144951310Y-50990784D01*
X144985775Y-51009206D01*
X145015995Y-51034006D01*
X145040795Y-51064226D01*
X145059217Y-51098691D01*
X145070565Y-51136102D01*
X145075001Y-51181141D01*
X145075001Y-51818859D01*
X145070565Y-51863898D01*
X145059217Y-51901309D01*
X145040795Y-51935774D01*
X145015995Y-51965994D01*
X144985775Y-51990794D01*
X144951310Y-52009216D01*
X144913899Y-52020564D01*
X144868860Y-52025000D01*
X144131142Y-52025000D01*
X144086103Y-52020564D01*
X144048692Y-52009216D01*
X144014227Y-51990794D01*
X143984007Y-51965994D01*
X143959207Y-51935774D01*
X143940785Y-51901309D01*
X143929437Y-51863898D01*
X143925001Y-51818859D01*
X143925001Y-51181141D01*
X143929437Y-51136102D01*
X143940785Y-51098691D01*
X143959207Y-51064226D01*
X143984007Y-51034006D01*
X144014227Y-51009206D01*
X144048692Y-50990784D01*
X144086103Y-50979436D01*
X144131142Y-50975000D01*
X144868860Y-50975000D01*
X144913899Y-50979436D01*
X144913899Y-50979436D01*
G37*
M02*
