%TF.GenerationSoftware,KiCad,Pcbnew,(5.0.2)-1*%
%TF.CreationDate,2020-07-31T09:38:14+02:00*%
%TF.ProjectId,Multimeter_Watch_Board_V1,4d756c74-696d-4657-9465-725f57617463,rev?*%
%TF.SameCoordinates,Original*%
%TF.FileFunction,Legend,Top*%
%TF.FilePolarity,Positive*%
%FSLAX46Y46*%
G04 Gerber Fmt 4.6, Leading zero omitted, Abs format (unit mm)*
G04 Created by KiCad (PCBNEW (5.0.2)-1) date 31.7.2020 9:38:14*
%MOMM*%
%LPD*%
G01*
G04 APERTURE LIST*
%ADD10C,0.300000*%
%ADD11C,0.280000*%
%ADD12C,0.120000*%
%ADD13C,0.010000*%
%ADD14C,0.150000*%
G04 APERTURE END LIST*
D10*
X138678571Y-78202380D02*
X138678571Y-79035714D01*
X137369047Y-79392857D02*
X137369047Y-78202380D01*
X139869047Y-78202380D01*
X139869047Y-79392857D01*
X138797619Y-80821428D02*
X138916666Y-80583333D01*
X139035714Y-80464285D01*
X139273809Y-80345238D01*
X139392857Y-80345238D01*
X139630952Y-80464285D01*
X139750000Y-80583333D01*
X139869047Y-80821428D01*
X139869047Y-81297619D01*
X139750000Y-81535714D01*
X139630952Y-81654761D01*
X139392857Y-81773809D01*
X139273809Y-81773809D01*
X139035714Y-81654761D01*
X138916666Y-81535714D01*
X138797619Y-81297619D01*
X138797619Y-80821428D01*
X138678571Y-80583333D01*
X138559523Y-80464285D01*
X138321428Y-80345238D01*
X137845238Y-80345238D01*
X137607142Y-80464285D01*
X137488095Y-80583333D01*
X137369047Y-80821428D01*
X137369047Y-81297619D01*
X137488095Y-81535714D01*
X137607142Y-81654761D01*
X137845238Y-81773809D01*
X138321428Y-81773809D01*
X138559523Y-81654761D01*
X138678571Y-81535714D01*
X138797619Y-81297619D01*
X139869047Y-82488095D02*
X137369047Y-83321428D01*
X139869047Y-84154761D01*
D11*
X114273809Y-93721428D02*
X114273809Y-95021428D01*
X114273809Y-93783333D02*
X114397619Y-93721428D01*
X114645238Y-93721428D01*
X114769047Y-93783333D01*
X114830952Y-93845238D01*
X114892857Y-93969047D01*
X114892857Y-94340476D01*
X114830952Y-94464285D01*
X114769047Y-94526190D01*
X114645238Y-94588095D01*
X114397619Y-94588095D01*
X114273809Y-94526190D01*
X115264285Y-93721428D02*
X115759523Y-93721428D01*
X115450000Y-93288095D02*
X115450000Y-94402380D01*
X115511904Y-94526190D01*
X115635714Y-94588095D01*
X115759523Y-94588095D01*
X116192857Y-94588095D02*
X116192857Y-93721428D01*
X116192857Y-93969047D02*
X116254761Y-93845238D01*
X116316666Y-93783333D01*
X116440476Y-93721428D01*
X116564285Y-93721428D01*
X116997619Y-94588095D02*
X116997619Y-93288095D01*
X116997619Y-93783333D02*
X117121428Y-93721428D01*
X117369047Y-93721428D01*
X117492857Y-93783333D01*
X117554761Y-93845238D01*
X117616666Y-93969047D01*
X117616666Y-94340476D01*
X117554761Y-94464285D01*
X117492857Y-94526190D01*
X117369047Y-94588095D01*
X117121428Y-94588095D01*
X116997619Y-94526190D01*
X118173809Y-94588095D02*
X118173809Y-93721428D01*
X118173809Y-93969047D02*
X118235714Y-93845238D01*
X118297619Y-93783333D01*
X118421428Y-93721428D01*
X118545238Y-93721428D01*
X119164285Y-94588095D02*
X119040476Y-94526190D01*
X118978571Y-94464285D01*
X118916666Y-94340476D01*
X118916666Y-93969047D01*
X118978571Y-93845238D01*
X119040476Y-93783333D01*
X119164285Y-93721428D01*
X119350000Y-93721428D01*
X119473809Y-93783333D01*
X119535714Y-93845238D01*
X119597619Y-93969047D01*
X119597619Y-94340476D01*
X119535714Y-94464285D01*
X119473809Y-94526190D01*
X119350000Y-94588095D01*
X119164285Y-94588095D01*
X120030952Y-93721428D02*
X120711904Y-93721428D01*
X120030952Y-94588095D01*
X120711904Y-94588095D01*
X122135714Y-93226190D02*
X121021428Y-94897619D01*
X122569047Y-94588095D02*
X122569047Y-93288095D01*
X123002380Y-94216666D01*
X123435714Y-93288095D01*
X123435714Y-94588095D01*
X124611904Y-93721428D02*
X124611904Y-94588095D01*
X124054761Y-93721428D02*
X124054761Y-94402380D01*
X124116666Y-94526190D01*
X124240476Y-94588095D01*
X124426190Y-94588095D01*
X124550000Y-94526190D01*
X124611904Y-94464285D01*
X125416666Y-94588095D02*
X125292857Y-94526190D01*
X125230952Y-94402380D01*
X125230952Y-93288095D01*
X125726190Y-93721428D02*
X126221428Y-93721428D01*
X125911904Y-93288095D02*
X125911904Y-94402380D01*
X125973809Y-94526190D01*
X126097619Y-94588095D01*
X126221428Y-94588095D01*
X126654761Y-94588095D02*
X126654761Y-93721428D01*
X126654761Y-93288095D02*
X126592857Y-93350000D01*
X126654761Y-93411904D01*
X126716666Y-93350000D01*
X126654761Y-93288095D01*
X126654761Y-93411904D01*
X127273809Y-94588095D02*
X127273809Y-93721428D01*
X127273809Y-93845238D02*
X127335714Y-93783333D01*
X127459523Y-93721428D01*
X127645238Y-93721428D01*
X127769047Y-93783333D01*
X127830952Y-93907142D01*
X127830952Y-94588095D01*
X127830952Y-93907142D02*
X127892857Y-93783333D01*
X128016666Y-93721428D01*
X128202380Y-93721428D01*
X128326190Y-93783333D01*
X128388095Y-93907142D01*
X128388095Y-94588095D01*
X129502380Y-94526190D02*
X129378571Y-94588095D01*
X129130952Y-94588095D01*
X129007142Y-94526190D01*
X128945238Y-94402380D01*
X128945238Y-93907142D01*
X129007142Y-93783333D01*
X129130952Y-93721428D01*
X129378571Y-93721428D01*
X129502380Y-93783333D01*
X129564285Y-93907142D01*
X129564285Y-94030952D01*
X128945238Y-94154761D01*
X129935714Y-93721428D02*
X130430952Y-93721428D01*
X130121428Y-93288095D02*
X130121428Y-94402380D01*
X130183333Y-94526190D01*
X130307142Y-94588095D01*
X130430952Y-94588095D01*
X131359523Y-94526190D02*
X131235714Y-94588095D01*
X130988095Y-94588095D01*
X130864285Y-94526190D01*
X130802380Y-94402380D01*
X130802380Y-93907142D01*
X130864285Y-93783333D01*
X130988095Y-93721428D01*
X131235714Y-93721428D01*
X131359523Y-93783333D01*
X131421428Y-93907142D01*
X131421428Y-94030952D01*
X130802380Y-94154761D01*
X131978571Y-94588095D02*
X131978571Y-93721428D01*
X131978571Y-93969047D02*
X132040476Y-93845238D01*
X132102380Y-93783333D01*
X132226190Y-93721428D01*
X132350000Y-93721428D01*
X132473809Y-94711904D02*
X133464285Y-94711904D01*
X133650000Y-93721428D02*
X133897619Y-94588095D01*
X134145238Y-93969047D01*
X134392857Y-94588095D01*
X134640476Y-93721428D01*
X135692857Y-94588095D02*
X135692857Y-93907142D01*
X135630952Y-93783333D01*
X135507142Y-93721428D01*
X135259523Y-93721428D01*
X135135714Y-93783333D01*
X135692857Y-94526190D02*
X135569047Y-94588095D01*
X135259523Y-94588095D01*
X135135714Y-94526190D01*
X135073809Y-94402380D01*
X135073809Y-94278571D01*
X135135714Y-94154761D01*
X135259523Y-94092857D01*
X135569047Y-94092857D01*
X135692857Y-94030952D01*
X136126190Y-93721428D02*
X136621428Y-93721428D01*
X136311904Y-93288095D02*
X136311904Y-94402380D01*
X136373809Y-94526190D01*
X136497619Y-94588095D01*
X136621428Y-94588095D01*
X137611904Y-94526190D02*
X137488095Y-94588095D01*
X137240476Y-94588095D01*
X137116666Y-94526190D01*
X137054761Y-94464285D01*
X136992857Y-94340476D01*
X136992857Y-93969047D01*
X137054761Y-93845238D01*
X137116666Y-93783333D01*
X137240476Y-93721428D01*
X137488095Y-93721428D01*
X137611904Y-93783333D01*
X138169047Y-94588095D02*
X138169047Y-93288095D01*
X138726190Y-94588095D02*
X138726190Y-93907142D01*
X138664285Y-93783333D01*
X138540476Y-93721428D01*
X138354761Y-93721428D01*
X138230952Y-93783333D01*
X138169047Y-93845238D01*
D12*
%TO.C,J4*%
X153000000Y-52670000D02*
X154330000Y-52670000D01*
X154330000Y-52670000D02*
X154330000Y-54000000D01*
X154330000Y-55270000D02*
X154330000Y-93430000D01*
X151670000Y-93430000D02*
X154330000Y-93430000D01*
X151670000Y-55270000D02*
X151670000Y-93430000D01*
X151670000Y-55270000D02*
X154330000Y-55270000D01*
%TO.C,R21*%
X111490000Y-77703732D02*
X111490000Y-78046266D01*
X112510000Y-77703732D02*
X112510000Y-78046266D01*
D13*
%TO.C,G\002A\002A\002A*%
G36*
X136617729Y-77822756D02*
X136659631Y-77880876D01*
X136671556Y-77982974D01*
X136658064Y-78130783D01*
X136644025Y-78217760D01*
X136592444Y-78453367D01*
X136522654Y-78688090D01*
X136439868Y-78909321D01*
X136349296Y-79104451D01*
X136256149Y-79260871D01*
X136171700Y-79360620D01*
X136089329Y-79399436D01*
X136006195Y-79382081D01*
X135944367Y-79316534D01*
X135935473Y-79276677D01*
X135947466Y-79217466D01*
X135984117Y-79128095D01*
X136049197Y-78997756D01*
X136068240Y-78961497D01*
X136157922Y-78789502D01*
X136215622Y-78670090D01*
X136240184Y-78600328D01*
X136230451Y-78577285D01*
X136185268Y-78598027D01*
X136103477Y-78659621D01*
X135987326Y-78756257D01*
X135869248Y-78855639D01*
X135716465Y-78983472D01*
X135543281Y-79127828D01*
X135364001Y-79276780D01*
X135221364Y-79394903D01*
X134736104Y-79796070D01*
X134844615Y-79929722D01*
X134911576Y-80016767D01*
X134998854Y-80136489D01*
X135091770Y-80268581D01*
X135131437Y-80326539D01*
X135212598Y-80448055D01*
X135264411Y-80535366D01*
X135293447Y-80606630D01*
X135306277Y-80680006D01*
X135309472Y-80773652D01*
X135309527Y-80818664D01*
X135290507Y-81068293D01*
X135238067Y-81344688D01*
X135158464Y-81626278D01*
X135057959Y-81891496D01*
X134942812Y-82118773D01*
X134922807Y-82151183D01*
X134828924Y-82267411D01*
X134694678Y-82394291D01*
X134537737Y-82518427D01*
X134375770Y-82626418D01*
X134226443Y-82704868D01*
X134160456Y-82729302D01*
X134033738Y-82755124D01*
X133867262Y-82772146D01*
X133692674Y-82777948D01*
X133388875Y-82777897D01*
X133398439Y-83218553D01*
X133401360Y-83398766D01*
X133400365Y-83526370D01*
X133394497Y-83612186D01*
X133382799Y-83667035D01*
X133364316Y-83701740D01*
X133354794Y-83712419D01*
X133285715Y-83751038D01*
X133234899Y-83756002D01*
X133180306Y-83735584D01*
X133140343Y-83687245D01*
X133113075Y-83603266D01*
X133096569Y-83475928D01*
X133088889Y-83297510D01*
X133087718Y-83168811D01*
X133085610Y-83012232D01*
X133080173Y-82879672D01*
X133072182Y-82783461D01*
X133062415Y-82735931D01*
X133060301Y-82733342D01*
X133017705Y-82720461D01*
X132930123Y-82701824D01*
X132815353Y-82681166D01*
X132798364Y-82678363D01*
X132656126Y-82647276D01*
X132528911Y-82605569D01*
X132452250Y-82568077D01*
X132334074Y-82499635D01*
X132244938Y-82474954D01*
X132166605Y-82495399D01*
X132080842Y-82562335D01*
X132044088Y-82598635D01*
X131905801Y-82739603D01*
X131889304Y-83417614D01*
X131882781Y-83652541D01*
X131875664Y-83831755D01*
X131867264Y-83963042D01*
X131856889Y-84054186D01*
X131843850Y-84112975D01*
X131827454Y-84147194D01*
X131824232Y-84151187D01*
X131746410Y-84201144D01*
X131661195Y-84190596D01*
X131608535Y-84152249D01*
X131588521Y-84126210D01*
X131574766Y-84088253D01*
X131566663Y-84028583D01*
X131563604Y-83937404D01*
X131564981Y-83804919D01*
X131570186Y-83621333D01*
X131572077Y-83564450D01*
X131590119Y-83031151D01*
X131498993Y-83096038D01*
X131442712Y-83143876D01*
X131355311Y-83227294D01*
X131248376Y-83334877D01*
X131133496Y-83455215D01*
X131124377Y-83464979D01*
X131003766Y-83592084D01*
X130916508Y-83677479D01*
X130854582Y-83727622D01*
X130809966Y-83748974D01*
X130774640Y-83747995D01*
X130773409Y-83747615D01*
X130703323Y-83703143D01*
X130673252Y-83665136D01*
X130659330Y-83611306D01*
X130674648Y-83545817D01*
X130723660Y-83461000D01*
X130810821Y-83349189D01*
X130940588Y-83202716D01*
X130944285Y-83198687D01*
X131155643Y-82968500D01*
X130778421Y-82968500D01*
X130598830Y-82966346D01*
X130473319Y-82957892D01*
X130392559Y-82940146D01*
X130347215Y-82910116D01*
X130327957Y-82864812D01*
X130325000Y-82823162D01*
X130330480Y-82771388D01*
X130352124Y-82732198D01*
X130397737Y-82703641D01*
X130475125Y-82683768D01*
X130592093Y-82670626D01*
X130756447Y-82662265D01*
X130975992Y-82656734D01*
X130992085Y-82656431D01*
X131554323Y-82645987D01*
X131741048Y-82457292D01*
X131927774Y-82268598D01*
X131886240Y-82194710D01*
X132397757Y-82194710D01*
X132419979Y-82219216D01*
X132439990Y-82227276D01*
X132512205Y-82261418D01*
X132577078Y-82299376D01*
X132664589Y-82338301D01*
X132804468Y-82378370D01*
X132985722Y-82416554D01*
X133031687Y-82424679D01*
X133039674Y-82396107D01*
X133046521Y-82314487D01*
X133051740Y-82190269D01*
X133054845Y-82033901D01*
X133055500Y-81914399D01*
X133053960Y-81744528D01*
X133049700Y-81602010D01*
X133043258Y-81496595D01*
X133035173Y-81438034D01*
X133028757Y-81430212D01*
X132999220Y-81464893D01*
X132937609Y-81538118D01*
X132852510Y-81639656D01*
X132752510Y-81759277D01*
X132736983Y-81777875D01*
X132633237Y-81902150D01*
X132540955Y-82012678D01*
X132469528Y-82098212D01*
X132428347Y-82147503D01*
X132426028Y-82150275D01*
X132397757Y-82194710D01*
X131886240Y-82194710D01*
X131838007Y-82108906D01*
X131791722Y-82011382D01*
X131736979Y-81872947D01*
X131681495Y-81714097D01*
X131643974Y-81593670D01*
X131541557Y-81244424D01*
X131849000Y-81244424D01*
X131858618Y-81291952D01*
X131883991Y-81383022D01*
X131919892Y-81501243D01*
X131961095Y-81630221D01*
X132002375Y-81753565D01*
X132038506Y-81854883D01*
X132062475Y-81914055D01*
X132099877Y-81979915D01*
X132129869Y-82009462D01*
X132133979Y-82009305D01*
X132160975Y-81982912D01*
X132220905Y-81915968D01*
X132306382Y-81816984D01*
X132410023Y-81694468D01*
X132479527Y-81611187D01*
X132802511Y-81222250D01*
X132325755Y-81222250D01*
X132159925Y-81223641D01*
X132019175Y-81227476D01*
X131914471Y-81233243D01*
X131856784Y-81240434D01*
X131849000Y-81244424D01*
X131541557Y-81244424D01*
X131539709Y-81238125D01*
X131162542Y-81229539D01*
X130995091Y-81224207D01*
X130880111Y-81216109D01*
X130806581Y-81203616D01*
X130763481Y-81185099D01*
X130745687Y-81167908D01*
X130709019Y-81090906D01*
X130716188Y-81062135D01*
X133357125Y-81062135D01*
X133375341Y-82456651D01*
X133477358Y-82471172D01*
X133624957Y-82482642D01*
X133789018Y-82480463D01*
X133949016Y-82466349D01*
X134084426Y-82442015D01*
X134166750Y-82413612D01*
X134249848Y-82364042D01*
X134358019Y-82291011D01*
X134460422Y-82215906D01*
X134559938Y-82132900D01*
X134634693Y-82049970D01*
X134700385Y-81946579D01*
X134766321Y-81815718D01*
X134848255Y-81620889D01*
X134917001Y-81414508D01*
X134970204Y-81208689D01*
X135005510Y-81015548D01*
X135020566Y-80847200D01*
X135013016Y-80715759D01*
X134992580Y-80651367D01*
X134957601Y-80594361D01*
X134895608Y-80500999D01*
X134816768Y-80386402D01*
X134764700Y-80312465D01*
X134662332Y-80175690D01*
X134585279Y-80090178D01*
X134528965Y-80051165D01*
X134510146Y-80047500D01*
X134455478Y-80070051D01*
X134361294Y-80135435D01*
X134231602Y-80240242D01*
X134070407Y-80381067D01*
X133881717Y-80554500D01*
X133669538Y-80757136D01*
X133627000Y-80798559D01*
X133357125Y-81062135D01*
X130716188Y-81062135D01*
X130727817Y-81015473D01*
X130736984Y-81000000D01*
X130766037Y-80978092D01*
X130827670Y-80961657D01*
X130931058Y-80949309D01*
X131085373Y-80939661D01*
X131157185Y-80936500D01*
X131547375Y-80920625D01*
X131556188Y-80848198D01*
X131849000Y-80848198D01*
X131849000Y-80929539D01*
X132460187Y-80913647D01*
X133071375Y-80897754D01*
X133309500Y-80668847D01*
X133432426Y-80552233D01*
X133582236Y-80412436D01*
X133738397Y-80268512D01*
X133857848Y-80159827D01*
X134168072Y-79879715D01*
X133972227Y-79759276D01*
X133846761Y-79690889D01*
X133714990Y-79632704D01*
X133617912Y-79600819D01*
X133481484Y-79582435D01*
X133307100Y-79578956D01*
X133118177Y-79588982D01*
X132938132Y-79611113D01*
X132790379Y-79643949D01*
X132766659Y-79651715D01*
X132667047Y-79702616D01*
X132541773Y-79789015D01*
X132406158Y-79897900D01*
X132275522Y-80016262D01*
X132165184Y-80131092D01*
X132094965Y-80222125D01*
X132031748Y-80335313D01*
X131968325Y-80471573D01*
X131911996Y-80612322D01*
X131870061Y-80738979D01*
X131849819Y-80832965D01*
X131849000Y-80848198D01*
X131556188Y-80848198D01*
X131564762Y-80777750D01*
X131594741Y-80639763D01*
X131650399Y-80472070D01*
X131722441Y-80297966D01*
X131801571Y-80140742D01*
X131850795Y-80060968D01*
X131927707Y-79965132D01*
X132040059Y-79845197D01*
X132172932Y-79715740D01*
X132311403Y-79591339D01*
X132432324Y-79492811D01*
X132554034Y-79416832D01*
X132697013Y-79362274D01*
X132872149Y-79326738D01*
X133090329Y-79307826D01*
X133293625Y-79303087D01*
X133706375Y-79301375D01*
X134096380Y-79455272D01*
X134486386Y-79609169D01*
X134763130Y-79374504D01*
X134888114Y-79269483D01*
X135045671Y-79138519D01*
X135218952Y-78995544D01*
X135391109Y-78854485D01*
X135460562Y-78797915D01*
X135598540Y-78685089D01*
X135717511Y-78586505D01*
X135809457Y-78508915D01*
X135866354Y-78459072D01*
X135881250Y-78443740D01*
X135855630Y-78446280D01*
X135792535Y-78468305D01*
X135778062Y-78474170D01*
X135681809Y-78506165D01*
X135551043Y-78539596D01*
X135404940Y-78570721D01*
X135262678Y-78595797D01*
X135143434Y-78611082D01*
X135067051Y-78612915D01*
X134987154Y-78578165D01*
X134950772Y-78510599D01*
X134965257Y-78429599D01*
X134985907Y-78398996D01*
X135047730Y-78356310D01*
X135162864Y-78314552D01*
X135336309Y-78271919D01*
X135341500Y-78270813D01*
X135501441Y-78231249D01*
X135657303Y-78179290D01*
X135827454Y-78107886D01*
X136030266Y-78009986D01*
X136059143Y-77995375D01*
X136266557Y-77894924D01*
X136425753Y-77831514D01*
X136541290Y-77806880D01*
X136617729Y-77822756D01*
X136617729Y-77822756D01*
G37*
X136617729Y-77822756D02*
X136659631Y-77880876D01*
X136671556Y-77982974D01*
X136658064Y-78130783D01*
X136644025Y-78217760D01*
X136592444Y-78453367D01*
X136522654Y-78688090D01*
X136439868Y-78909321D01*
X136349296Y-79104451D01*
X136256149Y-79260871D01*
X136171700Y-79360620D01*
X136089329Y-79399436D01*
X136006195Y-79382081D01*
X135944367Y-79316534D01*
X135935473Y-79276677D01*
X135947466Y-79217466D01*
X135984117Y-79128095D01*
X136049197Y-78997756D01*
X136068240Y-78961497D01*
X136157922Y-78789502D01*
X136215622Y-78670090D01*
X136240184Y-78600328D01*
X136230451Y-78577285D01*
X136185268Y-78598027D01*
X136103477Y-78659621D01*
X135987326Y-78756257D01*
X135869248Y-78855639D01*
X135716465Y-78983472D01*
X135543281Y-79127828D01*
X135364001Y-79276780D01*
X135221364Y-79394903D01*
X134736104Y-79796070D01*
X134844615Y-79929722D01*
X134911576Y-80016767D01*
X134998854Y-80136489D01*
X135091770Y-80268581D01*
X135131437Y-80326539D01*
X135212598Y-80448055D01*
X135264411Y-80535366D01*
X135293447Y-80606630D01*
X135306277Y-80680006D01*
X135309472Y-80773652D01*
X135309527Y-80818664D01*
X135290507Y-81068293D01*
X135238067Y-81344688D01*
X135158464Y-81626278D01*
X135057959Y-81891496D01*
X134942812Y-82118773D01*
X134922807Y-82151183D01*
X134828924Y-82267411D01*
X134694678Y-82394291D01*
X134537737Y-82518427D01*
X134375770Y-82626418D01*
X134226443Y-82704868D01*
X134160456Y-82729302D01*
X134033738Y-82755124D01*
X133867262Y-82772146D01*
X133692674Y-82777948D01*
X133388875Y-82777897D01*
X133398439Y-83218553D01*
X133401360Y-83398766D01*
X133400365Y-83526370D01*
X133394497Y-83612186D01*
X133382799Y-83667035D01*
X133364316Y-83701740D01*
X133354794Y-83712419D01*
X133285715Y-83751038D01*
X133234899Y-83756002D01*
X133180306Y-83735584D01*
X133140343Y-83687245D01*
X133113075Y-83603266D01*
X133096569Y-83475928D01*
X133088889Y-83297510D01*
X133087718Y-83168811D01*
X133085610Y-83012232D01*
X133080173Y-82879672D01*
X133072182Y-82783461D01*
X133062415Y-82735931D01*
X133060301Y-82733342D01*
X133017705Y-82720461D01*
X132930123Y-82701824D01*
X132815353Y-82681166D01*
X132798364Y-82678363D01*
X132656126Y-82647276D01*
X132528911Y-82605569D01*
X132452250Y-82568077D01*
X132334074Y-82499635D01*
X132244938Y-82474954D01*
X132166605Y-82495399D01*
X132080842Y-82562335D01*
X132044088Y-82598635D01*
X131905801Y-82739603D01*
X131889304Y-83417614D01*
X131882781Y-83652541D01*
X131875664Y-83831755D01*
X131867264Y-83963042D01*
X131856889Y-84054186D01*
X131843850Y-84112975D01*
X131827454Y-84147194D01*
X131824232Y-84151187D01*
X131746410Y-84201144D01*
X131661195Y-84190596D01*
X131608535Y-84152249D01*
X131588521Y-84126210D01*
X131574766Y-84088253D01*
X131566663Y-84028583D01*
X131563604Y-83937404D01*
X131564981Y-83804919D01*
X131570186Y-83621333D01*
X131572077Y-83564450D01*
X131590119Y-83031151D01*
X131498993Y-83096038D01*
X131442712Y-83143876D01*
X131355311Y-83227294D01*
X131248376Y-83334877D01*
X131133496Y-83455215D01*
X131124377Y-83464979D01*
X131003766Y-83592084D01*
X130916508Y-83677479D01*
X130854582Y-83727622D01*
X130809966Y-83748974D01*
X130774640Y-83747995D01*
X130773409Y-83747615D01*
X130703323Y-83703143D01*
X130673252Y-83665136D01*
X130659330Y-83611306D01*
X130674648Y-83545817D01*
X130723660Y-83461000D01*
X130810821Y-83349189D01*
X130940588Y-83202716D01*
X130944285Y-83198687D01*
X131155643Y-82968500D01*
X130778421Y-82968500D01*
X130598830Y-82966346D01*
X130473319Y-82957892D01*
X130392559Y-82940146D01*
X130347215Y-82910116D01*
X130327957Y-82864812D01*
X130325000Y-82823162D01*
X130330480Y-82771388D01*
X130352124Y-82732198D01*
X130397737Y-82703641D01*
X130475125Y-82683768D01*
X130592093Y-82670626D01*
X130756447Y-82662265D01*
X130975992Y-82656734D01*
X130992085Y-82656431D01*
X131554323Y-82645987D01*
X131741048Y-82457292D01*
X131927774Y-82268598D01*
X131886240Y-82194710D01*
X132397757Y-82194710D01*
X132419979Y-82219216D01*
X132439990Y-82227276D01*
X132512205Y-82261418D01*
X132577078Y-82299376D01*
X132664589Y-82338301D01*
X132804468Y-82378370D01*
X132985722Y-82416554D01*
X133031687Y-82424679D01*
X133039674Y-82396107D01*
X133046521Y-82314487D01*
X133051740Y-82190269D01*
X133054845Y-82033901D01*
X133055500Y-81914399D01*
X133053960Y-81744528D01*
X133049700Y-81602010D01*
X133043258Y-81496595D01*
X133035173Y-81438034D01*
X133028757Y-81430212D01*
X132999220Y-81464893D01*
X132937609Y-81538118D01*
X132852510Y-81639656D01*
X132752510Y-81759277D01*
X132736983Y-81777875D01*
X132633237Y-81902150D01*
X132540955Y-82012678D01*
X132469528Y-82098212D01*
X132428347Y-82147503D01*
X132426028Y-82150275D01*
X132397757Y-82194710D01*
X131886240Y-82194710D01*
X131838007Y-82108906D01*
X131791722Y-82011382D01*
X131736979Y-81872947D01*
X131681495Y-81714097D01*
X131643974Y-81593670D01*
X131541557Y-81244424D01*
X131849000Y-81244424D01*
X131858618Y-81291952D01*
X131883991Y-81383022D01*
X131919892Y-81501243D01*
X131961095Y-81630221D01*
X132002375Y-81753565D01*
X132038506Y-81854883D01*
X132062475Y-81914055D01*
X132099877Y-81979915D01*
X132129869Y-82009462D01*
X132133979Y-82009305D01*
X132160975Y-81982912D01*
X132220905Y-81915968D01*
X132306382Y-81816984D01*
X132410023Y-81694468D01*
X132479527Y-81611187D01*
X132802511Y-81222250D01*
X132325755Y-81222250D01*
X132159925Y-81223641D01*
X132019175Y-81227476D01*
X131914471Y-81233243D01*
X131856784Y-81240434D01*
X131849000Y-81244424D01*
X131541557Y-81244424D01*
X131539709Y-81238125D01*
X131162542Y-81229539D01*
X130995091Y-81224207D01*
X130880111Y-81216109D01*
X130806581Y-81203616D01*
X130763481Y-81185099D01*
X130745687Y-81167908D01*
X130709019Y-81090906D01*
X130716188Y-81062135D01*
X133357125Y-81062135D01*
X133375341Y-82456651D01*
X133477358Y-82471172D01*
X133624957Y-82482642D01*
X133789018Y-82480463D01*
X133949016Y-82466349D01*
X134084426Y-82442015D01*
X134166750Y-82413612D01*
X134249848Y-82364042D01*
X134358019Y-82291011D01*
X134460422Y-82215906D01*
X134559938Y-82132900D01*
X134634693Y-82049970D01*
X134700385Y-81946579D01*
X134766321Y-81815718D01*
X134848255Y-81620889D01*
X134917001Y-81414508D01*
X134970204Y-81208689D01*
X135005510Y-81015548D01*
X135020566Y-80847200D01*
X135013016Y-80715759D01*
X134992580Y-80651367D01*
X134957601Y-80594361D01*
X134895608Y-80500999D01*
X134816768Y-80386402D01*
X134764700Y-80312465D01*
X134662332Y-80175690D01*
X134585279Y-80090178D01*
X134528965Y-80051165D01*
X134510146Y-80047500D01*
X134455478Y-80070051D01*
X134361294Y-80135435D01*
X134231602Y-80240242D01*
X134070407Y-80381067D01*
X133881717Y-80554500D01*
X133669538Y-80757136D01*
X133627000Y-80798559D01*
X133357125Y-81062135D01*
X130716188Y-81062135D01*
X130727817Y-81015473D01*
X130736984Y-81000000D01*
X130766037Y-80978092D01*
X130827670Y-80961657D01*
X130931058Y-80949309D01*
X131085373Y-80939661D01*
X131157185Y-80936500D01*
X131547375Y-80920625D01*
X131556188Y-80848198D01*
X131849000Y-80848198D01*
X131849000Y-80929539D01*
X132460187Y-80913647D01*
X133071375Y-80897754D01*
X133309500Y-80668847D01*
X133432426Y-80552233D01*
X133582236Y-80412436D01*
X133738397Y-80268512D01*
X133857848Y-80159827D01*
X134168072Y-79879715D01*
X133972227Y-79759276D01*
X133846761Y-79690889D01*
X133714990Y-79632704D01*
X133617912Y-79600819D01*
X133481484Y-79582435D01*
X133307100Y-79578956D01*
X133118177Y-79588982D01*
X132938132Y-79611113D01*
X132790379Y-79643949D01*
X132766659Y-79651715D01*
X132667047Y-79702616D01*
X132541773Y-79789015D01*
X132406158Y-79897900D01*
X132275522Y-80016262D01*
X132165184Y-80131092D01*
X132094965Y-80222125D01*
X132031748Y-80335313D01*
X131968325Y-80471573D01*
X131911996Y-80612322D01*
X131870061Y-80738979D01*
X131849819Y-80832965D01*
X131849000Y-80848198D01*
X131556188Y-80848198D01*
X131564762Y-80777750D01*
X131594741Y-80639763D01*
X131650399Y-80472070D01*
X131722441Y-80297966D01*
X131801571Y-80140742D01*
X131850795Y-80060968D01*
X131927707Y-79965132D01*
X132040059Y-79845197D01*
X132172932Y-79715740D01*
X132311403Y-79591339D01*
X132432324Y-79492811D01*
X132554034Y-79416832D01*
X132697013Y-79362274D01*
X132872149Y-79326738D01*
X133090329Y-79307826D01*
X133293625Y-79303087D01*
X133706375Y-79301375D01*
X134096380Y-79455272D01*
X134486386Y-79609169D01*
X134763130Y-79374504D01*
X134888114Y-79269483D01*
X135045671Y-79138519D01*
X135218952Y-78995544D01*
X135391109Y-78854485D01*
X135460562Y-78797915D01*
X135598540Y-78685089D01*
X135717511Y-78586505D01*
X135809457Y-78508915D01*
X135866354Y-78459072D01*
X135881250Y-78443740D01*
X135855630Y-78446280D01*
X135792535Y-78468305D01*
X135778062Y-78474170D01*
X135681809Y-78506165D01*
X135551043Y-78539596D01*
X135404940Y-78570721D01*
X135262678Y-78595797D01*
X135143434Y-78611082D01*
X135067051Y-78612915D01*
X134987154Y-78578165D01*
X134950772Y-78510599D01*
X134965257Y-78429599D01*
X134985907Y-78398996D01*
X135047730Y-78356310D01*
X135162864Y-78314552D01*
X135336309Y-78271919D01*
X135341500Y-78270813D01*
X135501441Y-78231249D01*
X135657303Y-78179290D01*
X135827454Y-78107886D01*
X136030266Y-78009986D01*
X136059143Y-77995375D01*
X136266557Y-77894924D01*
X136425753Y-77831514D01*
X136541290Y-77806880D01*
X136617729Y-77822756D01*
G36*
X105671372Y-92557054D02*
X105812146Y-92583121D01*
X105948976Y-92622889D01*
X106080845Y-92675852D01*
X106206734Y-92741504D01*
X106325624Y-92819340D01*
X106436499Y-92908855D01*
X106538338Y-93009541D01*
X106630124Y-93120895D01*
X106710838Y-93242409D01*
X106779462Y-93373579D01*
X106834978Y-93513899D01*
X106861517Y-93602067D01*
X106892142Y-93748984D01*
X106906415Y-93897127D01*
X106904724Y-94045159D01*
X106887458Y-94191743D01*
X106855003Y-94335543D01*
X106807747Y-94475222D01*
X106746077Y-94609443D01*
X106670381Y-94736871D01*
X106581047Y-94856169D01*
X106478461Y-94965999D01*
X106461475Y-94982018D01*
X106355259Y-95071342D01*
X106240310Y-95151215D01*
X106120364Y-95219311D01*
X105999156Y-95273302D01*
X105986011Y-95278242D01*
X105940808Y-95293078D01*
X105907065Y-95299248D01*
X105881678Y-95296723D01*
X105861543Y-95285477D01*
X105852928Y-95277079D01*
X105848046Y-95270606D01*
X105844341Y-95261961D01*
X105841692Y-95249010D01*
X105839974Y-95229620D01*
X105839065Y-95201657D01*
X105838841Y-95162989D01*
X105839179Y-95111482D01*
X105839879Y-95051076D01*
X105840300Y-94983358D01*
X105839864Y-94919988D01*
X105838640Y-94863920D01*
X105836701Y-94818107D01*
X105834116Y-94785504D01*
X105833355Y-94779603D01*
X105824075Y-94734582D01*
X105810139Y-94689520D01*
X105793365Y-94649034D01*
X105775575Y-94617742D01*
X105764311Y-94604502D01*
X105752196Y-94591629D01*
X105748333Y-94584584D01*
X105756094Y-94581013D01*
X105776827Y-94576136D01*
X105806706Y-94570792D01*
X105820909Y-94568632D01*
X105930027Y-94546154D01*
X106029408Y-94511956D01*
X106118063Y-94466596D01*
X106195000Y-94410630D01*
X106259229Y-94344615D01*
X106287353Y-94306388D01*
X106322631Y-94241368D01*
X106351381Y-94164047D01*
X106372790Y-94078063D01*
X106386042Y-93987056D01*
X106390325Y-93894665D01*
X106389011Y-93851833D01*
X106375705Y-93753568D01*
X106347581Y-93662696D01*
X106304924Y-93579992D01*
X106271873Y-93533866D01*
X106247447Y-93503472D01*
X106261431Y-93449053D01*
X106269526Y-93398729D01*
X106271623Y-93338988D01*
X106267988Y-93276148D01*
X106258883Y-93216523D01*
X106250308Y-93182967D01*
X106241049Y-93155083D01*
X106232957Y-93139528D01*
X106222680Y-93132308D01*
X106206867Y-93129433D01*
X106205236Y-93129268D01*
X106160756Y-93130911D01*
X106106195Y-93142857D01*
X106044164Y-93164204D01*
X105977277Y-93194049D01*
X105908144Y-93231486D01*
X105905893Y-93232818D01*
X105839086Y-93272447D01*
X105749260Y-93253251D01*
X105715248Y-93246467D01*
X105683433Y-93241455D01*
X105650253Y-93237960D01*
X105612142Y-93235724D01*
X105565538Y-93234490D01*
X105506875Y-93234001D01*
X105481633Y-93233958D01*
X105418455Y-93234143D01*
X105368693Y-93234949D01*
X105328831Y-93236632D01*
X105295356Y-93239450D01*
X105264752Y-93243661D01*
X105233507Y-93249522D01*
X105214933Y-93253508D01*
X105126033Y-93273156D01*
X105060255Y-93233603D01*
X104988916Y-93194578D01*
X104918856Y-93163567D01*
X104853511Y-93141894D01*
X104796315Y-93130877D01*
X104792168Y-93130494D01*
X104733736Y-93125595D01*
X104715562Y-93183914D01*
X104699341Y-93254304D01*
X104692247Y-93328490D01*
X104694613Y-93400015D01*
X104702097Y-93445131D01*
X104709076Y-93476081D01*
X104711800Y-93495497D01*
X104710073Y-93508286D01*
X104703697Y-93519355D01*
X104698874Y-93525564D01*
X104644723Y-93606665D01*
X104605785Y-93695122D01*
X104582049Y-93790978D01*
X104573503Y-93894275D01*
X104579267Y-93997807D01*
X104594350Y-94094122D01*
X104616254Y-94177231D01*
X104646178Y-94249903D01*
X104685323Y-94314907D01*
X104734887Y-94375009D01*
X104749094Y-94389640D01*
X104822376Y-94451019D01*
X104907687Y-94500832D01*
X105004436Y-94538803D01*
X105112035Y-94564659D01*
X105132767Y-94568045D01*
X105171418Y-94574041D01*
X105195589Y-94578771D01*
X105207522Y-94583630D01*
X105209460Y-94590012D01*
X105203644Y-94599312D01*
X105196621Y-94607759D01*
X105171932Y-94646124D01*
X105149014Y-94699999D01*
X105137225Y-94736318D01*
X105130094Y-94757364D01*
X105121217Y-94770387D01*
X105105936Y-94779406D01*
X105079591Y-94788440D01*
X105075233Y-94789787D01*
X105029127Y-94800107D01*
X104977917Y-94803184D01*
X104956700Y-94802683D01*
X104899024Y-94796133D01*
X104849486Y-94780398D01*
X104805250Y-94753703D01*
X104763481Y-94714271D01*
X104721345Y-94660325D01*
X104715112Y-94651303D01*
X104670681Y-94596326D01*
X104621663Y-94553820D01*
X104569936Y-94524835D01*
X104517375Y-94510423D01*
X104465860Y-94511633D01*
X104465633Y-94511675D01*
X104443103Y-94520175D01*
X104436512Y-94534045D01*
X104445835Y-94553012D01*
X104471047Y-94576804D01*
X104471771Y-94577372D01*
X104533639Y-94631357D01*
X104582676Y-94687541D01*
X104622795Y-94750652D01*
X104635248Y-94774832D01*
X104675601Y-94844145D01*
X104721644Y-94898209D01*
X104774383Y-94938046D01*
X104814911Y-94957661D01*
X104840056Y-94966354D01*
X104865548Y-94972066D01*
X104896025Y-94975403D01*
X104936126Y-94976972D01*
X104965167Y-94977309D01*
X105008083Y-94977192D01*
X105047585Y-94976427D01*
X105078998Y-94975144D01*
X105096400Y-94973667D01*
X105126033Y-94969434D01*
X105128351Y-95110544D01*
X105129109Y-95162601D01*
X105129215Y-95200506D01*
X105128382Y-95227035D01*
X105126319Y-95244966D01*
X105122738Y-95257076D01*
X105117350Y-95266142D01*
X105111418Y-95273208D01*
X105089312Y-95291615D01*
X105063605Y-95298904D01*
X105030620Y-95295502D01*
X104999033Y-95286240D01*
X104938984Y-95262881D01*
X104871280Y-95232011D01*
X104801638Y-95196513D01*
X104735773Y-95159268D01*
X104690237Y-95130550D01*
X104564031Y-95036292D01*
X104451069Y-94931542D01*
X104351529Y-94816576D01*
X104265587Y-94691674D01*
X104193421Y-94557112D01*
X104135210Y-94413170D01*
X104091129Y-94260123D01*
X104070987Y-94160867D01*
X104065491Y-94115377D01*
X104062004Y-94057578D01*
X104060482Y-93991969D01*
X104060882Y-93923047D01*
X104063160Y-93855313D01*
X104067273Y-93793265D01*
X104073176Y-93741402D01*
X104075188Y-93729067D01*
X104110614Y-93576557D01*
X104160957Y-93431047D01*
X104225524Y-93293400D01*
X104303620Y-93164479D01*
X104394549Y-93045147D01*
X104497618Y-92936268D01*
X104612131Y-92838703D01*
X104737393Y-92753316D01*
X104872710Y-92680970D01*
X104944000Y-92649926D01*
X105089214Y-92599905D01*
X105235576Y-92566113D01*
X105382069Y-92548044D01*
X105527674Y-92545193D01*
X105671372Y-92557054D01*
X105671372Y-92557054D01*
G37*
X105671372Y-92557054D02*
X105812146Y-92583121D01*
X105948976Y-92622889D01*
X106080845Y-92675852D01*
X106206734Y-92741504D01*
X106325624Y-92819340D01*
X106436499Y-92908855D01*
X106538338Y-93009541D01*
X106630124Y-93120895D01*
X106710838Y-93242409D01*
X106779462Y-93373579D01*
X106834978Y-93513899D01*
X106861517Y-93602067D01*
X106892142Y-93748984D01*
X106906415Y-93897127D01*
X106904724Y-94045159D01*
X106887458Y-94191743D01*
X106855003Y-94335543D01*
X106807747Y-94475222D01*
X106746077Y-94609443D01*
X106670381Y-94736871D01*
X106581047Y-94856169D01*
X106478461Y-94965999D01*
X106461475Y-94982018D01*
X106355259Y-95071342D01*
X106240310Y-95151215D01*
X106120364Y-95219311D01*
X105999156Y-95273302D01*
X105986011Y-95278242D01*
X105940808Y-95293078D01*
X105907065Y-95299248D01*
X105881678Y-95296723D01*
X105861543Y-95285477D01*
X105852928Y-95277079D01*
X105848046Y-95270606D01*
X105844341Y-95261961D01*
X105841692Y-95249010D01*
X105839974Y-95229620D01*
X105839065Y-95201657D01*
X105838841Y-95162989D01*
X105839179Y-95111482D01*
X105839879Y-95051076D01*
X105840300Y-94983358D01*
X105839864Y-94919988D01*
X105838640Y-94863920D01*
X105836701Y-94818107D01*
X105834116Y-94785504D01*
X105833355Y-94779603D01*
X105824075Y-94734582D01*
X105810139Y-94689520D01*
X105793365Y-94649034D01*
X105775575Y-94617742D01*
X105764311Y-94604502D01*
X105752196Y-94591629D01*
X105748333Y-94584584D01*
X105756094Y-94581013D01*
X105776827Y-94576136D01*
X105806706Y-94570792D01*
X105820909Y-94568632D01*
X105930027Y-94546154D01*
X106029408Y-94511956D01*
X106118063Y-94466596D01*
X106195000Y-94410630D01*
X106259229Y-94344615D01*
X106287353Y-94306388D01*
X106322631Y-94241368D01*
X106351381Y-94164047D01*
X106372790Y-94078063D01*
X106386042Y-93987056D01*
X106390325Y-93894665D01*
X106389011Y-93851833D01*
X106375705Y-93753568D01*
X106347581Y-93662696D01*
X106304924Y-93579992D01*
X106271873Y-93533866D01*
X106247447Y-93503472D01*
X106261431Y-93449053D01*
X106269526Y-93398729D01*
X106271623Y-93338988D01*
X106267988Y-93276148D01*
X106258883Y-93216523D01*
X106250308Y-93182967D01*
X106241049Y-93155083D01*
X106232957Y-93139528D01*
X106222680Y-93132308D01*
X106206867Y-93129433D01*
X106205236Y-93129268D01*
X106160756Y-93130911D01*
X106106195Y-93142857D01*
X106044164Y-93164204D01*
X105977277Y-93194049D01*
X105908144Y-93231486D01*
X105905893Y-93232818D01*
X105839086Y-93272447D01*
X105749260Y-93253251D01*
X105715248Y-93246467D01*
X105683433Y-93241455D01*
X105650253Y-93237960D01*
X105612142Y-93235724D01*
X105565538Y-93234490D01*
X105506875Y-93234001D01*
X105481633Y-93233958D01*
X105418455Y-93234143D01*
X105368693Y-93234949D01*
X105328831Y-93236632D01*
X105295356Y-93239450D01*
X105264752Y-93243661D01*
X105233507Y-93249522D01*
X105214933Y-93253508D01*
X105126033Y-93273156D01*
X105060255Y-93233603D01*
X104988916Y-93194578D01*
X104918856Y-93163567D01*
X104853511Y-93141894D01*
X104796315Y-93130877D01*
X104792168Y-93130494D01*
X104733736Y-93125595D01*
X104715562Y-93183914D01*
X104699341Y-93254304D01*
X104692247Y-93328490D01*
X104694613Y-93400015D01*
X104702097Y-93445131D01*
X104709076Y-93476081D01*
X104711800Y-93495497D01*
X104710073Y-93508286D01*
X104703697Y-93519355D01*
X104698874Y-93525564D01*
X104644723Y-93606665D01*
X104605785Y-93695122D01*
X104582049Y-93790978D01*
X104573503Y-93894275D01*
X104579267Y-93997807D01*
X104594350Y-94094122D01*
X104616254Y-94177231D01*
X104646178Y-94249903D01*
X104685323Y-94314907D01*
X104734887Y-94375009D01*
X104749094Y-94389640D01*
X104822376Y-94451019D01*
X104907687Y-94500832D01*
X105004436Y-94538803D01*
X105112035Y-94564659D01*
X105132767Y-94568045D01*
X105171418Y-94574041D01*
X105195589Y-94578771D01*
X105207522Y-94583630D01*
X105209460Y-94590012D01*
X105203644Y-94599312D01*
X105196621Y-94607759D01*
X105171932Y-94646124D01*
X105149014Y-94699999D01*
X105137225Y-94736318D01*
X105130094Y-94757364D01*
X105121217Y-94770387D01*
X105105936Y-94779406D01*
X105079591Y-94788440D01*
X105075233Y-94789787D01*
X105029127Y-94800107D01*
X104977917Y-94803184D01*
X104956700Y-94802683D01*
X104899024Y-94796133D01*
X104849486Y-94780398D01*
X104805250Y-94753703D01*
X104763481Y-94714271D01*
X104721345Y-94660325D01*
X104715112Y-94651303D01*
X104670681Y-94596326D01*
X104621663Y-94553820D01*
X104569936Y-94524835D01*
X104517375Y-94510423D01*
X104465860Y-94511633D01*
X104465633Y-94511675D01*
X104443103Y-94520175D01*
X104436512Y-94534045D01*
X104445835Y-94553012D01*
X104471047Y-94576804D01*
X104471771Y-94577372D01*
X104533639Y-94631357D01*
X104582676Y-94687541D01*
X104622795Y-94750652D01*
X104635248Y-94774832D01*
X104675601Y-94844145D01*
X104721644Y-94898209D01*
X104774383Y-94938046D01*
X104814911Y-94957661D01*
X104840056Y-94966354D01*
X104865548Y-94972066D01*
X104896025Y-94975403D01*
X104936126Y-94976972D01*
X104965167Y-94977309D01*
X105008083Y-94977192D01*
X105047585Y-94976427D01*
X105078998Y-94975144D01*
X105096400Y-94973667D01*
X105126033Y-94969434D01*
X105128351Y-95110544D01*
X105129109Y-95162601D01*
X105129215Y-95200506D01*
X105128382Y-95227035D01*
X105126319Y-95244966D01*
X105122738Y-95257076D01*
X105117350Y-95266142D01*
X105111418Y-95273208D01*
X105089312Y-95291615D01*
X105063605Y-95298904D01*
X105030620Y-95295502D01*
X104999033Y-95286240D01*
X104938984Y-95262881D01*
X104871280Y-95232011D01*
X104801638Y-95196513D01*
X104735773Y-95159268D01*
X104690237Y-95130550D01*
X104564031Y-95036292D01*
X104451069Y-94931542D01*
X104351529Y-94816576D01*
X104265587Y-94691674D01*
X104193421Y-94557112D01*
X104135210Y-94413170D01*
X104091129Y-94260123D01*
X104070987Y-94160867D01*
X104065491Y-94115377D01*
X104062004Y-94057578D01*
X104060482Y-93991969D01*
X104060882Y-93923047D01*
X104063160Y-93855313D01*
X104067273Y-93793265D01*
X104073176Y-93741402D01*
X104075188Y-93729067D01*
X104110614Y-93576557D01*
X104160957Y-93431047D01*
X104225524Y-93293400D01*
X104303620Y-93164479D01*
X104394549Y-93045147D01*
X104497618Y-92936268D01*
X104612131Y-92838703D01*
X104737393Y-92753316D01*
X104872710Y-92680970D01*
X104944000Y-92649926D01*
X105089214Y-92599905D01*
X105235576Y-92566113D01*
X105382069Y-92548044D01*
X105527674Y-92545193D01*
X105671372Y-92557054D01*
G36*
X105000270Y-94839435D02*
X105003802Y-94843079D01*
X105010490Y-94855086D01*
X105003571Y-94863570D01*
X105002722Y-94864116D01*
X104981357Y-94871507D01*
X104963059Y-94867802D01*
X104955200Y-94858512D01*
X104955599Y-94843000D01*
X104966901Y-94833488D01*
X104983620Y-94831719D01*
X105000270Y-94839435D01*
X105000270Y-94839435D01*
G37*
X105000270Y-94839435D02*
X105003802Y-94843079D01*
X105010490Y-94855086D01*
X105003571Y-94863570D01*
X105002722Y-94864116D01*
X104981357Y-94871507D01*
X104963059Y-94867802D01*
X104955200Y-94858512D01*
X104955599Y-94843000D01*
X104966901Y-94833488D01*
X104983620Y-94831719D01*
X105000270Y-94839435D01*
G36*
X104871976Y-94816263D02*
X104889135Y-94825234D01*
X104891559Y-94836386D01*
X104882068Y-94849344D01*
X104864940Y-94853219D01*
X104847355Y-94847118D01*
X104842441Y-94842483D01*
X104836486Y-94827364D01*
X104844255Y-94817171D01*
X104862681Y-94814625D01*
X104871976Y-94816263D01*
X104871976Y-94816263D01*
G37*
X104871976Y-94816263D02*
X104889135Y-94825234D01*
X104891559Y-94836386D01*
X104882068Y-94849344D01*
X104864940Y-94853219D01*
X104847355Y-94847118D01*
X104842441Y-94842483D01*
X104836486Y-94827364D01*
X104844255Y-94817171D01*
X104862681Y-94814625D01*
X104871976Y-94816263D01*
G36*
X105110011Y-94824459D02*
X105117293Y-94836207D01*
X105116345Y-94842563D01*
X105106076Y-94851636D01*
X105089052Y-94855150D01*
X105072317Y-94853067D01*
X105062917Y-94845350D01*
X105062533Y-94842854D01*
X105069162Y-94828870D01*
X105077131Y-94822405D01*
X105094607Y-94818822D01*
X105110011Y-94824459D01*
X105110011Y-94824459D01*
G37*
X105110011Y-94824459D02*
X105117293Y-94836207D01*
X105116345Y-94842563D01*
X105106076Y-94851636D01*
X105089052Y-94855150D01*
X105072317Y-94853067D01*
X105062917Y-94845350D01*
X105062533Y-94842854D01*
X105069162Y-94828870D01*
X105077131Y-94822405D01*
X105094607Y-94818822D01*
X105110011Y-94824459D01*
G36*
X104775824Y-94759783D02*
X104789345Y-94774573D01*
X104791600Y-94783954D01*
X104784918Y-94795838D01*
X104769153Y-94799045D01*
X104755105Y-94794564D01*
X104743482Y-94781915D01*
X104741247Y-94766701D01*
X104748250Y-94755543D01*
X104756040Y-94753534D01*
X104775824Y-94759783D01*
X104775824Y-94759783D01*
G37*
X104775824Y-94759783D02*
X104789345Y-94774573D01*
X104791600Y-94783954D01*
X104784918Y-94795838D01*
X104769153Y-94799045D01*
X104755105Y-94794564D01*
X104743482Y-94781915D01*
X104741247Y-94766701D01*
X104748250Y-94755543D01*
X104756040Y-94753534D01*
X104775824Y-94759783D01*
G36*
X104708215Y-94683799D02*
X104715206Y-94700567D01*
X104715400Y-94703770D01*
X104709877Y-94717076D01*
X104696593Y-94718290D01*
X104683227Y-94709507D01*
X104673766Y-94692292D01*
X104677414Y-94676770D01*
X104681904Y-94672871D01*
X104695254Y-94672850D01*
X104708215Y-94683799D01*
X104708215Y-94683799D01*
G37*
X104708215Y-94683799D02*
X104715206Y-94700567D01*
X104715400Y-94703770D01*
X104709877Y-94717076D01*
X104696593Y-94718290D01*
X104683227Y-94709507D01*
X104673766Y-94692292D01*
X104677414Y-94676770D01*
X104681904Y-94672871D01*
X104695254Y-94672850D01*
X104708215Y-94683799D01*
G36*
X104651344Y-94610632D02*
X104653290Y-94614403D01*
X104653962Y-94629997D01*
X104645620Y-94638076D01*
X104633267Y-94634107D01*
X104632427Y-94633307D01*
X104623396Y-94618300D01*
X104622266Y-94612140D01*
X104627973Y-94602673D01*
X104640142Y-94602351D01*
X104651344Y-94610632D01*
X104651344Y-94610632D01*
G37*
X104651344Y-94610632D02*
X104653290Y-94614403D01*
X104653962Y-94629997D01*
X104645620Y-94638076D01*
X104633267Y-94634107D01*
X104632427Y-94633307D01*
X104623396Y-94618300D01*
X104622266Y-94612140D01*
X104627973Y-94602673D01*
X104640142Y-94602351D01*
X104651344Y-94610632D01*
G36*
X108222037Y-93221037D02*
X108284603Y-93226842D01*
X108343958Y-93235053D01*
X108397626Y-93245296D01*
X108443127Y-93257194D01*
X108477984Y-93270373D01*
X108499718Y-93284458D01*
X108505107Y-93292259D01*
X108504839Y-93304577D01*
X108500951Y-93329252D01*
X108494372Y-93362331D01*
X108486032Y-93399860D01*
X108476859Y-93437884D01*
X108467781Y-93472450D01*
X108459727Y-93499604D01*
X108453626Y-93515392D01*
X108452231Y-93517404D01*
X108441142Y-93518613D01*
X108418335Y-93515570D01*
X108388299Y-93508927D01*
X108381467Y-93507129D01*
X108335595Y-93497882D01*
X108280161Y-93491586D01*
X108219816Y-93488302D01*
X108159211Y-93488090D01*
X108102998Y-93491009D01*
X108055827Y-93497122D01*
X108032946Y-93502608D01*
X107973486Y-93529605D01*
X107922577Y-93570541D01*
X107881219Y-93624197D01*
X107850410Y-93689357D01*
X107835106Y-93743716D01*
X107828780Y-93786654D01*
X107824808Y-93841174D01*
X107823185Y-93902088D01*
X107823905Y-93964210D01*
X107826963Y-94022354D01*
X107832352Y-94071333D01*
X107835483Y-94088752D01*
X107856831Y-94159994D01*
X107887965Y-94221115D01*
X107927669Y-94270543D01*
X107974731Y-94306703D01*
X108017891Y-94325328D01*
X108050218Y-94331800D01*
X108093451Y-94336288D01*
X108141659Y-94338583D01*
X108188909Y-94338478D01*
X108229268Y-94335763D01*
X108245151Y-94333333D01*
X108271819Y-94328000D01*
X108267167Y-94063500D01*
X108182500Y-94060995D01*
X108145456Y-94059579D01*
X108114277Y-94057795D01*
X108093183Y-94055916D01*
X108087010Y-94054819D01*
X108082507Y-94049015D01*
X108079608Y-94033848D01*
X108078166Y-94007234D01*
X108078033Y-93967092D01*
X108078543Y-93934557D01*
X108080900Y-93817967D01*
X108563500Y-93817967D01*
X108563500Y-94503767D01*
X108500000Y-94535390D01*
X108409226Y-94571761D01*
X108308827Y-94595815D01*
X108201130Y-94607234D01*
X108088459Y-94605695D01*
X108030921Y-94599958D01*
X107928189Y-94580428D01*
X107837640Y-94549599D01*
X107759029Y-94507192D01*
X107692108Y-94452928D01*
X107636632Y-94386527D01*
X107592353Y-94307712D01*
X107559027Y-94216201D01*
X107536406Y-94111716D01*
X107526603Y-94028228D01*
X107523968Y-93973819D01*
X107523859Y-93911207D01*
X107526030Y-93845415D01*
X107530234Y-93781468D01*
X107536226Y-93724392D01*
X107543699Y-93679486D01*
X107572543Y-93576108D01*
X107611207Y-93486450D01*
X107660026Y-93410202D01*
X107719332Y-93347057D01*
X107789459Y-93296708D01*
X107870741Y-93258847D01*
X107963510Y-93233166D01*
X108039859Y-93221813D01*
X108097187Y-93218147D01*
X108158739Y-93218014D01*
X108222037Y-93221037D01*
X108222037Y-93221037D01*
G37*
X108222037Y-93221037D02*
X108284603Y-93226842D01*
X108343958Y-93235053D01*
X108397626Y-93245296D01*
X108443127Y-93257194D01*
X108477984Y-93270373D01*
X108499718Y-93284458D01*
X108505107Y-93292259D01*
X108504839Y-93304577D01*
X108500951Y-93329252D01*
X108494372Y-93362331D01*
X108486032Y-93399860D01*
X108476859Y-93437884D01*
X108467781Y-93472450D01*
X108459727Y-93499604D01*
X108453626Y-93515392D01*
X108452231Y-93517404D01*
X108441142Y-93518613D01*
X108418335Y-93515570D01*
X108388299Y-93508927D01*
X108381467Y-93507129D01*
X108335595Y-93497882D01*
X108280161Y-93491586D01*
X108219816Y-93488302D01*
X108159211Y-93488090D01*
X108102998Y-93491009D01*
X108055827Y-93497122D01*
X108032946Y-93502608D01*
X107973486Y-93529605D01*
X107922577Y-93570541D01*
X107881219Y-93624197D01*
X107850410Y-93689357D01*
X107835106Y-93743716D01*
X107828780Y-93786654D01*
X107824808Y-93841174D01*
X107823185Y-93902088D01*
X107823905Y-93964210D01*
X107826963Y-94022354D01*
X107832352Y-94071333D01*
X107835483Y-94088752D01*
X107856831Y-94159994D01*
X107887965Y-94221115D01*
X107927669Y-94270543D01*
X107974731Y-94306703D01*
X108017891Y-94325328D01*
X108050218Y-94331800D01*
X108093451Y-94336288D01*
X108141659Y-94338583D01*
X108188909Y-94338478D01*
X108229268Y-94335763D01*
X108245151Y-94333333D01*
X108271819Y-94328000D01*
X108267167Y-94063500D01*
X108182500Y-94060995D01*
X108145456Y-94059579D01*
X108114277Y-94057795D01*
X108093183Y-94055916D01*
X108087010Y-94054819D01*
X108082507Y-94049015D01*
X108079608Y-94033848D01*
X108078166Y-94007234D01*
X108078033Y-93967092D01*
X108078543Y-93934557D01*
X108080900Y-93817967D01*
X108563500Y-93817967D01*
X108563500Y-94503767D01*
X108500000Y-94535390D01*
X108409226Y-94571761D01*
X108308827Y-94595815D01*
X108201130Y-94607234D01*
X108088459Y-94605695D01*
X108030921Y-94599958D01*
X107928189Y-94580428D01*
X107837640Y-94549599D01*
X107759029Y-94507192D01*
X107692108Y-94452928D01*
X107636632Y-94386527D01*
X107592353Y-94307712D01*
X107559027Y-94216201D01*
X107536406Y-94111716D01*
X107526603Y-94028228D01*
X107523968Y-93973819D01*
X107523859Y-93911207D01*
X107526030Y-93845415D01*
X107530234Y-93781468D01*
X107536226Y-93724392D01*
X107543699Y-93679486D01*
X107572543Y-93576108D01*
X107611207Y-93486450D01*
X107660026Y-93410202D01*
X107719332Y-93347057D01*
X107789459Y-93296708D01*
X107870741Y-93258847D01*
X107963510Y-93233166D01*
X108039859Y-93221813D01*
X108097187Y-93218147D01*
X108158739Y-93218014D01*
X108222037Y-93221037D01*
G36*
X109541400Y-93686212D02*
X109645117Y-93688590D01*
X109748833Y-93690967D01*
X109751227Y-93796711D01*
X109751968Y-93841599D01*
X109751591Y-93872566D01*
X109749783Y-93892607D01*
X109746228Y-93904715D01*
X109740613Y-93911883D01*
X109739025Y-93913128D01*
X109721369Y-93918887D01*
X109687451Y-93922460D01*
X109637809Y-93923792D01*
X109632915Y-93923800D01*
X109541400Y-93923800D01*
X109541400Y-94313000D01*
X109565964Y-94340492D01*
X109578360Y-94353429D01*
X109590372Y-94361761D01*
X109606254Y-94366796D01*
X109630257Y-94369842D01*
X109666635Y-94372206D01*
X109669681Y-94372375D01*
X109748833Y-94376767D01*
X109751219Y-94476357D01*
X109753606Y-94575948D01*
X109731217Y-94584460D01*
X109702307Y-94591870D01*
X109661850Y-94597577D01*
X109615186Y-94601155D01*
X109567655Y-94602180D01*
X109528700Y-94600580D01*
X109463828Y-94591564D01*
X109411013Y-94575138D01*
X109366424Y-94549748D01*
X109333613Y-94521451D01*
X109313636Y-94500748D01*
X109297578Y-94481394D01*
X109284977Y-94461252D01*
X109275376Y-94438186D01*
X109268312Y-94410057D01*
X109263328Y-94374731D01*
X109259962Y-94330069D01*
X109257755Y-94273936D01*
X109256247Y-94204194D01*
X109255541Y-94158750D01*
X109252138Y-93923800D01*
X109195685Y-93923685D01*
X109155882Y-93923461D01*
X109129169Y-93921106D01*
X109112940Y-93913809D01*
X109104591Y-93898754D01*
X109101520Y-93873129D01*
X109101121Y-93834122D01*
X109101133Y-93821539D01*
X109101133Y-93729720D01*
X109132883Y-93721728D01*
X109160576Y-93714971D01*
X109194199Y-93707046D01*
X109209083Y-93703624D01*
X109253533Y-93693511D01*
X109253533Y-93432734D01*
X109541400Y-93432734D01*
X109541400Y-93686212D01*
X109541400Y-93686212D01*
G37*
X109541400Y-93686212D02*
X109645117Y-93688590D01*
X109748833Y-93690967D01*
X109751227Y-93796711D01*
X109751968Y-93841599D01*
X109751591Y-93872566D01*
X109749783Y-93892607D01*
X109746228Y-93904715D01*
X109740613Y-93911883D01*
X109739025Y-93913128D01*
X109721369Y-93918887D01*
X109687451Y-93922460D01*
X109637809Y-93923792D01*
X109632915Y-93923800D01*
X109541400Y-93923800D01*
X109541400Y-94313000D01*
X109565964Y-94340492D01*
X109578360Y-94353429D01*
X109590372Y-94361761D01*
X109606254Y-94366796D01*
X109630257Y-94369842D01*
X109666635Y-94372206D01*
X109669681Y-94372375D01*
X109748833Y-94376767D01*
X109751219Y-94476357D01*
X109753606Y-94575948D01*
X109731217Y-94584460D01*
X109702307Y-94591870D01*
X109661850Y-94597577D01*
X109615186Y-94601155D01*
X109567655Y-94602180D01*
X109528700Y-94600580D01*
X109463828Y-94591564D01*
X109411013Y-94575138D01*
X109366424Y-94549748D01*
X109333613Y-94521451D01*
X109313636Y-94500748D01*
X109297578Y-94481394D01*
X109284977Y-94461252D01*
X109275376Y-94438186D01*
X109268312Y-94410057D01*
X109263328Y-94374731D01*
X109259962Y-94330069D01*
X109257755Y-94273936D01*
X109256247Y-94204194D01*
X109255541Y-94158750D01*
X109252138Y-93923800D01*
X109195685Y-93923685D01*
X109155882Y-93923461D01*
X109129169Y-93921106D01*
X109112940Y-93913809D01*
X109104591Y-93898754D01*
X109101520Y-93873129D01*
X109101121Y-93834122D01*
X109101133Y-93821539D01*
X109101133Y-93729720D01*
X109132883Y-93721728D01*
X109160576Y-93714971D01*
X109194199Y-93707046D01*
X109209083Y-93703624D01*
X109253533Y-93693511D01*
X109253533Y-93432734D01*
X109541400Y-93432734D01*
X109541400Y-93686212D01*
G36*
X111835486Y-93687996D02*
X111860886Y-93689079D01*
X111877161Y-93691382D01*
X111886913Y-93695124D01*
X111892740Y-93700522D01*
X111892965Y-93700826D01*
X111895554Y-93712722D01*
X111897816Y-93739543D01*
X111899751Y-93779288D01*
X111901360Y-93829951D01*
X111902642Y-93889530D01*
X111903597Y-93956020D01*
X111904227Y-94027418D01*
X111904530Y-94101719D01*
X111904508Y-94176921D01*
X111904160Y-94251020D01*
X111903486Y-94322011D01*
X111902487Y-94387891D01*
X111901163Y-94446656D01*
X111899513Y-94496303D01*
X111897539Y-94534827D01*
X111895240Y-94560226D01*
X111892897Y-94570200D01*
X111885766Y-94576844D01*
X111873943Y-94580924D01*
X111854101Y-94582853D01*
X111822909Y-94583042D01*
X111794102Y-94582402D01*
X111706008Y-94579967D01*
X111697812Y-94554567D01*
X111691465Y-94536103D01*
X111687449Y-94526567D01*
X111687383Y-94526481D01*
X111679296Y-94528468D01*
X111660828Y-94536425D01*
X111644092Y-94544567D01*
X111560506Y-94578244D01*
X111470160Y-94599088D01*
X111408351Y-94605146D01*
X111371516Y-94606225D01*
X111338980Y-94606267D01*
X111316038Y-94605300D01*
X111310933Y-94604672D01*
X111255914Y-94592420D01*
X111206220Y-94576686D01*
X111166652Y-94559097D01*
X111154300Y-94551610D01*
X111122298Y-94522154D01*
X111092924Y-94481440D01*
X111069679Y-94435120D01*
X111057168Y-94394687D01*
X111054702Y-94373272D01*
X111052741Y-94335904D01*
X111051302Y-94283556D01*
X111050404Y-94217201D01*
X111050064Y-94137813D01*
X111050298Y-94046364D01*
X111050453Y-94021167D01*
X111052700Y-93690967D01*
X111191766Y-93688633D01*
X111246987Y-93688046D01*
X111287243Y-93688487D01*
X111314482Y-93690067D01*
X111330648Y-93692900D01*
X111337686Y-93697100D01*
X111339265Y-93707797D01*
X111340722Y-93733454D01*
X111342014Y-93772096D01*
X111343099Y-93821751D01*
X111343932Y-93880444D01*
X111344471Y-93946202D01*
X111344670Y-94014345D01*
X111344722Y-94094404D01*
X111344873Y-94159272D01*
X111345222Y-94210693D01*
X111345873Y-94250408D01*
X111346927Y-94280161D01*
X111348486Y-94301695D01*
X111350651Y-94316751D01*
X111353524Y-94327073D01*
X111357207Y-94334403D01*
X111361802Y-94340484D01*
X111363850Y-94342878D01*
X111393100Y-94364269D01*
X111433151Y-94374868D01*
X111481682Y-94374584D01*
X111536370Y-94363328D01*
X111571933Y-94350966D01*
X111607067Y-94336908D01*
X111609283Y-94013937D01*
X111611500Y-93690967D01*
X111746915Y-93688625D01*
X111798363Y-93687917D01*
X111835486Y-93687996D01*
X111835486Y-93687996D01*
G37*
X111835486Y-93687996D02*
X111860886Y-93689079D01*
X111877161Y-93691382D01*
X111886913Y-93695124D01*
X111892740Y-93700522D01*
X111892965Y-93700826D01*
X111895554Y-93712722D01*
X111897816Y-93739543D01*
X111899751Y-93779288D01*
X111901360Y-93829951D01*
X111902642Y-93889530D01*
X111903597Y-93956020D01*
X111904227Y-94027418D01*
X111904530Y-94101719D01*
X111904508Y-94176921D01*
X111904160Y-94251020D01*
X111903486Y-94322011D01*
X111902487Y-94387891D01*
X111901163Y-94446656D01*
X111899513Y-94496303D01*
X111897539Y-94534827D01*
X111895240Y-94560226D01*
X111892897Y-94570200D01*
X111885766Y-94576844D01*
X111873943Y-94580924D01*
X111854101Y-94582853D01*
X111822909Y-94583042D01*
X111794102Y-94582402D01*
X111706008Y-94579967D01*
X111697812Y-94554567D01*
X111691465Y-94536103D01*
X111687449Y-94526567D01*
X111687383Y-94526481D01*
X111679296Y-94528468D01*
X111660828Y-94536425D01*
X111644092Y-94544567D01*
X111560506Y-94578244D01*
X111470160Y-94599088D01*
X111408351Y-94605146D01*
X111371516Y-94606225D01*
X111338980Y-94606267D01*
X111316038Y-94605300D01*
X111310933Y-94604672D01*
X111255914Y-94592420D01*
X111206220Y-94576686D01*
X111166652Y-94559097D01*
X111154300Y-94551610D01*
X111122298Y-94522154D01*
X111092924Y-94481440D01*
X111069679Y-94435120D01*
X111057168Y-94394687D01*
X111054702Y-94373272D01*
X111052741Y-94335904D01*
X111051302Y-94283556D01*
X111050404Y-94217201D01*
X111050064Y-94137813D01*
X111050298Y-94046364D01*
X111050453Y-94021167D01*
X111052700Y-93690967D01*
X111191766Y-93688633D01*
X111246987Y-93688046D01*
X111287243Y-93688487D01*
X111314482Y-93690067D01*
X111330648Y-93692900D01*
X111337686Y-93697100D01*
X111339265Y-93707797D01*
X111340722Y-93733454D01*
X111342014Y-93772096D01*
X111343099Y-93821751D01*
X111343932Y-93880444D01*
X111344471Y-93946202D01*
X111344670Y-94014345D01*
X111344722Y-94094404D01*
X111344873Y-94159272D01*
X111345222Y-94210693D01*
X111345873Y-94250408D01*
X111346927Y-94280161D01*
X111348486Y-94301695D01*
X111350651Y-94316751D01*
X111353524Y-94327073D01*
X111357207Y-94334403D01*
X111361802Y-94340484D01*
X111363850Y-94342878D01*
X111393100Y-94364269D01*
X111433151Y-94374868D01*
X111481682Y-94374584D01*
X111536370Y-94363328D01*
X111571933Y-94350966D01*
X111607067Y-94336908D01*
X111609283Y-94013937D01*
X111611500Y-93690967D01*
X111746915Y-93688625D01*
X111798363Y-93687917D01*
X111835486Y-93687996D01*
G36*
X112252139Y-93263970D02*
X112286494Y-93264979D01*
X112311361Y-93266655D01*
X112322007Y-93268539D01*
X112326112Y-93271819D01*
X112329296Y-93279394D01*
X112331673Y-93293164D01*
X112333354Y-93315029D01*
X112334454Y-93346891D01*
X112335084Y-93390649D01*
X112335359Y-93448204D01*
X112335400Y-93493893D01*
X112335464Y-93560645D01*
X112335740Y-93612318D01*
X112336356Y-93650770D01*
X112337440Y-93677854D01*
X112339119Y-93695427D01*
X112341522Y-93705344D01*
X112344775Y-93709461D01*
X112349006Y-93709632D01*
X112350217Y-93709281D01*
X112365707Y-93703812D01*
X112391042Y-93694458D01*
X112415833Y-93685105D01*
X112440184Y-93676748D01*
X112464087Y-93671150D01*
X112491880Y-93667785D01*
X112527901Y-93666131D01*
X112576488Y-93665662D01*
X112576700Y-93665662D01*
X112622588Y-93665840D01*
X112655624Y-93666882D01*
X112679889Y-93669408D01*
X112699462Y-93674040D01*
X112718425Y-93681398D01*
X112736570Y-93689995D01*
X112795587Y-93727720D01*
X112842952Y-93777522D01*
X112876485Y-93833915D01*
X112895207Y-93879266D01*
X112908761Y-93926557D01*
X112918123Y-93980371D01*
X112924267Y-94045290D01*
X112925399Y-94063500D01*
X112926485Y-94149840D01*
X112920330Y-94234777D01*
X112907546Y-94315166D01*
X112888744Y-94387864D01*
X112864536Y-94449727D01*
X112842888Y-94487577D01*
X112803623Y-94531063D01*
X112752683Y-94566584D01*
X112706198Y-94587151D01*
X112665040Y-94597001D01*
X112613715Y-94603260D01*
X112558683Y-94605533D01*
X112506404Y-94603427D01*
X112483966Y-94600710D01*
X112433647Y-94591204D01*
X112391508Y-94578648D01*
X112349178Y-94560213D01*
X112321294Y-94545741D01*
X112269088Y-94517569D01*
X112261710Y-94548768D01*
X112254331Y-94579967D01*
X112051767Y-94579967D01*
X112049597Y-93928566D01*
X112049591Y-93926212D01*
X112335109Y-93926212D01*
X112337371Y-94134319D01*
X112339633Y-94342427D01*
X112377733Y-94357020D01*
X112416824Y-94366847D01*
X112467905Y-94371683D01*
X112485389Y-94372073D01*
X112520487Y-94371870D01*
X112543644Y-94369866D01*
X112559842Y-94364811D01*
X112574062Y-94355461D01*
X112583410Y-94347540D01*
X112602620Y-94326600D01*
X112616742Y-94300492D01*
X112626710Y-94266171D01*
X112633455Y-94220590D01*
X112637312Y-94171390D01*
X112637862Y-94091969D01*
X112629615Y-94024531D01*
X112612785Y-93969892D01*
X112587588Y-93928869D01*
X112569148Y-93911580D01*
X112543520Y-93900413D01*
X112506853Y-93894427D01*
X112464240Y-93893658D01*
X112420774Y-93898143D01*
X112381551Y-93907919D01*
X112375471Y-93910189D01*
X112335109Y-93926212D01*
X112049591Y-93926212D01*
X112049232Y-93803283D01*
X112049035Y-93693981D01*
X112049019Y-93599706D01*
X112049195Y-93519507D01*
X112049577Y-93452431D01*
X112050175Y-93397525D01*
X112051003Y-93353838D01*
X112052073Y-93320417D01*
X112053396Y-93296309D01*
X112054986Y-93280562D01*
X112056854Y-93272225D01*
X112058064Y-93270412D01*
X112070106Y-93267985D01*
X112095301Y-93266063D01*
X112129876Y-93264674D01*
X112170056Y-93263844D01*
X112212068Y-93263601D01*
X112252139Y-93263970D01*
X112252139Y-93263970D01*
G37*
X112252139Y-93263970D02*
X112286494Y-93264979D01*
X112311361Y-93266655D01*
X112322007Y-93268539D01*
X112326112Y-93271819D01*
X112329296Y-93279394D01*
X112331673Y-93293164D01*
X112333354Y-93315029D01*
X112334454Y-93346891D01*
X112335084Y-93390649D01*
X112335359Y-93448204D01*
X112335400Y-93493893D01*
X112335464Y-93560645D01*
X112335740Y-93612318D01*
X112336356Y-93650770D01*
X112337440Y-93677854D01*
X112339119Y-93695427D01*
X112341522Y-93705344D01*
X112344775Y-93709461D01*
X112349006Y-93709632D01*
X112350217Y-93709281D01*
X112365707Y-93703812D01*
X112391042Y-93694458D01*
X112415833Y-93685105D01*
X112440184Y-93676748D01*
X112464087Y-93671150D01*
X112491880Y-93667785D01*
X112527901Y-93666131D01*
X112576488Y-93665662D01*
X112576700Y-93665662D01*
X112622588Y-93665840D01*
X112655624Y-93666882D01*
X112679889Y-93669408D01*
X112699462Y-93674040D01*
X112718425Y-93681398D01*
X112736570Y-93689995D01*
X112795587Y-93727720D01*
X112842952Y-93777522D01*
X112876485Y-93833915D01*
X112895207Y-93879266D01*
X112908761Y-93926557D01*
X112918123Y-93980371D01*
X112924267Y-94045290D01*
X112925399Y-94063500D01*
X112926485Y-94149840D01*
X112920330Y-94234777D01*
X112907546Y-94315166D01*
X112888744Y-94387864D01*
X112864536Y-94449727D01*
X112842888Y-94487577D01*
X112803623Y-94531063D01*
X112752683Y-94566584D01*
X112706198Y-94587151D01*
X112665040Y-94597001D01*
X112613715Y-94603260D01*
X112558683Y-94605533D01*
X112506404Y-94603427D01*
X112483966Y-94600710D01*
X112433647Y-94591204D01*
X112391508Y-94578648D01*
X112349178Y-94560213D01*
X112321294Y-94545741D01*
X112269088Y-94517569D01*
X112261710Y-94548768D01*
X112254331Y-94579967D01*
X112051767Y-94579967D01*
X112049597Y-93928566D01*
X112049591Y-93926212D01*
X112335109Y-93926212D01*
X112337371Y-94134319D01*
X112339633Y-94342427D01*
X112377733Y-94357020D01*
X112416824Y-94366847D01*
X112467905Y-94371683D01*
X112485389Y-94372073D01*
X112520487Y-94371870D01*
X112543644Y-94369866D01*
X112559842Y-94364811D01*
X112574062Y-94355461D01*
X112583410Y-94347540D01*
X112602620Y-94326600D01*
X112616742Y-94300492D01*
X112626710Y-94266171D01*
X112633455Y-94220590D01*
X112637312Y-94171390D01*
X112637862Y-94091969D01*
X112629615Y-94024531D01*
X112612785Y-93969892D01*
X112587588Y-93928869D01*
X112569148Y-93911580D01*
X112543520Y-93900413D01*
X112506853Y-93894427D01*
X112464240Y-93893658D01*
X112420774Y-93898143D01*
X112381551Y-93907919D01*
X112375471Y-93910189D01*
X112335109Y-93926212D01*
X112049591Y-93926212D01*
X112049232Y-93803283D01*
X112049035Y-93693981D01*
X112049019Y-93599706D01*
X112049195Y-93519507D01*
X112049577Y-93452431D01*
X112050175Y-93397525D01*
X112051003Y-93353838D01*
X112052073Y-93320417D01*
X112053396Y-93296309D01*
X112054986Y-93280562D01*
X112056854Y-93272225D01*
X112058064Y-93270412D01*
X112070106Y-93267985D01*
X112095301Y-93266063D01*
X112129876Y-93264674D01*
X112170056Y-93263844D01*
X112212068Y-93263601D01*
X112252139Y-93263970D01*
G36*
X109014427Y-94130686D02*
X109014853Y-94232489D01*
X109015020Y-94318514D01*
X109014906Y-94389916D01*
X109014487Y-94447848D01*
X109013744Y-94493464D01*
X109012653Y-94527919D01*
X109011193Y-94552365D01*
X109009342Y-94567958D01*
X109007078Y-94575852D01*
X109005960Y-94577173D01*
X108994035Y-94579588D01*
X108968509Y-94581622D01*
X108932712Y-94583107D01*
X108889975Y-94583873D01*
X108872533Y-94583941D01*
X108828027Y-94583493D01*
X108789188Y-94582263D01*
X108759349Y-94580418D01*
X108741840Y-94578129D01*
X108739106Y-94577173D01*
X108736656Y-94572264D01*
X108734628Y-94560157D01*
X108733001Y-94539697D01*
X108731753Y-94509731D01*
X108730861Y-94469104D01*
X108730304Y-94416662D01*
X108730060Y-94351252D01*
X108730107Y-94271719D01*
X108730424Y-94176910D01*
X108730639Y-94130686D01*
X108732833Y-93690967D01*
X109012233Y-93690967D01*
X109014427Y-94130686D01*
X109014427Y-94130686D01*
G37*
X109014427Y-94130686D02*
X109014853Y-94232489D01*
X109015020Y-94318514D01*
X109014906Y-94389916D01*
X109014487Y-94447848D01*
X109013744Y-94493464D01*
X109012653Y-94527919D01*
X109011193Y-94552365D01*
X109009342Y-94567958D01*
X109007078Y-94575852D01*
X109005960Y-94577173D01*
X108994035Y-94579588D01*
X108968509Y-94581622D01*
X108932712Y-94583107D01*
X108889975Y-94583873D01*
X108872533Y-94583941D01*
X108828027Y-94583493D01*
X108789188Y-94582263D01*
X108759349Y-94580418D01*
X108741840Y-94578129D01*
X108739106Y-94577173D01*
X108736656Y-94572264D01*
X108734628Y-94560157D01*
X108733001Y-94539697D01*
X108731753Y-94509731D01*
X108730861Y-94469104D01*
X108730304Y-94416662D01*
X108730060Y-94351252D01*
X108730107Y-94271719D01*
X108730424Y-94176910D01*
X108730639Y-94130686D01*
X108732833Y-93690967D01*
X109012233Y-93690967D01*
X109014427Y-94130686D01*
G36*
X110800157Y-93264023D02*
X110838865Y-93265729D01*
X110868814Y-93268274D01*
X110886326Y-93271412D01*
X110888156Y-93272165D01*
X110891205Y-93274205D01*
X110893851Y-93277594D01*
X110896121Y-93283471D01*
X110898044Y-93292973D01*
X110899650Y-93307238D01*
X110900966Y-93327405D01*
X110902023Y-93354610D01*
X110902847Y-93389993D01*
X110903468Y-93434691D01*
X110903914Y-93489842D01*
X110904215Y-93556584D01*
X110904399Y-93636056D01*
X110904494Y-93729394D01*
X110904529Y-93837738D01*
X110904533Y-93922405D01*
X110904469Y-94049089D01*
X110904266Y-94159703D01*
X110903912Y-94255108D01*
X110903394Y-94336166D01*
X110902697Y-94403740D01*
X110901808Y-94458692D01*
X110900714Y-94501883D01*
X110899402Y-94534177D01*
X110897857Y-94556434D01*
X110896067Y-94569518D01*
X110894373Y-94574040D01*
X110882925Y-94577385D01*
X110858209Y-94580183D01*
X110823885Y-94582369D01*
X110783611Y-94583875D01*
X110741046Y-94584633D01*
X110699849Y-94584575D01*
X110663679Y-94583636D01*
X110636196Y-94581747D01*
X110621592Y-94579061D01*
X110617902Y-94576084D01*
X110614948Y-94569161D01*
X110612651Y-94556605D01*
X110610932Y-94536726D01*
X110609710Y-94507837D01*
X110608907Y-94468248D01*
X110608441Y-94416271D01*
X110608234Y-94350218D01*
X110608200Y-94295428D01*
X110608200Y-94016933D01*
X110184866Y-94016933D01*
X110184866Y-94284190D01*
X110184582Y-94365309D01*
X110183748Y-94434258D01*
X110182395Y-94490047D01*
X110180555Y-94531685D01*
X110178257Y-94558180D01*
X110176102Y-94567823D01*
X110171560Y-94574106D01*
X110163988Y-94578520D01*
X110150716Y-94581370D01*
X110129072Y-94582961D01*
X110096386Y-94583598D01*
X110049988Y-94583587D01*
X110038519Y-94583532D01*
X109992932Y-94583029D01*
X109952995Y-94582089D01*
X109921939Y-94580827D01*
X109902998Y-94579356D01*
X109899117Y-94578593D01*
X109897072Y-94574482D01*
X109895290Y-94563283D01*
X109893756Y-94544055D01*
X109892453Y-94515858D01*
X109891367Y-94477751D01*
X109890483Y-94428795D01*
X109889784Y-94368049D01*
X109889256Y-94294573D01*
X109888884Y-94207426D01*
X109888652Y-94105668D01*
X109888545Y-93988360D01*
X109888533Y-93927626D01*
X109888543Y-93807675D01*
X109888593Y-93703525D01*
X109888711Y-93614042D01*
X109888924Y-93538092D01*
X109889263Y-93474542D01*
X109889753Y-93422260D01*
X109890425Y-93380111D01*
X109891306Y-93346962D01*
X109892425Y-93321681D01*
X109893810Y-93303134D01*
X109895489Y-93290188D01*
X109897491Y-93281709D01*
X109899844Y-93276564D01*
X109902576Y-93273620D01*
X109904910Y-93272165D01*
X109919150Y-93268947D01*
X109946747Y-93266266D01*
X109984131Y-93264354D01*
X110027729Y-93263444D01*
X110039772Y-93263400D01*
X110089062Y-93263737D01*
X110124141Y-93264932D01*
X110147723Y-93267257D01*
X110162521Y-93270987D01*
X110171246Y-93276395D01*
X110171562Y-93276705D01*
X110175572Y-93282673D01*
X110178705Y-93292879D01*
X110181064Y-93309230D01*
X110182752Y-93333632D01*
X110183871Y-93367990D01*
X110184526Y-93414212D01*
X110184820Y-93474202D01*
X110184866Y-93522238D01*
X110184866Y-93754467D01*
X110608200Y-93754467D01*
X110608200Y-93517698D01*
X110608252Y-93448122D01*
X110608495Y-93393563D01*
X110609055Y-93352108D01*
X110610060Y-93321841D01*
X110611638Y-93300848D01*
X110613918Y-93287213D01*
X110617026Y-93279021D01*
X110621090Y-93274358D01*
X110624577Y-93272165D01*
X110638829Y-93268928D01*
X110666335Y-93266230D01*
X110703417Y-93264317D01*
X110746396Y-93263432D01*
X110756366Y-93263400D01*
X110800157Y-93264023D01*
X110800157Y-93264023D01*
G37*
X110800157Y-93264023D02*
X110838865Y-93265729D01*
X110868814Y-93268274D01*
X110886326Y-93271412D01*
X110888156Y-93272165D01*
X110891205Y-93274205D01*
X110893851Y-93277594D01*
X110896121Y-93283471D01*
X110898044Y-93292973D01*
X110899650Y-93307238D01*
X110900966Y-93327405D01*
X110902023Y-93354610D01*
X110902847Y-93389993D01*
X110903468Y-93434691D01*
X110903914Y-93489842D01*
X110904215Y-93556584D01*
X110904399Y-93636056D01*
X110904494Y-93729394D01*
X110904529Y-93837738D01*
X110904533Y-93922405D01*
X110904469Y-94049089D01*
X110904266Y-94159703D01*
X110903912Y-94255108D01*
X110903394Y-94336166D01*
X110902697Y-94403740D01*
X110901808Y-94458692D01*
X110900714Y-94501883D01*
X110899402Y-94534177D01*
X110897857Y-94556434D01*
X110896067Y-94569518D01*
X110894373Y-94574040D01*
X110882925Y-94577385D01*
X110858209Y-94580183D01*
X110823885Y-94582369D01*
X110783611Y-94583875D01*
X110741046Y-94584633D01*
X110699849Y-94584575D01*
X110663679Y-94583636D01*
X110636196Y-94581747D01*
X110621592Y-94579061D01*
X110617902Y-94576084D01*
X110614948Y-94569161D01*
X110612651Y-94556605D01*
X110610932Y-94536726D01*
X110609710Y-94507837D01*
X110608907Y-94468248D01*
X110608441Y-94416271D01*
X110608234Y-94350218D01*
X110608200Y-94295428D01*
X110608200Y-94016933D01*
X110184866Y-94016933D01*
X110184866Y-94284190D01*
X110184582Y-94365309D01*
X110183748Y-94434258D01*
X110182395Y-94490047D01*
X110180555Y-94531685D01*
X110178257Y-94558180D01*
X110176102Y-94567823D01*
X110171560Y-94574106D01*
X110163988Y-94578520D01*
X110150716Y-94581370D01*
X110129072Y-94582961D01*
X110096386Y-94583598D01*
X110049988Y-94583587D01*
X110038519Y-94583532D01*
X109992932Y-94583029D01*
X109952995Y-94582089D01*
X109921939Y-94580827D01*
X109902998Y-94579356D01*
X109899117Y-94578593D01*
X109897072Y-94574482D01*
X109895290Y-94563283D01*
X109893756Y-94544055D01*
X109892453Y-94515858D01*
X109891367Y-94477751D01*
X109890483Y-94428795D01*
X109889784Y-94368049D01*
X109889256Y-94294573D01*
X109888884Y-94207426D01*
X109888652Y-94105668D01*
X109888545Y-93988360D01*
X109888533Y-93927626D01*
X109888543Y-93807675D01*
X109888593Y-93703525D01*
X109888711Y-93614042D01*
X109888924Y-93538092D01*
X109889263Y-93474542D01*
X109889753Y-93422260D01*
X109890425Y-93380111D01*
X109891306Y-93346962D01*
X109892425Y-93321681D01*
X109893810Y-93303134D01*
X109895489Y-93290188D01*
X109897491Y-93281709D01*
X109899844Y-93276564D01*
X109902576Y-93273620D01*
X109904910Y-93272165D01*
X109919150Y-93268947D01*
X109946747Y-93266266D01*
X109984131Y-93264354D01*
X110027729Y-93263444D01*
X110039772Y-93263400D01*
X110089062Y-93263737D01*
X110124141Y-93264932D01*
X110147723Y-93267257D01*
X110162521Y-93270987D01*
X110171246Y-93276395D01*
X110171562Y-93276705D01*
X110175572Y-93282673D01*
X110178705Y-93292879D01*
X110181064Y-93309230D01*
X110182752Y-93333632D01*
X110183871Y-93367990D01*
X110184526Y-93414212D01*
X110184820Y-93474202D01*
X110184866Y-93522238D01*
X110184866Y-93754467D01*
X110608200Y-93754467D01*
X110608200Y-93517698D01*
X110608252Y-93448122D01*
X110608495Y-93393563D01*
X110609055Y-93352108D01*
X110610060Y-93321841D01*
X110611638Y-93300848D01*
X110613918Y-93287213D01*
X110617026Y-93279021D01*
X110621090Y-93274358D01*
X110624577Y-93272165D01*
X110638829Y-93268928D01*
X110666335Y-93266230D01*
X110703417Y-93264317D01*
X110746396Y-93263432D01*
X110756366Y-93263400D01*
X110800157Y-93264023D01*
G36*
X104591228Y-94558900D02*
X104594381Y-94568683D01*
X104585703Y-94575266D01*
X104580639Y-94575734D01*
X104566084Y-94570355D01*
X104563000Y-94562413D01*
X104569348Y-94552240D01*
X104577115Y-94551829D01*
X104591228Y-94558900D01*
X104591228Y-94558900D01*
G37*
X104591228Y-94558900D02*
X104594381Y-94568683D01*
X104585703Y-94575266D01*
X104580639Y-94575734D01*
X104566084Y-94570355D01*
X104563000Y-94562413D01*
X104569348Y-94552240D01*
X104577115Y-94551829D01*
X104591228Y-94558900D01*
G36*
X108894368Y-93300959D02*
X108939204Y-93314413D01*
X108977847Y-93339171D01*
X109006771Y-93373925D01*
X109015903Y-93393068D01*
X109025235Y-93437685D01*
X109022440Y-93484722D01*
X109008478Y-93528396D01*
X108988386Y-93558734D01*
X108954072Y-93585131D01*
X108910856Y-93602450D01*
X108864376Y-93609465D01*
X108820271Y-93604950D01*
X108803092Y-93599006D01*
X108760886Y-93572269D01*
X108730912Y-93536914D01*
X108713200Y-93495896D01*
X108707781Y-93452167D01*
X108714683Y-93408681D01*
X108733936Y-93368394D01*
X108765571Y-93334259D01*
X108800216Y-93313181D01*
X108846864Y-93300113D01*
X108894368Y-93300959D01*
X108894368Y-93300959D01*
G37*
X108894368Y-93300959D02*
X108939204Y-93314413D01*
X108977847Y-93339171D01*
X109006771Y-93373925D01*
X109015903Y-93393068D01*
X109025235Y-93437685D01*
X109022440Y-93484722D01*
X109008478Y-93528396D01*
X108988386Y-93558734D01*
X108954072Y-93585131D01*
X108910856Y-93602450D01*
X108864376Y-93609465D01*
X108820271Y-93604950D01*
X108803092Y-93599006D01*
X108760886Y-93572269D01*
X108730912Y-93536914D01*
X108713200Y-93495896D01*
X108707781Y-93452167D01*
X108714683Y-93408681D01*
X108733936Y-93368394D01*
X108765571Y-93334259D01*
X108800216Y-93313181D01*
X108846864Y-93300113D01*
X108894368Y-93300959D01*
D12*
%TO.C,C6*%
X122052088Y-89383375D02*
X122294297Y-89141166D01*
X121330839Y-88662126D02*
X121573048Y-88419917D01*
%TO.C,C7*%
X148338000Y-60153733D02*
X148338000Y-60496267D01*
X147318000Y-60153733D02*
X147318000Y-60496267D01*
%TO.C,R19*%
X105671252Y-73585000D02*
X105148748Y-73585000D01*
X105671252Y-75005000D02*
X105148748Y-75005000D01*
%TO.C,R20*%
X105671252Y-72465000D02*
X105148748Y-72465000D01*
X105671252Y-71045000D02*
X105148748Y-71045000D01*
%TO.C,Y1*%
X136625000Y-87825000D02*
X136625000Y-89175000D01*
X138375000Y-87825000D02*
X138375000Y-89175000D01*
D14*
%TO.C,U2*%
X141825000Y-52825000D02*
X141825000Y-53050000D01*
X145175000Y-52825000D02*
X145175000Y-53125000D01*
X145175000Y-56175000D02*
X145175000Y-55875000D01*
X141825000Y-56175000D02*
X141825000Y-55875000D01*
X141825000Y-52825000D02*
X145175000Y-52825000D01*
X141825000Y-56175000D02*
X145175000Y-56175000D01*
X141825000Y-53050000D02*
X140600000Y-53050000D01*
%TO.C,U1*%
X141525000Y-87225000D02*
X141525000Y-87275000D01*
X145675000Y-87225000D02*
X145675000Y-87370000D01*
X145675000Y-92375000D02*
X145675000Y-92230000D01*
X141525000Y-92375000D02*
X141525000Y-92230000D01*
X141525000Y-87225000D02*
X145675000Y-87225000D01*
X141525000Y-92375000D02*
X145675000Y-92375000D01*
X141525000Y-87275000D02*
X140125000Y-87275000D01*
D12*
%TO.C,R16*%
X147290000Y-56552064D02*
X147290000Y-52447936D01*
X150710000Y-56552064D02*
X150710000Y-52447936D01*
%TO.C,R15*%
X136290000Y-56564564D02*
X136290000Y-52460436D01*
X139710000Y-56564564D02*
X139710000Y-52460436D01*
%TO.C,R12*%
X148828733Y-74490000D02*
X149171267Y-74490000D01*
X148828733Y-75510000D02*
X149171267Y-75510000D01*
%TO.C,R11*%
X148828733Y-76490000D02*
X149171267Y-76490000D01*
X148828733Y-77510000D02*
X149171267Y-77510000D01*
%TO.C,C3*%
X120340974Y-87672092D02*
X120583183Y-87429883D01*
X121062223Y-88393341D02*
X121304432Y-88151132D01*
%TO.C,C2*%
X143796268Y-52010000D02*
X143453734Y-52010000D01*
X143796268Y-50990000D02*
X143453734Y-50990000D01*
%TO.C,C1*%
X143453733Y-85690000D02*
X143796267Y-85690000D01*
X143453733Y-86710000D02*
X143796267Y-86710000D01*
%TO.C,J2*%
X111600000Y-59150000D02*
X113000000Y-59150000D01*
X111600000Y-60700000D02*
X113000000Y-60700000D01*
X105400000Y-60250000D02*
X105400000Y-49725000D01*
X111600000Y-60700000D02*
X111600000Y-61825000D01*
X111600000Y-56750000D02*
X111600000Y-59150000D01*
X111600000Y-53750000D02*
X111600000Y-55100000D01*
X111600000Y-49725000D02*
X111600000Y-52100000D01*
X105400000Y-61825000D02*
X111600000Y-61825000D01*
X111600000Y-49725000D02*
X111000000Y-49725000D01*
X106000000Y-49725000D02*
X105400000Y-49725000D01*
X111000000Y-47725000D02*
X106000000Y-47725000D01*
X111000000Y-49725000D02*
X111000000Y-47725000D01*
X106000000Y-49725000D02*
X106000000Y-47725000D01*
D14*
%TO.C,CPU1*%
X116875000Y-84125000D02*
X117100000Y-84125000D01*
X116875000Y-76875000D02*
X117200000Y-76875000D01*
X124125000Y-76875000D02*
X123800000Y-76875000D01*
X124125000Y-84125000D02*
X123800000Y-84125000D01*
X116875000Y-84125000D02*
X116875000Y-83800000D01*
X124125000Y-84125000D02*
X124125000Y-83800000D01*
X124125000Y-76875000D02*
X124125000Y-77200000D01*
X116875000Y-76875000D02*
X116875000Y-77200000D01*
X117100000Y-84125000D02*
X117100000Y-85550000D01*
D12*
%TO.C,BT1*%
X141890000Y-58340000D02*
X141890000Y-61760000D01*
X141890000Y-61760000D02*
X146360000Y-61760000D01*
X146360000Y-61760000D02*
X146360000Y-58340000D01*
X146360000Y-58340000D02*
X141890000Y-58340000D01*
X144125000Y-61250000D02*
X142400000Y-61250000D01*
X142400000Y-61250000D02*
X142400000Y-60500000D01*
X142400000Y-60500000D02*
X142200000Y-60500000D01*
X142200000Y-60500000D02*
X142200000Y-59700000D01*
X142200000Y-59700000D02*
X142400000Y-59700000D01*
X142400000Y-59700000D02*
X142400000Y-58850000D01*
X142400000Y-58850000D02*
X144125000Y-58850000D01*
X144125000Y-61250000D02*
X145850000Y-61250000D01*
X145850000Y-61250000D02*
X145850000Y-60500000D01*
X145850000Y-60500000D02*
X146050000Y-60500000D01*
X146050000Y-60500000D02*
X146050000Y-59700000D01*
X146050000Y-59700000D02*
X145850000Y-59700000D01*
X145850000Y-59700000D02*
X145850000Y-58850000D01*
X145850000Y-58850000D02*
X144125000Y-58850000D01*
X141600000Y-62050000D02*
X141600000Y-61050000D01*
X141600000Y-62050000D02*
X142600000Y-62050000D01*
%TO.C,R10*%
X132307307Y-74499593D02*
X131964773Y-74499593D01*
X132307307Y-73479593D02*
X131964773Y-73479593D01*
%TO.C,R9*%
X132307306Y-76424213D02*
X131964772Y-76424213D01*
X132307306Y-75404213D02*
X131964772Y-75404213D01*
%TO.C,R8*%
X131964773Y-70904214D02*
X132307307Y-70904214D01*
X131964773Y-71924214D02*
X132307307Y-71924214D01*
%TO.C,R7*%
X131964772Y-68904214D02*
X132307306Y-68904214D01*
X131964772Y-69924214D02*
X132307306Y-69924214D01*
%TO.C,R6*%
X113790000Y-57052064D02*
X113790000Y-52947936D01*
X117210000Y-57052064D02*
X117210000Y-52947936D01*
%TO.C,R1*%
X118210000Y-63713749D02*
X118210000Y-64236253D01*
X116790000Y-63713749D02*
X116790000Y-64236253D01*
%TO.C,R5*%
X122790000Y-64236253D02*
X122790000Y-63713749D01*
X124210000Y-64236253D02*
X124210000Y-63713749D01*
%TO.C,R4*%
X122790000Y-68236252D02*
X122790000Y-67713748D01*
X124210000Y-68236252D02*
X124210000Y-67713748D01*
%TO.C,R3*%
X120238748Y-68790000D02*
X120761252Y-68790000D01*
X120238748Y-70210000D02*
X120761252Y-70210000D01*
%TO.C,R2*%
X118210000Y-67713748D02*
X118210000Y-68236252D01*
X116790000Y-67713748D02*
X116790000Y-68236252D01*
%TO.C,F1*%
X112263748Y-62790000D02*
X112786252Y-62790000D01*
X112263748Y-64210000D02*
X112786252Y-64210000D01*
%TO.C,J5*%
X102000000Y-52670000D02*
X103330000Y-52670000D01*
X103330000Y-52670000D02*
X103330000Y-54000000D01*
X103330000Y-55270000D02*
X103330000Y-93430000D01*
X100670000Y-93430000D02*
X103330000Y-93430000D01*
X100670000Y-55270000D02*
X100670000Y-93430000D01*
X100670000Y-55270000D02*
X103330000Y-55270000D01*
%TO.C,J3*%
X134100000Y-59150000D02*
X135500000Y-59150000D01*
X134100000Y-60700000D02*
X135500000Y-60700000D01*
X127900000Y-60250000D02*
X127900000Y-49725000D01*
X134100000Y-60700000D02*
X134100000Y-61825000D01*
X134100000Y-56750000D02*
X134100000Y-59150000D01*
X134100000Y-53750000D02*
X134100000Y-55100000D01*
X134100000Y-49725000D02*
X134100000Y-52100000D01*
X127900000Y-61825000D02*
X134100000Y-61825000D01*
X134100000Y-49725000D02*
X133500000Y-49725000D01*
X128500000Y-49725000D02*
X127900000Y-49725000D01*
X133500000Y-47725000D02*
X128500000Y-47725000D01*
X133500000Y-49725000D02*
X133500000Y-47725000D01*
X128500000Y-49725000D02*
X128500000Y-47725000D01*
%TO.C,J1*%
X124100000Y-59150000D02*
X125500000Y-59150000D01*
X124100000Y-60700000D02*
X125500000Y-60700000D01*
X117900000Y-60250000D02*
X117900000Y-49725000D01*
X124100000Y-60700000D02*
X124100000Y-61825000D01*
X124100000Y-56750000D02*
X124100000Y-59150000D01*
X124100000Y-53750000D02*
X124100000Y-55100000D01*
X124100000Y-49725000D02*
X124100000Y-52100000D01*
X117900000Y-61825000D02*
X124100000Y-61825000D01*
X124100000Y-49725000D02*
X123500000Y-49725000D01*
X118500000Y-49725000D02*
X117900000Y-49725000D01*
X123500000Y-47725000D02*
X118500000Y-47725000D01*
X123500000Y-49725000D02*
X123500000Y-47725000D01*
X118500000Y-49725000D02*
X118500000Y-47725000D01*
%TO.C,J4*%
D14*
X152666666Y-50682380D02*
X152666666Y-51396666D01*
X152619047Y-51539523D01*
X152523809Y-51634761D01*
X152380952Y-51682380D01*
X152285714Y-51682380D01*
X153571428Y-51015714D02*
X153571428Y-51682380D01*
X153333333Y-50634761D02*
X153095238Y-51349047D01*
X153714285Y-51349047D01*
%TO.C,R21*%
X113882380Y-78517856D02*
X113406190Y-78851189D01*
X113882380Y-79089284D02*
X112882380Y-79089284D01*
X112882380Y-78708332D01*
X112930000Y-78613094D01*
X112977619Y-78565475D01*
X113072857Y-78517856D01*
X113215714Y-78517856D01*
X113310952Y-78565475D01*
X113358571Y-78613094D01*
X113406190Y-78708332D01*
X113406190Y-79089284D01*
X112977619Y-78136903D02*
X112930000Y-78089284D01*
X112882380Y-77994046D01*
X112882380Y-77755951D01*
X112930000Y-77660713D01*
X112977619Y-77613094D01*
X113072857Y-77565475D01*
X113168095Y-77565475D01*
X113310952Y-77613094D01*
X113882380Y-78184522D01*
X113882380Y-77565475D01*
X113882380Y-76613094D02*
X113882380Y-77184522D01*
X113882380Y-76898808D02*
X112882380Y-76898808D01*
X113025238Y-76994046D01*
X113120476Y-77089284D01*
X113168095Y-77184522D01*
%TO.C,C6*%
X119934687Y-87270389D02*
X119934687Y-87337732D01*
X119867343Y-87472419D01*
X119800000Y-87539763D01*
X119665312Y-87607106D01*
X119530625Y-87607106D01*
X119429610Y-87573435D01*
X119261251Y-87472419D01*
X119160236Y-87371404D01*
X119059221Y-87203045D01*
X119025549Y-87102030D01*
X119025549Y-86967343D01*
X119092893Y-86832656D01*
X119160236Y-86765312D01*
X119294923Y-86697969D01*
X119362267Y-86697969D01*
X119901015Y-86024534D02*
X119766328Y-86159221D01*
X119732656Y-86260236D01*
X119732656Y-86327580D01*
X119766328Y-86495938D01*
X119867343Y-86664297D01*
X120136717Y-86933671D01*
X120237732Y-86967343D01*
X120305076Y-86967343D01*
X120406091Y-86933671D01*
X120540778Y-86798984D01*
X120574450Y-86697969D01*
X120574450Y-86630625D01*
X120540778Y-86529610D01*
X120372419Y-86361251D01*
X120271404Y-86327580D01*
X120204061Y-86327580D01*
X120103045Y-86361251D01*
X119968358Y-86495938D01*
X119934687Y-86596954D01*
X119934687Y-86664297D01*
X119968358Y-86765312D01*
%TO.C,C7*%
X148257142Y-63466666D02*
X148304761Y-63514285D01*
X148352380Y-63657142D01*
X148352380Y-63752380D01*
X148304761Y-63895238D01*
X148209523Y-63990476D01*
X148114285Y-64038095D01*
X147923809Y-64085714D01*
X147780952Y-64085714D01*
X147590476Y-64038095D01*
X147495238Y-63990476D01*
X147400000Y-63895238D01*
X147352380Y-63752380D01*
X147352380Y-63657142D01*
X147400000Y-63514285D01*
X147447619Y-63466666D01*
X147352380Y-63133333D02*
X147352380Y-62466666D01*
X148352380Y-62895238D01*
%TO.C,R19*%
X104767142Y-76397380D02*
X104433809Y-75921190D01*
X104195714Y-76397380D02*
X104195714Y-75397380D01*
X104576666Y-75397380D01*
X104671904Y-75445000D01*
X104719523Y-75492619D01*
X104767142Y-75587857D01*
X104767142Y-75730714D01*
X104719523Y-75825952D01*
X104671904Y-75873571D01*
X104576666Y-75921190D01*
X104195714Y-75921190D01*
X105719523Y-76397380D02*
X105148095Y-76397380D01*
X105433809Y-76397380D02*
X105433809Y-75397380D01*
X105338571Y-75540238D01*
X105243333Y-75635476D01*
X105148095Y-75683095D01*
X106195714Y-76397380D02*
X106386190Y-76397380D01*
X106481428Y-76349761D01*
X106529047Y-76302142D01*
X106624285Y-76159285D01*
X106671904Y-75968809D01*
X106671904Y-75587857D01*
X106624285Y-75492619D01*
X106576666Y-75445000D01*
X106481428Y-75397380D01*
X106290952Y-75397380D01*
X106195714Y-75445000D01*
X106148095Y-75492619D01*
X106100476Y-75587857D01*
X106100476Y-75825952D01*
X106148095Y-75921190D01*
X106195714Y-75968809D01*
X106290952Y-76016428D01*
X106481428Y-76016428D01*
X106576666Y-75968809D01*
X106624285Y-75921190D01*
X106671904Y-75825952D01*
%TO.C,R20*%
X104857142Y-70352380D02*
X104523809Y-69876190D01*
X104285714Y-70352380D02*
X104285714Y-69352380D01*
X104666666Y-69352380D01*
X104761904Y-69400000D01*
X104809523Y-69447619D01*
X104857142Y-69542857D01*
X104857142Y-69685714D01*
X104809523Y-69780952D01*
X104761904Y-69828571D01*
X104666666Y-69876190D01*
X104285714Y-69876190D01*
X105238095Y-69447619D02*
X105285714Y-69400000D01*
X105380952Y-69352380D01*
X105619047Y-69352380D01*
X105714285Y-69400000D01*
X105761904Y-69447619D01*
X105809523Y-69542857D01*
X105809523Y-69638095D01*
X105761904Y-69780952D01*
X105190476Y-70352380D01*
X105809523Y-70352380D01*
X106428571Y-69352380D02*
X106523809Y-69352380D01*
X106619047Y-69400000D01*
X106666666Y-69447619D01*
X106714285Y-69542857D01*
X106761904Y-69733333D01*
X106761904Y-69971428D01*
X106714285Y-70161904D01*
X106666666Y-70257142D01*
X106619047Y-70304761D01*
X106523809Y-70352380D01*
X106428571Y-70352380D01*
X106333333Y-70304761D01*
X106285714Y-70257142D01*
X106238095Y-70161904D01*
X106190476Y-69971428D01*
X106190476Y-69733333D01*
X106238095Y-69542857D01*
X106285714Y-69447619D01*
X106333333Y-69400000D01*
X106428571Y-69352380D01*
%TO.C,Y1*%
X137223809Y-91126190D02*
X137223809Y-91602380D01*
X136890476Y-90602380D02*
X137223809Y-91126190D01*
X137557142Y-90602380D01*
X138414285Y-91602380D02*
X137842857Y-91602380D01*
X138128571Y-91602380D02*
X138128571Y-90602380D01*
X138033333Y-90745238D01*
X137938095Y-90840476D01*
X137842857Y-90888095D01*
%TO.C,U2*%
X142738095Y-56452380D02*
X142738095Y-57261904D01*
X142785714Y-57357142D01*
X142833333Y-57404761D01*
X142928571Y-57452380D01*
X143119047Y-57452380D01*
X143214285Y-57404761D01*
X143261904Y-57357142D01*
X143309523Y-57261904D01*
X143309523Y-56452380D01*
X143738095Y-56547619D02*
X143785714Y-56500000D01*
X143880952Y-56452380D01*
X144119047Y-56452380D01*
X144214285Y-56500000D01*
X144261904Y-56547619D01*
X144309523Y-56642857D01*
X144309523Y-56738095D01*
X144261904Y-56880952D01*
X143690476Y-57452380D01*
X144309523Y-57452380D01*
%TO.C,U1*%
X140238095Y-85752380D02*
X140238095Y-86561904D01*
X140285714Y-86657142D01*
X140333333Y-86704761D01*
X140428571Y-86752380D01*
X140619047Y-86752380D01*
X140714285Y-86704761D01*
X140761904Y-86657142D01*
X140809523Y-86561904D01*
X140809523Y-85752380D01*
X141809523Y-86752380D02*
X141238095Y-86752380D01*
X141523809Y-86752380D02*
X141523809Y-85752380D01*
X141428571Y-85895238D01*
X141333333Y-85990476D01*
X141238095Y-86038095D01*
%TO.C,R16*%
X150352380Y-61042857D02*
X149876190Y-61376190D01*
X150352380Y-61614285D02*
X149352380Y-61614285D01*
X149352380Y-61233333D01*
X149400000Y-61138095D01*
X149447619Y-61090476D01*
X149542857Y-61042857D01*
X149685714Y-61042857D01*
X149780952Y-61090476D01*
X149828571Y-61138095D01*
X149876190Y-61233333D01*
X149876190Y-61614285D01*
X150352380Y-60090476D02*
X150352380Y-60661904D01*
X150352380Y-60376190D02*
X149352380Y-60376190D01*
X149495238Y-60471428D01*
X149590476Y-60566666D01*
X149638095Y-60661904D01*
X149352380Y-59233333D02*
X149352380Y-59423809D01*
X149400000Y-59519047D01*
X149447619Y-59566666D01*
X149590476Y-59661904D01*
X149780952Y-59709523D01*
X150161904Y-59709523D01*
X150257142Y-59661904D01*
X150304761Y-59614285D01*
X150352380Y-59519047D01*
X150352380Y-59328571D01*
X150304761Y-59233333D01*
X150257142Y-59185714D01*
X150161904Y-59138095D01*
X149923809Y-59138095D01*
X149828571Y-59185714D01*
X149780952Y-59233333D01*
X149733333Y-59328571D01*
X149733333Y-59519047D01*
X149780952Y-59614285D01*
X149828571Y-59661904D01*
X149923809Y-59709523D01*
%TO.C,R15*%
X138452380Y-61142857D02*
X137976190Y-61476190D01*
X138452380Y-61714285D02*
X137452380Y-61714285D01*
X137452380Y-61333333D01*
X137500000Y-61238095D01*
X137547619Y-61190476D01*
X137642857Y-61142857D01*
X137785714Y-61142857D01*
X137880952Y-61190476D01*
X137928571Y-61238095D01*
X137976190Y-61333333D01*
X137976190Y-61714285D01*
X138452380Y-60190476D02*
X138452380Y-60761904D01*
X138452380Y-60476190D02*
X137452380Y-60476190D01*
X137595238Y-60571428D01*
X137690476Y-60666666D01*
X137738095Y-60761904D01*
X137452380Y-59285714D02*
X137452380Y-59761904D01*
X137928571Y-59809523D01*
X137880952Y-59761904D01*
X137833333Y-59666666D01*
X137833333Y-59428571D01*
X137880952Y-59333333D01*
X137928571Y-59285714D01*
X138023809Y-59238095D01*
X138261904Y-59238095D01*
X138357142Y-59285714D01*
X138404761Y-59333333D01*
X138452380Y-59428571D01*
X138452380Y-59666666D01*
X138404761Y-59761904D01*
X138357142Y-59809523D01*
%TO.C,R12*%
X148357142Y-74022380D02*
X148023809Y-73546190D01*
X147785714Y-74022380D02*
X147785714Y-73022380D01*
X148166666Y-73022380D01*
X148261904Y-73070000D01*
X148309523Y-73117619D01*
X148357142Y-73212857D01*
X148357142Y-73355714D01*
X148309523Y-73450952D01*
X148261904Y-73498571D01*
X148166666Y-73546190D01*
X147785714Y-73546190D01*
X149309523Y-74022380D02*
X148738095Y-74022380D01*
X149023809Y-74022380D02*
X149023809Y-73022380D01*
X148928571Y-73165238D01*
X148833333Y-73260476D01*
X148738095Y-73308095D01*
X149690476Y-73117619D02*
X149738095Y-73070000D01*
X149833333Y-73022380D01*
X150071428Y-73022380D01*
X150166666Y-73070000D01*
X150214285Y-73117619D01*
X150261904Y-73212857D01*
X150261904Y-73308095D01*
X150214285Y-73450952D01*
X149642857Y-74022380D01*
X150261904Y-74022380D01*
%TO.C,R11*%
X148357142Y-79252380D02*
X148023809Y-78776190D01*
X147785714Y-79252380D02*
X147785714Y-78252380D01*
X148166666Y-78252380D01*
X148261904Y-78300000D01*
X148309523Y-78347619D01*
X148357142Y-78442857D01*
X148357142Y-78585714D01*
X148309523Y-78680952D01*
X148261904Y-78728571D01*
X148166666Y-78776190D01*
X147785714Y-78776190D01*
X149309523Y-79252380D02*
X148738095Y-79252380D01*
X149023809Y-79252380D02*
X149023809Y-78252380D01*
X148928571Y-78395238D01*
X148833333Y-78490476D01*
X148738095Y-78538095D01*
X150261904Y-79252380D02*
X149690476Y-79252380D01*
X149976190Y-79252380D02*
X149976190Y-78252380D01*
X149880952Y-78395238D01*
X149785714Y-78490476D01*
X149690476Y-78538095D01*
%TO.C,C3*%
X123034687Y-90470389D02*
X123034687Y-90537732D01*
X122967343Y-90672419D01*
X122900000Y-90739763D01*
X122765312Y-90807106D01*
X122630625Y-90807106D01*
X122529610Y-90773435D01*
X122361251Y-90672419D01*
X122260236Y-90571404D01*
X122159221Y-90403045D01*
X122125549Y-90302030D01*
X122125549Y-90167343D01*
X122192893Y-90032656D01*
X122260236Y-89965312D01*
X122394923Y-89897969D01*
X122462267Y-89897969D01*
X122630625Y-89594923D02*
X123068358Y-89157190D01*
X123102030Y-89662267D01*
X123203045Y-89561251D01*
X123304061Y-89527580D01*
X123371404Y-89527580D01*
X123472419Y-89561251D01*
X123640778Y-89729610D01*
X123674450Y-89830625D01*
X123674450Y-89897969D01*
X123640778Y-89998984D01*
X123438748Y-90201015D01*
X123337732Y-90234687D01*
X123270389Y-90234687D01*
%TO.C,C2*%
X140833333Y-51857142D02*
X140785714Y-51904761D01*
X140642857Y-51952380D01*
X140547619Y-51952380D01*
X140404761Y-51904761D01*
X140309523Y-51809523D01*
X140261904Y-51714285D01*
X140214285Y-51523809D01*
X140214285Y-51380952D01*
X140261904Y-51190476D01*
X140309523Y-51095238D01*
X140404761Y-51000000D01*
X140547619Y-50952380D01*
X140642857Y-50952380D01*
X140785714Y-51000000D01*
X140833333Y-51047619D01*
X141214285Y-51047619D02*
X141261904Y-51000000D01*
X141357142Y-50952380D01*
X141595238Y-50952380D01*
X141690476Y-51000000D01*
X141738095Y-51047619D01*
X141785714Y-51142857D01*
X141785714Y-51238095D01*
X141738095Y-51380952D01*
X141166666Y-51952380D01*
X141785714Y-51952380D01*
%TO.C,C1*%
X143458333Y-85127142D02*
X143410714Y-85174761D01*
X143267857Y-85222380D01*
X143172619Y-85222380D01*
X143029761Y-85174761D01*
X142934523Y-85079523D01*
X142886904Y-84984285D01*
X142839285Y-84793809D01*
X142839285Y-84650952D01*
X142886904Y-84460476D01*
X142934523Y-84365238D01*
X143029761Y-84270000D01*
X143172619Y-84222380D01*
X143267857Y-84222380D01*
X143410714Y-84270000D01*
X143458333Y-84317619D01*
X144410714Y-85222380D02*
X143839285Y-85222380D01*
X144125000Y-85222380D02*
X144125000Y-84222380D01*
X144029761Y-84365238D01*
X143934523Y-84460476D01*
X143839285Y-84508095D01*
%TO.C,J2*%
X109152380Y-63533333D02*
X109866666Y-63533333D01*
X110009523Y-63580952D01*
X110104761Y-63676190D01*
X110152380Y-63819047D01*
X110152380Y-63914285D01*
X109247619Y-63104761D02*
X109200000Y-63057142D01*
X109152380Y-62961904D01*
X109152380Y-62723809D01*
X109200000Y-62628571D01*
X109247619Y-62580952D01*
X109342857Y-62533333D01*
X109438095Y-62533333D01*
X109580952Y-62580952D01*
X110152380Y-63152380D01*
X110152380Y-62533333D01*
%TO.C,CPU1*%
X114857142Y-83690476D02*
X114904761Y-83738095D01*
X114952380Y-83880952D01*
X114952380Y-83976190D01*
X114904761Y-84119047D01*
X114809523Y-84214285D01*
X114714285Y-84261904D01*
X114523809Y-84309523D01*
X114380952Y-84309523D01*
X114190476Y-84261904D01*
X114095238Y-84214285D01*
X114000000Y-84119047D01*
X113952380Y-83976190D01*
X113952380Y-83880952D01*
X114000000Y-83738095D01*
X114047619Y-83690476D01*
X114952380Y-83261904D02*
X113952380Y-83261904D01*
X113952380Y-82880952D01*
X114000000Y-82785714D01*
X114047619Y-82738095D01*
X114142857Y-82690476D01*
X114285714Y-82690476D01*
X114380952Y-82738095D01*
X114428571Y-82785714D01*
X114476190Y-82880952D01*
X114476190Y-83261904D01*
X113952380Y-82261904D02*
X114761904Y-82261904D01*
X114857142Y-82214285D01*
X114904761Y-82166666D01*
X114952380Y-82071428D01*
X114952380Y-81880952D01*
X114904761Y-81785714D01*
X114857142Y-81738095D01*
X114761904Y-81690476D01*
X113952380Y-81690476D01*
X114952380Y-80690476D02*
X114952380Y-81261904D01*
X114952380Y-80976190D02*
X113952380Y-80976190D01*
X114095238Y-81071428D01*
X114190476Y-81166666D01*
X114238095Y-81261904D01*
%TO.C,BT1*%
X143334285Y-62928571D02*
X143477142Y-62976190D01*
X143524761Y-63023809D01*
X143572380Y-63119047D01*
X143572380Y-63261904D01*
X143524761Y-63357142D01*
X143477142Y-63404761D01*
X143381904Y-63452380D01*
X143000952Y-63452380D01*
X143000952Y-62452380D01*
X143334285Y-62452380D01*
X143429523Y-62500000D01*
X143477142Y-62547619D01*
X143524761Y-62642857D01*
X143524761Y-62738095D01*
X143477142Y-62833333D01*
X143429523Y-62880952D01*
X143334285Y-62928571D01*
X143000952Y-62928571D01*
X143858095Y-62452380D02*
X144429523Y-62452380D01*
X144143809Y-63452380D02*
X144143809Y-62452380D01*
X145286666Y-63452380D02*
X144715238Y-63452380D01*
X145000952Y-63452380D02*
X145000952Y-62452380D01*
X144905714Y-62595238D01*
X144810476Y-62690476D01*
X144715238Y-62738095D01*
%TO.C,R10*%
X134857142Y-74452380D02*
X134523809Y-73976190D01*
X134285714Y-74452380D02*
X134285714Y-73452380D01*
X134666666Y-73452380D01*
X134761904Y-73500000D01*
X134809523Y-73547619D01*
X134857142Y-73642857D01*
X134857142Y-73785714D01*
X134809523Y-73880952D01*
X134761904Y-73928571D01*
X134666666Y-73976190D01*
X134285714Y-73976190D01*
X135809523Y-74452380D02*
X135238095Y-74452380D01*
X135523809Y-74452380D02*
X135523809Y-73452380D01*
X135428571Y-73595238D01*
X135333333Y-73690476D01*
X135238095Y-73738095D01*
X136428571Y-73452380D02*
X136523809Y-73452380D01*
X136619047Y-73500000D01*
X136666666Y-73547619D01*
X136714285Y-73642857D01*
X136761904Y-73833333D01*
X136761904Y-74071428D01*
X136714285Y-74261904D01*
X136666666Y-74357142D01*
X136619047Y-74404761D01*
X136523809Y-74452380D01*
X136428571Y-74452380D01*
X136333333Y-74404761D01*
X136285714Y-74357142D01*
X136238095Y-74261904D01*
X136190476Y-74071428D01*
X136190476Y-73833333D01*
X136238095Y-73642857D01*
X136285714Y-73547619D01*
X136333333Y-73500000D01*
X136428571Y-73452380D01*
%TO.C,R9*%
X134833333Y-76452380D02*
X134500000Y-75976190D01*
X134261904Y-76452380D02*
X134261904Y-75452380D01*
X134642857Y-75452380D01*
X134738095Y-75500000D01*
X134785714Y-75547619D01*
X134833333Y-75642857D01*
X134833333Y-75785714D01*
X134785714Y-75880952D01*
X134738095Y-75928571D01*
X134642857Y-75976190D01*
X134261904Y-75976190D01*
X135309523Y-76452380D02*
X135500000Y-76452380D01*
X135595238Y-76404761D01*
X135642857Y-76357142D01*
X135738095Y-76214285D01*
X135785714Y-76023809D01*
X135785714Y-75642857D01*
X135738095Y-75547619D01*
X135690476Y-75500000D01*
X135595238Y-75452380D01*
X135404761Y-75452380D01*
X135309523Y-75500000D01*
X135261904Y-75547619D01*
X135214285Y-75642857D01*
X135214285Y-75880952D01*
X135261904Y-75976190D01*
X135309523Y-76023809D01*
X135404761Y-76071428D01*
X135595238Y-76071428D01*
X135690476Y-76023809D01*
X135738095Y-75976190D01*
X135785714Y-75880952D01*
%TO.C,R8*%
X134833333Y-71952380D02*
X134500000Y-71476190D01*
X134261904Y-71952380D02*
X134261904Y-70952380D01*
X134642857Y-70952380D01*
X134738095Y-71000000D01*
X134785714Y-71047619D01*
X134833333Y-71142857D01*
X134833333Y-71285714D01*
X134785714Y-71380952D01*
X134738095Y-71428571D01*
X134642857Y-71476190D01*
X134261904Y-71476190D01*
X135404761Y-71380952D02*
X135309523Y-71333333D01*
X135261904Y-71285714D01*
X135214285Y-71190476D01*
X135214285Y-71142857D01*
X135261904Y-71047619D01*
X135309523Y-71000000D01*
X135404761Y-70952380D01*
X135595238Y-70952380D01*
X135690476Y-71000000D01*
X135738095Y-71047619D01*
X135785714Y-71142857D01*
X135785714Y-71190476D01*
X135738095Y-71285714D01*
X135690476Y-71333333D01*
X135595238Y-71380952D01*
X135404761Y-71380952D01*
X135309523Y-71428571D01*
X135261904Y-71476190D01*
X135214285Y-71571428D01*
X135214285Y-71761904D01*
X135261904Y-71857142D01*
X135309523Y-71904761D01*
X135404761Y-71952380D01*
X135595238Y-71952380D01*
X135690476Y-71904761D01*
X135738095Y-71857142D01*
X135785714Y-71761904D01*
X135785714Y-71571428D01*
X135738095Y-71476190D01*
X135690476Y-71428571D01*
X135595238Y-71380952D01*
%TO.C,R7*%
X134833333Y-69952380D02*
X134500000Y-69476190D01*
X134261904Y-69952380D02*
X134261904Y-68952380D01*
X134642857Y-68952380D01*
X134738095Y-69000000D01*
X134785714Y-69047619D01*
X134833333Y-69142857D01*
X134833333Y-69285714D01*
X134785714Y-69380952D01*
X134738095Y-69428571D01*
X134642857Y-69476190D01*
X134261904Y-69476190D01*
X135166666Y-68952380D02*
X135833333Y-68952380D01*
X135404761Y-69952380D01*
%TO.C,R6*%
X115852380Y-60466666D02*
X115376190Y-60800000D01*
X115852380Y-61038095D02*
X114852380Y-61038095D01*
X114852380Y-60657142D01*
X114900000Y-60561904D01*
X114947619Y-60514285D01*
X115042857Y-60466666D01*
X115185714Y-60466666D01*
X115280952Y-60514285D01*
X115328571Y-60561904D01*
X115376190Y-60657142D01*
X115376190Y-61038095D01*
X114852380Y-59609523D02*
X114852380Y-59800000D01*
X114900000Y-59895238D01*
X114947619Y-59942857D01*
X115090476Y-60038095D01*
X115280952Y-60085714D01*
X115661904Y-60085714D01*
X115757142Y-60038095D01*
X115804761Y-59990476D01*
X115852380Y-59895238D01*
X115852380Y-59704761D01*
X115804761Y-59609523D01*
X115757142Y-59561904D01*
X115661904Y-59514285D01*
X115423809Y-59514285D01*
X115328571Y-59561904D01*
X115280952Y-59609523D01*
X115233333Y-59704761D01*
X115233333Y-59895238D01*
X115280952Y-59990476D01*
X115328571Y-60038095D01*
X115423809Y-60085714D01*
%TO.C,R1*%
X119333333Y-64427381D02*
X119000000Y-63951191D01*
X118761904Y-64427381D02*
X118761904Y-63427381D01*
X119142857Y-63427381D01*
X119238095Y-63475001D01*
X119285714Y-63522620D01*
X119333333Y-63617858D01*
X119333333Y-63760715D01*
X119285714Y-63855953D01*
X119238095Y-63903572D01*
X119142857Y-63951191D01*
X118761904Y-63951191D01*
X120285714Y-64427381D02*
X119714285Y-64427381D01*
X120000000Y-64427381D02*
X120000000Y-63427381D01*
X119904761Y-63570239D01*
X119809523Y-63665477D01*
X119714285Y-63713096D01*
%TO.C,R5*%
X121333333Y-64427381D02*
X121000000Y-63951191D01*
X120761904Y-64427381D02*
X120761904Y-63427381D01*
X121142857Y-63427381D01*
X121238095Y-63475001D01*
X121285714Y-63522620D01*
X121333333Y-63617858D01*
X121333333Y-63760715D01*
X121285714Y-63855953D01*
X121238095Y-63903572D01*
X121142857Y-63951191D01*
X120761904Y-63951191D01*
X122238095Y-63427381D02*
X121761904Y-63427381D01*
X121714285Y-63903572D01*
X121761904Y-63855953D01*
X121857142Y-63808334D01*
X122095238Y-63808334D01*
X122190476Y-63855953D01*
X122238095Y-63903572D01*
X122285714Y-63998810D01*
X122285714Y-64236905D01*
X122238095Y-64332143D01*
X122190476Y-64379762D01*
X122095238Y-64427381D01*
X121857142Y-64427381D01*
X121761904Y-64379762D01*
X121714285Y-64332143D01*
%TO.C,R4*%
X121333333Y-67452380D02*
X121000000Y-66976190D01*
X120761904Y-67452380D02*
X120761904Y-66452380D01*
X121142857Y-66452380D01*
X121238095Y-66500000D01*
X121285714Y-66547619D01*
X121333333Y-66642857D01*
X121333333Y-66785714D01*
X121285714Y-66880952D01*
X121238095Y-66928571D01*
X121142857Y-66976190D01*
X120761904Y-66976190D01*
X122190476Y-66785714D02*
X122190476Y-67452380D01*
X121952380Y-66404761D02*
X121714285Y-67119047D01*
X122333333Y-67119047D01*
%TO.C,R3*%
X120333333Y-71702380D02*
X120000000Y-71226190D01*
X119761904Y-71702380D02*
X119761904Y-70702380D01*
X120142857Y-70702380D01*
X120238095Y-70750000D01*
X120285714Y-70797619D01*
X120333333Y-70892857D01*
X120333333Y-71035714D01*
X120285714Y-71130952D01*
X120238095Y-71178571D01*
X120142857Y-71226190D01*
X119761904Y-71226190D01*
X120666666Y-70702380D02*
X121285714Y-70702380D01*
X120952380Y-71083333D01*
X121095238Y-71083333D01*
X121190476Y-71130952D01*
X121238095Y-71178571D01*
X121285714Y-71273809D01*
X121285714Y-71511904D01*
X121238095Y-71607142D01*
X121190476Y-71654761D01*
X121095238Y-71702380D01*
X120809523Y-71702380D01*
X120714285Y-71654761D01*
X120666666Y-71607142D01*
%TO.C,R2*%
X119333333Y-67452380D02*
X119000000Y-66976190D01*
X118761904Y-67452380D02*
X118761904Y-66452380D01*
X119142857Y-66452380D01*
X119238095Y-66500000D01*
X119285714Y-66547619D01*
X119333333Y-66642857D01*
X119333333Y-66785714D01*
X119285714Y-66880952D01*
X119238095Y-66928571D01*
X119142857Y-66976190D01*
X118761904Y-66976190D01*
X119714285Y-66547619D02*
X119761904Y-66500000D01*
X119857142Y-66452380D01*
X120095238Y-66452380D01*
X120190476Y-66500000D01*
X120238095Y-66547619D01*
X120285714Y-66642857D01*
X120285714Y-66738095D01*
X120238095Y-66880952D01*
X119666666Y-67452380D01*
X120285714Y-67452380D01*
%TO.C,F1*%
X112166666Y-65428571D02*
X111833333Y-65428571D01*
X111833333Y-65952380D02*
X111833333Y-64952380D01*
X112309523Y-64952380D01*
X113214285Y-65952380D02*
X112642857Y-65952380D01*
X112928571Y-65952380D02*
X112928571Y-64952380D01*
X112833333Y-65095238D01*
X112738095Y-65190476D01*
X112642857Y-65238095D01*
%TO.C,J5*%
X101666666Y-50682380D02*
X101666666Y-51396666D01*
X101619047Y-51539523D01*
X101523809Y-51634761D01*
X101380952Y-51682380D01*
X101285714Y-51682380D01*
X102619047Y-50682380D02*
X102142857Y-50682380D01*
X102095238Y-51158571D01*
X102142857Y-51110952D01*
X102238095Y-51063333D01*
X102476190Y-51063333D01*
X102571428Y-51110952D01*
X102619047Y-51158571D01*
X102666666Y-51253809D01*
X102666666Y-51491904D01*
X102619047Y-51587142D01*
X102571428Y-51634761D01*
X102476190Y-51682380D01*
X102238095Y-51682380D01*
X102142857Y-51634761D01*
X102095238Y-51587142D01*
%TO.C,J3*%
X130752380Y-63633333D02*
X131466666Y-63633333D01*
X131609523Y-63680952D01*
X131704761Y-63776190D01*
X131752380Y-63919047D01*
X131752380Y-64014285D01*
X130752380Y-63252380D02*
X130752380Y-62633333D01*
X131133333Y-62966666D01*
X131133333Y-62823809D01*
X131180952Y-62728571D01*
X131228571Y-62680952D01*
X131323809Y-62633333D01*
X131561904Y-62633333D01*
X131657142Y-62680952D01*
X131704761Y-62728571D01*
X131752380Y-62823809D01*
X131752380Y-63109523D01*
X131704761Y-63204761D01*
X131657142Y-63252380D01*
%TO.C,J1*%
X124752380Y-63333333D02*
X125466666Y-63333333D01*
X125609523Y-63380952D01*
X125704761Y-63476190D01*
X125752380Y-63619047D01*
X125752380Y-63714285D01*
X125752380Y-62333333D02*
X125752380Y-62904761D01*
X125752380Y-62619047D02*
X124752380Y-62619047D01*
X124895238Y-62714285D01*
X124990476Y-62809523D01*
X125038095Y-62904761D01*
%TD*%
M02*
