%TF.GenerationSoftware,KiCad,Pcbnew,(5.0.2)-1*%
%TF.CreationDate,2020-07-31T09:38:14+02:00*%
%TF.ProjectId,Multimeter_Watch_Board_V1,4d756c74-696d-4657-9465-725f57617463,rev?*%
%TF.SameCoordinates,Original*%
%TF.FileFunction,Copper,L4,Bot*%
%TF.FilePolarity,Positive*%
%FSLAX46Y46*%
G04 Gerber Fmt 4.6, Leading zero omitted, Abs format (unit mm)*
G04 Created by KiCad (PCBNEW (5.0.2)-1) date 31.7.2020 9:38:14*
%MOMM*%
%LPD*%
G01*
G04 APERTURE LIST*
%TA.AperFunction,ComponentPad*%
%ADD10O,1.700000X1.700000*%
%TD*%
%TA.AperFunction,ComponentPad*%
%ADD11R,1.700000X1.700000*%
%TD*%
%TA.AperFunction,Conductor*%
%ADD12C,0.100000*%
%TD*%
%TA.AperFunction,SMDPad,CuDef*%
%ADD13C,1.150000*%
%TD*%
%TA.AperFunction,SMDPad,CuDef*%
%ADD14C,0.950000*%
%TD*%
%TA.AperFunction,ComponentPad*%
%ADD15O,0.800000X1.300000*%
%TD*%
%TA.AperFunction,ComponentPad*%
%ADD16C,0.800000*%
%TD*%
%TA.AperFunction,ViaPad*%
%ADD17C,0.800000*%
%TD*%
%TA.AperFunction,Conductor*%
%ADD18C,0.500000*%
%TD*%
%TA.AperFunction,Conductor*%
%ADD19C,0.250000*%
%TD*%
G04 APERTURE END LIST*
D10*
%TO.P,J4,16*%
%TO.N,/SDA*%
X153000000Y-92100000D03*
%TO.P,J4,15*%
%TO.N,/SCL*%
X153000000Y-89560000D03*
%TO.P,J4,14*%
%TO.N,/PE5*%
X153000000Y-87020000D03*
%TO.P,J4,13*%
%TO.N,/SWC*%
X153000000Y-84480000D03*
%TO.P,J4,12*%
%TO.N,/SWD*%
X153000000Y-81940000D03*
%TO.P,J4,11*%
%TO.N,/SDA*%
X153000000Y-79400000D03*
%TO.P,J4,10*%
%TO.N,/SCL*%
X153000000Y-76860000D03*
%TO.P,J4,9*%
%TO.N,/ADC6*%
X153000000Y-74320000D03*
%TO.P,J4,8*%
%TO.N,/ADC11*%
X153000000Y-71780000D03*
%TO.P,J4,7*%
%TO.N,/ADC3*%
X153000000Y-69240000D03*
%TO.P,J4,6*%
%TO.N,/VCC_HALF*%
X153000000Y-66700000D03*
%TO.P,J4,5*%
%TO.N,/RESET*%
X153000000Y-64160000D03*
%TO.P,J4,4*%
%TO.N,/GND*%
X153000000Y-61620000D03*
%TO.P,J4,3*%
%TO.N,/PB6*%
X153000000Y-59080000D03*
%TO.P,J4,2*%
%TO.N,/PB7*%
X153000000Y-56540000D03*
D11*
%TO.P,J4,1*%
%TO.N,/VCC*%
X153000000Y-54000000D03*
%TD*%
D12*
%TO.N,Net-(R16-Pad2)*%
%TO.C,R18*%
G36*
X149349506Y-54301204D02*
X149373774Y-54304804D01*
X149397573Y-54310765D01*
X149420672Y-54319030D01*
X149442851Y-54329520D01*
X149463894Y-54342132D01*
X149483600Y-54356747D01*
X149501778Y-54373223D01*
X149518254Y-54391401D01*
X149532869Y-54411107D01*
X149545481Y-54432150D01*
X149555971Y-54454329D01*
X149564236Y-54477428D01*
X149570197Y-54501227D01*
X149573797Y-54525495D01*
X149575001Y-54549999D01*
X149575001Y-55450001D01*
X149573797Y-55474505D01*
X149570197Y-55498773D01*
X149564236Y-55522572D01*
X149555971Y-55545671D01*
X149545481Y-55567850D01*
X149532869Y-55588893D01*
X149518254Y-55608599D01*
X149501778Y-55626777D01*
X149483600Y-55643253D01*
X149463894Y-55657868D01*
X149442851Y-55670480D01*
X149420672Y-55680970D01*
X149397573Y-55689235D01*
X149373774Y-55695196D01*
X149349506Y-55698796D01*
X149325002Y-55700000D01*
X148675000Y-55700000D01*
X148650496Y-55698796D01*
X148626228Y-55695196D01*
X148602429Y-55689235D01*
X148579330Y-55680970D01*
X148557151Y-55670480D01*
X148536108Y-55657868D01*
X148516402Y-55643253D01*
X148498224Y-55626777D01*
X148481748Y-55608599D01*
X148467133Y-55588893D01*
X148454521Y-55567850D01*
X148444031Y-55545671D01*
X148435766Y-55522572D01*
X148429805Y-55498773D01*
X148426205Y-55474505D01*
X148425001Y-55450001D01*
X148425001Y-54549999D01*
X148426205Y-54525495D01*
X148429805Y-54501227D01*
X148435766Y-54477428D01*
X148444031Y-54454329D01*
X148454521Y-54432150D01*
X148467133Y-54411107D01*
X148481748Y-54391401D01*
X148498224Y-54373223D01*
X148516402Y-54356747D01*
X148536108Y-54342132D01*
X148557151Y-54329520D01*
X148579330Y-54319030D01*
X148602429Y-54310765D01*
X148626228Y-54304804D01*
X148650496Y-54301204D01*
X148675000Y-54300000D01*
X149325002Y-54300000D01*
X149349506Y-54301204D01*
X149349506Y-54301204D01*
G37*
D13*
%TD*%
%TO.P,R18,2*%
%TO.N,Net-(R16-Pad2)*%
X149000001Y-55000000D03*
D12*
%TO.N,Net-(C5-Pad2)*%
%TO.C,R18*%
G36*
X147299506Y-54301204D02*
X147323774Y-54304804D01*
X147347573Y-54310765D01*
X147370672Y-54319030D01*
X147392851Y-54329520D01*
X147413894Y-54342132D01*
X147433600Y-54356747D01*
X147451778Y-54373223D01*
X147468254Y-54391401D01*
X147482869Y-54411107D01*
X147495481Y-54432150D01*
X147505971Y-54454329D01*
X147514236Y-54477428D01*
X147520197Y-54501227D01*
X147523797Y-54525495D01*
X147525001Y-54549999D01*
X147525001Y-55450001D01*
X147523797Y-55474505D01*
X147520197Y-55498773D01*
X147514236Y-55522572D01*
X147505971Y-55545671D01*
X147495481Y-55567850D01*
X147482869Y-55588893D01*
X147468254Y-55608599D01*
X147451778Y-55626777D01*
X147433600Y-55643253D01*
X147413894Y-55657868D01*
X147392851Y-55670480D01*
X147370672Y-55680970D01*
X147347573Y-55689235D01*
X147323774Y-55695196D01*
X147299506Y-55698796D01*
X147275002Y-55700000D01*
X146625000Y-55700000D01*
X146600496Y-55698796D01*
X146576228Y-55695196D01*
X146552429Y-55689235D01*
X146529330Y-55680970D01*
X146507151Y-55670480D01*
X146486108Y-55657868D01*
X146466402Y-55643253D01*
X146448224Y-55626777D01*
X146431748Y-55608599D01*
X146417133Y-55588893D01*
X146404521Y-55567850D01*
X146394031Y-55545671D01*
X146385766Y-55522572D01*
X146379805Y-55498773D01*
X146376205Y-55474505D01*
X146375001Y-55450001D01*
X146375001Y-54549999D01*
X146376205Y-54525495D01*
X146379805Y-54501227D01*
X146385766Y-54477428D01*
X146394031Y-54454329D01*
X146404521Y-54432150D01*
X146417133Y-54411107D01*
X146431748Y-54391401D01*
X146448224Y-54373223D01*
X146466402Y-54356747D01*
X146486108Y-54342132D01*
X146507151Y-54329520D01*
X146529330Y-54319030D01*
X146552429Y-54310765D01*
X146576228Y-54304804D01*
X146600496Y-54301204D01*
X146625000Y-54300000D01*
X147275002Y-54300000D01*
X147299506Y-54301204D01*
X147299506Y-54301204D01*
G37*
D13*
%TD*%
%TO.P,R18,1*%
%TO.N,Net-(C5-Pad2)*%
X146950001Y-55000000D03*
D12*
%TO.N,/ADC2*%
%TO.C,R17*%
G36*
X138349504Y-54301204D02*
X138373772Y-54304804D01*
X138397571Y-54310765D01*
X138420670Y-54319030D01*
X138442849Y-54329520D01*
X138463892Y-54342132D01*
X138483598Y-54356747D01*
X138501776Y-54373223D01*
X138518252Y-54391401D01*
X138532867Y-54411107D01*
X138545479Y-54432150D01*
X138555969Y-54454329D01*
X138564234Y-54477428D01*
X138570195Y-54501227D01*
X138573795Y-54525495D01*
X138574999Y-54549999D01*
X138574999Y-55450001D01*
X138573795Y-55474505D01*
X138570195Y-55498773D01*
X138564234Y-55522572D01*
X138555969Y-55545671D01*
X138545479Y-55567850D01*
X138532867Y-55588893D01*
X138518252Y-55608599D01*
X138501776Y-55626777D01*
X138483598Y-55643253D01*
X138463892Y-55657868D01*
X138442849Y-55670480D01*
X138420670Y-55680970D01*
X138397571Y-55689235D01*
X138373772Y-55695196D01*
X138349504Y-55698796D01*
X138325000Y-55700000D01*
X137674998Y-55700000D01*
X137650494Y-55698796D01*
X137626226Y-55695196D01*
X137602427Y-55689235D01*
X137579328Y-55680970D01*
X137557149Y-55670480D01*
X137536106Y-55657868D01*
X137516400Y-55643253D01*
X137498222Y-55626777D01*
X137481746Y-55608599D01*
X137467131Y-55588893D01*
X137454519Y-55567850D01*
X137444029Y-55545671D01*
X137435764Y-55522572D01*
X137429803Y-55498773D01*
X137426203Y-55474505D01*
X137424999Y-55450001D01*
X137424999Y-54549999D01*
X137426203Y-54525495D01*
X137429803Y-54501227D01*
X137435764Y-54477428D01*
X137444029Y-54454329D01*
X137454519Y-54432150D01*
X137467131Y-54411107D01*
X137481746Y-54391401D01*
X137498222Y-54373223D01*
X137516400Y-54356747D01*
X137536106Y-54342132D01*
X137557149Y-54329520D01*
X137579328Y-54319030D01*
X137602427Y-54310765D01*
X137626226Y-54304804D01*
X137650494Y-54301204D01*
X137674998Y-54300000D01*
X138325000Y-54300000D01*
X138349504Y-54301204D01*
X138349504Y-54301204D01*
G37*
D13*
%TD*%
%TO.P,R17,2*%
%TO.N,/ADC2*%
X137999999Y-55000000D03*
D12*
%TO.N,Net-(C4-Pad2)*%
%TO.C,R17*%
G36*
X140399504Y-54301204D02*
X140423772Y-54304804D01*
X140447571Y-54310765D01*
X140470670Y-54319030D01*
X140492849Y-54329520D01*
X140513892Y-54342132D01*
X140533598Y-54356747D01*
X140551776Y-54373223D01*
X140568252Y-54391401D01*
X140582867Y-54411107D01*
X140595479Y-54432150D01*
X140605969Y-54454329D01*
X140614234Y-54477428D01*
X140620195Y-54501227D01*
X140623795Y-54525495D01*
X140624999Y-54549999D01*
X140624999Y-55450001D01*
X140623795Y-55474505D01*
X140620195Y-55498773D01*
X140614234Y-55522572D01*
X140605969Y-55545671D01*
X140595479Y-55567850D01*
X140582867Y-55588893D01*
X140568252Y-55608599D01*
X140551776Y-55626777D01*
X140533598Y-55643253D01*
X140513892Y-55657868D01*
X140492849Y-55670480D01*
X140470670Y-55680970D01*
X140447571Y-55689235D01*
X140423772Y-55695196D01*
X140399504Y-55698796D01*
X140375000Y-55700000D01*
X139724998Y-55700000D01*
X139700494Y-55698796D01*
X139676226Y-55695196D01*
X139652427Y-55689235D01*
X139629328Y-55680970D01*
X139607149Y-55670480D01*
X139586106Y-55657868D01*
X139566400Y-55643253D01*
X139548222Y-55626777D01*
X139531746Y-55608599D01*
X139517131Y-55588893D01*
X139504519Y-55567850D01*
X139494029Y-55545671D01*
X139485764Y-55522572D01*
X139479803Y-55498773D01*
X139476203Y-55474505D01*
X139474999Y-55450001D01*
X139474999Y-54549999D01*
X139476203Y-54525495D01*
X139479803Y-54501227D01*
X139485764Y-54477428D01*
X139494029Y-54454329D01*
X139504519Y-54432150D01*
X139517131Y-54411107D01*
X139531746Y-54391401D01*
X139548222Y-54373223D01*
X139566400Y-54356747D01*
X139586106Y-54342132D01*
X139607149Y-54329520D01*
X139629328Y-54319030D01*
X139652427Y-54310765D01*
X139676226Y-54304804D01*
X139700494Y-54301204D01*
X139724998Y-54300000D01*
X140375000Y-54300000D01*
X140399504Y-54301204D01*
X140399504Y-54301204D01*
G37*
D13*
%TD*%
%TO.P,R17,1*%
%TO.N,Net-(C4-Pad2)*%
X140049999Y-55000000D03*
D12*
%TO.N,Net-(C5-Pad2)*%
%TO.C,C5*%
G36*
X147349505Y-56301204D02*
X147373773Y-56304804D01*
X147397572Y-56310765D01*
X147420671Y-56319030D01*
X147442850Y-56329520D01*
X147463893Y-56342132D01*
X147483599Y-56356747D01*
X147501777Y-56373223D01*
X147518253Y-56391401D01*
X147532868Y-56411107D01*
X147545480Y-56432150D01*
X147555970Y-56454329D01*
X147564235Y-56477428D01*
X147570196Y-56501227D01*
X147573796Y-56525495D01*
X147575000Y-56549999D01*
X147575000Y-57450001D01*
X147573796Y-57474505D01*
X147570196Y-57498773D01*
X147564235Y-57522572D01*
X147555970Y-57545671D01*
X147545480Y-57567850D01*
X147532868Y-57588893D01*
X147518253Y-57608599D01*
X147501777Y-57626777D01*
X147483599Y-57643253D01*
X147463893Y-57657868D01*
X147442850Y-57670480D01*
X147420671Y-57680970D01*
X147397572Y-57689235D01*
X147373773Y-57695196D01*
X147349505Y-57698796D01*
X147325001Y-57700000D01*
X146674999Y-57700000D01*
X146650495Y-57698796D01*
X146626227Y-57695196D01*
X146602428Y-57689235D01*
X146579329Y-57680970D01*
X146557150Y-57670480D01*
X146536107Y-57657868D01*
X146516401Y-57643253D01*
X146498223Y-57626777D01*
X146481747Y-57608599D01*
X146467132Y-57588893D01*
X146454520Y-57567850D01*
X146444030Y-57545671D01*
X146435765Y-57522572D01*
X146429804Y-57498773D01*
X146426204Y-57474505D01*
X146425000Y-57450001D01*
X146425000Y-56549999D01*
X146426204Y-56525495D01*
X146429804Y-56501227D01*
X146435765Y-56477428D01*
X146444030Y-56454329D01*
X146454520Y-56432150D01*
X146467132Y-56411107D01*
X146481747Y-56391401D01*
X146498223Y-56373223D01*
X146516401Y-56356747D01*
X146536107Y-56342132D01*
X146557150Y-56329520D01*
X146579329Y-56319030D01*
X146602428Y-56310765D01*
X146626227Y-56304804D01*
X146650495Y-56301204D01*
X146674999Y-56300000D01*
X147325001Y-56300000D01*
X147349505Y-56301204D01*
X147349505Y-56301204D01*
G37*
D13*
%TD*%
%TO.P,C5,2*%
%TO.N,Net-(C5-Pad2)*%
X147000000Y-57000000D03*
D12*
%TO.N,/GND*%
%TO.C,C5*%
G36*
X145299505Y-56301204D02*
X145323773Y-56304804D01*
X145347572Y-56310765D01*
X145370671Y-56319030D01*
X145392850Y-56329520D01*
X145413893Y-56342132D01*
X145433599Y-56356747D01*
X145451777Y-56373223D01*
X145468253Y-56391401D01*
X145482868Y-56411107D01*
X145495480Y-56432150D01*
X145505970Y-56454329D01*
X145514235Y-56477428D01*
X145520196Y-56501227D01*
X145523796Y-56525495D01*
X145525000Y-56549999D01*
X145525000Y-57450001D01*
X145523796Y-57474505D01*
X145520196Y-57498773D01*
X145514235Y-57522572D01*
X145505970Y-57545671D01*
X145495480Y-57567850D01*
X145482868Y-57588893D01*
X145468253Y-57608599D01*
X145451777Y-57626777D01*
X145433599Y-57643253D01*
X145413893Y-57657868D01*
X145392850Y-57670480D01*
X145370671Y-57680970D01*
X145347572Y-57689235D01*
X145323773Y-57695196D01*
X145299505Y-57698796D01*
X145275001Y-57700000D01*
X144624999Y-57700000D01*
X144600495Y-57698796D01*
X144576227Y-57695196D01*
X144552428Y-57689235D01*
X144529329Y-57680970D01*
X144507150Y-57670480D01*
X144486107Y-57657868D01*
X144466401Y-57643253D01*
X144448223Y-57626777D01*
X144431747Y-57608599D01*
X144417132Y-57588893D01*
X144404520Y-57567850D01*
X144394030Y-57545671D01*
X144385765Y-57522572D01*
X144379804Y-57498773D01*
X144376204Y-57474505D01*
X144375000Y-57450001D01*
X144375000Y-56549999D01*
X144376204Y-56525495D01*
X144379804Y-56501227D01*
X144385765Y-56477428D01*
X144394030Y-56454329D01*
X144404520Y-56432150D01*
X144417132Y-56411107D01*
X144431747Y-56391401D01*
X144448223Y-56373223D01*
X144466401Y-56356747D01*
X144486107Y-56342132D01*
X144507150Y-56329520D01*
X144529329Y-56319030D01*
X144552428Y-56310765D01*
X144576227Y-56304804D01*
X144600495Y-56301204D01*
X144624999Y-56300000D01*
X145275001Y-56300000D01*
X145299505Y-56301204D01*
X145299505Y-56301204D01*
G37*
D13*
%TD*%
%TO.P,C5,1*%
%TO.N,/GND*%
X144950000Y-57000000D03*
D12*
%TO.N,Net-(C4-Pad2)*%
%TO.C,C4*%
G36*
X140299505Y-56301204D02*
X140323773Y-56304804D01*
X140347572Y-56310765D01*
X140370671Y-56319030D01*
X140392850Y-56329520D01*
X140413893Y-56342132D01*
X140433599Y-56356747D01*
X140451777Y-56373223D01*
X140468253Y-56391401D01*
X140482868Y-56411107D01*
X140495480Y-56432150D01*
X140505970Y-56454329D01*
X140514235Y-56477428D01*
X140520196Y-56501227D01*
X140523796Y-56525495D01*
X140525000Y-56549999D01*
X140525000Y-57450001D01*
X140523796Y-57474505D01*
X140520196Y-57498773D01*
X140514235Y-57522572D01*
X140505970Y-57545671D01*
X140495480Y-57567850D01*
X140482868Y-57588893D01*
X140468253Y-57608599D01*
X140451777Y-57626777D01*
X140433599Y-57643253D01*
X140413893Y-57657868D01*
X140392850Y-57670480D01*
X140370671Y-57680970D01*
X140347572Y-57689235D01*
X140323773Y-57695196D01*
X140299505Y-57698796D01*
X140275001Y-57700000D01*
X139624999Y-57700000D01*
X139600495Y-57698796D01*
X139576227Y-57695196D01*
X139552428Y-57689235D01*
X139529329Y-57680970D01*
X139507150Y-57670480D01*
X139486107Y-57657868D01*
X139466401Y-57643253D01*
X139448223Y-57626777D01*
X139431747Y-57608599D01*
X139417132Y-57588893D01*
X139404520Y-57567850D01*
X139394030Y-57545671D01*
X139385765Y-57522572D01*
X139379804Y-57498773D01*
X139376204Y-57474505D01*
X139375000Y-57450001D01*
X139375000Y-56549999D01*
X139376204Y-56525495D01*
X139379804Y-56501227D01*
X139385765Y-56477428D01*
X139394030Y-56454329D01*
X139404520Y-56432150D01*
X139417132Y-56411107D01*
X139431747Y-56391401D01*
X139448223Y-56373223D01*
X139466401Y-56356747D01*
X139486107Y-56342132D01*
X139507150Y-56329520D01*
X139529329Y-56319030D01*
X139552428Y-56310765D01*
X139576227Y-56304804D01*
X139600495Y-56301204D01*
X139624999Y-56300000D01*
X140275001Y-56300000D01*
X140299505Y-56301204D01*
X140299505Y-56301204D01*
G37*
D13*
%TD*%
%TO.P,C4,2*%
%TO.N,Net-(C4-Pad2)*%
X139950000Y-57000000D03*
D12*
%TO.N,/GND*%
%TO.C,C4*%
G36*
X142349505Y-56301204D02*
X142373773Y-56304804D01*
X142397572Y-56310765D01*
X142420671Y-56319030D01*
X142442850Y-56329520D01*
X142463893Y-56342132D01*
X142483599Y-56356747D01*
X142501777Y-56373223D01*
X142518253Y-56391401D01*
X142532868Y-56411107D01*
X142545480Y-56432150D01*
X142555970Y-56454329D01*
X142564235Y-56477428D01*
X142570196Y-56501227D01*
X142573796Y-56525495D01*
X142575000Y-56549999D01*
X142575000Y-57450001D01*
X142573796Y-57474505D01*
X142570196Y-57498773D01*
X142564235Y-57522572D01*
X142555970Y-57545671D01*
X142545480Y-57567850D01*
X142532868Y-57588893D01*
X142518253Y-57608599D01*
X142501777Y-57626777D01*
X142483599Y-57643253D01*
X142463893Y-57657868D01*
X142442850Y-57670480D01*
X142420671Y-57680970D01*
X142397572Y-57689235D01*
X142373773Y-57695196D01*
X142349505Y-57698796D01*
X142325001Y-57700000D01*
X141674999Y-57700000D01*
X141650495Y-57698796D01*
X141626227Y-57695196D01*
X141602428Y-57689235D01*
X141579329Y-57680970D01*
X141557150Y-57670480D01*
X141536107Y-57657868D01*
X141516401Y-57643253D01*
X141498223Y-57626777D01*
X141481747Y-57608599D01*
X141467132Y-57588893D01*
X141454520Y-57567850D01*
X141444030Y-57545671D01*
X141435765Y-57522572D01*
X141429804Y-57498773D01*
X141426204Y-57474505D01*
X141425000Y-57450001D01*
X141425000Y-56549999D01*
X141426204Y-56525495D01*
X141429804Y-56501227D01*
X141435765Y-56477428D01*
X141444030Y-56454329D01*
X141454520Y-56432150D01*
X141467132Y-56411107D01*
X141481747Y-56391401D01*
X141498223Y-56373223D01*
X141516401Y-56356747D01*
X141536107Y-56342132D01*
X141557150Y-56329520D01*
X141579329Y-56319030D01*
X141602428Y-56310765D01*
X141626227Y-56304804D01*
X141650495Y-56301204D01*
X141674999Y-56300000D01*
X142325001Y-56300000D01*
X142349505Y-56301204D01*
X142349505Y-56301204D01*
G37*
D13*
%TD*%
%TO.P,C4,1*%
%TO.N,/GND*%
X142000000Y-57000000D03*
D12*
%TO.N,/GND*%
%TO.C,R14*%
G36*
X141510779Y-51726144D02*
X141533834Y-51729563D01*
X141556443Y-51735227D01*
X141578387Y-51743079D01*
X141599457Y-51753044D01*
X141619448Y-51765026D01*
X141638168Y-51778910D01*
X141655438Y-51794562D01*
X141671090Y-51811832D01*
X141684974Y-51830552D01*
X141696956Y-51850543D01*
X141706921Y-51871613D01*
X141714773Y-51893557D01*
X141720437Y-51916166D01*
X141723856Y-51939221D01*
X141725000Y-51962500D01*
X141725000Y-52437500D01*
X141723856Y-52460779D01*
X141720437Y-52483834D01*
X141714773Y-52506443D01*
X141706921Y-52528387D01*
X141696956Y-52549457D01*
X141684974Y-52569448D01*
X141671090Y-52588168D01*
X141655438Y-52605438D01*
X141638168Y-52621090D01*
X141619448Y-52634974D01*
X141599457Y-52646956D01*
X141578387Y-52656921D01*
X141556443Y-52664773D01*
X141533834Y-52670437D01*
X141510779Y-52673856D01*
X141487500Y-52675000D01*
X140912500Y-52675000D01*
X140889221Y-52673856D01*
X140866166Y-52670437D01*
X140843557Y-52664773D01*
X140821613Y-52656921D01*
X140800543Y-52646956D01*
X140780552Y-52634974D01*
X140761832Y-52621090D01*
X140744562Y-52605438D01*
X140728910Y-52588168D01*
X140715026Y-52569448D01*
X140703044Y-52549457D01*
X140693079Y-52528387D01*
X140685227Y-52506443D01*
X140679563Y-52483834D01*
X140676144Y-52460779D01*
X140675000Y-52437500D01*
X140675000Y-51962500D01*
X140676144Y-51939221D01*
X140679563Y-51916166D01*
X140685227Y-51893557D01*
X140693079Y-51871613D01*
X140703044Y-51850543D01*
X140715026Y-51830552D01*
X140728910Y-51811832D01*
X140744562Y-51794562D01*
X140761832Y-51778910D01*
X140780552Y-51765026D01*
X140800543Y-51753044D01*
X140821613Y-51743079D01*
X140843557Y-51735227D01*
X140866166Y-51729563D01*
X140889221Y-51726144D01*
X140912500Y-51725000D01*
X141487500Y-51725000D01*
X141510779Y-51726144D01*
X141510779Y-51726144D01*
G37*
D14*
%TD*%
%TO.P,R14,2*%
%TO.N,/GND*%
X141200000Y-52200000D03*
D12*
%TO.N,Net-(R13-Pad2)*%
%TO.C,R14*%
G36*
X143260779Y-51726144D02*
X143283834Y-51729563D01*
X143306443Y-51735227D01*
X143328387Y-51743079D01*
X143349457Y-51753044D01*
X143369448Y-51765026D01*
X143388168Y-51778910D01*
X143405438Y-51794562D01*
X143421090Y-51811832D01*
X143434974Y-51830552D01*
X143446956Y-51850543D01*
X143456921Y-51871613D01*
X143464773Y-51893557D01*
X143470437Y-51916166D01*
X143473856Y-51939221D01*
X143475000Y-51962500D01*
X143475000Y-52437500D01*
X143473856Y-52460779D01*
X143470437Y-52483834D01*
X143464773Y-52506443D01*
X143456921Y-52528387D01*
X143446956Y-52549457D01*
X143434974Y-52569448D01*
X143421090Y-52588168D01*
X143405438Y-52605438D01*
X143388168Y-52621090D01*
X143369448Y-52634974D01*
X143349457Y-52646956D01*
X143328387Y-52656921D01*
X143306443Y-52664773D01*
X143283834Y-52670437D01*
X143260779Y-52673856D01*
X143237500Y-52675000D01*
X142662500Y-52675000D01*
X142639221Y-52673856D01*
X142616166Y-52670437D01*
X142593557Y-52664773D01*
X142571613Y-52656921D01*
X142550543Y-52646956D01*
X142530552Y-52634974D01*
X142511832Y-52621090D01*
X142494562Y-52605438D01*
X142478910Y-52588168D01*
X142465026Y-52569448D01*
X142453044Y-52549457D01*
X142443079Y-52528387D01*
X142435227Y-52506443D01*
X142429563Y-52483834D01*
X142426144Y-52460779D01*
X142425000Y-52437500D01*
X142425000Y-51962500D01*
X142426144Y-51939221D01*
X142429563Y-51916166D01*
X142435227Y-51893557D01*
X142443079Y-51871613D01*
X142453044Y-51850543D01*
X142465026Y-51830552D01*
X142478910Y-51811832D01*
X142494562Y-51794562D01*
X142511832Y-51778910D01*
X142530552Y-51765026D01*
X142550543Y-51753044D01*
X142571613Y-51743079D01*
X142593557Y-51735227D01*
X142616166Y-51729563D01*
X142639221Y-51726144D01*
X142662500Y-51725000D01*
X143237500Y-51725000D01*
X143260779Y-51726144D01*
X143260779Y-51726144D01*
G37*
D14*
%TD*%
%TO.P,R14,1*%
%TO.N,Net-(R13-Pad2)*%
X142950000Y-52200000D03*
D12*
%TO.N,Net-(R13-Pad2)*%
%TO.C,R13*%
G36*
X144910778Y-51726144D02*
X144933833Y-51729563D01*
X144956442Y-51735227D01*
X144978386Y-51743079D01*
X144999456Y-51753044D01*
X145019447Y-51765026D01*
X145038167Y-51778910D01*
X145055437Y-51794562D01*
X145071089Y-51811832D01*
X145084973Y-51830552D01*
X145096955Y-51850543D01*
X145106920Y-51871613D01*
X145114772Y-51893557D01*
X145120436Y-51916166D01*
X145123855Y-51939221D01*
X145124999Y-51962500D01*
X145124999Y-52437500D01*
X145123855Y-52460779D01*
X145120436Y-52483834D01*
X145114772Y-52506443D01*
X145106920Y-52528387D01*
X145096955Y-52549457D01*
X145084973Y-52569448D01*
X145071089Y-52588168D01*
X145055437Y-52605438D01*
X145038167Y-52621090D01*
X145019447Y-52634974D01*
X144999456Y-52646956D01*
X144978386Y-52656921D01*
X144956442Y-52664773D01*
X144933833Y-52670437D01*
X144910778Y-52673856D01*
X144887499Y-52675000D01*
X144312499Y-52675000D01*
X144289220Y-52673856D01*
X144266165Y-52670437D01*
X144243556Y-52664773D01*
X144221612Y-52656921D01*
X144200542Y-52646956D01*
X144180551Y-52634974D01*
X144161831Y-52621090D01*
X144144561Y-52605438D01*
X144128909Y-52588168D01*
X144115025Y-52569448D01*
X144103043Y-52549457D01*
X144093078Y-52528387D01*
X144085226Y-52506443D01*
X144079562Y-52483834D01*
X144076143Y-52460779D01*
X144074999Y-52437500D01*
X144074999Y-51962500D01*
X144076143Y-51939221D01*
X144079562Y-51916166D01*
X144085226Y-51893557D01*
X144093078Y-51871613D01*
X144103043Y-51850543D01*
X144115025Y-51830552D01*
X144128909Y-51811832D01*
X144144561Y-51794562D01*
X144161831Y-51778910D01*
X144180551Y-51765026D01*
X144200542Y-51753044D01*
X144221612Y-51743079D01*
X144243556Y-51735227D01*
X144266165Y-51729563D01*
X144289220Y-51726144D01*
X144312499Y-51725000D01*
X144887499Y-51725000D01*
X144910778Y-51726144D01*
X144910778Y-51726144D01*
G37*
D14*
%TD*%
%TO.P,R13,2*%
%TO.N,Net-(R13-Pad2)*%
X144599999Y-52200000D03*
D12*
%TO.N,/VCC*%
%TO.C,R13*%
G36*
X146660778Y-51726144D02*
X146683833Y-51729563D01*
X146706442Y-51735227D01*
X146728386Y-51743079D01*
X146749456Y-51753044D01*
X146769447Y-51765026D01*
X146788167Y-51778910D01*
X146805437Y-51794562D01*
X146821089Y-51811832D01*
X146834973Y-51830552D01*
X146846955Y-51850543D01*
X146856920Y-51871613D01*
X146864772Y-51893557D01*
X146870436Y-51916166D01*
X146873855Y-51939221D01*
X146874999Y-51962500D01*
X146874999Y-52437500D01*
X146873855Y-52460779D01*
X146870436Y-52483834D01*
X146864772Y-52506443D01*
X146856920Y-52528387D01*
X146846955Y-52549457D01*
X146834973Y-52569448D01*
X146821089Y-52588168D01*
X146805437Y-52605438D01*
X146788167Y-52621090D01*
X146769447Y-52634974D01*
X146749456Y-52646956D01*
X146728386Y-52656921D01*
X146706442Y-52664773D01*
X146683833Y-52670437D01*
X146660778Y-52673856D01*
X146637499Y-52675000D01*
X146062499Y-52675000D01*
X146039220Y-52673856D01*
X146016165Y-52670437D01*
X145993556Y-52664773D01*
X145971612Y-52656921D01*
X145950542Y-52646956D01*
X145930551Y-52634974D01*
X145911831Y-52621090D01*
X145894561Y-52605438D01*
X145878909Y-52588168D01*
X145865025Y-52569448D01*
X145853043Y-52549457D01*
X145843078Y-52528387D01*
X145835226Y-52506443D01*
X145829562Y-52483834D01*
X145826143Y-52460779D01*
X145824999Y-52437500D01*
X145824999Y-51962500D01*
X145826143Y-51939221D01*
X145829562Y-51916166D01*
X145835226Y-51893557D01*
X145843078Y-51871613D01*
X145853043Y-51850543D01*
X145865025Y-51830552D01*
X145878909Y-51811832D01*
X145894561Y-51794562D01*
X145911831Y-51778910D01*
X145930551Y-51765026D01*
X145950542Y-51753044D01*
X145971612Y-51743079D01*
X145993556Y-51735227D01*
X146016165Y-51729563D01*
X146039220Y-51726144D01*
X146062499Y-51725000D01*
X146637499Y-51725000D01*
X146660778Y-51726144D01*
X146660778Y-51726144D01*
G37*
D14*
%TD*%
%TO.P,R13,1*%
%TO.N,/VCC*%
X146349999Y-52200000D03*
D15*
%TO.P,BT1,2*%
%TO.N,/GND*%
X144750000Y-60500000D03*
D12*
%TD*%
%TO.N,/VCC*%
%TO.C,BT1*%
G36*
X143719603Y-59850963D02*
X143739018Y-59853843D01*
X143758057Y-59858612D01*
X143776537Y-59865224D01*
X143794279Y-59873616D01*
X143811114Y-59883706D01*
X143826879Y-59895398D01*
X143841421Y-59908579D01*
X143854602Y-59923121D01*
X143866294Y-59938886D01*
X143876384Y-59955721D01*
X143884776Y-59973463D01*
X143891388Y-59991943D01*
X143896157Y-60010982D01*
X143899037Y-60030397D01*
X143900000Y-60050000D01*
X143900000Y-60950000D01*
X143899037Y-60969603D01*
X143896157Y-60989018D01*
X143891388Y-61008057D01*
X143884776Y-61026537D01*
X143876384Y-61044279D01*
X143866294Y-61061114D01*
X143854602Y-61076879D01*
X143841421Y-61091421D01*
X143826879Y-61104602D01*
X143811114Y-61116294D01*
X143794279Y-61126384D01*
X143776537Y-61134776D01*
X143758057Y-61141388D01*
X143739018Y-61146157D01*
X143719603Y-61149037D01*
X143700000Y-61150000D01*
X143300000Y-61150000D01*
X143280397Y-61149037D01*
X143260982Y-61146157D01*
X143241943Y-61141388D01*
X143223463Y-61134776D01*
X143205721Y-61126384D01*
X143188886Y-61116294D01*
X143173121Y-61104602D01*
X143158579Y-61091421D01*
X143145398Y-61076879D01*
X143133706Y-61061114D01*
X143123616Y-61044279D01*
X143115224Y-61026537D01*
X143108612Y-61008057D01*
X143103843Y-60989018D01*
X143100963Y-60969603D01*
X143100000Y-60950000D01*
X143100000Y-60050000D01*
X143100963Y-60030397D01*
X143103843Y-60010982D01*
X143108612Y-59991943D01*
X143115224Y-59973463D01*
X143123616Y-59955721D01*
X143133706Y-59938886D01*
X143145398Y-59923121D01*
X143158579Y-59908579D01*
X143173121Y-59895398D01*
X143188886Y-59883706D01*
X143205721Y-59873616D01*
X143223463Y-59865224D01*
X143241943Y-59858612D01*
X143260982Y-59853843D01*
X143280397Y-59850963D01*
X143300000Y-59850000D01*
X143700000Y-59850000D01*
X143719603Y-59850963D01*
X143719603Y-59850963D01*
G37*
D16*
%TO.P,BT1,1*%
%TO.N,/VCC*%
X143500000Y-60500000D03*
%TD*%
D10*
%TO.P,J5,16*%
%TO.N,/PD3*%
X102000000Y-92100000D03*
%TO.P,J5,15*%
%TO.N,/PD2*%
X102000000Y-89560000D03*
%TO.P,J5,14*%
%TO.N,/PE4*%
X102000000Y-87020000D03*
%TO.P,J5,13*%
%TO.N,/GND*%
X102000000Y-84480000D03*
%TO.P,J5,12*%
X102000000Y-81940000D03*
%TO.P,J5,11*%
X102000000Y-79400000D03*
%TO.P,J5,10*%
X102000000Y-76860000D03*
%TO.P,J5,9*%
%TO.N,/D1*%
X102000000Y-74320000D03*
%TO.P,J5,8*%
%TO.N,/D0*%
X102000000Y-71780000D03*
%TO.P,J5,7*%
%TO.N,/VCC*%
X102000000Y-69240000D03*
%TO.P,J5,6*%
X102000000Y-66700000D03*
%TO.P,J5,5*%
X102000000Y-64160000D03*
%TO.P,J5,4*%
X102000000Y-61620000D03*
%TO.P,J5,3*%
%TO.N,/PD5*%
X102000000Y-59080000D03*
%TO.P,J5,2*%
%TO.N,/PD6*%
X102000000Y-56540000D03*
D11*
%TO.P,J5,1*%
%TO.N,/GND*%
X102000000Y-54000000D03*
%TD*%
D17*
%TO.N,/ADC11*%
X134222266Y-71229425D03*
%TO.N,/ADC2*%
X138000000Y-53500000D03*
X130500000Y-54000000D03*
X114250000Y-75500000D03*
%TO.N,/ADC3*%
X132250000Y-54000000D03*
X112750000Y-75500000D03*
X139750000Y-61500000D03*
X146000000Y-63000000D03*
%TO.N,/RESET*%
X112000000Y-80400000D03*
%TO.N,/SDA*%
X113600000Y-79800000D03*
%TO.N,/SCL*%
X114531458Y-79068542D03*
%TO.N,/SWD*%
X120034000Y-71780000D03*
%TO.N,/ADC6*%
X134500000Y-74750000D03*
%TO.N,/SWC*%
X123400000Y-74400000D03*
%TO.N,/PB0*%
X123000000Y-70500000D03*
X130299998Y-79000000D03*
%TO.N,/VCC*%
X144500000Y-88000000D03*
X148971000Y-59436000D03*
X145800000Y-50800000D03*
X122200000Y-90200000D03*
X111500000Y-74000000D03*
%TO.N,/PE4*%
X119000000Y-87800000D03*
%TO.N,Net-(R16-Pad2)*%
X149000000Y-53500000D03*
%TO.N,/GND*%
X139000000Y-91500000D03*
X148941452Y-61184452D03*
X143500000Y-54500000D03*
X123400000Y-89000000D03*
X139000000Y-88500000D03*
X141000000Y-86500000D03*
%TO.N,Net-(R13-Pad2)*%
X143800000Y-53000000D03*
%TO.N,/PD7*%
X117500000Y-70500000D03*
X127527000Y-82067000D03*
%TO.N,/PD6*%
X127527004Y-83337000D03*
%TO.N,/PD5*%
X127145996Y-84353000D03*
%TO.N,/PB7*%
X141000000Y-66400000D03*
%TO.N,/PB6*%
X142200000Y-68200000D03*
%TO.N,/PE5*%
X126638000Y-87362010D03*
%TD*%
D18*
%TO.N,/ADC11*%
X152449425Y-71229425D02*
X153000000Y-71780000D01*
X134222266Y-71229425D02*
X152449425Y-71229425D01*
D19*
%TO.N,/ADC2*%
X138000000Y-54999999D02*
X137999999Y-55000000D01*
X138000000Y-53500000D02*
X138000000Y-54999999D01*
D18*
X121863588Y-54000000D02*
X115250000Y-60613588D01*
X130500000Y-54000000D02*
X121863588Y-54000000D01*
X115250000Y-60613588D02*
X115250000Y-74500000D01*
X115250000Y-74500000D02*
X114250000Y-75500000D01*
%TO.N,/ADC3*%
X132250000Y-54000000D02*
X130750000Y-52500000D01*
X122373625Y-52500000D02*
X114000000Y-60873625D01*
X130750000Y-52500000D02*
X122373625Y-52500000D01*
X114000000Y-60873625D02*
X114000000Y-74250000D01*
X114000000Y-74250000D02*
X112750000Y-75500000D01*
X139750000Y-61500000D02*
X141000000Y-62750000D01*
X141000000Y-62750000D02*
X145750000Y-62750000D01*
X145750000Y-62750000D02*
X146000000Y-63000000D01*
%TO.N,/RESET*%
X112000000Y-92200000D02*
X114200000Y-94400000D01*
X112000000Y-80400000D02*
X112000000Y-92200000D01*
X154350001Y-65510001D02*
X153000000Y-64160000D01*
X114200000Y-94400000D02*
X153000000Y-94400000D01*
X154350001Y-93049999D02*
X154350001Y-65510001D01*
X153000000Y-94400000D02*
X154350001Y-93049999D01*
%TO.N,/SDA*%
X113600000Y-79800000D02*
X113600000Y-91600000D01*
X113600000Y-91600000D02*
X115500000Y-93500000D01*
X151600000Y-93500000D02*
X153000000Y-92100000D01*
X115500000Y-93500000D02*
X151600000Y-93500000D01*
%TO.N,/SCL*%
X116000000Y-92500000D02*
X150675998Y-92500000D01*
X150675998Y-92500000D02*
X153000000Y-90175998D01*
X114531458Y-91031458D02*
X116000000Y-92500000D01*
X153000000Y-90175998D02*
X153000000Y-89560000D01*
X114531458Y-79068542D02*
X114531458Y-91031458D01*
%TO.N,/SWD*%
X122038002Y-71780000D02*
X128500000Y-78241998D01*
X120034000Y-71780000D02*
X122038002Y-71780000D01*
X128500000Y-78241998D02*
X128500000Y-78900000D01*
X131540000Y-81940000D02*
X153000000Y-81940000D01*
X128500000Y-78900000D02*
X131540000Y-81940000D01*
%TO.N,/ADC6*%
X134930000Y-74320000D02*
X153000000Y-74320000D01*
X134500000Y-74750000D02*
X134930000Y-74320000D01*
%TO.N,/SWC*%
X123400000Y-76681998D02*
X131198002Y-84480000D01*
X151797919Y-84480000D02*
X153000000Y-84480000D01*
X123400000Y-74400000D02*
X123400000Y-76681998D01*
X131198002Y-84480000D02*
X151797919Y-84480000D01*
%TO.N,/PB0*%
X130299998Y-77799998D02*
X130299998Y-78434315D01*
X123000000Y-70500000D02*
X130299998Y-77799998D01*
X130299998Y-78434315D02*
X130299998Y-79000000D01*
D19*
%TO.N,/VCC*%
X146349999Y-52200000D02*
X146349999Y-51349999D01*
X146349999Y-51349999D02*
X145800000Y-50800000D01*
D18*
%TO.N,/PE4*%
X110930001Y-78149999D02*
X114932684Y-78149999D01*
X102000000Y-87080000D02*
X110930001Y-78149999D01*
X118434315Y-87800000D02*
X116700000Y-86065685D01*
X119000000Y-87800000D02*
X118434315Y-87800000D01*
X116700000Y-86065685D02*
X116665685Y-86065685D01*
X116665685Y-86065685D02*
X115800000Y-85200000D01*
X115800000Y-79017315D02*
X114932684Y-78149999D01*
X115800000Y-85200000D02*
X115800000Y-79017315D01*
D19*
%TO.N,Net-(R16-Pad2)*%
X149000000Y-54999999D02*
X149000001Y-55000000D01*
X149000000Y-53500000D02*
X149000000Y-54999999D01*
%TO.N,/GND*%
X142000000Y-56000000D02*
X143500000Y-54500000D01*
X142000000Y-57000000D02*
X142000000Y-56000000D01*
X144950000Y-55950000D02*
X143500000Y-54500000D01*
X144950000Y-57000000D02*
X144950000Y-55950000D01*
X141200000Y-52200000D02*
X143500000Y-54500000D01*
%TO.N,Net-(R13-Pad2)*%
X144599999Y-52200001D02*
X143800000Y-53000000D01*
X144599999Y-52200000D02*
X144599999Y-52200001D01*
X143000000Y-52200000D02*
X143800000Y-53000000D01*
X142950000Y-52200000D02*
X143000000Y-52200000D01*
D18*
%TO.N,/PD7*%
X127127001Y-81667001D02*
X127527000Y-82067000D01*
X117500000Y-70500000D02*
X117500000Y-72040000D01*
X117500000Y-72040000D02*
X127127001Y-81667001D01*
%TO.N,/PD6*%
X107200000Y-71640000D02*
X111960000Y-76400000D01*
X120590004Y-76400000D02*
X127127005Y-82937001D01*
X127127005Y-82937001D02*
X127527004Y-83337000D01*
X111960000Y-76400000D02*
X120590004Y-76400000D01*
X107200000Y-61800000D02*
X107200000Y-71640000D01*
X102000000Y-56600000D02*
X107200000Y-61800000D01*
%TO.N,/PD5*%
X126745997Y-83953001D02*
X127145996Y-84353000D01*
X111252000Y-77216000D02*
X120008996Y-77216000D01*
X120008996Y-77216000D02*
X126745997Y-83953001D01*
X104775000Y-70739000D02*
X111252000Y-77216000D01*
X104775000Y-61915000D02*
X104775000Y-70739000D01*
X102000000Y-59140000D02*
X104775000Y-61915000D01*
%TO.N,/PB7*%
X150750000Y-58790000D02*
X153000000Y-56540000D01*
X150750000Y-60705000D02*
X150750000Y-58790000D01*
X145055000Y-66400000D02*
X150750000Y-60705000D01*
X142200000Y-66400000D02*
X145055000Y-66400000D01*
X142200000Y-66400000D02*
X141000000Y-66400000D01*
%TO.N,/PB6*%
X144244965Y-68200000D02*
X152150001Y-60294964D01*
X152150001Y-60294964D02*
X152150001Y-59929999D01*
X142200000Y-68200000D02*
X144244965Y-68200000D01*
X152150001Y-59929999D02*
X153000000Y-59080000D01*
%TO.N,/PE5*%
X152620000Y-87400000D02*
X153000000Y-87020000D01*
X128500010Y-85500000D02*
X127037999Y-86962011D01*
X127037999Y-86962011D02*
X126638000Y-87362010D01*
X151480000Y-85500000D02*
X128500010Y-85500000D01*
X153000000Y-87020000D02*
X151480000Y-85500000D01*
D19*
%TO.N,Net-(C4-Pad2)*%
X139950000Y-55099999D02*
X140049999Y-55000000D01*
X139950000Y-57000000D02*
X139950000Y-55099999D01*
%TO.N,Net-(C5-Pad2)*%
X147000000Y-55049999D02*
X146950001Y-55000000D01*
X147000000Y-57000000D02*
X147000000Y-55049999D01*
%TD*%
M02*
