M48
;DRILL file {KiCad (5.0.2)-1} date 31.7.2020 10:54:57
;FORMAT={-:-/ absolute / metric / decimal}
FMAT,2
METRIC,TZ
T1C0.400
T2C1.000
T3C2.100
%
G90
G05
T1
X109.Y-99.
X111.Y-75.5
X118.Y-58.
X120.5Y-86.2
X126.5Y-67.5
X127.4Y-73.9
X129.5Y-86.5
X131.5Y-67.5
X131.5Y-75.
X134.Y-67.5
X134.Y-73.
X136.2Y-68.4
X138.5Y-85.5
X143.Y-65.5
X145.Y-58.
X148.5Y-83.
X151.5Y-97.5
X154.5Y-94.5
T2
X127.7Y-60.5
X130.24Y-60.5
X132.78Y-60.5
X135.32Y-60.5
X157.Y-59.
X157.Y-61.54
X157.Y-64.08
X106.Y-92.02
X106.Y-94.56
X106.Y-97.1
X106.Y-59.
X106.Y-61.54
X106.Y-64.08
X157.Y-92.02
X157.Y-94.56
X157.Y-97.1
T3
X143.3Y-84.5
X119.7Y-84.5
T0
M30
