%TF.GenerationSoftware,KiCad,Pcbnew,(5.0.2)-1*%
%TF.CreationDate,2020-07-31T10:54:53+02:00*%
%TF.ProjectId,Multimeter_Watch_DisplayBoard_V1,4d756c74-696d-4657-9465-725f57617463,rev?*%
%TF.SameCoordinates,Original*%
%TF.FileFunction,Soldermask,Top*%
%TF.FilePolarity,Negative*%
%FSLAX46Y46*%
G04 Gerber Fmt 4.6, Leading zero omitted, Abs format (unit mm)*
G04 Created by KiCad (PCBNEW (5.0.2)-1) date 31.7.2020 10:54:53*
%MOMM*%
%LPD*%
G01*
G04 APERTURE LIST*
%ADD10C,0.100000*%
G04 APERTURE END LIST*
D10*
G36*
X135500000Y-100700000D02*
X133900000Y-100700000D01*
X133900000Y-99300000D01*
X135500000Y-99300000D01*
X135500000Y-100700000D01*
X135500000Y-100700000D01*
G37*
G36*
X129200000Y-100700000D02*
X127600000Y-100700000D01*
X127600000Y-99300000D01*
X129200000Y-99300000D01*
X129200000Y-100700000D01*
X129200000Y-100700000D01*
G37*
G36*
X149700000Y-99100000D02*
X148300000Y-99100000D01*
X148300000Y-97500000D01*
X149700000Y-97500000D01*
X149700000Y-99100000D01*
X149700000Y-99100000D01*
G37*
G36*
X146700000Y-99100000D02*
X145300000Y-99100000D01*
X145300000Y-97500000D01*
X146700000Y-97500000D01*
X146700000Y-99100000D01*
X146700000Y-99100000D01*
G37*
G36*
X141200000Y-99100000D02*
X139800000Y-99100000D01*
X139800000Y-97500000D01*
X141200000Y-97500000D01*
X141200000Y-99100000D01*
X141200000Y-99100000D01*
G37*
G36*
X138200000Y-99100000D02*
X136800000Y-99100000D01*
X136800000Y-97500000D01*
X138200000Y-97500000D01*
X138200000Y-99100000D01*
X138200000Y-99100000D01*
G37*
G36*
X126200000Y-99100000D02*
X124800000Y-99100000D01*
X124800000Y-97500000D01*
X126200000Y-97500000D01*
X126200000Y-99100000D01*
X126200000Y-99100000D01*
G37*
G36*
X123200000Y-99100000D02*
X121800000Y-99100000D01*
X121800000Y-97500000D01*
X123200000Y-97500000D01*
X123200000Y-99100000D01*
X123200000Y-99100000D01*
G37*
G36*
X117700000Y-99100000D02*
X116300000Y-99100000D01*
X116300000Y-97500000D01*
X117700000Y-97500000D01*
X117700000Y-99100000D01*
X117700000Y-99100000D01*
G37*
G36*
X114700000Y-99100000D02*
X113300000Y-99100000D01*
X113300000Y-97500000D01*
X114700000Y-97500000D01*
X114700000Y-99100000D01*
X114700000Y-99100000D01*
G37*
G36*
X157900000Y-98000000D02*
X156100000Y-98000000D01*
X156100000Y-96200000D01*
X157900000Y-96200000D01*
X157900000Y-98000000D01*
X157900000Y-98000000D01*
G37*
G36*
X106900000Y-98000000D02*
X105100000Y-98000000D01*
X105100000Y-96200000D01*
X106900000Y-96200000D01*
X106900000Y-98000000D01*
X106900000Y-98000000D01*
G37*
G36*
X135500000Y-97700000D02*
X133900000Y-97700000D01*
X133900000Y-96300000D01*
X135500000Y-96300000D01*
X135500000Y-97700000D01*
X135500000Y-97700000D01*
G37*
G36*
X129200000Y-97700000D02*
X127600000Y-97700000D01*
X127600000Y-96300000D01*
X129200000Y-96300000D01*
X129200000Y-97700000D01*
X129200000Y-97700000D01*
G37*
G36*
X106176432Y-93673022D02*
X106346081Y-93724485D01*
X106502433Y-93808056D01*
X106639475Y-93920525D01*
X106751944Y-94057567D01*
X106835515Y-94213919D01*
X106886978Y-94383568D01*
X106904354Y-94560000D01*
X106886978Y-94736432D01*
X106835515Y-94906081D01*
X106751944Y-95062433D01*
X106639475Y-95199475D01*
X106502433Y-95311944D01*
X106346081Y-95395515D01*
X106176432Y-95446978D01*
X106044211Y-95460000D01*
X105955789Y-95460000D01*
X105823568Y-95446978D01*
X105653919Y-95395515D01*
X105497567Y-95311944D01*
X105360525Y-95199475D01*
X105248056Y-95062433D01*
X105164485Y-94906081D01*
X105113022Y-94736432D01*
X105095646Y-94560000D01*
X105113022Y-94383568D01*
X105164485Y-94213919D01*
X105248056Y-94057567D01*
X105360525Y-93920525D01*
X105497567Y-93808056D01*
X105653919Y-93724485D01*
X105823568Y-93673022D01*
X105955789Y-93660000D01*
X106044211Y-93660000D01*
X106176432Y-93673022D01*
X106176432Y-93673022D01*
G37*
G36*
X157176432Y-93673022D02*
X157346081Y-93724485D01*
X157502433Y-93808056D01*
X157639475Y-93920525D01*
X157751944Y-94057567D01*
X157835515Y-94213919D01*
X157886978Y-94383568D01*
X157904354Y-94560000D01*
X157886978Y-94736432D01*
X157835515Y-94906081D01*
X157751944Y-95062433D01*
X157639475Y-95199475D01*
X157502433Y-95311944D01*
X157346081Y-95395515D01*
X157176432Y-95446978D01*
X157044211Y-95460000D01*
X156955789Y-95460000D01*
X156823568Y-95446978D01*
X156653919Y-95395515D01*
X156497567Y-95311944D01*
X156360525Y-95199475D01*
X156248056Y-95062433D01*
X156164485Y-94906081D01*
X156113022Y-94736432D01*
X156095646Y-94560000D01*
X156113022Y-94383568D01*
X156164485Y-94213919D01*
X156248056Y-94057567D01*
X156360525Y-93920525D01*
X156497567Y-93808056D01*
X156653919Y-93724485D01*
X156823568Y-93673022D01*
X156955789Y-93660000D01*
X157044211Y-93660000D01*
X157176432Y-93673022D01*
X157176432Y-93673022D01*
G37*
G36*
X135500000Y-94200000D02*
X133900000Y-94200000D01*
X133900000Y-92800000D01*
X135500000Y-92800000D01*
X135500000Y-94200000D01*
X135500000Y-94200000D01*
G37*
G36*
X129200000Y-94200000D02*
X127600000Y-94200000D01*
X127600000Y-92800000D01*
X129200000Y-92800000D01*
X129200000Y-94200000D01*
X129200000Y-94200000D01*
G37*
G36*
X106176432Y-91133022D02*
X106346081Y-91184485D01*
X106502433Y-91268056D01*
X106639475Y-91380525D01*
X106751944Y-91517567D01*
X106835515Y-91673919D01*
X106886978Y-91843568D01*
X106904354Y-92020000D01*
X106886978Y-92196432D01*
X106835515Y-92366081D01*
X106751944Y-92522433D01*
X106639475Y-92659475D01*
X106502433Y-92771944D01*
X106346081Y-92855515D01*
X106176432Y-92906978D01*
X106044211Y-92920000D01*
X105955789Y-92920000D01*
X105823568Y-92906978D01*
X105653919Y-92855515D01*
X105497567Y-92771944D01*
X105360525Y-92659475D01*
X105248056Y-92522433D01*
X105164485Y-92366081D01*
X105113022Y-92196432D01*
X105095646Y-92020000D01*
X105113022Y-91843568D01*
X105164485Y-91673919D01*
X105248056Y-91517567D01*
X105360525Y-91380525D01*
X105497567Y-91268056D01*
X105653919Y-91184485D01*
X105823568Y-91133022D01*
X105955789Y-91120000D01*
X106044211Y-91120000D01*
X106176432Y-91133022D01*
X106176432Y-91133022D01*
G37*
G36*
X157176432Y-91133022D02*
X157346081Y-91184485D01*
X157502433Y-91268056D01*
X157639475Y-91380525D01*
X157751944Y-91517567D01*
X157835515Y-91673919D01*
X157886978Y-91843568D01*
X157904354Y-92020000D01*
X157886978Y-92196432D01*
X157835515Y-92366081D01*
X157751944Y-92522433D01*
X157639475Y-92659475D01*
X157502433Y-92771944D01*
X157346081Y-92855515D01*
X157176432Y-92906978D01*
X157044211Y-92920000D01*
X156955789Y-92920000D01*
X156823568Y-92906978D01*
X156653919Y-92855515D01*
X156497567Y-92771944D01*
X156360525Y-92659475D01*
X156248056Y-92522433D01*
X156164485Y-92366081D01*
X156113022Y-92196432D01*
X156095646Y-92020000D01*
X156113022Y-91843568D01*
X156164485Y-91673919D01*
X156248056Y-91517567D01*
X156360525Y-91380525D01*
X156497567Y-91268056D01*
X156653919Y-91184485D01*
X156823568Y-91133022D01*
X156955789Y-91120000D01*
X157044211Y-91120000D01*
X157176432Y-91133022D01*
X157176432Y-91133022D01*
G37*
G36*
X146700000Y-92800000D02*
X145300000Y-92800000D01*
X145300000Y-91200000D01*
X146700000Y-91200000D01*
X146700000Y-92800000D01*
X146700000Y-92800000D01*
G37*
G36*
X138200000Y-92800000D02*
X136800000Y-92800000D01*
X136800000Y-91200000D01*
X138200000Y-91200000D01*
X138200000Y-92800000D01*
X138200000Y-92800000D01*
G37*
G36*
X149700000Y-92800000D02*
X148300000Y-92800000D01*
X148300000Y-91200000D01*
X149700000Y-91200000D01*
X149700000Y-92800000D01*
X149700000Y-92800000D01*
G37*
G36*
X141200000Y-92800000D02*
X139800000Y-92800000D01*
X139800000Y-91200000D01*
X141200000Y-91200000D01*
X141200000Y-92800000D01*
X141200000Y-92800000D01*
G37*
G36*
X117700000Y-92800000D02*
X116300000Y-92800000D01*
X116300000Y-91200000D01*
X117700000Y-91200000D01*
X117700000Y-92800000D01*
X117700000Y-92800000D01*
G37*
G36*
X126200000Y-92800000D02*
X124800000Y-92800000D01*
X124800000Y-91200000D01*
X126200000Y-91200000D01*
X126200000Y-92800000D01*
X126200000Y-92800000D01*
G37*
G36*
X123200000Y-92800000D02*
X121800000Y-92800000D01*
X121800000Y-91200000D01*
X123200000Y-91200000D01*
X123200000Y-92800000D01*
X123200000Y-92800000D01*
G37*
G36*
X114700000Y-92800000D02*
X113300000Y-92800000D01*
X113300000Y-91200000D01*
X114700000Y-91200000D01*
X114700000Y-92800000D01*
X114700000Y-92800000D01*
G37*
G36*
X135500000Y-91200000D02*
X133900000Y-91200000D01*
X133900000Y-89800000D01*
X135500000Y-89800000D01*
X135500000Y-91200000D01*
X135500000Y-91200000D01*
G37*
G36*
X129200000Y-91200000D02*
X127600000Y-91200000D01*
X127600000Y-89800000D01*
X129200000Y-89800000D01*
X129200000Y-91200000D01*
X129200000Y-91200000D01*
G37*
G36*
X120020857Y-83442272D02*
X120221042Y-83525191D01*
X120401213Y-83645578D01*
X120554422Y-83798787D01*
X120674809Y-83978958D01*
X120757728Y-84179143D01*
X120800000Y-84391658D01*
X120800000Y-84608342D01*
X120757728Y-84820857D01*
X120674809Y-85021042D01*
X120554422Y-85201213D01*
X120401213Y-85354422D01*
X120221042Y-85474809D01*
X120020857Y-85557728D01*
X119808342Y-85600000D01*
X119591658Y-85600000D01*
X119379143Y-85557728D01*
X119178958Y-85474809D01*
X118998787Y-85354422D01*
X118845578Y-85201213D01*
X118725191Y-85021042D01*
X118642272Y-84820857D01*
X118600000Y-84608342D01*
X118600000Y-84391658D01*
X118642272Y-84179143D01*
X118725191Y-83978958D01*
X118845578Y-83798787D01*
X118998787Y-83645578D01*
X119178958Y-83525191D01*
X119379143Y-83442272D01*
X119591658Y-83400000D01*
X119808342Y-83400000D01*
X120020857Y-83442272D01*
X120020857Y-83442272D01*
G37*
G36*
X143620857Y-83442272D02*
X143821042Y-83525191D01*
X144001213Y-83645578D01*
X144154422Y-83798787D01*
X144274809Y-83978958D01*
X144357728Y-84179143D01*
X144400000Y-84391658D01*
X144400000Y-84608342D01*
X144357728Y-84820857D01*
X144274809Y-85021042D01*
X144154422Y-85201213D01*
X144001213Y-85354422D01*
X143821042Y-85474809D01*
X143620857Y-85557728D01*
X143408342Y-85600000D01*
X143191658Y-85600000D01*
X142979143Y-85557728D01*
X142778958Y-85474809D01*
X142598787Y-85354422D01*
X142445578Y-85201213D01*
X142325191Y-85021042D01*
X142242272Y-84820857D01*
X142200000Y-84608342D01*
X142200000Y-84391658D01*
X142242272Y-84179143D01*
X142325191Y-83978958D01*
X142445578Y-83798787D01*
X142598787Y-83645578D01*
X142778958Y-83525191D01*
X142979143Y-83442272D01*
X143191658Y-83400000D01*
X143408342Y-83400000D01*
X143620857Y-83442272D01*
X143620857Y-83442272D01*
G37*
G36*
X106176432Y-63193022D02*
X106346081Y-63244485D01*
X106502433Y-63328056D01*
X106639475Y-63440525D01*
X106751944Y-63577567D01*
X106835515Y-63733919D01*
X106886978Y-63903568D01*
X106904354Y-64080000D01*
X106886978Y-64256432D01*
X106835515Y-64426081D01*
X106751944Y-64582433D01*
X106639475Y-64719475D01*
X106502433Y-64831944D01*
X106346081Y-64915515D01*
X106176432Y-64966978D01*
X106044211Y-64980000D01*
X105955789Y-64980000D01*
X105823568Y-64966978D01*
X105653919Y-64915515D01*
X105497567Y-64831944D01*
X105360525Y-64719475D01*
X105248056Y-64582433D01*
X105164485Y-64426081D01*
X105113022Y-64256432D01*
X105095646Y-64080000D01*
X105113022Y-63903568D01*
X105164485Y-63733919D01*
X105248056Y-63577567D01*
X105360525Y-63440525D01*
X105497567Y-63328056D01*
X105653919Y-63244485D01*
X105823568Y-63193022D01*
X105955789Y-63180000D01*
X106044211Y-63180000D01*
X106176432Y-63193022D01*
X106176432Y-63193022D01*
G37*
G36*
X157176432Y-63193022D02*
X157346081Y-63244485D01*
X157502433Y-63328056D01*
X157639475Y-63440525D01*
X157751944Y-63577567D01*
X157835515Y-63733919D01*
X157886978Y-63903568D01*
X157904354Y-64080000D01*
X157886978Y-64256432D01*
X157835515Y-64426081D01*
X157751944Y-64582433D01*
X157639475Y-64719475D01*
X157502433Y-64831944D01*
X157346081Y-64915515D01*
X157176432Y-64966978D01*
X157044211Y-64980000D01*
X156955789Y-64980000D01*
X156823568Y-64966978D01*
X156653919Y-64915515D01*
X156497567Y-64831944D01*
X156360525Y-64719475D01*
X156248056Y-64582433D01*
X156164485Y-64426081D01*
X156113022Y-64256432D01*
X156095646Y-64080000D01*
X156113022Y-63903568D01*
X156164485Y-63733919D01*
X156248056Y-63577567D01*
X156360525Y-63440525D01*
X156497567Y-63328056D01*
X156653919Y-63244485D01*
X156823568Y-63193022D01*
X156955789Y-63180000D01*
X157044211Y-63180000D01*
X157176432Y-63193022D01*
X157176432Y-63193022D01*
G37*
G36*
X157176432Y-60653022D02*
X157346081Y-60704485D01*
X157502433Y-60788056D01*
X157639475Y-60900525D01*
X157751944Y-61037567D01*
X157835515Y-61193919D01*
X157886978Y-61363568D01*
X157904354Y-61540000D01*
X157886978Y-61716432D01*
X157835515Y-61886081D01*
X157751944Y-62042433D01*
X157639475Y-62179475D01*
X157502433Y-62291944D01*
X157346081Y-62375515D01*
X157176432Y-62426978D01*
X157044211Y-62440000D01*
X156955789Y-62440000D01*
X156823568Y-62426978D01*
X156653919Y-62375515D01*
X156497567Y-62291944D01*
X156360525Y-62179475D01*
X156248056Y-62042433D01*
X156164485Y-61886081D01*
X156113022Y-61716432D01*
X156095646Y-61540000D01*
X156113022Y-61363568D01*
X156164485Y-61193919D01*
X156248056Y-61037567D01*
X156360525Y-60900525D01*
X156497567Y-60788056D01*
X156653919Y-60704485D01*
X156823568Y-60653022D01*
X156955789Y-60640000D01*
X157044211Y-60640000D01*
X157176432Y-60653022D01*
X157176432Y-60653022D01*
G37*
G36*
X106176432Y-60653022D02*
X106346081Y-60704485D01*
X106502433Y-60788056D01*
X106639475Y-60900525D01*
X106751944Y-61037567D01*
X106835515Y-61193919D01*
X106886978Y-61363568D01*
X106904354Y-61540000D01*
X106886978Y-61716432D01*
X106835515Y-61886081D01*
X106751944Y-62042433D01*
X106639475Y-62179475D01*
X106502433Y-62291944D01*
X106346081Y-62375515D01*
X106176432Y-62426978D01*
X106044211Y-62440000D01*
X105955789Y-62440000D01*
X105823568Y-62426978D01*
X105653919Y-62375515D01*
X105497567Y-62291944D01*
X105360525Y-62179475D01*
X105248056Y-62042433D01*
X105164485Y-61886081D01*
X105113022Y-61716432D01*
X105095646Y-61540000D01*
X105113022Y-61363568D01*
X105164485Y-61193919D01*
X105248056Y-61037567D01*
X105360525Y-60900525D01*
X105497567Y-60788056D01*
X105653919Y-60704485D01*
X105823568Y-60653022D01*
X105955789Y-60640000D01*
X106044211Y-60640000D01*
X106176432Y-60653022D01*
X106176432Y-60653022D01*
G37*
G36*
X132956432Y-59613022D02*
X133126081Y-59664485D01*
X133282433Y-59748056D01*
X133419475Y-59860525D01*
X133531944Y-59997567D01*
X133615515Y-60153919D01*
X133666978Y-60323568D01*
X133684354Y-60500000D01*
X133666978Y-60676432D01*
X133615515Y-60846081D01*
X133531944Y-61002433D01*
X133419475Y-61139475D01*
X133282433Y-61251944D01*
X133126081Y-61335515D01*
X132956432Y-61386978D01*
X132824211Y-61400000D01*
X132735789Y-61400000D01*
X132603568Y-61386978D01*
X132433919Y-61335515D01*
X132277567Y-61251944D01*
X132140525Y-61139475D01*
X132028056Y-61002433D01*
X131944485Y-60846081D01*
X131893022Y-60676432D01*
X131875646Y-60500000D01*
X131893022Y-60323568D01*
X131944485Y-60153919D01*
X132028056Y-59997567D01*
X132140525Y-59860525D01*
X132277567Y-59748056D01*
X132433919Y-59664485D01*
X132603568Y-59613022D01*
X132735789Y-59600000D01*
X132824211Y-59600000D01*
X132956432Y-59613022D01*
X132956432Y-59613022D01*
G37*
G36*
X130416432Y-59613022D02*
X130586081Y-59664485D01*
X130742433Y-59748056D01*
X130879475Y-59860525D01*
X130991944Y-59997567D01*
X131075515Y-60153919D01*
X131126978Y-60323568D01*
X131144354Y-60500000D01*
X131126978Y-60676432D01*
X131075515Y-60846081D01*
X130991944Y-61002433D01*
X130879475Y-61139475D01*
X130742433Y-61251944D01*
X130586081Y-61335515D01*
X130416432Y-61386978D01*
X130284211Y-61400000D01*
X130195789Y-61400000D01*
X130063568Y-61386978D01*
X129893919Y-61335515D01*
X129737567Y-61251944D01*
X129600525Y-61139475D01*
X129488056Y-61002433D01*
X129404485Y-60846081D01*
X129353022Y-60676432D01*
X129335646Y-60500000D01*
X129353022Y-60323568D01*
X129404485Y-60153919D01*
X129488056Y-59997567D01*
X129600525Y-59860525D01*
X129737567Y-59748056D01*
X129893919Y-59664485D01*
X130063568Y-59613022D01*
X130195789Y-59600000D01*
X130284211Y-59600000D01*
X130416432Y-59613022D01*
X130416432Y-59613022D01*
G37*
G36*
X128600000Y-61400000D02*
X126800000Y-61400000D01*
X126800000Y-59600000D01*
X128600000Y-59600000D01*
X128600000Y-61400000D01*
X128600000Y-61400000D01*
G37*
G36*
X135496432Y-59613022D02*
X135666081Y-59664485D01*
X135822433Y-59748056D01*
X135959475Y-59860525D01*
X136071944Y-59997567D01*
X136155515Y-60153919D01*
X136206978Y-60323568D01*
X136224354Y-60500000D01*
X136206978Y-60676432D01*
X136155515Y-60846081D01*
X136071944Y-61002433D01*
X135959475Y-61139475D01*
X135822433Y-61251944D01*
X135666081Y-61335515D01*
X135496432Y-61386978D01*
X135364211Y-61400000D01*
X135275789Y-61400000D01*
X135143568Y-61386978D01*
X134973919Y-61335515D01*
X134817567Y-61251944D01*
X134680525Y-61139475D01*
X134568056Y-61002433D01*
X134484485Y-60846081D01*
X134433022Y-60676432D01*
X134415646Y-60500000D01*
X134433022Y-60323568D01*
X134484485Y-60153919D01*
X134568056Y-59997567D01*
X134680525Y-59860525D01*
X134817567Y-59748056D01*
X134973919Y-59664485D01*
X135143568Y-59613022D01*
X135275789Y-59600000D01*
X135364211Y-59600000D01*
X135496432Y-59613022D01*
X135496432Y-59613022D01*
G37*
G36*
X106900000Y-59900000D02*
X105100000Y-59900000D01*
X105100000Y-58100000D01*
X106900000Y-58100000D01*
X106900000Y-59900000D01*
X106900000Y-59900000D01*
G37*
G36*
X157900000Y-59900000D02*
X156100000Y-59900000D01*
X156100000Y-58100000D01*
X157900000Y-58100000D01*
X157900000Y-59900000D01*
X157900000Y-59900000D01*
G37*
M02*
