%TF.GenerationSoftware,KiCad,Pcbnew,(5.0.2)-1*%
%TF.CreationDate,2020-07-31T10:54:53+02:00*%
%TF.ProjectId,Multimeter_Watch_DisplayBoard_V1,4d756c74-696d-4657-9465-725f57617463,rev?*%
%TF.SameCoordinates,Original*%
%TF.FileFunction,Copper,L2,Bot*%
%TF.FilePolarity,Positive*%
%FSLAX46Y46*%
G04 Gerber Fmt 4.6, Leading zero omitted, Abs format (unit mm)*
G04 Created by KiCad (PCBNEW (5.0.2)-1) date 31.7.2020 10:54:53*
%MOMM*%
%LPD*%
G01*
G04 APERTURE LIST*
%TA.AperFunction,SMDPad,CuDef*%
%ADD10R,3.000000X3.000000*%
%TD*%
%TA.AperFunction,SMDPad,CuDef*%
%ADD11R,2.000000X1.300000*%
%TD*%
%TA.AperFunction,Conductor*%
%ADD12C,0.100000*%
%TD*%
%TA.AperFunction,SMDPad,CuDef*%
%ADD13C,1.150000*%
%TD*%
%TA.AperFunction,SMDPad,CuDef*%
%ADD14C,0.950000*%
%TD*%
%TA.AperFunction,ComponentPad*%
%ADD15O,1.700000X1.700000*%
%TD*%
%TA.AperFunction,ComponentPad*%
%ADD16R,1.700000X1.700000*%
%TD*%
%TA.AperFunction,SMDPad,CuDef*%
%ADD17R,0.900000X0.800000*%
%TD*%
%TA.AperFunction,ViaPad*%
%ADD18C,0.800000*%
%TD*%
%TA.AperFunction,Conductor*%
%ADD19C,0.500000*%
%TD*%
%TA.AperFunction,Conductor*%
%ADD20C,0.254000*%
%TD*%
G04 APERTURE END LIST*
D10*
%TO.P,Struct9,1*%
%TO.N,N/C*%
X137500000Y-92500000D03*
%TD*%
%TO.P,Struct7,1*%
%TO.N,N/C*%
X125500000Y-92500000D03*
%TD*%
%TO.P,Struct3,1*%
%TO.N,N/C*%
X125000000Y-71500000D03*
%TD*%
%TO.P,Struct2,1*%
%TO.N,N/C*%
X138000000Y-71500000D03*
%TD*%
%TO.P,Struct8,1*%
%TO.N,N/C*%
X131500000Y-98000000D03*
%TD*%
%TO.P,Struct6,1*%
%TO.N,N/C*%
X119500000Y-98000000D03*
%TD*%
%TO.P,Struct10,1*%
%TO.N,N/C*%
X143500000Y-98000000D03*
%TD*%
%TO.P,Struct11,1*%
%TO.N,N/C*%
X152000000Y-84500000D03*
%TD*%
%TO.P,Struct5,1*%
%TO.N,N/C*%
X111000000Y-84500000D03*
%TD*%
%TO.P,Struct4,1*%
%TO.N,N/C*%
X111000000Y-71500000D03*
%TD*%
%TO.P,Struct1,1*%
%TO.N,N/C*%
X152000000Y-71500000D03*
%TD*%
D11*
%TO.P,B1,*%
%TO.N,*%
X139700000Y-66000000D03*
%TO.P,B1,2*%
%TO.N,Net-(B1-Pad2)*%
X144700000Y-62500000D03*
%TO.P,B1,1*%
%TO.N,/VCC*%
X139700000Y-62500000D03*
%TD*%
D12*
%TO.N,Net-(B1-Pad2)*%
%TO.C,D1*%
G36*
X141474505Y-59976203D02*
X141498773Y-59979803D01*
X141522572Y-59985764D01*
X141545671Y-59994029D01*
X141567850Y-60004519D01*
X141588893Y-60017131D01*
X141608599Y-60031746D01*
X141626777Y-60048222D01*
X141643253Y-60066400D01*
X141657868Y-60086106D01*
X141670480Y-60107149D01*
X141680970Y-60129328D01*
X141689235Y-60152427D01*
X141695196Y-60176226D01*
X141698796Y-60200494D01*
X141700000Y-60224998D01*
X141700000Y-60875000D01*
X141698796Y-60899504D01*
X141695196Y-60923772D01*
X141689235Y-60947571D01*
X141680970Y-60970670D01*
X141670480Y-60992849D01*
X141657868Y-61013892D01*
X141643253Y-61033598D01*
X141626777Y-61051776D01*
X141608599Y-61068252D01*
X141588893Y-61082867D01*
X141567850Y-61095479D01*
X141545671Y-61105969D01*
X141522572Y-61114234D01*
X141498773Y-61120195D01*
X141474505Y-61123795D01*
X141450001Y-61124999D01*
X140549999Y-61124999D01*
X140525495Y-61123795D01*
X140501227Y-61120195D01*
X140477428Y-61114234D01*
X140454329Y-61105969D01*
X140432150Y-61095479D01*
X140411107Y-61082867D01*
X140391401Y-61068252D01*
X140373223Y-61051776D01*
X140356747Y-61033598D01*
X140342132Y-61013892D01*
X140329520Y-60992849D01*
X140319030Y-60970670D01*
X140310765Y-60947571D01*
X140304804Y-60923772D01*
X140301204Y-60899504D01*
X140300000Y-60875000D01*
X140300000Y-60224998D01*
X140301204Y-60200494D01*
X140304804Y-60176226D01*
X140310765Y-60152427D01*
X140319030Y-60129328D01*
X140329520Y-60107149D01*
X140342132Y-60086106D01*
X140356747Y-60066400D01*
X140373223Y-60048222D01*
X140391401Y-60031746D01*
X140411107Y-60017131D01*
X140432150Y-60004519D01*
X140454329Y-59994029D01*
X140477428Y-59985764D01*
X140501227Y-59979803D01*
X140525495Y-59976203D01*
X140549999Y-59974999D01*
X141450001Y-59974999D01*
X141474505Y-59976203D01*
X141474505Y-59976203D01*
G37*
D13*
%TD*%
%TO.P,D1,2*%
%TO.N,Net-(B1-Pad2)*%
X141000000Y-60549999D03*
D12*
%TO.N,/VCC*%
%TO.C,D1*%
G36*
X141474505Y-57926203D02*
X141498773Y-57929803D01*
X141522572Y-57935764D01*
X141545671Y-57944029D01*
X141567850Y-57954519D01*
X141588893Y-57967131D01*
X141608599Y-57981746D01*
X141626777Y-57998222D01*
X141643253Y-58016400D01*
X141657868Y-58036106D01*
X141670480Y-58057149D01*
X141680970Y-58079328D01*
X141689235Y-58102427D01*
X141695196Y-58126226D01*
X141698796Y-58150494D01*
X141700000Y-58174998D01*
X141700000Y-58825000D01*
X141698796Y-58849504D01*
X141695196Y-58873772D01*
X141689235Y-58897571D01*
X141680970Y-58920670D01*
X141670480Y-58942849D01*
X141657868Y-58963892D01*
X141643253Y-58983598D01*
X141626777Y-59001776D01*
X141608599Y-59018252D01*
X141588893Y-59032867D01*
X141567850Y-59045479D01*
X141545671Y-59055969D01*
X141522572Y-59064234D01*
X141498773Y-59070195D01*
X141474505Y-59073795D01*
X141450001Y-59074999D01*
X140549999Y-59074999D01*
X140525495Y-59073795D01*
X140501227Y-59070195D01*
X140477428Y-59064234D01*
X140454329Y-59055969D01*
X140432150Y-59045479D01*
X140411107Y-59032867D01*
X140391401Y-59018252D01*
X140373223Y-59001776D01*
X140356747Y-58983598D01*
X140342132Y-58963892D01*
X140329520Y-58942849D01*
X140319030Y-58920670D01*
X140310765Y-58897571D01*
X140304804Y-58873772D01*
X140301204Y-58849504D01*
X140300000Y-58825000D01*
X140300000Y-58174998D01*
X140301204Y-58150494D01*
X140304804Y-58126226D01*
X140310765Y-58102427D01*
X140319030Y-58079328D01*
X140329520Y-58057149D01*
X140342132Y-58036106D01*
X140356747Y-58016400D01*
X140373223Y-57998222D01*
X140391401Y-57981746D01*
X140411107Y-57967131D01*
X140432150Y-57954519D01*
X140454329Y-57944029D01*
X140477428Y-57935764D01*
X140501227Y-57929803D01*
X140525495Y-57926203D01*
X140549999Y-57924999D01*
X141450001Y-57924999D01*
X141474505Y-57926203D01*
X141474505Y-57926203D01*
G37*
D13*
%TD*%
%TO.P,D1,1*%
%TO.N,/VCC*%
X141000000Y-58499999D03*
D12*
%TO.N,/GND*%
%TO.C,R18*%
G36*
X152099505Y-62301204D02*
X152123773Y-62304804D01*
X152147572Y-62310765D01*
X152170671Y-62319030D01*
X152192850Y-62329520D01*
X152213893Y-62342132D01*
X152233599Y-62356747D01*
X152251777Y-62373223D01*
X152268253Y-62391401D01*
X152282868Y-62411107D01*
X152295480Y-62432150D01*
X152305970Y-62454329D01*
X152314235Y-62477428D01*
X152320196Y-62501227D01*
X152323796Y-62525495D01*
X152325000Y-62549999D01*
X152325000Y-63450001D01*
X152323796Y-63474505D01*
X152320196Y-63498773D01*
X152314235Y-63522572D01*
X152305970Y-63545671D01*
X152295480Y-63567850D01*
X152282868Y-63588893D01*
X152268253Y-63608599D01*
X152251777Y-63626777D01*
X152233599Y-63643253D01*
X152213893Y-63657868D01*
X152192850Y-63670480D01*
X152170671Y-63680970D01*
X152147572Y-63689235D01*
X152123773Y-63695196D01*
X152099505Y-63698796D01*
X152075001Y-63700000D01*
X151424999Y-63700000D01*
X151400495Y-63698796D01*
X151376227Y-63695196D01*
X151352428Y-63689235D01*
X151329329Y-63680970D01*
X151307150Y-63670480D01*
X151286107Y-63657868D01*
X151266401Y-63643253D01*
X151248223Y-63626777D01*
X151231747Y-63608599D01*
X151217132Y-63588893D01*
X151204520Y-63567850D01*
X151194030Y-63545671D01*
X151185765Y-63522572D01*
X151179804Y-63498773D01*
X151176204Y-63474505D01*
X151175000Y-63450001D01*
X151175000Y-62549999D01*
X151176204Y-62525495D01*
X151179804Y-62501227D01*
X151185765Y-62477428D01*
X151194030Y-62454329D01*
X151204520Y-62432150D01*
X151217132Y-62411107D01*
X151231747Y-62391401D01*
X151248223Y-62373223D01*
X151266401Y-62356747D01*
X151286107Y-62342132D01*
X151307150Y-62329520D01*
X151329329Y-62319030D01*
X151352428Y-62310765D01*
X151376227Y-62304804D01*
X151400495Y-62301204D01*
X151424999Y-62300000D01*
X152075001Y-62300000D01*
X152099505Y-62301204D01*
X152099505Y-62301204D01*
G37*
D13*
%TD*%
%TO.P,R18,2*%
%TO.N,/GND*%
X151750000Y-63000000D03*
D12*
%TO.N,Net-(Q1-Pad1)*%
%TO.C,R18*%
G36*
X154149505Y-62301204D02*
X154173773Y-62304804D01*
X154197572Y-62310765D01*
X154220671Y-62319030D01*
X154242850Y-62329520D01*
X154263893Y-62342132D01*
X154283599Y-62356747D01*
X154301777Y-62373223D01*
X154318253Y-62391401D01*
X154332868Y-62411107D01*
X154345480Y-62432150D01*
X154355970Y-62454329D01*
X154364235Y-62477428D01*
X154370196Y-62501227D01*
X154373796Y-62525495D01*
X154375000Y-62549999D01*
X154375000Y-63450001D01*
X154373796Y-63474505D01*
X154370196Y-63498773D01*
X154364235Y-63522572D01*
X154355970Y-63545671D01*
X154345480Y-63567850D01*
X154332868Y-63588893D01*
X154318253Y-63608599D01*
X154301777Y-63626777D01*
X154283599Y-63643253D01*
X154263893Y-63657868D01*
X154242850Y-63670480D01*
X154220671Y-63680970D01*
X154197572Y-63689235D01*
X154173773Y-63695196D01*
X154149505Y-63698796D01*
X154125001Y-63700000D01*
X153474999Y-63700000D01*
X153450495Y-63698796D01*
X153426227Y-63695196D01*
X153402428Y-63689235D01*
X153379329Y-63680970D01*
X153357150Y-63670480D01*
X153336107Y-63657868D01*
X153316401Y-63643253D01*
X153298223Y-63626777D01*
X153281747Y-63608599D01*
X153267132Y-63588893D01*
X153254520Y-63567850D01*
X153244030Y-63545671D01*
X153235765Y-63522572D01*
X153229804Y-63498773D01*
X153226204Y-63474505D01*
X153225000Y-63450001D01*
X153225000Y-62549999D01*
X153226204Y-62525495D01*
X153229804Y-62501227D01*
X153235765Y-62477428D01*
X153244030Y-62454329D01*
X153254520Y-62432150D01*
X153267132Y-62411107D01*
X153281747Y-62391401D01*
X153298223Y-62373223D01*
X153316401Y-62356747D01*
X153336107Y-62342132D01*
X153357150Y-62329520D01*
X153379329Y-62319030D01*
X153402428Y-62310765D01*
X153426227Y-62304804D01*
X153450495Y-62301204D01*
X153474999Y-62300000D01*
X154125001Y-62300000D01*
X154149505Y-62301204D01*
X154149505Y-62301204D01*
G37*
D13*
%TD*%
%TO.P,R18,1*%
%TO.N,Net-(Q1-Pad1)*%
X153800000Y-63000000D03*
D12*
%TO.N,/BUZZER*%
%TO.C,R17*%
G36*
X152099505Y-64801204D02*
X152123773Y-64804804D01*
X152147572Y-64810765D01*
X152170671Y-64819030D01*
X152192850Y-64829520D01*
X152213893Y-64842132D01*
X152233599Y-64856747D01*
X152251777Y-64873223D01*
X152268253Y-64891401D01*
X152282868Y-64911107D01*
X152295480Y-64932150D01*
X152305970Y-64954329D01*
X152314235Y-64977428D01*
X152320196Y-65001227D01*
X152323796Y-65025495D01*
X152325000Y-65049999D01*
X152325000Y-65950001D01*
X152323796Y-65974505D01*
X152320196Y-65998773D01*
X152314235Y-66022572D01*
X152305970Y-66045671D01*
X152295480Y-66067850D01*
X152282868Y-66088893D01*
X152268253Y-66108599D01*
X152251777Y-66126777D01*
X152233599Y-66143253D01*
X152213893Y-66157868D01*
X152192850Y-66170480D01*
X152170671Y-66180970D01*
X152147572Y-66189235D01*
X152123773Y-66195196D01*
X152099505Y-66198796D01*
X152075001Y-66200000D01*
X151424999Y-66200000D01*
X151400495Y-66198796D01*
X151376227Y-66195196D01*
X151352428Y-66189235D01*
X151329329Y-66180970D01*
X151307150Y-66170480D01*
X151286107Y-66157868D01*
X151266401Y-66143253D01*
X151248223Y-66126777D01*
X151231747Y-66108599D01*
X151217132Y-66088893D01*
X151204520Y-66067850D01*
X151194030Y-66045671D01*
X151185765Y-66022572D01*
X151179804Y-65998773D01*
X151176204Y-65974505D01*
X151175000Y-65950001D01*
X151175000Y-65049999D01*
X151176204Y-65025495D01*
X151179804Y-65001227D01*
X151185765Y-64977428D01*
X151194030Y-64954329D01*
X151204520Y-64932150D01*
X151217132Y-64911107D01*
X151231747Y-64891401D01*
X151248223Y-64873223D01*
X151266401Y-64856747D01*
X151286107Y-64842132D01*
X151307150Y-64829520D01*
X151329329Y-64819030D01*
X151352428Y-64810765D01*
X151376227Y-64804804D01*
X151400495Y-64801204D01*
X151424999Y-64800000D01*
X152075001Y-64800000D01*
X152099505Y-64801204D01*
X152099505Y-64801204D01*
G37*
D13*
%TD*%
%TO.P,R17,2*%
%TO.N,/BUZZER*%
X151750000Y-65500000D03*
D12*
%TO.N,Net-(Q1-Pad1)*%
%TO.C,R17*%
G36*
X154149505Y-64801204D02*
X154173773Y-64804804D01*
X154197572Y-64810765D01*
X154220671Y-64819030D01*
X154242850Y-64829520D01*
X154263893Y-64842132D01*
X154283599Y-64856747D01*
X154301777Y-64873223D01*
X154318253Y-64891401D01*
X154332868Y-64911107D01*
X154345480Y-64932150D01*
X154355970Y-64954329D01*
X154364235Y-64977428D01*
X154370196Y-65001227D01*
X154373796Y-65025495D01*
X154375000Y-65049999D01*
X154375000Y-65950001D01*
X154373796Y-65974505D01*
X154370196Y-65998773D01*
X154364235Y-66022572D01*
X154355970Y-66045671D01*
X154345480Y-66067850D01*
X154332868Y-66088893D01*
X154318253Y-66108599D01*
X154301777Y-66126777D01*
X154283599Y-66143253D01*
X154263893Y-66157868D01*
X154242850Y-66170480D01*
X154220671Y-66180970D01*
X154197572Y-66189235D01*
X154173773Y-66195196D01*
X154149505Y-66198796D01*
X154125001Y-66200000D01*
X153474999Y-66200000D01*
X153450495Y-66198796D01*
X153426227Y-66195196D01*
X153402428Y-66189235D01*
X153379329Y-66180970D01*
X153357150Y-66170480D01*
X153336107Y-66157868D01*
X153316401Y-66143253D01*
X153298223Y-66126777D01*
X153281747Y-66108599D01*
X153267132Y-66088893D01*
X153254520Y-66067850D01*
X153244030Y-66045671D01*
X153235765Y-66022572D01*
X153229804Y-65998773D01*
X153226204Y-65974505D01*
X153225000Y-65950001D01*
X153225000Y-65049999D01*
X153226204Y-65025495D01*
X153229804Y-65001227D01*
X153235765Y-64977428D01*
X153244030Y-64954329D01*
X153254520Y-64932150D01*
X153267132Y-64911107D01*
X153281747Y-64891401D01*
X153298223Y-64873223D01*
X153316401Y-64856747D01*
X153336107Y-64842132D01*
X153357150Y-64829520D01*
X153379329Y-64819030D01*
X153402428Y-64810765D01*
X153426227Y-64804804D01*
X153450495Y-64801204D01*
X153474999Y-64800000D01*
X154125001Y-64800000D01*
X154149505Y-64801204D01*
X154149505Y-64801204D01*
G37*
D13*
%TD*%
%TO.P,R17,1*%
%TO.N,Net-(Q1-Pad1)*%
X153800000Y-65500000D03*
D12*
%TO.N,/GND*%
%TO.C,C1*%
G36*
X139510779Y-56226143D02*
X139533834Y-56229562D01*
X139556443Y-56235226D01*
X139578387Y-56243078D01*
X139599457Y-56253043D01*
X139619448Y-56265025D01*
X139638168Y-56278909D01*
X139655438Y-56294561D01*
X139671090Y-56311831D01*
X139684974Y-56330551D01*
X139696956Y-56350542D01*
X139706921Y-56371612D01*
X139714773Y-56393556D01*
X139720437Y-56416165D01*
X139723856Y-56439220D01*
X139725000Y-56462499D01*
X139725000Y-57037499D01*
X139723856Y-57060778D01*
X139720437Y-57083833D01*
X139714773Y-57106442D01*
X139706921Y-57128386D01*
X139696956Y-57149456D01*
X139684974Y-57169447D01*
X139671090Y-57188167D01*
X139655438Y-57205437D01*
X139638168Y-57221089D01*
X139619448Y-57234973D01*
X139599457Y-57246955D01*
X139578387Y-57256920D01*
X139556443Y-57264772D01*
X139533834Y-57270436D01*
X139510779Y-57273855D01*
X139487500Y-57274999D01*
X139012500Y-57274999D01*
X138989221Y-57273855D01*
X138966166Y-57270436D01*
X138943557Y-57264772D01*
X138921613Y-57256920D01*
X138900543Y-57246955D01*
X138880552Y-57234973D01*
X138861832Y-57221089D01*
X138844562Y-57205437D01*
X138828910Y-57188167D01*
X138815026Y-57169447D01*
X138803044Y-57149456D01*
X138793079Y-57128386D01*
X138785227Y-57106442D01*
X138779563Y-57083833D01*
X138776144Y-57060778D01*
X138775000Y-57037499D01*
X138775000Y-56462499D01*
X138776144Y-56439220D01*
X138779563Y-56416165D01*
X138785227Y-56393556D01*
X138793079Y-56371612D01*
X138803044Y-56350542D01*
X138815026Y-56330551D01*
X138828910Y-56311831D01*
X138844562Y-56294561D01*
X138861832Y-56278909D01*
X138880552Y-56265025D01*
X138900543Y-56253043D01*
X138921613Y-56243078D01*
X138943557Y-56235226D01*
X138966166Y-56229562D01*
X138989221Y-56226143D01*
X139012500Y-56224999D01*
X139487500Y-56224999D01*
X139510779Y-56226143D01*
X139510779Y-56226143D01*
G37*
D14*
%TD*%
%TO.P,C1,2*%
%TO.N,/GND*%
X139250000Y-56749999D03*
D12*
%TO.N,/VCC*%
%TO.C,C1*%
G36*
X139510779Y-57976143D02*
X139533834Y-57979562D01*
X139556443Y-57985226D01*
X139578387Y-57993078D01*
X139599457Y-58003043D01*
X139619448Y-58015025D01*
X139638168Y-58028909D01*
X139655438Y-58044561D01*
X139671090Y-58061831D01*
X139684974Y-58080551D01*
X139696956Y-58100542D01*
X139706921Y-58121612D01*
X139714773Y-58143556D01*
X139720437Y-58166165D01*
X139723856Y-58189220D01*
X139725000Y-58212499D01*
X139725000Y-58787499D01*
X139723856Y-58810778D01*
X139720437Y-58833833D01*
X139714773Y-58856442D01*
X139706921Y-58878386D01*
X139696956Y-58899456D01*
X139684974Y-58919447D01*
X139671090Y-58938167D01*
X139655438Y-58955437D01*
X139638168Y-58971089D01*
X139619448Y-58984973D01*
X139599457Y-58996955D01*
X139578387Y-59006920D01*
X139556443Y-59014772D01*
X139533834Y-59020436D01*
X139510779Y-59023855D01*
X139487500Y-59024999D01*
X139012500Y-59024999D01*
X138989221Y-59023855D01*
X138966166Y-59020436D01*
X138943557Y-59014772D01*
X138921613Y-59006920D01*
X138900543Y-58996955D01*
X138880552Y-58984973D01*
X138861832Y-58971089D01*
X138844562Y-58955437D01*
X138828910Y-58938167D01*
X138815026Y-58919447D01*
X138803044Y-58899456D01*
X138793079Y-58878386D01*
X138785227Y-58856442D01*
X138779563Y-58833833D01*
X138776144Y-58810778D01*
X138775000Y-58787499D01*
X138775000Y-58212499D01*
X138776144Y-58189220D01*
X138779563Y-58166165D01*
X138785227Y-58143556D01*
X138793079Y-58121612D01*
X138803044Y-58100542D01*
X138815026Y-58080551D01*
X138828910Y-58061831D01*
X138844562Y-58044561D01*
X138861832Y-58028909D01*
X138880552Y-58015025D01*
X138900543Y-58003043D01*
X138921613Y-57993078D01*
X138943557Y-57985226D01*
X138966166Y-57979562D01*
X138989221Y-57976143D01*
X139012500Y-57974999D01*
X139487500Y-57974999D01*
X139510779Y-57976143D01*
X139510779Y-57976143D01*
G37*
D14*
%TD*%
%TO.P,C1,1*%
%TO.N,/VCC*%
X139250000Y-58499999D03*
D15*
%TO.P,J_5,4*%
%TO.N,/SDA*%
X135320000Y-60500000D03*
%TO.P,J_5,3*%
%TO.N,/SCL*%
X132780000Y-60500000D03*
%TO.P,J_5,2*%
%TO.N,/ENABLE*%
X130240000Y-60500000D03*
D16*
%TO.P,J_5,1*%
%TO.N,/GND*%
X127700000Y-60500000D03*
%TD*%
D15*
%TO.P,J4,3*%
%TO.N,/BUTT2*%
X106000000Y-64080000D03*
%TO.P,J4,2*%
%TO.N,/BUTT1*%
X106000000Y-61540000D03*
D16*
%TO.P,J4,1*%
%TO.N,/GND*%
X106000000Y-59000000D03*
%TD*%
D15*
%TO.P,J3,3*%
%TO.N,/BUTT5*%
X157000000Y-64080000D03*
%TO.P,J3,2*%
%TO.N,/BUTT4*%
X157000000Y-61540000D03*
D16*
%TO.P,J3,1*%
%TO.N,/VCC*%
X157000000Y-59000000D03*
%TD*%
D15*
%TO.P,J2,3*%
%TO.N,/BUTT6*%
X157000000Y-92020000D03*
%TO.P,J2,2*%
%TO.N,/SCL*%
X157000000Y-94560000D03*
D16*
%TO.P,J2,1*%
%TO.N,/SDA*%
X157000000Y-97100000D03*
%TD*%
D15*
%TO.P,J1,3*%
%TO.N,/BUTT3*%
X106000000Y-92020000D03*
%TO.P,J1,2*%
%TO.N,/BUZZER*%
X106000000Y-94560000D03*
D16*
%TO.P,J1,1*%
%TO.N,/ENABLE*%
X106000000Y-97100000D03*
%TD*%
D17*
%TO.P,Q1,3*%
%TO.N,Net-(B1-Pad2)*%
X152000000Y-58000000D03*
%TO.P,Q1,2*%
%TO.N,/GND*%
X154000000Y-58950000D03*
%TO.P,Q1,1*%
%TO.N,Net-(Q1-Pad1)*%
X154000000Y-57050000D03*
%TD*%
D18*
%TO.N,/GND*%
X154500000Y-94500000D03*
X148500000Y-83000000D03*
X111000000Y-75500000D03*
X145000000Y-58000000D03*
X131500000Y-67500000D03*
X134000000Y-67500000D03*
X134000000Y-73000000D03*
X131500000Y-75000000D03*
X138500000Y-85500000D03*
X129500000Y-86500000D03*
X109000000Y-99000000D03*
X118000000Y-58000000D03*
X151500000Y-97500000D03*
X120500000Y-86200000D03*
X126500000Y-67500000D03*
X143000000Y-65500000D03*
%TO.N,/BUZZER*%
X127400000Y-73900000D03*
X136200000Y-68400000D03*
%TD*%
D19*
%TO.N,Net-(B1-Pad2)*%
X144700000Y-62500000D02*
X144250000Y-62500000D01*
X149200000Y-58000000D02*
X144700000Y-62500000D01*
X152000000Y-58000000D02*
X149200000Y-58000000D01*
X142950001Y-62500000D02*
X144700000Y-62500000D01*
X141000000Y-60549999D02*
X142950001Y-62500000D01*
%TO.N,Net-(Q1-Pad1)*%
X154000000Y-62525000D02*
X154025000Y-62500000D01*
X154000000Y-65000000D02*
X154000000Y-62525000D01*
X154900001Y-57950001D02*
X154000000Y-57050000D01*
X154900001Y-61624999D02*
X154900001Y-57950001D01*
X154025000Y-62500000D02*
X154900001Y-61624999D01*
%TO.N,/BUZZER*%
X106000000Y-94560000D02*
X126660000Y-73900000D01*
X126660000Y-73900000D02*
X127400000Y-73900000D01*
X136200000Y-68400000D02*
X148200000Y-68400000D01*
X151100000Y-65500000D02*
X151750000Y-65500000D01*
X148200000Y-68400000D02*
X151100000Y-65500000D01*
%TO.N,/ENABLE*%
X130240000Y-64000000D02*
X130240000Y-81760000D01*
X114900000Y-97100000D02*
X106000000Y-97100000D01*
X130240000Y-81760000D02*
X114900000Y-97100000D01*
X130240000Y-64000000D02*
X130240000Y-60500000D01*
%TO.N,/SCL*%
X132780000Y-64000000D02*
X132780000Y-82780000D01*
X132780000Y-82780000D02*
X149000000Y-99000000D01*
X158300001Y-95860001D02*
X157000000Y-94560000D01*
X157610002Y-99000000D02*
X158300001Y-98310001D01*
X158300001Y-98310001D02*
X158300001Y-95860001D01*
X149000000Y-99000000D02*
X155000000Y-99000000D01*
X132780000Y-64000000D02*
X132780000Y-60500000D01*
X155000000Y-99000000D02*
X157610002Y-99000000D01*
%TO.N,/SDA*%
X153358002Y-97100000D02*
X157000000Y-97100000D01*
X135320000Y-60500000D02*
X135320000Y-79061998D01*
X135320000Y-79061998D02*
X153358002Y-97100000D01*
%TO.N,/VCC*%
X157000000Y-59000000D02*
X157000000Y-57500000D01*
X157000000Y-57500000D02*
X155000000Y-55500000D01*
X155000000Y-55500000D02*
X142750000Y-55500000D01*
X142750000Y-55500000D02*
X141000000Y-57250000D01*
X141000000Y-57250000D02*
X141000000Y-58499999D01*
X141000000Y-58499999D02*
X139000000Y-58499999D01*
X139250000Y-62050000D02*
X139700000Y-62500000D01*
X139250000Y-58499999D02*
X139250000Y-62050000D01*
%TD*%
D20*
%TO.N,/GND*%
G36*
X131539294Y-61329014D02*
X131724866Y-61555134D01*
X131895001Y-61694760D01*
X131895000Y-63956523D01*
X131895000Y-63956524D01*
X131895001Y-82736521D01*
X131890719Y-82780000D01*
X131907805Y-82953490D01*
X131958412Y-83120313D01*
X132040590Y-83274059D01*
X132123468Y-83375046D01*
X132123471Y-83375049D01*
X132151184Y-83408817D01*
X132184952Y-83436530D01*
X139122405Y-90373983D01*
X139000000Y-90361928D01*
X136000000Y-90361928D01*
X135875518Y-90374188D01*
X135755820Y-90410498D01*
X135645506Y-90469463D01*
X135548815Y-90548815D01*
X135469463Y-90645506D01*
X135410498Y-90755820D01*
X135374188Y-90875518D01*
X135361928Y-91000000D01*
X135361928Y-94000000D01*
X135374188Y-94124482D01*
X135410498Y-94244180D01*
X135469463Y-94354494D01*
X135548815Y-94451185D01*
X135645506Y-94530537D01*
X135755820Y-94589502D01*
X135875518Y-94625812D01*
X136000000Y-94638072D01*
X139000000Y-94638072D01*
X139124482Y-94625812D01*
X139244180Y-94589502D01*
X139354494Y-94530537D01*
X139451185Y-94451185D01*
X139530537Y-94354494D01*
X139589502Y-94244180D01*
X139625812Y-94124482D01*
X139638072Y-94000000D01*
X139638072Y-91000000D01*
X139626017Y-90877595D01*
X144610349Y-95861928D01*
X142000000Y-95861928D01*
X141875518Y-95874188D01*
X141755820Y-95910498D01*
X141645506Y-95969463D01*
X141548815Y-96048815D01*
X141469463Y-96145506D01*
X141410498Y-96255820D01*
X141374188Y-96375518D01*
X141361928Y-96500000D01*
X141361928Y-99500000D01*
X141374188Y-99624482D01*
X141410498Y-99744180D01*
X141469463Y-99854494D01*
X141548815Y-99951185D01*
X141645506Y-100030537D01*
X141755820Y-100089502D01*
X141875518Y-100125812D01*
X142000000Y-100138072D01*
X145000000Y-100138072D01*
X145124482Y-100125812D01*
X145244180Y-100089502D01*
X145354494Y-100030537D01*
X145451185Y-99951185D01*
X145530537Y-99854494D01*
X145589502Y-99744180D01*
X145625812Y-99624482D01*
X145638072Y-99500000D01*
X145638072Y-96889651D01*
X148343470Y-99595049D01*
X148371183Y-99628817D01*
X148404951Y-99656530D01*
X148404953Y-99656532D01*
X148476452Y-99715210D01*
X148505941Y-99739411D01*
X148659687Y-99821589D01*
X148768159Y-99854494D01*
X148826509Y-99872195D01*
X148841306Y-99873652D01*
X148956523Y-99885000D01*
X148956531Y-99885000D01*
X149000000Y-99889281D01*
X149043469Y-99885000D01*
X157566533Y-99885000D01*
X157610002Y-99889281D01*
X157653471Y-99885000D01*
X157653479Y-99885000D01*
X157783492Y-99872195D01*
X157950315Y-99821589D01*
X158104061Y-99739411D01*
X158238819Y-99628817D01*
X158266536Y-99595044D01*
X158340001Y-99521579D01*
X158340001Y-100340000D01*
X104660000Y-100340000D01*
X104660000Y-98353889D01*
X104698815Y-98401185D01*
X104795506Y-98480537D01*
X104905820Y-98539502D01*
X105025518Y-98575812D01*
X105150000Y-98588072D01*
X106850000Y-98588072D01*
X106974482Y-98575812D01*
X107094180Y-98539502D01*
X107204494Y-98480537D01*
X107301185Y-98401185D01*
X107380537Y-98304494D01*
X107439502Y-98194180D01*
X107475812Y-98074482D01*
X107484625Y-97985000D01*
X114856531Y-97985000D01*
X114900000Y-97989281D01*
X114943469Y-97985000D01*
X114943477Y-97985000D01*
X115073490Y-97972195D01*
X115240313Y-97921589D01*
X115394059Y-97839411D01*
X115528817Y-97728817D01*
X115556534Y-97695044D01*
X116751578Y-96500000D01*
X117361928Y-96500000D01*
X117361928Y-99500000D01*
X117374188Y-99624482D01*
X117410498Y-99744180D01*
X117469463Y-99854494D01*
X117548815Y-99951185D01*
X117645506Y-100030537D01*
X117755820Y-100089502D01*
X117875518Y-100125812D01*
X118000000Y-100138072D01*
X121000000Y-100138072D01*
X121124482Y-100125812D01*
X121244180Y-100089502D01*
X121354494Y-100030537D01*
X121451185Y-99951185D01*
X121530537Y-99854494D01*
X121589502Y-99744180D01*
X121625812Y-99624482D01*
X121638072Y-99500000D01*
X121638072Y-96500000D01*
X129361928Y-96500000D01*
X129361928Y-99500000D01*
X129374188Y-99624482D01*
X129410498Y-99744180D01*
X129469463Y-99854494D01*
X129548815Y-99951185D01*
X129645506Y-100030537D01*
X129755820Y-100089502D01*
X129875518Y-100125812D01*
X130000000Y-100138072D01*
X133000000Y-100138072D01*
X133124482Y-100125812D01*
X133244180Y-100089502D01*
X133354494Y-100030537D01*
X133451185Y-99951185D01*
X133530537Y-99854494D01*
X133589502Y-99744180D01*
X133625812Y-99624482D01*
X133638072Y-99500000D01*
X133638072Y-96500000D01*
X133625812Y-96375518D01*
X133589502Y-96255820D01*
X133530537Y-96145506D01*
X133451185Y-96048815D01*
X133354494Y-95969463D01*
X133244180Y-95910498D01*
X133124482Y-95874188D01*
X133000000Y-95861928D01*
X130000000Y-95861928D01*
X129875518Y-95874188D01*
X129755820Y-95910498D01*
X129645506Y-95969463D01*
X129548815Y-96048815D01*
X129469463Y-96145506D01*
X129410498Y-96255820D01*
X129374188Y-96375518D01*
X129361928Y-96500000D01*
X121638072Y-96500000D01*
X121625812Y-96375518D01*
X121589502Y-96255820D01*
X121530537Y-96145506D01*
X121451185Y-96048815D01*
X121354494Y-95969463D01*
X121244180Y-95910498D01*
X121124482Y-95874188D01*
X121000000Y-95861928D01*
X118000000Y-95861928D01*
X117875518Y-95874188D01*
X117755820Y-95910498D01*
X117645506Y-95969463D01*
X117548815Y-96048815D01*
X117469463Y-96145506D01*
X117410498Y-96255820D01*
X117374188Y-96375518D01*
X117361928Y-96500000D01*
X116751578Y-96500000D01*
X122251578Y-91000000D01*
X123361928Y-91000000D01*
X123361928Y-94000000D01*
X123374188Y-94124482D01*
X123410498Y-94244180D01*
X123469463Y-94354494D01*
X123548815Y-94451185D01*
X123645506Y-94530537D01*
X123755820Y-94589502D01*
X123875518Y-94625812D01*
X124000000Y-94638072D01*
X127000000Y-94638072D01*
X127124482Y-94625812D01*
X127244180Y-94589502D01*
X127354494Y-94530537D01*
X127451185Y-94451185D01*
X127530537Y-94354494D01*
X127589502Y-94244180D01*
X127625812Y-94124482D01*
X127638072Y-94000000D01*
X127638072Y-91000000D01*
X127625812Y-90875518D01*
X127589502Y-90755820D01*
X127530537Y-90645506D01*
X127451185Y-90548815D01*
X127354494Y-90469463D01*
X127244180Y-90410498D01*
X127124482Y-90374188D01*
X127000000Y-90361928D01*
X124000000Y-90361928D01*
X123875518Y-90374188D01*
X123755820Y-90410498D01*
X123645506Y-90469463D01*
X123548815Y-90548815D01*
X123469463Y-90645506D01*
X123410498Y-90755820D01*
X123374188Y-90875518D01*
X123361928Y-91000000D01*
X122251578Y-91000000D01*
X130835049Y-82416530D01*
X130868817Y-82388817D01*
X130979411Y-82254059D01*
X131061589Y-82100313D01*
X131112195Y-81933490D01*
X131125000Y-81803477D01*
X131125000Y-81803467D01*
X131129281Y-81760001D01*
X131125000Y-81716534D01*
X131125000Y-61694759D01*
X131295134Y-61555134D01*
X131480706Y-61329014D01*
X131510000Y-61274209D01*
X131539294Y-61329014D01*
X131539294Y-61329014D01*
G37*
X131539294Y-61329014D02*
X131724866Y-61555134D01*
X131895001Y-61694760D01*
X131895000Y-63956523D01*
X131895000Y-63956524D01*
X131895001Y-82736521D01*
X131890719Y-82780000D01*
X131907805Y-82953490D01*
X131958412Y-83120313D01*
X132040590Y-83274059D01*
X132123468Y-83375046D01*
X132123471Y-83375049D01*
X132151184Y-83408817D01*
X132184952Y-83436530D01*
X139122405Y-90373983D01*
X139000000Y-90361928D01*
X136000000Y-90361928D01*
X135875518Y-90374188D01*
X135755820Y-90410498D01*
X135645506Y-90469463D01*
X135548815Y-90548815D01*
X135469463Y-90645506D01*
X135410498Y-90755820D01*
X135374188Y-90875518D01*
X135361928Y-91000000D01*
X135361928Y-94000000D01*
X135374188Y-94124482D01*
X135410498Y-94244180D01*
X135469463Y-94354494D01*
X135548815Y-94451185D01*
X135645506Y-94530537D01*
X135755820Y-94589502D01*
X135875518Y-94625812D01*
X136000000Y-94638072D01*
X139000000Y-94638072D01*
X139124482Y-94625812D01*
X139244180Y-94589502D01*
X139354494Y-94530537D01*
X139451185Y-94451185D01*
X139530537Y-94354494D01*
X139589502Y-94244180D01*
X139625812Y-94124482D01*
X139638072Y-94000000D01*
X139638072Y-91000000D01*
X139626017Y-90877595D01*
X144610349Y-95861928D01*
X142000000Y-95861928D01*
X141875518Y-95874188D01*
X141755820Y-95910498D01*
X141645506Y-95969463D01*
X141548815Y-96048815D01*
X141469463Y-96145506D01*
X141410498Y-96255820D01*
X141374188Y-96375518D01*
X141361928Y-96500000D01*
X141361928Y-99500000D01*
X141374188Y-99624482D01*
X141410498Y-99744180D01*
X141469463Y-99854494D01*
X141548815Y-99951185D01*
X141645506Y-100030537D01*
X141755820Y-100089502D01*
X141875518Y-100125812D01*
X142000000Y-100138072D01*
X145000000Y-100138072D01*
X145124482Y-100125812D01*
X145244180Y-100089502D01*
X145354494Y-100030537D01*
X145451185Y-99951185D01*
X145530537Y-99854494D01*
X145589502Y-99744180D01*
X145625812Y-99624482D01*
X145638072Y-99500000D01*
X145638072Y-96889651D01*
X148343470Y-99595049D01*
X148371183Y-99628817D01*
X148404951Y-99656530D01*
X148404953Y-99656532D01*
X148476452Y-99715210D01*
X148505941Y-99739411D01*
X148659687Y-99821589D01*
X148768159Y-99854494D01*
X148826509Y-99872195D01*
X148841306Y-99873652D01*
X148956523Y-99885000D01*
X148956531Y-99885000D01*
X149000000Y-99889281D01*
X149043469Y-99885000D01*
X157566533Y-99885000D01*
X157610002Y-99889281D01*
X157653471Y-99885000D01*
X157653479Y-99885000D01*
X157783492Y-99872195D01*
X157950315Y-99821589D01*
X158104061Y-99739411D01*
X158238819Y-99628817D01*
X158266536Y-99595044D01*
X158340001Y-99521579D01*
X158340001Y-100340000D01*
X104660000Y-100340000D01*
X104660000Y-98353889D01*
X104698815Y-98401185D01*
X104795506Y-98480537D01*
X104905820Y-98539502D01*
X105025518Y-98575812D01*
X105150000Y-98588072D01*
X106850000Y-98588072D01*
X106974482Y-98575812D01*
X107094180Y-98539502D01*
X107204494Y-98480537D01*
X107301185Y-98401185D01*
X107380537Y-98304494D01*
X107439502Y-98194180D01*
X107475812Y-98074482D01*
X107484625Y-97985000D01*
X114856531Y-97985000D01*
X114900000Y-97989281D01*
X114943469Y-97985000D01*
X114943477Y-97985000D01*
X115073490Y-97972195D01*
X115240313Y-97921589D01*
X115394059Y-97839411D01*
X115528817Y-97728817D01*
X115556534Y-97695044D01*
X116751578Y-96500000D01*
X117361928Y-96500000D01*
X117361928Y-99500000D01*
X117374188Y-99624482D01*
X117410498Y-99744180D01*
X117469463Y-99854494D01*
X117548815Y-99951185D01*
X117645506Y-100030537D01*
X117755820Y-100089502D01*
X117875518Y-100125812D01*
X118000000Y-100138072D01*
X121000000Y-100138072D01*
X121124482Y-100125812D01*
X121244180Y-100089502D01*
X121354494Y-100030537D01*
X121451185Y-99951185D01*
X121530537Y-99854494D01*
X121589502Y-99744180D01*
X121625812Y-99624482D01*
X121638072Y-99500000D01*
X121638072Y-96500000D01*
X129361928Y-96500000D01*
X129361928Y-99500000D01*
X129374188Y-99624482D01*
X129410498Y-99744180D01*
X129469463Y-99854494D01*
X129548815Y-99951185D01*
X129645506Y-100030537D01*
X129755820Y-100089502D01*
X129875518Y-100125812D01*
X130000000Y-100138072D01*
X133000000Y-100138072D01*
X133124482Y-100125812D01*
X133244180Y-100089502D01*
X133354494Y-100030537D01*
X133451185Y-99951185D01*
X133530537Y-99854494D01*
X133589502Y-99744180D01*
X133625812Y-99624482D01*
X133638072Y-99500000D01*
X133638072Y-96500000D01*
X133625812Y-96375518D01*
X133589502Y-96255820D01*
X133530537Y-96145506D01*
X133451185Y-96048815D01*
X133354494Y-95969463D01*
X133244180Y-95910498D01*
X133124482Y-95874188D01*
X133000000Y-95861928D01*
X130000000Y-95861928D01*
X129875518Y-95874188D01*
X129755820Y-95910498D01*
X129645506Y-95969463D01*
X129548815Y-96048815D01*
X129469463Y-96145506D01*
X129410498Y-96255820D01*
X129374188Y-96375518D01*
X129361928Y-96500000D01*
X121638072Y-96500000D01*
X121625812Y-96375518D01*
X121589502Y-96255820D01*
X121530537Y-96145506D01*
X121451185Y-96048815D01*
X121354494Y-95969463D01*
X121244180Y-95910498D01*
X121124482Y-95874188D01*
X121000000Y-95861928D01*
X118000000Y-95861928D01*
X117875518Y-95874188D01*
X117755820Y-95910498D01*
X117645506Y-95969463D01*
X117548815Y-96048815D01*
X117469463Y-96145506D01*
X117410498Y-96255820D01*
X117374188Y-96375518D01*
X117361928Y-96500000D01*
X116751578Y-96500000D01*
X122251578Y-91000000D01*
X123361928Y-91000000D01*
X123361928Y-94000000D01*
X123374188Y-94124482D01*
X123410498Y-94244180D01*
X123469463Y-94354494D01*
X123548815Y-94451185D01*
X123645506Y-94530537D01*
X123755820Y-94589502D01*
X123875518Y-94625812D01*
X124000000Y-94638072D01*
X127000000Y-94638072D01*
X127124482Y-94625812D01*
X127244180Y-94589502D01*
X127354494Y-94530537D01*
X127451185Y-94451185D01*
X127530537Y-94354494D01*
X127589502Y-94244180D01*
X127625812Y-94124482D01*
X127638072Y-94000000D01*
X127638072Y-91000000D01*
X127625812Y-90875518D01*
X127589502Y-90755820D01*
X127530537Y-90645506D01*
X127451185Y-90548815D01*
X127354494Y-90469463D01*
X127244180Y-90410498D01*
X127124482Y-90374188D01*
X127000000Y-90361928D01*
X124000000Y-90361928D01*
X123875518Y-90374188D01*
X123755820Y-90410498D01*
X123645506Y-90469463D01*
X123548815Y-90548815D01*
X123469463Y-90645506D01*
X123410498Y-90755820D01*
X123374188Y-90875518D01*
X123361928Y-91000000D01*
X122251578Y-91000000D01*
X130835049Y-82416530D01*
X130868817Y-82388817D01*
X130979411Y-82254059D01*
X131061589Y-82100313D01*
X131112195Y-81933490D01*
X131125000Y-81803477D01*
X131125000Y-81803467D01*
X131129281Y-81760001D01*
X131125000Y-81716534D01*
X131125000Y-61694759D01*
X131295134Y-61555134D01*
X131480706Y-61329014D01*
X131510000Y-61274209D01*
X131539294Y-61329014D01*
G36*
X134079294Y-61329014D02*
X134264866Y-61555134D01*
X134435000Y-61694760D01*
X134435001Y-79018519D01*
X134430719Y-79061998D01*
X134447805Y-79235488D01*
X134498412Y-79402311D01*
X134580590Y-79556057D01*
X134663468Y-79657044D01*
X134663471Y-79657047D01*
X134691184Y-79690815D01*
X134724952Y-79718528D01*
X152701472Y-97695049D01*
X152729185Y-97728817D01*
X152762953Y-97756530D01*
X152762955Y-97756532D01*
X152834454Y-97815210D01*
X152863943Y-97839411D01*
X153017689Y-97921589D01*
X153184512Y-97972195D01*
X153314525Y-97985000D01*
X153314535Y-97985000D01*
X153358001Y-97989281D01*
X153401468Y-97985000D01*
X155515375Y-97985000D01*
X155524188Y-98074482D01*
X155536479Y-98115000D01*
X149366579Y-98115000D01*
X133665000Y-82413422D01*
X133665000Y-61694759D01*
X133835134Y-61555134D01*
X134020706Y-61329014D01*
X134050000Y-61274209D01*
X134079294Y-61329014D01*
X134079294Y-61329014D01*
G37*
X134079294Y-61329014D02*
X134264866Y-61555134D01*
X134435000Y-61694760D01*
X134435001Y-79018519D01*
X134430719Y-79061998D01*
X134447805Y-79235488D01*
X134498412Y-79402311D01*
X134580590Y-79556057D01*
X134663468Y-79657044D01*
X134663471Y-79657047D01*
X134691184Y-79690815D01*
X134724952Y-79718528D01*
X152701472Y-97695049D01*
X152729185Y-97728817D01*
X152762953Y-97756530D01*
X152762955Y-97756532D01*
X152834454Y-97815210D01*
X152863943Y-97839411D01*
X153017689Y-97921589D01*
X153184512Y-97972195D01*
X153314525Y-97985000D01*
X153314535Y-97985000D01*
X153358001Y-97989281D01*
X153401468Y-97985000D01*
X155515375Y-97985000D01*
X155524188Y-98074482D01*
X155536479Y-98115000D01*
X149366579Y-98115000D01*
X133665000Y-82413422D01*
X133665000Y-61694759D01*
X133835134Y-61555134D01*
X134020706Y-61329014D01*
X134050000Y-61274209D01*
X134079294Y-61329014D01*
G36*
X138474215Y-55662269D02*
X138370211Y-55731762D01*
X138281763Y-55820210D01*
X138212270Y-55924214D01*
X138164403Y-56039776D01*
X138140000Y-56162457D01*
X138140000Y-56464249D01*
X138298750Y-56622999D01*
X139123000Y-56622999D01*
X139123000Y-56602999D01*
X139377000Y-56602999D01*
X139377000Y-56622999D01*
X139397000Y-56622999D01*
X139397000Y-56876999D01*
X139377000Y-56876999D01*
X139377000Y-56896999D01*
X139123000Y-56896999D01*
X139123000Y-56876999D01*
X138298750Y-56876999D01*
X138140000Y-57035749D01*
X138140000Y-57337541D01*
X138164403Y-57460222D01*
X138212270Y-57575784D01*
X138281763Y-57679788D01*
X138304116Y-57702141D01*
X138284488Y-57726057D01*
X138203577Y-57877432D01*
X138153752Y-58041683D01*
X138136928Y-58212499D01*
X138136928Y-58296435D01*
X138127805Y-58326509D01*
X138110718Y-58499999D01*
X138127805Y-58673489D01*
X138136928Y-58703563D01*
X138136928Y-58787499D01*
X138153752Y-58958315D01*
X138203577Y-59122566D01*
X138284488Y-59273941D01*
X138365000Y-59372045D01*
X138365001Y-61309043D01*
X138345506Y-61319463D01*
X138248815Y-61398815D01*
X138169463Y-61495506D01*
X138110498Y-61605820D01*
X138074188Y-61725518D01*
X138061928Y-61850000D01*
X138061928Y-63150000D01*
X138074188Y-63274482D01*
X138110498Y-63394180D01*
X138169463Y-63504494D01*
X138248815Y-63601185D01*
X138345506Y-63680537D01*
X138455820Y-63739502D01*
X138575518Y-63775812D01*
X138700000Y-63788072D01*
X140700000Y-63788072D01*
X140824482Y-63775812D01*
X140944180Y-63739502D01*
X141054494Y-63680537D01*
X141151185Y-63601185D01*
X141230537Y-63504494D01*
X141289502Y-63394180D01*
X141325812Y-63274482D01*
X141338072Y-63150000D01*
X141338072Y-62139649D01*
X142293471Y-63095049D01*
X142321184Y-63128817D01*
X142354952Y-63156530D01*
X142354954Y-63156532D01*
X142455941Y-63239410D01*
X142455942Y-63239411D01*
X142609688Y-63321589D01*
X142776511Y-63372195D01*
X142906524Y-63385000D01*
X142906532Y-63385000D01*
X142950001Y-63389281D01*
X142993470Y-63385000D01*
X143107713Y-63385000D01*
X143110498Y-63394180D01*
X143169463Y-63504494D01*
X143248815Y-63601185D01*
X143345506Y-63680537D01*
X143455820Y-63739502D01*
X143575518Y-63775812D01*
X143700000Y-63788072D01*
X145700000Y-63788072D01*
X145824482Y-63775812D01*
X145944180Y-63739502D01*
X146054494Y-63680537D01*
X146151185Y-63601185D01*
X146230537Y-63504494D01*
X146289502Y-63394180D01*
X146325812Y-63274482D01*
X146338072Y-63150000D01*
X146338072Y-62237458D01*
X150540000Y-62237458D01*
X150540000Y-62714250D01*
X150698750Y-62873000D01*
X151623000Y-62873000D01*
X151623000Y-61823750D01*
X151464250Y-61665000D01*
X151112458Y-61665000D01*
X150989777Y-61689403D01*
X150874215Y-61737270D01*
X150770211Y-61806763D01*
X150681763Y-61895211D01*
X150612270Y-61999215D01*
X150564403Y-62114777D01*
X150540000Y-62237458D01*
X146338072Y-62237458D01*
X146338072Y-62113506D01*
X149215828Y-59235750D01*
X152915000Y-59235750D01*
X152915000Y-59412542D01*
X152939403Y-59535223D01*
X152987270Y-59650785D01*
X153056763Y-59754789D01*
X153145211Y-59843237D01*
X153249215Y-59912730D01*
X153364777Y-59960597D01*
X153487458Y-59985000D01*
X153714250Y-59985000D01*
X153873000Y-59826250D01*
X153873000Y-59077000D01*
X153073750Y-59077000D01*
X152915000Y-59235750D01*
X149215828Y-59235750D01*
X149566579Y-58885000D01*
X151140019Y-58885000D01*
X151195506Y-58930537D01*
X151305820Y-58989502D01*
X151425518Y-59025812D01*
X151550000Y-59038072D01*
X152450000Y-59038072D01*
X152574482Y-59025812D01*
X152694180Y-58989502D01*
X152804494Y-58930537D01*
X152901185Y-58851185D01*
X152980537Y-58754494D01*
X152989143Y-58738393D01*
X153073750Y-58823000D01*
X153873000Y-58823000D01*
X153873000Y-58803000D01*
X154015002Y-58803000D01*
X154015001Y-61258420D01*
X153611494Y-61661928D01*
X153474999Y-61661928D01*
X153301745Y-61678992D01*
X153135149Y-61729528D01*
X152981613Y-61811595D01*
X152847038Y-61922038D01*
X152841043Y-61929343D01*
X152818237Y-61895211D01*
X152729789Y-61806763D01*
X152625785Y-61737270D01*
X152510223Y-61689403D01*
X152387542Y-61665000D01*
X152035750Y-61665000D01*
X151877000Y-61823750D01*
X151877000Y-62873000D01*
X151897000Y-62873000D01*
X151897000Y-63127000D01*
X151877000Y-63127000D01*
X151877000Y-63147000D01*
X151623000Y-63147000D01*
X151623000Y-63127000D01*
X150698750Y-63127000D01*
X150540000Y-63285750D01*
X150540000Y-63762542D01*
X150564403Y-63885223D01*
X150612270Y-64000785D01*
X150681763Y-64104789D01*
X150770211Y-64193237D01*
X150874215Y-64262730D01*
X150958059Y-64297459D01*
X150931613Y-64311595D01*
X150797038Y-64422038D01*
X150686595Y-64556613D01*
X150604528Y-64710149D01*
X150583687Y-64778852D01*
X150504953Y-64843468D01*
X150504951Y-64843470D01*
X150471183Y-64871183D01*
X150443470Y-64904951D01*
X147833422Y-67515000D01*
X136738454Y-67515000D01*
X136690256Y-67482795D01*
X136501898Y-67404774D01*
X136301939Y-67365000D01*
X136205000Y-67365000D01*
X136205000Y-65350000D01*
X138061928Y-65350000D01*
X138061928Y-66650000D01*
X138074188Y-66774482D01*
X138110498Y-66894180D01*
X138169463Y-67004494D01*
X138248815Y-67101185D01*
X138345506Y-67180537D01*
X138455820Y-67239502D01*
X138575518Y-67275812D01*
X138700000Y-67288072D01*
X140700000Y-67288072D01*
X140824482Y-67275812D01*
X140944180Y-67239502D01*
X141054494Y-67180537D01*
X141151185Y-67101185D01*
X141230537Y-67004494D01*
X141289502Y-66894180D01*
X141325812Y-66774482D01*
X141338072Y-66650000D01*
X141338072Y-65350000D01*
X141325812Y-65225518D01*
X141289502Y-65105820D01*
X141230537Y-64995506D01*
X141151185Y-64898815D01*
X141054494Y-64819463D01*
X140944180Y-64760498D01*
X140824482Y-64724188D01*
X140700000Y-64711928D01*
X138700000Y-64711928D01*
X138575518Y-64724188D01*
X138455820Y-64760498D01*
X138345506Y-64819463D01*
X138248815Y-64898815D01*
X138169463Y-64995506D01*
X138110498Y-65105820D01*
X138074188Y-65225518D01*
X138061928Y-65350000D01*
X136205000Y-65350000D01*
X136205000Y-61694759D01*
X136375134Y-61555134D01*
X136560706Y-61329014D01*
X136698599Y-61071034D01*
X136783513Y-60791111D01*
X136812185Y-60500000D01*
X136783513Y-60208889D01*
X136698599Y-59928966D01*
X136560706Y-59670986D01*
X136375134Y-59444866D01*
X136149014Y-59259294D01*
X135891034Y-59121401D01*
X135611111Y-59036487D01*
X135392950Y-59015000D01*
X135247050Y-59015000D01*
X135028889Y-59036487D01*
X134748966Y-59121401D01*
X134490986Y-59259294D01*
X134264866Y-59444866D01*
X134079294Y-59670986D01*
X134050000Y-59725791D01*
X134020706Y-59670986D01*
X133835134Y-59444866D01*
X133609014Y-59259294D01*
X133351034Y-59121401D01*
X133071111Y-59036487D01*
X132852950Y-59015000D01*
X132707050Y-59015000D01*
X132488889Y-59036487D01*
X132208966Y-59121401D01*
X131950986Y-59259294D01*
X131724866Y-59444866D01*
X131539294Y-59670986D01*
X131510000Y-59725791D01*
X131480706Y-59670986D01*
X131295134Y-59444866D01*
X131069014Y-59259294D01*
X130811034Y-59121401D01*
X130531111Y-59036487D01*
X130312950Y-59015000D01*
X130167050Y-59015000D01*
X129948889Y-59036487D01*
X129668966Y-59121401D01*
X129410986Y-59259294D01*
X129184866Y-59444866D01*
X129162144Y-59472553D01*
X129160597Y-59464777D01*
X129112730Y-59349215D01*
X129043237Y-59245211D01*
X128954789Y-59156763D01*
X128850785Y-59087270D01*
X128735223Y-59039403D01*
X128612542Y-59015000D01*
X127985750Y-59015000D01*
X127827000Y-59173750D01*
X127827000Y-60373000D01*
X127847000Y-60373000D01*
X127847000Y-60627000D01*
X127827000Y-60627000D01*
X127827000Y-61826250D01*
X127985750Y-61985000D01*
X128612542Y-61985000D01*
X128735223Y-61960597D01*
X128850785Y-61912730D01*
X128954789Y-61843237D01*
X129043237Y-61754789D01*
X129112730Y-61650785D01*
X129160597Y-61535223D01*
X129162144Y-61527447D01*
X129184866Y-61555134D01*
X129355001Y-61694760D01*
X129355000Y-63956523D01*
X129355000Y-63956524D01*
X129355001Y-81393420D01*
X114533422Y-96215000D01*
X107484625Y-96215000D01*
X107475812Y-96125518D01*
X107439502Y-96005820D01*
X107380537Y-95895506D01*
X107301185Y-95798815D01*
X107204494Y-95719463D01*
X107094180Y-95660498D01*
X107025313Y-95639607D01*
X107055134Y-95615134D01*
X107240706Y-95389014D01*
X107378599Y-95131034D01*
X107463513Y-94851111D01*
X107492185Y-94560000D01*
X107470612Y-94340966D01*
X117477536Y-84334042D01*
X118015000Y-84334042D01*
X118015000Y-84665958D01*
X118079754Y-84991496D01*
X118206772Y-85298147D01*
X118391175Y-85574125D01*
X118625875Y-85808825D01*
X118901853Y-85993228D01*
X119208504Y-86120246D01*
X119534042Y-86185000D01*
X119865958Y-86185000D01*
X120191496Y-86120246D01*
X120498147Y-85993228D01*
X120774125Y-85808825D01*
X121008825Y-85574125D01*
X121193228Y-85298147D01*
X121320246Y-84991496D01*
X121385000Y-84665958D01*
X121385000Y-84334042D01*
X121320246Y-84008504D01*
X121193228Y-83701853D01*
X121008825Y-83425875D01*
X120774125Y-83191175D01*
X120498147Y-83006772D01*
X120191496Y-82879754D01*
X119865958Y-82815000D01*
X119534042Y-82815000D01*
X119208504Y-82879754D01*
X118901853Y-83006772D01*
X118625875Y-83191175D01*
X118391175Y-83425875D01*
X118206772Y-83701853D01*
X118079754Y-84008504D01*
X118015000Y-84334042D01*
X117477536Y-84334042D01*
X126969586Y-74841993D01*
X127098102Y-74895226D01*
X127298061Y-74935000D01*
X127501939Y-74935000D01*
X127701898Y-74895226D01*
X127890256Y-74817205D01*
X128059774Y-74703937D01*
X128203937Y-74559774D01*
X128317205Y-74390256D01*
X128395226Y-74201898D01*
X128435000Y-74001939D01*
X128435000Y-73798061D01*
X128395226Y-73598102D01*
X128317205Y-73409744D01*
X128203937Y-73240226D01*
X128059774Y-73096063D01*
X127890256Y-72982795D01*
X127701898Y-72904774D01*
X127501939Y-72865000D01*
X127298061Y-72865000D01*
X127138072Y-72896824D01*
X127138072Y-70000000D01*
X127125812Y-69875518D01*
X127089502Y-69755820D01*
X127030537Y-69645506D01*
X126951185Y-69548815D01*
X126854494Y-69469463D01*
X126744180Y-69410498D01*
X126624482Y-69374188D01*
X126500000Y-69361928D01*
X123500000Y-69361928D01*
X123375518Y-69374188D01*
X123255820Y-69410498D01*
X123145506Y-69469463D01*
X123048815Y-69548815D01*
X122969463Y-69645506D01*
X122910498Y-69755820D01*
X122874188Y-69875518D01*
X122861928Y-70000000D01*
X122861928Y-73000000D01*
X122874188Y-73124482D01*
X122910498Y-73244180D01*
X122969463Y-73354494D01*
X123048815Y-73451185D01*
X123145506Y-73530537D01*
X123255820Y-73589502D01*
X123375518Y-73625812D01*
X123500000Y-73638072D01*
X125670349Y-73638072D01*
X113100501Y-86207920D01*
X113125812Y-86124482D01*
X113138072Y-86000000D01*
X113138072Y-83000000D01*
X113125812Y-82875518D01*
X113089502Y-82755820D01*
X113030537Y-82645506D01*
X112951185Y-82548815D01*
X112854494Y-82469463D01*
X112744180Y-82410498D01*
X112624482Y-82374188D01*
X112500000Y-82361928D01*
X109500000Y-82361928D01*
X109375518Y-82374188D01*
X109255820Y-82410498D01*
X109145506Y-82469463D01*
X109048815Y-82548815D01*
X108969463Y-82645506D01*
X108910498Y-82755820D01*
X108874188Y-82875518D01*
X108861928Y-83000000D01*
X108861928Y-86000000D01*
X108874188Y-86124482D01*
X108910498Y-86244180D01*
X108969463Y-86354494D01*
X109048815Y-86451185D01*
X109145506Y-86530537D01*
X109255820Y-86589502D01*
X109375518Y-86625812D01*
X109500000Y-86638072D01*
X112500000Y-86638072D01*
X112624482Y-86625812D01*
X112707920Y-86600501D01*
X108264576Y-91043846D01*
X108312710Y-90953793D01*
X108350450Y-90829383D01*
X108363193Y-90700000D01*
X108360000Y-90667581D01*
X108360000Y-70000000D01*
X108861928Y-70000000D01*
X108861928Y-73000000D01*
X108874188Y-73124482D01*
X108910498Y-73244180D01*
X108969463Y-73354494D01*
X109048815Y-73451185D01*
X109145506Y-73530537D01*
X109255820Y-73589502D01*
X109375518Y-73625812D01*
X109500000Y-73638072D01*
X112500000Y-73638072D01*
X112624482Y-73625812D01*
X112744180Y-73589502D01*
X112854494Y-73530537D01*
X112951185Y-73451185D01*
X113030537Y-73354494D01*
X113089502Y-73244180D01*
X113125812Y-73124482D01*
X113138072Y-73000000D01*
X113138072Y-70000000D01*
X113125812Y-69875518D01*
X113089502Y-69755820D01*
X113030537Y-69645506D01*
X112951185Y-69548815D01*
X112854494Y-69469463D01*
X112744180Y-69410498D01*
X112624482Y-69374188D01*
X112500000Y-69361928D01*
X109500000Y-69361928D01*
X109375518Y-69374188D01*
X109255820Y-69410498D01*
X109145506Y-69469463D01*
X109048815Y-69548815D01*
X108969463Y-69645506D01*
X108910498Y-69755820D01*
X108874188Y-69875518D01*
X108861928Y-70000000D01*
X108360000Y-70000000D01*
X108360000Y-65432418D01*
X108363193Y-65400000D01*
X108350450Y-65270617D01*
X108312710Y-65146207D01*
X108251425Y-65031550D01*
X108168948Y-64931052D01*
X108068450Y-64848575D01*
X107953793Y-64787290D01*
X107829383Y-64749550D01*
X107732419Y-64740000D01*
X107700000Y-64736807D01*
X107667581Y-64740000D01*
X107331046Y-64740000D01*
X107378599Y-64651034D01*
X107463513Y-64371111D01*
X107492185Y-64080000D01*
X107463513Y-63788889D01*
X107378599Y-63508966D01*
X107240706Y-63250986D01*
X107055134Y-63024866D01*
X106829014Y-62839294D01*
X106774209Y-62810000D01*
X106829014Y-62780706D01*
X107055134Y-62595134D01*
X107240706Y-62369014D01*
X107378599Y-62111034D01*
X107463513Y-61831111D01*
X107492185Y-61540000D01*
X107463513Y-61248889D01*
X107378599Y-60968966D01*
X107280669Y-60785750D01*
X126215000Y-60785750D01*
X126215000Y-61412542D01*
X126239403Y-61535223D01*
X126287270Y-61650785D01*
X126356763Y-61754789D01*
X126445211Y-61843237D01*
X126549215Y-61912730D01*
X126664777Y-61960597D01*
X126787458Y-61985000D01*
X127414250Y-61985000D01*
X127573000Y-61826250D01*
X127573000Y-60627000D01*
X126373750Y-60627000D01*
X126215000Y-60785750D01*
X107280669Y-60785750D01*
X107240706Y-60710986D01*
X107055134Y-60484866D01*
X107027447Y-60462144D01*
X107035223Y-60460597D01*
X107150785Y-60412730D01*
X107254789Y-60343237D01*
X107343237Y-60254789D01*
X107412730Y-60150785D01*
X107460597Y-60035223D01*
X107485000Y-59912542D01*
X107485000Y-59587458D01*
X126215000Y-59587458D01*
X126215000Y-60214250D01*
X126373750Y-60373000D01*
X127573000Y-60373000D01*
X127573000Y-59173750D01*
X127414250Y-59015000D01*
X126787458Y-59015000D01*
X126664777Y-59039403D01*
X126549215Y-59087270D01*
X126445211Y-59156763D01*
X126356763Y-59245211D01*
X126287270Y-59349215D01*
X126239403Y-59464777D01*
X126215000Y-59587458D01*
X107485000Y-59587458D01*
X107485000Y-59285750D01*
X107326250Y-59127000D01*
X106127000Y-59127000D01*
X106127000Y-59147000D01*
X105873000Y-59147000D01*
X105873000Y-59127000D01*
X105853000Y-59127000D01*
X105853000Y-58873000D01*
X105873000Y-58873000D01*
X105873000Y-57673750D01*
X106127000Y-57673750D01*
X106127000Y-58873000D01*
X107326250Y-58873000D01*
X107485000Y-58714250D01*
X107485000Y-58087458D01*
X107460597Y-57964777D01*
X107412730Y-57849215D01*
X107343237Y-57745211D01*
X107254789Y-57656763D01*
X107150785Y-57587270D01*
X107035223Y-57539403D01*
X106912542Y-57515000D01*
X106285750Y-57515000D01*
X106127000Y-57673750D01*
X105873000Y-57673750D01*
X105714250Y-57515000D01*
X105087458Y-57515000D01*
X104964777Y-57539403D01*
X104849215Y-57587270D01*
X104745211Y-57656763D01*
X104660000Y-57741974D01*
X104660000Y-55660000D01*
X138479693Y-55660000D01*
X138474215Y-55662269D01*
X138474215Y-55662269D01*
G37*
X138474215Y-55662269D02*
X138370211Y-55731762D01*
X138281763Y-55820210D01*
X138212270Y-55924214D01*
X138164403Y-56039776D01*
X138140000Y-56162457D01*
X138140000Y-56464249D01*
X138298750Y-56622999D01*
X139123000Y-56622999D01*
X139123000Y-56602999D01*
X139377000Y-56602999D01*
X139377000Y-56622999D01*
X139397000Y-56622999D01*
X139397000Y-56876999D01*
X139377000Y-56876999D01*
X139377000Y-56896999D01*
X139123000Y-56896999D01*
X139123000Y-56876999D01*
X138298750Y-56876999D01*
X138140000Y-57035749D01*
X138140000Y-57337541D01*
X138164403Y-57460222D01*
X138212270Y-57575784D01*
X138281763Y-57679788D01*
X138304116Y-57702141D01*
X138284488Y-57726057D01*
X138203577Y-57877432D01*
X138153752Y-58041683D01*
X138136928Y-58212499D01*
X138136928Y-58296435D01*
X138127805Y-58326509D01*
X138110718Y-58499999D01*
X138127805Y-58673489D01*
X138136928Y-58703563D01*
X138136928Y-58787499D01*
X138153752Y-58958315D01*
X138203577Y-59122566D01*
X138284488Y-59273941D01*
X138365000Y-59372045D01*
X138365001Y-61309043D01*
X138345506Y-61319463D01*
X138248815Y-61398815D01*
X138169463Y-61495506D01*
X138110498Y-61605820D01*
X138074188Y-61725518D01*
X138061928Y-61850000D01*
X138061928Y-63150000D01*
X138074188Y-63274482D01*
X138110498Y-63394180D01*
X138169463Y-63504494D01*
X138248815Y-63601185D01*
X138345506Y-63680537D01*
X138455820Y-63739502D01*
X138575518Y-63775812D01*
X138700000Y-63788072D01*
X140700000Y-63788072D01*
X140824482Y-63775812D01*
X140944180Y-63739502D01*
X141054494Y-63680537D01*
X141151185Y-63601185D01*
X141230537Y-63504494D01*
X141289502Y-63394180D01*
X141325812Y-63274482D01*
X141338072Y-63150000D01*
X141338072Y-62139649D01*
X142293471Y-63095049D01*
X142321184Y-63128817D01*
X142354952Y-63156530D01*
X142354954Y-63156532D01*
X142455941Y-63239410D01*
X142455942Y-63239411D01*
X142609688Y-63321589D01*
X142776511Y-63372195D01*
X142906524Y-63385000D01*
X142906532Y-63385000D01*
X142950001Y-63389281D01*
X142993470Y-63385000D01*
X143107713Y-63385000D01*
X143110498Y-63394180D01*
X143169463Y-63504494D01*
X143248815Y-63601185D01*
X143345506Y-63680537D01*
X143455820Y-63739502D01*
X143575518Y-63775812D01*
X143700000Y-63788072D01*
X145700000Y-63788072D01*
X145824482Y-63775812D01*
X145944180Y-63739502D01*
X146054494Y-63680537D01*
X146151185Y-63601185D01*
X146230537Y-63504494D01*
X146289502Y-63394180D01*
X146325812Y-63274482D01*
X146338072Y-63150000D01*
X146338072Y-62237458D01*
X150540000Y-62237458D01*
X150540000Y-62714250D01*
X150698750Y-62873000D01*
X151623000Y-62873000D01*
X151623000Y-61823750D01*
X151464250Y-61665000D01*
X151112458Y-61665000D01*
X150989777Y-61689403D01*
X150874215Y-61737270D01*
X150770211Y-61806763D01*
X150681763Y-61895211D01*
X150612270Y-61999215D01*
X150564403Y-62114777D01*
X150540000Y-62237458D01*
X146338072Y-62237458D01*
X146338072Y-62113506D01*
X149215828Y-59235750D01*
X152915000Y-59235750D01*
X152915000Y-59412542D01*
X152939403Y-59535223D01*
X152987270Y-59650785D01*
X153056763Y-59754789D01*
X153145211Y-59843237D01*
X153249215Y-59912730D01*
X153364777Y-59960597D01*
X153487458Y-59985000D01*
X153714250Y-59985000D01*
X153873000Y-59826250D01*
X153873000Y-59077000D01*
X153073750Y-59077000D01*
X152915000Y-59235750D01*
X149215828Y-59235750D01*
X149566579Y-58885000D01*
X151140019Y-58885000D01*
X151195506Y-58930537D01*
X151305820Y-58989502D01*
X151425518Y-59025812D01*
X151550000Y-59038072D01*
X152450000Y-59038072D01*
X152574482Y-59025812D01*
X152694180Y-58989502D01*
X152804494Y-58930537D01*
X152901185Y-58851185D01*
X152980537Y-58754494D01*
X152989143Y-58738393D01*
X153073750Y-58823000D01*
X153873000Y-58823000D01*
X153873000Y-58803000D01*
X154015002Y-58803000D01*
X154015001Y-61258420D01*
X153611494Y-61661928D01*
X153474999Y-61661928D01*
X153301745Y-61678992D01*
X153135149Y-61729528D01*
X152981613Y-61811595D01*
X152847038Y-61922038D01*
X152841043Y-61929343D01*
X152818237Y-61895211D01*
X152729789Y-61806763D01*
X152625785Y-61737270D01*
X152510223Y-61689403D01*
X152387542Y-61665000D01*
X152035750Y-61665000D01*
X151877000Y-61823750D01*
X151877000Y-62873000D01*
X151897000Y-62873000D01*
X151897000Y-63127000D01*
X151877000Y-63127000D01*
X151877000Y-63147000D01*
X151623000Y-63147000D01*
X151623000Y-63127000D01*
X150698750Y-63127000D01*
X150540000Y-63285750D01*
X150540000Y-63762542D01*
X150564403Y-63885223D01*
X150612270Y-64000785D01*
X150681763Y-64104789D01*
X150770211Y-64193237D01*
X150874215Y-64262730D01*
X150958059Y-64297459D01*
X150931613Y-64311595D01*
X150797038Y-64422038D01*
X150686595Y-64556613D01*
X150604528Y-64710149D01*
X150583687Y-64778852D01*
X150504953Y-64843468D01*
X150504951Y-64843470D01*
X150471183Y-64871183D01*
X150443470Y-64904951D01*
X147833422Y-67515000D01*
X136738454Y-67515000D01*
X136690256Y-67482795D01*
X136501898Y-67404774D01*
X136301939Y-67365000D01*
X136205000Y-67365000D01*
X136205000Y-65350000D01*
X138061928Y-65350000D01*
X138061928Y-66650000D01*
X138074188Y-66774482D01*
X138110498Y-66894180D01*
X138169463Y-67004494D01*
X138248815Y-67101185D01*
X138345506Y-67180537D01*
X138455820Y-67239502D01*
X138575518Y-67275812D01*
X138700000Y-67288072D01*
X140700000Y-67288072D01*
X140824482Y-67275812D01*
X140944180Y-67239502D01*
X141054494Y-67180537D01*
X141151185Y-67101185D01*
X141230537Y-67004494D01*
X141289502Y-66894180D01*
X141325812Y-66774482D01*
X141338072Y-66650000D01*
X141338072Y-65350000D01*
X141325812Y-65225518D01*
X141289502Y-65105820D01*
X141230537Y-64995506D01*
X141151185Y-64898815D01*
X141054494Y-64819463D01*
X140944180Y-64760498D01*
X140824482Y-64724188D01*
X140700000Y-64711928D01*
X138700000Y-64711928D01*
X138575518Y-64724188D01*
X138455820Y-64760498D01*
X138345506Y-64819463D01*
X138248815Y-64898815D01*
X138169463Y-64995506D01*
X138110498Y-65105820D01*
X138074188Y-65225518D01*
X138061928Y-65350000D01*
X136205000Y-65350000D01*
X136205000Y-61694759D01*
X136375134Y-61555134D01*
X136560706Y-61329014D01*
X136698599Y-61071034D01*
X136783513Y-60791111D01*
X136812185Y-60500000D01*
X136783513Y-60208889D01*
X136698599Y-59928966D01*
X136560706Y-59670986D01*
X136375134Y-59444866D01*
X136149014Y-59259294D01*
X135891034Y-59121401D01*
X135611111Y-59036487D01*
X135392950Y-59015000D01*
X135247050Y-59015000D01*
X135028889Y-59036487D01*
X134748966Y-59121401D01*
X134490986Y-59259294D01*
X134264866Y-59444866D01*
X134079294Y-59670986D01*
X134050000Y-59725791D01*
X134020706Y-59670986D01*
X133835134Y-59444866D01*
X133609014Y-59259294D01*
X133351034Y-59121401D01*
X133071111Y-59036487D01*
X132852950Y-59015000D01*
X132707050Y-59015000D01*
X132488889Y-59036487D01*
X132208966Y-59121401D01*
X131950986Y-59259294D01*
X131724866Y-59444866D01*
X131539294Y-59670986D01*
X131510000Y-59725791D01*
X131480706Y-59670986D01*
X131295134Y-59444866D01*
X131069014Y-59259294D01*
X130811034Y-59121401D01*
X130531111Y-59036487D01*
X130312950Y-59015000D01*
X130167050Y-59015000D01*
X129948889Y-59036487D01*
X129668966Y-59121401D01*
X129410986Y-59259294D01*
X129184866Y-59444866D01*
X129162144Y-59472553D01*
X129160597Y-59464777D01*
X129112730Y-59349215D01*
X129043237Y-59245211D01*
X128954789Y-59156763D01*
X128850785Y-59087270D01*
X128735223Y-59039403D01*
X128612542Y-59015000D01*
X127985750Y-59015000D01*
X127827000Y-59173750D01*
X127827000Y-60373000D01*
X127847000Y-60373000D01*
X127847000Y-60627000D01*
X127827000Y-60627000D01*
X127827000Y-61826250D01*
X127985750Y-61985000D01*
X128612542Y-61985000D01*
X128735223Y-61960597D01*
X128850785Y-61912730D01*
X128954789Y-61843237D01*
X129043237Y-61754789D01*
X129112730Y-61650785D01*
X129160597Y-61535223D01*
X129162144Y-61527447D01*
X129184866Y-61555134D01*
X129355001Y-61694760D01*
X129355000Y-63956523D01*
X129355000Y-63956524D01*
X129355001Y-81393420D01*
X114533422Y-96215000D01*
X107484625Y-96215000D01*
X107475812Y-96125518D01*
X107439502Y-96005820D01*
X107380537Y-95895506D01*
X107301185Y-95798815D01*
X107204494Y-95719463D01*
X107094180Y-95660498D01*
X107025313Y-95639607D01*
X107055134Y-95615134D01*
X107240706Y-95389014D01*
X107378599Y-95131034D01*
X107463513Y-94851111D01*
X107492185Y-94560000D01*
X107470612Y-94340966D01*
X117477536Y-84334042D01*
X118015000Y-84334042D01*
X118015000Y-84665958D01*
X118079754Y-84991496D01*
X118206772Y-85298147D01*
X118391175Y-85574125D01*
X118625875Y-85808825D01*
X118901853Y-85993228D01*
X119208504Y-86120246D01*
X119534042Y-86185000D01*
X119865958Y-86185000D01*
X120191496Y-86120246D01*
X120498147Y-85993228D01*
X120774125Y-85808825D01*
X121008825Y-85574125D01*
X121193228Y-85298147D01*
X121320246Y-84991496D01*
X121385000Y-84665958D01*
X121385000Y-84334042D01*
X121320246Y-84008504D01*
X121193228Y-83701853D01*
X121008825Y-83425875D01*
X120774125Y-83191175D01*
X120498147Y-83006772D01*
X120191496Y-82879754D01*
X119865958Y-82815000D01*
X119534042Y-82815000D01*
X119208504Y-82879754D01*
X118901853Y-83006772D01*
X118625875Y-83191175D01*
X118391175Y-83425875D01*
X118206772Y-83701853D01*
X118079754Y-84008504D01*
X118015000Y-84334042D01*
X117477536Y-84334042D01*
X126969586Y-74841993D01*
X127098102Y-74895226D01*
X127298061Y-74935000D01*
X127501939Y-74935000D01*
X127701898Y-74895226D01*
X127890256Y-74817205D01*
X128059774Y-74703937D01*
X128203937Y-74559774D01*
X128317205Y-74390256D01*
X128395226Y-74201898D01*
X128435000Y-74001939D01*
X128435000Y-73798061D01*
X128395226Y-73598102D01*
X128317205Y-73409744D01*
X128203937Y-73240226D01*
X128059774Y-73096063D01*
X127890256Y-72982795D01*
X127701898Y-72904774D01*
X127501939Y-72865000D01*
X127298061Y-72865000D01*
X127138072Y-72896824D01*
X127138072Y-70000000D01*
X127125812Y-69875518D01*
X127089502Y-69755820D01*
X127030537Y-69645506D01*
X126951185Y-69548815D01*
X126854494Y-69469463D01*
X126744180Y-69410498D01*
X126624482Y-69374188D01*
X126500000Y-69361928D01*
X123500000Y-69361928D01*
X123375518Y-69374188D01*
X123255820Y-69410498D01*
X123145506Y-69469463D01*
X123048815Y-69548815D01*
X122969463Y-69645506D01*
X122910498Y-69755820D01*
X122874188Y-69875518D01*
X122861928Y-70000000D01*
X122861928Y-73000000D01*
X122874188Y-73124482D01*
X122910498Y-73244180D01*
X122969463Y-73354494D01*
X123048815Y-73451185D01*
X123145506Y-73530537D01*
X123255820Y-73589502D01*
X123375518Y-73625812D01*
X123500000Y-73638072D01*
X125670349Y-73638072D01*
X113100501Y-86207920D01*
X113125812Y-86124482D01*
X113138072Y-86000000D01*
X113138072Y-83000000D01*
X113125812Y-82875518D01*
X113089502Y-82755820D01*
X113030537Y-82645506D01*
X112951185Y-82548815D01*
X112854494Y-82469463D01*
X112744180Y-82410498D01*
X112624482Y-82374188D01*
X112500000Y-82361928D01*
X109500000Y-82361928D01*
X109375518Y-82374188D01*
X109255820Y-82410498D01*
X109145506Y-82469463D01*
X109048815Y-82548815D01*
X108969463Y-82645506D01*
X108910498Y-82755820D01*
X108874188Y-82875518D01*
X108861928Y-83000000D01*
X108861928Y-86000000D01*
X108874188Y-86124482D01*
X108910498Y-86244180D01*
X108969463Y-86354494D01*
X109048815Y-86451185D01*
X109145506Y-86530537D01*
X109255820Y-86589502D01*
X109375518Y-86625812D01*
X109500000Y-86638072D01*
X112500000Y-86638072D01*
X112624482Y-86625812D01*
X112707920Y-86600501D01*
X108264576Y-91043846D01*
X108312710Y-90953793D01*
X108350450Y-90829383D01*
X108363193Y-90700000D01*
X108360000Y-90667581D01*
X108360000Y-70000000D01*
X108861928Y-70000000D01*
X108861928Y-73000000D01*
X108874188Y-73124482D01*
X108910498Y-73244180D01*
X108969463Y-73354494D01*
X109048815Y-73451185D01*
X109145506Y-73530537D01*
X109255820Y-73589502D01*
X109375518Y-73625812D01*
X109500000Y-73638072D01*
X112500000Y-73638072D01*
X112624482Y-73625812D01*
X112744180Y-73589502D01*
X112854494Y-73530537D01*
X112951185Y-73451185D01*
X113030537Y-73354494D01*
X113089502Y-73244180D01*
X113125812Y-73124482D01*
X113138072Y-73000000D01*
X113138072Y-70000000D01*
X113125812Y-69875518D01*
X113089502Y-69755820D01*
X113030537Y-69645506D01*
X112951185Y-69548815D01*
X112854494Y-69469463D01*
X112744180Y-69410498D01*
X112624482Y-69374188D01*
X112500000Y-69361928D01*
X109500000Y-69361928D01*
X109375518Y-69374188D01*
X109255820Y-69410498D01*
X109145506Y-69469463D01*
X109048815Y-69548815D01*
X108969463Y-69645506D01*
X108910498Y-69755820D01*
X108874188Y-69875518D01*
X108861928Y-70000000D01*
X108360000Y-70000000D01*
X108360000Y-65432418D01*
X108363193Y-65400000D01*
X108350450Y-65270617D01*
X108312710Y-65146207D01*
X108251425Y-65031550D01*
X108168948Y-64931052D01*
X108068450Y-64848575D01*
X107953793Y-64787290D01*
X107829383Y-64749550D01*
X107732419Y-64740000D01*
X107700000Y-64736807D01*
X107667581Y-64740000D01*
X107331046Y-64740000D01*
X107378599Y-64651034D01*
X107463513Y-64371111D01*
X107492185Y-64080000D01*
X107463513Y-63788889D01*
X107378599Y-63508966D01*
X107240706Y-63250986D01*
X107055134Y-63024866D01*
X106829014Y-62839294D01*
X106774209Y-62810000D01*
X106829014Y-62780706D01*
X107055134Y-62595134D01*
X107240706Y-62369014D01*
X107378599Y-62111034D01*
X107463513Y-61831111D01*
X107492185Y-61540000D01*
X107463513Y-61248889D01*
X107378599Y-60968966D01*
X107280669Y-60785750D01*
X126215000Y-60785750D01*
X126215000Y-61412542D01*
X126239403Y-61535223D01*
X126287270Y-61650785D01*
X126356763Y-61754789D01*
X126445211Y-61843237D01*
X126549215Y-61912730D01*
X126664777Y-61960597D01*
X126787458Y-61985000D01*
X127414250Y-61985000D01*
X127573000Y-61826250D01*
X127573000Y-60627000D01*
X126373750Y-60627000D01*
X126215000Y-60785750D01*
X107280669Y-60785750D01*
X107240706Y-60710986D01*
X107055134Y-60484866D01*
X107027447Y-60462144D01*
X107035223Y-60460597D01*
X107150785Y-60412730D01*
X107254789Y-60343237D01*
X107343237Y-60254789D01*
X107412730Y-60150785D01*
X107460597Y-60035223D01*
X107485000Y-59912542D01*
X107485000Y-59587458D01*
X126215000Y-59587458D01*
X126215000Y-60214250D01*
X126373750Y-60373000D01*
X127573000Y-60373000D01*
X127573000Y-59173750D01*
X127414250Y-59015000D01*
X126787458Y-59015000D01*
X126664777Y-59039403D01*
X126549215Y-59087270D01*
X126445211Y-59156763D01*
X126356763Y-59245211D01*
X126287270Y-59349215D01*
X126239403Y-59464777D01*
X126215000Y-59587458D01*
X107485000Y-59587458D01*
X107485000Y-59285750D01*
X107326250Y-59127000D01*
X106127000Y-59127000D01*
X106127000Y-59147000D01*
X105873000Y-59147000D01*
X105873000Y-59127000D01*
X105853000Y-59127000D01*
X105853000Y-58873000D01*
X105873000Y-58873000D01*
X105873000Y-57673750D01*
X106127000Y-57673750D01*
X106127000Y-58873000D01*
X107326250Y-58873000D01*
X107485000Y-58714250D01*
X107485000Y-58087458D01*
X107460597Y-57964777D01*
X107412730Y-57849215D01*
X107343237Y-57745211D01*
X107254789Y-57656763D01*
X107150785Y-57587270D01*
X107035223Y-57539403D01*
X106912542Y-57515000D01*
X106285750Y-57515000D01*
X106127000Y-57673750D01*
X105873000Y-57673750D01*
X105714250Y-57515000D01*
X105087458Y-57515000D01*
X104964777Y-57539403D01*
X104849215Y-57587270D01*
X104745211Y-57656763D01*
X104660000Y-57741974D01*
X104660000Y-55660000D01*
X138479693Y-55660000D01*
X138474215Y-55662269D01*
G36*
X152847038Y-66577962D02*
X152981613Y-66688405D01*
X153135149Y-66770472D01*
X153301745Y-66821008D01*
X153474999Y-66838072D01*
X154125001Y-66838072D01*
X154298255Y-66821008D01*
X154464851Y-66770472D01*
X154618387Y-66688405D01*
X154640000Y-66670668D01*
X154640001Y-90667571D01*
X154636807Y-90700000D01*
X154649550Y-90829383D01*
X154687290Y-90953793D01*
X154748575Y-91068450D01*
X154831052Y-91168948D01*
X154931550Y-91251425D01*
X155046207Y-91312710D01*
X155170617Y-91350450D01*
X155267581Y-91360000D01*
X155300000Y-91363193D01*
X155332419Y-91360000D01*
X155668954Y-91360000D01*
X155621401Y-91448966D01*
X155536487Y-91728889D01*
X155507815Y-92020000D01*
X155536487Y-92311111D01*
X155621401Y-92591034D01*
X155759294Y-92849014D01*
X155944866Y-93075134D01*
X156170986Y-93260706D01*
X156225791Y-93290000D01*
X156170986Y-93319294D01*
X155944866Y-93504866D01*
X155759294Y-93730986D01*
X155621401Y-93988966D01*
X155536487Y-94268889D01*
X155507815Y-94560000D01*
X155536487Y-94851111D01*
X155621401Y-95131034D01*
X155759294Y-95389014D01*
X155944866Y-95615134D01*
X155974687Y-95639607D01*
X155905820Y-95660498D01*
X155795506Y-95719463D01*
X155698815Y-95798815D01*
X155619463Y-95895506D01*
X155560498Y-96005820D01*
X155524188Y-96125518D01*
X155515375Y-96215000D01*
X153724581Y-96215000D01*
X143656649Y-86147069D01*
X143791496Y-86120246D01*
X144098147Y-85993228D01*
X144374125Y-85808825D01*
X144608825Y-85574125D01*
X144793228Y-85298147D01*
X144920246Y-84991496D01*
X144985000Y-84665958D01*
X144985000Y-84334042D01*
X144920246Y-84008504D01*
X144793228Y-83701853D01*
X144608825Y-83425875D01*
X144374125Y-83191175D01*
X144098147Y-83006772D01*
X144081798Y-83000000D01*
X149861928Y-83000000D01*
X149861928Y-86000000D01*
X149874188Y-86124482D01*
X149910498Y-86244180D01*
X149969463Y-86354494D01*
X150048815Y-86451185D01*
X150145506Y-86530537D01*
X150255820Y-86589502D01*
X150375518Y-86625812D01*
X150500000Y-86638072D01*
X153500000Y-86638072D01*
X153624482Y-86625812D01*
X153744180Y-86589502D01*
X153854494Y-86530537D01*
X153951185Y-86451185D01*
X154030537Y-86354494D01*
X154089502Y-86244180D01*
X154125812Y-86124482D01*
X154138072Y-86000000D01*
X154138072Y-83000000D01*
X154125812Y-82875518D01*
X154089502Y-82755820D01*
X154030537Y-82645506D01*
X153951185Y-82548815D01*
X153854494Y-82469463D01*
X153744180Y-82410498D01*
X153624482Y-82374188D01*
X153500000Y-82361928D01*
X150500000Y-82361928D01*
X150375518Y-82374188D01*
X150255820Y-82410498D01*
X150145506Y-82469463D01*
X150048815Y-82548815D01*
X149969463Y-82645506D01*
X149910498Y-82755820D01*
X149874188Y-82875518D01*
X149861928Y-83000000D01*
X144081798Y-83000000D01*
X143791496Y-82879754D01*
X143465958Y-82815000D01*
X143134042Y-82815000D01*
X142808504Y-82879754D01*
X142501853Y-83006772D01*
X142225875Y-83191175D01*
X141991175Y-83425875D01*
X141806772Y-83701853D01*
X141679754Y-84008504D01*
X141652931Y-84143351D01*
X136205000Y-78695420D01*
X136205000Y-73562338D01*
X136255820Y-73589502D01*
X136375518Y-73625812D01*
X136500000Y-73638072D01*
X139500000Y-73638072D01*
X139624482Y-73625812D01*
X139744180Y-73589502D01*
X139854494Y-73530537D01*
X139951185Y-73451185D01*
X140030537Y-73354494D01*
X140089502Y-73244180D01*
X140125812Y-73124482D01*
X140138072Y-73000000D01*
X140138072Y-70000000D01*
X149861928Y-70000000D01*
X149861928Y-73000000D01*
X149874188Y-73124482D01*
X149910498Y-73244180D01*
X149969463Y-73354494D01*
X150048815Y-73451185D01*
X150145506Y-73530537D01*
X150255820Y-73589502D01*
X150375518Y-73625812D01*
X150500000Y-73638072D01*
X153500000Y-73638072D01*
X153624482Y-73625812D01*
X153744180Y-73589502D01*
X153854494Y-73530537D01*
X153951185Y-73451185D01*
X154030537Y-73354494D01*
X154089502Y-73244180D01*
X154125812Y-73124482D01*
X154138072Y-73000000D01*
X154138072Y-70000000D01*
X154125812Y-69875518D01*
X154089502Y-69755820D01*
X154030537Y-69645506D01*
X153951185Y-69548815D01*
X153854494Y-69469463D01*
X153744180Y-69410498D01*
X153624482Y-69374188D01*
X153500000Y-69361928D01*
X150500000Y-69361928D01*
X150375518Y-69374188D01*
X150255820Y-69410498D01*
X150145506Y-69469463D01*
X150048815Y-69548815D01*
X149969463Y-69645506D01*
X149910498Y-69755820D01*
X149874188Y-69875518D01*
X149861928Y-70000000D01*
X140138072Y-70000000D01*
X140125812Y-69875518D01*
X140089502Y-69755820D01*
X140030537Y-69645506D01*
X139951185Y-69548815D01*
X139854494Y-69469463D01*
X139744180Y-69410498D01*
X139624482Y-69374188D01*
X139500000Y-69361928D01*
X136582286Y-69361928D01*
X136690256Y-69317205D01*
X136738454Y-69285000D01*
X148156531Y-69285000D01*
X148200000Y-69289281D01*
X148243469Y-69285000D01*
X148243477Y-69285000D01*
X148373490Y-69272195D01*
X148540313Y-69221589D01*
X148694059Y-69139411D01*
X148828817Y-69028817D01*
X148856534Y-68995044D01*
X151082515Y-66769064D01*
X151085149Y-66770472D01*
X151251745Y-66821008D01*
X151424999Y-66838072D01*
X152075001Y-66838072D01*
X152248255Y-66821008D01*
X152414851Y-66770472D01*
X152568387Y-66688405D01*
X152702962Y-66577962D01*
X152775000Y-66490184D01*
X152847038Y-66577962D01*
X152847038Y-66577962D01*
G37*
X152847038Y-66577962D02*
X152981613Y-66688405D01*
X153135149Y-66770472D01*
X153301745Y-66821008D01*
X153474999Y-66838072D01*
X154125001Y-66838072D01*
X154298255Y-66821008D01*
X154464851Y-66770472D01*
X154618387Y-66688405D01*
X154640000Y-66670668D01*
X154640001Y-90667571D01*
X154636807Y-90700000D01*
X154649550Y-90829383D01*
X154687290Y-90953793D01*
X154748575Y-91068450D01*
X154831052Y-91168948D01*
X154931550Y-91251425D01*
X155046207Y-91312710D01*
X155170617Y-91350450D01*
X155267581Y-91360000D01*
X155300000Y-91363193D01*
X155332419Y-91360000D01*
X155668954Y-91360000D01*
X155621401Y-91448966D01*
X155536487Y-91728889D01*
X155507815Y-92020000D01*
X155536487Y-92311111D01*
X155621401Y-92591034D01*
X155759294Y-92849014D01*
X155944866Y-93075134D01*
X156170986Y-93260706D01*
X156225791Y-93290000D01*
X156170986Y-93319294D01*
X155944866Y-93504866D01*
X155759294Y-93730986D01*
X155621401Y-93988966D01*
X155536487Y-94268889D01*
X155507815Y-94560000D01*
X155536487Y-94851111D01*
X155621401Y-95131034D01*
X155759294Y-95389014D01*
X155944866Y-95615134D01*
X155974687Y-95639607D01*
X155905820Y-95660498D01*
X155795506Y-95719463D01*
X155698815Y-95798815D01*
X155619463Y-95895506D01*
X155560498Y-96005820D01*
X155524188Y-96125518D01*
X155515375Y-96215000D01*
X153724581Y-96215000D01*
X143656649Y-86147069D01*
X143791496Y-86120246D01*
X144098147Y-85993228D01*
X144374125Y-85808825D01*
X144608825Y-85574125D01*
X144793228Y-85298147D01*
X144920246Y-84991496D01*
X144985000Y-84665958D01*
X144985000Y-84334042D01*
X144920246Y-84008504D01*
X144793228Y-83701853D01*
X144608825Y-83425875D01*
X144374125Y-83191175D01*
X144098147Y-83006772D01*
X144081798Y-83000000D01*
X149861928Y-83000000D01*
X149861928Y-86000000D01*
X149874188Y-86124482D01*
X149910498Y-86244180D01*
X149969463Y-86354494D01*
X150048815Y-86451185D01*
X150145506Y-86530537D01*
X150255820Y-86589502D01*
X150375518Y-86625812D01*
X150500000Y-86638072D01*
X153500000Y-86638072D01*
X153624482Y-86625812D01*
X153744180Y-86589502D01*
X153854494Y-86530537D01*
X153951185Y-86451185D01*
X154030537Y-86354494D01*
X154089502Y-86244180D01*
X154125812Y-86124482D01*
X154138072Y-86000000D01*
X154138072Y-83000000D01*
X154125812Y-82875518D01*
X154089502Y-82755820D01*
X154030537Y-82645506D01*
X153951185Y-82548815D01*
X153854494Y-82469463D01*
X153744180Y-82410498D01*
X153624482Y-82374188D01*
X153500000Y-82361928D01*
X150500000Y-82361928D01*
X150375518Y-82374188D01*
X150255820Y-82410498D01*
X150145506Y-82469463D01*
X150048815Y-82548815D01*
X149969463Y-82645506D01*
X149910498Y-82755820D01*
X149874188Y-82875518D01*
X149861928Y-83000000D01*
X144081798Y-83000000D01*
X143791496Y-82879754D01*
X143465958Y-82815000D01*
X143134042Y-82815000D01*
X142808504Y-82879754D01*
X142501853Y-83006772D01*
X142225875Y-83191175D01*
X141991175Y-83425875D01*
X141806772Y-83701853D01*
X141679754Y-84008504D01*
X141652931Y-84143351D01*
X136205000Y-78695420D01*
X136205000Y-73562338D01*
X136255820Y-73589502D01*
X136375518Y-73625812D01*
X136500000Y-73638072D01*
X139500000Y-73638072D01*
X139624482Y-73625812D01*
X139744180Y-73589502D01*
X139854494Y-73530537D01*
X139951185Y-73451185D01*
X140030537Y-73354494D01*
X140089502Y-73244180D01*
X140125812Y-73124482D01*
X140138072Y-73000000D01*
X140138072Y-70000000D01*
X149861928Y-70000000D01*
X149861928Y-73000000D01*
X149874188Y-73124482D01*
X149910498Y-73244180D01*
X149969463Y-73354494D01*
X150048815Y-73451185D01*
X150145506Y-73530537D01*
X150255820Y-73589502D01*
X150375518Y-73625812D01*
X150500000Y-73638072D01*
X153500000Y-73638072D01*
X153624482Y-73625812D01*
X153744180Y-73589502D01*
X153854494Y-73530537D01*
X153951185Y-73451185D01*
X154030537Y-73354494D01*
X154089502Y-73244180D01*
X154125812Y-73124482D01*
X154138072Y-73000000D01*
X154138072Y-70000000D01*
X154125812Y-69875518D01*
X154089502Y-69755820D01*
X154030537Y-69645506D01*
X153951185Y-69548815D01*
X153854494Y-69469463D01*
X153744180Y-69410498D01*
X153624482Y-69374188D01*
X153500000Y-69361928D01*
X150500000Y-69361928D01*
X150375518Y-69374188D01*
X150255820Y-69410498D01*
X150145506Y-69469463D01*
X150048815Y-69548815D01*
X149969463Y-69645506D01*
X149910498Y-69755820D01*
X149874188Y-69875518D01*
X149861928Y-70000000D01*
X140138072Y-70000000D01*
X140125812Y-69875518D01*
X140089502Y-69755820D01*
X140030537Y-69645506D01*
X139951185Y-69548815D01*
X139854494Y-69469463D01*
X139744180Y-69410498D01*
X139624482Y-69374188D01*
X139500000Y-69361928D01*
X136582286Y-69361928D01*
X136690256Y-69317205D01*
X136738454Y-69285000D01*
X148156531Y-69285000D01*
X148200000Y-69289281D01*
X148243469Y-69285000D01*
X148243477Y-69285000D01*
X148373490Y-69272195D01*
X148540313Y-69221589D01*
X148694059Y-69139411D01*
X148828817Y-69028817D01*
X148856534Y-68995044D01*
X151082515Y-66769064D01*
X151085149Y-66770472D01*
X151251745Y-66821008D01*
X151424999Y-66838072D01*
X152075001Y-66838072D01*
X152248255Y-66821008D01*
X152414851Y-66770472D01*
X152568387Y-66688405D01*
X152702962Y-66577962D01*
X152775000Y-66490184D01*
X152847038Y-66577962D01*
G36*
X152960498Y-56405820D02*
X152924188Y-56525518D01*
X152911928Y-56650000D01*
X152911928Y-57161905D01*
X152901185Y-57148815D01*
X152804494Y-57069463D01*
X152694180Y-57010498D01*
X152574482Y-56974188D01*
X152450000Y-56961928D01*
X151550000Y-56961928D01*
X151425518Y-56974188D01*
X151305820Y-57010498D01*
X151195506Y-57069463D01*
X151140019Y-57115000D01*
X149243466Y-57115000D01*
X149199999Y-57110719D01*
X149156533Y-57115000D01*
X149156523Y-57115000D01*
X149026510Y-57127805D01*
X148859687Y-57178411D01*
X148705941Y-57260589D01*
X148705939Y-57260590D01*
X148705940Y-57260590D01*
X148604953Y-57343468D01*
X148604951Y-57343470D01*
X148571183Y-57371183D01*
X148543470Y-57404951D01*
X144736494Y-61211928D01*
X143700000Y-61211928D01*
X143575518Y-61224188D01*
X143455820Y-61260498D01*
X143345506Y-61319463D01*
X143248815Y-61398815D01*
X143181914Y-61480334D01*
X142338072Y-60636493D01*
X142338072Y-60224998D01*
X142321008Y-60051744D01*
X142270472Y-59885148D01*
X142188405Y-59731612D01*
X142077962Y-59597037D01*
X141990184Y-59524999D01*
X142077962Y-59452961D01*
X142188405Y-59318386D01*
X142270472Y-59164850D01*
X142321008Y-58998254D01*
X142338072Y-58825000D01*
X142338072Y-58174998D01*
X142321008Y-58001744D01*
X142270472Y-57835148D01*
X142188405Y-57681612D01*
X142077962Y-57547037D01*
X142010174Y-57491405D01*
X143116579Y-56385000D01*
X152971627Y-56385000D01*
X152960498Y-56405820D01*
X152960498Y-56405820D01*
G37*
X152960498Y-56405820D02*
X152924188Y-56525518D01*
X152911928Y-56650000D01*
X152911928Y-57161905D01*
X152901185Y-57148815D01*
X152804494Y-57069463D01*
X152694180Y-57010498D01*
X152574482Y-56974188D01*
X152450000Y-56961928D01*
X151550000Y-56961928D01*
X151425518Y-56974188D01*
X151305820Y-57010498D01*
X151195506Y-57069463D01*
X151140019Y-57115000D01*
X149243466Y-57115000D01*
X149199999Y-57110719D01*
X149156533Y-57115000D01*
X149156523Y-57115000D01*
X149026510Y-57127805D01*
X148859687Y-57178411D01*
X148705941Y-57260589D01*
X148705939Y-57260590D01*
X148705940Y-57260590D01*
X148604953Y-57343468D01*
X148604951Y-57343470D01*
X148571183Y-57371183D01*
X148543470Y-57404951D01*
X144736494Y-61211928D01*
X143700000Y-61211928D01*
X143575518Y-61224188D01*
X143455820Y-61260498D01*
X143345506Y-61319463D01*
X143248815Y-61398815D01*
X143181914Y-61480334D01*
X142338072Y-60636493D01*
X142338072Y-60224998D01*
X142321008Y-60051744D01*
X142270472Y-59885148D01*
X142188405Y-59731612D01*
X142077962Y-59597037D01*
X141990184Y-59524999D01*
X142077962Y-59452961D01*
X142188405Y-59318386D01*
X142270472Y-59164850D01*
X142321008Y-58998254D01*
X142338072Y-58825000D01*
X142338072Y-58174998D01*
X142321008Y-58001744D01*
X142270472Y-57835148D01*
X142188405Y-57681612D01*
X142077962Y-57547037D01*
X142010174Y-57491405D01*
X143116579Y-56385000D01*
X152971627Y-56385000D01*
X152960498Y-56405820D01*
%TD*%
M02*
