%TF.GenerationSoftware,KiCad,Pcbnew,(5.0.2)-1*%
%TF.CreationDate,2020-07-31T10:54:53+02:00*%
%TF.ProjectId,Multimeter_Watch_DisplayBoard_V1,4d756c74-696d-4657-9465-725f57617463,rev?*%
%TF.SameCoordinates,Original*%
%TF.FileFunction,Legend,Bot*%
%TF.FilePolarity,Positive*%
%FSLAX46Y46*%
G04 Gerber Fmt 4.6, Leading zero omitted, Abs format (unit mm)*
G04 Created by KiCad (PCBNEW (5.0.2)-1) date 31.7.2020 10:54:53*
%MOMM*%
%LPD*%
G01*
G04 APERTURE LIST*
%ADD10C,0.120000*%
%ADD11C,0.150000*%
G04 APERTURE END LIST*
D10*
%TO.C,B1*%
X144400000Y-61600000D02*
X142200000Y-61600000D01*
X144400000Y-63300000D02*
X144400000Y-61600000D01*
X144700000Y-63700000D02*
X144400000Y-63300000D01*
X144700000Y-64100000D02*
X144700000Y-63700000D01*
X144700000Y-65400000D02*
X144700000Y-64100000D01*
X143500000Y-66600000D02*
X144700000Y-65400000D01*
X142200000Y-66600000D02*
X143500000Y-66600000D01*
X140000000Y-61600000D02*
X140000000Y-61700000D01*
X142200000Y-61600000D02*
X140000000Y-61600000D01*
X140000000Y-66600000D02*
X140200000Y-66600000D01*
X140000000Y-65300000D02*
X140000000Y-66600000D01*
X142200000Y-66600000D02*
X140200000Y-66600000D01*
X139700000Y-65000000D02*
X140000000Y-65300000D01*
X139700000Y-64100000D02*
X139700000Y-65000000D01*
X140000000Y-63200000D02*
X140000000Y-61700000D01*
X139700000Y-63600000D02*
X140000000Y-63200000D01*
X139700000Y-64100000D02*
X139700000Y-63600000D01*
%TO.C,D1*%
X140040000Y-60524999D02*
X140040000Y-57664999D01*
X140040000Y-57664999D02*
X141960000Y-57664999D01*
X141960000Y-57664999D02*
X141960000Y-60524999D01*
%TO.C,R18*%
X153036252Y-62290000D02*
X152513748Y-62290000D01*
X153036252Y-63710000D02*
X152513748Y-63710000D01*
%TO.C,R17*%
X153036252Y-64790000D02*
X152513748Y-64790000D01*
X153036252Y-66210000D02*
X152513748Y-66210000D01*
%TO.C,C1*%
X139760000Y-57796266D02*
X139760000Y-57453732D01*
X138740000Y-57796266D02*
X138740000Y-57453732D01*
%TO.C,J4*%
X107330000Y-60270000D02*
X104670000Y-60270000D01*
X107330000Y-60270000D02*
X107330000Y-65410000D01*
X107330000Y-65410000D02*
X104670000Y-65410000D01*
X104670000Y-60270000D02*
X104670000Y-65410000D01*
X104670000Y-57670000D02*
X104670000Y-59000000D01*
X106000000Y-57670000D02*
X104670000Y-57670000D01*
%TO.C,J3*%
X158330000Y-60270000D02*
X155670000Y-60270000D01*
X158330000Y-60270000D02*
X158330000Y-65410000D01*
X158330000Y-65410000D02*
X155670000Y-65410000D01*
X155670000Y-60270000D02*
X155670000Y-65410000D01*
X155670000Y-57670000D02*
X155670000Y-59000000D01*
X157000000Y-57670000D02*
X155670000Y-57670000D01*
%TO.C,J2*%
X155670000Y-95830000D02*
X158330000Y-95830000D01*
X155670000Y-95830000D02*
X155670000Y-90690000D01*
X155670000Y-90690000D02*
X158330000Y-90690000D01*
X158330000Y-95830000D02*
X158330000Y-90690000D01*
X158330000Y-98430000D02*
X158330000Y-97100000D01*
X157000000Y-98430000D02*
X158330000Y-98430000D01*
%TO.C,J1*%
X104670000Y-95830000D02*
X107330000Y-95830000D01*
X104670000Y-95830000D02*
X104670000Y-90690000D01*
X104670000Y-90690000D02*
X107330000Y-90690000D01*
X107330000Y-95830000D02*
X107330000Y-90690000D01*
X107330000Y-98430000D02*
X107330000Y-97100000D01*
X106000000Y-98430000D02*
X107330000Y-98430000D01*
%TO.C,Q1*%
X152240000Y-59580000D02*
X152240000Y-58650000D01*
X152240000Y-56420000D02*
X152240000Y-57350000D01*
X152240000Y-56420000D02*
X154400000Y-56420000D01*
X152240000Y-59580000D02*
X153700000Y-59580000D01*
%TO.C,Hole2*%
D11*
X145204761Y-88152380D02*
X145204761Y-87152380D01*
X145204761Y-87628571D02*
X144633333Y-87628571D01*
X144633333Y-88152380D02*
X144633333Y-87152380D01*
X144014285Y-88152380D02*
X144109523Y-88104761D01*
X144157142Y-88057142D01*
X144204761Y-87961904D01*
X144204761Y-87676190D01*
X144157142Y-87580952D01*
X144109523Y-87533333D01*
X144014285Y-87485714D01*
X143871428Y-87485714D01*
X143776190Y-87533333D01*
X143728571Y-87580952D01*
X143680952Y-87676190D01*
X143680952Y-87961904D01*
X143728571Y-88057142D01*
X143776190Y-88104761D01*
X143871428Y-88152380D01*
X144014285Y-88152380D01*
X143109523Y-88152380D02*
X143204761Y-88104761D01*
X143252380Y-88009523D01*
X143252380Y-87152380D01*
X142347619Y-88104761D02*
X142442857Y-88152380D01*
X142633333Y-88152380D01*
X142728571Y-88104761D01*
X142776190Y-88009523D01*
X142776190Y-87628571D01*
X142728571Y-87533333D01*
X142633333Y-87485714D01*
X142442857Y-87485714D01*
X142347619Y-87533333D01*
X142300000Y-87628571D01*
X142300000Y-87723809D01*
X142776190Y-87819047D01*
X141919047Y-87247619D02*
X141871428Y-87200000D01*
X141776190Y-87152380D01*
X141538095Y-87152380D01*
X141442857Y-87200000D01*
X141395238Y-87247619D01*
X141347619Y-87342857D01*
X141347619Y-87438095D01*
X141395238Y-87580952D01*
X141966666Y-88152380D01*
X141347619Y-88152380D01*
%TO.C,Hole1*%
X121604761Y-88152380D02*
X121604761Y-87152380D01*
X121604761Y-87628571D02*
X121033333Y-87628571D01*
X121033333Y-88152380D02*
X121033333Y-87152380D01*
X120414285Y-88152380D02*
X120509523Y-88104761D01*
X120557142Y-88057142D01*
X120604761Y-87961904D01*
X120604761Y-87676190D01*
X120557142Y-87580952D01*
X120509523Y-87533333D01*
X120414285Y-87485714D01*
X120271428Y-87485714D01*
X120176190Y-87533333D01*
X120128571Y-87580952D01*
X120080952Y-87676190D01*
X120080952Y-87961904D01*
X120128571Y-88057142D01*
X120176190Y-88104761D01*
X120271428Y-88152380D01*
X120414285Y-88152380D01*
X119509523Y-88152380D02*
X119604761Y-88104761D01*
X119652380Y-88009523D01*
X119652380Y-87152380D01*
X118747619Y-88104761D02*
X118842857Y-88152380D01*
X119033333Y-88152380D01*
X119128571Y-88104761D01*
X119176190Y-88009523D01*
X119176190Y-87628571D01*
X119128571Y-87533333D01*
X119033333Y-87485714D01*
X118842857Y-87485714D01*
X118747619Y-87533333D01*
X118700000Y-87628571D01*
X118700000Y-87723809D01*
X119176190Y-87819047D01*
X117747619Y-88152380D02*
X118319047Y-88152380D01*
X118033333Y-88152380D02*
X118033333Y-87152380D01*
X118128571Y-87295238D01*
X118223809Y-87390476D01*
X118319047Y-87438095D01*
%TO.C,Struct9*%
X140023809Y-89904761D02*
X139880952Y-89952380D01*
X139642857Y-89952380D01*
X139547619Y-89904761D01*
X139500000Y-89857142D01*
X139452380Y-89761904D01*
X139452380Y-89666666D01*
X139500000Y-89571428D01*
X139547619Y-89523809D01*
X139642857Y-89476190D01*
X139833333Y-89428571D01*
X139928571Y-89380952D01*
X139976190Y-89333333D01*
X140023809Y-89238095D01*
X140023809Y-89142857D01*
X139976190Y-89047619D01*
X139928571Y-89000000D01*
X139833333Y-88952380D01*
X139595238Y-88952380D01*
X139452380Y-89000000D01*
X139166666Y-89285714D02*
X138785714Y-89285714D01*
X139023809Y-88952380D02*
X139023809Y-89809523D01*
X138976190Y-89904761D01*
X138880952Y-89952380D01*
X138785714Y-89952380D01*
X138452380Y-89952380D02*
X138452380Y-89285714D01*
X138452380Y-89476190D02*
X138404761Y-89380952D01*
X138357142Y-89333333D01*
X138261904Y-89285714D01*
X138166666Y-89285714D01*
X137404761Y-89285714D02*
X137404761Y-89952380D01*
X137833333Y-89285714D02*
X137833333Y-89809523D01*
X137785714Y-89904761D01*
X137690476Y-89952380D01*
X137547619Y-89952380D01*
X137452380Y-89904761D01*
X137404761Y-89857142D01*
X136500000Y-89904761D02*
X136595238Y-89952380D01*
X136785714Y-89952380D01*
X136880952Y-89904761D01*
X136928571Y-89857142D01*
X136976190Y-89761904D01*
X136976190Y-89476190D01*
X136928571Y-89380952D01*
X136880952Y-89333333D01*
X136785714Y-89285714D01*
X136595238Y-89285714D01*
X136500000Y-89333333D01*
X136214285Y-89285714D02*
X135833333Y-89285714D01*
X136071428Y-88952380D02*
X136071428Y-89809523D01*
X136023809Y-89904761D01*
X135928571Y-89952380D01*
X135833333Y-89952380D01*
X135452380Y-89952380D02*
X135261904Y-89952380D01*
X135166666Y-89904761D01*
X135119047Y-89857142D01*
X135023809Y-89714285D01*
X134976190Y-89523809D01*
X134976190Y-89142857D01*
X135023809Y-89047619D01*
X135071428Y-89000000D01*
X135166666Y-88952380D01*
X135357142Y-88952380D01*
X135452380Y-89000000D01*
X135500000Y-89047619D01*
X135547619Y-89142857D01*
X135547619Y-89380952D01*
X135500000Y-89476190D01*
X135452380Y-89523809D01*
X135357142Y-89571428D01*
X135166666Y-89571428D01*
X135071428Y-89523809D01*
X135023809Y-89476190D01*
X134976190Y-89380952D01*
%TO.C,Struct7*%
X128023809Y-89904761D02*
X127880952Y-89952380D01*
X127642857Y-89952380D01*
X127547619Y-89904761D01*
X127500000Y-89857142D01*
X127452380Y-89761904D01*
X127452380Y-89666666D01*
X127500000Y-89571428D01*
X127547619Y-89523809D01*
X127642857Y-89476190D01*
X127833333Y-89428571D01*
X127928571Y-89380952D01*
X127976190Y-89333333D01*
X128023809Y-89238095D01*
X128023809Y-89142857D01*
X127976190Y-89047619D01*
X127928571Y-89000000D01*
X127833333Y-88952380D01*
X127595238Y-88952380D01*
X127452380Y-89000000D01*
X127166666Y-89285714D02*
X126785714Y-89285714D01*
X127023809Y-88952380D02*
X127023809Y-89809523D01*
X126976190Y-89904761D01*
X126880952Y-89952380D01*
X126785714Y-89952380D01*
X126452380Y-89952380D02*
X126452380Y-89285714D01*
X126452380Y-89476190D02*
X126404761Y-89380952D01*
X126357142Y-89333333D01*
X126261904Y-89285714D01*
X126166666Y-89285714D01*
X125404761Y-89285714D02*
X125404761Y-89952380D01*
X125833333Y-89285714D02*
X125833333Y-89809523D01*
X125785714Y-89904761D01*
X125690476Y-89952380D01*
X125547619Y-89952380D01*
X125452380Y-89904761D01*
X125404761Y-89857142D01*
X124500000Y-89904761D02*
X124595238Y-89952380D01*
X124785714Y-89952380D01*
X124880952Y-89904761D01*
X124928571Y-89857142D01*
X124976190Y-89761904D01*
X124976190Y-89476190D01*
X124928571Y-89380952D01*
X124880952Y-89333333D01*
X124785714Y-89285714D01*
X124595238Y-89285714D01*
X124500000Y-89333333D01*
X124214285Y-89285714D02*
X123833333Y-89285714D01*
X124071428Y-88952380D02*
X124071428Y-89809523D01*
X124023809Y-89904761D01*
X123928571Y-89952380D01*
X123833333Y-89952380D01*
X123595238Y-88952380D02*
X122928571Y-88952380D01*
X123357142Y-89952380D01*
%TO.C,Struct3*%
X127523809Y-68904761D02*
X127380952Y-68952380D01*
X127142857Y-68952380D01*
X127047619Y-68904761D01*
X127000000Y-68857142D01*
X126952380Y-68761904D01*
X126952380Y-68666666D01*
X127000000Y-68571428D01*
X127047619Y-68523809D01*
X127142857Y-68476190D01*
X127333333Y-68428571D01*
X127428571Y-68380952D01*
X127476190Y-68333333D01*
X127523809Y-68238095D01*
X127523809Y-68142857D01*
X127476190Y-68047619D01*
X127428571Y-68000000D01*
X127333333Y-67952380D01*
X127095238Y-67952380D01*
X126952380Y-68000000D01*
X126666666Y-68285714D02*
X126285714Y-68285714D01*
X126523809Y-67952380D02*
X126523809Y-68809523D01*
X126476190Y-68904761D01*
X126380952Y-68952380D01*
X126285714Y-68952380D01*
X125952380Y-68952380D02*
X125952380Y-68285714D01*
X125952380Y-68476190D02*
X125904761Y-68380952D01*
X125857142Y-68333333D01*
X125761904Y-68285714D01*
X125666666Y-68285714D01*
X124904761Y-68285714D02*
X124904761Y-68952380D01*
X125333333Y-68285714D02*
X125333333Y-68809523D01*
X125285714Y-68904761D01*
X125190476Y-68952380D01*
X125047619Y-68952380D01*
X124952380Y-68904761D01*
X124904761Y-68857142D01*
X124000000Y-68904761D02*
X124095238Y-68952380D01*
X124285714Y-68952380D01*
X124380952Y-68904761D01*
X124428571Y-68857142D01*
X124476190Y-68761904D01*
X124476190Y-68476190D01*
X124428571Y-68380952D01*
X124380952Y-68333333D01*
X124285714Y-68285714D01*
X124095238Y-68285714D01*
X124000000Y-68333333D01*
X123714285Y-68285714D02*
X123333333Y-68285714D01*
X123571428Y-67952380D02*
X123571428Y-68809523D01*
X123523809Y-68904761D01*
X123428571Y-68952380D01*
X123333333Y-68952380D01*
X123095238Y-67952380D02*
X122476190Y-67952380D01*
X122809523Y-68333333D01*
X122666666Y-68333333D01*
X122571428Y-68380952D01*
X122523809Y-68428571D01*
X122476190Y-68523809D01*
X122476190Y-68761904D01*
X122523809Y-68857142D01*
X122571428Y-68904761D01*
X122666666Y-68952380D01*
X122952380Y-68952380D01*
X123047619Y-68904761D01*
X123095238Y-68857142D01*
%TO.C,Struct2*%
X140523809Y-68904761D02*
X140380952Y-68952380D01*
X140142857Y-68952380D01*
X140047619Y-68904761D01*
X140000000Y-68857142D01*
X139952380Y-68761904D01*
X139952380Y-68666666D01*
X140000000Y-68571428D01*
X140047619Y-68523809D01*
X140142857Y-68476190D01*
X140333333Y-68428571D01*
X140428571Y-68380952D01*
X140476190Y-68333333D01*
X140523809Y-68238095D01*
X140523809Y-68142857D01*
X140476190Y-68047619D01*
X140428571Y-68000000D01*
X140333333Y-67952380D01*
X140095238Y-67952380D01*
X139952380Y-68000000D01*
X139666666Y-68285714D02*
X139285714Y-68285714D01*
X139523809Y-67952380D02*
X139523809Y-68809523D01*
X139476190Y-68904761D01*
X139380952Y-68952380D01*
X139285714Y-68952380D01*
X138952380Y-68952380D02*
X138952380Y-68285714D01*
X138952380Y-68476190D02*
X138904761Y-68380952D01*
X138857142Y-68333333D01*
X138761904Y-68285714D01*
X138666666Y-68285714D01*
X137904761Y-68285714D02*
X137904761Y-68952380D01*
X138333333Y-68285714D02*
X138333333Y-68809523D01*
X138285714Y-68904761D01*
X138190476Y-68952380D01*
X138047619Y-68952380D01*
X137952380Y-68904761D01*
X137904761Y-68857142D01*
X137000000Y-68904761D02*
X137095238Y-68952380D01*
X137285714Y-68952380D01*
X137380952Y-68904761D01*
X137428571Y-68857142D01*
X137476190Y-68761904D01*
X137476190Y-68476190D01*
X137428571Y-68380952D01*
X137380952Y-68333333D01*
X137285714Y-68285714D01*
X137095238Y-68285714D01*
X137000000Y-68333333D01*
X136714285Y-68285714D02*
X136333333Y-68285714D01*
X136571428Y-67952380D02*
X136571428Y-68809523D01*
X136523809Y-68904761D01*
X136428571Y-68952380D01*
X136333333Y-68952380D01*
X136047619Y-68047619D02*
X136000000Y-68000000D01*
X135904761Y-67952380D01*
X135666666Y-67952380D01*
X135571428Y-68000000D01*
X135523809Y-68047619D01*
X135476190Y-68142857D01*
X135476190Y-68238095D01*
X135523809Y-68380952D01*
X136095238Y-68952380D01*
X135476190Y-68952380D01*
%TO.C,Struct8*%
X134023809Y-95404761D02*
X133880952Y-95452380D01*
X133642857Y-95452380D01*
X133547619Y-95404761D01*
X133500000Y-95357142D01*
X133452380Y-95261904D01*
X133452380Y-95166666D01*
X133500000Y-95071428D01*
X133547619Y-95023809D01*
X133642857Y-94976190D01*
X133833333Y-94928571D01*
X133928571Y-94880952D01*
X133976190Y-94833333D01*
X134023809Y-94738095D01*
X134023809Y-94642857D01*
X133976190Y-94547619D01*
X133928571Y-94500000D01*
X133833333Y-94452380D01*
X133595238Y-94452380D01*
X133452380Y-94500000D01*
X133166666Y-94785714D02*
X132785714Y-94785714D01*
X133023809Y-94452380D02*
X133023809Y-95309523D01*
X132976190Y-95404761D01*
X132880952Y-95452380D01*
X132785714Y-95452380D01*
X132452380Y-95452380D02*
X132452380Y-94785714D01*
X132452380Y-94976190D02*
X132404761Y-94880952D01*
X132357142Y-94833333D01*
X132261904Y-94785714D01*
X132166666Y-94785714D01*
X131404761Y-94785714D02*
X131404761Y-95452380D01*
X131833333Y-94785714D02*
X131833333Y-95309523D01*
X131785714Y-95404761D01*
X131690476Y-95452380D01*
X131547619Y-95452380D01*
X131452380Y-95404761D01*
X131404761Y-95357142D01*
X130500000Y-95404761D02*
X130595238Y-95452380D01*
X130785714Y-95452380D01*
X130880952Y-95404761D01*
X130928571Y-95357142D01*
X130976190Y-95261904D01*
X130976190Y-94976190D01*
X130928571Y-94880952D01*
X130880952Y-94833333D01*
X130785714Y-94785714D01*
X130595238Y-94785714D01*
X130500000Y-94833333D01*
X130214285Y-94785714D02*
X129833333Y-94785714D01*
X130071428Y-94452380D02*
X130071428Y-95309523D01*
X130023809Y-95404761D01*
X129928571Y-95452380D01*
X129833333Y-95452380D01*
X129357142Y-94880952D02*
X129452380Y-94833333D01*
X129500000Y-94785714D01*
X129547619Y-94690476D01*
X129547619Y-94642857D01*
X129500000Y-94547619D01*
X129452380Y-94500000D01*
X129357142Y-94452380D01*
X129166666Y-94452380D01*
X129071428Y-94500000D01*
X129023809Y-94547619D01*
X128976190Y-94642857D01*
X128976190Y-94690476D01*
X129023809Y-94785714D01*
X129071428Y-94833333D01*
X129166666Y-94880952D01*
X129357142Y-94880952D01*
X129452380Y-94928571D01*
X129500000Y-94976190D01*
X129547619Y-95071428D01*
X129547619Y-95261904D01*
X129500000Y-95357142D01*
X129452380Y-95404761D01*
X129357142Y-95452380D01*
X129166666Y-95452380D01*
X129071428Y-95404761D01*
X129023809Y-95357142D01*
X128976190Y-95261904D01*
X128976190Y-95071428D01*
X129023809Y-94976190D01*
X129071428Y-94928571D01*
X129166666Y-94880952D01*
%TO.C,Struct6*%
X122023809Y-95404761D02*
X121880952Y-95452380D01*
X121642857Y-95452380D01*
X121547619Y-95404761D01*
X121500000Y-95357142D01*
X121452380Y-95261904D01*
X121452380Y-95166666D01*
X121500000Y-95071428D01*
X121547619Y-95023809D01*
X121642857Y-94976190D01*
X121833333Y-94928571D01*
X121928571Y-94880952D01*
X121976190Y-94833333D01*
X122023809Y-94738095D01*
X122023809Y-94642857D01*
X121976190Y-94547619D01*
X121928571Y-94500000D01*
X121833333Y-94452380D01*
X121595238Y-94452380D01*
X121452380Y-94500000D01*
X121166666Y-94785714D02*
X120785714Y-94785714D01*
X121023809Y-94452380D02*
X121023809Y-95309523D01*
X120976190Y-95404761D01*
X120880952Y-95452380D01*
X120785714Y-95452380D01*
X120452380Y-95452380D02*
X120452380Y-94785714D01*
X120452380Y-94976190D02*
X120404761Y-94880952D01*
X120357142Y-94833333D01*
X120261904Y-94785714D01*
X120166666Y-94785714D01*
X119404761Y-94785714D02*
X119404761Y-95452380D01*
X119833333Y-94785714D02*
X119833333Y-95309523D01*
X119785714Y-95404761D01*
X119690476Y-95452380D01*
X119547619Y-95452380D01*
X119452380Y-95404761D01*
X119404761Y-95357142D01*
X118500000Y-95404761D02*
X118595238Y-95452380D01*
X118785714Y-95452380D01*
X118880952Y-95404761D01*
X118928571Y-95357142D01*
X118976190Y-95261904D01*
X118976190Y-94976190D01*
X118928571Y-94880952D01*
X118880952Y-94833333D01*
X118785714Y-94785714D01*
X118595238Y-94785714D01*
X118500000Y-94833333D01*
X118214285Y-94785714D02*
X117833333Y-94785714D01*
X118071428Y-94452380D02*
X118071428Y-95309523D01*
X118023809Y-95404761D01*
X117928571Y-95452380D01*
X117833333Y-95452380D01*
X117071428Y-94452380D02*
X117261904Y-94452380D01*
X117357142Y-94500000D01*
X117404761Y-94547619D01*
X117500000Y-94690476D01*
X117547619Y-94880952D01*
X117547619Y-95261904D01*
X117500000Y-95357142D01*
X117452380Y-95404761D01*
X117357142Y-95452380D01*
X117166666Y-95452380D01*
X117071428Y-95404761D01*
X117023809Y-95357142D01*
X116976190Y-95261904D01*
X116976190Y-95023809D01*
X117023809Y-94928571D01*
X117071428Y-94880952D01*
X117166666Y-94833333D01*
X117357142Y-94833333D01*
X117452380Y-94880952D01*
X117500000Y-94928571D01*
X117547619Y-95023809D01*
%TO.C,Struct10*%
X146500000Y-95404761D02*
X146357142Y-95452380D01*
X146119047Y-95452380D01*
X146023809Y-95404761D01*
X145976190Y-95357142D01*
X145928571Y-95261904D01*
X145928571Y-95166666D01*
X145976190Y-95071428D01*
X146023809Y-95023809D01*
X146119047Y-94976190D01*
X146309523Y-94928571D01*
X146404761Y-94880952D01*
X146452380Y-94833333D01*
X146500000Y-94738095D01*
X146500000Y-94642857D01*
X146452380Y-94547619D01*
X146404761Y-94500000D01*
X146309523Y-94452380D01*
X146071428Y-94452380D01*
X145928571Y-94500000D01*
X145642857Y-94785714D02*
X145261904Y-94785714D01*
X145500000Y-94452380D02*
X145500000Y-95309523D01*
X145452380Y-95404761D01*
X145357142Y-95452380D01*
X145261904Y-95452380D01*
X144928571Y-95452380D02*
X144928571Y-94785714D01*
X144928571Y-94976190D02*
X144880952Y-94880952D01*
X144833333Y-94833333D01*
X144738095Y-94785714D01*
X144642857Y-94785714D01*
X143880952Y-94785714D02*
X143880952Y-95452380D01*
X144309523Y-94785714D02*
X144309523Y-95309523D01*
X144261904Y-95404761D01*
X144166666Y-95452380D01*
X144023809Y-95452380D01*
X143928571Y-95404761D01*
X143880952Y-95357142D01*
X142976190Y-95404761D02*
X143071428Y-95452380D01*
X143261904Y-95452380D01*
X143357142Y-95404761D01*
X143404761Y-95357142D01*
X143452380Y-95261904D01*
X143452380Y-94976190D01*
X143404761Y-94880952D01*
X143357142Y-94833333D01*
X143261904Y-94785714D01*
X143071428Y-94785714D01*
X142976190Y-94833333D01*
X142690476Y-94785714D02*
X142309523Y-94785714D01*
X142547619Y-94452380D02*
X142547619Y-95309523D01*
X142500000Y-95404761D01*
X142404761Y-95452380D01*
X142309523Y-95452380D01*
X141452380Y-95452380D02*
X142023809Y-95452380D01*
X141738095Y-95452380D02*
X141738095Y-94452380D01*
X141833333Y-94595238D01*
X141928571Y-94690476D01*
X142023809Y-94738095D01*
X140833333Y-94452380D02*
X140738095Y-94452380D01*
X140642857Y-94500000D01*
X140595238Y-94547619D01*
X140547619Y-94642857D01*
X140500000Y-94833333D01*
X140500000Y-95071428D01*
X140547619Y-95261904D01*
X140595238Y-95357142D01*
X140642857Y-95404761D01*
X140738095Y-95452380D01*
X140833333Y-95452380D01*
X140928571Y-95404761D01*
X140976190Y-95357142D01*
X141023809Y-95261904D01*
X141071428Y-95071428D01*
X141071428Y-94833333D01*
X141023809Y-94642857D01*
X140976190Y-94547619D01*
X140928571Y-94500000D01*
X140833333Y-94452380D01*
%TO.C,Struct11*%
X155000000Y-81904761D02*
X154857142Y-81952380D01*
X154619047Y-81952380D01*
X154523809Y-81904761D01*
X154476190Y-81857142D01*
X154428571Y-81761904D01*
X154428571Y-81666666D01*
X154476190Y-81571428D01*
X154523809Y-81523809D01*
X154619047Y-81476190D01*
X154809523Y-81428571D01*
X154904761Y-81380952D01*
X154952380Y-81333333D01*
X155000000Y-81238095D01*
X155000000Y-81142857D01*
X154952380Y-81047619D01*
X154904761Y-81000000D01*
X154809523Y-80952380D01*
X154571428Y-80952380D01*
X154428571Y-81000000D01*
X154142857Y-81285714D02*
X153761904Y-81285714D01*
X154000000Y-80952380D02*
X154000000Y-81809523D01*
X153952380Y-81904761D01*
X153857142Y-81952380D01*
X153761904Y-81952380D01*
X153428571Y-81952380D02*
X153428571Y-81285714D01*
X153428571Y-81476190D02*
X153380952Y-81380952D01*
X153333333Y-81333333D01*
X153238095Y-81285714D01*
X153142857Y-81285714D01*
X152380952Y-81285714D02*
X152380952Y-81952380D01*
X152809523Y-81285714D02*
X152809523Y-81809523D01*
X152761904Y-81904761D01*
X152666666Y-81952380D01*
X152523809Y-81952380D01*
X152428571Y-81904761D01*
X152380952Y-81857142D01*
X151476190Y-81904761D02*
X151571428Y-81952380D01*
X151761904Y-81952380D01*
X151857142Y-81904761D01*
X151904761Y-81857142D01*
X151952380Y-81761904D01*
X151952380Y-81476190D01*
X151904761Y-81380952D01*
X151857142Y-81333333D01*
X151761904Y-81285714D01*
X151571428Y-81285714D01*
X151476190Y-81333333D01*
X151190476Y-81285714D02*
X150809523Y-81285714D01*
X151047619Y-80952380D02*
X151047619Y-81809523D01*
X151000000Y-81904761D01*
X150904761Y-81952380D01*
X150809523Y-81952380D01*
X149952380Y-81952380D02*
X150523809Y-81952380D01*
X150238095Y-81952380D02*
X150238095Y-80952380D01*
X150333333Y-81095238D01*
X150428571Y-81190476D01*
X150523809Y-81238095D01*
X149000000Y-81952380D02*
X149571428Y-81952380D01*
X149285714Y-81952380D02*
X149285714Y-80952380D01*
X149380952Y-81095238D01*
X149476190Y-81190476D01*
X149571428Y-81238095D01*
%TO.C,Struct5*%
X113523809Y-81904761D02*
X113380952Y-81952380D01*
X113142857Y-81952380D01*
X113047619Y-81904761D01*
X113000000Y-81857142D01*
X112952380Y-81761904D01*
X112952380Y-81666666D01*
X113000000Y-81571428D01*
X113047619Y-81523809D01*
X113142857Y-81476190D01*
X113333333Y-81428571D01*
X113428571Y-81380952D01*
X113476190Y-81333333D01*
X113523809Y-81238095D01*
X113523809Y-81142857D01*
X113476190Y-81047619D01*
X113428571Y-81000000D01*
X113333333Y-80952380D01*
X113095238Y-80952380D01*
X112952380Y-81000000D01*
X112666666Y-81285714D02*
X112285714Y-81285714D01*
X112523809Y-80952380D02*
X112523809Y-81809523D01*
X112476190Y-81904761D01*
X112380952Y-81952380D01*
X112285714Y-81952380D01*
X111952380Y-81952380D02*
X111952380Y-81285714D01*
X111952380Y-81476190D02*
X111904761Y-81380952D01*
X111857142Y-81333333D01*
X111761904Y-81285714D01*
X111666666Y-81285714D01*
X110904761Y-81285714D02*
X110904761Y-81952380D01*
X111333333Y-81285714D02*
X111333333Y-81809523D01*
X111285714Y-81904761D01*
X111190476Y-81952380D01*
X111047619Y-81952380D01*
X110952380Y-81904761D01*
X110904761Y-81857142D01*
X110000000Y-81904761D02*
X110095238Y-81952380D01*
X110285714Y-81952380D01*
X110380952Y-81904761D01*
X110428571Y-81857142D01*
X110476190Y-81761904D01*
X110476190Y-81476190D01*
X110428571Y-81380952D01*
X110380952Y-81333333D01*
X110285714Y-81285714D01*
X110095238Y-81285714D01*
X110000000Y-81333333D01*
X109714285Y-81285714D02*
X109333333Y-81285714D01*
X109571428Y-80952380D02*
X109571428Y-81809523D01*
X109523809Y-81904761D01*
X109428571Y-81952380D01*
X109333333Y-81952380D01*
X108523809Y-80952380D02*
X109000000Y-80952380D01*
X109047619Y-81428571D01*
X109000000Y-81380952D01*
X108904761Y-81333333D01*
X108666666Y-81333333D01*
X108571428Y-81380952D01*
X108523809Y-81428571D01*
X108476190Y-81523809D01*
X108476190Y-81761904D01*
X108523809Y-81857142D01*
X108571428Y-81904761D01*
X108666666Y-81952380D01*
X108904761Y-81952380D01*
X109000000Y-81904761D01*
X109047619Y-81857142D01*
%TO.C,Struct4*%
X113523809Y-68904761D02*
X113380952Y-68952380D01*
X113142857Y-68952380D01*
X113047619Y-68904761D01*
X113000000Y-68857142D01*
X112952380Y-68761904D01*
X112952380Y-68666666D01*
X113000000Y-68571428D01*
X113047619Y-68523809D01*
X113142857Y-68476190D01*
X113333333Y-68428571D01*
X113428571Y-68380952D01*
X113476190Y-68333333D01*
X113523809Y-68238095D01*
X113523809Y-68142857D01*
X113476190Y-68047619D01*
X113428571Y-68000000D01*
X113333333Y-67952380D01*
X113095238Y-67952380D01*
X112952380Y-68000000D01*
X112666666Y-68285714D02*
X112285714Y-68285714D01*
X112523809Y-67952380D02*
X112523809Y-68809523D01*
X112476190Y-68904761D01*
X112380952Y-68952380D01*
X112285714Y-68952380D01*
X111952380Y-68952380D02*
X111952380Y-68285714D01*
X111952380Y-68476190D02*
X111904761Y-68380952D01*
X111857142Y-68333333D01*
X111761904Y-68285714D01*
X111666666Y-68285714D01*
X110904761Y-68285714D02*
X110904761Y-68952380D01*
X111333333Y-68285714D02*
X111333333Y-68809523D01*
X111285714Y-68904761D01*
X111190476Y-68952380D01*
X111047619Y-68952380D01*
X110952380Y-68904761D01*
X110904761Y-68857142D01*
X110000000Y-68904761D02*
X110095238Y-68952380D01*
X110285714Y-68952380D01*
X110380952Y-68904761D01*
X110428571Y-68857142D01*
X110476190Y-68761904D01*
X110476190Y-68476190D01*
X110428571Y-68380952D01*
X110380952Y-68333333D01*
X110285714Y-68285714D01*
X110095238Y-68285714D01*
X110000000Y-68333333D01*
X109714285Y-68285714D02*
X109333333Y-68285714D01*
X109571428Y-67952380D02*
X109571428Y-68809523D01*
X109523809Y-68904761D01*
X109428571Y-68952380D01*
X109333333Y-68952380D01*
X108571428Y-68285714D02*
X108571428Y-68952380D01*
X108809523Y-67904761D02*
X109047619Y-68619047D01*
X108428571Y-68619047D01*
%TO.C,Struct1*%
X154523809Y-68904761D02*
X154380952Y-68952380D01*
X154142857Y-68952380D01*
X154047619Y-68904761D01*
X154000000Y-68857142D01*
X153952380Y-68761904D01*
X153952380Y-68666666D01*
X154000000Y-68571428D01*
X154047619Y-68523809D01*
X154142857Y-68476190D01*
X154333333Y-68428571D01*
X154428571Y-68380952D01*
X154476190Y-68333333D01*
X154523809Y-68238095D01*
X154523809Y-68142857D01*
X154476190Y-68047619D01*
X154428571Y-68000000D01*
X154333333Y-67952380D01*
X154095238Y-67952380D01*
X153952380Y-68000000D01*
X153666666Y-68285714D02*
X153285714Y-68285714D01*
X153523809Y-67952380D02*
X153523809Y-68809523D01*
X153476190Y-68904761D01*
X153380952Y-68952380D01*
X153285714Y-68952380D01*
X152952380Y-68952380D02*
X152952380Y-68285714D01*
X152952380Y-68476190D02*
X152904761Y-68380952D01*
X152857142Y-68333333D01*
X152761904Y-68285714D01*
X152666666Y-68285714D01*
X151904761Y-68285714D02*
X151904761Y-68952380D01*
X152333333Y-68285714D02*
X152333333Y-68809523D01*
X152285714Y-68904761D01*
X152190476Y-68952380D01*
X152047619Y-68952380D01*
X151952380Y-68904761D01*
X151904761Y-68857142D01*
X151000000Y-68904761D02*
X151095238Y-68952380D01*
X151285714Y-68952380D01*
X151380952Y-68904761D01*
X151428571Y-68857142D01*
X151476190Y-68761904D01*
X151476190Y-68476190D01*
X151428571Y-68380952D01*
X151380952Y-68333333D01*
X151285714Y-68285714D01*
X151095238Y-68285714D01*
X151000000Y-68333333D01*
X150714285Y-68285714D02*
X150333333Y-68285714D01*
X150571428Y-67952380D02*
X150571428Y-68809523D01*
X150523809Y-68904761D01*
X150428571Y-68952380D01*
X150333333Y-68952380D01*
X149476190Y-68952380D02*
X150047619Y-68952380D01*
X149761904Y-68952380D02*
X149761904Y-67952380D01*
X149857142Y-68095238D01*
X149952380Y-68190476D01*
X150047619Y-68238095D01*
%TO.C,B1*%
X142604761Y-63528571D02*
X142461904Y-63576190D01*
X142414285Y-63623809D01*
X142366666Y-63719047D01*
X142366666Y-63861904D01*
X142414285Y-63957142D01*
X142461904Y-64004761D01*
X142557142Y-64052380D01*
X142938095Y-64052380D01*
X142938095Y-63052380D01*
X142604761Y-63052380D01*
X142509523Y-63100000D01*
X142461904Y-63147619D01*
X142414285Y-63242857D01*
X142414285Y-63338095D01*
X142461904Y-63433333D01*
X142509523Y-63480952D01*
X142604761Y-63528571D01*
X142938095Y-63528571D01*
X141414285Y-64052380D02*
X141985714Y-64052380D01*
X141700000Y-64052380D02*
X141700000Y-63052380D01*
X141795238Y-63195238D01*
X141890476Y-63290476D01*
X141985714Y-63338095D01*
%TO.C,D1*%
X143282380Y-58786903D02*
X142282380Y-58786903D01*
X142282380Y-59024999D01*
X142330000Y-59167856D01*
X142425238Y-59263094D01*
X142520476Y-59310713D01*
X142710952Y-59358332D01*
X142853809Y-59358332D01*
X143044285Y-59310713D01*
X143139523Y-59263094D01*
X143234761Y-59167856D01*
X143282380Y-59024999D01*
X143282380Y-58786903D01*
X143282380Y-60310713D02*
X143282380Y-59739284D01*
X143282380Y-60024999D02*
X142282380Y-60024999D01*
X142425238Y-59929760D01*
X142520476Y-59834522D01*
X142568095Y-59739284D01*
%TO.C,R18*%
X150076857Y-63516380D02*
X150410190Y-63040190D01*
X150648285Y-63516380D02*
X150648285Y-62516380D01*
X150267333Y-62516380D01*
X150172095Y-62564000D01*
X150124476Y-62611619D01*
X150076857Y-62706857D01*
X150076857Y-62849714D01*
X150124476Y-62944952D01*
X150172095Y-62992571D01*
X150267333Y-63040190D01*
X150648285Y-63040190D01*
X149124476Y-63516380D02*
X149695904Y-63516380D01*
X149410190Y-63516380D02*
X149410190Y-62516380D01*
X149505428Y-62659238D01*
X149600666Y-62754476D01*
X149695904Y-62802095D01*
X148553047Y-62944952D02*
X148648285Y-62897333D01*
X148695904Y-62849714D01*
X148743523Y-62754476D01*
X148743523Y-62706857D01*
X148695904Y-62611619D01*
X148648285Y-62564000D01*
X148553047Y-62516380D01*
X148362571Y-62516380D01*
X148267333Y-62564000D01*
X148219714Y-62611619D01*
X148172095Y-62706857D01*
X148172095Y-62754476D01*
X148219714Y-62849714D01*
X148267333Y-62897333D01*
X148362571Y-62944952D01*
X148553047Y-62944952D01*
X148648285Y-62992571D01*
X148695904Y-63040190D01*
X148743523Y-63135428D01*
X148743523Y-63325904D01*
X148695904Y-63421142D01*
X148648285Y-63468761D01*
X148553047Y-63516380D01*
X148362571Y-63516380D01*
X148267333Y-63468761D01*
X148219714Y-63421142D01*
X148172095Y-63325904D01*
X148172095Y-63135428D01*
X148219714Y-63040190D01*
X148267333Y-62992571D01*
X148362571Y-62944952D01*
%TO.C,R17*%
X150076857Y-66056380D02*
X150410190Y-65580190D01*
X150648285Y-66056380D02*
X150648285Y-65056380D01*
X150267333Y-65056380D01*
X150172095Y-65104000D01*
X150124476Y-65151619D01*
X150076857Y-65246857D01*
X150076857Y-65389714D01*
X150124476Y-65484952D01*
X150172095Y-65532571D01*
X150267333Y-65580190D01*
X150648285Y-65580190D01*
X149124476Y-66056380D02*
X149695904Y-66056380D01*
X149410190Y-66056380D02*
X149410190Y-65056380D01*
X149505428Y-65199238D01*
X149600666Y-65294476D01*
X149695904Y-65342095D01*
X148791142Y-65056380D02*
X148124476Y-65056380D01*
X148553047Y-66056380D01*
%TO.C,C1*%
X139631142Y-60103333D02*
X139678761Y-60055714D01*
X139726380Y-59912857D01*
X139726380Y-59817619D01*
X139678761Y-59674761D01*
X139583523Y-59579523D01*
X139488285Y-59531904D01*
X139297809Y-59484285D01*
X139154952Y-59484285D01*
X138964476Y-59531904D01*
X138869238Y-59579523D01*
X138774000Y-59674761D01*
X138726380Y-59817619D01*
X138726380Y-59912857D01*
X138774000Y-60055714D01*
X138821619Y-60103333D01*
X139726380Y-61055714D02*
X139726380Y-60484285D01*
X139726380Y-60770000D02*
X138726380Y-60770000D01*
X138869238Y-60674761D01*
X138964476Y-60579523D01*
X139012095Y-60484285D01*
%TO.C,J4*%
X106460333Y-56166380D02*
X106460333Y-56880666D01*
X106507952Y-57023523D01*
X106603190Y-57118761D01*
X106746047Y-57166380D01*
X106841285Y-57166380D01*
X105555571Y-56499714D02*
X105555571Y-57166380D01*
X105793666Y-56118761D02*
X106031761Y-56833047D01*
X105412714Y-56833047D01*
%TO.C,J3*%
X157333333Y-55682380D02*
X157333333Y-56396666D01*
X157380952Y-56539523D01*
X157476190Y-56634761D01*
X157619047Y-56682380D01*
X157714285Y-56682380D01*
X156952380Y-55682380D02*
X156333333Y-55682380D01*
X156666666Y-56063333D01*
X156523809Y-56063333D01*
X156428571Y-56110952D01*
X156380952Y-56158571D01*
X156333333Y-56253809D01*
X156333333Y-56491904D01*
X156380952Y-56587142D01*
X156428571Y-56634761D01*
X156523809Y-56682380D01*
X156809523Y-56682380D01*
X156904761Y-56634761D01*
X156952380Y-56587142D01*
%TO.C,J2*%
X157333333Y-99322380D02*
X157333333Y-100036666D01*
X157380952Y-100179523D01*
X157476190Y-100274761D01*
X157619047Y-100322380D01*
X157714285Y-100322380D01*
X156904761Y-99417619D02*
X156857142Y-99370000D01*
X156761904Y-99322380D01*
X156523809Y-99322380D01*
X156428571Y-99370000D01*
X156380952Y-99417619D01*
X156333333Y-99512857D01*
X156333333Y-99608095D01*
X156380952Y-99750952D01*
X156952380Y-100322380D01*
X156333333Y-100322380D01*
%TO.C,J1*%
X106333333Y-99322380D02*
X106333333Y-100036666D01*
X106380952Y-100179523D01*
X106476190Y-100274761D01*
X106619047Y-100322380D01*
X106714285Y-100322380D01*
X105333333Y-100322380D02*
X105904761Y-100322380D01*
X105619047Y-100322380D02*
X105619047Y-99322380D01*
X105714285Y-99465238D01*
X105809523Y-99560476D01*
X105904761Y-99608095D01*
%TO.C,Q1*%
X150037238Y-58531619D02*
X150132476Y-58484000D01*
X150227714Y-58388761D01*
X150370571Y-58245904D01*
X150465809Y-58198285D01*
X150561047Y-58198285D01*
X150513428Y-58436380D02*
X150608666Y-58388761D01*
X150703904Y-58293523D01*
X150751523Y-58103047D01*
X150751523Y-57769714D01*
X150703904Y-57579238D01*
X150608666Y-57484000D01*
X150513428Y-57436380D01*
X150322952Y-57436380D01*
X150227714Y-57484000D01*
X150132476Y-57579238D01*
X150084857Y-57769714D01*
X150084857Y-58103047D01*
X150132476Y-58293523D01*
X150227714Y-58388761D01*
X150322952Y-58436380D01*
X150513428Y-58436380D01*
X149132476Y-58436380D02*
X149703904Y-58436380D01*
X149418190Y-58436380D02*
X149418190Y-57436380D01*
X149513428Y-57579238D01*
X149608666Y-57674476D01*
X149703904Y-57722095D01*
%TD*%
M02*
