%TF.GenerationSoftware,KiCad,Pcbnew,(5.0.2)-1*%
%TF.CreationDate,2020-07-31T10:54:53+02:00*%
%TF.ProjectId,Multimeter_Watch_DisplayBoard_V1,4d756c74-696d-4657-9465-725f57617463,rev?*%
%TF.SameCoordinates,Original*%
%TF.FileFunction,Copper,L1,Top*%
%TF.FilePolarity,Positive*%
%FSLAX46Y46*%
G04 Gerber Fmt 4.6, Leading zero omitted, Abs format (unit mm)*
G04 Created by KiCad (PCBNEW (5.0.2)-1) date 31.7.2020 10:54:53*
%MOMM*%
%LPD*%
G01*
G04 APERTURE LIST*
%TA.AperFunction,SMDPad,CuDef*%
%ADD10R,1.300000X1.500000*%
%TD*%
%TA.AperFunction,SMDPad,CuDef*%
%ADD11R,1.500000X1.300000*%
%TD*%
%TA.AperFunction,ComponentPad*%
%ADD12O,1.700000X1.700000*%
%TD*%
%TA.AperFunction,ComponentPad*%
%ADD13R,1.700000X1.700000*%
%TD*%
%TA.AperFunction,ViaPad*%
%ADD14C,0.800000*%
%TD*%
%TA.AperFunction,Conductor*%
%ADD15C,0.500000*%
%TD*%
%TA.AperFunction,Conductor*%
%ADD16C,0.254000*%
%TD*%
G04 APERTURE END LIST*
D10*
%TO.P,SW6,1*%
%TO.N,/BUTT6*%
X149000000Y-98300000D03*
%TO.P,SW6,2*%
%TO.N,/GND*%
X146000000Y-98300000D03*
X146000000Y-92000000D03*
%TO.P,SW6,1*%
%TO.N,/BUTT6*%
X149000000Y-92000000D03*
%TD*%
%TO.P,SW5,1*%
%TO.N,/BUTT5*%
X140500000Y-98300000D03*
%TO.P,SW5,2*%
%TO.N,/GND*%
X137500000Y-98300000D03*
X137500000Y-92000000D03*
%TO.P,SW5,1*%
%TO.N,/BUTT5*%
X140500000Y-92000000D03*
%TD*%
D11*
%TO.P,SW4,1*%
%TO.N,/BUTT4*%
X134700000Y-90500000D03*
%TO.P,SW4,2*%
%TO.N,/GND*%
X134700000Y-93500000D03*
X128400000Y-93500000D03*
%TO.P,SW4,1*%
%TO.N,/BUTT4*%
X128400000Y-90500000D03*
%TD*%
%TO.P,SW3,1*%
%TO.N,/BUTT3*%
X128400000Y-100000000D03*
%TO.P,SW3,2*%
%TO.N,/GND*%
X128400000Y-97000000D03*
X134700000Y-97000000D03*
%TO.P,SW3,1*%
%TO.N,/BUTT3*%
X134700000Y-100000000D03*
%TD*%
D10*
%TO.P,SW2,1*%
%TO.N,/BUTT1*%
X122500000Y-92000000D03*
%TO.P,SW2,2*%
%TO.N,/GND*%
X125500000Y-92000000D03*
X125500000Y-98300000D03*
%TO.P,SW2,1*%
%TO.N,/BUTT1*%
X122500000Y-98300000D03*
%TD*%
%TO.P,SW1,1*%
%TO.N,/BUTT2*%
X114000000Y-92000000D03*
%TO.P,SW1,2*%
%TO.N,/GND*%
X117000000Y-92000000D03*
X117000000Y-98300000D03*
%TO.P,SW1,1*%
%TO.N,/BUTT2*%
X114000000Y-98300000D03*
%TD*%
D12*
%TO.P,J_5,4*%
%TO.N,/SDA*%
X135320000Y-60500000D03*
%TO.P,J_5,3*%
%TO.N,/SCL*%
X132780000Y-60500000D03*
%TO.P,J_5,2*%
%TO.N,/ENABLE*%
X130240000Y-60500000D03*
D13*
%TO.P,J_5,1*%
%TO.N,/GND*%
X127700000Y-60500000D03*
%TD*%
D12*
%TO.P,J4,3*%
%TO.N,/BUTT2*%
X106000000Y-64080000D03*
%TO.P,J4,2*%
%TO.N,/BUTT1*%
X106000000Y-61540000D03*
D13*
%TO.P,J4,1*%
%TO.N,/GND*%
X106000000Y-59000000D03*
%TD*%
D12*
%TO.P,J3,3*%
%TO.N,/BUTT5*%
X157000000Y-64080000D03*
%TO.P,J3,2*%
%TO.N,/BUTT4*%
X157000000Y-61540000D03*
D13*
%TO.P,J3,1*%
%TO.N,/VCC*%
X157000000Y-59000000D03*
%TD*%
D12*
%TO.P,J2,3*%
%TO.N,/BUTT6*%
X157000000Y-92020000D03*
%TO.P,J2,2*%
%TO.N,/SCL*%
X157000000Y-94560000D03*
D13*
%TO.P,J2,1*%
%TO.N,/SDA*%
X157000000Y-97100000D03*
%TD*%
D12*
%TO.P,J1,3*%
%TO.N,/BUTT3*%
X106000000Y-92020000D03*
%TO.P,J1,2*%
%TO.N,/BUZZER*%
X106000000Y-94560000D03*
D13*
%TO.P,J1,1*%
%TO.N,/ENABLE*%
X106000000Y-97100000D03*
%TD*%
D14*
%TO.N,/GND*%
X154500000Y-94500000D03*
X148500000Y-83000000D03*
X111000000Y-75500000D03*
X145000000Y-58000000D03*
X131500000Y-67500000D03*
X134000000Y-67500000D03*
X134000000Y-73000000D03*
X131500000Y-75000000D03*
X138500000Y-85500000D03*
X129500000Y-86500000D03*
X109000000Y-99000000D03*
X118000000Y-58000000D03*
X151500000Y-97500000D03*
X120500000Y-86200000D03*
X126500000Y-67500000D03*
X143000000Y-65500000D03*
%TO.N,/BUZZER*%
X127400000Y-73900000D03*
X136200000Y-68400000D03*
%TD*%
D15*
%TO.N,/BUTT3*%
X113489998Y-100000000D02*
X134700000Y-100000000D01*
X106000000Y-92510002D02*
X113489998Y-100000000D01*
X106000000Y-92020000D02*
X106000000Y-92510002D01*
%TO.N,/BUZZER*%
X127400000Y-73900000D02*
X130700000Y-73900000D01*
X130700000Y-73900000D02*
X136200000Y-68400000D01*
%TO.N,/BUTT6*%
X149000000Y-98300000D02*
X149000000Y-92000000D01*
X156980000Y-92000000D02*
X157000000Y-92020000D01*
X149000000Y-92000000D02*
X156980000Y-92000000D01*
%TO.N,/BUTT4*%
X128400000Y-90500000D02*
X134700000Y-90500000D01*
X151460000Y-61540000D02*
X157000000Y-61540000D01*
X134700000Y-90500000D02*
X134700000Y-78300000D01*
X134700000Y-78300000D02*
X151460000Y-61540000D01*
%TO.N,/BUTT5*%
X140500000Y-98300000D02*
X140500000Y-92000000D01*
X140500000Y-79377919D02*
X140500000Y-92000000D01*
X155797919Y-64080000D02*
X140500000Y-79377919D01*
X157000000Y-64080000D02*
X155797919Y-64080000D01*
%TO.N,/BUTT2*%
X114000000Y-98300000D02*
X114000000Y-92000000D01*
X114000000Y-71028235D02*
X114000000Y-92000000D01*
X107051765Y-64080000D02*
X114000000Y-71028235D01*
X106000000Y-64080000D02*
X107051765Y-64080000D01*
%TO.N,/BUTT1*%
X106849999Y-62389999D02*
X106889999Y-62389999D01*
X106000000Y-61540000D02*
X106849999Y-62389999D01*
X122500000Y-78000000D02*
X122500000Y-92000000D01*
X106889999Y-62389999D02*
X122500000Y-78000000D01*
X122500000Y-92000000D02*
X122500000Y-98300000D01*
%TD*%
D16*
%TO.N,/GND*%
G36*
X112578419Y-100340000D02*
X104660000Y-100340000D01*
X104660000Y-98353889D01*
X104698815Y-98401185D01*
X104795506Y-98480537D01*
X104905820Y-98539502D01*
X105025518Y-98575812D01*
X105150000Y-98588072D01*
X106850000Y-98588072D01*
X106974482Y-98575812D01*
X107094180Y-98539502D01*
X107204494Y-98480537D01*
X107301185Y-98401185D01*
X107380537Y-98304494D01*
X107439502Y-98194180D01*
X107475812Y-98074482D01*
X107488072Y-97950000D01*
X107488072Y-96250000D01*
X107475812Y-96125518D01*
X107439502Y-96005820D01*
X107380537Y-95895506D01*
X107301185Y-95798815D01*
X107204494Y-95719463D01*
X107094180Y-95660498D01*
X107025313Y-95639607D01*
X107055134Y-95615134D01*
X107240706Y-95389014D01*
X107375413Y-95136994D01*
X112578419Y-100340000D01*
X112578419Y-100340000D01*
G37*
X112578419Y-100340000D02*
X104660000Y-100340000D01*
X104660000Y-98353889D01*
X104698815Y-98401185D01*
X104795506Y-98480537D01*
X104905820Y-98539502D01*
X105025518Y-98575812D01*
X105150000Y-98588072D01*
X106850000Y-98588072D01*
X106974482Y-98575812D01*
X107094180Y-98539502D01*
X107204494Y-98480537D01*
X107301185Y-98401185D01*
X107380537Y-98304494D01*
X107439502Y-98194180D01*
X107475812Y-98074482D01*
X107488072Y-97950000D01*
X107488072Y-96250000D01*
X107475812Y-96125518D01*
X107439502Y-96005820D01*
X107380537Y-95895506D01*
X107301185Y-95798815D01*
X107204494Y-95719463D01*
X107094180Y-95660498D01*
X107025313Y-95639607D01*
X107055134Y-95615134D01*
X107240706Y-95389014D01*
X107375413Y-95136994D01*
X112578419Y-100340000D01*
G36*
X158340000Y-57746112D02*
X158301185Y-57698815D01*
X158204494Y-57619463D01*
X158094180Y-57560498D01*
X157974482Y-57524188D01*
X157850000Y-57511928D01*
X156150000Y-57511928D01*
X156025518Y-57524188D01*
X155905820Y-57560498D01*
X155795506Y-57619463D01*
X155698815Y-57698815D01*
X155619463Y-57795506D01*
X155560498Y-57905820D01*
X155524188Y-58025518D01*
X155511928Y-58150000D01*
X155511928Y-59850000D01*
X155524188Y-59974482D01*
X155560498Y-60094180D01*
X155619463Y-60204494D01*
X155698815Y-60301185D01*
X155795506Y-60380537D01*
X155905820Y-60439502D01*
X155974687Y-60460393D01*
X155944866Y-60484866D01*
X155805241Y-60655000D01*
X151503465Y-60655000D01*
X151459999Y-60650719D01*
X151416533Y-60655000D01*
X151416523Y-60655000D01*
X151286510Y-60667805D01*
X151119687Y-60718411D01*
X150965941Y-60800589D01*
X150965939Y-60800590D01*
X150965940Y-60800590D01*
X150864953Y-60883468D01*
X150864951Y-60883470D01*
X150831183Y-60911183D01*
X150803470Y-60944951D01*
X134104952Y-77643470D01*
X134071184Y-77671183D01*
X134043471Y-77704951D01*
X134043468Y-77704954D01*
X133960590Y-77805941D01*
X133878412Y-77959687D01*
X133827805Y-78126510D01*
X133810719Y-78300000D01*
X133815001Y-78343479D01*
X133815000Y-89227379D01*
X133705820Y-89260498D01*
X133595506Y-89319463D01*
X133498815Y-89398815D01*
X133419463Y-89495506D01*
X133360498Y-89605820D01*
X133357713Y-89615000D01*
X129742287Y-89615000D01*
X129739502Y-89605820D01*
X129680537Y-89495506D01*
X129601185Y-89398815D01*
X129504494Y-89319463D01*
X129394180Y-89260498D01*
X129274482Y-89224188D01*
X129150000Y-89211928D01*
X127650000Y-89211928D01*
X127525518Y-89224188D01*
X127405820Y-89260498D01*
X127295506Y-89319463D01*
X127198815Y-89398815D01*
X127119463Y-89495506D01*
X127060498Y-89605820D01*
X127024188Y-89725518D01*
X127011928Y-89850000D01*
X127011928Y-91150000D01*
X127024188Y-91274482D01*
X127060498Y-91394180D01*
X127119463Y-91504494D01*
X127198815Y-91601185D01*
X127295506Y-91680537D01*
X127405820Y-91739502D01*
X127525518Y-91775812D01*
X127650000Y-91788072D01*
X129150000Y-91788072D01*
X129274482Y-91775812D01*
X129394180Y-91739502D01*
X129504494Y-91680537D01*
X129601185Y-91601185D01*
X129680537Y-91504494D01*
X129739502Y-91394180D01*
X129742287Y-91385000D01*
X133357713Y-91385000D01*
X133360498Y-91394180D01*
X133419463Y-91504494D01*
X133498815Y-91601185D01*
X133595506Y-91680537D01*
X133705820Y-91739502D01*
X133825518Y-91775812D01*
X133950000Y-91788072D01*
X135450000Y-91788072D01*
X135574482Y-91775812D01*
X135694180Y-91739502D01*
X135804494Y-91680537D01*
X135901185Y-91601185D01*
X135980537Y-91504494D01*
X136039502Y-91394180D01*
X136075812Y-91274482D01*
X136084382Y-91187458D01*
X136215000Y-91187458D01*
X136215000Y-91714250D01*
X136373750Y-91873000D01*
X137373000Y-91873000D01*
X137373000Y-90773750D01*
X137627000Y-90773750D01*
X137627000Y-91873000D01*
X138626250Y-91873000D01*
X138785000Y-91714250D01*
X138785000Y-91187458D01*
X138760597Y-91064777D01*
X138712730Y-90949215D01*
X138643237Y-90845211D01*
X138554789Y-90756763D01*
X138450785Y-90687270D01*
X138335223Y-90639403D01*
X138212542Y-90615000D01*
X137785750Y-90615000D01*
X137627000Y-90773750D01*
X137373000Y-90773750D01*
X137214250Y-90615000D01*
X136787458Y-90615000D01*
X136664777Y-90639403D01*
X136549215Y-90687270D01*
X136445211Y-90756763D01*
X136356763Y-90845211D01*
X136287270Y-90949215D01*
X136239403Y-91064777D01*
X136215000Y-91187458D01*
X136084382Y-91187458D01*
X136088072Y-91150000D01*
X136088072Y-89850000D01*
X136075812Y-89725518D01*
X136039502Y-89605820D01*
X135980537Y-89495506D01*
X135901185Y-89398815D01*
X135804494Y-89319463D01*
X135694180Y-89260498D01*
X135585000Y-89227379D01*
X135585000Y-78666578D01*
X151826579Y-62425000D01*
X155805241Y-62425000D01*
X155944866Y-62595134D01*
X156170986Y-62780706D01*
X156225791Y-62810000D01*
X156170986Y-62839294D01*
X155944866Y-63024866D01*
X155807944Y-63191706D01*
X155797919Y-63190719D01*
X155754450Y-63195000D01*
X155754442Y-63195000D01*
X155624429Y-63207805D01*
X155457605Y-63258411D01*
X155303860Y-63340589D01*
X155202872Y-63423468D01*
X155202870Y-63423470D01*
X155169102Y-63451183D01*
X155141389Y-63484951D01*
X139904956Y-78721385D01*
X139871183Y-78749102D01*
X139760589Y-78883861D01*
X139678411Y-79037607D01*
X139652935Y-79121588D01*
X139637584Y-79172195D01*
X139627805Y-79204430D01*
X139615000Y-79334443D01*
X139615000Y-79334450D01*
X139610719Y-79377919D01*
X139615000Y-79421388D01*
X139615001Y-90657713D01*
X139605820Y-90660498D01*
X139495506Y-90719463D01*
X139398815Y-90798815D01*
X139319463Y-90895506D01*
X139260498Y-91005820D01*
X139224188Y-91125518D01*
X139211928Y-91250000D01*
X139211928Y-92750000D01*
X139224188Y-92874482D01*
X139260498Y-92994180D01*
X139319463Y-93104494D01*
X139398815Y-93201185D01*
X139495506Y-93280537D01*
X139605820Y-93339502D01*
X139615001Y-93342287D01*
X139615000Y-96957713D01*
X139605820Y-96960498D01*
X139495506Y-97019463D01*
X139398815Y-97098815D01*
X139319463Y-97195506D01*
X139260498Y-97305820D01*
X139224188Y-97425518D01*
X139211928Y-97550000D01*
X139211928Y-99050000D01*
X139224188Y-99174482D01*
X139260498Y-99294180D01*
X139319463Y-99404494D01*
X139398815Y-99501185D01*
X139495506Y-99580537D01*
X139605820Y-99639502D01*
X139725518Y-99675812D01*
X139850000Y-99688072D01*
X141150000Y-99688072D01*
X141274482Y-99675812D01*
X141394180Y-99639502D01*
X141504494Y-99580537D01*
X141601185Y-99501185D01*
X141680537Y-99404494D01*
X141739502Y-99294180D01*
X141775812Y-99174482D01*
X141788072Y-99050000D01*
X141788072Y-98585750D01*
X144715000Y-98585750D01*
X144715000Y-99112542D01*
X144739403Y-99235223D01*
X144787270Y-99350785D01*
X144856763Y-99454789D01*
X144945211Y-99543237D01*
X145049215Y-99612730D01*
X145164777Y-99660597D01*
X145287458Y-99685000D01*
X145714250Y-99685000D01*
X145873000Y-99526250D01*
X145873000Y-98427000D01*
X146127000Y-98427000D01*
X146127000Y-99526250D01*
X146285750Y-99685000D01*
X146712542Y-99685000D01*
X146835223Y-99660597D01*
X146950785Y-99612730D01*
X147054789Y-99543237D01*
X147143237Y-99454789D01*
X147212730Y-99350785D01*
X147260597Y-99235223D01*
X147285000Y-99112542D01*
X147285000Y-98585750D01*
X147126250Y-98427000D01*
X146127000Y-98427000D01*
X145873000Y-98427000D01*
X144873750Y-98427000D01*
X144715000Y-98585750D01*
X141788072Y-98585750D01*
X141788072Y-97550000D01*
X141781913Y-97487458D01*
X144715000Y-97487458D01*
X144715000Y-98014250D01*
X144873750Y-98173000D01*
X145873000Y-98173000D01*
X145873000Y-97073750D01*
X146127000Y-97073750D01*
X146127000Y-98173000D01*
X147126250Y-98173000D01*
X147285000Y-98014250D01*
X147285000Y-97487458D01*
X147260597Y-97364777D01*
X147212730Y-97249215D01*
X147143237Y-97145211D01*
X147054789Y-97056763D01*
X146950785Y-96987270D01*
X146835223Y-96939403D01*
X146712542Y-96915000D01*
X146285750Y-96915000D01*
X146127000Y-97073750D01*
X145873000Y-97073750D01*
X145714250Y-96915000D01*
X145287458Y-96915000D01*
X145164777Y-96939403D01*
X145049215Y-96987270D01*
X144945211Y-97056763D01*
X144856763Y-97145211D01*
X144787270Y-97249215D01*
X144739403Y-97364777D01*
X144715000Y-97487458D01*
X141781913Y-97487458D01*
X141775812Y-97425518D01*
X141739502Y-97305820D01*
X141680537Y-97195506D01*
X141601185Y-97098815D01*
X141504494Y-97019463D01*
X141394180Y-96960498D01*
X141385000Y-96957713D01*
X141385000Y-93342287D01*
X141394180Y-93339502D01*
X141504494Y-93280537D01*
X141601185Y-93201185D01*
X141680537Y-93104494D01*
X141739502Y-92994180D01*
X141775812Y-92874482D01*
X141788072Y-92750000D01*
X141788072Y-92285750D01*
X144715000Y-92285750D01*
X144715000Y-92812542D01*
X144739403Y-92935223D01*
X144787270Y-93050785D01*
X144856763Y-93154789D01*
X144945211Y-93243237D01*
X145049215Y-93312730D01*
X145164777Y-93360597D01*
X145287458Y-93385000D01*
X145714250Y-93385000D01*
X145873000Y-93226250D01*
X145873000Y-92127000D01*
X146127000Y-92127000D01*
X146127000Y-93226250D01*
X146285750Y-93385000D01*
X146712542Y-93385000D01*
X146835223Y-93360597D01*
X146950785Y-93312730D01*
X147054789Y-93243237D01*
X147143237Y-93154789D01*
X147212730Y-93050785D01*
X147260597Y-92935223D01*
X147285000Y-92812542D01*
X147285000Y-92285750D01*
X147126250Y-92127000D01*
X146127000Y-92127000D01*
X145873000Y-92127000D01*
X144873750Y-92127000D01*
X144715000Y-92285750D01*
X141788072Y-92285750D01*
X141788072Y-91250000D01*
X141781913Y-91187458D01*
X144715000Y-91187458D01*
X144715000Y-91714250D01*
X144873750Y-91873000D01*
X145873000Y-91873000D01*
X145873000Y-90773750D01*
X146127000Y-90773750D01*
X146127000Y-91873000D01*
X147126250Y-91873000D01*
X147285000Y-91714250D01*
X147285000Y-91187458D01*
X147260597Y-91064777D01*
X147212730Y-90949215D01*
X147143237Y-90845211D01*
X147054789Y-90756763D01*
X146950785Y-90687270D01*
X146835223Y-90639403D01*
X146712542Y-90615000D01*
X146285750Y-90615000D01*
X146127000Y-90773750D01*
X145873000Y-90773750D01*
X145714250Y-90615000D01*
X145287458Y-90615000D01*
X145164777Y-90639403D01*
X145049215Y-90687270D01*
X144945211Y-90756763D01*
X144856763Y-90845211D01*
X144787270Y-90949215D01*
X144739403Y-91064777D01*
X144715000Y-91187458D01*
X141781913Y-91187458D01*
X141775812Y-91125518D01*
X141739502Y-91005820D01*
X141680537Y-90895506D01*
X141601185Y-90798815D01*
X141504494Y-90719463D01*
X141394180Y-90660498D01*
X141385000Y-90657713D01*
X141385000Y-84334042D01*
X141615000Y-84334042D01*
X141615000Y-84665958D01*
X141679754Y-84991496D01*
X141806772Y-85298147D01*
X141991175Y-85574125D01*
X142225875Y-85808825D01*
X142501853Y-85993228D01*
X142808504Y-86120246D01*
X143134042Y-86185000D01*
X143465958Y-86185000D01*
X143791496Y-86120246D01*
X144098147Y-85993228D01*
X144374125Y-85808825D01*
X144608825Y-85574125D01*
X144793228Y-85298147D01*
X144920246Y-84991496D01*
X144985000Y-84665958D01*
X144985000Y-84334042D01*
X144920246Y-84008504D01*
X144793228Y-83701853D01*
X144608825Y-83425875D01*
X144374125Y-83191175D01*
X144098147Y-83006772D01*
X143791496Y-82879754D01*
X143465958Y-82815000D01*
X143134042Y-82815000D01*
X142808504Y-82879754D01*
X142501853Y-83006772D01*
X142225875Y-83191175D01*
X141991175Y-83425875D01*
X141806772Y-83701853D01*
X141679754Y-84008504D01*
X141615000Y-84334042D01*
X141385000Y-84334042D01*
X141385000Y-79744497D01*
X154640000Y-66489498D01*
X154640001Y-90667571D01*
X154636807Y-90700000D01*
X154649550Y-90829383D01*
X154687290Y-90953793D01*
X154748575Y-91068450D01*
X154786778Y-91115000D01*
X150272621Y-91115000D01*
X150239502Y-91005820D01*
X150180537Y-90895506D01*
X150101185Y-90798815D01*
X150004494Y-90719463D01*
X149894180Y-90660498D01*
X149774482Y-90624188D01*
X149650000Y-90611928D01*
X148350000Y-90611928D01*
X148225518Y-90624188D01*
X148105820Y-90660498D01*
X147995506Y-90719463D01*
X147898815Y-90798815D01*
X147819463Y-90895506D01*
X147760498Y-91005820D01*
X147724188Y-91125518D01*
X147711928Y-91250000D01*
X147711928Y-92750000D01*
X147724188Y-92874482D01*
X147760498Y-92994180D01*
X147819463Y-93104494D01*
X147898815Y-93201185D01*
X147995506Y-93280537D01*
X148105820Y-93339502D01*
X148115001Y-93342287D01*
X148115000Y-96957713D01*
X148105820Y-96960498D01*
X147995506Y-97019463D01*
X147898815Y-97098815D01*
X147819463Y-97195506D01*
X147760498Y-97305820D01*
X147724188Y-97425518D01*
X147711928Y-97550000D01*
X147711928Y-99050000D01*
X147724188Y-99174482D01*
X147760498Y-99294180D01*
X147819463Y-99404494D01*
X147898815Y-99501185D01*
X147995506Y-99580537D01*
X148105820Y-99639502D01*
X148225518Y-99675812D01*
X148350000Y-99688072D01*
X149650000Y-99688072D01*
X149774482Y-99675812D01*
X149894180Y-99639502D01*
X150004494Y-99580537D01*
X150101185Y-99501185D01*
X150180537Y-99404494D01*
X150239502Y-99294180D01*
X150275812Y-99174482D01*
X150288072Y-99050000D01*
X150288072Y-97550000D01*
X150275812Y-97425518D01*
X150239502Y-97305820D01*
X150180537Y-97195506D01*
X150101185Y-97098815D01*
X150004494Y-97019463D01*
X149894180Y-96960498D01*
X149885000Y-96957713D01*
X149885000Y-93342287D01*
X149894180Y-93339502D01*
X150004494Y-93280537D01*
X150101185Y-93201185D01*
X150180537Y-93104494D01*
X150239502Y-92994180D01*
X150272621Y-92885000D01*
X155788827Y-92885000D01*
X155944866Y-93075134D01*
X156170986Y-93260706D01*
X156225791Y-93290000D01*
X156170986Y-93319294D01*
X155944866Y-93504866D01*
X155759294Y-93730986D01*
X155621401Y-93988966D01*
X155536487Y-94268889D01*
X155507815Y-94560000D01*
X155536487Y-94851111D01*
X155621401Y-95131034D01*
X155759294Y-95389014D01*
X155944866Y-95615134D01*
X155974687Y-95639607D01*
X155905820Y-95660498D01*
X155795506Y-95719463D01*
X155698815Y-95798815D01*
X155619463Y-95895506D01*
X155560498Y-96005820D01*
X155524188Y-96125518D01*
X155511928Y-96250000D01*
X155511928Y-97950000D01*
X155524188Y-98074482D01*
X155560498Y-98194180D01*
X155619463Y-98304494D01*
X155698815Y-98401185D01*
X155795506Y-98480537D01*
X155905820Y-98539502D01*
X156025518Y-98575812D01*
X156150000Y-98588072D01*
X157850000Y-98588072D01*
X157974482Y-98575812D01*
X158094180Y-98539502D01*
X158204494Y-98480537D01*
X158301185Y-98401185D01*
X158340001Y-98353888D01*
X158340001Y-100340000D01*
X136088072Y-100340000D01*
X136088072Y-99350000D01*
X136075812Y-99225518D01*
X136039502Y-99105820D01*
X135980537Y-98995506D01*
X135901185Y-98898815D01*
X135804494Y-98819463D01*
X135694180Y-98760498D01*
X135574482Y-98724188D01*
X135450000Y-98711928D01*
X133950000Y-98711928D01*
X133825518Y-98724188D01*
X133705820Y-98760498D01*
X133595506Y-98819463D01*
X133498815Y-98898815D01*
X133419463Y-98995506D01*
X133360498Y-99105820D01*
X133357713Y-99115000D01*
X129742287Y-99115000D01*
X129739502Y-99105820D01*
X129680537Y-98995506D01*
X129601185Y-98898815D01*
X129504494Y-98819463D01*
X129394180Y-98760498D01*
X129274482Y-98724188D01*
X129150000Y-98711928D01*
X127650000Y-98711928D01*
X127525518Y-98724188D01*
X127405820Y-98760498D01*
X127295506Y-98819463D01*
X127198815Y-98898815D01*
X127119463Y-98995506D01*
X127060498Y-99105820D01*
X127057713Y-99115000D01*
X126784511Y-99115000D01*
X126785000Y-99112542D01*
X126785000Y-98585750D01*
X136215000Y-98585750D01*
X136215000Y-99112542D01*
X136239403Y-99235223D01*
X136287270Y-99350785D01*
X136356763Y-99454789D01*
X136445211Y-99543237D01*
X136549215Y-99612730D01*
X136664777Y-99660597D01*
X136787458Y-99685000D01*
X137214250Y-99685000D01*
X137373000Y-99526250D01*
X137373000Y-98427000D01*
X137627000Y-98427000D01*
X137627000Y-99526250D01*
X137785750Y-99685000D01*
X138212542Y-99685000D01*
X138335223Y-99660597D01*
X138450785Y-99612730D01*
X138554789Y-99543237D01*
X138643237Y-99454789D01*
X138712730Y-99350785D01*
X138760597Y-99235223D01*
X138785000Y-99112542D01*
X138785000Y-98585750D01*
X138626250Y-98427000D01*
X137627000Y-98427000D01*
X137373000Y-98427000D01*
X136373750Y-98427000D01*
X136215000Y-98585750D01*
X126785000Y-98585750D01*
X126626250Y-98427000D01*
X125627000Y-98427000D01*
X125627000Y-98447000D01*
X125373000Y-98447000D01*
X125373000Y-98427000D01*
X124373750Y-98427000D01*
X124215000Y-98585750D01*
X124215000Y-99112542D01*
X124215489Y-99115000D01*
X123781670Y-99115000D01*
X123788072Y-99050000D01*
X123788072Y-97550000D01*
X123781913Y-97487458D01*
X124215000Y-97487458D01*
X124215000Y-98014250D01*
X124373750Y-98173000D01*
X125373000Y-98173000D01*
X125373000Y-97073750D01*
X125627000Y-97073750D01*
X125627000Y-98173000D01*
X126626250Y-98173000D01*
X126785000Y-98014250D01*
X126785000Y-97487458D01*
X126760597Y-97364777D01*
X126727864Y-97285750D01*
X127015000Y-97285750D01*
X127015000Y-97712542D01*
X127039403Y-97835223D01*
X127087270Y-97950785D01*
X127156763Y-98054789D01*
X127245211Y-98143237D01*
X127349215Y-98212730D01*
X127464777Y-98260597D01*
X127587458Y-98285000D01*
X128114250Y-98285000D01*
X128273000Y-98126250D01*
X128273000Y-97127000D01*
X128527000Y-97127000D01*
X128527000Y-98126250D01*
X128685750Y-98285000D01*
X129212542Y-98285000D01*
X129335223Y-98260597D01*
X129450785Y-98212730D01*
X129554789Y-98143237D01*
X129643237Y-98054789D01*
X129712730Y-97950785D01*
X129760597Y-97835223D01*
X129785000Y-97712542D01*
X129785000Y-97285750D01*
X133315000Y-97285750D01*
X133315000Y-97712542D01*
X133339403Y-97835223D01*
X133387270Y-97950785D01*
X133456763Y-98054789D01*
X133545211Y-98143237D01*
X133649215Y-98212730D01*
X133764777Y-98260597D01*
X133887458Y-98285000D01*
X134414250Y-98285000D01*
X134573000Y-98126250D01*
X134573000Y-97127000D01*
X134827000Y-97127000D01*
X134827000Y-98126250D01*
X134985750Y-98285000D01*
X135512542Y-98285000D01*
X135635223Y-98260597D01*
X135750785Y-98212730D01*
X135854789Y-98143237D01*
X135943237Y-98054789D01*
X136012730Y-97950785D01*
X136060597Y-97835223D01*
X136085000Y-97712542D01*
X136085000Y-97487458D01*
X136215000Y-97487458D01*
X136215000Y-98014250D01*
X136373750Y-98173000D01*
X137373000Y-98173000D01*
X137373000Y-97073750D01*
X137627000Y-97073750D01*
X137627000Y-98173000D01*
X138626250Y-98173000D01*
X138785000Y-98014250D01*
X138785000Y-97487458D01*
X138760597Y-97364777D01*
X138712730Y-97249215D01*
X138643237Y-97145211D01*
X138554789Y-97056763D01*
X138450785Y-96987270D01*
X138335223Y-96939403D01*
X138212542Y-96915000D01*
X137785750Y-96915000D01*
X137627000Y-97073750D01*
X137373000Y-97073750D01*
X137214250Y-96915000D01*
X136787458Y-96915000D01*
X136664777Y-96939403D01*
X136549215Y-96987270D01*
X136445211Y-97056763D01*
X136356763Y-97145211D01*
X136287270Y-97249215D01*
X136239403Y-97364777D01*
X136215000Y-97487458D01*
X136085000Y-97487458D01*
X136085000Y-97285750D01*
X135926250Y-97127000D01*
X134827000Y-97127000D01*
X134573000Y-97127000D01*
X133473750Y-97127000D01*
X133315000Y-97285750D01*
X129785000Y-97285750D01*
X129626250Y-97127000D01*
X128527000Y-97127000D01*
X128273000Y-97127000D01*
X127173750Y-97127000D01*
X127015000Y-97285750D01*
X126727864Y-97285750D01*
X126712730Y-97249215D01*
X126643237Y-97145211D01*
X126554789Y-97056763D01*
X126450785Y-96987270D01*
X126335223Y-96939403D01*
X126212542Y-96915000D01*
X125785750Y-96915000D01*
X125627000Y-97073750D01*
X125373000Y-97073750D01*
X125214250Y-96915000D01*
X124787458Y-96915000D01*
X124664777Y-96939403D01*
X124549215Y-96987270D01*
X124445211Y-97056763D01*
X124356763Y-97145211D01*
X124287270Y-97249215D01*
X124239403Y-97364777D01*
X124215000Y-97487458D01*
X123781913Y-97487458D01*
X123775812Y-97425518D01*
X123739502Y-97305820D01*
X123680537Y-97195506D01*
X123601185Y-97098815D01*
X123504494Y-97019463D01*
X123394180Y-96960498D01*
X123385000Y-96957713D01*
X123385000Y-96287458D01*
X127015000Y-96287458D01*
X127015000Y-96714250D01*
X127173750Y-96873000D01*
X128273000Y-96873000D01*
X128273000Y-95873750D01*
X128527000Y-95873750D01*
X128527000Y-96873000D01*
X129626250Y-96873000D01*
X129785000Y-96714250D01*
X129785000Y-96287458D01*
X133315000Y-96287458D01*
X133315000Y-96714250D01*
X133473750Y-96873000D01*
X134573000Y-96873000D01*
X134573000Y-95873750D01*
X134827000Y-95873750D01*
X134827000Y-96873000D01*
X135926250Y-96873000D01*
X136085000Y-96714250D01*
X136085000Y-96287458D01*
X136060597Y-96164777D01*
X136012730Y-96049215D01*
X135943237Y-95945211D01*
X135854789Y-95856763D01*
X135750785Y-95787270D01*
X135635223Y-95739403D01*
X135512542Y-95715000D01*
X134985750Y-95715000D01*
X134827000Y-95873750D01*
X134573000Y-95873750D01*
X134414250Y-95715000D01*
X133887458Y-95715000D01*
X133764777Y-95739403D01*
X133649215Y-95787270D01*
X133545211Y-95856763D01*
X133456763Y-95945211D01*
X133387270Y-96049215D01*
X133339403Y-96164777D01*
X133315000Y-96287458D01*
X129785000Y-96287458D01*
X129760597Y-96164777D01*
X129712730Y-96049215D01*
X129643237Y-95945211D01*
X129554789Y-95856763D01*
X129450785Y-95787270D01*
X129335223Y-95739403D01*
X129212542Y-95715000D01*
X128685750Y-95715000D01*
X128527000Y-95873750D01*
X128273000Y-95873750D01*
X128114250Y-95715000D01*
X127587458Y-95715000D01*
X127464777Y-95739403D01*
X127349215Y-95787270D01*
X127245211Y-95856763D01*
X127156763Y-95945211D01*
X127087270Y-96049215D01*
X127039403Y-96164777D01*
X127015000Y-96287458D01*
X123385000Y-96287458D01*
X123385000Y-93785750D01*
X127015000Y-93785750D01*
X127015000Y-94212542D01*
X127039403Y-94335223D01*
X127087270Y-94450785D01*
X127156763Y-94554789D01*
X127245211Y-94643237D01*
X127349215Y-94712730D01*
X127464777Y-94760597D01*
X127587458Y-94785000D01*
X128114250Y-94785000D01*
X128273000Y-94626250D01*
X128273000Y-93627000D01*
X128527000Y-93627000D01*
X128527000Y-94626250D01*
X128685750Y-94785000D01*
X129212542Y-94785000D01*
X129335223Y-94760597D01*
X129450785Y-94712730D01*
X129554789Y-94643237D01*
X129643237Y-94554789D01*
X129712730Y-94450785D01*
X129760597Y-94335223D01*
X129785000Y-94212542D01*
X129785000Y-93785750D01*
X133315000Y-93785750D01*
X133315000Y-94212542D01*
X133339403Y-94335223D01*
X133387270Y-94450785D01*
X133456763Y-94554789D01*
X133545211Y-94643237D01*
X133649215Y-94712730D01*
X133764777Y-94760597D01*
X133887458Y-94785000D01*
X134414250Y-94785000D01*
X134573000Y-94626250D01*
X134573000Y-93627000D01*
X134827000Y-93627000D01*
X134827000Y-94626250D01*
X134985750Y-94785000D01*
X135512542Y-94785000D01*
X135635223Y-94760597D01*
X135750785Y-94712730D01*
X135854789Y-94643237D01*
X135943237Y-94554789D01*
X136012730Y-94450785D01*
X136060597Y-94335223D01*
X136085000Y-94212542D01*
X136085000Y-93785750D01*
X135926250Y-93627000D01*
X134827000Y-93627000D01*
X134573000Y-93627000D01*
X133473750Y-93627000D01*
X133315000Y-93785750D01*
X129785000Y-93785750D01*
X129626250Y-93627000D01*
X128527000Y-93627000D01*
X128273000Y-93627000D01*
X127173750Y-93627000D01*
X127015000Y-93785750D01*
X123385000Y-93785750D01*
X123385000Y-93342287D01*
X123394180Y-93339502D01*
X123504494Y-93280537D01*
X123601185Y-93201185D01*
X123680537Y-93104494D01*
X123739502Y-92994180D01*
X123775812Y-92874482D01*
X123788072Y-92750000D01*
X123788072Y-92285750D01*
X124215000Y-92285750D01*
X124215000Y-92812542D01*
X124239403Y-92935223D01*
X124287270Y-93050785D01*
X124356763Y-93154789D01*
X124445211Y-93243237D01*
X124549215Y-93312730D01*
X124664777Y-93360597D01*
X124787458Y-93385000D01*
X125214250Y-93385000D01*
X125373000Y-93226250D01*
X125373000Y-92127000D01*
X125627000Y-92127000D01*
X125627000Y-93226250D01*
X125785750Y-93385000D01*
X126212542Y-93385000D01*
X126335223Y-93360597D01*
X126450785Y-93312730D01*
X126554789Y-93243237D01*
X126643237Y-93154789D01*
X126712730Y-93050785D01*
X126760597Y-92935223D01*
X126785000Y-92812542D01*
X126785000Y-92787458D01*
X127015000Y-92787458D01*
X127015000Y-93214250D01*
X127173750Y-93373000D01*
X128273000Y-93373000D01*
X128273000Y-92373750D01*
X128527000Y-92373750D01*
X128527000Y-93373000D01*
X129626250Y-93373000D01*
X129785000Y-93214250D01*
X129785000Y-92787458D01*
X133315000Y-92787458D01*
X133315000Y-93214250D01*
X133473750Y-93373000D01*
X134573000Y-93373000D01*
X134573000Y-92373750D01*
X134827000Y-92373750D01*
X134827000Y-93373000D01*
X135926250Y-93373000D01*
X136085000Y-93214250D01*
X136085000Y-92787458D01*
X136060597Y-92664777D01*
X136012730Y-92549215D01*
X135943237Y-92445211D01*
X135854789Y-92356763D01*
X135750785Y-92287270D01*
X135747116Y-92285750D01*
X136215000Y-92285750D01*
X136215000Y-92812542D01*
X136239403Y-92935223D01*
X136287270Y-93050785D01*
X136356763Y-93154789D01*
X136445211Y-93243237D01*
X136549215Y-93312730D01*
X136664777Y-93360597D01*
X136787458Y-93385000D01*
X137214250Y-93385000D01*
X137373000Y-93226250D01*
X137373000Y-92127000D01*
X137627000Y-92127000D01*
X137627000Y-93226250D01*
X137785750Y-93385000D01*
X138212542Y-93385000D01*
X138335223Y-93360597D01*
X138450785Y-93312730D01*
X138554789Y-93243237D01*
X138643237Y-93154789D01*
X138712730Y-93050785D01*
X138760597Y-92935223D01*
X138785000Y-92812542D01*
X138785000Y-92285750D01*
X138626250Y-92127000D01*
X137627000Y-92127000D01*
X137373000Y-92127000D01*
X136373750Y-92127000D01*
X136215000Y-92285750D01*
X135747116Y-92285750D01*
X135635223Y-92239403D01*
X135512542Y-92215000D01*
X134985750Y-92215000D01*
X134827000Y-92373750D01*
X134573000Y-92373750D01*
X134414250Y-92215000D01*
X133887458Y-92215000D01*
X133764777Y-92239403D01*
X133649215Y-92287270D01*
X133545211Y-92356763D01*
X133456763Y-92445211D01*
X133387270Y-92549215D01*
X133339403Y-92664777D01*
X133315000Y-92787458D01*
X129785000Y-92787458D01*
X129760597Y-92664777D01*
X129712730Y-92549215D01*
X129643237Y-92445211D01*
X129554789Y-92356763D01*
X129450785Y-92287270D01*
X129335223Y-92239403D01*
X129212542Y-92215000D01*
X128685750Y-92215000D01*
X128527000Y-92373750D01*
X128273000Y-92373750D01*
X128114250Y-92215000D01*
X127587458Y-92215000D01*
X127464777Y-92239403D01*
X127349215Y-92287270D01*
X127245211Y-92356763D01*
X127156763Y-92445211D01*
X127087270Y-92549215D01*
X127039403Y-92664777D01*
X127015000Y-92787458D01*
X126785000Y-92787458D01*
X126785000Y-92285750D01*
X126626250Y-92127000D01*
X125627000Y-92127000D01*
X125373000Y-92127000D01*
X124373750Y-92127000D01*
X124215000Y-92285750D01*
X123788072Y-92285750D01*
X123788072Y-91250000D01*
X123781913Y-91187458D01*
X124215000Y-91187458D01*
X124215000Y-91714250D01*
X124373750Y-91873000D01*
X125373000Y-91873000D01*
X125373000Y-90773750D01*
X125627000Y-90773750D01*
X125627000Y-91873000D01*
X126626250Y-91873000D01*
X126785000Y-91714250D01*
X126785000Y-91187458D01*
X126760597Y-91064777D01*
X126712730Y-90949215D01*
X126643237Y-90845211D01*
X126554789Y-90756763D01*
X126450785Y-90687270D01*
X126335223Y-90639403D01*
X126212542Y-90615000D01*
X125785750Y-90615000D01*
X125627000Y-90773750D01*
X125373000Y-90773750D01*
X125214250Y-90615000D01*
X124787458Y-90615000D01*
X124664777Y-90639403D01*
X124549215Y-90687270D01*
X124445211Y-90756763D01*
X124356763Y-90845211D01*
X124287270Y-90949215D01*
X124239403Y-91064777D01*
X124215000Y-91187458D01*
X123781913Y-91187458D01*
X123775812Y-91125518D01*
X123739502Y-91005820D01*
X123680537Y-90895506D01*
X123601185Y-90798815D01*
X123504494Y-90719463D01*
X123394180Y-90660498D01*
X123385000Y-90657713D01*
X123385000Y-78043465D01*
X123389281Y-77999999D01*
X123385000Y-77956533D01*
X123385000Y-77956523D01*
X123372195Y-77826510D01*
X123321589Y-77659687D01*
X123239411Y-77505941D01*
X123128817Y-77371183D01*
X123095051Y-77343472D01*
X119549640Y-73798061D01*
X126365000Y-73798061D01*
X126365000Y-74001939D01*
X126404774Y-74201898D01*
X126482795Y-74390256D01*
X126596063Y-74559774D01*
X126740226Y-74703937D01*
X126909744Y-74817205D01*
X127098102Y-74895226D01*
X127298061Y-74935000D01*
X127501939Y-74935000D01*
X127701898Y-74895226D01*
X127890256Y-74817205D01*
X127938454Y-74785000D01*
X130656531Y-74785000D01*
X130700000Y-74789281D01*
X130743469Y-74785000D01*
X130743477Y-74785000D01*
X130873490Y-74772195D01*
X131040313Y-74721589D01*
X131194059Y-74639411D01*
X131328817Y-74528817D01*
X131356534Y-74495044D01*
X136445044Y-69406535D01*
X136501898Y-69395226D01*
X136690256Y-69317205D01*
X136859774Y-69203937D01*
X137003937Y-69059774D01*
X137117205Y-68890256D01*
X137195226Y-68701898D01*
X137235000Y-68501939D01*
X137235000Y-68298061D01*
X137195226Y-68098102D01*
X137117205Y-67909744D01*
X137003937Y-67740226D01*
X136859774Y-67596063D01*
X136690256Y-67482795D01*
X136501898Y-67404774D01*
X136301939Y-67365000D01*
X136098061Y-67365000D01*
X135898102Y-67404774D01*
X135709744Y-67482795D01*
X135540226Y-67596063D01*
X135396063Y-67740226D01*
X135282795Y-67909744D01*
X135204774Y-68098102D01*
X135193465Y-68154956D01*
X130333422Y-73015000D01*
X127938454Y-73015000D01*
X127890256Y-72982795D01*
X127701898Y-72904774D01*
X127501939Y-72865000D01*
X127298061Y-72865000D01*
X127098102Y-72904774D01*
X126909744Y-72982795D01*
X126740226Y-73096063D01*
X126596063Y-73240226D01*
X126482795Y-73409744D01*
X126404774Y-73598102D01*
X126365000Y-73798061D01*
X119549640Y-73798061D01*
X107546533Y-61794955D01*
X107518816Y-61761182D01*
X107474021Y-61724420D01*
X107492185Y-61540000D01*
X107463513Y-61248889D01*
X107378599Y-60968966D01*
X107280669Y-60785750D01*
X126215000Y-60785750D01*
X126215000Y-61412542D01*
X126239403Y-61535223D01*
X126287270Y-61650785D01*
X126356763Y-61754789D01*
X126445211Y-61843237D01*
X126549215Y-61912730D01*
X126664777Y-61960597D01*
X126787458Y-61985000D01*
X127414250Y-61985000D01*
X127573000Y-61826250D01*
X127573000Y-60627000D01*
X126373750Y-60627000D01*
X126215000Y-60785750D01*
X107280669Y-60785750D01*
X107240706Y-60710986D01*
X107055134Y-60484866D01*
X107027447Y-60462144D01*
X107035223Y-60460597D01*
X107150785Y-60412730D01*
X107254789Y-60343237D01*
X107343237Y-60254789D01*
X107412730Y-60150785D01*
X107460597Y-60035223D01*
X107485000Y-59912542D01*
X107485000Y-59587458D01*
X126215000Y-59587458D01*
X126215000Y-60214250D01*
X126373750Y-60373000D01*
X127573000Y-60373000D01*
X127573000Y-59173750D01*
X127827000Y-59173750D01*
X127827000Y-60373000D01*
X127847000Y-60373000D01*
X127847000Y-60627000D01*
X127827000Y-60627000D01*
X127827000Y-61826250D01*
X127985750Y-61985000D01*
X128612542Y-61985000D01*
X128735223Y-61960597D01*
X128850785Y-61912730D01*
X128954789Y-61843237D01*
X129043237Y-61754789D01*
X129112730Y-61650785D01*
X129160597Y-61535223D01*
X129162144Y-61527447D01*
X129184866Y-61555134D01*
X129410986Y-61740706D01*
X129668966Y-61878599D01*
X129948889Y-61963513D01*
X130167050Y-61985000D01*
X130312950Y-61985000D01*
X130531111Y-61963513D01*
X130811034Y-61878599D01*
X131069014Y-61740706D01*
X131295134Y-61555134D01*
X131480706Y-61329014D01*
X131510000Y-61274209D01*
X131539294Y-61329014D01*
X131724866Y-61555134D01*
X131950986Y-61740706D01*
X132208966Y-61878599D01*
X132488889Y-61963513D01*
X132707050Y-61985000D01*
X132852950Y-61985000D01*
X133071111Y-61963513D01*
X133351034Y-61878599D01*
X133609014Y-61740706D01*
X133835134Y-61555134D01*
X134020706Y-61329014D01*
X134050000Y-61274209D01*
X134079294Y-61329014D01*
X134264866Y-61555134D01*
X134490986Y-61740706D01*
X134748966Y-61878599D01*
X135028889Y-61963513D01*
X135247050Y-61985000D01*
X135392950Y-61985000D01*
X135611111Y-61963513D01*
X135891034Y-61878599D01*
X136149014Y-61740706D01*
X136375134Y-61555134D01*
X136560706Y-61329014D01*
X136698599Y-61071034D01*
X136783513Y-60791111D01*
X136812185Y-60500000D01*
X136783513Y-60208889D01*
X136698599Y-59928966D01*
X136560706Y-59670986D01*
X136375134Y-59444866D01*
X136149014Y-59259294D01*
X135891034Y-59121401D01*
X135611111Y-59036487D01*
X135392950Y-59015000D01*
X135247050Y-59015000D01*
X135028889Y-59036487D01*
X134748966Y-59121401D01*
X134490986Y-59259294D01*
X134264866Y-59444866D01*
X134079294Y-59670986D01*
X134050000Y-59725791D01*
X134020706Y-59670986D01*
X133835134Y-59444866D01*
X133609014Y-59259294D01*
X133351034Y-59121401D01*
X133071111Y-59036487D01*
X132852950Y-59015000D01*
X132707050Y-59015000D01*
X132488889Y-59036487D01*
X132208966Y-59121401D01*
X131950986Y-59259294D01*
X131724866Y-59444866D01*
X131539294Y-59670986D01*
X131510000Y-59725791D01*
X131480706Y-59670986D01*
X131295134Y-59444866D01*
X131069014Y-59259294D01*
X130811034Y-59121401D01*
X130531111Y-59036487D01*
X130312950Y-59015000D01*
X130167050Y-59015000D01*
X129948889Y-59036487D01*
X129668966Y-59121401D01*
X129410986Y-59259294D01*
X129184866Y-59444866D01*
X129162144Y-59472553D01*
X129160597Y-59464777D01*
X129112730Y-59349215D01*
X129043237Y-59245211D01*
X128954789Y-59156763D01*
X128850785Y-59087270D01*
X128735223Y-59039403D01*
X128612542Y-59015000D01*
X127985750Y-59015000D01*
X127827000Y-59173750D01*
X127573000Y-59173750D01*
X127414250Y-59015000D01*
X126787458Y-59015000D01*
X126664777Y-59039403D01*
X126549215Y-59087270D01*
X126445211Y-59156763D01*
X126356763Y-59245211D01*
X126287270Y-59349215D01*
X126239403Y-59464777D01*
X126215000Y-59587458D01*
X107485000Y-59587458D01*
X107485000Y-59285750D01*
X107326250Y-59127000D01*
X106127000Y-59127000D01*
X106127000Y-59147000D01*
X105873000Y-59147000D01*
X105873000Y-59127000D01*
X105853000Y-59127000D01*
X105853000Y-58873000D01*
X105873000Y-58873000D01*
X105873000Y-57673750D01*
X106127000Y-57673750D01*
X106127000Y-58873000D01*
X107326250Y-58873000D01*
X107485000Y-58714250D01*
X107485000Y-58087458D01*
X107460597Y-57964777D01*
X107412730Y-57849215D01*
X107343237Y-57745211D01*
X107254789Y-57656763D01*
X107150785Y-57587270D01*
X107035223Y-57539403D01*
X106912542Y-57515000D01*
X106285750Y-57515000D01*
X106127000Y-57673750D01*
X105873000Y-57673750D01*
X105714250Y-57515000D01*
X105087458Y-57515000D01*
X104964777Y-57539403D01*
X104849215Y-57587270D01*
X104745211Y-57656763D01*
X104660000Y-57741974D01*
X104660000Y-55660000D01*
X158340000Y-55660000D01*
X158340000Y-57746112D01*
X158340000Y-57746112D01*
G37*
X158340000Y-57746112D02*
X158301185Y-57698815D01*
X158204494Y-57619463D01*
X158094180Y-57560498D01*
X157974482Y-57524188D01*
X157850000Y-57511928D01*
X156150000Y-57511928D01*
X156025518Y-57524188D01*
X155905820Y-57560498D01*
X155795506Y-57619463D01*
X155698815Y-57698815D01*
X155619463Y-57795506D01*
X155560498Y-57905820D01*
X155524188Y-58025518D01*
X155511928Y-58150000D01*
X155511928Y-59850000D01*
X155524188Y-59974482D01*
X155560498Y-60094180D01*
X155619463Y-60204494D01*
X155698815Y-60301185D01*
X155795506Y-60380537D01*
X155905820Y-60439502D01*
X155974687Y-60460393D01*
X155944866Y-60484866D01*
X155805241Y-60655000D01*
X151503465Y-60655000D01*
X151459999Y-60650719D01*
X151416533Y-60655000D01*
X151416523Y-60655000D01*
X151286510Y-60667805D01*
X151119687Y-60718411D01*
X150965941Y-60800589D01*
X150965939Y-60800590D01*
X150965940Y-60800590D01*
X150864953Y-60883468D01*
X150864951Y-60883470D01*
X150831183Y-60911183D01*
X150803470Y-60944951D01*
X134104952Y-77643470D01*
X134071184Y-77671183D01*
X134043471Y-77704951D01*
X134043468Y-77704954D01*
X133960590Y-77805941D01*
X133878412Y-77959687D01*
X133827805Y-78126510D01*
X133810719Y-78300000D01*
X133815001Y-78343479D01*
X133815000Y-89227379D01*
X133705820Y-89260498D01*
X133595506Y-89319463D01*
X133498815Y-89398815D01*
X133419463Y-89495506D01*
X133360498Y-89605820D01*
X133357713Y-89615000D01*
X129742287Y-89615000D01*
X129739502Y-89605820D01*
X129680537Y-89495506D01*
X129601185Y-89398815D01*
X129504494Y-89319463D01*
X129394180Y-89260498D01*
X129274482Y-89224188D01*
X129150000Y-89211928D01*
X127650000Y-89211928D01*
X127525518Y-89224188D01*
X127405820Y-89260498D01*
X127295506Y-89319463D01*
X127198815Y-89398815D01*
X127119463Y-89495506D01*
X127060498Y-89605820D01*
X127024188Y-89725518D01*
X127011928Y-89850000D01*
X127011928Y-91150000D01*
X127024188Y-91274482D01*
X127060498Y-91394180D01*
X127119463Y-91504494D01*
X127198815Y-91601185D01*
X127295506Y-91680537D01*
X127405820Y-91739502D01*
X127525518Y-91775812D01*
X127650000Y-91788072D01*
X129150000Y-91788072D01*
X129274482Y-91775812D01*
X129394180Y-91739502D01*
X129504494Y-91680537D01*
X129601185Y-91601185D01*
X129680537Y-91504494D01*
X129739502Y-91394180D01*
X129742287Y-91385000D01*
X133357713Y-91385000D01*
X133360498Y-91394180D01*
X133419463Y-91504494D01*
X133498815Y-91601185D01*
X133595506Y-91680537D01*
X133705820Y-91739502D01*
X133825518Y-91775812D01*
X133950000Y-91788072D01*
X135450000Y-91788072D01*
X135574482Y-91775812D01*
X135694180Y-91739502D01*
X135804494Y-91680537D01*
X135901185Y-91601185D01*
X135980537Y-91504494D01*
X136039502Y-91394180D01*
X136075812Y-91274482D01*
X136084382Y-91187458D01*
X136215000Y-91187458D01*
X136215000Y-91714250D01*
X136373750Y-91873000D01*
X137373000Y-91873000D01*
X137373000Y-90773750D01*
X137627000Y-90773750D01*
X137627000Y-91873000D01*
X138626250Y-91873000D01*
X138785000Y-91714250D01*
X138785000Y-91187458D01*
X138760597Y-91064777D01*
X138712730Y-90949215D01*
X138643237Y-90845211D01*
X138554789Y-90756763D01*
X138450785Y-90687270D01*
X138335223Y-90639403D01*
X138212542Y-90615000D01*
X137785750Y-90615000D01*
X137627000Y-90773750D01*
X137373000Y-90773750D01*
X137214250Y-90615000D01*
X136787458Y-90615000D01*
X136664777Y-90639403D01*
X136549215Y-90687270D01*
X136445211Y-90756763D01*
X136356763Y-90845211D01*
X136287270Y-90949215D01*
X136239403Y-91064777D01*
X136215000Y-91187458D01*
X136084382Y-91187458D01*
X136088072Y-91150000D01*
X136088072Y-89850000D01*
X136075812Y-89725518D01*
X136039502Y-89605820D01*
X135980537Y-89495506D01*
X135901185Y-89398815D01*
X135804494Y-89319463D01*
X135694180Y-89260498D01*
X135585000Y-89227379D01*
X135585000Y-78666578D01*
X151826579Y-62425000D01*
X155805241Y-62425000D01*
X155944866Y-62595134D01*
X156170986Y-62780706D01*
X156225791Y-62810000D01*
X156170986Y-62839294D01*
X155944866Y-63024866D01*
X155807944Y-63191706D01*
X155797919Y-63190719D01*
X155754450Y-63195000D01*
X155754442Y-63195000D01*
X155624429Y-63207805D01*
X155457605Y-63258411D01*
X155303860Y-63340589D01*
X155202872Y-63423468D01*
X155202870Y-63423470D01*
X155169102Y-63451183D01*
X155141389Y-63484951D01*
X139904956Y-78721385D01*
X139871183Y-78749102D01*
X139760589Y-78883861D01*
X139678411Y-79037607D01*
X139652935Y-79121588D01*
X139637584Y-79172195D01*
X139627805Y-79204430D01*
X139615000Y-79334443D01*
X139615000Y-79334450D01*
X139610719Y-79377919D01*
X139615000Y-79421388D01*
X139615001Y-90657713D01*
X139605820Y-90660498D01*
X139495506Y-90719463D01*
X139398815Y-90798815D01*
X139319463Y-90895506D01*
X139260498Y-91005820D01*
X139224188Y-91125518D01*
X139211928Y-91250000D01*
X139211928Y-92750000D01*
X139224188Y-92874482D01*
X139260498Y-92994180D01*
X139319463Y-93104494D01*
X139398815Y-93201185D01*
X139495506Y-93280537D01*
X139605820Y-93339502D01*
X139615001Y-93342287D01*
X139615000Y-96957713D01*
X139605820Y-96960498D01*
X139495506Y-97019463D01*
X139398815Y-97098815D01*
X139319463Y-97195506D01*
X139260498Y-97305820D01*
X139224188Y-97425518D01*
X139211928Y-97550000D01*
X139211928Y-99050000D01*
X139224188Y-99174482D01*
X139260498Y-99294180D01*
X139319463Y-99404494D01*
X139398815Y-99501185D01*
X139495506Y-99580537D01*
X139605820Y-99639502D01*
X139725518Y-99675812D01*
X139850000Y-99688072D01*
X141150000Y-99688072D01*
X141274482Y-99675812D01*
X141394180Y-99639502D01*
X141504494Y-99580537D01*
X141601185Y-99501185D01*
X141680537Y-99404494D01*
X141739502Y-99294180D01*
X141775812Y-99174482D01*
X141788072Y-99050000D01*
X141788072Y-98585750D01*
X144715000Y-98585750D01*
X144715000Y-99112542D01*
X144739403Y-99235223D01*
X144787270Y-99350785D01*
X144856763Y-99454789D01*
X144945211Y-99543237D01*
X145049215Y-99612730D01*
X145164777Y-99660597D01*
X145287458Y-99685000D01*
X145714250Y-99685000D01*
X145873000Y-99526250D01*
X145873000Y-98427000D01*
X146127000Y-98427000D01*
X146127000Y-99526250D01*
X146285750Y-99685000D01*
X146712542Y-99685000D01*
X146835223Y-99660597D01*
X146950785Y-99612730D01*
X147054789Y-99543237D01*
X147143237Y-99454789D01*
X147212730Y-99350785D01*
X147260597Y-99235223D01*
X147285000Y-99112542D01*
X147285000Y-98585750D01*
X147126250Y-98427000D01*
X146127000Y-98427000D01*
X145873000Y-98427000D01*
X144873750Y-98427000D01*
X144715000Y-98585750D01*
X141788072Y-98585750D01*
X141788072Y-97550000D01*
X141781913Y-97487458D01*
X144715000Y-97487458D01*
X144715000Y-98014250D01*
X144873750Y-98173000D01*
X145873000Y-98173000D01*
X145873000Y-97073750D01*
X146127000Y-97073750D01*
X146127000Y-98173000D01*
X147126250Y-98173000D01*
X147285000Y-98014250D01*
X147285000Y-97487458D01*
X147260597Y-97364777D01*
X147212730Y-97249215D01*
X147143237Y-97145211D01*
X147054789Y-97056763D01*
X146950785Y-96987270D01*
X146835223Y-96939403D01*
X146712542Y-96915000D01*
X146285750Y-96915000D01*
X146127000Y-97073750D01*
X145873000Y-97073750D01*
X145714250Y-96915000D01*
X145287458Y-96915000D01*
X145164777Y-96939403D01*
X145049215Y-96987270D01*
X144945211Y-97056763D01*
X144856763Y-97145211D01*
X144787270Y-97249215D01*
X144739403Y-97364777D01*
X144715000Y-97487458D01*
X141781913Y-97487458D01*
X141775812Y-97425518D01*
X141739502Y-97305820D01*
X141680537Y-97195506D01*
X141601185Y-97098815D01*
X141504494Y-97019463D01*
X141394180Y-96960498D01*
X141385000Y-96957713D01*
X141385000Y-93342287D01*
X141394180Y-93339502D01*
X141504494Y-93280537D01*
X141601185Y-93201185D01*
X141680537Y-93104494D01*
X141739502Y-92994180D01*
X141775812Y-92874482D01*
X141788072Y-92750000D01*
X141788072Y-92285750D01*
X144715000Y-92285750D01*
X144715000Y-92812542D01*
X144739403Y-92935223D01*
X144787270Y-93050785D01*
X144856763Y-93154789D01*
X144945211Y-93243237D01*
X145049215Y-93312730D01*
X145164777Y-93360597D01*
X145287458Y-93385000D01*
X145714250Y-93385000D01*
X145873000Y-93226250D01*
X145873000Y-92127000D01*
X146127000Y-92127000D01*
X146127000Y-93226250D01*
X146285750Y-93385000D01*
X146712542Y-93385000D01*
X146835223Y-93360597D01*
X146950785Y-93312730D01*
X147054789Y-93243237D01*
X147143237Y-93154789D01*
X147212730Y-93050785D01*
X147260597Y-92935223D01*
X147285000Y-92812542D01*
X147285000Y-92285750D01*
X147126250Y-92127000D01*
X146127000Y-92127000D01*
X145873000Y-92127000D01*
X144873750Y-92127000D01*
X144715000Y-92285750D01*
X141788072Y-92285750D01*
X141788072Y-91250000D01*
X141781913Y-91187458D01*
X144715000Y-91187458D01*
X144715000Y-91714250D01*
X144873750Y-91873000D01*
X145873000Y-91873000D01*
X145873000Y-90773750D01*
X146127000Y-90773750D01*
X146127000Y-91873000D01*
X147126250Y-91873000D01*
X147285000Y-91714250D01*
X147285000Y-91187458D01*
X147260597Y-91064777D01*
X147212730Y-90949215D01*
X147143237Y-90845211D01*
X147054789Y-90756763D01*
X146950785Y-90687270D01*
X146835223Y-90639403D01*
X146712542Y-90615000D01*
X146285750Y-90615000D01*
X146127000Y-90773750D01*
X145873000Y-90773750D01*
X145714250Y-90615000D01*
X145287458Y-90615000D01*
X145164777Y-90639403D01*
X145049215Y-90687270D01*
X144945211Y-90756763D01*
X144856763Y-90845211D01*
X144787270Y-90949215D01*
X144739403Y-91064777D01*
X144715000Y-91187458D01*
X141781913Y-91187458D01*
X141775812Y-91125518D01*
X141739502Y-91005820D01*
X141680537Y-90895506D01*
X141601185Y-90798815D01*
X141504494Y-90719463D01*
X141394180Y-90660498D01*
X141385000Y-90657713D01*
X141385000Y-84334042D01*
X141615000Y-84334042D01*
X141615000Y-84665958D01*
X141679754Y-84991496D01*
X141806772Y-85298147D01*
X141991175Y-85574125D01*
X142225875Y-85808825D01*
X142501853Y-85993228D01*
X142808504Y-86120246D01*
X143134042Y-86185000D01*
X143465958Y-86185000D01*
X143791496Y-86120246D01*
X144098147Y-85993228D01*
X144374125Y-85808825D01*
X144608825Y-85574125D01*
X144793228Y-85298147D01*
X144920246Y-84991496D01*
X144985000Y-84665958D01*
X144985000Y-84334042D01*
X144920246Y-84008504D01*
X144793228Y-83701853D01*
X144608825Y-83425875D01*
X144374125Y-83191175D01*
X144098147Y-83006772D01*
X143791496Y-82879754D01*
X143465958Y-82815000D01*
X143134042Y-82815000D01*
X142808504Y-82879754D01*
X142501853Y-83006772D01*
X142225875Y-83191175D01*
X141991175Y-83425875D01*
X141806772Y-83701853D01*
X141679754Y-84008504D01*
X141615000Y-84334042D01*
X141385000Y-84334042D01*
X141385000Y-79744497D01*
X154640000Y-66489498D01*
X154640001Y-90667571D01*
X154636807Y-90700000D01*
X154649550Y-90829383D01*
X154687290Y-90953793D01*
X154748575Y-91068450D01*
X154786778Y-91115000D01*
X150272621Y-91115000D01*
X150239502Y-91005820D01*
X150180537Y-90895506D01*
X150101185Y-90798815D01*
X150004494Y-90719463D01*
X149894180Y-90660498D01*
X149774482Y-90624188D01*
X149650000Y-90611928D01*
X148350000Y-90611928D01*
X148225518Y-90624188D01*
X148105820Y-90660498D01*
X147995506Y-90719463D01*
X147898815Y-90798815D01*
X147819463Y-90895506D01*
X147760498Y-91005820D01*
X147724188Y-91125518D01*
X147711928Y-91250000D01*
X147711928Y-92750000D01*
X147724188Y-92874482D01*
X147760498Y-92994180D01*
X147819463Y-93104494D01*
X147898815Y-93201185D01*
X147995506Y-93280537D01*
X148105820Y-93339502D01*
X148115001Y-93342287D01*
X148115000Y-96957713D01*
X148105820Y-96960498D01*
X147995506Y-97019463D01*
X147898815Y-97098815D01*
X147819463Y-97195506D01*
X147760498Y-97305820D01*
X147724188Y-97425518D01*
X147711928Y-97550000D01*
X147711928Y-99050000D01*
X147724188Y-99174482D01*
X147760498Y-99294180D01*
X147819463Y-99404494D01*
X147898815Y-99501185D01*
X147995506Y-99580537D01*
X148105820Y-99639502D01*
X148225518Y-99675812D01*
X148350000Y-99688072D01*
X149650000Y-99688072D01*
X149774482Y-99675812D01*
X149894180Y-99639502D01*
X150004494Y-99580537D01*
X150101185Y-99501185D01*
X150180537Y-99404494D01*
X150239502Y-99294180D01*
X150275812Y-99174482D01*
X150288072Y-99050000D01*
X150288072Y-97550000D01*
X150275812Y-97425518D01*
X150239502Y-97305820D01*
X150180537Y-97195506D01*
X150101185Y-97098815D01*
X150004494Y-97019463D01*
X149894180Y-96960498D01*
X149885000Y-96957713D01*
X149885000Y-93342287D01*
X149894180Y-93339502D01*
X150004494Y-93280537D01*
X150101185Y-93201185D01*
X150180537Y-93104494D01*
X150239502Y-92994180D01*
X150272621Y-92885000D01*
X155788827Y-92885000D01*
X155944866Y-93075134D01*
X156170986Y-93260706D01*
X156225791Y-93290000D01*
X156170986Y-93319294D01*
X155944866Y-93504866D01*
X155759294Y-93730986D01*
X155621401Y-93988966D01*
X155536487Y-94268889D01*
X155507815Y-94560000D01*
X155536487Y-94851111D01*
X155621401Y-95131034D01*
X155759294Y-95389014D01*
X155944866Y-95615134D01*
X155974687Y-95639607D01*
X155905820Y-95660498D01*
X155795506Y-95719463D01*
X155698815Y-95798815D01*
X155619463Y-95895506D01*
X155560498Y-96005820D01*
X155524188Y-96125518D01*
X155511928Y-96250000D01*
X155511928Y-97950000D01*
X155524188Y-98074482D01*
X155560498Y-98194180D01*
X155619463Y-98304494D01*
X155698815Y-98401185D01*
X155795506Y-98480537D01*
X155905820Y-98539502D01*
X156025518Y-98575812D01*
X156150000Y-98588072D01*
X157850000Y-98588072D01*
X157974482Y-98575812D01*
X158094180Y-98539502D01*
X158204494Y-98480537D01*
X158301185Y-98401185D01*
X158340001Y-98353888D01*
X158340001Y-100340000D01*
X136088072Y-100340000D01*
X136088072Y-99350000D01*
X136075812Y-99225518D01*
X136039502Y-99105820D01*
X135980537Y-98995506D01*
X135901185Y-98898815D01*
X135804494Y-98819463D01*
X135694180Y-98760498D01*
X135574482Y-98724188D01*
X135450000Y-98711928D01*
X133950000Y-98711928D01*
X133825518Y-98724188D01*
X133705820Y-98760498D01*
X133595506Y-98819463D01*
X133498815Y-98898815D01*
X133419463Y-98995506D01*
X133360498Y-99105820D01*
X133357713Y-99115000D01*
X129742287Y-99115000D01*
X129739502Y-99105820D01*
X129680537Y-98995506D01*
X129601185Y-98898815D01*
X129504494Y-98819463D01*
X129394180Y-98760498D01*
X129274482Y-98724188D01*
X129150000Y-98711928D01*
X127650000Y-98711928D01*
X127525518Y-98724188D01*
X127405820Y-98760498D01*
X127295506Y-98819463D01*
X127198815Y-98898815D01*
X127119463Y-98995506D01*
X127060498Y-99105820D01*
X127057713Y-99115000D01*
X126784511Y-99115000D01*
X126785000Y-99112542D01*
X126785000Y-98585750D01*
X136215000Y-98585750D01*
X136215000Y-99112542D01*
X136239403Y-99235223D01*
X136287270Y-99350785D01*
X136356763Y-99454789D01*
X136445211Y-99543237D01*
X136549215Y-99612730D01*
X136664777Y-99660597D01*
X136787458Y-99685000D01*
X137214250Y-99685000D01*
X137373000Y-99526250D01*
X137373000Y-98427000D01*
X137627000Y-98427000D01*
X137627000Y-99526250D01*
X137785750Y-99685000D01*
X138212542Y-99685000D01*
X138335223Y-99660597D01*
X138450785Y-99612730D01*
X138554789Y-99543237D01*
X138643237Y-99454789D01*
X138712730Y-99350785D01*
X138760597Y-99235223D01*
X138785000Y-99112542D01*
X138785000Y-98585750D01*
X138626250Y-98427000D01*
X137627000Y-98427000D01*
X137373000Y-98427000D01*
X136373750Y-98427000D01*
X136215000Y-98585750D01*
X126785000Y-98585750D01*
X126626250Y-98427000D01*
X125627000Y-98427000D01*
X125627000Y-98447000D01*
X125373000Y-98447000D01*
X125373000Y-98427000D01*
X124373750Y-98427000D01*
X124215000Y-98585750D01*
X124215000Y-99112542D01*
X124215489Y-99115000D01*
X123781670Y-99115000D01*
X123788072Y-99050000D01*
X123788072Y-97550000D01*
X123781913Y-97487458D01*
X124215000Y-97487458D01*
X124215000Y-98014250D01*
X124373750Y-98173000D01*
X125373000Y-98173000D01*
X125373000Y-97073750D01*
X125627000Y-97073750D01*
X125627000Y-98173000D01*
X126626250Y-98173000D01*
X126785000Y-98014250D01*
X126785000Y-97487458D01*
X126760597Y-97364777D01*
X126727864Y-97285750D01*
X127015000Y-97285750D01*
X127015000Y-97712542D01*
X127039403Y-97835223D01*
X127087270Y-97950785D01*
X127156763Y-98054789D01*
X127245211Y-98143237D01*
X127349215Y-98212730D01*
X127464777Y-98260597D01*
X127587458Y-98285000D01*
X128114250Y-98285000D01*
X128273000Y-98126250D01*
X128273000Y-97127000D01*
X128527000Y-97127000D01*
X128527000Y-98126250D01*
X128685750Y-98285000D01*
X129212542Y-98285000D01*
X129335223Y-98260597D01*
X129450785Y-98212730D01*
X129554789Y-98143237D01*
X129643237Y-98054789D01*
X129712730Y-97950785D01*
X129760597Y-97835223D01*
X129785000Y-97712542D01*
X129785000Y-97285750D01*
X133315000Y-97285750D01*
X133315000Y-97712542D01*
X133339403Y-97835223D01*
X133387270Y-97950785D01*
X133456763Y-98054789D01*
X133545211Y-98143237D01*
X133649215Y-98212730D01*
X133764777Y-98260597D01*
X133887458Y-98285000D01*
X134414250Y-98285000D01*
X134573000Y-98126250D01*
X134573000Y-97127000D01*
X134827000Y-97127000D01*
X134827000Y-98126250D01*
X134985750Y-98285000D01*
X135512542Y-98285000D01*
X135635223Y-98260597D01*
X135750785Y-98212730D01*
X135854789Y-98143237D01*
X135943237Y-98054789D01*
X136012730Y-97950785D01*
X136060597Y-97835223D01*
X136085000Y-97712542D01*
X136085000Y-97487458D01*
X136215000Y-97487458D01*
X136215000Y-98014250D01*
X136373750Y-98173000D01*
X137373000Y-98173000D01*
X137373000Y-97073750D01*
X137627000Y-97073750D01*
X137627000Y-98173000D01*
X138626250Y-98173000D01*
X138785000Y-98014250D01*
X138785000Y-97487458D01*
X138760597Y-97364777D01*
X138712730Y-97249215D01*
X138643237Y-97145211D01*
X138554789Y-97056763D01*
X138450785Y-96987270D01*
X138335223Y-96939403D01*
X138212542Y-96915000D01*
X137785750Y-96915000D01*
X137627000Y-97073750D01*
X137373000Y-97073750D01*
X137214250Y-96915000D01*
X136787458Y-96915000D01*
X136664777Y-96939403D01*
X136549215Y-96987270D01*
X136445211Y-97056763D01*
X136356763Y-97145211D01*
X136287270Y-97249215D01*
X136239403Y-97364777D01*
X136215000Y-97487458D01*
X136085000Y-97487458D01*
X136085000Y-97285750D01*
X135926250Y-97127000D01*
X134827000Y-97127000D01*
X134573000Y-97127000D01*
X133473750Y-97127000D01*
X133315000Y-97285750D01*
X129785000Y-97285750D01*
X129626250Y-97127000D01*
X128527000Y-97127000D01*
X128273000Y-97127000D01*
X127173750Y-97127000D01*
X127015000Y-97285750D01*
X126727864Y-97285750D01*
X126712730Y-97249215D01*
X126643237Y-97145211D01*
X126554789Y-97056763D01*
X126450785Y-96987270D01*
X126335223Y-96939403D01*
X126212542Y-96915000D01*
X125785750Y-96915000D01*
X125627000Y-97073750D01*
X125373000Y-97073750D01*
X125214250Y-96915000D01*
X124787458Y-96915000D01*
X124664777Y-96939403D01*
X124549215Y-96987270D01*
X124445211Y-97056763D01*
X124356763Y-97145211D01*
X124287270Y-97249215D01*
X124239403Y-97364777D01*
X124215000Y-97487458D01*
X123781913Y-97487458D01*
X123775812Y-97425518D01*
X123739502Y-97305820D01*
X123680537Y-97195506D01*
X123601185Y-97098815D01*
X123504494Y-97019463D01*
X123394180Y-96960498D01*
X123385000Y-96957713D01*
X123385000Y-96287458D01*
X127015000Y-96287458D01*
X127015000Y-96714250D01*
X127173750Y-96873000D01*
X128273000Y-96873000D01*
X128273000Y-95873750D01*
X128527000Y-95873750D01*
X128527000Y-96873000D01*
X129626250Y-96873000D01*
X129785000Y-96714250D01*
X129785000Y-96287458D01*
X133315000Y-96287458D01*
X133315000Y-96714250D01*
X133473750Y-96873000D01*
X134573000Y-96873000D01*
X134573000Y-95873750D01*
X134827000Y-95873750D01*
X134827000Y-96873000D01*
X135926250Y-96873000D01*
X136085000Y-96714250D01*
X136085000Y-96287458D01*
X136060597Y-96164777D01*
X136012730Y-96049215D01*
X135943237Y-95945211D01*
X135854789Y-95856763D01*
X135750785Y-95787270D01*
X135635223Y-95739403D01*
X135512542Y-95715000D01*
X134985750Y-95715000D01*
X134827000Y-95873750D01*
X134573000Y-95873750D01*
X134414250Y-95715000D01*
X133887458Y-95715000D01*
X133764777Y-95739403D01*
X133649215Y-95787270D01*
X133545211Y-95856763D01*
X133456763Y-95945211D01*
X133387270Y-96049215D01*
X133339403Y-96164777D01*
X133315000Y-96287458D01*
X129785000Y-96287458D01*
X129760597Y-96164777D01*
X129712730Y-96049215D01*
X129643237Y-95945211D01*
X129554789Y-95856763D01*
X129450785Y-95787270D01*
X129335223Y-95739403D01*
X129212542Y-95715000D01*
X128685750Y-95715000D01*
X128527000Y-95873750D01*
X128273000Y-95873750D01*
X128114250Y-95715000D01*
X127587458Y-95715000D01*
X127464777Y-95739403D01*
X127349215Y-95787270D01*
X127245211Y-95856763D01*
X127156763Y-95945211D01*
X127087270Y-96049215D01*
X127039403Y-96164777D01*
X127015000Y-96287458D01*
X123385000Y-96287458D01*
X123385000Y-93785750D01*
X127015000Y-93785750D01*
X127015000Y-94212542D01*
X127039403Y-94335223D01*
X127087270Y-94450785D01*
X127156763Y-94554789D01*
X127245211Y-94643237D01*
X127349215Y-94712730D01*
X127464777Y-94760597D01*
X127587458Y-94785000D01*
X128114250Y-94785000D01*
X128273000Y-94626250D01*
X128273000Y-93627000D01*
X128527000Y-93627000D01*
X128527000Y-94626250D01*
X128685750Y-94785000D01*
X129212542Y-94785000D01*
X129335223Y-94760597D01*
X129450785Y-94712730D01*
X129554789Y-94643237D01*
X129643237Y-94554789D01*
X129712730Y-94450785D01*
X129760597Y-94335223D01*
X129785000Y-94212542D01*
X129785000Y-93785750D01*
X133315000Y-93785750D01*
X133315000Y-94212542D01*
X133339403Y-94335223D01*
X133387270Y-94450785D01*
X133456763Y-94554789D01*
X133545211Y-94643237D01*
X133649215Y-94712730D01*
X133764777Y-94760597D01*
X133887458Y-94785000D01*
X134414250Y-94785000D01*
X134573000Y-94626250D01*
X134573000Y-93627000D01*
X134827000Y-93627000D01*
X134827000Y-94626250D01*
X134985750Y-94785000D01*
X135512542Y-94785000D01*
X135635223Y-94760597D01*
X135750785Y-94712730D01*
X135854789Y-94643237D01*
X135943237Y-94554789D01*
X136012730Y-94450785D01*
X136060597Y-94335223D01*
X136085000Y-94212542D01*
X136085000Y-93785750D01*
X135926250Y-93627000D01*
X134827000Y-93627000D01*
X134573000Y-93627000D01*
X133473750Y-93627000D01*
X133315000Y-93785750D01*
X129785000Y-93785750D01*
X129626250Y-93627000D01*
X128527000Y-93627000D01*
X128273000Y-93627000D01*
X127173750Y-93627000D01*
X127015000Y-93785750D01*
X123385000Y-93785750D01*
X123385000Y-93342287D01*
X123394180Y-93339502D01*
X123504494Y-93280537D01*
X123601185Y-93201185D01*
X123680537Y-93104494D01*
X123739502Y-92994180D01*
X123775812Y-92874482D01*
X123788072Y-92750000D01*
X123788072Y-92285750D01*
X124215000Y-92285750D01*
X124215000Y-92812542D01*
X124239403Y-92935223D01*
X124287270Y-93050785D01*
X124356763Y-93154789D01*
X124445211Y-93243237D01*
X124549215Y-93312730D01*
X124664777Y-93360597D01*
X124787458Y-93385000D01*
X125214250Y-93385000D01*
X125373000Y-93226250D01*
X125373000Y-92127000D01*
X125627000Y-92127000D01*
X125627000Y-93226250D01*
X125785750Y-93385000D01*
X126212542Y-93385000D01*
X126335223Y-93360597D01*
X126450785Y-93312730D01*
X126554789Y-93243237D01*
X126643237Y-93154789D01*
X126712730Y-93050785D01*
X126760597Y-92935223D01*
X126785000Y-92812542D01*
X126785000Y-92787458D01*
X127015000Y-92787458D01*
X127015000Y-93214250D01*
X127173750Y-93373000D01*
X128273000Y-93373000D01*
X128273000Y-92373750D01*
X128527000Y-92373750D01*
X128527000Y-93373000D01*
X129626250Y-93373000D01*
X129785000Y-93214250D01*
X129785000Y-92787458D01*
X133315000Y-92787458D01*
X133315000Y-93214250D01*
X133473750Y-93373000D01*
X134573000Y-93373000D01*
X134573000Y-92373750D01*
X134827000Y-92373750D01*
X134827000Y-93373000D01*
X135926250Y-93373000D01*
X136085000Y-93214250D01*
X136085000Y-92787458D01*
X136060597Y-92664777D01*
X136012730Y-92549215D01*
X135943237Y-92445211D01*
X135854789Y-92356763D01*
X135750785Y-92287270D01*
X135747116Y-92285750D01*
X136215000Y-92285750D01*
X136215000Y-92812542D01*
X136239403Y-92935223D01*
X136287270Y-93050785D01*
X136356763Y-93154789D01*
X136445211Y-93243237D01*
X136549215Y-93312730D01*
X136664777Y-93360597D01*
X136787458Y-93385000D01*
X137214250Y-93385000D01*
X137373000Y-93226250D01*
X137373000Y-92127000D01*
X137627000Y-92127000D01*
X137627000Y-93226250D01*
X137785750Y-93385000D01*
X138212542Y-93385000D01*
X138335223Y-93360597D01*
X138450785Y-93312730D01*
X138554789Y-93243237D01*
X138643237Y-93154789D01*
X138712730Y-93050785D01*
X138760597Y-92935223D01*
X138785000Y-92812542D01*
X138785000Y-92285750D01*
X138626250Y-92127000D01*
X137627000Y-92127000D01*
X137373000Y-92127000D01*
X136373750Y-92127000D01*
X136215000Y-92285750D01*
X135747116Y-92285750D01*
X135635223Y-92239403D01*
X135512542Y-92215000D01*
X134985750Y-92215000D01*
X134827000Y-92373750D01*
X134573000Y-92373750D01*
X134414250Y-92215000D01*
X133887458Y-92215000D01*
X133764777Y-92239403D01*
X133649215Y-92287270D01*
X133545211Y-92356763D01*
X133456763Y-92445211D01*
X133387270Y-92549215D01*
X133339403Y-92664777D01*
X133315000Y-92787458D01*
X129785000Y-92787458D01*
X129760597Y-92664777D01*
X129712730Y-92549215D01*
X129643237Y-92445211D01*
X129554789Y-92356763D01*
X129450785Y-92287270D01*
X129335223Y-92239403D01*
X129212542Y-92215000D01*
X128685750Y-92215000D01*
X128527000Y-92373750D01*
X128273000Y-92373750D01*
X128114250Y-92215000D01*
X127587458Y-92215000D01*
X127464777Y-92239403D01*
X127349215Y-92287270D01*
X127245211Y-92356763D01*
X127156763Y-92445211D01*
X127087270Y-92549215D01*
X127039403Y-92664777D01*
X127015000Y-92787458D01*
X126785000Y-92787458D01*
X126785000Y-92285750D01*
X126626250Y-92127000D01*
X125627000Y-92127000D01*
X125373000Y-92127000D01*
X124373750Y-92127000D01*
X124215000Y-92285750D01*
X123788072Y-92285750D01*
X123788072Y-91250000D01*
X123781913Y-91187458D01*
X124215000Y-91187458D01*
X124215000Y-91714250D01*
X124373750Y-91873000D01*
X125373000Y-91873000D01*
X125373000Y-90773750D01*
X125627000Y-90773750D01*
X125627000Y-91873000D01*
X126626250Y-91873000D01*
X126785000Y-91714250D01*
X126785000Y-91187458D01*
X126760597Y-91064777D01*
X126712730Y-90949215D01*
X126643237Y-90845211D01*
X126554789Y-90756763D01*
X126450785Y-90687270D01*
X126335223Y-90639403D01*
X126212542Y-90615000D01*
X125785750Y-90615000D01*
X125627000Y-90773750D01*
X125373000Y-90773750D01*
X125214250Y-90615000D01*
X124787458Y-90615000D01*
X124664777Y-90639403D01*
X124549215Y-90687270D01*
X124445211Y-90756763D01*
X124356763Y-90845211D01*
X124287270Y-90949215D01*
X124239403Y-91064777D01*
X124215000Y-91187458D01*
X123781913Y-91187458D01*
X123775812Y-91125518D01*
X123739502Y-91005820D01*
X123680537Y-90895506D01*
X123601185Y-90798815D01*
X123504494Y-90719463D01*
X123394180Y-90660498D01*
X123385000Y-90657713D01*
X123385000Y-78043465D01*
X123389281Y-77999999D01*
X123385000Y-77956533D01*
X123385000Y-77956523D01*
X123372195Y-77826510D01*
X123321589Y-77659687D01*
X123239411Y-77505941D01*
X123128817Y-77371183D01*
X123095051Y-77343472D01*
X119549640Y-73798061D01*
X126365000Y-73798061D01*
X126365000Y-74001939D01*
X126404774Y-74201898D01*
X126482795Y-74390256D01*
X126596063Y-74559774D01*
X126740226Y-74703937D01*
X126909744Y-74817205D01*
X127098102Y-74895226D01*
X127298061Y-74935000D01*
X127501939Y-74935000D01*
X127701898Y-74895226D01*
X127890256Y-74817205D01*
X127938454Y-74785000D01*
X130656531Y-74785000D01*
X130700000Y-74789281D01*
X130743469Y-74785000D01*
X130743477Y-74785000D01*
X130873490Y-74772195D01*
X131040313Y-74721589D01*
X131194059Y-74639411D01*
X131328817Y-74528817D01*
X131356534Y-74495044D01*
X136445044Y-69406535D01*
X136501898Y-69395226D01*
X136690256Y-69317205D01*
X136859774Y-69203937D01*
X137003937Y-69059774D01*
X137117205Y-68890256D01*
X137195226Y-68701898D01*
X137235000Y-68501939D01*
X137235000Y-68298061D01*
X137195226Y-68098102D01*
X137117205Y-67909744D01*
X137003937Y-67740226D01*
X136859774Y-67596063D01*
X136690256Y-67482795D01*
X136501898Y-67404774D01*
X136301939Y-67365000D01*
X136098061Y-67365000D01*
X135898102Y-67404774D01*
X135709744Y-67482795D01*
X135540226Y-67596063D01*
X135396063Y-67740226D01*
X135282795Y-67909744D01*
X135204774Y-68098102D01*
X135193465Y-68154956D01*
X130333422Y-73015000D01*
X127938454Y-73015000D01*
X127890256Y-72982795D01*
X127701898Y-72904774D01*
X127501939Y-72865000D01*
X127298061Y-72865000D01*
X127098102Y-72904774D01*
X126909744Y-72982795D01*
X126740226Y-73096063D01*
X126596063Y-73240226D01*
X126482795Y-73409744D01*
X126404774Y-73598102D01*
X126365000Y-73798061D01*
X119549640Y-73798061D01*
X107546533Y-61794955D01*
X107518816Y-61761182D01*
X107474021Y-61724420D01*
X107492185Y-61540000D01*
X107463513Y-61248889D01*
X107378599Y-60968966D01*
X107280669Y-60785750D01*
X126215000Y-60785750D01*
X126215000Y-61412542D01*
X126239403Y-61535223D01*
X126287270Y-61650785D01*
X126356763Y-61754789D01*
X126445211Y-61843237D01*
X126549215Y-61912730D01*
X126664777Y-61960597D01*
X126787458Y-61985000D01*
X127414250Y-61985000D01*
X127573000Y-61826250D01*
X127573000Y-60627000D01*
X126373750Y-60627000D01*
X126215000Y-60785750D01*
X107280669Y-60785750D01*
X107240706Y-60710986D01*
X107055134Y-60484866D01*
X107027447Y-60462144D01*
X107035223Y-60460597D01*
X107150785Y-60412730D01*
X107254789Y-60343237D01*
X107343237Y-60254789D01*
X107412730Y-60150785D01*
X107460597Y-60035223D01*
X107485000Y-59912542D01*
X107485000Y-59587458D01*
X126215000Y-59587458D01*
X126215000Y-60214250D01*
X126373750Y-60373000D01*
X127573000Y-60373000D01*
X127573000Y-59173750D01*
X127827000Y-59173750D01*
X127827000Y-60373000D01*
X127847000Y-60373000D01*
X127847000Y-60627000D01*
X127827000Y-60627000D01*
X127827000Y-61826250D01*
X127985750Y-61985000D01*
X128612542Y-61985000D01*
X128735223Y-61960597D01*
X128850785Y-61912730D01*
X128954789Y-61843237D01*
X129043237Y-61754789D01*
X129112730Y-61650785D01*
X129160597Y-61535223D01*
X129162144Y-61527447D01*
X129184866Y-61555134D01*
X129410986Y-61740706D01*
X129668966Y-61878599D01*
X129948889Y-61963513D01*
X130167050Y-61985000D01*
X130312950Y-61985000D01*
X130531111Y-61963513D01*
X130811034Y-61878599D01*
X131069014Y-61740706D01*
X131295134Y-61555134D01*
X131480706Y-61329014D01*
X131510000Y-61274209D01*
X131539294Y-61329014D01*
X131724866Y-61555134D01*
X131950986Y-61740706D01*
X132208966Y-61878599D01*
X132488889Y-61963513D01*
X132707050Y-61985000D01*
X132852950Y-61985000D01*
X133071111Y-61963513D01*
X133351034Y-61878599D01*
X133609014Y-61740706D01*
X133835134Y-61555134D01*
X134020706Y-61329014D01*
X134050000Y-61274209D01*
X134079294Y-61329014D01*
X134264866Y-61555134D01*
X134490986Y-61740706D01*
X134748966Y-61878599D01*
X135028889Y-61963513D01*
X135247050Y-61985000D01*
X135392950Y-61985000D01*
X135611111Y-61963513D01*
X135891034Y-61878599D01*
X136149014Y-61740706D01*
X136375134Y-61555134D01*
X136560706Y-61329014D01*
X136698599Y-61071034D01*
X136783513Y-60791111D01*
X136812185Y-60500000D01*
X136783513Y-60208889D01*
X136698599Y-59928966D01*
X136560706Y-59670986D01*
X136375134Y-59444866D01*
X136149014Y-59259294D01*
X135891034Y-59121401D01*
X135611111Y-59036487D01*
X135392950Y-59015000D01*
X135247050Y-59015000D01*
X135028889Y-59036487D01*
X134748966Y-59121401D01*
X134490986Y-59259294D01*
X134264866Y-59444866D01*
X134079294Y-59670986D01*
X134050000Y-59725791D01*
X134020706Y-59670986D01*
X133835134Y-59444866D01*
X133609014Y-59259294D01*
X133351034Y-59121401D01*
X133071111Y-59036487D01*
X132852950Y-59015000D01*
X132707050Y-59015000D01*
X132488889Y-59036487D01*
X132208966Y-59121401D01*
X131950986Y-59259294D01*
X131724866Y-59444866D01*
X131539294Y-59670986D01*
X131510000Y-59725791D01*
X131480706Y-59670986D01*
X131295134Y-59444866D01*
X131069014Y-59259294D01*
X130811034Y-59121401D01*
X130531111Y-59036487D01*
X130312950Y-59015000D01*
X130167050Y-59015000D01*
X129948889Y-59036487D01*
X129668966Y-59121401D01*
X129410986Y-59259294D01*
X129184866Y-59444866D01*
X129162144Y-59472553D01*
X129160597Y-59464777D01*
X129112730Y-59349215D01*
X129043237Y-59245211D01*
X128954789Y-59156763D01*
X128850785Y-59087270D01*
X128735223Y-59039403D01*
X128612542Y-59015000D01*
X127985750Y-59015000D01*
X127827000Y-59173750D01*
X127573000Y-59173750D01*
X127414250Y-59015000D01*
X126787458Y-59015000D01*
X126664777Y-59039403D01*
X126549215Y-59087270D01*
X126445211Y-59156763D01*
X126356763Y-59245211D01*
X126287270Y-59349215D01*
X126239403Y-59464777D01*
X126215000Y-59587458D01*
X107485000Y-59587458D01*
X107485000Y-59285750D01*
X107326250Y-59127000D01*
X106127000Y-59127000D01*
X106127000Y-59147000D01*
X105873000Y-59147000D01*
X105873000Y-59127000D01*
X105853000Y-59127000D01*
X105853000Y-58873000D01*
X105873000Y-58873000D01*
X105873000Y-57673750D01*
X106127000Y-57673750D01*
X106127000Y-58873000D01*
X107326250Y-58873000D01*
X107485000Y-58714250D01*
X107485000Y-58087458D01*
X107460597Y-57964777D01*
X107412730Y-57849215D01*
X107343237Y-57745211D01*
X107254789Y-57656763D01*
X107150785Y-57587270D01*
X107035223Y-57539403D01*
X106912542Y-57515000D01*
X106285750Y-57515000D01*
X106127000Y-57673750D01*
X105873000Y-57673750D01*
X105714250Y-57515000D01*
X105087458Y-57515000D01*
X104964777Y-57539403D01*
X104849215Y-57587270D01*
X104745211Y-57656763D01*
X104660000Y-57741974D01*
X104660000Y-55660000D01*
X158340000Y-55660000D01*
X158340000Y-57746112D01*
G36*
X121615000Y-78366579D02*
X121615001Y-90657713D01*
X121605820Y-90660498D01*
X121495506Y-90719463D01*
X121398815Y-90798815D01*
X121319463Y-90895506D01*
X121260498Y-91005820D01*
X121224188Y-91125518D01*
X121211928Y-91250000D01*
X121211928Y-92750000D01*
X121224188Y-92874482D01*
X121260498Y-92994180D01*
X121319463Y-93104494D01*
X121398815Y-93201185D01*
X121495506Y-93280537D01*
X121605820Y-93339502D01*
X121615000Y-93342287D01*
X121615001Y-96957713D01*
X121605820Y-96960498D01*
X121495506Y-97019463D01*
X121398815Y-97098815D01*
X121319463Y-97195506D01*
X121260498Y-97305820D01*
X121224188Y-97425518D01*
X121211928Y-97550000D01*
X121211928Y-99050000D01*
X121218330Y-99115000D01*
X118284511Y-99115000D01*
X118285000Y-99112542D01*
X118285000Y-98585750D01*
X118126250Y-98427000D01*
X117127000Y-98427000D01*
X117127000Y-98447000D01*
X116873000Y-98447000D01*
X116873000Y-98427000D01*
X115873750Y-98427000D01*
X115715000Y-98585750D01*
X115715000Y-99112542D01*
X115715489Y-99115000D01*
X115281670Y-99115000D01*
X115288072Y-99050000D01*
X115288072Y-97550000D01*
X115281913Y-97487458D01*
X115715000Y-97487458D01*
X115715000Y-98014250D01*
X115873750Y-98173000D01*
X116873000Y-98173000D01*
X116873000Y-97073750D01*
X117127000Y-97073750D01*
X117127000Y-98173000D01*
X118126250Y-98173000D01*
X118285000Y-98014250D01*
X118285000Y-97487458D01*
X118260597Y-97364777D01*
X118212730Y-97249215D01*
X118143237Y-97145211D01*
X118054789Y-97056763D01*
X117950785Y-96987270D01*
X117835223Y-96939403D01*
X117712542Y-96915000D01*
X117285750Y-96915000D01*
X117127000Y-97073750D01*
X116873000Y-97073750D01*
X116714250Y-96915000D01*
X116287458Y-96915000D01*
X116164777Y-96939403D01*
X116049215Y-96987270D01*
X115945211Y-97056763D01*
X115856763Y-97145211D01*
X115787270Y-97249215D01*
X115739403Y-97364777D01*
X115715000Y-97487458D01*
X115281913Y-97487458D01*
X115275812Y-97425518D01*
X115239502Y-97305820D01*
X115180537Y-97195506D01*
X115101185Y-97098815D01*
X115004494Y-97019463D01*
X114894180Y-96960498D01*
X114885000Y-96957713D01*
X114885000Y-93342287D01*
X114894180Y-93339502D01*
X115004494Y-93280537D01*
X115101185Y-93201185D01*
X115180537Y-93104494D01*
X115239502Y-92994180D01*
X115275812Y-92874482D01*
X115288072Y-92750000D01*
X115288072Y-92285750D01*
X115715000Y-92285750D01*
X115715000Y-92812542D01*
X115739403Y-92935223D01*
X115787270Y-93050785D01*
X115856763Y-93154789D01*
X115945211Y-93243237D01*
X116049215Y-93312730D01*
X116164777Y-93360597D01*
X116287458Y-93385000D01*
X116714250Y-93385000D01*
X116873000Y-93226250D01*
X116873000Y-92127000D01*
X117127000Y-92127000D01*
X117127000Y-93226250D01*
X117285750Y-93385000D01*
X117712542Y-93385000D01*
X117835223Y-93360597D01*
X117950785Y-93312730D01*
X118054789Y-93243237D01*
X118143237Y-93154789D01*
X118212730Y-93050785D01*
X118260597Y-92935223D01*
X118285000Y-92812542D01*
X118285000Y-92285750D01*
X118126250Y-92127000D01*
X117127000Y-92127000D01*
X116873000Y-92127000D01*
X115873750Y-92127000D01*
X115715000Y-92285750D01*
X115288072Y-92285750D01*
X115288072Y-91250000D01*
X115281913Y-91187458D01*
X115715000Y-91187458D01*
X115715000Y-91714250D01*
X115873750Y-91873000D01*
X116873000Y-91873000D01*
X116873000Y-90773750D01*
X117127000Y-90773750D01*
X117127000Y-91873000D01*
X118126250Y-91873000D01*
X118285000Y-91714250D01*
X118285000Y-91187458D01*
X118260597Y-91064777D01*
X118212730Y-90949215D01*
X118143237Y-90845211D01*
X118054789Y-90756763D01*
X117950785Y-90687270D01*
X117835223Y-90639403D01*
X117712542Y-90615000D01*
X117285750Y-90615000D01*
X117127000Y-90773750D01*
X116873000Y-90773750D01*
X116714250Y-90615000D01*
X116287458Y-90615000D01*
X116164777Y-90639403D01*
X116049215Y-90687270D01*
X115945211Y-90756763D01*
X115856763Y-90845211D01*
X115787270Y-90949215D01*
X115739403Y-91064777D01*
X115715000Y-91187458D01*
X115281913Y-91187458D01*
X115275812Y-91125518D01*
X115239502Y-91005820D01*
X115180537Y-90895506D01*
X115101185Y-90798815D01*
X115004494Y-90719463D01*
X114894180Y-90660498D01*
X114885000Y-90657713D01*
X114885000Y-84334042D01*
X118015000Y-84334042D01*
X118015000Y-84665958D01*
X118079754Y-84991496D01*
X118206772Y-85298147D01*
X118391175Y-85574125D01*
X118625875Y-85808825D01*
X118901853Y-85993228D01*
X119208504Y-86120246D01*
X119534042Y-86185000D01*
X119865958Y-86185000D01*
X120191496Y-86120246D01*
X120498147Y-85993228D01*
X120774125Y-85808825D01*
X121008825Y-85574125D01*
X121193228Y-85298147D01*
X121320246Y-84991496D01*
X121385000Y-84665958D01*
X121385000Y-84334042D01*
X121320246Y-84008504D01*
X121193228Y-83701853D01*
X121008825Y-83425875D01*
X120774125Y-83191175D01*
X120498147Y-83006772D01*
X120191496Y-82879754D01*
X119865958Y-82815000D01*
X119534042Y-82815000D01*
X119208504Y-82879754D01*
X118901853Y-83006772D01*
X118625875Y-83191175D01*
X118391175Y-83425875D01*
X118206772Y-83701853D01*
X118079754Y-84008504D01*
X118015000Y-84334042D01*
X114885000Y-84334042D01*
X114885000Y-71636579D01*
X121615000Y-78366579D01*
X121615000Y-78366579D01*
G37*
X121615000Y-78366579D02*
X121615001Y-90657713D01*
X121605820Y-90660498D01*
X121495506Y-90719463D01*
X121398815Y-90798815D01*
X121319463Y-90895506D01*
X121260498Y-91005820D01*
X121224188Y-91125518D01*
X121211928Y-91250000D01*
X121211928Y-92750000D01*
X121224188Y-92874482D01*
X121260498Y-92994180D01*
X121319463Y-93104494D01*
X121398815Y-93201185D01*
X121495506Y-93280537D01*
X121605820Y-93339502D01*
X121615000Y-93342287D01*
X121615001Y-96957713D01*
X121605820Y-96960498D01*
X121495506Y-97019463D01*
X121398815Y-97098815D01*
X121319463Y-97195506D01*
X121260498Y-97305820D01*
X121224188Y-97425518D01*
X121211928Y-97550000D01*
X121211928Y-99050000D01*
X121218330Y-99115000D01*
X118284511Y-99115000D01*
X118285000Y-99112542D01*
X118285000Y-98585750D01*
X118126250Y-98427000D01*
X117127000Y-98427000D01*
X117127000Y-98447000D01*
X116873000Y-98447000D01*
X116873000Y-98427000D01*
X115873750Y-98427000D01*
X115715000Y-98585750D01*
X115715000Y-99112542D01*
X115715489Y-99115000D01*
X115281670Y-99115000D01*
X115288072Y-99050000D01*
X115288072Y-97550000D01*
X115281913Y-97487458D01*
X115715000Y-97487458D01*
X115715000Y-98014250D01*
X115873750Y-98173000D01*
X116873000Y-98173000D01*
X116873000Y-97073750D01*
X117127000Y-97073750D01*
X117127000Y-98173000D01*
X118126250Y-98173000D01*
X118285000Y-98014250D01*
X118285000Y-97487458D01*
X118260597Y-97364777D01*
X118212730Y-97249215D01*
X118143237Y-97145211D01*
X118054789Y-97056763D01*
X117950785Y-96987270D01*
X117835223Y-96939403D01*
X117712542Y-96915000D01*
X117285750Y-96915000D01*
X117127000Y-97073750D01*
X116873000Y-97073750D01*
X116714250Y-96915000D01*
X116287458Y-96915000D01*
X116164777Y-96939403D01*
X116049215Y-96987270D01*
X115945211Y-97056763D01*
X115856763Y-97145211D01*
X115787270Y-97249215D01*
X115739403Y-97364777D01*
X115715000Y-97487458D01*
X115281913Y-97487458D01*
X115275812Y-97425518D01*
X115239502Y-97305820D01*
X115180537Y-97195506D01*
X115101185Y-97098815D01*
X115004494Y-97019463D01*
X114894180Y-96960498D01*
X114885000Y-96957713D01*
X114885000Y-93342287D01*
X114894180Y-93339502D01*
X115004494Y-93280537D01*
X115101185Y-93201185D01*
X115180537Y-93104494D01*
X115239502Y-92994180D01*
X115275812Y-92874482D01*
X115288072Y-92750000D01*
X115288072Y-92285750D01*
X115715000Y-92285750D01*
X115715000Y-92812542D01*
X115739403Y-92935223D01*
X115787270Y-93050785D01*
X115856763Y-93154789D01*
X115945211Y-93243237D01*
X116049215Y-93312730D01*
X116164777Y-93360597D01*
X116287458Y-93385000D01*
X116714250Y-93385000D01*
X116873000Y-93226250D01*
X116873000Y-92127000D01*
X117127000Y-92127000D01*
X117127000Y-93226250D01*
X117285750Y-93385000D01*
X117712542Y-93385000D01*
X117835223Y-93360597D01*
X117950785Y-93312730D01*
X118054789Y-93243237D01*
X118143237Y-93154789D01*
X118212730Y-93050785D01*
X118260597Y-92935223D01*
X118285000Y-92812542D01*
X118285000Y-92285750D01*
X118126250Y-92127000D01*
X117127000Y-92127000D01*
X116873000Y-92127000D01*
X115873750Y-92127000D01*
X115715000Y-92285750D01*
X115288072Y-92285750D01*
X115288072Y-91250000D01*
X115281913Y-91187458D01*
X115715000Y-91187458D01*
X115715000Y-91714250D01*
X115873750Y-91873000D01*
X116873000Y-91873000D01*
X116873000Y-90773750D01*
X117127000Y-90773750D01*
X117127000Y-91873000D01*
X118126250Y-91873000D01*
X118285000Y-91714250D01*
X118285000Y-91187458D01*
X118260597Y-91064777D01*
X118212730Y-90949215D01*
X118143237Y-90845211D01*
X118054789Y-90756763D01*
X117950785Y-90687270D01*
X117835223Y-90639403D01*
X117712542Y-90615000D01*
X117285750Y-90615000D01*
X117127000Y-90773750D01*
X116873000Y-90773750D01*
X116714250Y-90615000D01*
X116287458Y-90615000D01*
X116164777Y-90639403D01*
X116049215Y-90687270D01*
X115945211Y-90756763D01*
X115856763Y-90845211D01*
X115787270Y-90949215D01*
X115739403Y-91064777D01*
X115715000Y-91187458D01*
X115281913Y-91187458D01*
X115275812Y-91125518D01*
X115239502Y-91005820D01*
X115180537Y-90895506D01*
X115101185Y-90798815D01*
X115004494Y-90719463D01*
X114894180Y-90660498D01*
X114885000Y-90657713D01*
X114885000Y-84334042D01*
X118015000Y-84334042D01*
X118015000Y-84665958D01*
X118079754Y-84991496D01*
X118206772Y-85298147D01*
X118391175Y-85574125D01*
X118625875Y-85808825D01*
X118901853Y-85993228D01*
X119208504Y-86120246D01*
X119534042Y-86185000D01*
X119865958Y-86185000D01*
X120191496Y-86120246D01*
X120498147Y-85993228D01*
X120774125Y-85808825D01*
X121008825Y-85574125D01*
X121193228Y-85298147D01*
X121320246Y-84991496D01*
X121385000Y-84665958D01*
X121385000Y-84334042D01*
X121320246Y-84008504D01*
X121193228Y-83701853D01*
X121008825Y-83425875D01*
X120774125Y-83191175D01*
X120498147Y-83006772D01*
X120191496Y-82879754D01*
X119865958Y-82815000D01*
X119534042Y-82815000D01*
X119208504Y-82879754D01*
X118901853Y-83006772D01*
X118625875Y-83191175D01*
X118391175Y-83425875D01*
X118206772Y-83701853D01*
X118079754Y-84008504D01*
X118015000Y-84334042D01*
X114885000Y-84334042D01*
X114885000Y-71636579D01*
X121615000Y-78366579D01*
G36*
X113115000Y-71394814D02*
X113115001Y-90657713D01*
X113105820Y-90660498D01*
X112995506Y-90719463D01*
X112898815Y-90798815D01*
X112819463Y-90895506D01*
X112760498Y-91005820D01*
X112724188Y-91125518D01*
X112711928Y-91250000D01*
X112711928Y-92750000D01*
X112724188Y-92874482D01*
X112760498Y-92994180D01*
X112819463Y-93104494D01*
X112898815Y-93201185D01*
X112995506Y-93280537D01*
X113105820Y-93339502D01*
X113115001Y-93342287D01*
X113115000Y-96957713D01*
X113105820Y-96960498D01*
X112995506Y-97019463D01*
X112898815Y-97098815D01*
X112819463Y-97195506D01*
X112760498Y-97305820D01*
X112724188Y-97425518D01*
X112711928Y-97550000D01*
X112711928Y-97970351D01*
X107362580Y-92621004D01*
X107378599Y-92591034D01*
X107463513Y-92311111D01*
X107492185Y-92020000D01*
X107463513Y-91728889D01*
X107378599Y-91448966D01*
X107331046Y-91360000D01*
X107667581Y-91360000D01*
X107700000Y-91363193D01*
X107732419Y-91360000D01*
X107829383Y-91350450D01*
X107953793Y-91312710D01*
X108068450Y-91251425D01*
X108168948Y-91168948D01*
X108251425Y-91068450D01*
X108312710Y-90953793D01*
X108350450Y-90829383D01*
X108363193Y-90700000D01*
X108360000Y-90667581D01*
X108360000Y-66639813D01*
X113115000Y-71394814D01*
X113115000Y-71394814D01*
G37*
X113115000Y-71394814D02*
X113115001Y-90657713D01*
X113105820Y-90660498D01*
X112995506Y-90719463D01*
X112898815Y-90798815D01*
X112819463Y-90895506D01*
X112760498Y-91005820D01*
X112724188Y-91125518D01*
X112711928Y-91250000D01*
X112711928Y-92750000D01*
X112724188Y-92874482D01*
X112760498Y-92994180D01*
X112819463Y-93104494D01*
X112898815Y-93201185D01*
X112995506Y-93280537D01*
X113105820Y-93339502D01*
X113115001Y-93342287D01*
X113115000Y-96957713D01*
X113105820Y-96960498D01*
X112995506Y-97019463D01*
X112898815Y-97098815D01*
X112819463Y-97195506D01*
X112760498Y-97305820D01*
X112724188Y-97425518D01*
X112711928Y-97550000D01*
X112711928Y-97970351D01*
X107362580Y-92621004D01*
X107378599Y-92591034D01*
X107463513Y-92311111D01*
X107492185Y-92020000D01*
X107463513Y-91728889D01*
X107378599Y-91448966D01*
X107331046Y-91360000D01*
X107667581Y-91360000D01*
X107700000Y-91363193D01*
X107732419Y-91360000D01*
X107829383Y-91350450D01*
X107953793Y-91312710D01*
X108068450Y-91251425D01*
X108168948Y-91168948D01*
X108251425Y-91068450D01*
X108312710Y-90953793D01*
X108350450Y-90829383D01*
X108363193Y-90700000D01*
X108360000Y-90667581D01*
X108360000Y-66639813D01*
X113115000Y-71394814D01*
%TD*%
M02*
